<?xml version="1.0" encoding="utf-8" standalone="no"?>
<!DOCTYPE svg PUBLIC "-//W3C//DTD SVG 1.1//EN"
  "http://www.w3.org/Graphics/SVG/1.1/DTD/svg11.dtd">
<svg xmlns:xlink="http://www.w3.org/1999/xlink" width="720pt" height="432pt" viewBox="0 0 720 432" xmlns="http://www.w3.org/2000/svg" version="1.1">
 <metadata>
  <rdf:RDF xmlns:dc="http://purl.org/dc/elements/1.1/" xmlns:cc="http://creativecommons.org/ns#" xmlns:rdf="http://www.w3.org/1999/02/22-rdf-syntax-ns#">
   <cc:Work>
    <dc:type rdf:resource="http://purl.org/dc/dcmitype/StillImage"/>
    <dc:date>2025-11-25T04:09:44.033661</dc:date>
    <dc:format>image/svg+xml</dc:format>
    <dc:creator>
     <cc:Agent>
      <dc:title>Matplotlib v3.10.6, https://matplotlib.org/</dc:title>
     </cc:Agent>
    </dc:creator>
   </cc:Work>
  </rdf:RDF>
 </metadata>
 <defs>
  <style type="text/css">*{stroke-linejoin: round; stroke-linecap: butt}</style>
 </defs>
 <g id="figure_1">
  <g id="patch_1">
   <path d="M 0 432 
L 720 432 
L 720 0 
L 0 0 
z
" style="fill: #ffffff"/>
  </g>
  <g id="axes_1">
   <g id="patch_2">
    <path d="M 48.37 398.84 
L 705.355 398.84 
L 705.355 18.08 
L 48.37 18.08 
z
" style="fill: #ffffff"/>
   </g>
   <g id="matplotlib.axis_1">
    <g id="xtick_1">
     <g id="line2d_1">
      <path d="M 48.37 398.84 
L 48.37 18.08 
" clip-path="url(#p38ad040732)" style="fill: none; stroke-dasharray: 0.8,1.32; stroke-dashoffset: 0; stroke: #b0b0b0; stroke-opacity: 0.7; stroke-width: 0.8"/>
     </g>
     <g id="line2d_2">
      <defs>
       <path id="md3670ad0e3" d="M 0 0 
L 0 3.5 
" style="stroke: #000000; stroke-width: 0.8"/>
      </defs>
      <g>
       <use xlink:href="#md3670ad0e3" x="48.37" y="398.84" style="stroke: #000000; stroke-width: 0.8"/>
      </g>
     </g>
     <g id="text_1">
      <!-- 0 -->
      <g transform="translate(45.18875 413.438437) scale(0.1 -0.1)">
       <defs>
        <path id="DejaVuSans-30" d="M 2034 4250 
Q 1547 4250 1301 3770 
Q 1056 3291 1056 2328 
Q 1056 1369 1301 889 
Q 1547 409 2034 409 
Q 2525 409 2770 889 
Q 3016 1369 3016 2328 
Q 3016 3291 2770 3770 
Q 2525 4250 2034 4250 
z
M 2034 4750 
Q 2819 4750 3233 4129 
Q 3647 3509 3647 2328 
Q 3647 1150 3233 529 
Q 2819 -91 2034 -91 
Q 1250 -91 836 529 
Q 422 1150 422 2328 
Q 422 3509 836 4129 
Q 1250 4750 2034 4750 
z
" transform="scale(0.015625)"/>
       </defs>
       <use xlink:href="#DejaVuSans-30"/>
      </g>
     </g>
    </g>
    <g id="xtick_2">
     <g id="line2d_3">
      <path d="M 114.0685 398.84 
L 114.0685 18.08 
" clip-path="url(#p38ad040732)" style="fill: none; stroke-dasharray: 0.8,1.32; stroke-dashoffset: 0; stroke: #b0b0b0; stroke-opacity: 0.7; stroke-width: 0.8"/>
     </g>
     <g id="line2d_4">
      <g>
       <use xlink:href="#md3670ad0e3" x="114.0685" y="398.84" style="stroke: #000000; stroke-width: 0.8"/>
      </g>
     </g>
     <g id="text_2">
      <!-- 100 -->
      <g transform="translate(104.52475 413.438437) scale(0.1 -0.1)">
       <defs>
        <path id="DejaVuSans-31" d="M 794 531 
L 1825 531 
L 1825 4091 
L 703 3866 
L 703 4441 
L 1819 4666 
L 2450 4666 
L 2450 531 
L 3481 531 
L 3481 0 
L 794 0 
L 794 531 
z
" transform="scale(0.015625)"/>
       </defs>
       <use xlink:href="#DejaVuSans-31"/>
       <use xlink:href="#DejaVuSans-30" transform="translate(63.623047 0)"/>
       <use xlink:href="#DejaVuSans-30" transform="translate(127.246094 0)"/>
      </g>
     </g>
    </g>
    <g id="xtick_3">
     <g id="line2d_5">
      <path d="M 179.767 398.84 
L 179.767 18.08 
" clip-path="url(#p38ad040732)" style="fill: none; stroke-dasharray: 0.8,1.32; stroke-dashoffset: 0; stroke: #b0b0b0; stroke-opacity: 0.7; stroke-width: 0.8"/>
     </g>
     <g id="line2d_6">
      <g>
       <use xlink:href="#md3670ad0e3" x="179.767" y="398.84" style="stroke: #000000; stroke-width: 0.8"/>
      </g>
     </g>
     <g id="text_3">
      <!-- 200 -->
      <g transform="translate(170.22325 413.438437) scale(0.1 -0.1)">
       <defs>
        <path id="DejaVuSans-32" d="M 1228 531 
L 3431 531 
L 3431 0 
L 469 0 
L 469 531 
Q 828 903 1448 1529 
Q 2069 2156 2228 2338 
Q 2531 2678 2651 2914 
Q 2772 3150 2772 3378 
Q 2772 3750 2511 3984 
Q 2250 4219 1831 4219 
Q 1534 4219 1204 4116 
Q 875 4013 500 3803 
L 500 4441 
Q 881 4594 1212 4672 
Q 1544 4750 1819 4750 
Q 2544 4750 2975 4387 
Q 3406 4025 3406 3419 
Q 3406 3131 3298 2873 
Q 3191 2616 2906 2266 
Q 2828 2175 2409 1742 
Q 1991 1309 1228 531 
z
" transform="scale(0.015625)"/>
       </defs>
       <use xlink:href="#DejaVuSans-32"/>
       <use xlink:href="#DejaVuSans-30" transform="translate(63.623047 0)"/>
       <use xlink:href="#DejaVuSans-30" transform="translate(127.246094 0)"/>
      </g>
     </g>
    </g>
    <g id="xtick_4">
     <g id="line2d_7">
      <path d="M 245.4655 398.84 
L 245.4655 18.08 
" clip-path="url(#p38ad040732)" style="fill: none; stroke-dasharray: 0.8,1.32; stroke-dashoffset: 0; stroke: #b0b0b0; stroke-opacity: 0.7; stroke-width: 0.8"/>
     </g>
     <g id="line2d_8">
      <g>
       <use xlink:href="#md3670ad0e3" x="245.4655" y="398.84" style="stroke: #000000; stroke-width: 0.8"/>
      </g>
     </g>
     <g id="text_4">
      <!-- 300 -->
      <g transform="translate(235.92175 413.438437) scale(0.1 -0.1)">
       <defs>
        <path id="DejaVuSans-33" d="M 2597 2516 
Q 3050 2419 3304 2112 
Q 3559 1806 3559 1356 
Q 3559 666 3084 287 
Q 2609 -91 1734 -91 
Q 1441 -91 1130 -33 
Q 819 25 488 141 
L 488 750 
Q 750 597 1062 519 
Q 1375 441 1716 441 
Q 2309 441 2620 675 
Q 2931 909 2931 1356 
Q 2931 1769 2642 2001 
Q 2353 2234 1838 2234 
L 1294 2234 
L 1294 2753 
L 1863 2753 
Q 2328 2753 2575 2939 
Q 2822 3125 2822 3475 
Q 2822 3834 2567 4026 
Q 2313 4219 1838 4219 
Q 1578 4219 1281 4162 
Q 984 4106 628 3988 
L 628 4550 
Q 988 4650 1302 4700 
Q 1616 4750 1894 4750 
Q 2613 4750 3031 4423 
Q 3450 4097 3450 3541 
Q 3450 3153 3228 2886 
Q 3006 2619 2597 2516 
z
" transform="scale(0.015625)"/>
       </defs>
       <use xlink:href="#DejaVuSans-33"/>
       <use xlink:href="#DejaVuSans-30" transform="translate(63.623047 0)"/>
       <use xlink:href="#DejaVuSans-30" transform="translate(127.246094 0)"/>
      </g>
     </g>
    </g>
    <g id="xtick_5">
     <g id="line2d_9">
      <path d="M 311.164 398.84 
L 311.164 18.08 
" clip-path="url(#p38ad040732)" style="fill: none; stroke-dasharray: 0.8,1.32; stroke-dashoffset: 0; stroke: #b0b0b0; stroke-opacity: 0.7; stroke-width: 0.8"/>
     </g>
     <g id="line2d_10">
      <g>
       <use xlink:href="#md3670ad0e3" x="311.164" y="398.84" style="stroke: #000000; stroke-width: 0.8"/>
      </g>
     </g>
     <g id="text_5">
      <!-- 400 -->
      <g transform="translate(301.62025 413.438437) scale(0.1 -0.1)">
       <defs>
        <path id="DejaVuSans-34" d="M 2419 4116 
L 825 1625 
L 2419 1625 
L 2419 4116 
z
M 2253 4666 
L 3047 4666 
L 3047 1625 
L 3713 1625 
L 3713 1100 
L 3047 1100 
L 3047 0 
L 2419 0 
L 2419 1100 
L 313 1100 
L 313 1709 
L 2253 4666 
z
" transform="scale(0.015625)"/>
       </defs>
       <use xlink:href="#DejaVuSans-34"/>
       <use xlink:href="#DejaVuSans-30" transform="translate(63.623047 0)"/>
       <use xlink:href="#DejaVuSans-30" transform="translate(127.246094 0)"/>
      </g>
     </g>
    </g>
    <g id="xtick_6">
     <g id="line2d_11">
      <path d="M 376.8625 398.84 
L 376.8625 18.08 
" clip-path="url(#p38ad040732)" style="fill: none; stroke-dasharray: 0.8,1.32; stroke-dashoffset: 0; stroke: #b0b0b0; stroke-opacity: 0.7; stroke-width: 0.8"/>
     </g>
     <g id="line2d_12">
      <g>
       <use xlink:href="#md3670ad0e3" x="376.8625" y="398.84" style="stroke: #000000; stroke-width: 0.8"/>
      </g>
     </g>
     <g id="text_6">
      <!-- 500 -->
      <g transform="translate(367.31875 413.438437) scale(0.1 -0.1)">
       <defs>
        <path id="DejaVuSans-35" d="M 691 4666 
L 3169 4666 
L 3169 4134 
L 1269 4134 
L 1269 2991 
Q 1406 3038 1543 3061 
Q 1681 3084 1819 3084 
Q 2600 3084 3056 2656 
Q 3513 2228 3513 1497 
Q 3513 744 3044 326 
Q 2575 -91 1722 -91 
Q 1428 -91 1123 -41 
Q 819 9 494 109 
L 494 744 
Q 775 591 1075 516 
Q 1375 441 1709 441 
Q 2250 441 2565 725 
Q 2881 1009 2881 1497 
Q 2881 1984 2565 2268 
Q 2250 2553 1709 2553 
Q 1456 2553 1204 2497 
Q 953 2441 691 2322 
L 691 4666 
z
" transform="scale(0.015625)"/>
       </defs>
       <use xlink:href="#DejaVuSans-35"/>
       <use xlink:href="#DejaVuSans-30" transform="translate(63.623047 0)"/>
       <use xlink:href="#DejaVuSans-30" transform="translate(127.246094 0)"/>
      </g>
     </g>
    </g>
    <g id="xtick_7">
     <g id="line2d_13">
      <path d="M 442.561 398.84 
L 442.561 18.08 
" clip-path="url(#p38ad040732)" style="fill: none; stroke-dasharray: 0.8,1.32; stroke-dashoffset: 0; stroke: #b0b0b0; stroke-opacity: 0.7; stroke-width: 0.8"/>
     </g>
     <g id="line2d_14">
      <g>
       <use xlink:href="#md3670ad0e3" x="442.561" y="398.84" style="stroke: #000000; stroke-width: 0.8"/>
      </g>
     </g>
     <g id="text_7">
      <!-- 600 -->
      <g transform="translate(433.01725 413.438437) scale(0.1 -0.1)">
       <defs>
        <path id="DejaVuSans-36" d="M 2113 2584 
Q 1688 2584 1439 2293 
Q 1191 2003 1191 1497 
Q 1191 994 1439 701 
Q 1688 409 2113 409 
Q 2538 409 2786 701 
Q 3034 994 3034 1497 
Q 3034 2003 2786 2293 
Q 2538 2584 2113 2584 
z
M 3366 4563 
L 3366 3988 
Q 3128 4100 2886 4159 
Q 2644 4219 2406 4219 
Q 1781 4219 1451 3797 
Q 1122 3375 1075 2522 
Q 1259 2794 1537 2939 
Q 1816 3084 2150 3084 
Q 2853 3084 3261 2657 
Q 3669 2231 3669 1497 
Q 3669 778 3244 343 
Q 2819 -91 2113 -91 
Q 1303 -91 875 529 
Q 447 1150 447 2328 
Q 447 3434 972 4092 
Q 1497 4750 2381 4750 
Q 2619 4750 2861 4703 
Q 3103 4656 3366 4563 
z
" transform="scale(0.015625)"/>
       </defs>
       <use xlink:href="#DejaVuSans-36"/>
       <use xlink:href="#DejaVuSans-30" transform="translate(63.623047 0)"/>
       <use xlink:href="#DejaVuSans-30" transform="translate(127.246094 0)"/>
      </g>
     </g>
    </g>
    <g id="xtick_8">
     <g id="line2d_15">
      <path d="M 508.2595 398.84 
L 508.2595 18.08 
" clip-path="url(#p38ad040732)" style="fill: none; stroke-dasharray: 0.8,1.32; stroke-dashoffset: 0; stroke: #b0b0b0; stroke-opacity: 0.7; stroke-width: 0.8"/>
     </g>
     <g id="line2d_16">
      <g>
       <use xlink:href="#md3670ad0e3" x="508.2595" y="398.84" style="stroke: #000000; stroke-width: 0.8"/>
      </g>
     </g>
     <g id="text_8">
      <!-- 700 -->
      <g transform="translate(498.71575 413.438437) scale(0.1 -0.1)">
       <defs>
        <path id="DejaVuSans-37" d="M 525 4666 
L 3525 4666 
L 3525 4397 
L 1831 0 
L 1172 0 
L 2766 4134 
L 525 4134 
L 525 4666 
z
" transform="scale(0.015625)"/>
       </defs>
       <use xlink:href="#DejaVuSans-37"/>
       <use xlink:href="#DejaVuSans-30" transform="translate(63.623047 0)"/>
       <use xlink:href="#DejaVuSans-30" transform="translate(127.246094 0)"/>
      </g>
     </g>
    </g>
    <g id="xtick_9">
     <g id="line2d_17">
      <path d="M 573.958 398.84 
L 573.958 18.08 
" clip-path="url(#p38ad040732)" style="fill: none; stroke-dasharray: 0.8,1.32; stroke-dashoffset: 0; stroke: #b0b0b0; stroke-opacity: 0.7; stroke-width: 0.8"/>
     </g>
     <g id="line2d_18">
      <g>
       <use xlink:href="#md3670ad0e3" x="573.958" y="398.84" style="stroke: #000000; stroke-width: 0.8"/>
      </g>
     </g>
     <g id="text_9">
      <!-- 800 -->
      <g transform="translate(564.41425 413.438437) scale(0.1 -0.1)">
       <defs>
        <path id="DejaVuSans-38" d="M 2034 2216 
Q 1584 2216 1326 1975 
Q 1069 1734 1069 1313 
Q 1069 891 1326 650 
Q 1584 409 2034 409 
Q 2484 409 2743 651 
Q 3003 894 3003 1313 
Q 3003 1734 2745 1975 
Q 2488 2216 2034 2216 
z
M 1403 2484 
Q 997 2584 770 2862 
Q 544 3141 544 3541 
Q 544 4100 942 4425 
Q 1341 4750 2034 4750 
Q 2731 4750 3128 4425 
Q 3525 4100 3525 3541 
Q 3525 3141 3298 2862 
Q 3072 2584 2669 2484 
Q 3125 2378 3379 2068 
Q 3634 1759 3634 1313 
Q 3634 634 3220 271 
Q 2806 -91 2034 -91 
Q 1263 -91 848 271 
Q 434 634 434 1313 
Q 434 1759 690 2068 
Q 947 2378 1403 2484 
z
M 1172 3481 
Q 1172 3119 1398 2916 
Q 1625 2713 2034 2713 
Q 2441 2713 2670 2916 
Q 2900 3119 2900 3481 
Q 2900 3844 2670 4047 
Q 2441 4250 2034 4250 
Q 1625 4250 1398 4047 
Q 1172 3844 1172 3481 
z
" transform="scale(0.015625)"/>
       </defs>
       <use xlink:href="#DejaVuSans-38"/>
       <use xlink:href="#DejaVuSans-30" transform="translate(63.623047 0)"/>
       <use xlink:href="#DejaVuSans-30" transform="translate(127.246094 0)"/>
      </g>
     </g>
    </g>
    <g id="xtick_10">
     <g id="line2d_19">
      <path d="M 639.6565 398.84 
L 639.6565 18.08 
" clip-path="url(#p38ad040732)" style="fill: none; stroke-dasharray: 0.8,1.32; stroke-dashoffset: 0; stroke: #b0b0b0; stroke-opacity: 0.7; stroke-width: 0.8"/>
     </g>
     <g id="line2d_20">
      <g>
       <use xlink:href="#md3670ad0e3" x="639.6565" y="398.84" style="stroke: #000000; stroke-width: 0.8"/>
      </g>
     </g>
     <g id="text_10">
      <!-- 900 -->
      <g transform="translate(630.11275 413.438437) scale(0.1 -0.1)">
       <defs>
        <path id="DejaVuSans-39" d="M 703 97 
L 703 672 
Q 941 559 1184 500 
Q 1428 441 1663 441 
Q 2288 441 2617 861 
Q 2947 1281 2994 2138 
Q 2813 1869 2534 1725 
Q 2256 1581 1919 1581 
Q 1219 1581 811 2004 
Q 403 2428 403 3163 
Q 403 3881 828 4315 
Q 1253 4750 1959 4750 
Q 2769 4750 3195 4129 
Q 3622 3509 3622 2328 
Q 3622 1225 3098 567 
Q 2575 -91 1691 -91 
Q 1453 -91 1209 -44 
Q 966 3 703 97 
z
M 1959 2075 
Q 2384 2075 2632 2365 
Q 2881 2656 2881 3163 
Q 2881 3666 2632 3958 
Q 2384 4250 1959 4250 
Q 1534 4250 1286 3958 
Q 1038 3666 1038 3163 
Q 1038 2656 1286 2365 
Q 1534 2075 1959 2075 
z
" transform="scale(0.015625)"/>
       </defs>
       <use xlink:href="#DejaVuSans-39"/>
       <use xlink:href="#DejaVuSans-30" transform="translate(63.623047 0)"/>
       <use xlink:href="#DejaVuSans-30" transform="translate(127.246094 0)"/>
      </g>
     </g>
    </g>
    <g id="xtick_11">
     <g id="line2d_21">
      <path d="M 705.355 398.84 
L 705.355 18.08 
" clip-path="url(#p38ad040732)" style="fill: none; stroke-dasharray: 0.8,1.32; stroke-dashoffset: 0; stroke: #b0b0b0; stroke-opacity: 0.7; stroke-width: 0.8"/>
     </g>
     <g id="line2d_22">
      <g>
       <use xlink:href="#md3670ad0e3" x="705.355" y="398.84" style="stroke: #000000; stroke-width: 0.8"/>
      </g>
     </g>
     <g id="text_11">
      <!-- 1000 -->
      <g transform="translate(692.63 413.438437) scale(0.1 -0.1)">
       <use xlink:href="#DejaVuSans-31"/>
       <use xlink:href="#DejaVuSans-30" transform="translate(63.623047 0)"/>
       <use xlink:href="#DejaVuSans-30" transform="translate(127.246094 0)"/>
       <use xlink:href="#DejaVuSans-30" transform="translate(190.869141 0)"/>
      </g>
     </g>
    </g>
    <g id="text_12">
     <!-- Iteration / Generation -->
     <g transform="translate(322.898438 427.116562) scale(0.1 -0.1)">
      <defs>
       <path id="DejaVuSans-49" d="M 628 4666 
L 1259 4666 
L 1259 0 
L 628 0 
L 628 4666 
z
" transform="scale(0.015625)"/>
       <path id="DejaVuSans-74" d="M 1172 4494 
L 1172 3500 
L 2356 3500 
L 2356 3053 
L 1172 3053 
L 1172 1153 
Q 1172 725 1289 603 
Q 1406 481 1766 481 
L 2356 481 
L 2356 0 
L 1766 0 
Q 1100 0 847 248 
Q 594 497 594 1153 
L 594 3053 
L 172 3053 
L 172 3500 
L 594 3500 
L 594 4494 
L 1172 4494 
z
" transform="scale(0.015625)"/>
       <path id="DejaVuSans-65" d="M 3597 1894 
L 3597 1613 
L 953 1613 
Q 991 1019 1311 708 
Q 1631 397 2203 397 
Q 2534 397 2845 478 
Q 3156 559 3463 722 
L 3463 178 
Q 3153 47 2828 -22 
Q 2503 -91 2169 -91 
Q 1331 -91 842 396 
Q 353 884 353 1716 
Q 353 2575 817 3079 
Q 1281 3584 2069 3584 
Q 2775 3584 3186 3129 
Q 3597 2675 3597 1894 
z
M 3022 2063 
Q 3016 2534 2758 2815 
Q 2500 3097 2075 3097 
Q 1594 3097 1305 2825 
Q 1016 2553 972 2059 
L 3022 2063 
z
" transform="scale(0.015625)"/>
       <path id="DejaVuSans-72" d="M 2631 2963 
Q 2534 3019 2420 3045 
Q 2306 3072 2169 3072 
Q 1681 3072 1420 2755 
Q 1159 2438 1159 1844 
L 1159 0 
L 581 0 
L 581 3500 
L 1159 3500 
L 1159 2956 
Q 1341 3275 1631 3429 
Q 1922 3584 2338 3584 
Q 2397 3584 2469 3576 
Q 2541 3569 2628 3553 
L 2631 2963 
z
" transform="scale(0.015625)"/>
       <path id="DejaVuSans-61" d="M 2194 1759 
Q 1497 1759 1228 1600 
Q 959 1441 959 1056 
Q 959 750 1161 570 
Q 1363 391 1709 391 
Q 2188 391 2477 730 
Q 2766 1069 2766 1631 
L 2766 1759 
L 2194 1759 
z
M 3341 1997 
L 3341 0 
L 2766 0 
L 2766 531 
Q 2569 213 2275 61 
Q 1981 -91 1556 -91 
Q 1019 -91 701 211 
Q 384 513 384 1019 
Q 384 1609 779 1909 
Q 1175 2209 1959 2209 
L 2766 2209 
L 2766 2266 
Q 2766 2663 2505 2880 
Q 2244 3097 1772 3097 
Q 1472 3097 1187 3025 
Q 903 2953 641 2809 
L 641 3341 
Q 956 3463 1253 3523 
Q 1550 3584 1831 3584 
Q 2591 3584 2966 3190 
Q 3341 2797 3341 1997 
z
" transform="scale(0.015625)"/>
       <path id="DejaVuSans-69" d="M 603 3500 
L 1178 3500 
L 1178 0 
L 603 0 
L 603 3500 
z
M 603 4863 
L 1178 4863 
L 1178 4134 
L 603 4134 
L 603 4863 
z
" transform="scale(0.015625)"/>
       <path id="DejaVuSans-6f" d="M 1959 3097 
Q 1497 3097 1228 2736 
Q 959 2375 959 1747 
Q 959 1119 1226 758 
Q 1494 397 1959 397 
Q 2419 397 2687 759 
Q 2956 1122 2956 1747 
Q 2956 2369 2687 2733 
Q 2419 3097 1959 3097 
z
M 1959 3584 
Q 2709 3584 3137 3096 
Q 3566 2609 3566 1747 
Q 3566 888 3137 398 
Q 2709 -91 1959 -91 
Q 1206 -91 779 398 
Q 353 888 353 1747 
Q 353 2609 779 3096 
Q 1206 3584 1959 3584 
z
" transform="scale(0.015625)"/>
       <path id="DejaVuSans-6e" d="M 3513 2113 
L 3513 0 
L 2938 0 
L 2938 2094 
Q 2938 2591 2744 2837 
Q 2550 3084 2163 3084 
Q 1697 3084 1428 2787 
Q 1159 2491 1159 1978 
L 1159 0 
L 581 0 
L 581 3500 
L 1159 3500 
L 1159 2956 
Q 1366 3272 1645 3428 
Q 1925 3584 2291 3584 
Q 2894 3584 3203 3211 
Q 3513 2838 3513 2113 
z
" transform="scale(0.015625)"/>
       <path id="DejaVuSans-20" transform="scale(0.015625)"/>
       <path id="DejaVuSans-2f" d="M 1625 4666 
L 2156 4666 
L 531 -594 
L 0 -594 
L 1625 4666 
z
" transform="scale(0.015625)"/>
       <path id="DejaVuSans-47" d="M 3809 666 
L 3809 1919 
L 2778 1919 
L 2778 2438 
L 4434 2438 
L 4434 434 
Q 4069 175 3628 42 
Q 3188 -91 2688 -91 
Q 1594 -91 976 548 
Q 359 1188 359 2328 
Q 359 3472 976 4111 
Q 1594 4750 2688 4750 
Q 3144 4750 3555 4637 
Q 3966 4525 4313 4306 
L 4313 3634 
Q 3963 3931 3569 4081 
Q 3175 4231 2741 4231 
Q 1884 4231 1454 3753 
Q 1025 3275 1025 2328 
Q 1025 1384 1454 906 
Q 1884 428 2741 428 
Q 3075 428 3337 486 
Q 3600 544 3809 666 
z
" transform="scale(0.015625)"/>
      </defs>
      <use xlink:href="#DejaVuSans-49"/>
      <use xlink:href="#DejaVuSans-74" transform="translate(29.492188 0)"/>
      <use xlink:href="#DejaVuSans-65" transform="translate(68.701172 0)"/>
      <use xlink:href="#DejaVuSans-72" transform="translate(130.224609 0)"/>
      <use xlink:href="#DejaVuSans-61" transform="translate(171.337891 0)"/>
      <use xlink:href="#DejaVuSans-74" transform="translate(232.617188 0)"/>
      <use xlink:href="#DejaVuSans-69" transform="translate(271.826172 0)"/>
      <use xlink:href="#DejaVuSans-6f" transform="translate(299.609375 0)"/>
      <use xlink:href="#DejaVuSans-6e" transform="translate(360.791016 0)"/>
      <use xlink:href="#DejaVuSans-20" transform="translate(424.169922 0)"/>
      <use xlink:href="#DejaVuSans-2f" transform="translate(455.957031 0)"/>
      <use xlink:href="#DejaVuSans-20" transform="translate(489.648438 0)"/>
      <use xlink:href="#DejaVuSans-47" transform="translate(521.435547 0)"/>
      <use xlink:href="#DejaVuSans-65" transform="translate(598.925781 0)"/>
      <use xlink:href="#DejaVuSans-6e" transform="translate(660.449219 0)"/>
      <use xlink:href="#DejaVuSans-65" transform="translate(723.828125 0)"/>
      <use xlink:href="#DejaVuSans-72" transform="translate(785.351562 0)"/>
      <use xlink:href="#DejaVuSans-61" transform="translate(826.464844 0)"/>
      <use xlink:href="#DejaVuSans-74" transform="translate(887.744141 0)"/>
      <use xlink:href="#DejaVuSans-69" transform="translate(926.953125 0)"/>
      <use xlink:href="#DejaVuSans-6f" transform="translate(954.736328 0)"/>
      <use xlink:href="#DejaVuSans-6e" transform="translate(1015.917969 0)"/>
     </g>
    </g>
   </g>
   <g id="matplotlib.axis_2">
    <g id="ytick_1">
     <g id="line2d_23">
      <path d="M 48.37 342.996644 
L 705.355 342.996644 
" clip-path="url(#p38ad040732)" style="fill: none; stroke-dasharray: 0.8,1.32; stroke-dashoffset: 0; stroke: #b0b0b0; stroke-opacity: 0.7; stroke-width: 0.8"/>
     </g>
     <g id="line2d_24">
      <defs>
       <path id="mffeb944b19" d="M 0 0 
L -3.5 0 
" style="stroke: #000000; stroke-width: 0.8"/>
      </defs>
      <g>
       <use xlink:href="#mffeb944b19" x="48.37" y="342.996644" style="stroke: #000000; stroke-width: 0.8"/>
      </g>
     </g>
     <g id="text_13">
      <!-- 1500 -->
      <g transform="translate(15.92 346.795863) scale(0.1 -0.1)">
       <use xlink:href="#DejaVuSans-31"/>
       <use xlink:href="#DejaVuSans-35" transform="translate(63.623047 0)"/>
       <use xlink:href="#DejaVuSans-30" transform="translate(127.246094 0)"/>
       <use xlink:href="#DejaVuSans-30" transform="translate(190.869141 0)"/>
      </g>
     </g>
    </g>
    <g id="ytick_2">
     <g id="line2d_25">
      <path d="M 48.37 265.727794 
L 705.355 265.727794 
" clip-path="url(#p38ad040732)" style="fill: none; stroke-dasharray: 0.8,1.32; stroke-dashoffset: 0; stroke: #b0b0b0; stroke-opacity: 0.7; stroke-width: 0.8"/>
     </g>
     <g id="line2d_26">
      <g>
       <use xlink:href="#mffeb944b19" x="48.37" y="265.727794" style="stroke: #000000; stroke-width: 0.8"/>
      </g>
     </g>
     <g id="text_14">
      <!-- 2000 -->
      <g transform="translate(15.92 269.527012) scale(0.1 -0.1)">
       <use xlink:href="#DejaVuSans-32"/>
       <use xlink:href="#DejaVuSans-30" transform="translate(63.623047 0)"/>
       <use xlink:href="#DejaVuSans-30" transform="translate(127.246094 0)"/>
       <use xlink:href="#DejaVuSans-30" transform="translate(190.869141 0)"/>
      </g>
     </g>
    </g>
    <g id="ytick_3">
     <g id="line2d_27">
      <path d="M 48.37 188.458944 
L 705.355 188.458944 
" clip-path="url(#p38ad040732)" style="fill: none; stroke-dasharray: 0.8,1.32; stroke-dashoffset: 0; stroke: #b0b0b0; stroke-opacity: 0.7; stroke-width: 0.8"/>
     </g>
     <g id="line2d_28">
      <g>
       <use xlink:href="#mffeb944b19" x="48.37" y="188.458944" style="stroke: #000000; stroke-width: 0.8"/>
      </g>
     </g>
     <g id="text_15">
      <!-- 2500 -->
      <g transform="translate(15.92 192.258162) scale(0.1 -0.1)">
       <use xlink:href="#DejaVuSans-32"/>
       <use xlink:href="#DejaVuSans-35" transform="translate(63.623047 0)"/>
       <use xlink:href="#DejaVuSans-30" transform="translate(127.246094 0)"/>
       <use xlink:href="#DejaVuSans-30" transform="translate(190.869141 0)"/>
      </g>
     </g>
    </g>
    <g id="ytick_4">
     <g id="line2d_29">
      <path d="M 48.37 111.190093 
L 705.355 111.190093 
" clip-path="url(#p38ad040732)" style="fill: none; stroke-dasharray: 0.8,1.32; stroke-dashoffset: 0; stroke: #b0b0b0; stroke-opacity: 0.7; stroke-width: 0.8"/>
     </g>
     <g id="line2d_30">
      <g>
       <use xlink:href="#mffeb944b19" x="48.37" y="111.190093" style="stroke: #000000; stroke-width: 0.8"/>
      </g>
     </g>
     <g id="text_16">
      <!-- 3000 -->
      <g transform="translate(15.92 114.989312) scale(0.1 -0.1)">
       <use xlink:href="#DejaVuSans-33"/>
       <use xlink:href="#DejaVuSans-30" transform="translate(63.623047 0)"/>
       <use xlink:href="#DejaVuSans-30" transform="translate(127.246094 0)"/>
       <use xlink:href="#DejaVuSans-30" transform="translate(190.869141 0)"/>
      </g>
     </g>
    </g>
    <g id="ytick_5">
     <g id="line2d_31">
      <path d="M 48.37 33.921243 
L 705.355 33.921243 
" clip-path="url(#p38ad040732)" style="fill: none; stroke-dasharray: 0.8,1.32; stroke-dashoffset: 0; stroke: #b0b0b0; stroke-opacity: 0.7; stroke-width: 0.8"/>
     </g>
     <g id="line2d_32">
      <g>
       <use xlink:href="#mffeb944b19" x="48.37" y="33.921243" style="stroke: #000000; stroke-width: 0.8"/>
      </g>
     </g>
     <g id="text_17">
      <!-- 3500 -->
      <g transform="translate(15.92 37.720462) scale(0.1 -0.1)">
       <use xlink:href="#DejaVuSans-33"/>
       <use xlink:href="#DejaVuSans-35" transform="translate(63.623047 0)"/>
       <use xlink:href="#DejaVuSans-30" transform="translate(127.246094 0)"/>
       <use xlink:href="#DejaVuSans-30" transform="translate(190.869141 0)"/>
      </g>
     </g>
    </g>
    <g id="text_18">
     <!-- Objective Value -->
     <g transform="translate(9.840312 247.490469) rotate(-90) scale(0.1 -0.1)">
      <defs>
       <path id="DejaVuSans-4f" d="M 2522 4238 
Q 1834 4238 1429 3725 
Q 1025 3213 1025 2328 
Q 1025 1447 1429 934 
Q 1834 422 2522 422 
Q 3209 422 3611 934 
Q 4013 1447 4013 2328 
Q 4013 3213 3611 3725 
Q 3209 4238 2522 4238 
z
M 2522 4750 
Q 3503 4750 4090 4092 
Q 4678 3434 4678 2328 
Q 4678 1225 4090 567 
Q 3503 -91 2522 -91 
Q 1538 -91 948 565 
Q 359 1222 359 2328 
Q 359 3434 948 4092 
Q 1538 4750 2522 4750 
z
" transform="scale(0.015625)"/>
       <path id="DejaVuSans-62" d="M 3116 1747 
Q 3116 2381 2855 2742 
Q 2594 3103 2138 3103 
Q 1681 3103 1420 2742 
Q 1159 2381 1159 1747 
Q 1159 1113 1420 752 
Q 1681 391 2138 391 
Q 2594 391 2855 752 
Q 3116 1113 3116 1747 
z
M 1159 2969 
Q 1341 3281 1617 3432 
Q 1894 3584 2278 3584 
Q 2916 3584 3314 3078 
Q 3713 2572 3713 1747 
Q 3713 922 3314 415 
Q 2916 -91 2278 -91 
Q 1894 -91 1617 61 
Q 1341 213 1159 525 
L 1159 0 
L 581 0 
L 581 4863 
L 1159 4863 
L 1159 2969 
z
" transform="scale(0.015625)"/>
       <path id="DejaVuSans-6a" d="M 603 3500 
L 1178 3500 
L 1178 -63 
Q 1178 -731 923 -1031 
Q 669 -1331 103 -1331 
L -116 -1331 
L -116 -844 
L 38 -844 
Q 366 -844 484 -692 
Q 603 -541 603 -63 
L 603 3500 
z
M 603 4863 
L 1178 4863 
L 1178 4134 
L 603 4134 
L 603 4863 
z
" transform="scale(0.015625)"/>
       <path id="DejaVuSans-63" d="M 3122 3366 
L 3122 2828 
Q 2878 2963 2633 3030 
Q 2388 3097 2138 3097 
Q 1578 3097 1268 2742 
Q 959 2388 959 1747 
Q 959 1106 1268 751 
Q 1578 397 2138 397 
Q 2388 397 2633 464 
Q 2878 531 3122 666 
L 3122 134 
Q 2881 22 2623 -34 
Q 2366 -91 2075 -91 
Q 1284 -91 818 406 
Q 353 903 353 1747 
Q 353 2603 823 3093 
Q 1294 3584 2113 3584 
Q 2378 3584 2631 3529 
Q 2884 3475 3122 3366 
z
" transform="scale(0.015625)"/>
       <path id="DejaVuSans-76" d="M 191 3500 
L 800 3500 
L 1894 563 
L 2988 3500 
L 3597 3500 
L 2284 0 
L 1503 0 
L 191 3500 
z
" transform="scale(0.015625)"/>
       <path id="DejaVuSans-56" d="M 1831 0 
L 50 4666 
L 709 4666 
L 2188 738 
L 3669 4666 
L 4325 4666 
L 2547 0 
L 1831 0 
z
" transform="scale(0.015625)"/>
       <path id="DejaVuSans-6c" d="M 603 4863 
L 1178 4863 
L 1178 0 
L 603 0 
L 603 4863 
z
" transform="scale(0.015625)"/>
       <path id="DejaVuSans-75" d="M 544 1381 
L 544 3500 
L 1119 3500 
L 1119 1403 
Q 1119 906 1312 657 
Q 1506 409 1894 409 
Q 2359 409 2629 706 
Q 2900 1003 2900 1516 
L 2900 3500 
L 3475 3500 
L 3475 0 
L 2900 0 
L 2900 538 
Q 2691 219 2414 64 
Q 2138 -91 1772 -91 
Q 1169 -91 856 284 
Q 544 659 544 1381 
z
M 1991 3584 
L 1991 3584 
z
" transform="scale(0.015625)"/>
      </defs>
      <use xlink:href="#DejaVuSans-4f"/>
      <use xlink:href="#DejaVuSans-62" transform="translate(78.710938 0)"/>
      <use xlink:href="#DejaVuSans-6a" transform="translate(142.1875 0)"/>
      <use xlink:href="#DejaVuSans-65" transform="translate(169.970703 0)"/>
      <use xlink:href="#DejaVuSans-63" transform="translate(231.494141 0)"/>
      <use xlink:href="#DejaVuSans-74" transform="translate(286.474609 0)"/>
      <use xlink:href="#DejaVuSans-69" transform="translate(325.683594 0)"/>
      <use xlink:href="#DejaVuSans-76" transform="translate(353.466797 0)"/>
      <use xlink:href="#DejaVuSans-65" transform="translate(412.646484 0)"/>
      <use xlink:href="#DejaVuSans-20" transform="translate(474.169922 0)"/>
      <use xlink:href="#DejaVuSans-56" transform="translate(505.957031 0)"/>
      <use xlink:href="#DejaVuSans-61" transform="translate(566.615234 0)"/>
      <use xlink:href="#DejaVuSans-6c" transform="translate(627.894531 0)"/>
      <use xlink:href="#DejaVuSans-75" transform="translate(655.677734 0)"/>
      <use xlink:href="#DejaVuSans-65" transform="translate(719.056641 0)"/>
     </g>
    </g>
   </g>
   <g id="line2d_33">
    <path d="M 48.37 185.709001 
L 49.026985 185.709001 
L 49.026985 243.229374 
L 54.282865 243.229374 
L 54.282865 246.50232 
L 56.25382 246.50232 
L 56.25382 261.266892 
L 56.910805 261.266892 
L 56.910805 271.772066 
L 58.88176 271.772066 
L 58.88176 278.604461 
L 60.852715 278.604461 
L 60.852715 283.235375 
L 62.166685 283.235375 
L 62.166685 311.178221 
L 63.480655 311.178221 
L 63.480655 335.311434 
L 176.482075 335.311434 
L 176.482075 345.152185 
L 268.459975 345.152185 
L 268.459975 347.212084 
L 324.3037 347.212084 
L 324.3037 347.358042 
L 352.554055 347.358042 
L 352.554055 348.195842 
L 376.205515 348.195842 
L 376.205515 363.899464 
L 576.58594 363.899464 
L 576.58594 367.11 
L 704.698015 367.11 
L 704.698015 367.11 
" clip-path="url(#p38ad040732)" style="fill: none; stroke: #1f77b4; stroke-width: 1.5; stroke-linecap: square"/>
   </g>
   <g id="line2d_34">
    <path d="M 48.37 80.970501 
L 49.026985 87.357267 
L 49.68397 50.703798 
L 50.340955 62.77494 
L 50.99794 66.239602 
L 51.654925 49.81 
L 52.31191 52.926526 
L 52.968895 62.623134 
L 53.62588 65.011106 
L 54.282865 66.642051 
L 54.93985 72.287088 
L 55.596835 71.760596 
L 56.25382 82.657769 
L 56.910805 112.669217 
L 57.56779 115.503645 
L 58.224775 123.3194 
L 58.88176 111.613063 
L 59.538745 105.137127 
L 60.19573 113.5359 
L 60.852715 134.309196 
L 61.5097 93.83655 
L 62.166685 113.044334 
L 62.82367 140.706583 
L 63.480655 139.340344 
L 64.13764 111.527158 
L 64.794625 112.862354 
L 65.45161 126.476154 
L 66.108595 128.608814 
L 66.76558 141.861043 
L 67.422565 113.795069 
L 68.07955 131.263759 
L 68.736535 152.575743 
L 69.39352 142.812327 
L 70.050505 123.840749 
L 70.70749 150.017347 
L 71.364475 138.381057 
L 72.02146 122.86476 
L 72.678445 114.564856 
L 73.33543 139.838489 
L 73.992415 144.856017 
L 74.6494 154.532502 
L 75.306385 131.359002 
L 75.96337 138.788008 
L 76.620355 128.412198 
L 77.27734 142.747312 
L 78.59131 123.255943 
L 79.248295 150.524172 
L 79.90528 120.428984 
L 80.562265 117.726158 
L 81.876235 155.218082 
L 82.53322 149.267706 
L 83.190205 129.085497 
L 83.84719 148.265072 
L 84.504175 150.154346 
L 85.16116 151.697957 
L 85.818145 142.556607 
L 86.47513 138.910136 
L 87.132115 139.886039 
L 87.7891 139.775905 
L 88.446085 125.601696 
L 89.10307 137.887403 
L 89.760055 126.407426 
L 90.41704 170.875969 
L 91.074025 137.784341 
L 91.73101 157.654541 
L 92.387995 162.917277 
L 93.04498 158.351331 
L 94.35895 156.100126 
L 95.015935 155.401767 
L 95.67292 163.515986 
L 96.329905 153.025167 
L 96.98689 157.695339 
L 97.643875 152.494174 
L 98.30086 167.439727 
L 98.957845 145.179443 
L 99.61483 170.01297 
L 100.271815 147.891462 
L 100.9288 149.888467 
L 101.585785 166.859024 
L 102.24277 163.848404 
L 102.899755 153.488404 
L 103.55674 163.40463 
L 104.213725 184.252631 
L 104.87071 157.692881 
L 105.527695 166.459335 
L 106.18468 154.238187 
L 106.841665 162.781997 
L 107.49865 150.022798 
L 108.155635 155.911853 
L 108.81262 131.169118 
L 109.469605 183.339657 
L 110.12659 169.122216 
L 110.783575 168.353864 
L 111.44056 161.055282 
L 112.097545 164.73769 
L 112.75453 156.320416 
L 113.411515 161.530781 
L 114.0685 158.730656 
L 114.725485 166.807133 
L 115.38247 155.498051 
L 116.039455 150.965916 
L 116.69644 154.19969 
L 118.01041 176.838602 
L 118.667395 165.293895 
L 119.32438 160.274013 
L 119.981365 165.325348 
L 120.63835 164.494816 
L 121.295335 145.062047 
L 121.95232 170.76053 
L 122.609305 190.48366 
L 123.26629 154.17705 
L 123.923275 171.464919 
L 124.58026 181.431037 
L 125.237245 156.084282 
L 125.89423 165.824361 
L 126.551215 164.909154 
L 127.2082 175.191478 
L 127.865185 172.446088 
L 128.52217 156.219405 
L 129.179155 178.553901 
L 129.83614 160.895141 
L 130.493125 164.208666 
L 131.807095 186.532792 
L 132.46408 165.064028 
L 133.121065 168.937021 
L 133.77805 168.834121 
L 134.435035 179.622505 
L 135.09202 187.762248 
L 135.749005 182.009428 
L 136.40599 186.207231 
L 137.062975 182.557367 
L 137.71996 186.816375 
L 138.376945 186.281589 
L 139.03393 174.272742 
L 139.690915 181.73297 
L 140.3479 164.067358 
L 141.004885 178.299715 
L 141.66187 158.985165 
L 142.318855 170.534967 
L 142.97584 169.9019 
L 143.632825 163.763832 
L 144.28981 187.338547 
L 144.946795 178.944558 
L 145.60378 203.767094 
L 146.260765 187.750659 
L 146.91775 175.261377 
L 147.574735 181.071391 
L 148.23172 182.880939 
L 148.888705 168.073004 
L 149.54569 188.472903 
L 150.202675 177.144234 
L 150.85966 193.689129 
L 151.516645 184.198699 
L 152.17363 185.682184 
L 152.830615 166.8758 
L 153.4876 174.168006 
L 154.144585 182.793705 
L 154.80157 198.971977 
L 155.458555 189.993633 
L 156.11554 163.225612 
L 156.772525 169.792096 
L 157.42951 180.74229 
L 158.086495 188.799097 
L 158.74348 187.571906 
L 159.400465 172.404999 
L 160.05745 189.205944 
L 160.714435 175.47191 
L 161.37142 164.770699 
L 162.028405 184.201801 
L 162.68539 199.259466 
L 163.342375 189.179129 
L 164.656345 180.041424 
L 165.31333 206.002107 
L 165.970315 157.141642 
L 166.6273 191.342369 
L 167.284285 180.565836 
L 167.94127 184.323416 
L 168.598255 167.428751 
L 169.25524 180.691902 
L 169.912225 165.602273 
L 170.56921 182.850641 
L 171.226195 184.213048 
L 171.88318 167.137318 
L 172.540165 178.809515 
L 173.19715 187.614026 
L 173.854135 179.097663 
L 174.51112 174.436698 
L 175.168105 173.810622 
L 175.82509 196.042811 
L 176.482075 175.73789 
L 177.13906 194.530147 
L 178.45303 183.182315 
L 179.110015 190.427577 
L 179.767 175.710437 
L 180.423985 169.877956 
L 181.08097 169.601443 
L 181.737955 189.379765 
L 182.39494 191.562793 
L 183.051925 194.419725 
L 183.70891 172.222335 
L 184.365895 189.320175 
L 185.02288 175.821779 
L 185.679865 185.686953 
L 186.33685 181.81516 
L 186.993835 194.637147 
L 187.65082 195.594275 
L 188.307805 170.254247 
L 188.96479 184.416329 
L 189.621775 169.975479 
L 190.27876 189.236969 
L 190.935745 182.023582 
L 191.59273 192.205187 
L 192.9067 202.868992 
L 193.563685 195.778829 
L 194.22067 192.799348 
L 194.877655 191.151877 
L 195.53464 163.711616 
L 196.191625 181.382428 
L 196.84861 178.027727 
L 197.505595 189.035262 
L 198.819565 177.212172 
L 199.47655 179.978318 
L 200.133535 185.063755 
L 200.79052 186.573972 
L 201.447505 189.172998 
L 202.10449 171.227601 
L 202.761475 194.038852 
L 203.41846 171.8904 
L 204.075445 183.157789 
L 204.73243 197.752045 
L 205.389415 175.911309 
L 206.0464 157.850128 
L 206.703385 173.63526 
L 208.017355 198.040811 
L 208.67434 170.798413 
L 209.331325 183.518093 
L 209.98831 182.923757 
L 210.645295 180.542315 
L 211.30228 188.806204 
L 211.959265 177.882891 
L 212.61625 191.296384 
L 213.93022 181.631807 
L 214.587205 176.079233 
L 215.24419 183.441143 
L 215.901175 188.229089 
L 216.55816 203.598174 
L 217.215145 170.213789 
L 217.87213 180.818584 
L 218.529115 171.564854 
L 219.1861 210.281922 
L 219.843085 187.521512 
L 220.50007 199.002691 
L 221.157055 194.91611 
L 221.81404 205.97089 
L 222.471025 183.956647 
L 223.12801 182.625832 
L 223.784995 182.445098 
L 224.44198 195.457882 
L 225.098965 182.54947 
L 225.75595 179.49243 
L 226.412935 179.339882 
L 227.06992 190.241782 
L 227.726905 197.934187 
L 228.38389 180.228384 
L 229.040875 179.16732 
L 229.69786 189.677668 
L 230.354845 183.827281 
L 231.01183 158.788586 
L 231.668815 188.453619 
L 232.3258 168.471813 
L 232.982785 172.21738 
L 233.63977 190.806829 
L 234.296755 174.719686 
L 234.95374 184.74945 
L 235.610725 192.652868 
L 236.26771 202.791855 
L 236.924695 198.653225 
L 237.58168 199.588406 
L 238.238665 188.038338 
L 238.89565 184.150371 
L 239.552635 192.855734 
L 240.20962 196.934764 
L 240.866605 186.416837 
L 241.52359 178.612616 
L 242.180575 185.176536 
L 242.83756 195.075705 
L 243.494545 198.038906 
L 244.15153 187.573666 
L 244.808515 197.982013 
L 245.4655 172.104131 
L 246.122485 173.064367 
L 246.77947 198.076895 
L 247.436455 172.298257 
L 248.09344 189.86927 
L 248.750425 182.400834 
L 249.40741 182.534861 
L 250.064395 182.488906 
L 250.72138 186.724934 
L 251.378365 174.924399 
L 252.03535 195.407961 
L 252.692335 197.925699 
L 253.34932 179.319564 
L 254.006305 194.217973 
L 254.66329 187.972608 
L 255.320275 194.975283 
L 255.97726 182.505461 
L 256.634245 178.813159 
L 257.29123 164.75499 
L 257.948215 182.090644 
L 259.262185 183.91471 
L 259.91917 173.568865 
L 260.576155 175.236282 
L 261.23314 196.015035 
L 261.890125 188.640284 
L 262.54711 199.743669 
L 263.204095 173.967868 
L 263.86108 191.563775 
L 264.518065 188.084689 
L 265.17505 188.351361 
L 265.832035 188.894712 
L 266.48902 182.666472 
L 267.146005 181.654798 
L 267.80299 182.344922 
L 268.459975 202.971736 
L 269.11696 195.2879 
L 269.773945 213.557619 
L 270.43093 180.385014 
L 271.087915 198.648538 
L 271.7449 192.886524 
L 272.401885 193.238015 
L 273.05887 182.843208 
L 273.715855 170.244056 
L 274.37284 189.848614 
L 275.029825 177.20794 
L 275.68681 175.620246 
L 276.343795 197.772009 
L 277.00078 198.453809 
L 277.657765 178.41731 
L 278.31475 170.536111 
L 278.971735 190.876578 
L 279.62872 191.5807 
L 280.285705 191.222113 
L 280.94269 177.677221 
L 281.599675 199.849462 
L 282.25666 205.81156 
L 282.913645 193.593575 
L 283.57063 194.498139 
L 284.227615 188.534299 
L 284.8846 192.010473 
L 285.541585 194.780119 
L 286.19857 184.001773 
L 286.855555 184.481561 
L 287.51254 195.194687 
L 288.169525 203.523099 
L 288.82651 201.1249 
L 289.483495 196.257402 
L 290.14048 188.418 
L 290.797465 183.963159 
L 291.45445 167.277397 
L 292.111435 191.984829 
L 292.76842 195.285194 
L 293.425405 195.710413 
L 294.08239 184.132934 
L 294.739375 180.618244 
L 295.39636 194.166805 
L 296.053345 174.632288 
L 296.71033 201.388783 
L 297.367315 199.896128 
L 298.0243 198.75001 
L 298.681285 165.735648 
L 299.33827 180.209314 
L 299.995255 190.876073 
L 300.65224 179.247627 
L 301.309225 194.577382 
L 301.96621 183.991203 
L 302.623195 189.271274 
L 303.28018 176.936304 
L 303.937165 185.224766 
L 304.59415 197.712456 
L 305.251135 205.669342 
L 305.90812 199.271032 
L 306.565105 197.367028 
L 307.22209 183.202847 
L 307.879075 186.269461 
L 308.53606 194.897539 
L 309.193045 195.280061 
L 309.85003 186.670512 
L 310.507015 185.353887 
L 311.164 189.282994 
L 311.820985 183.926938 
L 312.47797 182.528135 
L 313.134955 192.282461 
L 313.79194 190.229522 
L 314.448925 197.030811 
L 315.10591 175.308027 
L 315.762895 188.505183 
L 316.41988 186.550661 
L 317.076865 181.858477 
L 317.73385 197.083896 
L 318.390835 200.957639 
L 319.04782 171.6805 
L 319.704805 197.96549 
L 320.36179 195.384589 
L 321.018775 184.983664 
L 321.67576 182.196427 
L 322.332745 193.735402 
L 322.98973 180.726062 
L 323.646715 194.799926 
L 324.3037 195.980808 
L 324.960685 198.778073 
L 325.61767 187.821164 
L 326.274655 173.255716 
L 326.93164 202.47524 
L 327.588625 178.950051 
L 328.24561 183.118075 
L 328.902595 184.722084 
L 329.55958 180.360907 
L 330.216565 200.127503 
L 330.87355 201.157013 
L 332.18752 175.260431 
L 332.844505 198.024114 
L 333.50149 190.555163 
L 334.158475 179.573677 
L 334.81546 201.987053 
L 335.472445 177.842498 
L 336.12943 169.585 
L 336.786415 181.470969 
L 337.4434 190.365305 
L 338.100385 204.971794 
L 338.75737 195.894319 
L 339.414355 193.707681 
L 340.07134 186.971201 
L 340.728325 206.47633 
L 341.38531 210.997871 
L 342.042295 191.534901 
L 342.69928 210.718419 
L 343.356265 192.822121 
L 344.01325 190.197946 
L 344.670235 192.189252 
L 345.32722 173.915379 
L 345.984205 179.38816 
L 346.64119 201.493016 
L 347.298175 199.292619 
L 347.95516 185.17921 
L 348.612145 202.27517 
L 349.26913 190.378249 
L 349.926115 196.774205 
L 350.5831 193.326755 
L 351.240085 196.693733 
L 351.89707 202.239517 
L 352.554055 185.952761 
L 353.21104 197.030253 
L 353.868025 204.100618 
L 354.52501 191.704173 
L 355.181995 186.351882 
L 355.83898 210.04835 
L 356.495965 202.973417 
L 357.15295 198.494175 
L 357.809935 203.935474 
L 358.46692 203.945623 
L 359.123905 185.811512 
L 359.78089 201.18505 
L 360.437875 186.212212 
L 361.09486 180.730433 
L 362.40883 212.909263 
L 363.065815 204.512499 
L 363.7228 200.459017 
L 364.379785 208.815089 
L 365.03677 202.889686 
L 365.693755 199.244593 
L 366.35074 192.556838 
L 367.007725 199.407842 
L 367.66471 194.84384 
L 368.321695 212.950127 
L 368.97868 214.668405 
L 369.635665 218.919714 
L 370.29265 175.643599 
L 370.949635 211.018894 
L 371.60662 180.048029 
L 372.263605 196.708774 
L 372.92059 183.681576 
L 373.577575 190.847898 
L 374.23456 207.43569 
L 374.891545 174.719577 
L 375.54853 183.7351 
L 376.205515 210.831156 
L 376.8625 212.083988 
L 377.519485 184.081408 
L 378.17647 200.170684 
L 378.833455 190.029538 
L 380.147425 202.056829 
L 380.80441 188.259244 
L 381.461395 195.871936 
L 382.11838 176.776091 
L 382.775365 183.134466 
L 383.43235 199.635109 
L 384.089335 188.537941 
L 384.74632 203.819915 
L 385.403305 191.854413 
L 386.06029 185.666848 
L 386.717275 175.23921 
L 387.37426 188.25395 
L 388.031245 193.64545 
L 388.68823 187.439229 
L 389.345215 183.482505 
L 390.0022 176.824145 
L 390.659185 194.058709 
L 391.31617 182.575244 
L 391.973155 192.880773 
L 392.63014 199.681663 
L 393.287125 174.622909 
L 394.601095 190.80451 
L 395.25808 186.168527 
L 395.915065 197.06873 
L 396.57205 180.389263 
L 397.229035 185.374367 
L 397.88602 193.933189 
L 398.543005 185.373596 
L 399.19999 188.526771 
L 399.856975 195.464313 
L 400.51396 192.776134 
L 401.170945 195.100388 
L 401.82793 171.342773 
L 402.484915 195.201791 
L 403.1419 198.829184 
L 403.798885 209.1819 
L 404.45587 202.578584 
L 405.112855 198.31102 
L 405.76984 178.123389 
L 406.426825 202.820268 
L 407.08381 182.349835 
L 407.740795 186.892583 
L 408.39778 184.142932 
L 409.054765 184.591819 
L 409.71175 180.875345 
L 410.368735 181.184012 
L 411.02572 196.999526 
L 411.682705 183.039913 
L 412.33969 188.755253 
L 412.996675 185.004712 
L 413.65366 161.724058 
L 414.310645 182.630545 
L 414.96763 186.226122 
L 416.2816 169.884962 
L 416.938585 195.65716 
L 417.59557 166.589189 
L 418.252555 206.603221 
L 418.90954 209.477401 
L 419.566525 178.171083 
L 420.22351 189.192984 
L 420.880495 167.101108 
L 421.53748 181.399927 
L 422.194465 179.38311 
L 422.85145 200.00433 
L 423.508435 179.015878 
L 424.16542 183.608151 
L 424.822405 199.531575 
L 425.47939 201.235669 
L 426.136375 201.110044 
L 426.79336 187.860297 
L 427.450345 210.67104 
L 428.10733 186.0383 
L 428.764315 204.200117 
L 430.078285 179.485481 
L 430.73527 182.534993 
L 431.392255 198.670211 
L 432.04924 198.908922 
L 433.36321 174.474259 
L 434.67718 197.828708 
L 435.334165 191.894907 
L 435.99115 175.650782 
L 436.648135 206.929266 
L 437.30512 198.829167 
L 438.61909 175.016404 
L 439.93306 210.414804 
L 440.590045 204.644301 
L 441.24703 192.533747 
L 441.904015 190.690171 
L 442.561 188.061344 
L 443.87497 203.37078 
L 444.531955 185.65729 
L 445.18894 181.201751 
L 445.845925 205.408861 
L 446.50291 195.258003 
L 447.159895 179.351496 
L 447.81688 181.276323 
L 448.473865 175.339898 
L 449.787835 192.907365 
L 450.44482 184.734127 
L 451.101805 196.610294 
L 451.75879 191.282288 
L 452.415775 176.466537 
L 453.07276 186.77384 
L 453.729745 175.03337 
L 454.38673 185.303985 
L 455.043715 186.497818 
L 455.7007 172.320246 
L 456.357685 187.920644 
L 457.01467 173.728396 
L 458.32864 205.992472 
L 458.985625 200.872488 
L 459.64261 180.768958 
L 460.299595 198.718894 
L 460.95658 182.555256 
L 461.613565 181.435825 
L 462.27055 192.068064 
L 462.927535 186.104709 
L 463.58452 196.38527 
L 464.241505 187.496839 
L 464.89849 175.121579 
L 465.555475 186.712726 
L 466.21246 157.40921 
L 466.869445 186.906928 
L 467.52643 182.779721 
L 468.183415 196.51807 
L 468.8404 185.322332 
L 469.497385 198.136532 
L 470.15437 185.038456 
L 470.811355 181.783843 
L 471.46834 191.198452 
L 472.125325 188.853518 
L 472.78231 178.105675 
L 473.439295 172.055555 
L 474.09628 174.036758 
L 474.753265 197.354246 
L 475.41025 180.084167 
L 476.067235 198.174875 
L 476.72422 201.107626 
L 477.381205 181.443803 
L 478.03819 195.816088 
L 478.695175 170.754599 
L 479.35216 183.911603 
L 480.009145 178.619651 
L 480.66613 205.646512 
L 481.323115 191.097174 
L 481.9801 187.902408 
L 482.637085 181.21138 
L 483.29407 178.904907 
L 483.951055 187.58018 
L 484.60804 197.86649 
L 485.265025 176.479667 
L 485.92201 192.526421 
L 486.578995 197.021829 
L 487.23598 183.869629 
L 487.892965 175.949179 
L 488.54995 198.705422 
L 489.206935 192.330523 
L 490.520905 184.690377 
L 491.17789 192.135692 
L 491.834875 197.774679 
L 492.49186 200.940765 
L 493.148845 179.958125 
L 493.80583 190.328791 
L 494.462815 193.360288 
L 495.1198 205.310694 
L 495.776785 197.69169 
L 496.43377 185.784989 
L 497.090755 179.611274 
L 497.74774 179.935969 
L 498.404725 191.768987 
L 499.06171 178.175687 
L 500.37568 188.086289 
L 501.032665 187.810838 
L 501.68965 187.100568 
L 502.346635 198.56979 
L 503.00362 201.887903 
L 503.660605 184.188358 
L 504.31759 194.965134 
L 504.974575 194.428037 
L 505.63156 190.726292 
L 506.288545 198.810715 
L 506.94553 185.191386 
L 507.602515 189.77402 
L 508.2595 208.001713 
L 508.916485 205.642507 
L 509.57347 182.689393 
L 510.230455 204.536338 
L 510.88744 209.766361 
L 511.544425 154.77871 
L 512.20141 191.622549 
L 512.858395 210.140809 
L 513.51538 174.290886 
L 514.172365 192.869777 
L 514.82935 175.009347 
L 515.486335 190.18967 
L 516.14332 188.448542 
L 516.800305 175.614915 
L 517.45729 194.19831 
L 518.114275 182.389674 
L 519.428245 194.869199 
L 520.08523 189.88377 
L 520.742215 196.856356 
L 521.3992 198.501052 
L 522.056185 198.153129 
L 522.71317 170.485674 
L 523.370155 194.752693 
L 524.02714 186.590516 
L 524.684125 186.318149 
L 525.34111 191.039341 
L 525.998095 190.740702 
L 526.65508 193.59173 
L 527.312065 205.695766 
L 527.96905 189.298404 
L 528.626035 199.810211 
L 529.28302 191.864931 
L 529.940005 189.695613 
L 530.59699 180.4101 
L 531.253975 180.571777 
L 531.91096 175.954016 
L 532.567945 215.246587 
L 533.22493 196.026171 
L 533.881915 196.126766 
L 534.5389 186.257396 
L 535.195885 186.635511 
L 535.85287 186.232737 
L 536.509855 192.839513 
L 537.16684 187.793544 
L 537.823825 204.140931 
L 538.48081 188.762864 
L 539.137795 179.421786 
L 539.79478 178.973502 
L 540.451765 199.865939 
L 541.10875 180.321553 
L 541.765735 191.523019 
L 542.42272 172.757073 
L 543.079705 190.130573 
L 543.73669 182.149468 
L 544.393675 190.066353 
L 545.05066 186.335792 
L 545.707645 189.033401 
L 546.36463 185.040709 
L 547.021615 188.612889 
L 547.6786 223.181348 
L 548.335585 184.937957 
L 548.99257 176.948222 
L 549.649555 184.059451 
L 550.30654 189.781466 
L 550.963525 189.589157 
L 551.62051 182.09391 
L 552.277495 197.583316 
L 552.93448 202.558177 
L 553.591465 179.484969 
L 554.24845 193.545749 
L 554.905435 195.750689 
L 555.56242 184.374861 
L 556.219405 197.056159 
L 556.87639 188.187011 
L 557.533375 190.834434 
L 558.19036 184.153533 
L 558.847345 197.761537 
L 559.50433 169.46377 
L 560.161315 207.394465 
L 560.8183 191.851939 
L 561.475285 182.273777 
L 562.13227 195.671539 
L 562.789255 191.513559 
L 564.103225 202.024702 
L 564.76021 180.105067 
L 565.417195 189.235525 
L 566.07418 205.131795 
L 566.731165 199.318873 
L 567.38815 207.39579 
L 568.045135 188.232181 
L 568.70212 178.711948 
L 569.359105 185.830884 
L 570.01609 182.49105 
L 570.673075 175.063964 
L 571.33006 186.683173 
L 571.987045 189.717042 
L 572.64403 183.505775 
L 573.301015 174.875013 
L 573.958 188.664599 
L 574.614985 184.614237 
L 575.27197 200.08835 
L 575.928955 178.872127 
L 576.58594 192.014606 
L 577.242925 173.404501 
L 577.89991 181.602346 
L 578.556895 193.70351 
L 579.21388 196.311983 
L 579.870865 188.861017 
L 580.52785 192.235914 
L 581.184835 187.928001 
L 581.84182 197.168468 
L 582.498805 208.001639 
L 583.15579 185.99614 
L 583.812775 187.810435 
L 584.46976 191.225712 
L 585.126745 197.100865 
L 585.78373 212.346119 
L 586.440715 193.755407 
L 587.0977 198.487685 
L 587.754685 186.741637 
L 588.41167 182.838258 
L 589.068655 195.017237 
L 589.72564 203.039646 
L 590.382625 206.178544 
L 591.03961 192.635333 
L 591.696595 192.407983 
L 592.35358 180.036458 
L 593.010565 196.591409 
L 594.324535 177.664575 
L 594.98152 199.083234 
L 595.638505 170.079137 
L 596.29549 206.658319 
L 596.952475 203.302624 
L 597.60946 188.789819 
L 598.266445 185.142071 
L 598.92343 192.158475 
L 600.2374 209.583078 
L 600.894385 180.820181 
L 602.208355 199.089179 
L 602.86534 204.838804 
L 603.522325 182.121356 
L 604.17931 193.568192 
L 604.836295 176.722845 
L 605.49328 192.062052 
L 606.150265 188.421093 
L 606.80725 187.214389 
L 607.464235 186.437109 
L 608.12122 199.437965 
L 608.778205 203.349333 
L 609.43519 193.363789 
L 610.092175 206.367319 
L 610.74916 201.74652 
L 611.406145 177.428461 
L 612.06313 194.384651 
L 612.720115 178.067 
L 613.3771 186.725897 
L 614.034085 201.825402 
L 614.69107 189.562871 
L 615.348055 184.778887 
L 616.00504 190.657632 
L 616.662025 208.470931 
L 617.31901 196.703512 
L 617.975995 200.414691 
L 618.63298 206.21664 
L 619.289965 190.967915 
L 619.94695 204.293875 
L 620.603935 196.790152 
L 621.26092 195.991364 
L 621.917905 207.809586 
L 622.57489 200.085244 
L 623.231875 186.972479 
L 623.88886 200.665151 
L 624.545845 190.300926 
L 625.20283 190.564917 
L 625.859815 172.992552 
L 626.5168 195.146366 
L 627.173785 182.700212 
L 627.83077 192.576947 
L 628.487755 194.001333 
L 629.14474 196.884063 
L 629.801725 187.566972 
L 630.45871 189.861881 
L 631.115695 192.779269 
L 631.77268 194.948557 
L 632.429665 168.322543 
L 633.08665 208.433087 
L 633.743635 200.200152 
L 634.40062 196.756312 
L 635.057605 180.792505 
L 635.71459 175.253118 
L 636.371575 214.810829 
L 637.02856 192.150718 
L 637.685545 204.270791 
L 638.999515 178.982248 
L 639.6565 186.018155 
L 640.313485 195.985875 
L 640.97047 165.844658 
L 641.627455 191.951716 
L 642.28444 186.539842 
L 642.941425 174.172865 
L 643.59841 181.45245 
L 644.255395 187.242552 
L 644.91238 185.641179 
L 645.569365 203.671824 
L 646.22635 188.372647 
L 646.883335 200.950779 
L 647.54032 204.730218 
L 648.197305 187.643404 
L 648.85429 198.275614 
L 649.511275 199.07075 
L 650.16826 181.187953 
L 650.825245 188.671883 
L 651.48223 200.454279 
L 652.139215 192.245723 
L 652.7962 209.125372 
L 653.453185 188.746851 
L 654.11017 197.541546 
L 654.767155 204.172065 
L 655.42414 198.606614 
L 656.081125 191.364018 
L 656.73811 182.320741 
L 657.395095 192.202683 
L 658.05208 195.583185 
L 658.709065 190.047888 
L 660.023035 199.888715 
L 660.68002 195.278219 
L 661.337005 210.786709 
L 661.99399 216.046657 
L 662.650975 193.718545 
L 663.30796 198.903347 
L 663.964945 196.977188 
L 664.62193 191.680795 
L 665.278915 185.475706 
L 665.9359 194.146066 
L 666.592885 184.646771 
L 667.24987 189.631409 
L 667.906855 188.174793 
L 668.56384 191.007167 
L 669.220825 203.157305 
L 669.87781 184.111697 
L 670.534795 188.329111 
L 671.19178 180.45701 
L 671.848765 191.411443 
L 672.50575 206.763765 
L 673.81972 186.102761 
L 674.476705 207.541045 
L 675.13369 190.013177 
L 675.790675 218.278223 
L 676.44766 203.699439 
L 677.104645 195.580149 
L 677.76163 192.121899 
L 678.418615 199.02137 
L 679.0756 176.471974 
L 679.732585 192.829388 
L 680.38957 190.76343 
L 681.046555 198.60603 
L 681.70354 194.038444 
L 682.360525 195.733834 
L 683.01751 187.886594 
L 683.674495 170.653592 
L 684.33148 187.346671 
L 684.988465 189.026405 
L 685.64545 196.355822 
L 686.302435 198.40369 
L 686.95942 180.646289 
L 687.616405 216.53803 
L 688.27339 176.690524 
L 688.930375 202.305624 
L 689.58736 192.051394 
L 690.244345 186.177933 
L 690.90133 178.227727 
L 691.558315 223.901112 
L 692.2153 205.966778 
L 693.52927 199.280281 
L 694.186255 198.458352 
L 694.84324 201.284487 
L 695.500225 207.106352 
L 696.15721 186.293112 
L 696.814195 156.462048 
L 698.128165 190.863229 
L 698.78515 182.370175 
L 699.442135 197.261965 
L 700.09912 180.735671 
L 700.756105 200.77565 
L 701.41309 209.63719 
L 702.070075 188.750488 
L 702.72706 190.959149 
L 703.384045 194.864306 
L 704.04103 201.223675 
L 704.698015 191.247734 
L 704.698015 191.247734 
" clip-path="url(#p38ad040732)" style="fill: none; stroke-dasharray: 5.55,2.4; stroke-dashoffset: 0; stroke: #ff7f0e; stroke-width: 1.5"/>
   </g>
   <g id="patch_3">
    <path d="M 48.37 398.84 
L 48.37 18.08 
" style="fill: none; stroke: #000000; stroke-width: 0.8; stroke-linejoin: miter; stroke-linecap: square"/>
   </g>
   <g id="patch_4">
    <path d="M 705.355 398.84 
L 705.355 18.08 
" style="fill: none; stroke: #000000; stroke-width: 0.8; stroke-linejoin: miter; stroke-linecap: square"/>
   </g>
   <g id="patch_5">
    <path d="M 48.37 398.84 
L 705.355 398.84 
" style="fill: none; stroke: #000000; stroke-width: 0.8; stroke-linejoin: miter; stroke-linecap: square"/>
   </g>
   <g id="patch_6">
    <path d="M 48.37 18.08 
L 705.355 18.08 
" style="fill: none; stroke: #000000; stroke-width: 0.8; stroke-linejoin: miter; stroke-linecap: square"/>
   </g>
   <g id="text_19">
    <!-- dPSO Evolution (Simulation #20) -->
    <g transform="translate(277.902812 12.08) scale(0.12 -0.12)">
     <defs>
      <path id="DejaVuSans-64" d="M 2906 2969 
L 2906 4863 
L 3481 4863 
L 3481 0 
L 2906 0 
L 2906 525 
Q 2725 213 2448 61 
Q 2172 -91 1784 -91 
Q 1150 -91 751 415 
Q 353 922 353 1747 
Q 353 2572 751 3078 
Q 1150 3584 1784 3584 
Q 2172 3584 2448 3432 
Q 2725 3281 2906 2969 
z
M 947 1747 
Q 947 1113 1208 752 
Q 1469 391 1925 391 
Q 2381 391 2643 752 
Q 2906 1113 2906 1747 
Q 2906 2381 2643 2742 
Q 2381 3103 1925 3103 
Q 1469 3103 1208 2742 
Q 947 2381 947 1747 
z
" transform="scale(0.015625)"/>
      <path id="DejaVuSans-50" d="M 1259 4147 
L 1259 2394 
L 2053 2394 
Q 2494 2394 2734 2622 
Q 2975 2850 2975 3272 
Q 2975 3691 2734 3919 
Q 2494 4147 2053 4147 
L 1259 4147 
z
M 628 4666 
L 2053 4666 
Q 2838 4666 3239 4311 
Q 3641 3956 3641 3272 
Q 3641 2581 3239 2228 
Q 2838 1875 2053 1875 
L 1259 1875 
L 1259 0 
L 628 0 
L 628 4666 
z
" transform="scale(0.015625)"/>
      <path id="DejaVuSans-53" d="M 3425 4513 
L 3425 3897 
Q 3066 4069 2747 4153 
Q 2428 4238 2131 4238 
Q 1616 4238 1336 4038 
Q 1056 3838 1056 3469 
Q 1056 3159 1242 3001 
Q 1428 2844 1947 2747 
L 2328 2669 
Q 3034 2534 3370 2195 
Q 3706 1856 3706 1288 
Q 3706 609 3251 259 
Q 2797 -91 1919 -91 
Q 1588 -91 1214 -16 
Q 841 59 441 206 
L 441 856 
Q 825 641 1194 531 
Q 1563 422 1919 422 
Q 2459 422 2753 634 
Q 3047 847 3047 1241 
Q 3047 1584 2836 1778 
Q 2625 1972 2144 2069 
L 1759 2144 
Q 1053 2284 737 2584 
Q 422 2884 422 3419 
Q 422 4038 858 4394 
Q 1294 4750 2059 4750 
Q 2388 4750 2728 4690 
Q 3069 4631 3425 4513 
z
" transform="scale(0.015625)"/>
      <path id="DejaVuSans-45" d="M 628 4666 
L 3578 4666 
L 3578 4134 
L 1259 4134 
L 1259 2753 
L 3481 2753 
L 3481 2222 
L 1259 2222 
L 1259 531 
L 3634 531 
L 3634 0 
L 628 0 
L 628 4666 
z
" transform="scale(0.015625)"/>
      <path id="DejaVuSans-28" d="M 1984 4856 
Q 1566 4138 1362 3434 
Q 1159 2731 1159 2009 
Q 1159 1288 1364 580 
Q 1569 -128 1984 -844 
L 1484 -844 
Q 1016 -109 783 600 
Q 550 1309 550 2009 
Q 550 2706 781 3412 
Q 1013 4119 1484 4856 
L 1984 4856 
z
" transform="scale(0.015625)"/>
      <path id="DejaVuSans-6d" d="M 3328 2828 
Q 3544 3216 3844 3400 
Q 4144 3584 4550 3584 
Q 5097 3584 5394 3201 
Q 5691 2819 5691 2113 
L 5691 0 
L 5113 0 
L 5113 2094 
Q 5113 2597 4934 2840 
Q 4756 3084 4391 3084 
Q 3944 3084 3684 2787 
Q 3425 2491 3425 1978 
L 3425 0 
L 2847 0 
L 2847 2094 
Q 2847 2600 2669 2842 
Q 2491 3084 2119 3084 
Q 1678 3084 1418 2786 
Q 1159 2488 1159 1978 
L 1159 0 
L 581 0 
L 581 3500 
L 1159 3500 
L 1159 2956 
Q 1356 3278 1631 3431 
Q 1906 3584 2284 3584 
Q 2666 3584 2933 3390 
Q 3200 3197 3328 2828 
z
" transform="scale(0.015625)"/>
      <path id="DejaVuSans-23" d="M 3272 2816 
L 2363 2816 
L 2100 1772 
L 3016 1772 
L 3272 2816 
z
M 2803 4594 
L 2478 3297 
L 3391 3297 
L 3719 4594 
L 4219 4594 
L 3897 3297 
L 4872 3297 
L 4872 2816 
L 3775 2816 
L 3519 1772 
L 4513 1772 
L 4513 1294 
L 3397 1294 
L 3072 0 
L 2572 0 
L 2894 1294 
L 1978 1294 
L 1656 0 
L 1153 0 
L 1478 1294 
L 494 1294 
L 494 1772 
L 1594 1772 
L 1856 2816 
L 850 2816 
L 850 3297 
L 1978 3297 
L 2297 4594 
L 2803 4594 
z
" transform="scale(0.015625)"/>
      <path id="DejaVuSans-29" d="M 513 4856 
L 1013 4856 
Q 1481 4119 1714 3412 
Q 1947 2706 1947 2009 
Q 1947 1309 1714 600 
Q 1481 -109 1013 -844 
L 513 -844 
Q 928 -128 1133 580 
Q 1338 1288 1338 2009 
Q 1338 2731 1133 3434 
Q 928 4138 513 4856 
z
" transform="scale(0.015625)"/>
     </defs>
     <use xlink:href="#DejaVuSans-64"/>
     <use xlink:href="#DejaVuSans-50" transform="translate(63.476562 0)"/>
     <use xlink:href="#DejaVuSans-53" transform="translate(123.779297 0)"/>
     <use xlink:href="#DejaVuSans-4f" transform="translate(187.255859 0)"/>
     <use xlink:href="#DejaVuSans-20" transform="translate(265.966797 0)"/>
     <use xlink:href="#DejaVuSans-45" transform="translate(297.753906 0)"/>
     <use xlink:href="#DejaVuSans-76" transform="translate(360.9375 0)"/>
     <use xlink:href="#DejaVuSans-6f" transform="translate(420.117188 0)"/>
     <use xlink:href="#DejaVuSans-6c" transform="translate(481.298828 0)"/>
     <use xlink:href="#DejaVuSans-75" transform="translate(509.082031 0)"/>
     <use xlink:href="#DejaVuSans-74" transform="translate(572.460938 0)"/>
     <use xlink:href="#DejaVuSans-69" transform="translate(611.669922 0)"/>
     <use xlink:href="#DejaVuSans-6f" transform="translate(639.453125 0)"/>
     <use xlink:href="#DejaVuSans-6e" transform="translate(700.634766 0)"/>
     <use xlink:href="#DejaVuSans-20" transform="translate(764.013672 0)"/>
     <use xlink:href="#DejaVuSans-28" transform="translate(795.800781 0)"/>
     <use xlink:href="#DejaVuSans-53" transform="translate(834.814453 0)"/>
     <use xlink:href="#DejaVuSans-69" transform="translate(898.291016 0)"/>
     <use xlink:href="#DejaVuSans-6d" transform="translate(926.074219 0)"/>
     <use xlink:href="#DejaVuSans-75" transform="translate(1023.486328 0)"/>
     <use xlink:href="#DejaVuSans-6c" transform="translate(1086.865234 0)"/>
     <use xlink:href="#DejaVuSans-61" transform="translate(1114.648438 0)"/>
     <use xlink:href="#DejaVuSans-74" transform="translate(1175.927734 0)"/>
     <use xlink:href="#DejaVuSans-69" transform="translate(1215.136719 0)"/>
     <use xlink:href="#DejaVuSans-6f" transform="translate(1242.919922 0)"/>
     <use xlink:href="#DejaVuSans-6e" transform="translate(1304.101562 0)"/>
     <use xlink:href="#DejaVuSans-20" transform="translate(1367.480469 0)"/>
     <use xlink:href="#DejaVuSans-23" transform="translate(1399.267578 0)"/>
     <use xlink:href="#DejaVuSans-32" transform="translate(1483.056641 0)"/>
     <use xlink:href="#DejaVuSans-30" transform="translate(1546.679688 0)"/>
     <use xlink:href="#DejaVuSans-29" transform="translate(1610.302734 0)"/>
    </g>
   </g>
   <g id="legend_1">
    <g id="patch_7">
     <path d="M 549.897187 55.43625 
L 698.355 55.43625 
Q 700.355 55.43625 700.355 53.43625 
L 700.355 25.08 
Q 700.355 23.08 698.355 23.08 
L 549.897187 23.08 
Q 547.897187 23.08 547.897187 25.08 
L 547.897187 53.43625 
Q 547.897187 55.43625 549.897187 55.43625 
z
" style="fill: #ffffff; opacity: 0.8; stroke: #cccccc; stroke-linejoin: miter"/>
    </g>
    <g id="line2d_35">
     <path d="M 551.897187 31.178437 
L 561.897187 31.178437 
L 561.897187 31.178437 
L 571.897187 31.178437 
L 571.897187 31.178437 
" style="fill: none; stroke: #1f77b4; stroke-width: 1.5; stroke-linecap: square"/>
    </g>
    <g id="text_20">
     <!-- Best Fitness (dPSO) -->
     <g transform="translate(579.897187 34.678437) scale(0.1 -0.1)">
      <defs>
       <path id="DejaVuSans-42" d="M 1259 2228 
L 1259 519 
L 2272 519 
Q 2781 519 3026 730 
Q 3272 941 3272 1375 
Q 3272 1813 3026 2020 
Q 2781 2228 2272 2228 
L 1259 2228 
z
M 1259 4147 
L 1259 2741 
L 2194 2741 
Q 2656 2741 2882 2914 
Q 3109 3088 3109 3444 
Q 3109 3797 2882 3972 
Q 2656 4147 2194 4147 
L 1259 4147 
z
M 628 4666 
L 2241 4666 
Q 2963 4666 3353 4366 
Q 3744 4066 3744 3513 
Q 3744 3084 3544 2831 
Q 3344 2578 2956 2516 
Q 3422 2416 3680 2098 
Q 3938 1781 3938 1306 
Q 3938 681 3513 340 
Q 3088 0 2303 0 
L 628 0 
L 628 4666 
z
" transform="scale(0.015625)"/>
       <path id="DejaVuSans-73" d="M 2834 3397 
L 2834 2853 
Q 2591 2978 2328 3040 
Q 2066 3103 1784 3103 
Q 1356 3103 1142 2972 
Q 928 2841 928 2578 
Q 928 2378 1081 2264 
Q 1234 2150 1697 2047 
L 1894 2003 
Q 2506 1872 2764 1633 
Q 3022 1394 3022 966 
Q 3022 478 2636 193 
Q 2250 -91 1575 -91 
Q 1294 -91 989 -36 
Q 684 19 347 128 
L 347 722 
Q 666 556 975 473 
Q 1284 391 1588 391 
Q 1994 391 2212 530 
Q 2431 669 2431 922 
Q 2431 1156 2273 1281 
Q 2116 1406 1581 1522 
L 1381 1569 
Q 847 1681 609 1914 
Q 372 2147 372 2553 
Q 372 3047 722 3315 
Q 1072 3584 1716 3584 
Q 2034 3584 2315 3537 
Q 2597 3491 2834 3397 
z
" transform="scale(0.015625)"/>
       <path id="DejaVuSans-46" d="M 628 4666 
L 3309 4666 
L 3309 4134 
L 1259 4134 
L 1259 2759 
L 3109 2759 
L 3109 2228 
L 1259 2228 
L 1259 0 
L 628 0 
L 628 4666 
z
" transform="scale(0.015625)"/>
      </defs>
      <use xlink:href="#DejaVuSans-42"/>
      <use xlink:href="#DejaVuSans-65" transform="translate(68.603516 0)"/>
      <use xlink:href="#DejaVuSans-73" transform="translate(130.126953 0)"/>
      <use xlink:href="#DejaVuSans-74" transform="translate(182.226562 0)"/>
      <use xlink:href="#DejaVuSans-20" transform="translate(221.435547 0)"/>
      <use xlink:href="#DejaVuSans-46" transform="translate(253.222656 0)"/>
      <use xlink:href="#DejaVuSans-69" transform="translate(303.492188 0)"/>
      <use xlink:href="#DejaVuSans-74" transform="translate(331.275391 0)"/>
      <use xlink:href="#DejaVuSans-6e" transform="translate(370.484375 0)"/>
      <use xlink:href="#DejaVuSans-65" transform="translate(433.863281 0)"/>
      <use xlink:href="#DejaVuSans-73" transform="translate(495.386719 0)"/>
      <use xlink:href="#DejaVuSans-73" transform="translate(547.486328 0)"/>
      <use xlink:href="#DejaVuSans-20" transform="translate(599.585938 0)"/>
      <use xlink:href="#DejaVuSans-28" transform="translate(631.373047 0)"/>
      <use xlink:href="#DejaVuSans-64" transform="translate(670.386719 0)"/>
      <use xlink:href="#DejaVuSans-50" transform="translate(733.863281 0)"/>
      <use xlink:href="#DejaVuSans-53" transform="translate(794.166016 0)"/>
      <use xlink:href="#DejaVuSans-4f" transform="translate(857.642578 0)"/>
      <use xlink:href="#DejaVuSans-29" transform="translate(936.353516 0)"/>
     </g>
    </g>
    <g id="line2d_36">
     <path d="M 551.897187 45.856562 
L 561.897187 45.856562 
L 571.897187 45.856562 
" style="fill: none; stroke-dasharray: 5.55,2.4; stroke-dashoffset: 0; stroke: #ff7f0e; stroke-width: 1.5"/>
    </g>
    <g id="text_21">
     <!-- Average Fitness (dPSO) -->
     <g transform="translate(579.897187 49.356562) scale(0.1 -0.1)">
      <defs>
       <path id="DejaVuSans-41" d="M 2188 4044 
L 1331 1722 
L 3047 1722 
L 2188 4044 
z
M 1831 4666 
L 2547 4666 
L 4325 0 
L 3669 0 
L 3244 1197 
L 1141 1197 
L 716 0 
L 50 0 
L 1831 4666 
z
" transform="scale(0.015625)"/>
       <path id="DejaVuSans-67" d="M 2906 1791 
Q 2906 2416 2648 2759 
Q 2391 3103 1925 3103 
Q 1463 3103 1205 2759 
Q 947 2416 947 1791 
Q 947 1169 1205 825 
Q 1463 481 1925 481 
Q 2391 481 2648 825 
Q 2906 1169 2906 1791 
z
M 3481 434 
Q 3481 -459 3084 -895 
Q 2688 -1331 1869 -1331 
Q 1566 -1331 1297 -1286 
Q 1028 -1241 775 -1147 
L 775 -588 
Q 1028 -725 1275 -790 
Q 1522 -856 1778 -856 
Q 2344 -856 2625 -561 
Q 2906 -266 2906 331 
L 2906 616 
Q 2728 306 2450 153 
Q 2172 0 1784 0 
Q 1141 0 747 490 
Q 353 981 353 1791 
Q 353 2603 747 3093 
Q 1141 3584 1784 3584 
Q 2172 3584 2450 3431 
Q 2728 3278 2906 2969 
L 2906 3500 
L 3481 3500 
L 3481 434 
z
" transform="scale(0.015625)"/>
      </defs>
      <use xlink:href="#DejaVuSans-41"/>
      <use xlink:href="#DejaVuSans-76" transform="translate(62.533203 0)"/>
      <use xlink:href="#DejaVuSans-65" transform="translate(121.712891 0)"/>
      <use xlink:href="#DejaVuSans-72" transform="translate(183.236328 0)"/>
      <use xlink:href="#DejaVuSans-61" transform="translate(224.349609 0)"/>
      <use xlink:href="#DejaVuSans-67" transform="translate(285.628906 0)"/>
      <use xlink:href="#DejaVuSans-65" transform="translate(349.105469 0)"/>
      <use xlink:href="#DejaVuSans-20" transform="translate(410.628906 0)"/>
      <use xlink:href="#DejaVuSans-46" transform="translate(442.416016 0)"/>
      <use xlink:href="#DejaVuSans-69" transform="translate(492.685547 0)"/>
      <use xlink:href="#DejaVuSans-74" transform="translate(520.46875 0)"/>
      <use xlink:href="#DejaVuSans-6e" transform="translate(559.677734 0)"/>
      <use xlink:href="#DejaVuSans-65" transform="translate(623.056641 0)"/>
      <use xlink:href="#DejaVuSans-73" transform="translate(684.580078 0)"/>
      <use xlink:href="#DejaVuSans-73" transform="translate(736.679688 0)"/>
      <use xlink:href="#DejaVuSans-20" transform="translate(788.779297 0)"/>
      <use xlink:href="#DejaVuSans-28" transform="translate(820.566406 0)"/>
      <use xlink:href="#DejaVuSans-64" transform="translate(859.580078 0)"/>
      <use xlink:href="#DejaVuSans-50" transform="translate(923.056641 0)"/>
      <use xlink:href="#DejaVuSans-53" transform="translate(983.359375 0)"/>
      <use xlink:href="#DejaVuSans-4f" transform="translate(1046.835938 0)"/>
      <use xlink:href="#DejaVuSans-29" transform="translate(1125.546875 0)"/>
     </g>
    </g>
   </g>
  </g>
 </g>
 <defs>
  <clipPath id="p38ad040732">
   <rect x="48.37" y="18.08" width="656.985" height="380.76"/>
  </clipPath>
 </defs>
</svg>
