<?xml version="1.0" encoding="utf-8" standalone="no"?>
<!DOCTYPE svg PUBLIC "-//W3C//DTD SVG 1.1//EN"
  "http://www.w3.org/Graphics/SVG/1.1/DTD/svg11.dtd">
<svg xmlns:xlink="http://www.w3.org/1999/xlink" width="720pt" height="432pt" viewBox="0 0 720 432" xmlns="http://www.w3.org/2000/svg" version="1.1">
 <metadata>
  <rdf:RDF xmlns:dc="http://purl.org/dc/elements/1.1/" xmlns:cc="http://creativecommons.org/ns#" xmlns:rdf="http://www.w3.org/1999/02/22-rdf-syntax-ns#">
   <cc:Work>
    <dc:type rdf:resource="http://purl.org/dc/dcmitype/StillImage"/>
    <dc:date>2025-11-25T04:08:07.397878</dc:date>
    <dc:format>image/svg+xml</dc:format>
    <dc:creator>
     <cc:Agent>
      <dc:title>Matplotlib v3.10.6, https://matplotlib.org/</dc:title>
     </cc:Agent>
    </dc:creator>
   </cc:Work>
  </rdf:RDF>
 </metadata>
 <defs>
  <style type="text/css">*{stroke-linejoin: round; stroke-linecap: butt}</style>
 </defs>
 <g id="figure_1">
  <g id="patch_1">
   <path d="M 0 432 
L 720 432 
L 720 0 
L 0 0 
z
" style="fill: #ffffff"/>
  </g>
  <g id="axes_1">
   <g id="patch_2">
    <path d="M 48.37 398.84 
L 705.355 398.84 
L 705.355 18.08 
L 48.37 18.08 
z
" style="fill: #ffffff"/>
   </g>
   <g id="matplotlib.axis_1">
    <g id="xtick_1">
     <g id="line2d_1">
      <path d="M 48.37 398.84 
L 48.37 18.08 
" clip-path="url(#pb1a513a5cf)" style="fill: none; stroke-dasharray: 0.8,1.32; stroke-dashoffset: 0; stroke: #b0b0b0; stroke-opacity: 0.7; stroke-width: 0.8"/>
     </g>
     <g id="line2d_2">
      <defs>
       <path id="m9df9c005a5" d="M 0 0 
L 0 3.5 
" style="stroke: #000000; stroke-width: 0.8"/>
      </defs>
      <g>
       <use xlink:href="#m9df9c005a5" x="48.37" y="398.84" style="stroke: #000000; stroke-width: 0.8"/>
      </g>
     </g>
     <g id="text_1">
      <!-- 0 -->
      <g transform="translate(45.18875 413.438437) scale(0.1 -0.1)">
       <defs>
        <path id="DejaVuSans-30" d="M 2034 4250 
Q 1547 4250 1301 3770 
Q 1056 3291 1056 2328 
Q 1056 1369 1301 889 
Q 1547 409 2034 409 
Q 2525 409 2770 889 
Q 3016 1369 3016 2328 
Q 3016 3291 2770 3770 
Q 2525 4250 2034 4250 
z
M 2034 4750 
Q 2819 4750 3233 4129 
Q 3647 3509 3647 2328 
Q 3647 1150 3233 529 
Q 2819 -91 2034 -91 
Q 1250 -91 836 529 
Q 422 1150 422 2328 
Q 422 3509 836 4129 
Q 1250 4750 2034 4750 
z
" transform="scale(0.015625)"/>
       </defs>
       <use xlink:href="#DejaVuSans-30"/>
      </g>
     </g>
    </g>
    <g id="xtick_2">
     <g id="line2d_3">
      <path d="M 114.0685 398.84 
L 114.0685 18.08 
" clip-path="url(#pb1a513a5cf)" style="fill: none; stroke-dasharray: 0.8,1.32; stroke-dashoffset: 0; stroke: #b0b0b0; stroke-opacity: 0.7; stroke-width: 0.8"/>
     </g>
     <g id="line2d_4">
      <g>
       <use xlink:href="#m9df9c005a5" x="114.0685" y="398.84" style="stroke: #000000; stroke-width: 0.8"/>
      </g>
     </g>
     <g id="text_2">
      <!-- 100 -->
      <g transform="translate(104.52475 413.438437) scale(0.1 -0.1)">
       <defs>
        <path id="DejaVuSans-31" d="M 794 531 
L 1825 531 
L 1825 4091 
L 703 3866 
L 703 4441 
L 1819 4666 
L 2450 4666 
L 2450 531 
L 3481 531 
L 3481 0 
L 794 0 
L 794 531 
z
" transform="scale(0.015625)"/>
       </defs>
       <use xlink:href="#DejaVuSans-31"/>
       <use xlink:href="#DejaVuSans-30" transform="translate(63.623047 0)"/>
       <use xlink:href="#DejaVuSans-30" transform="translate(127.246094 0)"/>
      </g>
     </g>
    </g>
    <g id="xtick_3">
     <g id="line2d_5">
      <path d="M 179.767 398.84 
L 179.767 18.08 
" clip-path="url(#pb1a513a5cf)" style="fill: none; stroke-dasharray: 0.8,1.32; stroke-dashoffset: 0; stroke: #b0b0b0; stroke-opacity: 0.7; stroke-width: 0.8"/>
     </g>
     <g id="line2d_6">
      <g>
       <use xlink:href="#m9df9c005a5" x="179.767" y="398.84" style="stroke: #000000; stroke-width: 0.8"/>
      </g>
     </g>
     <g id="text_3">
      <!-- 200 -->
      <g transform="translate(170.22325 413.438437) scale(0.1 -0.1)">
       <defs>
        <path id="DejaVuSans-32" d="M 1228 531 
L 3431 531 
L 3431 0 
L 469 0 
L 469 531 
Q 828 903 1448 1529 
Q 2069 2156 2228 2338 
Q 2531 2678 2651 2914 
Q 2772 3150 2772 3378 
Q 2772 3750 2511 3984 
Q 2250 4219 1831 4219 
Q 1534 4219 1204 4116 
Q 875 4013 500 3803 
L 500 4441 
Q 881 4594 1212 4672 
Q 1544 4750 1819 4750 
Q 2544 4750 2975 4387 
Q 3406 4025 3406 3419 
Q 3406 3131 3298 2873 
Q 3191 2616 2906 2266 
Q 2828 2175 2409 1742 
Q 1991 1309 1228 531 
z
" transform="scale(0.015625)"/>
       </defs>
       <use xlink:href="#DejaVuSans-32"/>
       <use xlink:href="#DejaVuSans-30" transform="translate(63.623047 0)"/>
       <use xlink:href="#DejaVuSans-30" transform="translate(127.246094 0)"/>
      </g>
     </g>
    </g>
    <g id="xtick_4">
     <g id="line2d_7">
      <path d="M 245.4655 398.84 
L 245.4655 18.08 
" clip-path="url(#pb1a513a5cf)" style="fill: none; stroke-dasharray: 0.8,1.32; stroke-dashoffset: 0; stroke: #b0b0b0; stroke-opacity: 0.7; stroke-width: 0.8"/>
     </g>
     <g id="line2d_8">
      <g>
       <use xlink:href="#m9df9c005a5" x="245.4655" y="398.84" style="stroke: #000000; stroke-width: 0.8"/>
      </g>
     </g>
     <g id="text_4">
      <!-- 300 -->
      <g transform="translate(235.92175 413.438437) scale(0.1 -0.1)">
       <defs>
        <path id="DejaVuSans-33" d="M 2597 2516 
Q 3050 2419 3304 2112 
Q 3559 1806 3559 1356 
Q 3559 666 3084 287 
Q 2609 -91 1734 -91 
Q 1441 -91 1130 -33 
Q 819 25 488 141 
L 488 750 
Q 750 597 1062 519 
Q 1375 441 1716 441 
Q 2309 441 2620 675 
Q 2931 909 2931 1356 
Q 2931 1769 2642 2001 
Q 2353 2234 1838 2234 
L 1294 2234 
L 1294 2753 
L 1863 2753 
Q 2328 2753 2575 2939 
Q 2822 3125 2822 3475 
Q 2822 3834 2567 4026 
Q 2313 4219 1838 4219 
Q 1578 4219 1281 4162 
Q 984 4106 628 3988 
L 628 4550 
Q 988 4650 1302 4700 
Q 1616 4750 1894 4750 
Q 2613 4750 3031 4423 
Q 3450 4097 3450 3541 
Q 3450 3153 3228 2886 
Q 3006 2619 2597 2516 
z
" transform="scale(0.015625)"/>
       </defs>
       <use xlink:href="#DejaVuSans-33"/>
       <use xlink:href="#DejaVuSans-30" transform="translate(63.623047 0)"/>
       <use xlink:href="#DejaVuSans-30" transform="translate(127.246094 0)"/>
      </g>
     </g>
    </g>
    <g id="xtick_5">
     <g id="line2d_9">
      <path d="M 311.164 398.84 
L 311.164 18.08 
" clip-path="url(#pb1a513a5cf)" style="fill: none; stroke-dasharray: 0.8,1.32; stroke-dashoffset: 0; stroke: #b0b0b0; stroke-opacity: 0.7; stroke-width: 0.8"/>
     </g>
     <g id="line2d_10">
      <g>
       <use xlink:href="#m9df9c005a5" x="311.164" y="398.84" style="stroke: #000000; stroke-width: 0.8"/>
      </g>
     </g>
     <g id="text_5">
      <!-- 400 -->
      <g transform="translate(301.62025 413.438437) scale(0.1 -0.1)">
       <defs>
        <path id="DejaVuSans-34" d="M 2419 4116 
L 825 1625 
L 2419 1625 
L 2419 4116 
z
M 2253 4666 
L 3047 4666 
L 3047 1625 
L 3713 1625 
L 3713 1100 
L 3047 1100 
L 3047 0 
L 2419 0 
L 2419 1100 
L 313 1100 
L 313 1709 
L 2253 4666 
z
" transform="scale(0.015625)"/>
       </defs>
       <use xlink:href="#DejaVuSans-34"/>
       <use xlink:href="#DejaVuSans-30" transform="translate(63.623047 0)"/>
       <use xlink:href="#DejaVuSans-30" transform="translate(127.246094 0)"/>
      </g>
     </g>
    </g>
    <g id="xtick_6">
     <g id="line2d_11">
      <path d="M 376.8625 398.84 
L 376.8625 18.08 
" clip-path="url(#pb1a513a5cf)" style="fill: none; stroke-dasharray: 0.8,1.32; stroke-dashoffset: 0; stroke: #b0b0b0; stroke-opacity: 0.7; stroke-width: 0.8"/>
     </g>
     <g id="line2d_12">
      <g>
       <use xlink:href="#m9df9c005a5" x="376.8625" y="398.84" style="stroke: #000000; stroke-width: 0.8"/>
      </g>
     </g>
     <g id="text_6">
      <!-- 500 -->
      <g transform="translate(367.31875 413.438437) scale(0.1 -0.1)">
       <defs>
        <path id="DejaVuSans-35" d="M 691 4666 
L 3169 4666 
L 3169 4134 
L 1269 4134 
L 1269 2991 
Q 1406 3038 1543 3061 
Q 1681 3084 1819 3084 
Q 2600 3084 3056 2656 
Q 3513 2228 3513 1497 
Q 3513 744 3044 326 
Q 2575 -91 1722 -91 
Q 1428 -91 1123 -41 
Q 819 9 494 109 
L 494 744 
Q 775 591 1075 516 
Q 1375 441 1709 441 
Q 2250 441 2565 725 
Q 2881 1009 2881 1497 
Q 2881 1984 2565 2268 
Q 2250 2553 1709 2553 
Q 1456 2553 1204 2497 
Q 953 2441 691 2322 
L 691 4666 
z
" transform="scale(0.015625)"/>
       </defs>
       <use xlink:href="#DejaVuSans-35"/>
       <use xlink:href="#DejaVuSans-30" transform="translate(63.623047 0)"/>
       <use xlink:href="#DejaVuSans-30" transform="translate(127.246094 0)"/>
      </g>
     </g>
    </g>
    <g id="xtick_7">
     <g id="line2d_13">
      <path d="M 442.561 398.84 
L 442.561 18.08 
" clip-path="url(#pb1a513a5cf)" style="fill: none; stroke-dasharray: 0.8,1.32; stroke-dashoffset: 0; stroke: #b0b0b0; stroke-opacity: 0.7; stroke-width: 0.8"/>
     </g>
     <g id="line2d_14">
      <g>
       <use xlink:href="#m9df9c005a5" x="442.561" y="398.84" style="stroke: #000000; stroke-width: 0.8"/>
      </g>
     </g>
     <g id="text_7">
      <!-- 600 -->
      <g transform="translate(433.01725 413.438437) scale(0.1 -0.1)">
       <defs>
        <path id="DejaVuSans-36" d="M 2113 2584 
Q 1688 2584 1439 2293 
Q 1191 2003 1191 1497 
Q 1191 994 1439 701 
Q 1688 409 2113 409 
Q 2538 409 2786 701 
Q 3034 994 3034 1497 
Q 3034 2003 2786 2293 
Q 2538 2584 2113 2584 
z
M 3366 4563 
L 3366 3988 
Q 3128 4100 2886 4159 
Q 2644 4219 2406 4219 
Q 1781 4219 1451 3797 
Q 1122 3375 1075 2522 
Q 1259 2794 1537 2939 
Q 1816 3084 2150 3084 
Q 2853 3084 3261 2657 
Q 3669 2231 3669 1497 
Q 3669 778 3244 343 
Q 2819 -91 2113 -91 
Q 1303 -91 875 529 
Q 447 1150 447 2328 
Q 447 3434 972 4092 
Q 1497 4750 2381 4750 
Q 2619 4750 2861 4703 
Q 3103 4656 3366 4563 
z
" transform="scale(0.015625)"/>
       </defs>
       <use xlink:href="#DejaVuSans-36"/>
       <use xlink:href="#DejaVuSans-30" transform="translate(63.623047 0)"/>
       <use xlink:href="#DejaVuSans-30" transform="translate(127.246094 0)"/>
      </g>
     </g>
    </g>
    <g id="xtick_8">
     <g id="line2d_15">
      <path d="M 508.2595 398.84 
L 508.2595 18.08 
" clip-path="url(#pb1a513a5cf)" style="fill: none; stroke-dasharray: 0.8,1.32; stroke-dashoffset: 0; stroke: #b0b0b0; stroke-opacity: 0.7; stroke-width: 0.8"/>
     </g>
     <g id="line2d_16">
      <g>
       <use xlink:href="#m9df9c005a5" x="508.2595" y="398.84" style="stroke: #000000; stroke-width: 0.8"/>
      </g>
     </g>
     <g id="text_8">
      <!-- 700 -->
      <g transform="translate(498.71575 413.438437) scale(0.1 -0.1)">
       <defs>
        <path id="DejaVuSans-37" d="M 525 4666 
L 3525 4666 
L 3525 4397 
L 1831 0 
L 1172 0 
L 2766 4134 
L 525 4134 
L 525 4666 
z
" transform="scale(0.015625)"/>
       </defs>
       <use xlink:href="#DejaVuSans-37"/>
       <use xlink:href="#DejaVuSans-30" transform="translate(63.623047 0)"/>
       <use xlink:href="#DejaVuSans-30" transform="translate(127.246094 0)"/>
      </g>
     </g>
    </g>
    <g id="xtick_9">
     <g id="line2d_17">
      <path d="M 573.958 398.84 
L 573.958 18.08 
" clip-path="url(#pb1a513a5cf)" style="fill: none; stroke-dasharray: 0.8,1.32; stroke-dashoffset: 0; stroke: #b0b0b0; stroke-opacity: 0.7; stroke-width: 0.8"/>
     </g>
     <g id="line2d_18">
      <g>
       <use xlink:href="#m9df9c005a5" x="573.958" y="398.84" style="stroke: #000000; stroke-width: 0.8"/>
      </g>
     </g>
     <g id="text_9">
      <!-- 800 -->
      <g transform="translate(564.41425 413.438437) scale(0.1 -0.1)">
       <defs>
        <path id="DejaVuSans-38" d="M 2034 2216 
Q 1584 2216 1326 1975 
Q 1069 1734 1069 1313 
Q 1069 891 1326 650 
Q 1584 409 2034 409 
Q 2484 409 2743 651 
Q 3003 894 3003 1313 
Q 3003 1734 2745 1975 
Q 2488 2216 2034 2216 
z
M 1403 2484 
Q 997 2584 770 2862 
Q 544 3141 544 3541 
Q 544 4100 942 4425 
Q 1341 4750 2034 4750 
Q 2731 4750 3128 4425 
Q 3525 4100 3525 3541 
Q 3525 3141 3298 2862 
Q 3072 2584 2669 2484 
Q 3125 2378 3379 2068 
Q 3634 1759 3634 1313 
Q 3634 634 3220 271 
Q 2806 -91 2034 -91 
Q 1263 -91 848 271 
Q 434 634 434 1313 
Q 434 1759 690 2068 
Q 947 2378 1403 2484 
z
M 1172 3481 
Q 1172 3119 1398 2916 
Q 1625 2713 2034 2713 
Q 2441 2713 2670 2916 
Q 2900 3119 2900 3481 
Q 2900 3844 2670 4047 
Q 2441 4250 2034 4250 
Q 1625 4250 1398 4047 
Q 1172 3844 1172 3481 
z
" transform="scale(0.015625)"/>
       </defs>
       <use xlink:href="#DejaVuSans-38"/>
       <use xlink:href="#DejaVuSans-30" transform="translate(63.623047 0)"/>
       <use xlink:href="#DejaVuSans-30" transform="translate(127.246094 0)"/>
      </g>
     </g>
    </g>
    <g id="xtick_10">
     <g id="line2d_19">
      <path d="M 639.6565 398.84 
L 639.6565 18.08 
" clip-path="url(#pb1a513a5cf)" style="fill: none; stroke-dasharray: 0.8,1.32; stroke-dashoffset: 0; stroke: #b0b0b0; stroke-opacity: 0.7; stroke-width: 0.8"/>
     </g>
     <g id="line2d_20">
      <g>
       <use xlink:href="#m9df9c005a5" x="639.6565" y="398.84" style="stroke: #000000; stroke-width: 0.8"/>
      </g>
     </g>
     <g id="text_10">
      <!-- 900 -->
      <g transform="translate(630.11275 413.438437) scale(0.1 -0.1)">
       <defs>
        <path id="DejaVuSans-39" d="M 703 97 
L 703 672 
Q 941 559 1184 500 
Q 1428 441 1663 441 
Q 2288 441 2617 861 
Q 2947 1281 2994 2138 
Q 2813 1869 2534 1725 
Q 2256 1581 1919 1581 
Q 1219 1581 811 2004 
Q 403 2428 403 3163 
Q 403 3881 828 4315 
Q 1253 4750 1959 4750 
Q 2769 4750 3195 4129 
Q 3622 3509 3622 2328 
Q 3622 1225 3098 567 
Q 2575 -91 1691 -91 
Q 1453 -91 1209 -44 
Q 966 3 703 97 
z
M 1959 2075 
Q 2384 2075 2632 2365 
Q 2881 2656 2881 3163 
Q 2881 3666 2632 3958 
Q 2384 4250 1959 4250 
Q 1534 4250 1286 3958 
Q 1038 3666 1038 3163 
Q 1038 2656 1286 2365 
Q 1534 2075 1959 2075 
z
" transform="scale(0.015625)"/>
       </defs>
       <use xlink:href="#DejaVuSans-39"/>
       <use xlink:href="#DejaVuSans-30" transform="translate(63.623047 0)"/>
       <use xlink:href="#DejaVuSans-30" transform="translate(127.246094 0)"/>
      </g>
     </g>
    </g>
    <g id="xtick_11">
     <g id="line2d_21">
      <path d="M 705.355 398.84 
L 705.355 18.08 
" clip-path="url(#pb1a513a5cf)" style="fill: none; stroke-dasharray: 0.8,1.32; stroke-dashoffset: 0; stroke: #b0b0b0; stroke-opacity: 0.7; stroke-width: 0.8"/>
     </g>
     <g id="line2d_22">
      <g>
       <use xlink:href="#m9df9c005a5" x="705.355" y="398.84" style="stroke: #000000; stroke-width: 0.8"/>
      </g>
     </g>
     <g id="text_11">
      <!-- 1000 -->
      <g transform="translate(692.63 413.438437) scale(0.1 -0.1)">
       <use xlink:href="#DejaVuSans-31"/>
       <use xlink:href="#DejaVuSans-30" transform="translate(63.623047 0)"/>
       <use xlink:href="#DejaVuSans-30" transform="translate(127.246094 0)"/>
       <use xlink:href="#DejaVuSans-30" transform="translate(190.869141 0)"/>
      </g>
     </g>
    </g>
    <g id="text_12">
     <!-- Iteration / Generation -->
     <g transform="translate(322.898438 427.116562) scale(0.1 -0.1)">
      <defs>
       <path id="DejaVuSans-49" d="M 628 4666 
L 1259 4666 
L 1259 0 
L 628 0 
L 628 4666 
z
" transform="scale(0.015625)"/>
       <path id="DejaVuSans-74" d="M 1172 4494 
L 1172 3500 
L 2356 3500 
L 2356 3053 
L 1172 3053 
L 1172 1153 
Q 1172 725 1289 603 
Q 1406 481 1766 481 
L 2356 481 
L 2356 0 
L 1766 0 
Q 1100 0 847 248 
Q 594 497 594 1153 
L 594 3053 
L 172 3053 
L 172 3500 
L 594 3500 
L 594 4494 
L 1172 4494 
z
" transform="scale(0.015625)"/>
       <path id="DejaVuSans-65" d="M 3597 1894 
L 3597 1613 
L 953 1613 
Q 991 1019 1311 708 
Q 1631 397 2203 397 
Q 2534 397 2845 478 
Q 3156 559 3463 722 
L 3463 178 
Q 3153 47 2828 -22 
Q 2503 -91 2169 -91 
Q 1331 -91 842 396 
Q 353 884 353 1716 
Q 353 2575 817 3079 
Q 1281 3584 2069 3584 
Q 2775 3584 3186 3129 
Q 3597 2675 3597 1894 
z
M 3022 2063 
Q 3016 2534 2758 2815 
Q 2500 3097 2075 3097 
Q 1594 3097 1305 2825 
Q 1016 2553 972 2059 
L 3022 2063 
z
" transform="scale(0.015625)"/>
       <path id="DejaVuSans-72" d="M 2631 2963 
Q 2534 3019 2420 3045 
Q 2306 3072 2169 3072 
Q 1681 3072 1420 2755 
Q 1159 2438 1159 1844 
L 1159 0 
L 581 0 
L 581 3500 
L 1159 3500 
L 1159 2956 
Q 1341 3275 1631 3429 
Q 1922 3584 2338 3584 
Q 2397 3584 2469 3576 
Q 2541 3569 2628 3553 
L 2631 2963 
z
" transform="scale(0.015625)"/>
       <path id="DejaVuSans-61" d="M 2194 1759 
Q 1497 1759 1228 1600 
Q 959 1441 959 1056 
Q 959 750 1161 570 
Q 1363 391 1709 391 
Q 2188 391 2477 730 
Q 2766 1069 2766 1631 
L 2766 1759 
L 2194 1759 
z
M 3341 1997 
L 3341 0 
L 2766 0 
L 2766 531 
Q 2569 213 2275 61 
Q 1981 -91 1556 -91 
Q 1019 -91 701 211 
Q 384 513 384 1019 
Q 384 1609 779 1909 
Q 1175 2209 1959 2209 
L 2766 2209 
L 2766 2266 
Q 2766 2663 2505 2880 
Q 2244 3097 1772 3097 
Q 1472 3097 1187 3025 
Q 903 2953 641 2809 
L 641 3341 
Q 956 3463 1253 3523 
Q 1550 3584 1831 3584 
Q 2591 3584 2966 3190 
Q 3341 2797 3341 1997 
z
" transform="scale(0.015625)"/>
       <path id="DejaVuSans-69" d="M 603 3500 
L 1178 3500 
L 1178 0 
L 603 0 
L 603 3500 
z
M 603 4863 
L 1178 4863 
L 1178 4134 
L 603 4134 
L 603 4863 
z
" transform="scale(0.015625)"/>
       <path id="DejaVuSans-6f" d="M 1959 3097 
Q 1497 3097 1228 2736 
Q 959 2375 959 1747 
Q 959 1119 1226 758 
Q 1494 397 1959 397 
Q 2419 397 2687 759 
Q 2956 1122 2956 1747 
Q 2956 2369 2687 2733 
Q 2419 3097 1959 3097 
z
M 1959 3584 
Q 2709 3584 3137 3096 
Q 3566 2609 3566 1747 
Q 3566 888 3137 398 
Q 2709 -91 1959 -91 
Q 1206 -91 779 398 
Q 353 888 353 1747 
Q 353 2609 779 3096 
Q 1206 3584 1959 3584 
z
" transform="scale(0.015625)"/>
       <path id="DejaVuSans-6e" d="M 3513 2113 
L 3513 0 
L 2938 0 
L 2938 2094 
Q 2938 2591 2744 2837 
Q 2550 3084 2163 3084 
Q 1697 3084 1428 2787 
Q 1159 2491 1159 1978 
L 1159 0 
L 581 0 
L 581 3500 
L 1159 3500 
L 1159 2956 
Q 1366 3272 1645 3428 
Q 1925 3584 2291 3584 
Q 2894 3584 3203 3211 
Q 3513 2838 3513 2113 
z
" transform="scale(0.015625)"/>
       <path id="DejaVuSans-20" transform="scale(0.015625)"/>
       <path id="DejaVuSans-2f" d="M 1625 4666 
L 2156 4666 
L 531 -594 
L 0 -594 
L 1625 4666 
z
" transform="scale(0.015625)"/>
       <path id="DejaVuSans-47" d="M 3809 666 
L 3809 1919 
L 2778 1919 
L 2778 2438 
L 4434 2438 
L 4434 434 
Q 4069 175 3628 42 
Q 3188 -91 2688 -91 
Q 1594 -91 976 548 
Q 359 1188 359 2328 
Q 359 3472 976 4111 
Q 1594 4750 2688 4750 
Q 3144 4750 3555 4637 
Q 3966 4525 4313 4306 
L 4313 3634 
Q 3963 3931 3569 4081 
Q 3175 4231 2741 4231 
Q 1884 4231 1454 3753 
Q 1025 3275 1025 2328 
Q 1025 1384 1454 906 
Q 1884 428 2741 428 
Q 3075 428 3337 486 
Q 3600 544 3809 666 
z
" transform="scale(0.015625)"/>
      </defs>
      <use xlink:href="#DejaVuSans-49"/>
      <use xlink:href="#DejaVuSans-74" transform="translate(29.492188 0)"/>
      <use xlink:href="#DejaVuSans-65" transform="translate(68.701172 0)"/>
      <use xlink:href="#DejaVuSans-72" transform="translate(130.224609 0)"/>
      <use xlink:href="#DejaVuSans-61" transform="translate(171.337891 0)"/>
      <use xlink:href="#DejaVuSans-74" transform="translate(232.617188 0)"/>
      <use xlink:href="#DejaVuSans-69" transform="translate(271.826172 0)"/>
      <use xlink:href="#DejaVuSans-6f" transform="translate(299.609375 0)"/>
      <use xlink:href="#DejaVuSans-6e" transform="translate(360.791016 0)"/>
      <use xlink:href="#DejaVuSans-20" transform="translate(424.169922 0)"/>
      <use xlink:href="#DejaVuSans-2f" transform="translate(455.957031 0)"/>
      <use xlink:href="#DejaVuSans-20" transform="translate(489.648438 0)"/>
      <use xlink:href="#DejaVuSans-47" transform="translate(521.435547 0)"/>
      <use xlink:href="#DejaVuSans-65" transform="translate(598.925781 0)"/>
      <use xlink:href="#DejaVuSans-6e" transform="translate(660.449219 0)"/>
      <use xlink:href="#DejaVuSans-65" transform="translate(723.828125 0)"/>
      <use xlink:href="#DejaVuSans-72" transform="translate(785.351562 0)"/>
      <use xlink:href="#DejaVuSans-61" transform="translate(826.464844 0)"/>
      <use xlink:href="#DejaVuSans-74" transform="translate(887.744141 0)"/>
      <use xlink:href="#DejaVuSans-69" transform="translate(926.953125 0)"/>
      <use xlink:href="#DejaVuSans-6f" transform="translate(954.736328 0)"/>
      <use xlink:href="#DejaVuSans-6e" transform="translate(1015.917969 0)"/>
     </g>
    </g>
   </g>
   <g id="matplotlib.axis_2">
    <g id="ytick_1">
     <g id="line2d_23">
      <path d="M 48.37 347.246565 
L 705.355 347.246565 
" clip-path="url(#pb1a513a5cf)" style="fill: none; stroke-dasharray: 0.8,1.32; stroke-dashoffset: 0; stroke: #b0b0b0; stroke-opacity: 0.7; stroke-width: 0.8"/>
     </g>
     <g id="line2d_24">
      <defs>
       <path id="m3eeb7e3177" d="M 0 0 
L -3.5 0 
" style="stroke: #000000; stroke-width: 0.8"/>
      </defs>
      <g>
       <use xlink:href="#m3eeb7e3177" x="48.37" y="347.246565" style="stroke: #000000; stroke-width: 0.8"/>
      </g>
     </g>
     <g id="text_13">
      <!-- 1500 -->
      <g transform="translate(15.92 351.045783) scale(0.1 -0.1)">
       <use xlink:href="#DejaVuSans-31"/>
       <use xlink:href="#DejaVuSans-35" transform="translate(63.623047 0)"/>
       <use xlink:href="#DejaVuSans-30" transform="translate(127.246094 0)"/>
       <use xlink:href="#DejaVuSans-30" transform="translate(190.869141 0)"/>
      </g>
     </g>
    </g>
    <g id="ytick_2">
     <g id="line2d_25">
      <path d="M 48.37 274.721297 
L 705.355 274.721297 
" clip-path="url(#pb1a513a5cf)" style="fill: none; stroke-dasharray: 0.8,1.32; stroke-dashoffset: 0; stroke: #b0b0b0; stroke-opacity: 0.7; stroke-width: 0.8"/>
     </g>
     <g id="line2d_26">
      <g>
       <use xlink:href="#m3eeb7e3177" x="48.37" y="274.721297" style="stroke: #000000; stroke-width: 0.8"/>
      </g>
     </g>
     <g id="text_14">
      <!-- 2000 -->
      <g transform="translate(15.92 278.520516) scale(0.1 -0.1)">
       <use xlink:href="#DejaVuSans-32"/>
       <use xlink:href="#DejaVuSans-30" transform="translate(63.623047 0)"/>
       <use xlink:href="#DejaVuSans-30" transform="translate(127.246094 0)"/>
       <use xlink:href="#DejaVuSans-30" transform="translate(190.869141 0)"/>
      </g>
     </g>
    </g>
    <g id="ytick_3">
     <g id="line2d_27">
      <path d="M 48.37 202.196029 
L 705.355 202.196029 
" clip-path="url(#pb1a513a5cf)" style="fill: none; stroke-dasharray: 0.8,1.32; stroke-dashoffset: 0; stroke: #b0b0b0; stroke-opacity: 0.7; stroke-width: 0.8"/>
     </g>
     <g id="line2d_28">
      <g>
       <use xlink:href="#m3eeb7e3177" x="48.37" y="202.196029" style="stroke: #000000; stroke-width: 0.8"/>
      </g>
     </g>
     <g id="text_15">
      <!-- 2500 -->
      <g transform="translate(15.92 205.995248) scale(0.1 -0.1)">
       <use xlink:href="#DejaVuSans-32"/>
       <use xlink:href="#DejaVuSans-35" transform="translate(63.623047 0)"/>
       <use xlink:href="#DejaVuSans-30" transform="translate(127.246094 0)"/>
       <use xlink:href="#DejaVuSans-30" transform="translate(190.869141 0)"/>
      </g>
     </g>
    </g>
    <g id="ytick_4">
     <g id="line2d_29">
      <path d="M 48.37 129.670761 
L 705.355 129.670761 
" clip-path="url(#pb1a513a5cf)" style="fill: none; stroke-dasharray: 0.8,1.32; stroke-dashoffset: 0; stroke: #b0b0b0; stroke-opacity: 0.7; stroke-width: 0.8"/>
     </g>
     <g id="line2d_30">
      <g>
       <use xlink:href="#m3eeb7e3177" x="48.37" y="129.670761" style="stroke: #000000; stroke-width: 0.8"/>
      </g>
     </g>
     <g id="text_16">
      <!-- 3000 -->
      <g transform="translate(15.92 133.46998) scale(0.1 -0.1)">
       <use xlink:href="#DejaVuSans-33"/>
       <use xlink:href="#DejaVuSans-30" transform="translate(63.623047 0)"/>
       <use xlink:href="#DejaVuSans-30" transform="translate(127.246094 0)"/>
       <use xlink:href="#DejaVuSans-30" transform="translate(190.869141 0)"/>
      </g>
     </g>
    </g>
    <g id="ytick_5">
     <g id="line2d_31">
      <path d="M 48.37 57.145493 
L 705.355 57.145493 
" clip-path="url(#pb1a513a5cf)" style="fill: none; stroke-dasharray: 0.8,1.32; stroke-dashoffset: 0; stroke: #b0b0b0; stroke-opacity: 0.7; stroke-width: 0.8"/>
     </g>
     <g id="line2d_32">
      <g>
       <use xlink:href="#m3eeb7e3177" x="48.37" y="57.145493" style="stroke: #000000; stroke-width: 0.8"/>
      </g>
     </g>
     <g id="text_17">
      <!-- 3500 -->
      <g transform="translate(15.92 60.944712) scale(0.1 -0.1)">
       <use xlink:href="#DejaVuSans-33"/>
       <use xlink:href="#DejaVuSans-35" transform="translate(63.623047 0)"/>
       <use xlink:href="#DejaVuSans-30" transform="translate(127.246094 0)"/>
       <use xlink:href="#DejaVuSans-30" transform="translate(190.869141 0)"/>
      </g>
     </g>
    </g>
    <g id="text_18">
     <!-- Objective Value -->
     <g transform="translate(9.840312 247.490469) rotate(-90) scale(0.1 -0.1)">
      <defs>
       <path id="DejaVuSans-4f" d="M 2522 4238 
Q 1834 4238 1429 3725 
Q 1025 3213 1025 2328 
Q 1025 1447 1429 934 
Q 1834 422 2522 422 
Q 3209 422 3611 934 
Q 4013 1447 4013 2328 
Q 4013 3213 3611 3725 
Q 3209 4238 2522 4238 
z
M 2522 4750 
Q 3503 4750 4090 4092 
Q 4678 3434 4678 2328 
Q 4678 1225 4090 567 
Q 3503 -91 2522 -91 
Q 1538 -91 948 565 
Q 359 1222 359 2328 
Q 359 3434 948 4092 
Q 1538 4750 2522 4750 
z
" transform="scale(0.015625)"/>
       <path id="DejaVuSans-62" d="M 3116 1747 
Q 3116 2381 2855 2742 
Q 2594 3103 2138 3103 
Q 1681 3103 1420 2742 
Q 1159 2381 1159 1747 
Q 1159 1113 1420 752 
Q 1681 391 2138 391 
Q 2594 391 2855 752 
Q 3116 1113 3116 1747 
z
M 1159 2969 
Q 1341 3281 1617 3432 
Q 1894 3584 2278 3584 
Q 2916 3584 3314 3078 
Q 3713 2572 3713 1747 
Q 3713 922 3314 415 
Q 2916 -91 2278 -91 
Q 1894 -91 1617 61 
Q 1341 213 1159 525 
L 1159 0 
L 581 0 
L 581 4863 
L 1159 4863 
L 1159 2969 
z
" transform="scale(0.015625)"/>
       <path id="DejaVuSans-6a" d="M 603 3500 
L 1178 3500 
L 1178 -63 
Q 1178 -731 923 -1031 
Q 669 -1331 103 -1331 
L -116 -1331 
L -116 -844 
L 38 -844 
Q 366 -844 484 -692 
Q 603 -541 603 -63 
L 603 3500 
z
M 603 4863 
L 1178 4863 
L 1178 4134 
L 603 4134 
L 603 4863 
z
" transform="scale(0.015625)"/>
       <path id="DejaVuSans-63" d="M 3122 3366 
L 3122 2828 
Q 2878 2963 2633 3030 
Q 2388 3097 2138 3097 
Q 1578 3097 1268 2742 
Q 959 2388 959 1747 
Q 959 1106 1268 751 
Q 1578 397 2138 397 
Q 2388 397 2633 464 
Q 2878 531 3122 666 
L 3122 134 
Q 2881 22 2623 -34 
Q 2366 -91 2075 -91 
Q 1284 -91 818 406 
Q 353 903 353 1747 
Q 353 2603 823 3093 
Q 1294 3584 2113 3584 
Q 2378 3584 2631 3529 
Q 2884 3475 3122 3366 
z
" transform="scale(0.015625)"/>
       <path id="DejaVuSans-76" d="M 191 3500 
L 800 3500 
L 1894 563 
L 2988 3500 
L 3597 3500 
L 2284 0 
L 1503 0 
L 191 3500 
z
" transform="scale(0.015625)"/>
       <path id="DejaVuSans-56" d="M 1831 0 
L 50 4666 
L 709 4666 
L 2188 738 
L 3669 4666 
L 4325 4666 
L 2547 0 
L 1831 0 
z
" transform="scale(0.015625)"/>
       <path id="DejaVuSans-6c" d="M 603 4863 
L 1178 4863 
L 1178 0 
L 603 0 
L 603 4863 
z
" transform="scale(0.015625)"/>
       <path id="DejaVuSans-75" d="M 544 1381 
L 544 3500 
L 1119 3500 
L 1119 1403 
Q 1119 906 1312 657 
Q 1506 409 1894 409 
Q 2359 409 2629 706 
Q 2900 1003 2900 1516 
L 2900 3500 
L 3475 3500 
L 3475 0 
L 2900 0 
L 2900 538 
Q 2691 219 2414 64 
Q 2138 -91 1772 -91 
Q 1169 -91 856 284 
Q 544 659 544 1381 
z
M 1991 3584 
L 1991 3584 
z
" transform="scale(0.015625)"/>
      </defs>
      <use xlink:href="#DejaVuSans-4f"/>
      <use xlink:href="#DejaVuSans-62" transform="translate(78.710938 0)"/>
      <use xlink:href="#DejaVuSans-6a" transform="translate(142.1875 0)"/>
      <use xlink:href="#DejaVuSans-65" transform="translate(169.970703 0)"/>
      <use xlink:href="#DejaVuSans-63" transform="translate(231.494141 0)"/>
      <use xlink:href="#DejaVuSans-74" transform="translate(286.474609 0)"/>
      <use xlink:href="#DejaVuSans-69" transform="translate(325.683594 0)"/>
      <use xlink:href="#DejaVuSans-76" transform="translate(353.466797 0)"/>
      <use xlink:href="#DejaVuSans-65" transform="translate(412.646484 0)"/>
      <use xlink:href="#DejaVuSans-20" transform="translate(474.169922 0)"/>
      <use xlink:href="#DejaVuSans-56" transform="translate(505.957031 0)"/>
      <use xlink:href="#DejaVuSans-61" transform="translate(566.615234 0)"/>
      <use xlink:href="#DejaVuSans-6c" transform="translate(627.894531 0)"/>
      <use xlink:href="#DejaVuSans-75" transform="translate(655.677734 0)"/>
      <use xlink:href="#DejaVuSans-65" transform="translate(719.056641 0)"/>
     </g>
    </g>
   </g>
   <g id="line2d_33">
    <path d="M 48.37 304.51129 
L 134.435035 304.51129 
L 134.435035 307.05194 
L 209.331325 307.05194 
L 209.331325 312.260322 
L 236.924695 312.260322 
L 236.924695 342.794519 
L 251.378365 342.794519 
L 251.378365 362.809846 
L 504.974575 362.809846 
L 504.974575 366.099943 
L 646.22635 366.099943 
L 646.22635 367.11 
L 704.698015 367.11 
L 704.698015 367.11 
" clip-path="url(#pb1a513a5cf)" style="fill: none; stroke: #1f77b4; stroke-width: 1.5; stroke-linecap: square"/>
   </g>
   <g id="line2d_34">
    <path d="M 48.37 116.276961 
L 49.026985 73.514775 
L 49.68397 92.508542 
L 50.340955 49.81 
L 50.99794 83.245127 
L 51.654925 52.787313 
L 52.31191 64.87379 
L 52.968895 91.830386 
L 53.62588 98.434536 
L 54.282865 84.793899 
L 54.93985 74.982395 
L 55.596835 95.060697 
L 56.25382 103.922397 
L 56.910805 102.195603 
L 57.56779 86.824564 
L 58.224775 105.348315 
L 58.88176 108.83755 
L 59.538745 65.244553 
L 60.19573 92.19427 
L 60.852715 105.261742 
L 61.5097 81.599688 
L 62.166685 82.759929 
L 62.82367 93.539921 
L 63.480655 97.60596 
L 64.13764 86.166617 
L 64.794625 64.453856 
L 65.45161 79.028491 
L 66.108595 89.397027 
L 66.76558 91.480999 
L 67.422565 77.138301 
L 68.736535 95.744982 
L 69.39352 94.698563 
L 70.050505 112.739744 
L 70.70749 112.227614 
L 71.364475 90.317879 
L 72.02146 117.628949 
L 72.678445 89.448885 
L 73.33543 97.193816 
L 73.992415 89.405979 
L 74.6494 87.11886 
L 75.306385 102.094837 
L 75.96337 91.205435 
L 76.620355 105.534136 
L 77.27734 88.664776 
L 77.934325 105.564858 
L 78.59131 69.970767 
L 79.248295 86.555975 
L 79.90528 110.31922 
L 80.562265 108.51066 
L 81.21925 120.299001 
L 81.876235 101.48398 
L 82.53322 72.50961 
L 83.190205 94.441345 
L 83.84719 75.817479 
L 85.16116 98.226421 
L 85.818145 97.821037 
L 86.47513 104.071232 
L 87.132115 107.724545 
L 87.7891 86.954158 
L 88.446085 99.144672 
L 89.10307 107.440867 
L 89.760055 99.226534 
L 90.41704 117.115128 
L 91.074025 77.934859 
L 91.73101 102.544689 
L 92.387995 117.973392 
L 93.04498 73.849206 
L 93.701965 106.49093 
L 94.35895 109.951396 
L 95.015935 94.287101 
L 95.67292 85.537731 
L 96.329905 123.490577 
L 96.98689 93.400777 
L 97.643875 118.14489 
L 98.30086 98.509404 
L 98.957845 102.36254 
L 99.61483 90.832732 
L 100.271815 122.837758 
L 101.585785 108.915389 
L 102.24277 107.008837 
L 102.899755 95.587819 
L 103.55674 114.205739 
L 104.213725 73.194274 
L 104.87071 91.798356 
L 105.527695 103.810979 
L 106.18468 73.723399 
L 107.49865 119.011798 
L 108.155635 118.726852 
L 108.81262 108.40155 
L 109.469605 85.860043 
L 110.12659 126.900726 
L 110.783575 104.329407 
L 111.44056 88.17116 
L 112.097545 111.030974 
L 112.75453 99.761303 
L 113.411515 123.062915 
L 114.0685 112.42287 
L 114.725485 81.232215 
L 115.38247 122.01082 
L 116.039455 86.484749 
L 116.69644 115.39111 
L 117.353425 124.904147 
L 118.01041 123.978607 
L 118.667395 116.224067 
L 119.32438 103.477713 
L 119.981365 123.425987 
L 120.63835 113.939761 
L 121.295335 98.929763 
L 121.95232 93.544682 
L 122.609305 97.996631 
L 123.26629 115.217262 
L 124.58026 106.227807 
L 125.237245 124.257731 
L 125.89423 110.007672 
L 126.551215 117.441901 
L 127.2082 113.591145 
L 127.865185 105.587416 
L 128.52217 108.688772 
L 129.179155 103.749798 
L 129.83614 104.284038 
L 130.493125 90.783862 
L 131.15011 93.228774 
L 131.807095 102.180854 
L 132.46408 90.371868 
L 133.121065 94.988447 
L 133.77805 118.329778 
L 134.435035 98.668928 
L 135.09202 151.290415 
L 135.749005 109.714 
L 137.062975 122.798736 
L 137.71996 94.254116 
L 138.376945 115.94849 
L 139.03393 86.797669 
L 139.690915 91.334705 
L 140.3479 103.625283 
L 141.004885 131.197818 
L 141.66187 122.672427 
L 142.318855 105.038946 
L 142.97584 105.286598 
L 143.632825 90.669642 
L 144.28981 122.909278 
L 144.946795 130.305171 
L 145.60378 96.826303 
L 146.260765 95.927861 
L 146.91775 98.767014 
L 147.574735 97.911561 
L 148.23172 105.062129 
L 148.888705 100.789157 
L 149.54569 130.949213 
L 150.202675 114.542423 
L 150.85966 103.691831 
L 151.516645 132.612646 
L 152.17363 118.666442 
L 152.830615 114.017796 
L 153.4876 122.827348 
L 154.144585 94.315355 
L 154.80157 108.475736 
L 155.458555 117.389531 
L 156.11554 122.911944 
L 156.772525 144.680566 
L 157.42951 125.818434 
L 158.086495 116.305842 
L 158.74348 114.20223 
L 159.400465 104.542979 
L 160.05745 112.910842 
L 160.714435 96.969241 
L 161.37142 99.805381 
L 162.028405 104.653719 
L 162.68539 118.925108 
L 163.342375 141.324868 
L 164.656345 101.130704 
L 165.31333 104.794235 
L 165.970315 85.923268 
L 167.284285 122.592362 
L 167.94127 120.767677 
L 168.598255 105.605121 
L 169.25524 93.776279 
L 169.912225 103.505315 
L 170.56921 117.534384 
L 171.226195 104.90295 
L 171.88318 94.417517 
L 172.540165 106.273405 
L 173.854135 92.382791 
L 175.168105 120.831 
L 175.82509 123.350101 
L 176.482075 120.800255 
L 177.13906 103.875229 
L 177.796045 116.833176 
L 178.45303 106.451514 
L 179.110015 101.077742 
L 179.767 94.409233 
L 180.423985 95.670808 
L 181.08097 117.324292 
L 181.737955 128.634269 
L 182.39494 127.258123 
L 183.051925 141.128352 
L 183.70891 105.617549 
L 184.365895 110.915841 
L 185.02288 97.433578 
L 185.679865 110.39467 
L 186.33685 104.101936 
L 186.993835 112.196155 
L 187.65082 111.028743 
L 188.307805 70.868963 
L 188.96479 85.436578 
L 189.621775 145.90731 
L 190.27876 111.990093 
L 190.935745 86.196014 
L 191.59273 127.848308 
L 192.249715 103.880999 
L 192.9067 120.277467 
L 193.563685 124.97102 
L 194.22067 119.654133 
L 194.877655 106.841813 
L 196.191625 120.182666 
L 196.84861 105.225367 
L 197.505595 92.967408 
L 198.16258 107.429546 
L 198.819565 107.260659 
L 199.47655 132.377029 
L 200.133535 119.449986 
L 200.79052 124.99923 
L 201.447505 114.066232 
L 202.10449 94.79274 
L 202.761475 114.320148 
L 203.41846 121.786865 
L 204.075445 102.159482 
L 204.73243 128.750281 
L 205.389415 106.848707 
L 206.0464 140.308989 
L 207.36037 113.788945 
L 208.017355 115.899316 
L 208.67434 116.955882 
L 209.331325 116.999209 
L 209.98831 117.336011 
L 210.645295 103.437089 
L 211.30228 122.241865 
L 211.959265 100.63617 
L 212.61625 124.289264 
L 213.273235 122.099688 
L 213.93022 118.560904 
L 214.587205 111.157456 
L 215.24419 107.675006 
L 215.901175 123.170606 
L 216.55816 99.689406 
L 217.215145 102.978983 
L 217.87213 104.588183 
L 218.529115 96.884671 
L 219.1861 100.599135 
L 220.50007 136.350241 
L 221.157055 99.657891 
L 221.81404 137.433862 
L 222.471025 129.7215 
L 223.12801 111.140503 
L 223.784995 116.733179 
L 224.44198 115.687167 
L 225.098965 113.890676 
L 225.75595 137.768319 
L 226.412935 131.775994 
L 227.06992 148.591505 
L 227.726905 113.86763 
L 228.38389 99.496731 
L 229.040875 97.395249 
L 229.69786 99.588519 
L 230.354845 136.39294 
L 231.01183 123.225447 
L 231.668815 114.086849 
L 232.3258 120.563057 
L 232.982785 142.930408 
L 233.63977 146.050735 
L 234.296755 134.1928 
L 234.95374 107.214821 
L 235.610725 121.366434 
L 236.924695 169.04818 
L 237.58168 146.580122 
L 238.238665 140.781585 
L 238.89565 117.163999 
L 239.552635 120.451877 
L 240.20962 138.58249 
L 240.866605 133.40665 
L 241.52359 141.807749 
L 242.180575 126.662569 
L 242.83756 127.865384 
L 243.494545 123.687769 
L 244.15153 140.803956 
L 244.808515 127.987445 
L 245.4655 106.61687 
L 246.122485 145.208053 
L 246.77947 114.667946 
L 247.436455 112.659274 
L 248.09344 122.449757 
L 248.750425 119.299916 
L 249.40741 124.596248 
L 250.064395 122.134672 
L 250.72138 113.219061 
L 252.03535 147.062243 
L 252.692335 147.718904 
L 253.34932 128.486159 
L 254.006305 133.333199 
L 254.66329 118.829229 
L 255.320275 130.001927 
L 255.97726 133.967551 
L 256.634245 128.442454 
L 257.29123 138.871207 
L 257.948215 142.943003 
L 258.6052 142.244653 
L 259.262185 119.560342 
L 259.91917 116.654836 
L 260.576155 129.084295 
L 261.23314 152.190279 
L 261.890125 143.152426 
L 262.54711 148.01742 
L 263.204095 162.412696 
L 263.86108 129.737729 
L 264.518065 150.853684 
L 265.17505 153.372874 
L 265.832035 146.270646 
L 267.146005 170.009309 
L 267.80299 156.441015 
L 268.459975 151.178489 
L 269.11696 132.924265 
L 269.773945 150.940529 
L 270.43093 145.617007 
L 271.087915 146.814234 
L 271.7449 164.181006 
L 272.401885 156.634339 
L 273.05887 174.252321 
L 273.715855 150.903634 
L 274.37284 117.123647 
L 275.029825 127.616995 
L 275.68681 134.269009 
L 276.343795 132.991284 
L 277.00078 160.976895 
L 277.657765 147.97791 
L 278.31475 171.042994 
L 278.971735 147.559989 
L 279.62872 140.777389 
L 280.285705 104.585195 
L 280.94269 153.960208 
L 281.599675 140.448277 
L 282.25666 141.604274 
L 282.913645 144.747896 
L 283.57063 163.777469 
L 284.227615 158.166741 
L 284.8846 139.377622 
L 285.541585 154.633978 
L 286.19857 161.356858 
L 286.855555 170.040331 
L 287.51254 120.734656 
L 288.169525 151.234975 
L 288.82651 137.598443 
L 289.483495 147.832622 
L 290.14048 154.356421 
L 290.797465 143.015067 
L 291.45445 180.99508 
L 292.111435 152.5424 
L 292.76842 175.169397 
L 294.08239 142.36928 
L 294.739375 159.691647 
L 295.39636 158.89716 
L 296.053345 152.756926 
L 296.71033 162.430749 
L 297.367315 144.998971 
L 298.0243 152.355974 
L 298.681285 157.874337 
L 299.33827 153.751892 
L 299.995255 126.755131 
L 300.65224 138.231702 
L 301.309225 104.688288 
L 301.96621 158.618904 
L 302.623195 142.584258 
L 303.28018 136.881927 
L 303.937165 164.209989 
L 304.59415 154.344153 
L 305.251135 161.311806 
L 305.90812 134.082846 
L 306.565105 173.861872 
L 307.22209 197.442146 
L 307.879075 170.121064 
L 308.53606 156.792736 
L 309.193045 151.657631 
L 309.85003 160.223912 
L 310.507015 148.868466 
L 311.164 161.994086 
L 311.820985 167.998533 
L 312.47797 155.657337 
L 313.134955 150.810794 
L 313.79194 151.608033 
L 314.448925 166.601182 
L 315.10591 174.481455 
L 315.762895 161.329947 
L 316.41988 154.614728 
L 317.076865 128.138339 
L 317.73385 153.237487 
L 318.390835 168.343964 
L 319.04782 159.738023 
L 319.704805 165.01678 
L 320.36179 154.301225 
L 321.018775 155.96192 
L 321.67576 176.454183 
L 322.332745 157.946405 
L 322.98973 154.602193 
L 323.646715 187.554004 
L 324.3037 161.436196 
L 324.960685 141.299733 
L 325.61767 158.546632 
L 326.274655 161.148196 
L 326.93164 188.995612 
L 327.588625 174.295857 
L 328.24561 169.69985 
L 329.55958 140.291459 
L 330.216565 173.364096 
L 330.87355 152.650812 
L 331.530535 171.743582 
L 332.18752 171.589294 
L 332.844505 139.757926 
L 333.50149 166.185299 
L 334.158475 157.440331 
L 334.81546 153.999636 
L 335.472445 142.7025 
L 336.12943 165.726009 
L 336.786415 174.073406 
L 337.4434 158.085409 
L 338.100385 159.078825 
L 338.75737 151.420504 
L 339.414355 172.115685 
L 340.07134 166.84044 
L 340.728325 171.92691 
L 342.042295 144.803858 
L 342.69928 173.688069 
L 343.356265 168.776088 
L 344.01325 182.582967 
L 344.670235 173.666425 
L 345.32722 153.097217 
L 345.984205 152.45021 
L 346.64119 178.431937 
L 347.298175 160.350689 
L 347.95516 145.681866 
L 348.612145 176.747687 
L 349.26913 155.984388 
L 349.926115 160.819369 
L 350.5831 159.085336 
L 351.240085 164.552626 
L 351.89707 150.130429 
L 352.554055 166.168558 
L 353.21104 159.96632 
L 353.868025 155.3015 
L 354.52501 151.909118 
L 355.181995 138.919773 
L 356.495965 159.636293 
L 357.15295 155.926873 
L 358.46692 169.873965 
L 359.123905 140.385218 
L 359.78089 149.856108 
L 360.437875 164.956036 
L 361.09486 171.91492 
L 361.751845 165.356413 
L 362.40883 161.332931 
L 363.065815 141.941863 
L 363.7228 157.549441 
L 364.379785 166.78857 
L 365.03677 163.040862 
L 365.693755 150.243231 
L 366.35074 153.491441 
L 367.007725 175.301234 
L 367.66471 164.600668 
L 368.321695 160.641132 
L 368.97868 159.124824 
L 369.635665 165.518781 
L 370.29265 159.601174 
L 370.949635 136.197564 
L 371.60662 147.541344 
L 372.263605 147.353319 
L 372.92059 151.706179 
L 373.577575 166.511023 
L 374.23456 143.178393 
L 374.891545 176.985634 
L 375.54853 157.650021 
L 376.205515 171.196381 
L 376.8625 154.814199 
L 377.519485 185.667063 
L 378.17647 164.830132 
L 378.833455 154.675616 
L 379.49044 140.722639 
L 380.147425 163.602789 
L 380.80441 160.276778 
L 381.461395 169.54233 
L 382.11838 144.701819 
L 382.775365 152.86528 
L 383.43235 170.223602 
L 384.089335 156.670118 
L 384.74632 174.375398 
L 385.403305 140.729634 
L 386.06029 145.017707 
L 386.717275 153.361983 
L 387.37426 149.256041 
L 388.031245 162.382145 
L 388.68823 139.772158 
L 389.345215 158.478422 
L 390.0022 135.585462 
L 390.659185 157.375065 
L 391.31617 141.712151 
L 391.973155 162.465421 
L 392.63014 162.144069 
L 393.287125 147.399698 
L 393.94411 140.100884 
L 394.601095 160.456213 
L 395.25808 136.602887 
L 395.915065 179.477837 
L 396.57205 172.776947 
L 397.229035 179.952322 
L 398.543005 154.127271 
L 399.19999 156.38041 
L 399.856975 169.184209 
L 400.51396 168.959854 
L 401.170945 144.661619 
L 401.82793 158.317684 
L 402.484915 143.594019 
L 403.1419 150.588537 
L 403.798885 185.96495 
L 404.45587 162.38318 
L 405.112855 164.946574 
L 405.76984 153.070957 
L 406.426825 186.300218 
L 407.08381 137.728372 
L 407.740795 139.941229 
L 408.39778 140.082133 
L 409.054765 147.348186 
L 409.71175 158.723699 
L 410.368735 177.461363 
L 411.02572 151.679041 
L 411.682705 161.321532 
L 412.33969 180.443715 
L 412.996675 154.468142 
L 413.65366 152.110603 
L 414.310645 161.078775 
L 414.96763 188.750074 
L 415.624615 161.199864 
L 416.2816 172.519535 
L 416.938585 144.567184 
L 417.59557 174.15554 
L 418.252555 168.06603 
L 418.90954 182.145069 
L 419.566525 165.673612 
L 420.22351 175.646968 
L 420.880495 175.003421 
L 421.53748 166.884529 
L 422.194465 180.624031 
L 422.85145 172.089389 
L 423.508435 146.27281 
L 424.16542 179.426272 
L 424.822405 165.941571 
L 425.47939 164.638067 
L 426.136375 168.088674 
L 426.79336 157.609353 
L 427.450345 171.446137 
L 428.10733 172.816165 
L 428.764315 180.772142 
L 429.4213 168.898102 
L 430.078285 186.791842 
L 430.73527 160.412377 
L 431.392255 150.812247 
L 432.04924 136.862567 
L 432.706225 144.471162 
L 433.36321 161.490027 
L 434.67718 182.25071 
L 435.334165 163.079672 
L 435.99115 176.058157 
L 436.648135 136.450852 
L 437.30512 142.532327 
L 437.962105 165.799191 
L 438.61909 173.787758 
L 439.276075 156.102507 
L 439.93306 157.126608 
L 440.590045 164.979729 
L 441.24703 164.703262 
L 441.904015 161.084297 
L 442.561 178.983462 
L 443.217985 163.764544 
L 443.87497 153.344903 
L 444.531955 181.653248 
L 445.18894 184.688545 
L 445.845925 175.300146 
L 446.50291 167.820292 
L 447.159895 151.102564 
L 447.81688 160.21395 
L 448.473865 187.193552 
L 449.13085 176.054795 
L 450.44482 201.344117 
L 451.101805 173.154572 
L 451.75879 160.888799 
L 453.07276 167.683318 
L 453.729745 166.866423 
L 454.38673 167.899752 
L 455.043715 154.207529 
L 455.7007 155.059104 
L 456.357685 173.326941 
L 457.01467 161.844212 
L 457.671655 176.081577 
L 458.32864 173.062033 
L 458.985625 153.606783 
L 459.64261 177.752444 
L 460.299595 155.003489 
L 460.95658 145.849582 
L 461.613565 166.523543 
L 462.27055 149.923771 
L 462.927535 152.928523 
L 463.58452 167.518687 
L 464.241505 148.105584 
L 464.89849 179.03764 
L 465.555475 177.411918 
L 466.21246 173.473579 
L 466.869445 155.894863 
L 468.183415 147.540624 
L 468.8404 169.374067 
L 469.497385 141.464032 
L 470.15437 163.831777 
L 470.811355 179.131387 
L 471.46834 146.057047 
L 472.125325 152.616157 
L 472.78231 153.567186 
L 473.439295 158.56102 
L 474.09628 167.977374 
L 474.753265 159.79725 
L 475.41025 154.626792 
L 476.067235 154.59756 
L 476.72422 159.45461 
L 477.381205 156.526064 
L 478.03819 166.88021 
L 478.695175 158.201403 
L 479.35216 176.753263 
L 480.009145 145.147197 
L 481.323115 169.395781 
L 481.9801 155.585054 
L 482.637085 158.585178 
L 483.29407 160.939361 
L 483.951055 165.747134 
L 484.60804 195.059742 
L 485.265025 184.966419 
L 485.92201 166.709666 
L 486.578995 152.588554 
L 487.23598 150.573705 
L 487.892965 149.266292 
L 488.54995 183.986696 
L 489.206935 166.867492 
L 489.86392 156.337054 
L 490.520905 167.316295 
L 491.17789 141.298192 
L 491.834875 153.467674 
L 492.49186 176.439398 
L 493.148845 130.347424 
L 493.80583 163.687446 
L 494.462815 164.612463 
L 495.1198 165.335338 
L 495.776785 179.837222 
L 496.43377 175.82634 
L 497.090755 169.453074 
L 497.74774 178.917308 
L 498.404725 166.545004 
L 499.06171 183.853367 
L 499.718695 151.837074 
L 500.37568 139.319687 
L 501.032665 181.008926 
L 501.68965 156.672865 
L 502.346635 166.896292 
L 503.00362 146.625933 
L 503.660605 177.350111 
L 504.31759 163.355592 
L 504.974575 166.745111 
L 505.63156 175.578547 
L 506.288545 166.873895 
L 506.94553 166.316702 
L 507.602515 175.783807 
L 508.2595 166.138238 
L 508.916485 173.996978 
L 509.57347 170.809461 
L 510.230455 171.82161 
L 510.88744 177.016868 
L 511.544425 156.827272 
L 512.20141 151.055013 
L 512.858395 174.952821 
L 514.172365 170.151384 
L 514.82935 171.937074 
L 515.486335 155.118031 
L 516.14332 155.380647 
L 516.800305 176.986613 
L 517.45729 166.436286 
L 518.77126 151.601415 
L 519.428245 146.087969 
L 520.08523 178.574664 
L 520.742215 174.386646 
L 521.3992 163.3394 
L 522.056185 156.508366 
L 522.71317 154.785637 
L 523.370155 182.809449 
L 524.02714 174.076499 
L 524.684125 187.62244 
L 525.34111 178.668122 
L 525.998095 176.508508 
L 526.65508 164.974672 
L 527.312065 179.886776 
L 528.626035 166.624355 
L 529.28302 185.331603 
L 529.940005 165.726996 
L 530.59699 172.213492 
L 531.253975 175.285375 
L 531.91096 165.903656 
L 532.567945 150.149977 
L 533.22493 175.546446 
L 533.881915 145.863318 
L 534.5389 155.043902 
L 535.195885 173.276096 
L 535.85287 158.8495 
L 536.509855 156.030595 
L 537.16684 168.813834 
L 537.823825 162.851332 
L 538.48081 144.092218 
L 539.137795 153.556041 
L 539.79478 153.349842 
L 540.451765 162.139381 
L 541.10875 150.722418 
L 542.42272 156.204812 
L 543.079705 178.511508 
L 543.73669 165.213656 
L 544.393675 143.122268 
L 545.05066 173.578851 
L 545.707645 161.330672 
L 546.36463 170.721196 
L 547.021615 158.259429 
L 547.6786 181.163505 
L 548.335585 176.393284 
L 548.99257 170.433094 
L 549.649555 179.319155 
L 550.30654 160.940172 
L 550.963525 155.5176 
L 551.62051 160.938981 
L 552.277495 165.151013 
L 552.93448 154.168207 
L 553.591465 169.692357 
L 554.24845 182.422106 
L 554.905435 169.575068 
L 555.56242 162.248696 
L 556.219405 168.322819 
L 556.87639 165.277781 
L 557.533375 173.239649 
L 558.19036 156.314435 
L 558.847345 172.349269 
L 559.50433 173.610401 
L 560.161315 172.265444 
L 560.8183 176.773521 
L 561.475285 172.49653 
L 562.13227 175.854081 
L 562.789255 173.806143 
L 563.44624 168.794096 
L 564.103225 178.076304 
L 564.76021 170.142093 
L 565.417195 195.3969 
L 566.07418 167.386195 
L 566.731165 165.395728 
L 567.38815 140.819787 
L 568.045135 145.927455 
L 568.70212 155.26986 
L 569.359105 169.889273 
L 570.01609 176.605913 
L 570.673075 168.809213 
L 571.33006 156.680669 
L 571.987045 156.493321 
L 572.64403 166.2347 
L 573.301015 182.451778 
L 573.958 158.897282 
L 574.614985 162.361455 
L 575.27197 176.373606 
L 575.928955 152.38548 
L 576.58594 186.459917 
L 577.242925 169.449588 
L 577.89991 191.493078 
L 578.556895 172.889465 
L 579.21388 179.904152 
L 579.870865 183.464259 
L 580.52785 159.082243 
L 581.184835 183.042223 
L 581.84182 165.886137 
L 582.498805 180.410211 
L 583.15579 161.659291 
L 583.812775 188.609163 
L 584.46976 180.76218 
L 585.126745 168.204674 
L 585.78373 188.472457 
L 586.440715 195.215352 
L 587.754685 168.31425 
L 588.41167 163.009236 
L 589.068655 160.578024 
L 589.72564 176.06318 
L 590.382625 181.706527 
L 591.03961 160.359343 
L 591.696595 172.723104 
L 592.35358 160.698485 
L 593.010565 182.933345 
L 593.66755 159.098347 
L 594.324535 170.494456 
L 594.98152 184.301451 
L 595.638505 207.054638 
L 596.29549 188.572911 
L 596.952475 177.997465 
L 597.60946 164.364389 
L 598.92343 169.165901 
L 599.580415 179.824186 
L 600.2374 173.977988 
L 600.894385 178.78958 
L 601.55137 167.760969 
L 602.208355 160.146869 
L 602.86534 175.740623 
L 603.522325 185.105713 
L 604.17931 172.414583 
L 604.836295 167.064349 
L 605.49328 183.314557 
L 606.150265 178.774276 
L 606.80725 180.839326 
L 607.464235 154.785917 
L 608.12122 164.760968 
L 608.778205 150.839781 
L 609.43519 168.265816 
L 610.092175 181.759218 
L 610.74916 182.35526 
L 611.406145 196.967821 
L 612.06313 176.42375 
L 612.720115 170.24594 
L 613.3771 180.869041 
L 614.034085 173.878551 
L 614.69107 181.509993 
L 615.348055 180.85823 
L 616.00504 179.110056 
L 616.662025 182.798455 
L 617.31901 175.187855 
L 617.975995 173.569557 
L 618.63298 153.257343 
L 619.289965 187.37372 
L 619.94695 205.72206 
L 620.603935 170.863728 
L 621.917905 184.240189 
L 622.57489 162.849309 
L 623.231875 172.495004 
L 623.88886 165.469759 
L 624.545845 170.931447 
L 625.20283 171.462864 
L 625.859815 184.925387 
L 626.5168 180.515036 
L 627.173785 171.996564 
L 627.83077 181.137511 
L 628.487755 193.809917 
L 629.14474 210.946532 
L 629.801725 187.05555 
L 630.45871 180.669553 
L 631.115695 190.451628 
L 631.77268 184.877101 
L 632.429665 176.939007 
L 633.08665 173.779085 
L 633.743635 196.425872 
L 634.40062 192.088463 
L 635.057605 176.562564 
L 635.71459 166.536686 
L 636.371575 180.089292 
L 637.02856 175.659562 
L 637.685545 173.814601 
L 638.34253 170.905683 
L 638.999515 168.535224 
L 639.6565 166.840557 
L 640.313485 164.533505 
L 640.97047 165.176895 
L 641.627455 183.278641 
L 642.28444 170.208398 
L 642.941425 184.639715 
L 643.59841 167.368402 
L 644.255395 186.445785 
L 644.91238 166.995429 
L 645.569365 155.959824 
L 646.22635 179.130676 
L 646.883335 144.546318 
L 647.54032 151.262537 
L 648.197305 178.52216 
L 649.511275 185.977616 
L 650.16826 176.3734 
L 650.825245 186.268045 
L 651.48223 189.891707 
L 652.139215 196.285001 
L 652.7962 182.193931 
L 653.453185 185.385955 
L 654.11017 160.635783 
L 655.42414 180.427363 
L 656.081125 180.146988 
L 656.73811 190.529307 
L 657.395095 168.482743 
L 658.05208 177.712712 
L 658.709065 195.165278 
L 659.36605 163.562186 
L 660.68002 194.064498 
L 661.337005 170.012926 
L 661.99399 183.201972 
L 662.650975 172.302466 
L 663.30796 149.434883 
L 663.964945 175.916025 
L 664.62193 193.197163 
L 665.278915 181.502389 
L 665.9359 159.215354 
L 666.592885 177.620141 
L 667.906855 183.280964 
L 668.56384 167.515069 
L 669.220825 183.050345 
L 669.87781 183.8134 
L 670.534795 157.754157 
L 671.19178 170.057967 
L 671.848765 176.165282 
L 672.50575 188.60844 
L 673.162735 166.058333 
L 674.476705 179.761603 
L 675.13369 174.995557 
L 675.790675 168.604934 
L 676.44766 168.817167 
L 677.76163 156.209746 
L 678.418615 167.576787 
L 679.0756 189.257006 
L 679.732585 150.275952 
L 680.38957 159.112333 
L 681.046555 189.946734 
L 681.70354 172.595672 
L 682.360525 159.58785 
L 683.01751 155.585042 
L 683.674495 180.896274 
L 684.33148 171.590383 
L 684.988465 154.746723 
L 685.64545 128.634112 
L 686.302435 175.824532 
L 686.95942 161.462779 
L 687.616405 176.589734 
L 688.27339 194.443106 
L 688.930375 176.910881 
L 689.58736 165.38068 
L 690.244345 172.03849 
L 690.90133 150.713253 
L 692.2153 165.165168 
L 692.872285 158.933749 
L 693.52927 172.950691 
L 694.186255 179.299982 
L 694.84324 168.838209 
L 695.500225 162.842394 
L 696.15721 180.681962 
L 696.814195 173.917833 
L 697.47118 188.298792 
L 698.128165 175.672847 
L 698.78515 188.391178 
L 699.442135 175.431376 
L 700.09912 196.93716 
L 700.756105 169.220171 
L 701.41309 194.968845 
L 702.070075 172.089809 
L 702.72706 186.229893 
L 703.384045 188.517733 
L 704.04103 182.139176 
L 704.698015 198.295096 
L 704.698015 198.295096 
" clip-path="url(#pb1a513a5cf)" style="fill: none; stroke-dasharray: 5.55,2.4; stroke-dashoffset: 0; stroke: #ff7f0e; stroke-width: 1.5"/>
   </g>
   <g id="patch_3">
    <path d="M 48.37 398.84 
L 48.37 18.08 
" style="fill: none; stroke: #000000; stroke-width: 0.8; stroke-linejoin: miter; stroke-linecap: square"/>
   </g>
   <g id="patch_4">
    <path d="M 705.355 398.84 
L 705.355 18.08 
" style="fill: none; stroke: #000000; stroke-width: 0.8; stroke-linejoin: miter; stroke-linecap: square"/>
   </g>
   <g id="patch_5">
    <path d="M 48.37 398.84 
L 705.355 398.84 
" style="fill: none; stroke: #000000; stroke-width: 0.8; stroke-linejoin: miter; stroke-linecap: square"/>
   </g>
   <g id="patch_6">
    <path d="M 48.37 18.08 
L 705.355 18.08 
" style="fill: none; stroke: #000000; stroke-width: 0.8; stroke-linejoin: miter; stroke-linecap: square"/>
   </g>
   <g id="text_19">
    <!-- dPSO Evolution (Simulation #3) -->
    <g transform="translate(281.720313 12.08) scale(0.12 -0.12)">
     <defs>
      <path id="DejaVuSans-64" d="M 2906 2969 
L 2906 4863 
L 3481 4863 
L 3481 0 
L 2906 0 
L 2906 525 
Q 2725 213 2448 61 
Q 2172 -91 1784 -91 
Q 1150 -91 751 415 
Q 353 922 353 1747 
Q 353 2572 751 3078 
Q 1150 3584 1784 3584 
Q 2172 3584 2448 3432 
Q 2725 3281 2906 2969 
z
M 947 1747 
Q 947 1113 1208 752 
Q 1469 391 1925 391 
Q 2381 391 2643 752 
Q 2906 1113 2906 1747 
Q 2906 2381 2643 2742 
Q 2381 3103 1925 3103 
Q 1469 3103 1208 2742 
Q 947 2381 947 1747 
z
" transform="scale(0.015625)"/>
      <path id="DejaVuSans-50" d="M 1259 4147 
L 1259 2394 
L 2053 2394 
Q 2494 2394 2734 2622 
Q 2975 2850 2975 3272 
Q 2975 3691 2734 3919 
Q 2494 4147 2053 4147 
L 1259 4147 
z
M 628 4666 
L 2053 4666 
Q 2838 4666 3239 4311 
Q 3641 3956 3641 3272 
Q 3641 2581 3239 2228 
Q 2838 1875 2053 1875 
L 1259 1875 
L 1259 0 
L 628 0 
L 628 4666 
z
" transform="scale(0.015625)"/>
      <path id="DejaVuSans-53" d="M 3425 4513 
L 3425 3897 
Q 3066 4069 2747 4153 
Q 2428 4238 2131 4238 
Q 1616 4238 1336 4038 
Q 1056 3838 1056 3469 
Q 1056 3159 1242 3001 
Q 1428 2844 1947 2747 
L 2328 2669 
Q 3034 2534 3370 2195 
Q 3706 1856 3706 1288 
Q 3706 609 3251 259 
Q 2797 -91 1919 -91 
Q 1588 -91 1214 -16 
Q 841 59 441 206 
L 441 856 
Q 825 641 1194 531 
Q 1563 422 1919 422 
Q 2459 422 2753 634 
Q 3047 847 3047 1241 
Q 3047 1584 2836 1778 
Q 2625 1972 2144 2069 
L 1759 2144 
Q 1053 2284 737 2584 
Q 422 2884 422 3419 
Q 422 4038 858 4394 
Q 1294 4750 2059 4750 
Q 2388 4750 2728 4690 
Q 3069 4631 3425 4513 
z
" transform="scale(0.015625)"/>
      <path id="DejaVuSans-45" d="M 628 4666 
L 3578 4666 
L 3578 4134 
L 1259 4134 
L 1259 2753 
L 3481 2753 
L 3481 2222 
L 1259 2222 
L 1259 531 
L 3634 531 
L 3634 0 
L 628 0 
L 628 4666 
z
" transform="scale(0.015625)"/>
      <path id="DejaVuSans-28" d="M 1984 4856 
Q 1566 4138 1362 3434 
Q 1159 2731 1159 2009 
Q 1159 1288 1364 580 
Q 1569 -128 1984 -844 
L 1484 -844 
Q 1016 -109 783 600 
Q 550 1309 550 2009 
Q 550 2706 781 3412 
Q 1013 4119 1484 4856 
L 1984 4856 
z
" transform="scale(0.015625)"/>
      <path id="DejaVuSans-6d" d="M 3328 2828 
Q 3544 3216 3844 3400 
Q 4144 3584 4550 3584 
Q 5097 3584 5394 3201 
Q 5691 2819 5691 2113 
L 5691 0 
L 5113 0 
L 5113 2094 
Q 5113 2597 4934 2840 
Q 4756 3084 4391 3084 
Q 3944 3084 3684 2787 
Q 3425 2491 3425 1978 
L 3425 0 
L 2847 0 
L 2847 2094 
Q 2847 2600 2669 2842 
Q 2491 3084 2119 3084 
Q 1678 3084 1418 2786 
Q 1159 2488 1159 1978 
L 1159 0 
L 581 0 
L 581 3500 
L 1159 3500 
L 1159 2956 
Q 1356 3278 1631 3431 
Q 1906 3584 2284 3584 
Q 2666 3584 2933 3390 
Q 3200 3197 3328 2828 
z
" transform="scale(0.015625)"/>
      <path id="DejaVuSans-23" d="M 3272 2816 
L 2363 2816 
L 2100 1772 
L 3016 1772 
L 3272 2816 
z
M 2803 4594 
L 2478 3297 
L 3391 3297 
L 3719 4594 
L 4219 4594 
L 3897 3297 
L 4872 3297 
L 4872 2816 
L 3775 2816 
L 3519 1772 
L 4513 1772 
L 4513 1294 
L 3397 1294 
L 3072 0 
L 2572 0 
L 2894 1294 
L 1978 1294 
L 1656 0 
L 1153 0 
L 1478 1294 
L 494 1294 
L 494 1772 
L 1594 1772 
L 1856 2816 
L 850 2816 
L 850 3297 
L 1978 3297 
L 2297 4594 
L 2803 4594 
z
" transform="scale(0.015625)"/>
      <path id="DejaVuSans-29" d="M 513 4856 
L 1013 4856 
Q 1481 4119 1714 3412 
Q 1947 2706 1947 2009 
Q 1947 1309 1714 600 
Q 1481 -109 1013 -844 
L 513 -844 
Q 928 -128 1133 580 
Q 1338 1288 1338 2009 
Q 1338 2731 1133 3434 
Q 928 4138 513 4856 
z
" transform="scale(0.015625)"/>
     </defs>
     <use xlink:href="#DejaVuSans-64"/>
     <use xlink:href="#DejaVuSans-50" transform="translate(63.476562 0)"/>
     <use xlink:href="#DejaVuSans-53" transform="translate(123.779297 0)"/>
     <use xlink:href="#DejaVuSans-4f" transform="translate(187.255859 0)"/>
     <use xlink:href="#DejaVuSans-20" transform="translate(265.966797 0)"/>
     <use xlink:href="#DejaVuSans-45" transform="translate(297.753906 0)"/>
     <use xlink:href="#DejaVuSans-76" transform="translate(360.9375 0)"/>
     <use xlink:href="#DejaVuSans-6f" transform="translate(420.117188 0)"/>
     <use xlink:href="#DejaVuSans-6c" transform="translate(481.298828 0)"/>
     <use xlink:href="#DejaVuSans-75" transform="translate(509.082031 0)"/>
     <use xlink:href="#DejaVuSans-74" transform="translate(572.460938 0)"/>
     <use xlink:href="#DejaVuSans-69" transform="translate(611.669922 0)"/>
     <use xlink:href="#DejaVuSans-6f" transform="translate(639.453125 0)"/>
     <use xlink:href="#DejaVuSans-6e" transform="translate(700.634766 0)"/>
     <use xlink:href="#DejaVuSans-20" transform="translate(764.013672 0)"/>
     <use xlink:href="#DejaVuSans-28" transform="translate(795.800781 0)"/>
     <use xlink:href="#DejaVuSans-53" transform="translate(834.814453 0)"/>
     <use xlink:href="#DejaVuSans-69" transform="translate(898.291016 0)"/>
     <use xlink:href="#DejaVuSans-6d" transform="translate(926.074219 0)"/>
     <use xlink:href="#DejaVuSans-75" transform="translate(1023.486328 0)"/>
     <use xlink:href="#DejaVuSans-6c" transform="translate(1086.865234 0)"/>
     <use xlink:href="#DejaVuSans-61" transform="translate(1114.648438 0)"/>
     <use xlink:href="#DejaVuSans-74" transform="translate(1175.927734 0)"/>
     <use xlink:href="#DejaVuSans-69" transform="translate(1215.136719 0)"/>
     <use xlink:href="#DejaVuSans-6f" transform="translate(1242.919922 0)"/>
     <use xlink:href="#DejaVuSans-6e" transform="translate(1304.101562 0)"/>
     <use xlink:href="#DejaVuSans-20" transform="translate(1367.480469 0)"/>
     <use xlink:href="#DejaVuSans-23" transform="translate(1399.267578 0)"/>
     <use xlink:href="#DejaVuSans-33" transform="translate(1483.056641 0)"/>
     <use xlink:href="#DejaVuSans-29" transform="translate(1546.679688 0)"/>
    </g>
   </g>
   <g id="legend_1">
    <g id="patch_7">
     <path d="M 549.897187 55.43625 
L 698.355 55.43625 
Q 700.355 55.43625 700.355 53.43625 
L 700.355 25.08 
Q 700.355 23.08 698.355 23.08 
L 549.897187 23.08 
Q 547.897187 23.08 547.897187 25.08 
L 547.897187 53.43625 
Q 547.897187 55.43625 549.897187 55.43625 
z
" style="fill: #ffffff; opacity: 0.8; stroke: #cccccc; stroke-linejoin: miter"/>
    </g>
    <g id="line2d_35">
     <path d="M 551.897187 31.178437 
L 561.897187 31.178437 
L 561.897187 31.178437 
L 571.897187 31.178437 
L 571.897187 31.178437 
" style="fill: none; stroke: #1f77b4; stroke-width: 1.5; stroke-linecap: square"/>
    </g>
    <g id="text_20">
     <!-- Best Fitness (dPSO) -->
     <g transform="translate(579.897187 34.678437) scale(0.1 -0.1)">
      <defs>
       <path id="DejaVuSans-42" d="M 1259 2228 
L 1259 519 
L 2272 519 
Q 2781 519 3026 730 
Q 3272 941 3272 1375 
Q 3272 1813 3026 2020 
Q 2781 2228 2272 2228 
L 1259 2228 
z
M 1259 4147 
L 1259 2741 
L 2194 2741 
Q 2656 2741 2882 2914 
Q 3109 3088 3109 3444 
Q 3109 3797 2882 3972 
Q 2656 4147 2194 4147 
L 1259 4147 
z
M 628 4666 
L 2241 4666 
Q 2963 4666 3353 4366 
Q 3744 4066 3744 3513 
Q 3744 3084 3544 2831 
Q 3344 2578 2956 2516 
Q 3422 2416 3680 2098 
Q 3938 1781 3938 1306 
Q 3938 681 3513 340 
Q 3088 0 2303 0 
L 628 0 
L 628 4666 
z
" transform="scale(0.015625)"/>
       <path id="DejaVuSans-73" d="M 2834 3397 
L 2834 2853 
Q 2591 2978 2328 3040 
Q 2066 3103 1784 3103 
Q 1356 3103 1142 2972 
Q 928 2841 928 2578 
Q 928 2378 1081 2264 
Q 1234 2150 1697 2047 
L 1894 2003 
Q 2506 1872 2764 1633 
Q 3022 1394 3022 966 
Q 3022 478 2636 193 
Q 2250 -91 1575 -91 
Q 1294 -91 989 -36 
Q 684 19 347 128 
L 347 722 
Q 666 556 975 473 
Q 1284 391 1588 391 
Q 1994 391 2212 530 
Q 2431 669 2431 922 
Q 2431 1156 2273 1281 
Q 2116 1406 1581 1522 
L 1381 1569 
Q 847 1681 609 1914 
Q 372 2147 372 2553 
Q 372 3047 722 3315 
Q 1072 3584 1716 3584 
Q 2034 3584 2315 3537 
Q 2597 3491 2834 3397 
z
" transform="scale(0.015625)"/>
       <path id="DejaVuSans-46" d="M 628 4666 
L 3309 4666 
L 3309 4134 
L 1259 4134 
L 1259 2759 
L 3109 2759 
L 3109 2228 
L 1259 2228 
L 1259 0 
L 628 0 
L 628 4666 
z
" transform="scale(0.015625)"/>
      </defs>
      <use xlink:href="#DejaVuSans-42"/>
      <use xlink:href="#DejaVuSans-65" transform="translate(68.603516 0)"/>
      <use xlink:href="#DejaVuSans-73" transform="translate(130.126953 0)"/>
      <use xlink:href="#DejaVuSans-74" transform="translate(182.226562 0)"/>
      <use xlink:href="#DejaVuSans-20" transform="translate(221.435547 0)"/>
      <use xlink:href="#DejaVuSans-46" transform="translate(253.222656 0)"/>
      <use xlink:href="#DejaVuSans-69" transform="translate(303.492188 0)"/>
      <use xlink:href="#DejaVuSans-74" transform="translate(331.275391 0)"/>
      <use xlink:href="#DejaVuSans-6e" transform="translate(370.484375 0)"/>
      <use xlink:href="#DejaVuSans-65" transform="translate(433.863281 0)"/>
      <use xlink:href="#DejaVuSans-73" transform="translate(495.386719 0)"/>
      <use xlink:href="#DejaVuSans-73" transform="translate(547.486328 0)"/>
      <use xlink:href="#DejaVuSans-20" transform="translate(599.585938 0)"/>
      <use xlink:href="#DejaVuSans-28" transform="translate(631.373047 0)"/>
      <use xlink:href="#DejaVuSans-64" transform="translate(670.386719 0)"/>
      <use xlink:href="#DejaVuSans-50" transform="translate(733.863281 0)"/>
      <use xlink:href="#DejaVuSans-53" transform="translate(794.166016 0)"/>
      <use xlink:href="#DejaVuSans-4f" transform="translate(857.642578 0)"/>
      <use xlink:href="#DejaVuSans-29" transform="translate(936.353516 0)"/>
     </g>
    </g>
    <g id="line2d_36">
     <path d="M 551.897187 45.856562 
L 561.897187 45.856562 
L 571.897187 45.856562 
" style="fill: none; stroke-dasharray: 5.55,2.4; stroke-dashoffset: 0; stroke: #ff7f0e; stroke-width: 1.5"/>
    </g>
    <g id="text_21">
     <!-- Average Fitness (dPSO) -->
     <g transform="translate(579.897187 49.356562) scale(0.1 -0.1)">
      <defs>
       <path id="DejaVuSans-41" d="M 2188 4044 
L 1331 1722 
L 3047 1722 
L 2188 4044 
z
M 1831 4666 
L 2547 4666 
L 4325 0 
L 3669 0 
L 3244 1197 
L 1141 1197 
L 716 0 
L 50 0 
L 1831 4666 
z
" transform="scale(0.015625)"/>
       <path id="DejaVuSans-67" d="M 2906 1791 
Q 2906 2416 2648 2759 
Q 2391 3103 1925 3103 
Q 1463 3103 1205 2759 
Q 947 2416 947 1791 
Q 947 1169 1205 825 
Q 1463 481 1925 481 
Q 2391 481 2648 825 
Q 2906 1169 2906 1791 
z
M 3481 434 
Q 3481 -459 3084 -895 
Q 2688 -1331 1869 -1331 
Q 1566 -1331 1297 -1286 
Q 1028 -1241 775 -1147 
L 775 -588 
Q 1028 -725 1275 -790 
Q 1522 -856 1778 -856 
Q 2344 -856 2625 -561 
Q 2906 -266 2906 331 
L 2906 616 
Q 2728 306 2450 153 
Q 2172 0 1784 0 
Q 1141 0 747 490 
Q 353 981 353 1791 
Q 353 2603 747 3093 
Q 1141 3584 1784 3584 
Q 2172 3584 2450 3431 
Q 2728 3278 2906 2969 
L 2906 3500 
L 3481 3500 
L 3481 434 
z
" transform="scale(0.015625)"/>
      </defs>
      <use xlink:href="#DejaVuSans-41"/>
      <use xlink:href="#DejaVuSans-76" transform="translate(62.533203 0)"/>
      <use xlink:href="#DejaVuSans-65" transform="translate(121.712891 0)"/>
      <use xlink:href="#DejaVuSans-72" transform="translate(183.236328 0)"/>
      <use xlink:href="#DejaVuSans-61" transform="translate(224.349609 0)"/>
      <use xlink:href="#DejaVuSans-67" transform="translate(285.628906 0)"/>
      <use xlink:href="#DejaVuSans-65" transform="translate(349.105469 0)"/>
      <use xlink:href="#DejaVuSans-20" transform="translate(410.628906 0)"/>
      <use xlink:href="#DejaVuSans-46" transform="translate(442.416016 0)"/>
      <use xlink:href="#DejaVuSans-69" transform="translate(492.685547 0)"/>
      <use xlink:href="#DejaVuSans-74" transform="translate(520.46875 0)"/>
      <use xlink:href="#DejaVuSans-6e" transform="translate(559.677734 0)"/>
      <use xlink:href="#DejaVuSans-65" transform="translate(623.056641 0)"/>
      <use xlink:href="#DejaVuSans-73" transform="translate(684.580078 0)"/>
      <use xlink:href="#DejaVuSans-73" transform="translate(736.679688 0)"/>
      <use xlink:href="#DejaVuSans-20" transform="translate(788.779297 0)"/>
      <use xlink:href="#DejaVuSans-28" transform="translate(820.566406 0)"/>
      <use xlink:href="#DejaVuSans-64" transform="translate(859.580078 0)"/>
      <use xlink:href="#DejaVuSans-50" transform="translate(923.056641 0)"/>
      <use xlink:href="#DejaVuSans-53" transform="translate(983.359375 0)"/>
      <use xlink:href="#DejaVuSans-4f" transform="translate(1046.835938 0)"/>
      <use xlink:href="#DejaVuSans-29" transform="translate(1125.546875 0)"/>
     </g>
    </g>
   </g>
  </g>
 </g>
 <defs>
  <clipPath id="pb1a513a5cf">
   <rect x="48.37" y="18.08" width="656.985" height="380.76"/>
  </clipPath>
 </defs>
</svg>
