<?xml version="1.0" encoding="utf-8" standalone="no"?>
<!DOCTYPE svg PUBLIC "-//W3C//DTD SVG 1.1//EN"
  "http://www.w3.org/Graphics/SVG/1.1/DTD/svg11.dtd">
<svg xmlns:xlink="http://www.w3.org/1999/xlink" width="720pt" height="432pt" viewBox="0 0 720 432" xmlns="http://www.w3.org/2000/svg" version="1.1">
 <metadata>
  <rdf:RDF xmlns:dc="http://purl.org/dc/elements/1.1/" xmlns:cc="http://creativecommons.org/ns#" xmlns:rdf="http://www.w3.org/1999/02/22-rdf-syntax-ns#">
   <cc:Work>
    <dc:type rdf:resource="http://purl.org/dc/dcmitype/StillImage"/>
    <dc:date>2026-07-15T13:49:50.407093</dc:date>
    <dc:format>image/svg+xml</dc:format>
    <dc:creator>
     <cc:Agent>
      <dc:title>Matplotlib v3.10.9, https://matplotlib.org/</dc:title>
     </cc:Agent>
    </dc:creator>
   </cc:Work>
  </rdf:RDF>
 </metadata>
 <defs>
  <style type="text/css">*{stroke-linejoin: round; stroke-linecap: butt}</style>
 </defs>
 <g id="figure_1">
  <g id="patch_1">
   <path d="M 0 432 
L 720 432 
L 720 0 
L 0 0 
z
" style="fill: #ffffff"/>
  </g>
  <g id="axes_1">
   <g id="patch_2">
    <path d="M 48.46 398.84 
L 705.355 398.84 
L 705.355 18.08 
L 48.46 18.08 
z
" style="fill: #ffffff"/>
   </g>
   <g id="matplotlib.axis_1">
    <g id="xtick_1">
     <g id="line2d_1">
      <path d="M 48.46 398.84 
L 48.46 18.08 
" clip-path="url(#p3e5cbfcd69)" style="fill: none; stroke-dasharray: 0.8,1.32; stroke-dashoffset: 0; stroke: #b0b0b0; stroke-opacity: 0.7; stroke-width: 0.8"/>
     </g>
     <g id="line2d_2">
      <defs>
       <path id="m1d24192541" d="M 0 0 
L 0 3.5 
" style="stroke: #000000; stroke-width: 0.8"/>
      </defs>
      <g>
       <use xlink:href="#m1d24192541" x="48.46" y="398.84" style="stroke: #000000; stroke-width: 0.8"/>
      </g>
     </g>
     <g id="text_1">
      <!-- 0 -->
      <g transform="translate(45.27875 413.438437) scale(0.1 -0.1)">
       <defs>
        <path id="DejaVuSans-30" d="M 2034 4250 
Q 1547 4250 1301 3770 
Q 1056 3291 1056 2328 
Q 1056 1369 1301 889 
Q 1547 409 2034 409 
Q 2525 409 2770 889 
Q 3016 1369 3016 2328 
Q 3016 3291 2770 3770 
Q 2525 4250 2034 4250 
z
M 2034 4750 
Q 2819 4750 3233 4129 
Q 3647 3509 3647 2328 
Q 3647 1150 3233 529 
Q 2819 -91 2034 -91 
Q 1250 -91 836 529 
Q 422 1150 422 2328 
Q 422 3509 836 4129 
Q 1250 4750 2034 4750 
z
" transform="scale(0.015625)"/>
       </defs>
       <use xlink:href="#DejaVuSans-30"/>
      </g>
     </g>
    </g>
    <g id="xtick_2">
     <g id="line2d_3">
      <path d="M 114.1495 398.84 
L 114.1495 18.08 
" clip-path="url(#p3e5cbfcd69)" style="fill: none; stroke-dasharray: 0.8,1.32; stroke-dashoffset: 0; stroke: #b0b0b0; stroke-opacity: 0.7; stroke-width: 0.8"/>
     </g>
     <g id="line2d_4">
      <g>
       <use xlink:href="#m1d24192541" x="114.1495" y="398.84" style="stroke: #000000; stroke-width: 0.8"/>
      </g>
     </g>
     <g id="text_2">
      <!-- 100 -->
      <g transform="translate(104.60575 413.438437) scale(0.1 -0.1)">
       <defs>
        <path id="DejaVuSans-31" d="M 794 531 
L 1825 531 
L 1825 4091 
L 703 3866 
L 703 4441 
L 1819 4666 
L 2450 4666 
L 2450 531 
L 3481 531 
L 3481 0 
L 794 0 
L 794 531 
z
" transform="scale(0.015625)"/>
       </defs>
       <use xlink:href="#DejaVuSans-31"/>
       <use xlink:href="#DejaVuSans-30" transform="translate(63.623047 0)"/>
       <use xlink:href="#DejaVuSans-30" transform="translate(127.246094 0)"/>
      </g>
     </g>
    </g>
    <g id="xtick_3">
     <g id="line2d_5">
      <path d="M 179.839 398.84 
L 179.839 18.08 
" clip-path="url(#p3e5cbfcd69)" style="fill: none; stroke-dasharray: 0.8,1.32; stroke-dashoffset: 0; stroke: #b0b0b0; stroke-opacity: 0.7; stroke-width: 0.8"/>
     </g>
     <g id="line2d_6">
      <g>
       <use xlink:href="#m1d24192541" x="179.839" y="398.84" style="stroke: #000000; stroke-width: 0.8"/>
      </g>
     </g>
     <g id="text_3">
      <!-- 200 -->
      <g transform="translate(170.29525 413.438437) scale(0.1 -0.1)">
       <defs>
        <path id="DejaVuSans-32" d="M 1228 531 
L 3431 531 
L 3431 0 
L 469 0 
L 469 531 
Q 828 903 1448 1529 
Q 2069 2156 2228 2338 
Q 2531 2678 2651 2914 
Q 2772 3150 2772 3378 
Q 2772 3750 2511 3984 
Q 2250 4219 1831 4219 
Q 1534 4219 1204 4116 
Q 875 4013 500 3803 
L 500 4441 
Q 881 4594 1212 4672 
Q 1544 4750 1819 4750 
Q 2544 4750 2975 4387 
Q 3406 4025 3406 3419 
Q 3406 3131 3298 2873 
Q 3191 2616 2906 2266 
Q 2828 2175 2409 1742 
Q 1991 1309 1228 531 
z
" transform="scale(0.015625)"/>
       </defs>
       <use xlink:href="#DejaVuSans-32"/>
       <use xlink:href="#DejaVuSans-30" transform="translate(63.623047 0)"/>
       <use xlink:href="#DejaVuSans-30" transform="translate(127.246094 0)"/>
      </g>
     </g>
    </g>
    <g id="xtick_4">
     <g id="line2d_7">
      <path d="M 245.5285 398.84 
L 245.5285 18.08 
" clip-path="url(#p3e5cbfcd69)" style="fill: none; stroke-dasharray: 0.8,1.32; stroke-dashoffset: 0; stroke: #b0b0b0; stroke-opacity: 0.7; stroke-width: 0.8"/>
     </g>
     <g id="line2d_8">
      <g>
       <use xlink:href="#m1d24192541" x="245.5285" y="398.84" style="stroke: #000000; stroke-width: 0.8"/>
      </g>
     </g>
     <g id="text_4">
      <!-- 300 -->
      <g transform="translate(235.98475 413.438437) scale(0.1 -0.1)">
       <defs>
        <path id="DejaVuSans-33" d="M 2597 2516 
Q 3050 2419 3304 2112 
Q 3559 1806 3559 1356 
Q 3559 666 3084 287 
Q 2609 -91 1734 -91 
Q 1441 -91 1130 -33 
Q 819 25 488 141 
L 488 750 
Q 750 597 1062 519 
Q 1375 441 1716 441 
Q 2309 441 2620 675 
Q 2931 909 2931 1356 
Q 2931 1769 2642 2001 
Q 2353 2234 1838 2234 
L 1294 2234 
L 1294 2753 
L 1863 2753 
Q 2328 2753 2575 2939 
Q 2822 3125 2822 3475 
Q 2822 3834 2567 4026 
Q 2313 4219 1838 4219 
Q 1578 4219 1281 4162 
Q 984 4106 628 3988 
L 628 4550 
Q 988 4650 1302 4700 
Q 1616 4750 1894 4750 
Q 2613 4750 3031 4423 
Q 3450 4097 3450 3541 
Q 3450 3153 3228 2886 
Q 3006 2619 2597 2516 
z
" transform="scale(0.015625)"/>
       </defs>
       <use xlink:href="#DejaVuSans-33"/>
       <use xlink:href="#DejaVuSans-30" transform="translate(63.623047 0)"/>
       <use xlink:href="#DejaVuSans-30" transform="translate(127.246094 0)"/>
      </g>
     </g>
    </g>
    <g id="xtick_5">
     <g id="line2d_9">
      <path d="M 311.218 398.84 
L 311.218 18.08 
" clip-path="url(#p3e5cbfcd69)" style="fill: none; stroke-dasharray: 0.8,1.32; stroke-dashoffset: 0; stroke: #b0b0b0; stroke-opacity: 0.7; stroke-width: 0.8"/>
     </g>
     <g id="line2d_10">
      <g>
       <use xlink:href="#m1d24192541" x="311.218" y="398.84" style="stroke: #000000; stroke-width: 0.8"/>
      </g>
     </g>
     <g id="text_5">
      <!-- 400 -->
      <g transform="translate(301.67425 413.438437) scale(0.1 -0.1)">
       <defs>
        <path id="DejaVuSans-34" d="M 2419 4116 
L 825 1625 
L 2419 1625 
L 2419 4116 
z
M 2253 4666 
L 3047 4666 
L 3047 1625 
L 3713 1625 
L 3713 1100 
L 3047 1100 
L 3047 0 
L 2419 0 
L 2419 1100 
L 313 1100 
L 313 1709 
L 2253 4666 
z
" transform="scale(0.015625)"/>
       </defs>
       <use xlink:href="#DejaVuSans-34"/>
       <use xlink:href="#DejaVuSans-30" transform="translate(63.623047 0)"/>
       <use xlink:href="#DejaVuSans-30" transform="translate(127.246094 0)"/>
      </g>
     </g>
    </g>
    <g id="xtick_6">
     <g id="line2d_11">
      <path d="M 376.9075 398.84 
L 376.9075 18.08 
" clip-path="url(#p3e5cbfcd69)" style="fill: none; stroke-dasharray: 0.8,1.32; stroke-dashoffset: 0; stroke: #b0b0b0; stroke-opacity: 0.7; stroke-width: 0.8"/>
     </g>
     <g id="line2d_12">
      <g>
       <use xlink:href="#m1d24192541" x="376.9075" y="398.84" style="stroke: #000000; stroke-width: 0.8"/>
      </g>
     </g>
     <g id="text_6">
      <!-- 500 -->
      <g transform="translate(367.36375 413.438437) scale(0.1 -0.1)">
       <defs>
        <path id="DejaVuSans-35" d="M 691 4666 
L 3169 4666 
L 3169 4134 
L 1269 4134 
L 1269 2991 
Q 1406 3038 1543 3061 
Q 1681 3084 1819 3084 
Q 2600 3084 3056 2656 
Q 3513 2228 3513 1497 
Q 3513 744 3044 326 
Q 2575 -91 1722 -91 
Q 1428 -91 1123 -41 
Q 819 9 494 109 
L 494 744 
Q 775 591 1075 516 
Q 1375 441 1709 441 
Q 2250 441 2565 725 
Q 2881 1009 2881 1497 
Q 2881 1984 2565 2268 
Q 2250 2553 1709 2553 
Q 1456 2553 1204 2497 
Q 953 2441 691 2322 
L 691 4666 
z
" transform="scale(0.015625)"/>
       </defs>
       <use xlink:href="#DejaVuSans-35"/>
       <use xlink:href="#DejaVuSans-30" transform="translate(63.623047 0)"/>
       <use xlink:href="#DejaVuSans-30" transform="translate(127.246094 0)"/>
      </g>
     </g>
    </g>
    <g id="xtick_7">
     <g id="line2d_13">
      <path d="M 442.597 398.84 
L 442.597 18.08 
" clip-path="url(#p3e5cbfcd69)" style="fill: none; stroke-dasharray: 0.8,1.32; stroke-dashoffset: 0; stroke: #b0b0b0; stroke-opacity: 0.7; stroke-width: 0.8"/>
     </g>
     <g id="line2d_14">
      <g>
       <use xlink:href="#m1d24192541" x="442.597" y="398.84" style="stroke: #000000; stroke-width: 0.8"/>
      </g>
     </g>
     <g id="text_7">
      <!-- 600 -->
      <g transform="translate(433.05325 413.438437) scale(0.1 -0.1)">
       <defs>
        <path id="DejaVuSans-36" d="M 2113 2584 
Q 1688 2584 1439 2293 
Q 1191 2003 1191 1497 
Q 1191 994 1439 701 
Q 1688 409 2113 409 
Q 2538 409 2786 701 
Q 3034 994 3034 1497 
Q 3034 2003 2786 2293 
Q 2538 2584 2113 2584 
z
M 3366 4563 
L 3366 3988 
Q 3128 4100 2886 4159 
Q 2644 4219 2406 4219 
Q 1781 4219 1451 3797 
Q 1122 3375 1075 2522 
Q 1259 2794 1537 2939 
Q 1816 3084 2150 3084 
Q 2853 3084 3261 2657 
Q 3669 2231 3669 1497 
Q 3669 778 3244 343 
Q 2819 -91 2113 -91 
Q 1303 -91 875 529 
Q 447 1150 447 2328 
Q 447 3434 972 4092 
Q 1497 4750 2381 4750 
Q 2619 4750 2861 4703 
Q 3103 4656 3366 4563 
z
" transform="scale(0.015625)"/>
       </defs>
       <use xlink:href="#DejaVuSans-36"/>
       <use xlink:href="#DejaVuSans-30" transform="translate(63.623047 0)"/>
       <use xlink:href="#DejaVuSans-30" transform="translate(127.246094 0)"/>
      </g>
     </g>
    </g>
    <g id="xtick_8">
     <g id="line2d_15">
      <path d="M 508.2865 398.84 
L 508.2865 18.08 
" clip-path="url(#p3e5cbfcd69)" style="fill: none; stroke-dasharray: 0.8,1.32; stroke-dashoffset: 0; stroke: #b0b0b0; stroke-opacity: 0.7; stroke-width: 0.8"/>
     </g>
     <g id="line2d_16">
      <g>
       <use xlink:href="#m1d24192541" x="508.2865" y="398.84" style="stroke: #000000; stroke-width: 0.8"/>
      </g>
     </g>
     <g id="text_8">
      <!-- 700 -->
      <g transform="translate(498.74275 413.438437) scale(0.1 -0.1)">
       <defs>
        <path id="DejaVuSans-37" d="M 525 4666 
L 3525 4666 
L 3525 4397 
L 1831 0 
L 1172 0 
L 2766 4134 
L 525 4134 
L 525 4666 
z
" transform="scale(0.015625)"/>
       </defs>
       <use xlink:href="#DejaVuSans-37"/>
       <use xlink:href="#DejaVuSans-30" transform="translate(63.623047 0)"/>
       <use xlink:href="#DejaVuSans-30" transform="translate(127.246094 0)"/>
      </g>
     </g>
    </g>
    <g id="xtick_9">
     <g id="line2d_17">
      <path d="M 573.976 398.84 
L 573.976 18.08 
" clip-path="url(#p3e5cbfcd69)" style="fill: none; stroke-dasharray: 0.8,1.32; stroke-dashoffset: 0; stroke: #b0b0b0; stroke-opacity: 0.7; stroke-width: 0.8"/>
     </g>
     <g id="line2d_18">
      <g>
       <use xlink:href="#m1d24192541" x="573.976" y="398.84" style="stroke: #000000; stroke-width: 0.8"/>
      </g>
     </g>
     <g id="text_9">
      <!-- 800 -->
      <g transform="translate(564.43225 413.438437) scale(0.1 -0.1)">
       <defs>
        <path id="DejaVuSans-38" d="M 2034 2216 
Q 1584 2216 1326 1975 
Q 1069 1734 1069 1313 
Q 1069 891 1326 650 
Q 1584 409 2034 409 
Q 2484 409 2743 651 
Q 3003 894 3003 1313 
Q 3003 1734 2745 1975 
Q 2488 2216 2034 2216 
z
M 1403 2484 
Q 997 2584 770 2862 
Q 544 3141 544 3541 
Q 544 4100 942 4425 
Q 1341 4750 2034 4750 
Q 2731 4750 3128 4425 
Q 3525 4100 3525 3541 
Q 3525 3141 3298 2862 
Q 3072 2584 2669 2484 
Q 3125 2378 3379 2068 
Q 3634 1759 3634 1313 
Q 3634 634 3220 271 
Q 2806 -91 2034 -91 
Q 1263 -91 848 271 
Q 434 634 434 1313 
Q 434 1759 690 2068 
Q 947 2378 1403 2484 
z
M 1172 3481 
Q 1172 3119 1398 2916 
Q 1625 2713 2034 2713 
Q 2441 2713 2670 2916 
Q 2900 3119 2900 3481 
Q 2900 3844 2670 4047 
Q 2441 4250 2034 4250 
Q 1625 4250 1398 4047 
Q 1172 3844 1172 3481 
z
" transform="scale(0.015625)"/>
       </defs>
       <use xlink:href="#DejaVuSans-38"/>
       <use xlink:href="#DejaVuSans-30" transform="translate(63.623047 0)"/>
       <use xlink:href="#DejaVuSans-30" transform="translate(127.246094 0)"/>
      </g>
     </g>
    </g>
    <g id="xtick_10">
     <g id="line2d_19">
      <path d="M 639.6655 398.84 
L 639.6655 18.08 
" clip-path="url(#p3e5cbfcd69)" style="fill: none; stroke-dasharray: 0.8,1.32; stroke-dashoffset: 0; stroke: #b0b0b0; stroke-opacity: 0.7; stroke-width: 0.8"/>
     </g>
     <g id="line2d_20">
      <g>
       <use xlink:href="#m1d24192541" x="639.6655" y="398.84" style="stroke: #000000; stroke-width: 0.8"/>
      </g>
     </g>
     <g id="text_10">
      <!-- 900 -->
      <g transform="translate(630.12175 413.438437) scale(0.1 -0.1)">
       <defs>
        <path id="DejaVuSans-39" d="M 703 97 
L 703 672 
Q 941 559 1184 500 
Q 1428 441 1663 441 
Q 2288 441 2617 861 
Q 2947 1281 2994 2138 
Q 2813 1869 2534 1725 
Q 2256 1581 1919 1581 
Q 1219 1581 811 2004 
Q 403 2428 403 3163 
Q 403 3881 828 4315 
Q 1253 4750 1959 4750 
Q 2769 4750 3195 4129 
Q 3622 3509 3622 2328 
Q 3622 1225 3098 567 
Q 2575 -91 1691 -91 
Q 1453 -91 1209 -44 
Q 966 3 703 97 
z
M 1959 2075 
Q 2384 2075 2632 2365 
Q 2881 2656 2881 3163 
Q 2881 3666 2632 3958 
Q 2384 4250 1959 4250 
Q 1534 4250 1286 3958 
Q 1038 3666 1038 3163 
Q 1038 2656 1286 2365 
Q 1534 2075 1959 2075 
z
" transform="scale(0.015625)"/>
       </defs>
       <use xlink:href="#DejaVuSans-39"/>
       <use xlink:href="#DejaVuSans-30" transform="translate(63.623047 0)"/>
       <use xlink:href="#DejaVuSans-30" transform="translate(127.246094 0)"/>
      </g>
     </g>
    </g>
    <g id="xtick_11">
     <g id="line2d_21">
      <path d="M 705.355 398.84 
L 705.355 18.08 
" clip-path="url(#p3e5cbfcd69)" style="fill: none; stroke-dasharray: 0.8,1.32; stroke-dashoffset: 0; stroke: #b0b0b0; stroke-opacity: 0.7; stroke-width: 0.8"/>
     </g>
     <g id="line2d_22">
      <g>
       <use xlink:href="#m1d24192541" x="705.355" y="398.84" style="stroke: #000000; stroke-width: 0.8"/>
      </g>
     </g>
     <g id="text_11">
      <!-- 1000 -->
      <g transform="translate(692.63 413.438437) scale(0.1 -0.1)">
       <use xlink:href="#DejaVuSans-31"/>
       <use xlink:href="#DejaVuSans-30" transform="translate(63.623047 0)"/>
       <use xlink:href="#DejaVuSans-30" transform="translate(127.246094 0)"/>
       <use xlink:href="#DejaVuSans-30" transform="translate(190.869141 0)"/>
      </g>
     </g>
    </g>
    <g id="text_12">
     <!-- Iteration / Generation -->
     <g transform="translate(322.943437 427.116562) scale(0.1 -0.1)">
      <defs>
       <path id="DejaVuSans-49" d="M 628 4666 
L 1259 4666 
L 1259 0 
L 628 0 
L 628 4666 
z
" transform="scale(0.015625)"/>
       <path id="DejaVuSans-74" d="M 1172 4494 
L 1172 3500 
L 2356 3500 
L 2356 3053 
L 1172 3053 
L 1172 1153 
Q 1172 725 1289 603 
Q 1406 481 1766 481 
L 2356 481 
L 2356 0 
L 1766 0 
Q 1100 0 847 248 
Q 594 497 594 1153 
L 594 3053 
L 172 3053 
L 172 3500 
L 594 3500 
L 594 4494 
L 1172 4494 
z
" transform="scale(0.015625)"/>
       <path id="DejaVuSans-65" d="M 3597 1894 
L 3597 1613 
L 953 1613 
Q 991 1019 1311 708 
Q 1631 397 2203 397 
Q 2534 397 2845 478 
Q 3156 559 3463 722 
L 3463 178 
Q 3153 47 2828 -22 
Q 2503 -91 2169 -91 
Q 1331 -91 842 396 
Q 353 884 353 1716 
Q 353 2575 817 3079 
Q 1281 3584 2069 3584 
Q 2775 3584 3186 3129 
Q 3597 2675 3597 1894 
z
M 3022 2063 
Q 3016 2534 2758 2815 
Q 2500 3097 2075 3097 
Q 1594 3097 1305 2825 
Q 1016 2553 972 2059 
L 3022 2063 
z
" transform="scale(0.015625)"/>
       <path id="DejaVuSans-72" d="M 2631 2963 
Q 2534 3019 2420 3045 
Q 2306 3072 2169 3072 
Q 1681 3072 1420 2755 
Q 1159 2438 1159 1844 
L 1159 0 
L 581 0 
L 581 3500 
L 1159 3500 
L 1159 2956 
Q 1341 3275 1631 3429 
Q 1922 3584 2338 3584 
Q 2397 3584 2469 3576 
Q 2541 3569 2628 3553 
L 2631 2963 
z
" transform="scale(0.015625)"/>
       <path id="DejaVuSans-61" d="M 2194 1759 
Q 1497 1759 1228 1600 
Q 959 1441 959 1056 
Q 959 750 1161 570 
Q 1363 391 1709 391 
Q 2188 391 2477 730 
Q 2766 1069 2766 1631 
L 2766 1759 
L 2194 1759 
z
M 3341 1997 
L 3341 0 
L 2766 0 
L 2766 531 
Q 2569 213 2275 61 
Q 1981 -91 1556 -91 
Q 1019 -91 701 211 
Q 384 513 384 1019 
Q 384 1609 779 1909 
Q 1175 2209 1959 2209 
L 2766 2209 
L 2766 2266 
Q 2766 2663 2505 2880 
Q 2244 3097 1772 3097 
Q 1472 3097 1187 3025 
Q 903 2953 641 2809 
L 641 3341 
Q 956 3463 1253 3523 
Q 1550 3584 1831 3584 
Q 2591 3584 2966 3190 
Q 3341 2797 3341 1997 
z
" transform="scale(0.015625)"/>
       <path id="DejaVuSans-69" d="M 603 3500 
L 1178 3500 
L 1178 0 
L 603 0 
L 603 3500 
z
M 603 4863 
L 1178 4863 
L 1178 4134 
L 603 4134 
L 603 4863 
z
" transform="scale(0.015625)"/>
       <path id="DejaVuSans-6f" d="M 1959 3097 
Q 1497 3097 1228 2736 
Q 959 2375 959 1747 
Q 959 1119 1226 758 
Q 1494 397 1959 397 
Q 2419 397 2687 759 
Q 2956 1122 2956 1747 
Q 2956 2369 2687 2733 
Q 2419 3097 1959 3097 
z
M 1959 3584 
Q 2709 3584 3137 3096 
Q 3566 2609 3566 1747 
Q 3566 888 3137 398 
Q 2709 -91 1959 -91 
Q 1206 -91 779 398 
Q 353 888 353 1747 
Q 353 2609 779 3096 
Q 1206 3584 1959 3584 
z
" transform="scale(0.015625)"/>
       <path id="DejaVuSans-6e" d="M 3513 2113 
L 3513 0 
L 2938 0 
L 2938 2094 
Q 2938 2591 2744 2837 
Q 2550 3084 2163 3084 
Q 1697 3084 1428 2787 
Q 1159 2491 1159 1978 
L 1159 0 
L 581 0 
L 581 3500 
L 1159 3500 
L 1159 2956 
Q 1366 3272 1645 3428 
Q 1925 3584 2291 3584 
Q 2894 3584 3203 3211 
Q 3513 2838 3513 2113 
z
" transform="scale(0.015625)"/>
       <path id="DejaVuSans-20" transform="scale(0.015625)"/>
       <path id="DejaVuSans-2f" d="M 1625 4666 
L 2156 4666 
L 531 -594 
L 0 -594 
L 1625 4666 
z
" transform="scale(0.015625)"/>
       <path id="DejaVuSans-47" d="M 3809 666 
L 3809 1919 
L 2778 1919 
L 2778 2438 
L 4434 2438 
L 4434 434 
Q 4069 175 3628 42 
Q 3188 -91 2688 -91 
Q 1594 -91 976 548 
Q 359 1188 359 2328 
Q 359 3472 976 4111 
Q 1594 4750 2688 4750 
Q 3144 4750 3555 4637 
Q 3966 4525 4313 4306 
L 4313 3634 
Q 3963 3931 3569 4081 
Q 3175 4231 2741 4231 
Q 1884 4231 1454 3753 
Q 1025 3275 1025 2328 
Q 1025 1384 1454 906 
Q 1884 428 2741 428 
Q 3075 428 3337 486 
Q 3600 544 3809 666 
z
" transform="scale(0.015625)"/>
      </defs>
      <use xlink:href="#DejaVuSans-49"/>
      <use xlink:href="#DejaVuSans-74" transform="translate(29.492188 0)"/>
      <use xlink:href="#DejaVuSans-65" transform="translate(68.701172 0)"/>
      <use xlink:href="#DejaVuSans-72" transform="translate(130.224609 0)"/>
      <use xlink:href="#DejaVuSans-61" transform="translate(171.337891 0)"/>
      <use xlink:href="#DejaVuSans-74" transform="translate(232.617188 0)"/>
      <use xlink:href="#DejaVuSans-69" transform="translate(271.826172 0)"/>
      <use xlink:href="#DejaVuSans-6f" transform="translate(299.609375 0)"/>
      <use xlink:href="#DejaVuSans-6e" transform="translate(360.791016 0)"/>
      <use xlink:href="#DejaVuSans-20" transform="translate(424.169922 0)"/>
      <use xlink:href="#DejaVuSans-2f" transform="translate(455.957031 0)"/>
      <use xlink:href="#DejaVuSans-20" transform="translate(489.648438 0)"/>
      <use xlink:href="#DejaVuSans-47" transform="translate(521.435547 0)"/>
      <use xlink:href="#DejaVuSans-65" transform="translate(598.925781 0)"/>
      <use xlink:href="#DejaVuSans-6e" transform="translate(660.449219 0)"/>
      <use xlink:href="#DejaVuSans-65" transform="translate(723.828125 0)"/>
      <use xlink:href="#DejaVuSans-72" transform="translate(785.351562 0)"/>
      <use xlink:href="#DejaVuSans-61" transform="translate(826.464844 0)"/>
      <use xlink:href="#DejaVuSans-74" transform="translate(887.744141 0)"/>
      <use xlink:href="#DejaVuSans-69" transform="translate(926.953125 0)"/>
      <use xlink:href="#DejaVuSans-6f" transform="translate(954.736328 0)"/>
      <use xlink:href="#DejaVuSans-6e" transform="translate(1015.917969 0)"/>
     </g>
    </g>
   </g>
   <g id="matplotlib.axis_2">
    <g id="ytick_1">
     <g id="line2d_23">
      <path d="M 48.46 391.611337 
L 705.355 391.611337 
" clip-path="url(#p3e5cbfcd69)" style="fill: none; stroke-dasharray: 0.8,1.32; stroke-dashoffset: 0; stroke: #b0b0b0; stroke-opacity: 0.7; stroke-width: 0.8"/>
     </g>
     <g id="line2d_24">
      <defs>
       <path id="m0c12a55884" d="M 0 0 
L -3.5 0 
" style="stroke: #000000; stroke-width: 0.8"/>
      </defs>
      <g>
       <use xlink:href="#m0c12a55884" x="48.46" y="391.611337" style="stroke: #000000; stroke-width: 0.8"/>
      </g>
     </g>
     <g id="text_13">
      <!-- 400 -->
      <g transform="translate(22.3725 395.410556) scale(0.1 -0.1)">
       <use xlink:href="#DejaVuSans-34"/>
       <use xlink:href="#DejaVuSans-30" transform="translate(63.623047 0)"/>
       <use xlink:href="#DejaVuSans-30" transform="translate(127.246094 0)"/>
      </g>
     </g>
    </g>
    <g id="ytick_2">
     <g id="line2d_25">
      <path d="M 48.46 337.973613 
L 705.355 337.973613 
" clip-path="url(#p3e5cbfcd69)" style="fill: none; stroke-dasharray: 0.8,1.32; stroke-dashoffset: 0; stroke: #b0b0b0; stroke-opacity: 0.7; stroke-width: 0.8"/>
     </g>
     <g id="line2d_26">
      <g>
       <use xlink:href="#m0c12a55884" x="48.46" y="337.973613" style="stroke: #000000; stroke-width: 0.8"/>
      </g>
     </g>
     <g id="text_14">
      <!-- 600 -->
      <g transform="translate(22.3725 341.772831) scale(0.1 -0.1)">
       <use xlink:href="#DejaVuSans-36"/>
       <use xlink:href="#DejaVuSans-30" transform="translate(63.623047 0)"/>
       <use xlink:href="#DejaVuSans-30" transform="translate(127.246094 0)"/>
      </g>
     </g>
    </g>
    <g id="ytick_3">
     <g id="line2d_27">
      <path d="M 48.46 284.335888 
L 705.355 284.335888 
" clip-path="url(#p3e5cbfcd69)" style="fill: none; stroke-dasharray: 0.8,1.32; stroke-dashoffset: 0; stroke: #b0b0b0; stroke-opacity: 0.7; stroke-width: 0.8"/>
     </g>
     <g id="line2d_28">
      <g>
       <use xlink:href="#m0c12a55884" x="48.46" y="284.335888" style="stroke: #000000; stroke-width: 0.8"/>
      </g>
     </g>
     <g id="text_15">
      <!-- 800 -->
      <g transform="translate(22.3725 288.135107) scale(0.1 -0.1)">
       <use xlink:href="#DejaVuSans-38"/>
       <use xlink:href="#DejaVuSans-30" transform="translate(63.623047 0)"/>
       <use xlink:href="#DejaVuSans-30" transform="translate(127.246094 0)"/>
      </g>
     </g>
    </g>
    <g id="ytick_4">
     <g id="line2d_29">
      <path d="M 48.46 230.698164 
L 705.355 230.698164 
" clip-path="url(#p3e5cbfcd69)" style="fill: none; stroke-dasharray: 0.8,1.32; stroke-dashoffset: 0; stroke: #b0b0b0; stroke-opacity: 0.7; stroke-width: 0.8"/>
     </g>
     <g id="line2d_30">
      <g>
       <use xlink:href="#m0c12a55884" x="48.46" y="230.698164" style="stroke: #000000; stroke-width: 0.8"/>
      </g>
     </g>
     <g id="text_16">
      <!-- 1000 -->
      <g transform="translate(16.01 234.497383) scale(0.1 -0.1)">
       <use xlink:href="#DejaVuSans-31"/>
       <use xlink:href="#DejaVuSans-30" transform="translate(63.623047 0)"/>
       <use xlink:href="#DejaVuSans-30" transform="translate(127.246094 0)"/>
       <use xlink:href="#DejaVuSans-30" transform="translate(190.869141 0)"/>
      </g>
     </g>
    </g>
    <g id="ytick_5">
     <g id="line2d_31">
      <path d="M 48.46 177.06044 
L 705.355 177.06044 
" clip-path="url(#p3e5cbfcd69)" style="fill: none; stroke-dasharray: 0.8,1.32; stroke-dashoffset: 0; stroke: #b0b0b0; stroke-opacity: 0.7; stroke-width: 0.8"/>
     </g>
     <g id="line2d_32">
      <g>
       <use xlink:href="#m0c12a55884" x="48.46" y="177.06044" style="stroke: #000000; stroke-width: 0.8"/>
      </g>
     </g>
     <g id="text_17">
      <!-- 1200 -->
      <g transform="translate(16.01 180.859658) scale(0.1 -0.1)">
       <use xlink:href="#DejaVuSans-31"/>
       <use xlink:href="#DejaVuSans-32" transform="translate(63.623047 0)"/>
       <use xlink:href="#DejaVuSans-30" transform="translate(127.246094 0)"/>
       <use xlink:href="#DejaVuSans-30" transform="translate(190.869141 0)"/>
      </g>
     </g>
    </g>
    <g id="ytick_6">
     <g id="line2d_33">
      <path d="M 48.46 123.422715 
L 705.355 123.422715 
" clip-path="url(#p3e5cbfcd69)" style="fill: none; stroke-dasharray: 0.8,1.32; stroke-dashoffset: 0; stroke: #b0b0b0; stroke-opacity: 0.7; stroke-width: 0.8"/>
     </g>
     <g id="line2d_34">
      <g>
       <use xlink:href="#m0c12a55884" x="48.46" y="123.422715" style="stroke: #000000; stroke-width: 0.8"/>
      </g>
     </g>
     <g id="text_18">
      <!-- 1400 -->
      <g transform="translate(16.01 127.221934) scale(0.1 -0.1)">
       <use xlink:href="#DejaVuSans-31"/>
       <use xlink:href="#DejaVuSans-34" transform="translate(63.623047 0)"/>
       <use xlink:href="#DejaVuSans-30" transform="translate(127.246094 0)"/>
       <use xlink:href="#DejaVuSans-30" transform="translate(190.869141 0)"/>
      </g>
     </g>
    </g>
    <g id="ytick_7">
     <g id="line2d_35">
      <path d="M 48.46 69.784991 
L 705.355 69.784991 
" clip-path="url(#p3e5cbfcd69)" style="fill: none; stroke-dasharray: 0.8,1.32; stroke-dashoffset: 0; stroke: #b0b0b0; stroke-opacity: 0.7; stroke-width: 0.8"/>
     </g>
     <g id="line2d_36">
      <g>
       <use xlink:href="#m0c12a55884" x="48.46" y="69.784991" style="stroke: #000000; stroke-width: 0.8"/>
      </g>
     </g>
     <g id="text_19">
      <!-- 1600 -->
      <g transform="translate(16.01 73.58421) scale(0.1 -0.1)">
       <use xlink:href="#DejaVuSans-31"/>
       <use xlink:href="#DejaVuSans-36" transform="translate(63.623047 0)"/>
       <use xlink:href="#DejaVuSans-30" transform="translate(127.246094 0)"/>
       <use xlink:href="#DejaVuSans-30" transform="translate(190.869141 0)"/>
      </g>
     </g>
    </g>
    <g id="text_20">
     <!-- Objective Value -->
     <g transform="translate(9.930313 247.490469) rotate(-90) scale(0.1 -0.1)">
      <defs>
       <path id="DejaVuSans-4f" d="M 2522 4238 
Q 1834 4238 1429 3725 
Q 1025 3213 1025 2328 
Q 1025 1447 1429 934 
Q 1834 422 2522 422 
Q 3209 422 3611 934 
Q 4013 1447 4013 2328 
Q 4013 3213 3611 3725 
Q 3209 4238 2522 4238 
z
M 2522 4750 
Q 3503 4750 4090 4092 
Q 4678 3434 4678 2328 
Q 4678 1225 4090 567 
Q 3503 -91 2522 -91 
Q 1538 -91 948 565 
Q 359 1222 359 2328 
Q 359 3434 948 4092 
Q 1538 4750 2522 4750 
z
" transform="scale(0.015625)"/>
       <path id="DejaVuSans-62" d="M 3116 1747 
Q 3116 2381 2855 2742 
Q 2594 3103 2138 3103 
Q 1681 3103 1420 2742 
Q 1159 2381 1159 1747 
Q 1159 1113 1420 752 
Q 1681 391 2138 391 
Q 2594 391 2855 752 
Q 3116 1113 3116 1747 
z
M 1159 2969 
Q 1341 3281 1617 3432 
Q 1894 3584 2278 3584 
Q 2916 3584 3314 3078 
Q 3713 2572 3713 1747 
Q 3713 922 3314 415 
Q 2916 -91 2278 -91 
Q 1894 -91 1617 61 
Q 1341 213 1159 525 
L 1159 0 
L 581 0 
L 581 4863 
L 1159 4863 
L 1159 2969 
z
" transform="scale(0.015625)"/>
       <path id="DejaVuSans-6a" d="M 603 3500 
L 1178 3500 
L 1178 -63 
Q 1178 -731 923 -1031 
Q 669 -1331 103 -1331 
L -116 -1331 
L -116 -844 
L 38 -844 
Q 366 -844 484 -692 
Q 603 -541 603 -63 
L 603 3500 
z
M 603 4863 
L 1178 4863 
L 1178 4134 
L 603 4134 
L 603 4863 
z
" transform="scale(0.015625)"/>
       <path id="DejaVuSans-63" d="M 3122 3366 
L 3122 2828 
Q 2878 2963 2633 3030 
Q 2388 3097 2138 3097 
Q 1578 3097 1268 2742 
Q 959 2388 959 1747 
Q 959 1106 1268 751 
Q 1578 397 2138 397 
Q 2388 397 2633 464 
Q 2878 531 3122 666 
L 3122 134 
Q 2881 22 2623 -34 
Q 2366 -91 2075 -91 
Q 1284 -91 818 406 
Q 353 903 353 1747 
Q 353 2603 823 3093 
Q 1294 3584 2113 3584 
Q 2378 3584 2631 3529 
Q 2884 3475 3122 3366 
z
" transform="scale(0.015625)"/>
       <path id="DejaVuSans-76" d="M 191 3500 
L 800 3500 
L 1894 563 
L 2988 3500 
L 3597 3500 
L 2284 0 
L 1503 0 
L 191 3500 
z
" transform="scale(0.015625)"/>
       <path id="DejaVuSans-56" d="M 1831 0 
L 50 4666 
L 709 4666 
L 2188 738 
L 3669 4666 
L 4325 4666 
L 2547 0 
L 1831 0 
z
" transform="scale(0.015625)"/>
       <path id="DejaVuSans-6c" d="M 603 4863 
L 1178 4863 
L 1178 0 
L 603 0 
L 603 4863 
z
" transform="scale(0.015625)"/>
       <path id="DejaVuSans-75" d="M 544 1381 
L 544 3500 
L 1119 3500 
L 1119 1403 
Q 1119 906 1312 657 
Q 1506 409 1894 409 
Q 2359 409 2629 706 
Q 2900 1003 2900 1516 
L 2900 3500 
L 3475 3500 
L 3475 0 
L 2900 0 
L 2900 538 
Q 2691 219 2414 64 
Q 2138 -91 1772 -91 
Q 1169 -91 856 284 
Q 544 659 544 1381 
z
M 1991 3584 
L 1991 3584 
z
" transform="scale(0.015625)"/>
      </defs>
      <use xlink:href="#DejaVuSans-4f"/>
      <use xlink:href="#DejaVuSans-62" transform="translate(78.710938 0)"/>
      <use xlink:href="#DejaVuSans-6a" transform="translate(142.1875 0)"/>
      <use xlink:href="#DejaVuSans-65" transform="translate(169.970703 0)"/>
      <use xlink:href="#DejaVuSans-63" transform="translate(231.494141 0)"/>
      <use xlink:href="#DejaVuSans-74" transform="translate(286.474609 0)"/>
      <use xlink:href="#DejaVuSans-69" transform="translate(325.683594 0)"/>
      <use xlink:href="#DejaVuSans-76" transform="translate(353.466797 0)"/>
      <use xlink:href="#DejaVuSans-65" transform="translate(412.646484 0)"/>
      <use xlink:href="#DejaVuSans-20" transform="translate(474.169922 0)"/>
      <use xlink:href="#DejaVuSans-56" transform="translate(505.957031 0)"/>
      <use xlink:href="#DejaVuSans-61" transform="translate(566.615234 0)"/>
      <use xlink:href="#DejaVuSans-6c" transform="translate(627.894531 0)"/>
      <use xlink:href="#DejaVuSans-75" transform="translate(655.677734 0)"/>
      <use xlink:href="#DejaVuSans-65" transform="translate(719.056641 0)"/>
     </g>
    </g>
   </g>
   <g id="line2d_37">
    <path d="M 48.46 292.814684 
L 50.430685 292.814684 
L 50.430685 312.335752 
L 60.941005 312.335752 
L 60.941005 318.216362 
L 72.765115 318.216362 
L 72.765115 332.108711 
L 77.36338 332.108711 
L 77.36338 363.336598 
L 265.23535 363.336612 
L 265.23535 367.11 
L 704.698105 367.11 
L 704.698105 367.11 
" clip-path="url(#p3e5cbfcd69)" style="fill: none; stroke: #1f77b4; stroke-width: 1.5; stroke-linecap: square"/>
   </g>
   <g id="line2d_38">
    <path d="M 48.46 202.033956 
L 49.116895 95.293808 
L 49.77379 105.35542 
L 50.430685 73.183534 
L 51.08758 72.509042 
L 51.744475 80.833025 
L 52.40137 78.136968 
L 53.058265 74.747509 
L 53.71516 82.69006 
L 54.372055 49.81 
L 55.02895 52.678497 
L 55.685845 99.069579 
L 56.34274 85.064962 
L 56.999635 78.355793 
L 57.65653 99.875073 
L 58.313425 92.489343 
L 58.97032 93.938507 
L 60.28411 110.919925 
L 60.941005 104.716375 
L 61.5979 109.959827 
L 62.254795 106.011608 
L 62.91169 88.247538 
L 63.568585 93.683611 
L 64.22548 81.108182 
L 64.882375 119.679249 
L 65.53927 85.91079 
L 66.196165 105.17173 
L 66.85306 96.689918 
L 67.509955 93.524515 
L 68.16685 84.123052 
L 68.823745 63.118692 
L 69.48064 51.53616 
L 70.137535 87.913743 
L 70.79443 91.999704 
L 71.451325 100.427496 
L 72.10822 106.293708 
L 72.765115 114.439894 
L 73.42201 86.80021 
L 74.078905 115.374647 
L 74.7358 119.637469 
L 75.392695 122.099018 
L 76.04959 97.530298 
L 76.706485 103.165939 
L 77.36338 112.283198 
L 78.020275 119.045685 
L 78.67717 116.395777 
L 79.334065 134.836047 
L 79.99096 109.409416 
L 80.647855 107.793614 
L 81.30475 110.384289 
L 81.961645 112.427725 
L 82.61854 118.967182 
L 83.275435 106.965542 
L 83.93233 101.28041 
L 84.589225 127.86832 
L 85.24612 133.41299 
L 85.903015 123.188901 
L 86.55991 145.595402 
L 87.216805 122.740876 
L 87.8737 141.777995 
L 88.530595 139.840111 
L 89.18749 110.891582 
L 89.844385 155.901115 
L 90.50128 129.781816 
L 91.158175 147.030196 
L 91.81507 106.357245 
L 92.471965 107.171642 
L 93.12886 115.817405 
L 94.44265 131.303552 
L 95.099545 116.674933 
L 95.75644 120.832656 
L 96.413335 115.316029 
L 97.07023 110.944897 
L 97.727125 123.747438 
L 98.38402 163.136794 
L 99.040915 124.253548 
L 99.69781 146.040856 
L 100.354705 146.173635 
L 101.0116 145.604297 
L 101.668495 144.759483 
L 102.982285 115.361961 
L 103.63918 133.433299 
L 104.296075 132.34488 
L 104.95297 146.490714 
L 105.609865 113.278009 
L 106.26676 138.652421 
L 106.923655 153.282081 
L 107.58055 141.165084 
L 108.237445 140.182218 
L 108.89434 148.286082 
L 109.551235 131.236657 
L 110.20813 167.986335 
L 110.865025 147.009095 
L 111.52192 145.796024 
L 112.178815 153.013045 
L 112.83571 148.323785 
L 113.492605 154.488267 
L 114.1495 133.794616 
L 114.806395 130.976143 
L 115.46329 151.282371 
L 116.120185 141.599439 
L 116.77708 157.751833 
L 117.433975 136.584585 
L 118.09087 138.872862 
L 118.747765 174.168777 
L 119.40466 166.300789 
L 120.061555 155.671867 
L 120.71845 151.564864 
L 121.375345 122.818771 
L 122.03224 133.542561 
L 122.689135 132.466754 
L 123.34603 123.015293 
L 124.002925 147.681462 
L 124.65982 126.701145 
L 125.316715 135.393295 
L 125.97361 154.619122 
L 126.630505 150.20474 
L 127.2874 162.569902 
L 127.944295 151.391372 
L 128.60119 149.877662 
L 129.258085 131.295038 
L 129.91498 143.173472 
L 130.571875 139.513857 
L 131.22877 173.801529 
L 131.885665 159.966642 
L 132.54256 161.351518 
L 133.199455 144.42424 
L 133.85635 136.889829 
L 134.513245 137.657702 
L 135.17014 159.073872 
L 135.827035 160.677583 
L 136.48393 142.649819 
L 137.79772 154.767525 
L 138.454615 143.114203 
L 139.11151 152.86416 
L 139.768405 177.247037 
L 140.4253 135.094778 
L 141.082195 152.764628 
L 141.73909 151.099879 
L 142.395985 142.8697 
L 143.05288 167.301462 
L 143.709775 152.954477 
L 144.36667 168.575047 
L 145.023565 171.675818 
L 145.68046 161.869901 
L 146.337355 133.168131 
L 146.99425 158.92145 
L 147.651145 166.891611 
L 148.30804 182.123394 
L 148.964935 147.47939 
L 150.278725 173.125064 
L 150.93562 171.768537 
L 151.592515 155.282214 
L 152.24941 176.676494 
L 152.906305 169.038939 
L 153.5632 162.767708 
L 154.220095 143.625845 
L 154.87699 144.428436 
L 155.533885 153.679159 
L 156.19078 147.048666 
L 156.847675 155.453426 
L 157.50457 161.536962 
L 158.161465 153.040012 
L 158.81836 151.883934 
L 159.475255 149.642323 
L 160.13215 161.846129 
L 160.789045 162.876781 
L 161.44594 184.691488 
L 162.102835 176.358576 
L 162.75973 172.903867 
L 163.416625 180.019437 
L 164.07352 182.481328 
L 164.730415 180.999903 
L 166.044205 165.203246 
L 166.7011 173.711188 
L 167.357995 177.648039 
L 168.01489 160.721326 
L 168.671785 171.575392 
L 169.32868 179.987836 
L 169.985575 171.472346 
L 170.64247 188.247934 
L 171.299365 169.474103 
L 171.95626 179.954384 
L 172.613155 184.839556 
L 173.27005 162.048056 
L 173.926945 167.765095 
L 174.58384 178.132627 
L 175.240735 183.006871 
L 175.89763 183.02192 
L 176.554525 173.558404 
L 177.21142 182.962939 
L 177.868315 172.754516 
L 178.52521 170.866069 
L 179.182105 177.548174 
L 179.839 174.849424 
L 180.495895 178.710433 
L 181.15279 184.81712 
L 181.809685 184.461009 
L 182.46658 174.337525 
L 183.123475 181.960855 
L 183.78037 160.837301 
L 184.437265 161.257888 
L 185.09416 180.268226 
L 185.751055 185.824242 
L 186.40795 197.901938 
L 187.064845 163.943756 
L 187.72174 164.499835 
L 189.03553 187.801738 
L 189.692425 180.438804 
L 190.34932 171.795485 
L 191.006215 191.929168 
L 191.66311 206.885887 
L 192.9769 181.785238 
L 193.633795 184.675912 
L 194.29069 191.278926 
L 194.947585 193.222688 
L 195.60448 203.00171 
L 196.261375 182.692412 
L 196.91827 186.09995 
L 197.575165 164.218793 
L 198.23206 184.405981 
L 198.888955 187.505258 
L 199.54585 163.711263 
L 200.202745 180.251716 
L 200.85964 181.772915 
L 201.516535 176.258063 
L 202.17343 186.414169 
L 202.830325 194.622059 
L 203.48722 189.964657 
L 204.144115 189.131139 
L 204.80101 183.870615 
L 205.457905 175.879275 
L 206.1148 172.886595 
L 206.771695 199.255954 
L 207.42859 195.875681 
L 208.085485 167.895722 
L 209.399275 208.912087 
L 210.05617 192.889663 
L 210.713065 187.625125 
L 211.36996 187.720961 
L 212.026855 188.370163 
L 212.68375 192.602051 
L 213.340645 186.610105 
L 213.99754 200.426565 
L 214.654435 179.420084 
L 215.31133 193.968133 
L 215.968225 173.136325 
L 216.62512 198.727936 
L 217.282015 187.121283 
L 217.93891 201.388762 
L 218.595805 200.580468 
L 219.2527 213.941218 
L 220.56649 191.40301 
L 221.223385 189.076889 
L 221.88028 201.732387 
L 222.537175 210.826115 
L 223.19407 197.701865 
L 223.850965 180.266523 
L 224.50786 203.952404 
L 225.164755 187.690294 
L 225.82165 183.006004 
L 226.478545 192.641195 
L 227.13544 205.638221 
L 227.792335 205.200911 
L 228.44923 202.641124 
L 229.106125 201.625735 
L 229.76302 180.70301 
L 230.419915 196.969799 
L 231.07681 183.837485 
L 231.733705 183.439288 
L 232.3906 203.390643 
L 233.047495 193.243784 
L 233.70439 205.048573 
L 234.361285 197.818542 
L 235.01818 196.326361 
L 235.675075 197.906585 
L 236.33197 193.294876 
L 236.988865 208.900804 
L 238.302655 180.175175 
L 238.95955 174.152091 
L 239.616445 203.068721 
L 240.27334 209.130997 
L 240.930235 200.806579 
L 241.58713 185.744453 
L 242.244025 206.115957 
L 242.90092 194.4733 
L 243.557815 202.686582 
L 244.21471 184.173162 
L 244.871605 194.806684 
L 246.185395 184.267314 
L 246.84229 190.197734 
L 247.499185 185.968669 
L 248.15608 207.887654 
L 248.812975 196.449551 
L 249.46987 193.58854 
L 250.126765 211.647104 
L 250.78366 186.100983 
L 251.440555 197.895267 
L 252.09745 206.218043 
L 252.754345 192.545842 
L 253.41124 214.991835 
L 254.068135 213.474425 
L 254.72503 198.736479 
L 255.381925 206.411917 
L 256.03882 211.050048 
L 256.695715 213.923922 
L 257.35261 212.081181 
L 258.009505 219.927116 
L 258.6664 197.719581 
L 259.323295 187.641408 
L 259.98019 214.679652 
L 260.637085 193.459409 
L 261.29398 212.155121 
L 261.950875 205.860937 
L 263.264665 209.487585 
L 263.92156 201.992167 
L 264.578455 196.218512 
L 265.23535 197.390593 
L 265.892245 193.592483 
L 266.54914 187.460292 
L 267.206035 189.986926 
L 267.86293 212.312007 
L 268.519825 194.861626 
L 269.17672 194.910007 
L 269.833615 212.401323 
L 270.49051 193.037884 
L 271.147405 185.09246 
L 271.8043 198.232083 
L 272.461195 203.009004 
L 273.11809 206.77847 
L 273.774985 202.977898 
L 274.43188 201.22013 
L 275.088775 185.319162 
L 275.74567 225.881514 
L 276.402565 198.806221 
L 277.05946 208.723732 
L 277.716355 210.51855 
L 278.37325 207.850194 
L 279.030145 210.132277 
L 279.68704 208.217563 
L 280.343935 199.231891 
L 281.00083 217.261155 
L 281.657725 207.440152 
L 282.31462 209.262498 
L 282.971515 206.336281 
L 283.62841 216.220156 
L 284.285305 200.222174 
L 284.9422 194.26647 
L 285.599095 201.578363 
L 286.25599 206.859285 
L 286.912885 202.271451 
L 287.56978 192.500005 
L 288.226675 204.465522 
L 288.88357 212.000492 
L 289.540465 212.638498 
L 290.19736 216.586414 
L 290.854255 210.182356 
L 291.51115 201.119468 
L 292.168045 200.475589 
L 292.82494 194.831865 
L 293.481835 204.766338 
L 294.13873 203.040916 
L 294.795625 203.662609 
L 295.45252 202.928094 
L 296.109415 220.700465 
L 296.76631 203.794247 
L 297.423205 209.973572 
L 298.0801 196.430515 
L 298.736995 209.733832 
L 299.39389 199.960045 
L 300.050785 208.645009 
L 300.70768 195.994239 
L 301.364575 195.19587 
L 302.02147 208.207276 
L 302.678365 200.130223 
L 303.33526 205.683932 
L 303.992155 194.09808 
L 304.64905 192.544195 
L 305.305945 210.450201 
L 305.96284 191.82709 
L 306.619735 207.887503 
L 307.27663 196.91357 
L 307.933525 219.276701 
L 308.59042 201.992521 
L 309.247315 201.052129 
L 309.90421 209.970867 
L 310.561105 213.953633 
L 311.218 203.402804 
L 311.874895 207.926668 
L 312.53179 207.940086 
L 313.188685 205.350698 
L 313.84558 193.00004 
L 314.502475 210.011755 
L 315.15937 203.963123 
L 315.816265 211.375334 
L 316.47316 207.555244 
L 317.130055 205.882455 
L 317.78695 193.511796 
L 318.443845 195.206534 
L 319.10074 220.423789 
L 319.757635 202.497953 
L 320.41453 211.656125 
L 321.071425 211.848213 
L 321.72832 195.140574 
L 322.385215 216.23415 
L 323.04211 217.938117 
L 323.699005 220.76022 
L 324.3559 218.271062 
L 325.012795 225.868625 
L 325.66969 216.543975 
L 326.326585 216.393156 
L 326.98348 240.251552 
L 327.640375 213.226001 
L 328.29727 206.891172 
L 328.954165 197.177554 
L 329.61106 207.622868 
L 330.267955 209.740958 
L 330.92485 192.342503 
L 331.581745 211.574129 
L 332.23864 200.407792 
L 332.895535 215.301808 
L 333.55243 198.748478 
L 334.209325 206.20292 
L 334.86622 192.282422 
L 335.523115 201.856313 
L 336.18001 215.450897 
L 336.836905 212.301367 
L 337.4938 207.900741 
L 338.150695 205.199412 
L 338.80759 221.117594 
L 339.464485 190.045797 
L 340.12138 214.014382 
L 340.778275 214.580183 
L 341.43517 203.564572 
L 342.092065 201.320193 
L 342.74896 197.215677 
L 343.405855 200.511284 
L 344.06275 208.855984 
L 345.37654 214.657228 
L 346.033435 210.802061 
L 346.69033 214.255958 
L 347.347225 200.108246 
L 348.00412 225.224931 
L 348.661015 215.377622 
L 349.31791 211.070911 
L 349.974805 201.57275 
L 350.6317 207.206097 
L 351.288595 193.31953 
L 351.94549 220.380138 
L 352.602385 193.802151 
L 353.25928 192.643581 
L 353.916175 191.783913 
L 354.57307 214.144025 
L 355.229965 199.244407 
L 355.88686 213.117196 
L 356.543755 197.386571 
L 357.20065 197.961481 
L 357.857545 198.797762 
L 358.51444 215.213426 
L 359.171335 211.848357 
L 359.82823 226.320165 
L 360.485125 220.574419 
L 361.14202 200.830389 
L 361.798915 218.873501 
L 362.45581 200.960964 
L 363.112705 203.734402 
L 363.7696 219.882937 
L 364.426495 203.025063 
L 365.08339 203.634689 
L 365.740285 210.660717 
L 366.39718 200.512531 
L 367.054075 204.47649 
L 367.71097 207.56141 
L 369.02476 234.428821 
L 369.681655 218.642721 
L 370.33855 217.974628 
L 370.995445 224.75621 
L 371.65234 211.897907 
L 372.309235 213.923449 
L 372.96613 215.401042 
L 373.623025 221.208851 
L 374.27992 208.789237 
L 374.936815 202.699513 
L 375.59371 221.403172 
L 376.250605 219.600296 
L 376.9075 203.457968 
L 377.564395 227.224785 
L 378.22129 217.914442 
L 378.878185 197.277227 
L 379.53508 215.591717 
L 380.191975 199.479128 
L 380.84887 199.527096 
L 381.505765 211.983419 
L 382.16266 218.461764 
L 382.819555 206.963718 
L 383.47645 210.406442 
L 384.133345 222.497459 
L 384.79024 227.041964 
L 385.447135 216.03689 
L 386.10403 208.277013 
L 386.760925 213.596222 
L 387.41782 207.48505 
L 388.074715 205.260589 
L 388.73161 205.943351 
L 389.388505 205.982279 
L 390.0454 210.085441 
L 390.702295 191.553792 
L 391.35919 211.34086 
L 392.016085 218.332895 
L 392.67298 199.392216 
L 393.329875 219.963488 
L 393.98677 199.613512 
L 394.643665 201.978969 
L 395.957455 209.319785 
L 396.61435 213.766081 
L 397.271245 193.520303 
L 397.92814 193.291606 
L 398.585035 225.358385 
L 399.24193 211.946499 
L 399.898825 205.819397 
L 400.55572 219.949605 
L 401.212615 201.375362 
L 401.86951 209.691455 
L 402.526405 200.727498 
L 403.1833 205.564199 
L 403.840195 190.353071 
L 404.49709 217.014652 
L 405.153985 221.92966 
L 405.81088 198.050896 
L 406.467775 199.15547 
L 407.12467 214.654403 
L 407.781565 202.083861 
L 408.43846 219.575289 
L 409.75225 198.711216 
L 410.409145 205.995388 
L 411.06604 218.580684 
L 411.722935 213.293059 
L 412.37983 219.514101 
L 413.036725 205.583592 
L 413.69362 195.017269 
L 414.350515 217.194967 
L 415.00741 199.323181 
L 415.664305 202.074209 
L 416.3212 216.695378 
L 416.978095 206.963735 
L 417.63499 191.372761 
L 418.291885 193.999918 
L 418.94878 217.820219 
L 419.605675 206.7598 
L 420.26257 198.584905 
L 420.919465 225.496986 
L 421.57636 218.548808 
L 422.233255 231.732489 
L 422.89015 202.259474 
L 423.547045 206.139192 
L 424.20394 221.434886 
L 424.860835 206.739727 
L 425.51773 212.815713 
L 426.174625 205.877247 
L 426.83152 205.079663 
L 427.488415 218.986134 
L 428.14531 213.47002 
L 428.802205 209.553822 
L 429.4591 191.689214 
L 430.115995 206.053214 
L 430.77289 204.83796 
L 431.429785 212.556412 
L 432.08668 214.209808 
L 432.743575 214.952349 
L 433.40047 212.458764 
L 434.057365 216.90072 
L 434.71426 212.32688 
L 435.371155 205.485345 
L 436.02805 218.669297 
L 436.684945 216.687326 
L 437.34184 218.292092 
L 437.998735 214.993651 
L 438.65563 207.268616 
L 439.312525 207.049101 
L 439.96942 207.559456 
L 440.626315 218.778506 
L 441.28321 216.464882 
L 441.940105 224.103213 
L 442.597 212.562858 
L 443.253895 205.142577 
L 443.91079 207.42633 
L 444.567685 216.477526 
L 445.22458 201.865413 
L 445.881475 208.358874 
L 446.53837 207.596679 
L 447.195265 200.242731 
L 447.85216 217.829359 
L 448.509055 200.774401 
L 449.16595 199.958232 
L 449.822845 217.509184 
L 450.47974 216.359268 
L 451.136635 219.75591 
L 451.79353 198.455302 
L 452.450425 208.996326 
L 453.10732 211.669415 
L 453.764215 221.298469 
L 454.42111 211.341851 
L 455.078005 189.966638 
L 455.7349 195.481137 
L 456.391795 202.890811 
L 457.04869 214.942527 
L 457.705585 219.980019 
L 458.36248 210.762568 
L 459.019375 204.812044 
L 459.67627 194.276736 
L 460.99006 213.160107 
L 461.646955 205.95746 
L 462.960745 218.103404 
L 463.61764 218.451584 
L 464.274535 213.546866 
L 464.93143 221.34981 
L 465.588325 213.028681 
L 466.24522 216.88324 
L 466.902115 207.39859 
L 467.55901 205.640383 
L 468.215905 192.738432 
L 469.529695 217.963354 
L 470.18659 221.177655 
L 470.843485 202.517806 
L 471.50038 203.607775 
L 472.157275 219.251879 
L 472.81417 219.080433 
L 473.471065 223.920993 
L 474.12796 213.854261 
L 474.784855 215.807621 
L 475.44175 225.74063 
L 476.098645 215.94402 
L 477.412435 213.475008 
L 478.06933 204.132503 
L 479.38312 218.433963 
L 480.040015 206.844388 
L 480.69691 216.616832 
L 481.353805 209.579233 
L 482.0107 220.017114 
L 482.667595 207.477165 
L 483.32449 214.994269 
L 483.981385 210.910409 
L 484.63828 210.125584 
L 485.295175 226.26963 
L 485.95207 209.260572 
L 486.608965 208.988486 
L 487.26586 225.983936 
L 487.922755 211.388685 
L 488.57965 208.6865 
L 489.236545 214.484401 
L 490.550335 217.698081 
L 491.20723 217.595018 
L 491.864125 223.429628 
L 492.52102 215.821395 
L 493.177915 211.849737 
L 493.83481 233.512878 
L 494.491705 217.197295 
L 495.1486 216.710574 
L 495.805495 216.702175 
L 496.46239 198.244889 
L 497.119285 212.799505 
L 497.77618 222.141627 
L 498.433075 216.114989 
L 499.08997 219.576374 
L 499.746865 211.877463 
L 500.40376 194.85971 
L 501.060655 217.564644 
L 501.71755 194.740264 
L 502.374445 215.87517 
L 503.03134 193.921988 
L 503.688235 215.019329 
L 504.34513 225.921847 
L 505.002025 206.595187 
L 505.65892 212.229443 
L 506.315815 204.677387 
L 506.97271 224.23787 
L 507.629605 221.686086 
L 508.2865 208.229926 
L 508.943395 202.936694 
L 509.60029 212.636411 
L 510.257185 211.262024 
L 510.91408 200.878384 
L 511.570975 208.820268 
L 512.22787 213.864261 
L 512.884765 202.037574 
L 513.54166 209.4543 
L 514.198555 201.613948 
L 514.85545 212.763243 
L 515.512345 221.681422 
L 516.16924 224.381199 
L 516.826135 216.546183 
L 517.48303 213.619258 
L 518.139925 211.240187 
L 518.79682 217.507155 
L 519.453715 199.070212 
L 520.11061 207.359831 
L 520.767505 207.525041 
L 521.4244 212.457702 
L 522.081295 209.998849 
L 522.73819 214.795567 
L 523.395085 212.845639 
L 524.05198 225.140827 
L 524.708875 207.060756 
L 525.36577 209.490427 
L 526.022665 207.823912 
L 526.67956 217.632259 
L 527.336455 208.830973 
L 527.99335 209.889943 
L 528.650245 214.576993 
L 529.30714 211.055665 
L 529.964035 223.215177 
L 530.62093 209.304632 
L 531.277825 212.521832 
L 531.93472 215.052366 
L 533.24851 193.532989 
L 533.905405 203.528997 
L 534.5623 203.233834 
L 535.219195 221.656144 
L 535.87609 216.757861 
L 536.532985 215.179646 
L 537.18988 208.853546 
L 537.846775 212.670742 
L 538.50367 198.787316 
L 539.160565 211.098315 
L 539.81746 213.581516 
L 540.474355 226.748792 
L 541.13125 229.615217 
L 541.788145 213.229796 
L 542.44504 217.720938 
L 543.101935 209.688101 
L 543.75883 216.872196 
L 544.415725 215.964043 
L 545.07262 207.754652 
L 545.729515 210.034402 
L 546.38641 221.108165 
L 547.043305 220.260131 
L 547.7002 204.82239 
L 548.357095 229.005613 
L 549.01399 204.127071 
L 549.670885 225.056545 
L 550.32778 206.197098 
L 550.984675 202.990423 
L 551.64157 224.88063 
L 552.298465 209.606508 
L 552.95536 213.635737 
L 553.612255 205.005355 
L 554.26915 227.528593 
L 554.926045 212.507619 
L 555.58294 202.500405 
L 556.239835 200.825172 
L 556.89673 222.09636 
L 557.553625 232.11914 
L 558.21052 223.702602 
L 558.867415 206.996536 
L 559.52431 210.804145 
L 560.181205 205.545051 
L 560.8381 207.856397 
L 561.494995 204.840297 
L 562.15189 208.525236 
L 562.808785 201.789323 
L 563.46568 213.62417 
L 564.122575 216.235959 
L 564.77947 219.40369 
L 565.436365 211.814026 
L 566.09326 211.801399 
L 566.750155 215.654335 
L 567.40705 230.71549 
L 568.063945 219.781384 
L 568.72084 212.846566 
L 569.377735 198.443496 
L 570.691525 239.115874 
L 571.34842 200.472258 
L 572.005315 195.511087 
L 572.66221 207.44358 
L 573.319105 205.334971 
L 573.976 207.615408 
L 574.632895 221.132715 
L 575.28979 213.270662 
L 575.946685 209.498236 
L 577.260475 210.028323 
L 577.91737 209.592836 
L 578.574265 211.737871 
L 579.23116 198.132505 
L 579.888055 213.996751 
L 580.54495 218.331638 
L 581.201845 218.381458 
L 581.85874 202.962582 
L 582.515635 216.618983 
L 583.17253 222.512736 
L 583.829425 211.347325 
L 584.48632 209.044749 
L 585.143215 210.428309 
L 585.80011 209.601596 
L 586.457005 241.266572 
L 587.1139 211.71609 
L 587.770795 201.992155 
L 588.42769 212.042814 
L 589.084585 203.820315 
L 589.74148 202.613355 
L 590.398375 209.204226 
L 591.05527 208.944308 
L 591.712165 204.343956 
L 592.36906 217.529142 
L 593.025955 195.850548 
L 593.68285 214.706789 
L 594.339745 209.937101 
L 594.99664 212.818075 
L 595.653535 200.848919 
L 596.31043 214.283186 
L 596.967325 207.68798 
L 598.281115 225.86194 
L 598.93801 200.854789 
L 599.594905 203.676054 
L 600.2518 208.659758 
L 600.908695 220.014235 
L 601.56559 199.511969 
L 602.222485 205.689173 
L 602.87938 200.227233 
L 603.536275 205.117155 
L 604.19317 214.289441 
L 605.50696 198.808316 
L 606.163855 199.804586 
L 606.82075 210.013522 
L 607.477645 205.143111 
L 608.13454 201.591173 
L 609.44833 217.177486 
L 610.105225 203.941737 
L 610.76212 204.258823 
L 611.419015 218.865001 
L 612.07591 223.835515 
L 612.732805 222.505782 
L 613.3897 217.327307 
L 614.046595 218.322338 
L 614.70349 207.180877 
L 615.360385 218.22696 
L 616.01728 199.07817 
L 616.674175 202.067831 
L 617.33107 205.668014 
L 617.987965 223.781017 
L 618.64486 216.314361 
L 619.301755 203.45105 
L 619.95865 218.918601 
L 620.615545 219.622475 
L 621.929335 206.093288 
L 622.58623 208.957092 
L 623.243125 194.067106 
L 623.90002 218.572726 
L 624.556915 205.631396 
L 625.21381 216.468478 
L 625.870705 222.708751 
L 626.5276 214.041552 
L 627.184495 207.640757 
L 627.84139 214.562426 
L 628.498285 209.501626 
L 629.15518 201.3728 
L 629.812075 207.333022 
L 630.46897 214.76453 
L 631.125865 205.175939 
L 631.78276 206.203833 
L 632.439655 206.465143 
L 633.09655 204.988224 
L 633.753445 227.97964 
L 634.41034 205.32218 
L 635.067235 200.951664 
L 635.72413 217.019768 
L 636.381025 205.332386 
L 637.03792 208.745621 
L 637.694815 199.917074 
L 638.35171 211.29894 
L 639.008605 214.737455 
L 639.6655 212.58915 
L 640.97929 203.617885 
L 641.636185 210.148178 
L 642.29308 205.479873 
L 642.949975 207.940127 
L 643.60687 237.66123 
L 644.263765 206.232962 
L 644.92066 220.605467 
L 645.577555 239.136447 
L 646.23445 210.731078 
L 646.891345 221.772166 
L 647.54824 220.615431 
L 648.205135 212.777857 
L 648.86203 215.113607 
L 649.518925 201.992168 
L 650.17582 198.285763 
L 650.832715 214.131449 
L 651.48961 196.908916 
L 652.146505 208.455388 
L 652.8034 217.451438 
L 653.460295 214.843597 
L 654.11719 193.831938 
L 654.774085 211.675122 
L 655.43098 211.282974 
L 656.087875 206.659229 
L 656.74477 216.136363 
L 657.401665 229.497835 
L 658.05856 213.543261 
L 658.715455 217.737252 
L 659.37235 204.487373 
L 660.029245 210.461558 
L 660.68614 204.872725 
L 661.343035 212.730576 
L 661.99993 203.895332 
L 662.656825 207.122769 
L 663.31372 214.445131 
L 663.970615 214.716123 
L 664.62751 211.330891 
L 665.284405 204.276232 
L 665.9413 212.033334 
L 666.598195 194.68141 
L 667.25509 191.800423 
L 667.911985 209.953891 
L 668.56888 224.7319 
L 669.225775 214.514896 
L 669.88267 219.353379 
L 670.539565 204.784535 
L 671.19646 203.572398 
L 671.853355 200.630708 
L 672.51025 223.097631 
L 673.167145 215.34985 
L 673.82404 211.277044 
L 674.480935 211.747916 
L 675.13783 214.111753 
L 675.794725 199.615766 
L 676.45162 204.391732 
L 677.108515 214.145231 
L 677.76541 193.327736 
L 678.422305 204.476167 
L 679.0792 204.894899 
L 679.736095 217.794235 
L 680.39299 222.437382 
L 681.049885 197.421144 
L 681.70678 216.747211 
L 682.363675 222.660231 
L 683.02057 234.97682 
L 683.677465 207.783198 
L 684.33436 230.615995 
L 684.991255 205.012618 
L 685.64815 223.800473 
L 686.305045 203.00211 
L 686.96194 208.767206 
L 687.618835 196.686507 
L 688.27573 211.727146 
L 688.932625 216.94694 
L 690.246415 193.230473 
L 692.2171 218.589988 
L 692.873995 211.202199 
L 693.53089 227.441636 
L 694.187785 230.554684 
L 694.84468 211.642951 
L 695.501575 202.975543 
L 696.15847 210.21006 
L 696.815365 216.147929 
L 697.47226 208.38008 
L 698.129155 212.282782 
L 698.78605 199.868218 
L 699.442945 205.631687 
L 700.09984 210.111031 
L 700.756735 205.493923 
L 701.41363 203.402539 
L 702.070525 205.600621 
L 702.72742 220.46394 
L 703.384315 201.396742 
L 704.04121 206.225522 
L 704.698105 197.947819 
L 704.698105 197.947819 
" clip-path="url(#p3e5cbfcd69)" style="fill: none; stroke-dasharray: 5.55,2.4; stroke-dashoffset: 0; stroke: #ff7f0e; stroke-width: 1.5"/>
   </g>
   <g id="patch_3">
    <path d="M 48.46 398.84 
L 48.46 18.08 
" style="fill: none; stroke: #000000; stroke-width: 0.8; stroke-linejoin: miter; stroke-linecap: square"/>
   </g>
   <g id="patch_4">
    <path d="M 705.355 398.84 
L 705.355 18.08 
" style="fill: none; stroke: #000000; stroke-width: 0.8; stroke-linejoin: miter; stroke-linecap: square"/>
   </g>
   <g id="patch_5">
    <path d="M 48.46 398.84 
L 705.355 398.84 
" style="fill: none; stroke: #000000; stroke-width: 0.8; stroke-linejoin: miter; stroke-linecap: square"/>
   </g>
   <g id="patch_6">
    <path d="M 48.46 18.08 
L 705.355 18.08 
" style="fill: none; stroke: #000000; stroke-width: 0.8; stroke-linejoin: miter; stroke-linecap: square"/>
   </g>
   <g id="text_21">
    <!-- dPSO Evolution (Simulation #4) -->
    <g transform="translate(281.765312 12.08) scale(0.12 -0.12)">
     <defs>
      <path id="DejaVuSans-64" d="M 2906 2969 
L 2906 4863 
L 3481 4863 
L 3481 0 
L 2906 0 
L 2906 525 
Q 2725 213 2448 61 
Q 2172 -91 1784 -91 
Q 1150 -91 751 415 
Q 353 922 353 1747 
Q 353 2572 751 3078 
Q 1150 3584 1784 3584 
Q 2172 3584 2448 3432 
Q 2725 3281 2906 2969 
z
M 947 1747 
Q 947 1113 1208 752 
Q 1469 391 1925 391 
Q 2381 391 2643 752 
Q 2906 1113 2906 1747 
Q 2906 2381 2643 2742 
Q 2381 3103 1925 3103 
Q 1469 3103 1208 2742 
Q 947 2381 947 1747 
z
" transform="scale(0.015625)"/>
      <path id="DejaVuSans-50" d="M 1259 4147 
L 1259 2394 
L 2053 2394 
Q 2494 2394 2734 2622 
Q 2975 2850 2975 3272 
Q 2975 3691 2734 3919 
Q 2494 4147 2053 4147 
L 1259 4147 
z
M 628 4666 
L 2053 4666 
Q 2838 4666 3239 4311 
Q 3641 3956 3641 3272 
Q 3641 2581 3239 2228 
Q 2838 1875 2053 1875 
L 1259 1875 
L 1259 0 
L 628 0 
L 628 4666 
z
" transform="scale(0.015625)"/>
      <path id="DejaVuSans-53" d="M 3425 4513 
L 3425 3897 
Q 3066 4069 2747 4153 
Q 2428 4238 2131 4238 
Q 1616 4238 1336 4038 
Q 1056 3838 1056 3469 
Q 1056 3159 1242 3001 
Q 1428 2844 1947 2747 
L 2328 2669 
Q 3034 2534 3370 2195 
Q 3706 1856 3706 1288 
Q 3706 609 3251 259 
Q 2797 -91 1919 -91 
Q 1588 -91 1214 -16 
Q 841 59 441 206 
L 441 856 
Q 825 641 1194 531 
Q 1563 422 1919 422 
Q 2459 422 2753 634 
Q 3047 847 3047 1241 
Q 3047 1584 2836 1778 
Q 2625 1972 2144 2069 
L 1759 2144 
Q 1053 2284 737 2584 
Q 422 2884 422 3419 
Q 422 4038 858 4394 
Q 1294 4750 2059 4750 
Q 2388 4750 2728 4690 
Q 3069 4631 3425 4513 
z
" transform="scale(0.015625)"/>
      <path id="DejaVuSans-45" d="M 628 4666 
L 3578 4666 
L 3578 4134 
L 1259 4134 
L 1259 2753 
L 3481 2753 
L 3481 2222 
L 1259 2222 
L 1259 531 
L 3634 531 
L 3634 0 
L 628 0 
L 628 4666 
z
" transform="scale(0.015625)"/>
      <path id="DejaVuSans-28" d="M 1984 4856 
Q 1566 4138 1362 3434 
Q 1159 2731 1159 2009 
Q 1159 1288 1364 580 
Q 1569 -128 1984 -844 
L 1484 -844 
Q 1016 -109 783 600 
Q 550 1309 550 2009 
Q 550 2706 781 3412 
Q 1013 4119 1484 4856 
L 1984 4856 
z
" transform="scale(0.015625)"/>
      <path id="DejaVuSans-6d" d="M 3328 2828 
Q 3544 3216 3844 3400 
Q 4144 3584 4550 3584 
Q 5097 3584 5394 3201 
Q 5691 2819 5691 2113 
L 5691 0 
L 5113 0 
L 5113 2094 
Q 5113 2597 4934 2840 
Q 4756 3084 4391 3084 
Q 3944 3084 3684 2787 
Q 3425 2491 3425 1978 
L 3425 0 
L 2847 0 
L 2847 2094 
Q 2847 2600 2669 2842 
Q 2491 3084 2119 3084 
Q 1678 3084 1418 2786 
Q 1159 2488 1159 1978 
L 1159 0 
L 581 0 
L 581 3500 
L 1159 3500 
L 1159 2956 
Q 1356 3278 1631 3431 
Q 1906 3584 2284 3584 
Q 2666 3584 2933 3390 
Q 3200 3197 3328 2828 
z
" transform="scale(0.015625)"/>
      <path id="DejaVuSans-23" d="M 3272 2816 
L 2363 2816 
L 2100 1772 
L 3016 1772 
L 3272 2816 
z
M 2803 4594 
L 2478 3297 
L 3391 3297 
L 3719 4594 
L 4219 4594 
L 3897 3297 
L 4872 3297 
L 4872 2816 
L 3775 2816 
L 3519 1772 
L 4513 1772 
L 4513 1294 
L 3397 1294 
L 3072 0 
L 2572 0 
L 2894 1294 
L 1978 1294 
L 1656 0 
L 1153 0 
L 1478 1294 
L 494 1294 
L 494 1772 
L 1594 1772 
L 1856 2816 
L 850 2816 
L 850 3297 
L 1978 3297 
L 2297 4594 
L 2803 4594 
z
" transform="scale(0.015625)"/>
      <path id="DejaVuSans-29" d="M 513 4856 
L 1013 4856 
Q 1481 4119 1714 3412 
Q 1947 2706 1947 2009 
Q 1947 1309 1714 600 
Q 1481 -109 1013 -844 
L 513 -844 
Q 928 -128 1133 580 
Q 1338 1288 1338 2009 
Q 1338 2731 1133 3434 
Q 928 4138 513 4856 
z
" transform="scale(0.015625)"/>
     </defs>
     <use xlink:href="#DejaVuSans-64"/>
     <use xlink:href="#DejaVuSans-50" transform="translate(63.476562 0)"/>
     <use xlink:href="#DejaVuSans-53" transform="translate(123.779297 0)"/>
     <use xlink:href="#DejaVuSans-4f" transform="translate(187.255859 0)"/>
     <use xlink:href="#DejaVuSans-20" transform="translate(265.966797 0)"/>
     <use xlink:href="#DejaVuSans-45" transform="translate(297.753906 0)"/>
     <use xlink:href="#DejaVuSans-76" transform="translate(360.9375 0)"/>
     <use xlink:href="#DejaVuSans-6f" transform="translate(420.117188 0)"/>
     <use xlink:href="#DejaVuSans-6c" transform="translate(481.298828 0)"/>
     <use xlink:href="#DejaVuSans-75" transform="translate(509.082031 0)"/>
     <use xlink:href="#DejaVuSans-74" transform="translate(572.460938 0)"/>
     <use xlink:href="#DejaVuSans-69" transform="translate(611.669922 0)"/>
     <use xlink:href="#DejaVuSans-6f" transform="translate(639.453125 0)"/>
     <use xlink:href="#DejaVuSans-6e" transform="translate(700.634766 0)"/>
     <use xlink:href="#DejaVuSans-20" transform="translate(764.013672 0)"/>
     <use xlink:href="#DejaVuSans-28" transform="translate(795.800781 0)"/>
     <use xlink:href="#DejaVuSans-53" transform="translate(834.814453 0)"/>
     <use xlink:href="#DejaVuSans-69" transform="translate(898.291016 0)"/>
     <use xlink:href="#DejaVuSans-6d" transform="translate(926.074219 0)"/>
     <use xlink:href="#DejaVuSans-75" transform="translate(1023.486328 0)"/>
     <use xlink:href="#DejaVuSans-6c" transform="translate(1086.865234 0)"/>
     <use xlink:href="#DejaVuSans-61" transform="translate(1114.648438 0)"/>
     <use xlink:href="#DejaVuSans-74" transform="translate(1175.927734 0)"/>
     <use xlink:href="#DejaVuSans-69" transform="translate(1215.136719 0)"/>
     <use xlink:href="#DejaVuSans-6f" transform="translate(1242.919922 0)"/>
     <use xlink:href="#DejaVuSans-6e" transform="translate(1304.101562 0)"/>
     <use xlink:href="#DejaVuSans-20" transform="translate(1367.480469 0)"/>
     <use xlink:href="#DejaVuSans-23" transform="translate(1399.267578 0)"/>
     <use xlink:href="#DejaVuSans-34" transform="translate(1483.056641 0)"/>
     <use xlink:href="#DejaVuSans-29" transform="translate(1546.679688 0)"/>
    </g>
   </g>
   <g id="legend_1">
    <g id="patch_7">
     <path d="M 549.897187 55.43625 
L 698.355 55.43625 
Q 700.355 55.43625 700.355 53.43625 
L 700.355 25.08 
Q 700.355 23.08 698.355 23.08 
L 549.897187 23.08 
Q 547.897187 23.08 547.897187 25.08 
L 547.897187 53.43625 
Q 547.897187 55.43625 549.897187 55.43625 
z
" style="fill: #ffffff; opacity: 0.8; stroke: #cccccc; stroke-linejoin: miter"/>
    </g>
    <g id="line2d_39">
     <path d="M 551.897187 31.178437 
L 561.897187 31.178437 
L 561.897187 31.178437 
L 571.897187 31.178437 
L 571.897187 31.178437 
" style="fill: none; stroke: #1f77b4; stroke-width: 1.5; stroke-linecap: square"/>
    </g>
    <g id="text_22">
     <!-- Best Fitness (dPSO) -->
     <g transform="translate(579.897187 34.678437) scale(0.1 -0.1)">
      <defs>
       <path id="DejaVuSans-42" d="M 1259 2228 
L 1259 519 
L 2272 519 
Q 2781 519 3026 730 
Q 3272 941 3272 1375 
Q 3272 1813 3026 2020 
Q 2781 2228 2272 2228 
L 1259 2228 
z
M 1259 4147 
L 1259 2741 
L 2194 2741 
Q 2656 2741 2882 2914 
Q 3109 3088 3109 3444 
Q 3109 3797 2882 3972 
Q 2656 4147 2194 4147 
L 1259 4147 
z
M 628 4666 
L 2241 4666 
Q 2963 4666 3353 4366 
Q 3744 4066 3744 3513 
Q 3744 3084 3544 2831 
Q 3344 2578 2956 2516 
Q 3422 2416 3680 2098 
Q 3938 1781 3938 1306 
Q 3938 681 3513 340 
Q 3088 0 2303 0 
L 628 0 
L 628 4666 
z
" transform="scale(0.015625)"/>
       <path id="DejaVuSans-73" d="M 2834 3397 
L 2834 2853 
Q 2591 2978 2328 3040 
Q 2066 3103 1784 3103 
Q 1356 3103 1142 2972 
Q 928 2841 928 2578 
Q 928 2378 1081 2264 
Q 1234 2150 1697 2047 
L 1894 2003 
Q 2506 1872 2764 1633 
Q 3022 1394 3022 966 
Q 3022 478 2636 193 
Q 2250 -91 1575 -91 
Q 1294 -91 989 -36 
Q 684 19 347 128 
L 347 722 
Q 666 556 975 473 
Q 1284 391 1588 391 
Q 1994 391 2212 530 
Q 2431 669 2431 922 
Q 2431 1156 2273 1281 
Q 2116 1406 1581 1522 
L 1381 1569 
Q 847 1681 609 1914 
Q 372 2147 372 2553 
Q 372 3047 722 3315 
Q 1072 3584 1716 3584 
Q 2034 3584 2315 3537 
Q 2597 3491 2834 3397 
z
" transform="scale(0.015625)"/>
       <path id="DejaVuSans-46" d="M 628 4666 
L 3309 4666 
L 3309 4134 
L 1259 4134 
L 1259 2759 
L 3109 2759 
L 3109 2228 
L 1259 2228 
L 1259 0 
L 628 0 
L 628 4666 
z
" transform="scale(0.015625)"/>
      </defs>
      <use xlink:href="#DejaVuSans-42"/>
      <use xlink:href="#DejaVuSans-65" transform="translate(68.603516 0)"/>
      <use xlink:href="#DejaVuSans-73" transform="translate(130.126953 0)"/>
      <use xlink:href="#DejaVuSans-74" transform="translate(182.226562 0)"/>
      <use xlink:href="#DejaVuSans-20" transform="translate(221.435547 0)"/>
      <use xlink:href="#DejaVuSans-46" transform="translate(253.222656 0)"/>
      <use xlink:href="#DejaVuSans-69" transform="translate(303.492188 0)"/>
      <use xlink:href="#DejaVuSans-74" transform="translate(331.275391 0)"/>
      <use xlink:href="#DejaVuSans-6e" transform="translate(370.484375 0)"/>
      <use xlink:href="#DejaVuSans-65" transform="translate(433.863281 0)"/>
      <use xlink:href="#DejaVuSans-73" transform="translate(495.386719 0)"/>
      <use xlink:href="#DejaVuSans-73" transform="translate(547.486328 0)"/>
      <use xlink:href="#DejaVuSans-20" transform="translate(599.585938 0)"/>
      <use xlink:href="#DejaVuSans-28" transform="translate(631.373047 0)"/>
      <use xlink:href="#DejaVuSans-64" transform="translate(670.386719 0)"/>
      <use xlink:href="#DejaVuSans-50" transform="translate(733.863281 0)"/>
      <use xlink:href="#DejaVuSans-53" transform="translate(794.166016 0)"/>
      <use xlink:href="#DejaVuSans-4f" transform="translate(857.642578 0)"/>
      <use xlink:href="#DejaVuSans-29" transform="translate(936.353516 0)"/>
     </g>
    </g>
    <g id="line2d_40">
     <path d="M 551.897187 45.856562 
L 561.897187 45.856562 
L 571.897187 45.856562 
" style="fill: none; stroke-dasharray: 5.55,2.4; stroke-dashoffset: 0; stroke: #ff7f0e; stroke-width: 1.5"/>
    </g>
    <g id="text_23">
     <!-- Average Fitness (dPSO) -->
     <g transform="translate(579.897187 49.356562) scale(0.1 -0.1)">
      <defs>
       <path id="DejaVuSans-41" d="M 2188 4044 
L 1331 1722 
L 3047 1722 
L 2188 4044 
z
M 1831 4666 
L 2547 4666 
L 4325 0 
L 3669 0 
L 3244 1197 
L 1141 1197 
L 716 0 
L 50 0 
L 1831 4666 
z
" transform="scale(0.015625)"/>
       <path id="DejaVuSans-67" d="M 2906 1791 
Q 2906 2416 2648 2759 
Q 2391 3103 1925 3103 
Q 1463 3103 1205 2759 
Q 947 2416 947 1791 
Q 947 1169 1205 825 
Q 1463 481 1925 481 
Q 2391 481 2648 825 
Q 2906 1169 2906 1791 
z
M 3481 434 
Q 3481 -459 3084 -895 
Q 2688 -1331 1869 -1331 
Q 1566 -1331 1297 -1286 
Q 1028 -1241 775 -1147 
L 775 -588 
Q 1028 -725 1275 -790 
Q 1522 -856 1778 -856 
Q 2344 -856 2625 -561 
Q 2906 -266 2906 331 
L 2906 616 
Q 2728 306 2450 153 
Q 2172 0 1784 0 
Q 1141 0 747 490 
Q 353 981 353 1791 
Q 353 2603 747 3093 
Q 1141 3584 1784 3584 
Q 2172 3584 2450 3431 
Q 2728 3278 2906 2969 
L 2906 3500 
L 3481 3500 
L 3481 434 
z
" transform="scale(0.015625)"/>
      </defs>
      <use xlink:href="#DejaVuSans-41"/>
      <use xlink:href="#DejaVuSans-76" transform="translate(62.533203 0)"/>
      <use xlink:href="#DejaVuSans-65" transform="translate(121.712891 0)"/>
      <use xlink:href="#DejaVuSans-72" transform="translate(183.236328 0)"/>
      <use xlink:href="#DejaVuSans-61" transform="translate(224.349609 0)"/>
      <use xlink:href="#DejaVuSans-67" transform="translate(285.628906 0)"/>
      <use xlink:href="#DejaVuSans-65" transform="translate(349.105469 0)"/>
      <use xlink:href="#DejaVuSans-20" transform="translate(410.628906 0)"/>
      <use xlink:href="#DejaVuSans-46" transform="translate(442.416016 0)"/>
      <use xlink:href="#DejaVuSans-69" transform="translate(492.685547 0)"/>
      <use xlink:href="#DejaVuSans-74" transform="translate(520.46875 0)"/>
      <use xlink:href="#DejaVuSans-6e" transform="translate(559.677734 0)"/>
      <use xlink:href="#DejaVuSans-65" transform="translate(623.056641 0)"/>
      <use xlink:href="#DejaVuSans-73" transform="translate(684.580078 0)"/>
      <use xlink:href="#DejaVuSans-73" transform="translate(736.679688 0)"/>
      <use xlink:href="#DejaVuSans-20" transform="translate(788.779297 0)"/>
      <use xlink:href="#DejaVuSans-28" transform="translate(820.566406 0)"/>
      <use xlink:href="#DejaVuSans-64" transform="translate(859.580078 0)"/>
      <use xlink:href="#DejaVuSans-50" transform="translate(923.056641 0)"/>
      <use xlink:href="#DejaVuSans-53" transform="translate(983.359375 0)"/>
      <use xlink:href="#DejaVuSans-4f" transform="translate(1046.835938 0)"/>
      <use xlink:href="#DejaVuSans-29" transform="translate(1125.546875 0)"/>
     </g>
    </g>
   </g>
  </g>
 </g>
 <defs>
  <clipPath id="p3e5cbfcd69">
   <rect x="48.46" y="18.08" width="656.895" height="380.76"/>
  </clipPath>
 </defs>
</svg>
