<?xml version="1.0" encoding="utf-8" standalone="no"?>
<!DOCTYPE svg PUBLIC "-//W3C//DTD SVG 1.1//EN"
  "http://www.w3.org/Graphics/SVG/1.1/DTD/svg11.dtd">
<svg xmlns:xlink="http://www.w3.org/1999/xlink" width="720pt" height="432pt" viewBox="0 0 720 432" xmlns="http://www.w3.org/2000/svg" version="1.1">
 <metadata>
  <rdf:RDF xmlns:dc="http://purl.org/dc/elements/1.1/" xmlns:cc="http://creativecommons.org/ns#" xmlns:rdf="http://www.w3.org/1999/02/22-rdf-syntax-ns#">
   <cc:Work>
    <dc:type rdf:resource="http://purl.org/dc/dcmitype/StillImage"/>
    <dc:date>2026-07-15T14:12:49.988392</dc:date>
    <dc:format>image/svg+xml</dc:format>
    <dc:creator>
     <cc:Agent>
      <dc:title>Matplotlib v3.10.9, https://matplotlib.org/</dc:title>
     </cc:Agent>
    </dc:creator>
   </cc:Work>
  </rdf:RDF>
 </metadata>
 <defs>
  <style type="text/css">*{stroke-linejoin: round; stroke-linecap: butt}</style>
 </defs>
 <g id="figure_1">
  <g id="patch_1">
   <path d="M 0 432 
L 720 432 
L 720 0 
L 0 0 
z
" style="fill: #ffffff"/>
  </g>
  <g id="axes_1">
   <g id="patch_2">
    <path d="M 48.28 398.84 
L 705.355 398.84 
L 705.355 18.08 
L 48.28 18.08 
z
" style="fill: #ffffff"/>
   </g>
   <g id="matplotlib.axis_1">
    <g id="xtick_1">
     <g id="line2d_1">
      <path d="M 48.28 398.84 
L 48.28 18.08 
" clip-path="url(#p1421d9ba14)" style="fill: none; stroke-dasharray: 0.8,1.32; stroke-dashoffset: 0; stroke: #b0b0b0; stroke-opacity: 0.7; stroke-width: 0.8"/>
     </g>
     <g id="line2d_2">
      <defs>
       <path id="m327d27f21b" d="M 0 0 
L 0 3.5 
" style="stroke: #000000; stroke-width: 0.8"/>
      </defs>
      <g>
       <use xlink:href="#m327d27f21b" x="48.28" y="398.84" style="stroke: #000000; stroke-width: 0.8"/>
      </g>
     </g>
     <g id="text_1">
      <!-- 0 -->
      <g transform="translate(45.09875 413.438437) scale(0.1 -0.1)">
       <defs>
        <path id="DejaVuSans-30" d="M 2034 4250 
Q 1547 4250 1301 3770 
Q 1056 3291 1056 2328 
Q 1056 1369 1301 889 
Q 1547 409 2034 409 
Q 2525 409 2770 889 
Q 3016 1369 3016 2328 
Q 3016 3291 2770 3770 
Q 2525 4250 2034 4250 
z
M 2034 4750 
Q 2819 4750 3233 4129 
Q 3647 3509 3647 2328 
Q 3647 1150 3233 529 
Q 2819 -91 2034 -91 
Q 1250 -91 836 529 
Q 422 1150 422 2328 
Q 422 3509 836 4129 
Q 1250 4750 2034 4750 
z
" transform="scale(0.015625)"/>
       </defs>
       <use xlink:href="#DejaVuSans-30"/>
      </g>
     </g>
    </g>
    <g id="xtick_2">
     <g id="line2d_3">
      <path d="M 113.9875 398.84 
L 113.9875 18.08 
" clip-path="url(#p1421d9ba14)" style="fill: none; stroke-dasharray: 0.8,1.32; stroke-dashoffset: 0; stroke: #b0b0b0; stroke-opacity: 0.7; stroke-width: 0.8"/>
     </g>
     <g id="line2d_4">
      <g>
       <use xlink:href="#m327d27f21b" x="113.9875" y="398.84" style="stroke: #000000; stroke-width: 0.8"/>
      </g>
     </g>
     <g id="text_2">
      <!-- 100 -->
      <g transform="translate(104.44375 413.438437) scale(0.1 -0.1)">
       <defs>
        <path id="DejaVuSans-31" d="M 794 531 
L 1825 531 
L 1825 4091 
L 703 3866 
L 703 4441 
L 1819 4666 
L 2450 4666 
L 2450 531 
L 3481 531 
L 3481 0 
L 794 0 
L 794 531 
z
" transform="scale(0.015625)"/>
       </defs>
       <use xlink:href="#DejaVuSans-31"/>
       <use xlink:href="#DejaVuSans-30" transform="translate(63.623047 0)"/>
       <use xlink:href="#DejaVuSans-30" transform="translate(127.246094 0)"/>
      </g>
     </g>
    </g>
    <g id="xtick_3">
     <g id="line2d_5">
      <path d="M 179.695 398.84 
L 179.695 18.08 
" clip-path="url(#p1421d9ba14)" style="fill: none; stroke-dasharray: 0.8,1.32; stroke-dashoffset: 0; stroke: #b0b0b0; stroke-opacity: 0.7; stroke-width: 0.8"/>
     </g>
     <g id="line2d_6">
      <g>
       <use xlink:href="#m327d27f21b" x="179.695" y="398.84" style="stroke: #000000; stroke-width: 0.8"/>
      </g>
     </g>
     <g id="text_3">
      <!-- 200 -->
      <g transform="translate(170.15125 413.438437) scale(0.1 -0.1)">
       <defs>
        <path id="DejaVuSans-32" d="M 1228 531 
L 3431 531 
L 3431 0 
L 469 0 
L 469 531 
Q 828 903 1448 1529 
Q 2069 2156 2228 2338 
Q 2531 2678 2651 2914 
Q 2772 3150 2772 3378 
Q 2772 3750 2511 3984 
Q 2250 4219 1831 4219 
Q 1534 4219 1204 4116 
Q 875 4013 500 3803 
L 500 4441 
Q 881 4594 1212 4672 
Q 1544 4750 1819 4750 
Q 2544 4750 2975 4387 
Q 3406 4025 3406 3419 
Q 3406 3131 3298 2873 
Q 3191 2616 2906 2266 
Q 2828 2175 2409 1742 
Q 1991 1309 1228 531 
z
" transform="scale(0.015625)"/>
       </defs>
       <use xlink:href="#DejaVuSans-32"/>
       <use xlink:href="#DejaVuSans-30" transform="translate(63.623047 0)"/>
       <use xlink:href="#DejaVuSans-30" transform="translate(127.246094 0)"/>
      </g>
     </g>
    </g>
    <g id="xtick_4">
     <g id="line2d_7">
      <path d="M 245.4025 398.84 
L 245.4025 18.08 
" clip-path="url(#p1421d9ba14)" style="fill: none; stroke-dasharray: 0.8,1.32; stroke-dashoffset: 0; stroke: #b0b0b0; stroke-opacity: 0.7; stroke-width: 0.8"/>
     </g>
     <g id="line2d_8">
      <g>
       <use xlink:href="#m327d27f21b" x="245.4025" y="398.84" style="stroke: #000000; stroke-width: 0.8"/>
      </g>
     </g>
     <g id="text_4">
      <!-- 300 -->
      <g transform="translate(235.85875 413.438437) scale(0.1 -0.1)">
       <defs>
        <path id="DejaVuSans-33" d="M 2597 2516 
Q 3050 2419 3304 2112 
Q 3559 1806 3559 1356 
Q 3559 666 3084 287 
Q 2609 -91 1734 -91 
Q 1441 -91 1130 -33 
Q 819 25 488 141 
L 488 750 
Q 750 597 1062 519 
Q 1375 441 1716 441 
Q 2309 441 2620 675 
Q 2931 909 2931 1356 
Q 2931 1769 2642 2001 
Q 2353 2234 1838 2234 
L 1294 2234 
L 1294 2753 
L 1863 2753 
Q 2328 2753 2575 2939 
Q 2822 3125 2822 3475 
Q 2822 3834 2567 4026 
Q 2313 4219 1838 4219 
Q 1578 4219 1281 4162 
Q 984 4106 628 3988 
L 628 4550 
Q 988 4650 1302 4700 
Q 1616 4750 1894 4750 
Q 2613 4750 3031 4423 
Q 3450 4097 3450 3541 
Q 3450 3153 3228 2886 
Q 3006 2619 2597 2516 
z
" transform="scale(0.015625)"/>
       </defs>
       <use xlink:href="#DejaVuSans-33"/>
       <use xlink:href="#DejaVuSans-30" transform="translate(63.623047 0)"/>
       <use xlink:href="#DejaVuSans-30" transform="translate(127.246094 0)"/>
      </g>
     </g>
    </g>
    <g id="xtick_5">
     <g id="line2d_9">
      <path d="M 311.11 398.84 
L 311.11 18.08 
" clip-path="url(#p1421d9ba14)" style="fill: none; stroke-dasharray: 0.8,1.32; stroke-dashoffset: 0; stroke: #b0b0b0; stroke-opacity: 0.7; stroke-width: 0.8"/>
     </g>
     <g id="line2d_10">
      <g>
       <use xlink:href="#m327d27f21b" x="311.11" y="398.84" style="stroke: #000000; stroke-width: 0.8"/>
      </g>
     </g>
     <g id="text_5">
      <!-- 400 -->
      <g transform="translate(301.56625 413.438437) scale(0.1 -0.1)">
       <defs>
        <path id="DejaVuSans-34" d="M 2419 4116 
L 825 1625 
L 2419 1625 
L 2419 4116 
z
M 2253 4666 
L 3047 4666 
L 3047 1625 
L 3713 1625 
L 3713 1100 
L 3047 1100 
L 3047 0 
L 2419 0 
L 2419 1100 
L 313 1100 
L 313 1709 
L 2253 4666 
z
" transform="scale(0.015625)"/>
       </defs>
       <use xlink:href="#DejaVuSans-34"/>
       <use xlink:href="#DejaVuSans-30" transform="translate(63.623047 0)"/>
       <use xlink:href="#DejaVuSans-30" transform="translate(127.246094 0)"/>
      </g>
     </g>
    </g>
    <g id="xtick_6">
     <g id="line2d_11">
      <path d="M 376.8175 398.84 
L 376.8175 18.08 
" clip-path="url(#p1421d9ba14)" style="fill: none; stroke-dasharray: 0.8,1.32; stroke-dashoffset: 0; stroke: #b0b0b0; stroke-opacity: 0.7; stroke-width: 0.8"/>
     </g>
     <g id="line2d_12">
      <g>
       <use xlink:href="#m327d27f21b" x="376.8175" y="398.84" style="stroke: #000000; stroke-width: 0.8"/>
      </g>
     </g>
     <g id="text_6">
      <!-- 500 -->
      <g transform="translate(367.27375 413.438437) scale(0.1 -0.1)">
       <defs>
        <path id="DejaVuSans-35" d="M 691 4666 
L 3169 4666 
L 3169 4134 
L 1269 4134 
L 1269 2991 
Q 1406 3038 1543 3061 
Q 1681 3084 1819 3084 
Q 2600 3084 3056 2656 
Q 3513 2228 3513 1497 
Q 3513 744 3044 326 
Q 2575 -91 1722 -91 
Q 1428 -91 1123 -41 
Q 819 9 494 109 
L 494 744 
Q 775 591 1075 516 
Q 1375 441 1709 441 
Q 2250 441 2565 725 
Q 2881 1009 2881 1497 
Q 2881 1984 2565 2268 
Q 2250 2553 1709 2553 
Q 1456 2553 1204 2497 
Q 953 2441 691 2322 
L 691 4666 
z
" transform="scale(0.015625)"/>
       </defs>
       <use xlink:href="#DejaVuSans-35"/>
       <use xlink:href="#DejaVuSans-30" transform="translate(63.623047 0)"/>
       <use xlink:href="#DejaVuSans-30" transform="translate(127.246094 0)"/>
      </g>
     </g>
    </g>
    <g id="xtick_7">
     <g id="line2d_13">
      <path d="M 442.525 398.84 
L 442.525 18.08 
" clip-path="url(#p1421d9ba14)" style="fill: none; stroke-dasharray: 0.8,1.32; stroke-dashoffset: 0; stroke: #b0b0b0; stroke-opacity: 0.7; stroke-width: 0.8"/>
     </g>
     <g id="line2d_14">
      <g>
       <use xlink:href="#m327d27f21b" x="442.525" y="398.84" style="stroke: #000000; stroke-width: 0.8"/>
      </g>
     </g>
     <g id="text_7">
      <!-- 600 -->
      <g transform="translate(432.98125 413.438437) scale(0.1 -0.1)">
       <defs>
        <path id="DejaVuSans-36" d="M 2113 2584 
Q 1688 2584 1439 2293 
Q 1191 2003 1191 1497 
Q 1191 994 1439 701 
Q 1688 409 2113 409 
Q 2538 409 2786 701 
Q 3034 994 3034 1497 
Q 3034 2003 2786 2293 
Q 2538 2584 2113 2584 
z
M 3366 4563 
L 3366 3988 
Q 3128 4100 2886 4159 
Q 2644 4219 2406 4219 
Q 1781 4219 1451 3797 
Q 1122 3375 1075 2522 
Q 1259 2794 1537 2939 
Q 1816 3084 2150 3084 
Q 2853 3084 3261 2657 
Q 3669 2231 3669 1497 
Q 3669 778 3244 343 
Q 2819 -91 2113 -91 
Q 1303 -91 875 529 
Q 447 1150 447 2328 
Q 447 3434 972 4092 
Q 1497 4750 2381 4750 
Q 2619 4750 2861 4703 
Q 3103 4656 3366 4563 
z
" transform="scale(0.015625)"/>
       </defs>
       <use xlink:href="#DejaVuSans-36"/>
       <use xlink:href="#DejaVuSans-30" transform="translate(63.623047 0)"/>
       <use xlink:href="#DejaVuSans-30" transform="translate(127.246094 0)"/>
      </g>
     </g>
    </g>
    <g id="xtick_8">
     <g id="line2d_15">
      <path d="M 508.2325 398.84 
L 508.2325 18.08 
" clip-path="url(#p1421d9ba14)" style="fill: none; stroke-dasharray: 0.8,1.32; stroke-dashoffset: 0; stroke: #b0b0b0; stroke-opacity: 0.7; stroke-width: 0.8"/>
     </g>
     <g id="line2d_16">
      <g>
       <use xlink:href="#m327d27f21b" x="508.2325" y="398.84" style="stroke: #000000; stroke-width: 0.8"/>
      </g>
     </g>
     <g id="text_8">
      <!-- 700 -->
      <g transform="translate(498.68875 413.438437) scale(0.1 -0.1)">
       <defs>
        <path id="DejaVuSans-37" d="M 525 4666 
L 3525 4666 
L 3525 4397 
L 1831 0 
L 1172 0 
L 2766 4134 
L 525 4134 
L 525 4666 
z
" transform="scale(0.015625)"/>
       </defs>
       <use xlink:href="#DejaVuSans-37"/>
       <use xlink:href="#DejaVuSans-30" transform="translate(63.623047 0)"/>
       <use xlink:href="#DejaVuSans-30" transform="translate(127.246094 0)"/>
      </g>
     </g>
    </g>
    <g id="xtick_9">
     <g id="line2d_17">
      <path d="M 573.94 398.84 
L 573.94 18.08 
" clip-path="url(#p1421d9ba14)" style="fill: none; stroke-dasharray: 0.8,1.32; stroke-dashoffset: 0; stroke: #b0b0b0; stroke-opacity: 0.7; stroke-width: 0.8"/>
     </g>
     <g id="line2d_18">
      <g>
       <use xlink:href="#m327d27f21b" x="573.94" y="398.84" style="stroke: #000000; stroke-width: 0.8"/>
      </g>
     </g>
     <g id="text_9">
      <!-- 800 -->
      <g transform="translate(564.39625 413.438437) scale(0.1 -0.1)">
       <defs>
        <path id="DejaVuSans-38" d="M 2034 2216 
Q 1584 2216 1326 1975 
Q 1069 1734 1069 1313 
Q 1069 891 1326 650 
Q 1584 409 2034 409 
Q 2484 409 2743 651 
Q 3003 894 3003 1313 
Q 3003 1734 2745 1975 
Q 2488 2216 2034 2216 
z
M 1403 2484 
Q 997 2584 770 2862 
Q 544 3141 544 3541 
Q 544 4100 942 4425 
Q 1341 4750 2034 4750 
Q 2731 4750 3128 4425 
Q 3525 4100 3525 3541 
Q 3525 3141 3298 2862 
Q 3072 2584 2669 2484 
Q 3125 2378 3379 2068 
Q 3634 1759 3634 1313 
Q 3634 634 3220 271 
Q 2806 -91 2034 -91 
Q 1263 -91 848 271 
Q 434 634 434 1313 
Q 434 1759 690 2068 
Q 947 2378 1403 2484 
z
M 1172 3481 
Q 1172 3119 1398 2916 
Q 1625 2713 2034 2713 
Q 2441 2713 2670 2916 
Q 2900 3119 2900 3481 
Q 2900 3844 2670 4047 
Q 2441 4250 2034 4250 
Q 1625 4250 1398 4047 
Q 1172 3844 1172 3481 
z
" transform="scale(0.015625)"/>
       </defs>
       <use xlink:href="#DejaVuSans-38"/>
       <use xlink:href="#DejaVuSans-30" transform="translate(63.623047 0)"/>
       <use xlink:href="#DejaVuSans-30" transform="translate(127.246094 0)"/>
      </g>
     </g>
    </g>
    <g id="xtick_10">
     <g id="line2d_19">
      <path d="M 639.6475 398.84 
L 639.6475 18.08 
" clip-path="url(#p1421d9ba14)" style="fill: none; stroke-dasharray: 0.8,1.32; stroke-dashoffset: 0; stroke: #b0b0b0; stroke-opacity: 0.7; stroke-width: 0.8"/>
     </g>
     <g id="line2d_20">
      <g>
       <use xlink:href="#m327d27f21b" x="639.6475" y="398.84" style="stroke: #000000; stroke-width: 0.8"/>
      </g>
     </g>
     <g id="text_10">
      <!-- 900 -->
      <g transform="translate(630.10375 413.438437) scale(0.1 -0.1)">
       <defs>
        <path id="DejaVuSans-39" d="M 703 97 
L 703 672 
Q 941 559 1184 500 
Q 1428 441 1663 441 
Q 2288 441 2617 861 
Q 2947 1281 2994 2138 
Q 2813 1869 2534 1725 
Q 2256 1581 1919 1581 
Q 1219 1581 811 2004 
Q 403 2428 403 3163 
Q 403 3881 828 4315 
Q 1253 4750 1959 4750 
Q 2769 4750 3195 4129 
Q 3622 3509 3622 2328 
Q 3622 1225 3098 567 
Q 2575 -91 1691 -91 
Q 1453 -91 1209 -44 
Q 966 3 703 97 
z
M 1959 2075 
Q 2384 2075 2632 2365 
Q 2881 2656 2881 3163 
Q 2881 3666 2632 3958 
Q 2384 4250 1959 4250 
Q 1534 4250 1286 3958 
Q 1038 3666 1038 3163 
Q 1038 2656 1286 2365 
Q 1534 2075 1959 2075 
z
" transform="scale(0.015625)"/>
       </defs>
       <use xlink:href="#DejaVuSans-39"/>
       <use xlink:href="#DejaVuSans-30" transform="translate(63.623047 0)"/>
       <use xlink:href="#DejaVuSans-30" transform="translate(127.246094 0)"/>
      </g>
     </g>
    </g>
    <g id="xtick_11">
     <g id="line2d_21">
      <path d="M 705.355 398.84 
L 705.355 18.08 
" clip-path="url(#p1421d9ba14)" style="fill: none; stroke-dasharray: 0.8,1.32; stroke-dashoffset: 0; stroke: #b0b0b0; stroke-opacity: 0.7; stroke-width: 0.8"/>
     </g>
     <g id="line2d_22">
      <g>
       <use xlink:href="#m327d27f21b" x="705.355" y="398.84" style="stroke: #000000; stroke-width: 0.8"/>
      </g>
     </g>
     <g id="text_11">
      <!-- 1000 -->
      <g transform="translate(692.63 413.438437) scale(0.1 -0.1)">
       <use xlink:href="#DejaVuSans-31"/>
       <use xlink:href="#DejaVuSans-30" transform="translate(63.623047 0)"/>
       <use xlink:href="#DejaVuSans-30" transform="translate(127.246094 0)"/>
       <use xlink:href="#DejaVuSans-30" transform="translate(190.869141 0)"/>
      </g>
     </g>
    </g>
    <g id="text_12">
     <!-- Iteration / Generation -->
     <g transform="translate(322.853438 427.116562) scale(0.1 -0.1)">
      <defs>
       <path id="DejaVuSans-49" d="M 628 4666 
L 1259 4666 
L 1259 0 
L 628 0 
L 628 4666 
z
" transform="scale(0.015625)"/>
       <path id="DejaVuSans-74" d="M 1172 4494 
L 1172 3500 
L 2356 3500 
L 2356 3053 
L 1172 3053 
L 1172 1153 
Q 1172 725 1289 603 
Q 1406 481 1766 481 
L 2356 481 
L 2356 0 
L 1766 0 
Q 1100 0 847 248 
Q 594 497 594 1153 
L 594 3053 
L 172 3053 
L 172 3500 
L 594 3500 
L 594 4494 
L 1172 4494 
z
" transform="scale(0.015625)"/>
       <path id="DejaVuSans-65" d="M 3597 1894 
L 3597 1613 
L 953 1613 
Q 991 1019 1311 708 
Q 1631 397 2203 397 
Q 2534 397 2845 478 
Q 3156 559 3463 722 
L 3463 178 
Q 3153 47 2828 -22 
Q 2503 -91 2169 -91 
Q 1331 -91 842 396 
Q 353 884 353 1716 
Q 353 2575 817 3079 
Q 1281 3584 2069 3584 
Q 2775 3584 3186 3129 
Q 3597 2675 3597 1894 
z
M 3022 2063 
Q 3016 2534 2758 2815 
Q 2500 3097 2075 3097 
Q 1594 3097 1305 2825 
Q 1016 2553 972 2059 
L 3022 2063 
z
" transform="scale(0.015625)"/>
       <path id="DejaVuSans-72" d="M 2631 2963 
Q 2534 3019 2420 3045 
Q 2306 3072 2169 3072 
Q 1681 3072 1420 2755 
Q 1159 2438 1159 1844 
L 1159 0 
L 581 0 
L 581 3500 
L 1159 3500 
L 1159 2956 
Q 1341 3275 1631 3429 
Q 1922 3584 2338 3584 
Q 2397 3584 2469 3576 
Q 2541 3569 2628 3553 
L 2631 2963 
z
" transform="scale(0.015625)"/>
       <path id="DejaVuSans-61" d="M 2194 1759 
Q 1497 1759 1228 1600 
Q 959 1441 959 1056 
Q 959 750 1161 570 
Q 1363 391 1709 391 
Q 2188 391 2477 730 
Q 2766 1069 2766 1631 
L 2766 1759 
L 2194 1759 
z
M 3341 1997 
L 3341 0 
L 2766 0 
L 2766 531 
Q 2569 213 2275 61 
Q 1981 -91 1556 -91 
Q 1019 -91 701 211 
Q 384 513 384 1019 
Q 384 1609 779 1909 
Q 1175 2209 1959 2209 
L 2766 2209 
L 2766 2266 
Q 2766 2663 2505 2880 
Q 2244 3097 1772 3097 
Q 1472 3097 1187 3025 
Q 903 2953 641 2809 
L 641 3341 
Q 956 3463 1253 3523 
Q 1550 3584 1831 3584 
Q 2591 3584 2966 3190 
Q 3341 2797 3341 1997 
z
" transform="scale(0.015625)"/>
       <path id="DejaVuSans-69" d="M 603 3500 
L 1178 3500 
L 1178 0 
L 603 0 
L 603 3500 
z
M 603 4863 
L 1178 4863 
L 1178 4134 
L 603 4134 
L 603 4863 
z
" transform="scale(0.015625)"/>
       <path id="DejaVuSans-6f" d="M 1959 3097 
Q 1497 3097 1228 2736 
Q 959 2375 959 1747 
Q 959 1119 1226 758 
Q 1494 397 1959 397 
Q 2419 397 2687 759 
Q 2956 1122 2956 1747 
Q 2956 2369 2687 2733 
Q 2419 3097 1959 3097 
z
M 1959 3584 
Q 2709 3584 3137 3096 
Q 3566 2609 3566 1747 
Q 3566 888 3137 398 
Q 2709 -91 1959 -91 
Q 1206 -91 779 398 
Q 353 888 353 1747 
Q 353 2609 779 3096 
Q 1206 3584 1959 3584 
z
" transform="scale(0.015625)"/>
       <path id="DejaVuSans-6e" d="M 3513 2113 
L 3513 0 
L 2938 0 
L 2938 2094 
Q 2938 2591 2744 2837 
Q 2550 3084 2163 3084 
Q 1697 3084 1428 2787 
Q 1159 2491 1159 1978 
L 1159 0 
L 581 0 
L 581 3500 
L 1159 3500 
L 1159 2956 
Q 1366 3272 1645 3428 
Q 1925 3584 2291 3584 
Q 2894 3584 3203 3211 
Q 3513 2838 3513 2113 
z
" transform="scale(0.015625)"/>
       <path id="DejaVuSans-20" transform="scale(0.015625)"/>
       <path id="DejaVuSans-2f" d="M 1625 4666 
L 2156 4666 
L 531 -594 
L 0 -594 
L 1625 4666 
z
" transform="scale(0.015625)"/>
       <path id="DejaVuSans-47" d="M 3809 666 
L 3809 1919 
L 2778 1919 
L 2778 2438 
L 4434 2438 
L 4434 434 
Q 4069 175 3628 42 
Q 3188 -91 2688 -91 
Q 1594 -91 976 548 
Q 359 1188 359 2328 
Q 359 3472 976 4111 
Q 1594 4750 2688 4750 
Q 3144 4750 3555 4637 
Q 3966 4525 4313 4306 
L 4313 3634 
Q 3963 3931 3569 4081 
Q 3175 4231 2741 4231 
Q 1884 4231 1454 3753 
Q 1025 3275 1025 2328 
Q 1025 1384 1454 906 
Q 1884 428 2741 428 
Q 3075 428 3337 486 
Q 3600 544 3809 666 
z
" transform="scale(0.015625)"/>
      </defs>
      <use xlink:href="#DejaVuSans-49"/>
      <use xlink:href="#DejaVuSans-74" transform="translate(29.492188 0)"/>
      <use xlink:href="#DejaVuSans-65" transform="translate(68.701172 0)"/>
      <use xlink:href="#DejaVuSans-72" transform="translate(130.224609 0)"/>
      <use xlink:href="#DejaVuSans-61" transform="translate(171.337891 0)"/>
      <use xlink:href="#DejaVuSans-74" transform="translate(232.617188 0)"/>
      <use xlink:href="#DejaVuSans-69" transform="translate(271.826172 0)"/>
      <use xlink:href="#DejaVuSans-6f" transform="translate(299.609375 0)"/>
      <use xlink:href="#DejaVuSans-6e" transform="translate(360.791016 0)"/>
      <use xlink:href="#DejaVuSans-20" transform="translate(424.169922 0)"/>
      <use xlink:href="#DejaVuSans-2f" transform="translate(455.957031 0)"/>
      <use xlink:href="#DejaVuSans-20" transform="translate(489.648438 0)"/>
      <use xlink:href="#DejaVuSans-47" transform="translate(521.435547 0)"/>
      <use xlink:href="#DejaVuSans-65" transform="translate(598.925781 0)"/>
      <use xlink:href="#DejaVuSans-6e" transform="translate(660.449219 0)"/>
      <use xlink:href="#DejaVuSans-65" transform="translate(723.828125 0)"/>
      <use xlink:href="#DejaVuSans-72" transform="translate(785.351562 0)"/>
      <use xlink:href="#DejaVuSans-61" transform="translate(826.464844 0)"/>
      <use xlink:href="#DejaVuSans-74" transform="translate(887.744141 0)"/>
      <use xlink:href="#DejaVuSans-69" transform="translate(926.953125 0)"/>
      <use xlink:href="#DejaVuSans-6f" transform="translate(954.736328 0)"/>
      <use xlink:href="#DejaVuSans-6e" transform="translate(1015.917969 0)"/>
     </g>
    </g>
   </g>
   <g id="matplotlib.axis_2">
    <g id="ytick_1">
     <g id="line2d_23">
      <path d="M 48.28 332.075613 
L 705.355 332.075613 
" clip-path="url(#p1421d9ba14)" style="fill: none; stroke-dasharray: 0.8,1.32; stroke-dashoffset: 0; stroke: #b0b0b0; stroke-opacity: 0.7; stroke-width: 0.8"/>
     </g>
     <g id="line2d_24">
      <defs>
       <path id="md49f5c2942" d="M 0 0 
L -3.5 0 
" style="stroke: #000000; stroke-width: 0.8"/>
      </defs>
      <g>
       <use xlink:href="#md49f5c2942" x="48.28" y="332.075613" style="stroke: #000000; stroke-width: 0.8"/>
      </g>
     </g>
     <g id="text_13">
      <!-- 2000 -->
      <g transform="translate(15.83 335.874832) scale(0.1 -0.1)">
       <use xlink:href="#DejaVuSans-32"/>
       <use xlink:href="#DejaVuSans-30" transform="translate(63.623047 0)"/>
       <use xlink:href="#DejaVuSans-30" transform="translate(127.246094 0)"/>
       <use xlink:href="#DejaVuSans-30" transform="translate(190.869141 0)"/>
      </g>
     </g>
    </g>
    <g id="ytick_2">
     <g id="line2d_25">
      <path d="M 48.28 260.745274 
L 705.355 260.745274 
" clip-path="url(#p1421d9ba14)" style="fill: none; stroke-dasharray: 0.8,1.32; stroke-dashoffset: 0; stroke: #b0b0b0; stroke-opacity: 0.7; stroke-width: 0.8"/>
     </g>
     <g id="line2d_26">
      <g>
       <use xlink:href="#md49f5c2942" x="48.28" y="260.745274" style="stroke: #000000; stroke-width: 0.8"/>
      </g>
     </g>
     <g id="text_14">
      <!-- 2500 -->
      <g transform="translate(15.83 264.544493) scale(0.1 -0.1)">
       <use xlink:href="#DejaVuSans-32"/>
       <use xlink:href="#DejaVuSans-35" transform="translate(63.623047 0)"/>
       <use xlink:href="#DejaVuSans-30" transform="translate(127.246094 0)"/>
       <use xlink:href="#DejaVuSans-30" transform="translate(190.869141 0)"/>
      </g>
     </g>
    </g>
    <g id="ytick_3">
     <g id="line2d_27">
      <path d="M 48.28 189.414935 
L 705.355 189.414935 
" clip-path="url(#p1421d9ba14)" style="fill: none; stroke-dasharray: 0.8,1.32; stroke-dashoffset: 0; stroke: #b0b0b0; stroke-opacity: 0.7; stroke-width: 0.8"/>
     </g>
     <g id="line2d_28">
      <g>
       <use xlink:href="#md49f5c2942" x="48.28" y="189.414935" style="stroke: #000000; stroke-width: 0.8"/>
      </g>
     </g>
     <g id="text_15">
      <!-- 3000 -->
      <g transform="translate(15.83 193.214153) scale(0.1 -0.1)">
       <use xlink:href="#DejaVuSans-33"/>
       <use xlink:href="#DejaVuSans-30" transform="translate(63.623047 0)"/>
       <use xlink:href="#DejaVuSans-30" transform="translate(127.246094 0)"/>
       <use xlink:href="#DejaVuSans-30" transform="translate(190.869141 0)"/>
      </g>
     </g>
    </g>
    <g id="ytick_4">
     <g id="line2d_29">
      <path d="M 48.28 118.084595 
L 705.355 118.084595 
" clip-path="url(#p1421d9ba14)" style="fill: none; stroke-dasharray: 0.8,1.32; stroke-dashoffset: 0; stroke: #b0b0b0; stroke-opacity: 0.7; stroke-width: 0.8"/>
     </g>
     <g id="line2d_30">
      <g>
       <use xlink:href="#md49f5c2942" x="48.28" y="118.084595" style="stroke: #000000; stroke-width: 0.8"/>
      </g>
     </g>
     <g id="text_16">
      <!-- 3500 -->
      <g transform="translate(15.83 121.883814) scale(0.1 -0.1)">
       <use xlink:href="#DejaVuSans-33"/>
       <use xlink:href="#DejaVuSans-35" transform="translate(63.623047 0)"/>
       <use xlink:href="#DejaVuSans-30" transform="translate(127.246094 0)"/>
       <use xlink:href="#DejaVuSans-30" transform="translate(190.869141 0)"/>
      </g>
     </g>
    </g>
    <g id="ytick_5">
     <g id="line2d_31">
      <path d="M 48.28 46.754256 
L 705.355 46.754256 
" clip-path="url(#p1421d9ba14)" style="fill: none; stroke-dasharray: 0.8,1.32; stroke-dashoffset: 0; stroke: #b0b0b0; stroke-opacity: 0.7; stroke-width: 0.8"/>
     </g>
     <g id="line2d_32">
      <g>
       <use xlink:href="#md49f5c2942" x="48.28" y="46.754256" style="stroke: #000000; stroke-width: 0.8"/>
      </g>
     </g>
     <g id="text_17">
      <!-- 4000 -->
      <g transform="translate(15.83 50.553475) scale(0.1 -0.1)">
       <use xlink:href="#DejaVuSans-34"/>
       <use xlink:href="#DejaVuSans-30" transform="translate(63.623047 0)"/>
       <use xlink:href="#DejaVuSans-30" transform="translate(127.246094 0)"/>
       <use xlink:href="#DejaVuSans-30" transform="translate(190.869141 0)"/>
      </g>
     </g>
    </g>
    <g id="text_18">
     <!-- Objective Value -->
     <g transform="translate(9.750313 247.490469) rotate(-90) scale(0.1 -0.1)">
      <defs>
       <path id="DejaVuSans-4f" d="M 2522 4238 
Q 1834 4238 1429 3725 
Q 1025 3213 1025 2328 
Q 1025 1447 1429 934 
Q 1834 422 2522 422 
Q 3209 422 3611 934 
Q 4013 1447 4013 2328 
Q 4013 3213 3611 3725 
Q 3209 4238 2522 4238 
z
M 2522 4750 
Q 3503 4750 4090 4092 
Q 4678 3434 4678 2328 
Q 4678 1225 4090 567 
Q 3503 -91 2522 -91 
Q 1538 -91 948 565 
Q 359 1222 359 2328 
Q 359 3434 948 4092 
Q 1538 4750 2522 4750 
z
" transform="scale(0.015625)"/>
       <path id="DejaVuSans-62" d="M 3116 1747 
Q 3116 2381 2855 2742 
Q 2594 3103 2138 3103 
Q 1681 3103 1420 2742 
Q 1159 2381 1159 1747 
Q 1159 1113 1420 752 
Q 1681 391 2138 391 
Q 2594 391 2855 752 
Q 3116 1113 3116 1747 
z
M 1159 2969 
Q 1341 3281 1617 3432 
Q 1894 3584 2278 3584 
Q 2916 3584 3314 3078 
Q 3713 2572 3713 1747 
Q 3713 922 3314 415 
Q 2916 -91 2278 -91 
Q 1894 -91 1617 61 
Q 1341 213 1159 525 
L 1159 0 
L 581 0 
L 581 4863 
L 1159 4863 
L 1159 2969 
z
" transform="scale(0.015625)"/>
       <path id="DejaVuSans-6a" d="M 603 3500 
L 1178 3500 
L 1178 -63 
Q 1178 -731 923 -1031 
Q 669 -1331 103 -1331 
L -116 -1331 
L -116 -844 
L 38 -844 
Q 366 -844 484 -692 
Q 603 -541 603 -63 
L 603 3500 
z
M 603 4863 
L 1178 4863 
L 1178 4134 
L 603 4134 
L 603 4863 
z
" transform="scale(0.015625)"/>
       <path id="DejaVuSans-63" d="M 3122 3366 
L 3122 2828 
Q 2878 2963 2633 3030 
Q 2388 3097 2138 3097 
Q 1578 3097 1268 2742 
Q 959 2388 959 1747 
Q 959 1106 1268 751 
Q 1578 397 2138 397 
Q 2388 397 2633 464 
Q 2878 531 3122 666 
L 3122 134 
Q 2881 22 2623 -34 
Q 2366 -91 2075 -91 
Q 1284 -91 818 406 
Q 353 903 353 1747 
Q 353 2603 823 3093 
Q 1294 3584 2113 3584 
Q 2378 3584 2631 3529 
Q 2884 3475 3122 3366 
z
" transform="scale(0.015625)"/>
       <path id="DejaVuSans-76" d="M 191 3500 
L 800 3500 
L 1894 563 
L 2988 3500 
L 3597 3500 
L 2284 0 
L 1503 0 
L 191 3500 
z
" transform="scale(0.015625)"/>
       <path id="DejaVuSans-56" d="M 1831 0 
L 50 4666 
L 709 4666 
L 2188 738 
L 3669 4666 
L 4325 4666 
L 2547 0 
L 1831 0 
z
" transform="scale(0.015625)"/>
       <path id="DejaVuSans-6c" d="M 603 4863 
L 1178 4863 
L 1178 0 
L 603 0 
L 603 4863 
z
" transform="scale(0.015625)"/>
       <path id="DejaVuSans-75" d="M 544 1381 
L 544 3500 
L 1119 3500 
L 1119 1403 
Q 1119 906 1312 657 
Q 1506 409 1894 409 
Q 2359 409 2629 706 
Q 2900 1003 2900 1516 
L 2900 3500 
L 3475 3500 
L 3475 0 
L 2900 0 
L 2900 538 
Q 2691 219 2414 64 
Q 2138 -91 1772 -91 
Q 1169 -91 856 284 
Q 544 659 544 1381 
z
M 1991 3584 
L 1991 3584 
z
" transform="scale(0.015625)"/>
      </defs>
      <use xlink:href="#DejaVuSans-4f"/>
      <use xlink:href="#DejaVuSans-62" transform="translate(78.710938 0)"/>
      <use xlink:href="#DejaVuSans-6a" transform="translate(142.1875 0)"/>
      <use xlink:href="#DejaVuSans-65" transform="translate(169.970703 0)"/>
      <use xlink:href="#DejaVuSans-63" transform="translate(231.494141 0)"/>
      <use xlink:href="#DejaVuSans-74" transform="translate(286.474609 0)"/>
      <use xlink:href="#DejaVuSans-69" transform="translate(325.683594 0)"/>
      <use xlink:href="#DejaVuSans-76" transform="translate(353.466797 0)"/>
      <use xlink:href="#DejaVuSans-65" transform="translate(412.646484 0)"/>
      <use xlink:href="#DejaVuSans-20" transform="translate(474.169922 0)"/>
      <use xlink:href="#DejaVuSans-56" transform="translate(505.957031 0)"/>
      <use xlink:href="#DejaVuSans-61" transform="translate(566.615234 0)"/>
      <use xlink:href="#DejaVuSans-6c" transform="translate(627.894531 0)"/>
      <use xlink:href="#DejaVuSans-75" transform="translate(655.677734 0)"/>
      <use xlink:href="#DejaVuSans-65" transform="translate(719.056641 0)"/>
     </g>
    </g>
   </g>
   <g id="line2d_33">
    <path d="M 48.28 331.288247 
L 115.30165 331.288247 
L 115.30165 336.758051 
L 119.2441 336.758051 
L 119.2441 345.710355 
L 284.827 345.710355 
L 284.827 351.475805 
L 513.4891 351.475805 
L 513.4891 359.192801 
L 688.27105 359.192801 
L 688.27105 367.11 
L 704.697925 367.11 
L 704.697925 367.11 
" clip-path="url(#p1421d9ba14)" style="fill: none; stroke: #1f77b4; stroke-width: 1.5; stroke-linecap: square"/>
   </g>
   <g id="line2d_34">
    <path d="M 48.28 134.302032 
L 48.937075 71.692326 
L 49.59415 100.253201 
L 50.251225 65.76414 
L 50.9083 89.740864 
L 51.565375 109.655572 
L 52.22245 89.00097 
L 52.879525 93.144411 
L 53.5366 91.076983 
L 54.193675 49.81 
L 54.85075 85.581256 
L 55.507825 52.822164 
L 56.1649 102.277704 
L 56.821975 116.110932 
L 57.47905 121.710724 
L 58.136125 94.444096 
L 58.7932 87.205798 
L 59.450275 104.396705 
L 60.10735 71.272422 
L 60.764425 85.99614 
L 61.4215 79.469066 
L 62.078575 58.504491 
L 62.73565 93.051226 
L 63.392725 74.983678 
L 64.0498 94.337005 
L 64.706875 85.696083 
L 65.36395 71.47295 
L 66.021025 72.916463 
L 67.335175 118.081355 
L 67.99225 107.552441 
L 68.649325 78.512114 
L 69.3064 68.630363 
L 69.963475 98.683514 
L 70.62055 96.999163 
L 71.277625 75.814822 
L 71.9347 122.707703 
L 72.591775 97.051591 
L 73.24885 82.451181 
L 73.905925 92.081962 
L 74.563 97.378249 
L 75.220075 94.940416 
L 75.87715 103.561032 
L 76.534225 96.306217 
L 77.1913 79.169382 
L 77.848375 94.890704 
L 78.50545 103.836441 
L 79.162525 98.752895 
L 79.8196 144.917851 
L 80.476675 100.71112 
L 81.13375 124.352635 
L 81.790825 96.6809 
L 82.4479 108.199362 
L 83.104975 76.045593 
L 83.76205 114.044011 
L 84.419125 93.066601 
L 85.0762 91.495028 
L 85.733275 99.451468 
L 86.39035 110.678192 
L 87.047425 112.597917 
L 87.7045 120.745704 
L 88.361575 139.579044 
L 89.01865 141.027333 
L 89.675725 95.603816 
L 90.3328 118.238859 
L 90.989875 135.606075 
L 91.64695 118.150196 
L 92.304025 141.783453 
L 92.9611 119.710288 
L 93.618175 126.372573 
L 94.27525 108.249246 
L 94.932325 128.693509 
L 95.5894 118.206384 
L 96.246475 165.305983 
L 96.90355 119.566343 
L 97.560625 127.534807 
L 98.2177 97.409535 
L 98.874775 111.281701 
L 99.53185 101.764006 
L 100.188925 107.609773 
L 100.846 108.59956 
L 101.503075 96.976144 
L 102.16015 107.475386 
L 102.817225 93.286426 
L 103.4743 111.385356 
L 104.131375 116.423473 
L 104.78845 100.149076 
L 105.445525 130.086914 
L 106.1026 141.203555 
L 106.759675 110.397304 
L 107.41675 111.573373 
L 108.073825 109.448529 
L 108.7309 133.649541 
L 109.387975 132.811921 
L 110.04505 128.579496 
L 110.702125 87.633343 
L 111.3592 124.017549 
L 112.016275 121.055318 
L 112.67335 112.376935 
L 113.330425 79.160723 
L 113.9875 132.526481 
L 114.644575 130.44667 
L 115.30165 136.170915 
L 115.958725 120.595295 
L 116.6158 114.502416 
L 117.272875 129.72221 
L 117.92995 107.66106 
L 118.587025 137.996092 
L 119.2441 135.087014 
L 119.901175 136.699887 
L 120.55825 140.855162 
L 121.215325 111.891326 
L 121.8724 100.939225 
L 122.529475 158.142187 
L 123.18655 79.647743 
L 124.5007 137.784153 
L 125.157775 107.402086 
L 125.81485 106.062262 
L 126.471925 125.603462 
L 127.129 97.350356 
L 127.786075 125.674579 
L 128.44315 105.561438 
L 129.100225 127.502768 
L 129.7573 139.899382 
L 130.414375 143.610107 
L 131.07145 151.285284 
L 131.728525 99.982585 
L 132.3856 112.594041 
L 133.042675 90.707864 
L 133.69975 105.531332 
L 134.356825 103.137465 
L 135.0139 104.002406 
L 135.670975 126.851392 
L 136.32805 130.131613 
L 136.985125 132.112109 
L 137.6422 112.227256 
L 138.299275 107.727883 
L 138.95635 119.480432 
L 139.613425 107.965127 
L 140.2705 123.916161 
L 140.927575 114.746125 
L 141.58465 130.870732 
L 142.241725 105.475824 
L 142.8988 113.566476 
L 143.555875 97.864207 
L 144.21295 113.257194 
L 145.5271 107.585688 
L 146.184175 109.321951 
L 146.84125 108.06242 
L 147.498325 83.1015 
L 148.1554 102.107719 
L 148.812475 136.009788 
L 149.46955 122.878561 
L 150.126625 115.729106 
L 150.7837 129.336263 
L 151.440775 126.400784 
L 152.09785 114.499868 
L 152.754925 121.756353 
L 153.412 124.877155 
L 154.069075 113.67959 
L 154.72615 106.310131 
L 155.383225 107.032472 
L 156.0403 123.807548 
L 156.697375 119.684212 
L 157.35445 114.780263 
L 158.011525 112.732261 
L 158.6686 132.778536 
L 159.325675 99.45679 
L 159.98275 131.460755 
L 160.639825 139.922083 
L 161.2969 144.240253 
L 161.953975 119.796469 
L 162.61105 134.123773 
L 163.268125 141.185228 
L 163.9252 138.152973 
L 164.582275 95.727574 
L 165.23935 93.313549 
L 165.896425 112.465489 
L 166.5535 105.496604 
L 167.210575 109.130511 
L 167.86765 132.867712 
L 168.524725 112.380664 
L 169.1818 119.531241 
L 169.838875 106.409969 
L 170.49595 145.437594 
L 171.153025 118.794481 
L 171.8101 112.251813 
L 172.467175 129.534776 
L 173.12425 132.615749 
L 173.781325 127.850743 
L 174.4384 138.305774 
L 175.095475 131.907828 
L 175.75255 120.26258 
L 176.409625 155.524529 
L 177.723775 110.383408 
L 178.38085 130.154981 
L 179.037925 134.865052 
L 179.695 138.726669 
L 180.352075 91.930513 
L 181.00915 101.265579 
L 182.3233 134.104401 
L 182.980375 121.957446 
L 183.63745 112.724608 
L 184.294525 108.596597 
L 184.9516 136.277208 
L 185.608675 116.083566 
L 186.26575 159.645111 
L 186.922825 104.826953 
L 187.5799 134.614634 
L 188.236975 109.598356 
L 188.89405 100.340209 
L 189.551125 135.375184 
L 190.2082 125.158465 
L 190.865275 128.986466 
L 191.52235 116.886503 
L 192.179425 128.052709 
L 192.8365 124.535766 
L 193.493575 146.458683 
L 194.15065 102.915678 
L 194.807725 126.724663 
L 195.4648 135.594304 
L 196.121875 127.577611 
L 196.77895 124.483865 
L 197.436025 120.572268 
L 198.0931 120.34064 
L 198.750175 139.769752 
L 199.40725 94.670431 
L 200.064325 140.578519 
L 200.7214 126.545863 
L 201.378475 99.551066 
L 202.03555 135.215922 
L 202.692625 140.790984 
L 203.3497 124.17303 
L 204.006775 135.086784 
L 204.66385 137.450389 
L 205.320925 123.483887 
L 205.978 140.353553 
L 206.635075 118.795941 
L 207.29215 114.833719 
L 207.949225 126.589314 
L 208.6063 125.815562 
L 209.263375 127.816727 
L 209.92045 144.173803 
L 210.577525 117.433988 
L 211.2346 100.013047 
L 211.891675 136.72554 
L 212.54875 86.850557 
L 213.205825 116.789321 
L 213.8629 135.550412 
L 214.519975 112.700074 
L 215.17705 131.57369 
L 215.834125 121.748884 
L 216.4912 130.386258 
L 217.148275 133.068044 
L 217.80535 140.886326 
L 218.462425 139.078019 
L 219.1195 143.613923 
L 219.776575 123.667863 
L 220.43365 127.725005 
L 221.090725 136.16049 
L 221.7478 136.142397 
L 222.404875 118.027038 
L 223.06195 107.619448 
L 223.719025 132.779374 
L 224.3761 148.229024 
L 225.033175 139.825212 
L 225.69025 100.567012 
L 226.347325 97.472739 
L 227.0044 112.841214 
L 227.661475 118.315895 
L 228.31855 119.304515 
L 228.975625 115.34814 
L 229.6327 102.391755 
L 230.289775 138.230161 
L 230.94685 126.541991 
L 231.603925 136.181962 
L 232.261 139.9539 
L 232.918075 129.908895 
L 233.57515 128.644195 
L 234.232225 121.133168 
L 234.8893 122.701713 
L 235.546375 113.138748 
L 236.20345 112.793247 
L 236.860525 136.487328 
L 237.5176 144.829205 
L 238.174675 140.144762 
L 238.83175 127.308908 
L 239.488825 143.091282 
L 240.1459 148.434819 
L 240.802975 112.521569 
L 241.46005 120.42942 
L 242.117125 134.930309 
L 242.7742 161.437208 
L 243.431275 143.579659 
L 244.745425 126.138659 
L 245.4025 140.72365 
L 246.059575 146.519719 
L 246.71665 121.429975 
L 247.373725 103.439932 
L 248.0308 116.108768 
L 248.687875 125.871147 
L 249.34495 129.208759 
L 250.002025 115.922798 
L 250.6591 146.236102 
L 251.316175 135.063591 
L 251.97325 120.49341 
L 252.630325 134.955617 
L 253.2874 130.400432 
L 253.944475 123.726787 
L 254.60155 131.702578 
L 255.258625 133.108834 
L 255.9157 136.233512 
L 256.572775 129.980396 
L 257.22985 117.115897 
L 257.886925 125.051759 
L 258.544 104.860202 
L 259.201075 126.975885 
L 259.85815 122.009553 
L 260.515225 132.880627 
L 261.1723 106.841268 
L 261.829375 149.268427 
L 262.48645 128.862416 
L 263.143525 128.797909 
L 263.8006 145.727755 
L 264.457675 116.632611 
L 265.11475 145.64465 
L 265.771825 120.352243 
L 266.4289 152.482971 
L 267.085975 143.866125 
L 267.74305 123.51043 
L 268.400125 119.705372 
L 269.0572 110.450201 
L 269.714275 103.220673 
L 270.37135 116.599077 
L 271.028425 116.446108 
L 271.6855 142.131927 
L 272.342575 118.511526 
L 272.99965 130.655908 
L 274.3138 144.930993 
L 274.970875 124.962684 
L 275.62795 151.446001 
L 276.285025 142.956618 
L 276.9421 108.409637 
L 277.599175 131.430563 
L 278.25625 115.012358 
L 278.913325 139.960801 
L 279.5704 139.643721 
L 280.227475 126.74026 
L 280.88455 121.647974 
L 281.541625 112.995862 
L 282.1987 127.945021 
L 282.855775 123.240321 
L 283.51285 111.099435 
L 284.169925 126.908747 
L 284.827 130.447744 
L 285.484075 135.915337 
L 286.14115 145.953649 
L 286.798225 116.905559 
L 288.112375 152.975611 
L 288.76945 158.650588 
L 290.0836 106.890684 
L 290.740675 166.218174 
L 291.39775 150.180959 
L 292.054825 156.911682 
L 292.7119 138.232167 
L 293.368975 153.633759 
L 294.02605 137.057314 
L 294.683125 115.243359 
L 295.3402 128.767008 
L 295.997275 99.045689 
L 296.65435 125.183315 
L 297.311425 135.298329 
L 297.9685 126.444906 
L 298.625575 130.932219 
L 299.28265 146.488456 
L 299.939725 116.999544 
L 300.5968 110.872941 
L 301.253875 140.257971 
L 301.91095 141.39777 
L 302.568025 117.157603 
L 303.2251 134.351369 
L 303.882175 145.3391 
L 304.53925 131.331099 
L 305.196325 105.057989 
L 305.8534 123.955936 
L 306.510475 131.981734 
L 307.16755 100.812143 
L 307.824625 135.689945 
L 308.4817 136.61739 
L 309.79585 93.446814 
L 310.452925 150.919235 
L 311.11 136.125367 
L 311.767075 110.650197 
L 312.42415 153.268442 
L 313.081225 132.205826 
L 313.7383 140.065495 
L 314.395375 146.560745 
L 315.05245 143.101594 
L 315.709525 133.032636 
L 316.3666 139.756497 
L 317.023675 143.639291 
L 317.68075 146.438058 
L 318.337825 119.09063 
L 318.9949 155.096318 
L 319.651975 147.489577 
L 320.30905 134.913264 
L 320.966125 130.72138 
L 322.280275 141.492874 
L 322.93735 121.330617 
L 323.594425 145.357499 
L 324.2515 133.827467 
L 324.908575 139.893817 
L 325.56565 134.410141 
L 326.222725 121.286165 
L 326.8798 114.361625 
L 327.536875 141.99707 
L 328.19395 130.583946 
L 328.851025 132.667749 
L 329.5081 139.077842 
L 330.165175 148.953799 
L 330.82225 143.890711 
L 331.479325 145.034486 
L 332.1364 141.031955 
L 332.793475 135.01247 
L 333.45055 151.582375 
L 334.107625 139.370458 
L 334.7647 116.203336 
L 335.421775 126.064248 
L 336.07885 129.751188 
L 336.735925 126.918454 
L 337.393 138.984238 
L 338.050075 126.71461 
L 338.70715 154.648177 
L 339.364225 162.271773 
L 340.678375 128.086707 
L 341.992525 158.060438 
L 342.6496 144.714323 
L 343.306675 139.819006 
L 343.96375 130.308459 
L 344.620825 129.436379 
L 345.2779 137.590353 
L 345.934975 164.643135 
L 346.59205 127.794552 
L 347.249125 160.465725 
L 347.9062 141.53326 
L 348.563275 137.057191 
L 349.22035 122.24479 
L 349.877425 149.252859 
L 350.5345 141.279844 
L 351.191575 143.655027 
L 351.84865 109.309123 
L 352.505725 119.620341 
L 353.1628 107.058972 
L 353.819875 155.060671 
L 354.47695 134.935201 
L 355.134025 155.724342 
L 355.7911 127.967216 
L 356.448175 150.579944 
L 357.10525 140.504329 
L 357.762325 107.836694 
L 358.4194 137.231238 
L 359.076475 127.72033 
L 359.73355 136.909454 
L 360.390625 136.19222 
L 361.0477 122.141233 
L 361.704775 144.161783 
L 362.36185 118.919791 
L 363.018925 108.856644 
L 363.676 131.806686 
L 364.333075 136.523812 
L 364.99015 142.573019 
L 365.647225 140.380385 
L 366.3043 139.372673 
L 366.961375 152.931116 
L 367.61845 138.51602 
L 368.275525 138.060566 
L 368.9326 138.196541 
L 369.589675 119.039749 
L 370.24675 146.689692 
L 370.903825 131.333324 
L 371.5609 156.374334 
L 372.217975 159.709342 
L 373.532125 138.718195 
L 374.1892 144.358072 
L 374.846275 140.041035 
L 375.50335 142.440042 
L 376.160425 143.461478 
L 376.8175 131.140523 
L 377.474575 158.927204 
L 378.13165 127.758025 
L 378.788725 157.520293 
L 379.4458 142.348162 
L 380.102875 121.838199 
L 380.75995 138.196858 
L 381.417025 122.248314 
L 382.0741 122.893202 
L 382.731175 163.820716 
L 383.38825 142.432017 
L 384.045325 139.237986 
L 384.7024 153.956387 
L 385.359475 129.095546 
L 386.01655 133.361715 
L 386.673625 136.1436 
L 387.3307 142.927625 
L 387.987775 158.428012 
L 388.64485 136.933646 
L 389.301925 132.614265 
L 389.959 147.089218 
L 390.616075 140.103458 
L 391.27315 136.304124 
L 391.930225 136.843484 
L 392.5873 152.067008 
L 393.244375 125.118317 
L 393.90145 146.88923 
L 394.558525 152.075332 
L 395.2156 137.337462 
L 395.872675 160.926545 
L 396.52975 129.898705 
L 397.186825 136.737135 
L 397.8439 153.005246 
L 398.500975 138.973899 
L 399.15805 153.371367 
L 399.815125 164.303411 
L 400.4722 141.575313 
L 401.129275 160.716019 
L 401.78635 154.658116 
L 402.443425 158.874031 
L 403.1005 159.242166 
L 403.757575 170.205541 
L 404.41465 135.840536 
L 405.071725 161.38964 
L 405.7288 162.144458 
L 406.385875 145.749245 
L 407.04295 145.222821 
L 407.700025 131.935877 
L 408.3571 160.355066 
L 409.014175 166.672618 
L 409.67125 133.354224 
L 410.328325 146.105414 
L 410.9854 167.723482 
L 411.642475 135.790148 
L 412.29955 137.939187 
L 412.956625 151.402253 
L 413.6137 122.664427 
L 414.92785 166.933464 
L 415.584925 165.199352 
L 416.242 174.454946 
L 416.899075 155.125551 
L 417.55615 161.759431 
L 418.213225 138.920102 
L 418.8703 137.026297 
L 419.527375 134.481664 
L 420.18445 141.501225 
L 420.841525 122.685117 
L 421.4986 139.534713 
L 422.155675 138.943707 
L 422.81275 142.794819 
L 423.469825 149.69126 
L 424.1269 150.262009 
L 424.783975 161.830289 
L 425.44105 146.566053 
L 426.098125 148.825733 
L 426.7552 147.982467 
L 427.412275 140.924249 
L 428.06935 158.600568 
L 428.726425 141.787062 
L 429.3835 144.584194 
L 430.040575 154.418088 
L 430.69765 119.633357 
L 431.354725 142.311554 
L 432.0118 176.196808 
L 433.32595 143.790503 
L 433.983025 142.435597 
L 434.6401 165.369125 
L 435.297175 163.83559 
L 435.95425 135.661441 
L 436.611325 149.521449 
L 437.2684 142.427267 
L 437.925475 156.531689 
L 438.58255 150.728527 
L 439.239625 172.821162 
L 439.8967 117.354228 
L 440.553775 139.095009 
L 441.21085 131.647291 
L 441.867925 152.940453 
L 442.525 169.620362 
L 443.182075 149.275554 
L 443.83915 115.923868 
L 444.496225 153.473199 
L 445.1533 118.54436 
L 445.810375 167.901321 
L 446.46745 140.43387 
L 447.124525 142.658136 
L 447.7816 165.905074 
L 448.438675 165.482279 
L 449.09575 150.261218 
L 449.752825 165.307084 
L 450.4099 165.244695 
L 451.066975 137.791335 
L 451.72405 152.440205 
L 452.381125 164.174359 
L 453.0382 120.731425 
L 453.695275 150.659861 
L 454.35235 144.62596 
L 455.009425 169.016072 
L 455.6665 152.863305 
L 456.323575 123.326378 
L 456.98065 158.90374 
L 457.637725 138.663285 
L 458.2948 173.396278 
L 458.951875 152.924109 
L 459.60895 116.117799 
L 460.266025 149.827704 
L 460.9231 134.610229 
L 461.580175 135.778028 
L 462.23725 147.208613 
L 462.894325 176.746876 
L 464.208475 143.558909 
L 464.86555 151.552637 
L 465.522625 146.782195 
L 466.1797 138.773128 
L 466.836775 167.422083 
L 467.49385 155.629528 
L 468.150925 159.623011 
L 468.808 164.70932 
L 469.465075 171.888285 
L 470.12215 137.503424 
L 470.779225 169.81796 
L 471.4363 155.339073 
L 472.093375 174.001292 
L 472.75045 155.264352 
L 473.407525 156.520001 
L 474.0646 128.185505 
L 474.721675 159.431699 
L 476.035825 123.246638 
L 476.6929 165.042208 
L 477.349975 161.771878 
L 478.00705 154.60992 
L 478.664125 144.033857 
L 479.3212 152.970644 
L 479.978275 132.648928 
L 481.292425 144.59573 
L 481.9495 163.866455 
L 482.606575 126.846789 
L 483.26365 155.827988 
L 483.920725 149.463146 
L 484.5778 128.53225 
L 485.234875 143.471146 
L 485.89195 133.58628 
L 486.549025 146.788435 
L 487.2061 143.594797 
L 487.863175 112.522684 
L 488.52025 148.448909 
L 489.177325 164.415024 
L 489.8344 172.201436 
L 490.491475 156.148647 
L 491.14855 162.14906 
L 491.805625 140.288655 
L 492.4627 133.381036 
L 493.119775 161.174477 
L 493.77685 135.125246 
L 494.433925 156.225192 
L 495.091 157.945178 
L 495.748075 132.812804 
L 496.40515 154.341301 
L 497.062225 124.75546 
L 497.7193 148.331751 
L 498.376375 142.949571 
L 499.03345 149.661142 
L 499.690525 141.947255 
L 500.3476 145.973021 
L 501.004675 154.95951 
L 501.66175 152.109534 
L 502.318825 136.004601 
L 502.9759 157.829456 
L 504.29005 104.97296 
L 504.947125 139.060342 
L 505.6042 155.755983 
L 506.261275 145.591699 
L 506.91835 123.550176 
L 507.575425 124.508415 
L 508.2325 152.626098 
L 508.889575 157.081226 
L 509.54665 144.132614 
L 510.203725 164.23089 
L 510.8608 170.628159 
L 511.517875 158.350351 
L 512.17495 140.636815 
L 512.832025 139.114781 
L 513.4891 169.203759 
L 514.146175 135.4677 
L 514.80325 146.369389 
L 515.460325 138.867933 
L 516.1174 133.910337 
L 516.774475 173.871187 
L 517.43155 156.102195 
L 518.088625 163.929947 
L 518.7457 166.762744 
L 519.402775 173.367647 
L 520.05985 134.635384 
L 520.716925 149.495648 
L 521.374 157.736755 
L 522.031075 162.635593 
L 522.68815 161.63955 
L 523.345225 152.26524 
L 524.0023 167.633115 
L 524.659375 170.76856 
L 525.31645 164.23359 
L 525.973525 163.68648 
L 526.6306 157.038789 
L 527.287675 132.445737 
L 527.94475 144.76512 
L 528.601825 149.323746 
L 529.2589 155.715272 
L 529.915975 130.44 
L 530.57305 137.741691 
L 531.230125 154.522958 
L 531.8872 157.480352 
L 532.544275 169.151377 
L 533.20135 172.792116 
L 533.858425 143.30303 
L 534.5155 155.510516 
L 535.82965 140.179379 
L 536.486725 164.528259 
L 537.1438 150.233806 
L 537.800875 155.464937 
L 538.45795 153.277438 
L 539.115025 148.643526 
L 539.7721 157.98814 
L 540.429175 164.727586 
L 541.08625 158.776606 
L 541.743325 166.60918 
L 542.4004 158.507172 
L 543.057475 160.690083 
L 543.71455 163.804612 
L 544.371625 135.064025 
L 545.0287 153.809976 
L 545.685775 152.117716 
L 546.34285 120.343155 
L 546.999925 139.384604 
L 547.657 141.615617 
L 548.314075 149.762329 
L 548.97115 176.872936 
L 549.628225 155.208101 
L 550.2853 153.356016 
L 550.942375 143.257831 
L 551.59945 155.908551 
L 552.256525 157.007896 
L 552.9136 152.578442 
L 553.570675 130.778025 
L 554.22775 161.797885 
L 554.884825 125.158175 
L 555.5419 129.175413 
L 556.198975 144.913742 
L 556.85605 138.82052 
L 557.513125 149.261323 
L 558.1702 141.355133 
L 558.827275 153.980586 
L 559.48435 141.470106 
L 560.141425 151.27849 
L 560.7985 150.158554 
L 561.455575 148.541646 
L 562.11265 135.638233 
L 562.769725 157.380465 
L 563.4268 155.437342 
L 564.083875 169.622582 
L 564.74095 175.057846 
L 565.398025 127.050143 
L 566.0551 171.523274 
L 566.712175 126.128923 
L 567.36925 129.410276 
L 568.026325 153.627257 
L 568.6834 163.775565 
L 569.340475 123.381904 
L 569.99755 143.924404 
L 570.654625 146.566637 
L 571.3117 164.358665 
L 571.968775 144.964889 
L 572.62585 154.294835 
L 573.282925 166.281953 
L 573.94 158.39551 
L 574.597075 136.723293 
L 575.25415 171.642554 
L 575.911225 142.891631 
L 576.5683 149.080148 
L 577.225375 120.061802 
L 577.88245 137.804058 
L 578.539525 150.352482 
L 579.1966 143.526718 
L 579.853675 161.478858 
L 580.51075 148.429803 
L 581.167825 149.444029 
L 581.8249 155.584084 
L 582.481975 133.662429 
L 583.13905 169.640919 
L 583.796125 139.286586 
L 584.4532 143.477809 
L 585.110275 123.917158 
L 585.76735 152.583294 
L 586.424425 146.312991 
L 587.0815 166.172332 
L 587.738575 142.443155 
L 588.39565 169.046992 
L 589.052725 168.957836 
L 589.7098 138.679259 
L 590.366875 149.674948 
L 591.02395 149.418554 
L 591.681025 162.532514 
L 592.3381 135.612253 
L 592.995175 173.6474 
L 593.65225 161.518317 
L 594.309325 146.823334 
L 594.9664 138.11963 
L 595.623475 179.930858 
L 596.28055 161.186082 
L 596.937625 168.812432 
L 597.5947 160.787448 
L 598.251775 163.228024 
L 598.90885 149.832706 
L 599.565925 157.629989 
L 600.223 162.808307 
L 600.880075 143.918013 
L 602.194225 166.867455 
L 602.8513 153.152432 
L 603.508375 154.637728 
L 604.16545 177.997733 
L 604.822525 154.992021 
L 605.4796 154.196956 
L 606.136675 150.51673 
L 606.79375 148.799763 
L 607.450825 155.505311 
L 608.1079 158.673766 
L 608.764975 174.106614 
L 609.42205 119.683483 
L 610.079125 137.407735 
L 610.7362 138.312422 
L 611.393275 132.389314 
L 612.05035 154.419907 
L 612.707425 155.870792 
L 613.3645 165.347009 
L 614.021575 166.719245 
L 614.67865 157.993144 
L 615.335725 151.417227 
L 615.9928 158.709317 
L 616.649875 148.39243 
L 617.30695 153.444946 
L 617.964025 162.727338 
L 618.6211 168.313777 
L 619.278175 171.708572 
L 619.93525 141.318151 
L 620.592325 145.257944 
L 621.2494 151.103665 
L 621.906475 152.564714 
L 622.56355 142.116625 
L 623.8777 173.660533 
L 624.534775 178.650663 
L 625.19185 159.135679 
L 625.848925 168.494257 
L 626.506 141.620799 
L 627.163075 140.776741 
L 627.82015 145.902166 
L 628.477225 121.649604 
L 629.1343 143.843253 
L 629.791375 161.817177 
L 630.44845 131.966835 
L 631.105525 153.474673 
L 631.7626 137.102852 
L 632.419675 146.674899 
L 633.07675 159.634185 
L 633.733825 149.131259 
L 634.3909 148.645625 
L 635.047975 148.735208 
L 635.70505 152.123086 
L 636.362125 156.722071 
L 637.0192 145.588643 
L 637.676275 150.189413 
L 638.33335 141.577899 
L 638.990425 135.772554 
L 639.6475 149.681946 
L 640.304575 142.363523 
L 641.618725 166.856144 
L 642.2758 151.865479 
L 642.932875 179.170597 
L 643.58995 146.162716 
L 644.247025 156.515306 
L 644.9041 152.306812 
L 645.561175 146.073408 
L 646.21825 161.121313 
L 646.875325 149.106155 
L 647.5324 140.043961 
L 648.189475 162.794162 
L 648.84655 137.371822 
L 649.503625 140.077929 
L 650.1607 162.814652 
L 650.817775 148.996886 
L 651.47485 139.113876 
L 652.131925 155.319378 
L 652.789 129.579388 
L 653.446075 149.856182 
L 654.10315 150.379146 
L 654.760225 165.932749 
L 655.4173 170.586757 
L 656.074375 147.914356 
L 656.73145 147.781459 
L 657.388525 142.071694 
L 658.0456 162.018365 
L 658.702675 143.758562 
L 659.35975 163.70291 
L 660.016825 148.620753 
L 660.6739 144.562806 
L 661.330975 138.490539 
L 661.98805 168.774554 
L 662.645125 150.641972 
L 663.959275 129.686228 
L 664.61635 153.438058 
L 665.273425 131.842322 
L 665.9305 148.839661 
L 666.587575 169.631606 
L 667.24465 136.6334 
L 667.901725 142.054445 
L 668.5588 150.285305 
L 669.215875 147.59971 
L 669.87295 165.6385 
L 670.530025 152.829607 
L 671.1871 152.812925 
L 671.844175 140.207182 
L 672.50125 165.155245 
L 673.8154 151.853781 
L 674.472475 148.351754 
L 675.12955 163.409829 
L 675.786625 156.429324 
L 676.4437 126.001111 
L 677.100775 142.67279 
L 677.75785 149.547406 
L 678.414925 131.418921 
L 679.072 155.391092 
L 679.729075 159.721896 
L 680.38615 142.987817 
L 681.043225 141.452556 
L 681.7003 133.268646 
L 683.01445 185.78989 
L 683.671525 139.329532 
L 684.3286 171.280467 
L 684.985675 180.45346 
L 685.64275 132.153475 
L 686.299825 153.187088 
L 686.9569 160.809312 
L 687.613975 153.245632 
L 688.27105 150.132598 
L 688.928125 149.545477 
L 689.5852 139.272163 
L 690.242275 126.541441 
L 690.89935 132.950351 
L 691.556425 142.764386 
L 692.2135 139.510716 
L 692.870575 148.266928 
L 693.52765 159.03449 
L 694.184725 159.312156 
L 694.8418 159.06526 
L 695.498875 149.929389 
L 696.15595 148.579941 
L 696.813025 122.457222 
L 697.4701 133.761202 
L 698.127175 153.001107 
L 698.78425 177.41795 
L 699.441325 155.567848 
L 700.0984 143.804846 
L 700.755475 169.487193 
L 701.41255 163.583579 
L 702.069625 123.881059 
L 702.7267 152.677909 
L 703.383775 137.319659 
L 704.04085 131.486011 
L 704.697925 136.551523 
L 704.697925 136.551523 
" clip-path="url(#p1421d9ba14)" style="fill: none; stroke-dasharray: 5.55,2.4; stroke-dashoffset: 0; stroke: #ff7f0e; stroke-width: 1.5"/>
   </g>
   <g id="patch_3">
    <path d="M 48.28 398.84 
L 48.28 18.08 
" style="fill: none; stroke: #000000; stroke-width: 0.8; stroke-linejoin: miter; stroke-linecap: square"/>
   </g>
   <g id="patch_4">
    <path d="M 705.355 398.84 
L 705.355 18.08 
" style="fill: none; stroke: #000000; stroke-width: 0.8; stroke-linejoin: miter; stroke-linecap: square"/>
   </g>
   <g id="patch_5">
    <path d="M 48.28 398.84 
L 705.355 398.84 
" style="fill: none; stroke: #000000; stroke-width: 0.8; stroke-linejoin: miter; stroke-linecap: square"/>
   </g>
   <g id="patch_6">
    <path d="M 48.28 18.08 
L 705.355 18.08 
" style="fill: none; stroke: #000000; stroke-width: 0.8; stroke-linejoin: miter; stroke-linecap: square"/>
   </g>
   <g id="text_19">
    <!-- dPSO Evolution (Simulation #1) -->
    <g transform="translate(281.675313 12.08) scale(0.12 -0.12)">
     <defs>
      <path id="DejaVuSans-64" d="M 2906 2969 
L 2906 4863 
L 3481 4863 
L 3481 0 
L 2906 0 
L 2906 525 
Q 2725 213 2448 61 
Q 2172 -91 1784 -91 
Q 1150 -91 751 415 
Q 353 922 353 1747 
Q 353 2572 751 3078 
Q 1150 3584 1784 3584 
Q 2172 3584 2448 3432 
Q 2725 3281 2906 2969 
z
M 947 1747 
Q 947 1113 1208 752 
Q 1469 391 1925 391 
Q 2381 391 2643 752 
Q 2906 1113 2906 1747 
Q 2906 2381 2643 2742 
Q 2381 3103 1925 3103 
Q 1469 3103 1208 2742 
Q 947 2381 947 1747 
z
" transform="scale(0.015625)"/>
      <path id="DejaVuSans-50" d="M 1259 4147 
L 1259 2394 
L 2053 2394 
Q 2494 2394 2734 2622 
Q 2975 2850 2975 3272 
Q 2975 3691 2734 3919 
Q 2494 4147 2053 4147 
L 1259 4147 
z
M 628 4666 
L 2053 4666 
Q 2838 4666 3239 4311 
Q 3641 3956 3641 3272 
Q 3641 2581 3239 2228 
Q 2838 1875 2053 1875 
L 1259 1875 
L 1259 0 
L 628 0 
L 628 4666 
z
" transform="scale(0.015625)"/>
      <path id="DejaVuSans-53" d="M 3425 4513 
L 3425 3897 
Q 3066 4069 2747 4153 
Q 2428 4238 2131 4238 
Q 1616 4238 1336 4038 
Q 1056 3838 1056 3469 
Q 1056 3159 1242 3001 
Q 1428 2844 1947 2747 
L 2328 2669 
Q 3034 2534 3370 2195 
Q 3706 1856 3706 1288 
Q 3706 609 3251 259 
Q 2797 -91 1919 -91 
Q 1588 -91 1214 -16 
Q 841 59 441 206 
L 441 856 
Q 825 641 1194 531 
Q 1563 422 1919 422 
Q 2459 422 2753 634 
Q 3047 847 3047 1241 
Q 3047 1584 2836 1778 
Q 2625 1972 2144 2069 
L 1759 2144 
Q 1053 2284 737 2584 
Q 422 2884 422 3419 
Q 422 4038 858 4394 
Q 1294 4750 2059 4750 
Q 2388 4750 2728 4690 
Q 3069 4631 3425 4513 
z
" transform="scale(0.015625)"/>
      <path id="DejaVuSans-45" d="M 628 4666 
L 3578 4666 
L 3578 4134 
L 1259 4134 
L 1259 2753 
L 3481 2753 
L 3481 2222 
L 1259 2222 
L 1259 531 
L 3634 531 
L 3634 0 
L 628 0 
L 628 4666 
z
" transform="scale(0.015625)"/>
      <path id="DejaVuSans-28" d="M 1984 4856 
Q 1566 4138 1362 3434 
Q 1159 2731 1159 2009 
Q 1159 1288 1364 580 
Q 1569 -128 1984 -844 
L 1484 -844 
Q 1016 -109 783 600 
Q 550 1309 550 2009 
Q 550 2706 781 3412 
Q 1013 4119 1484 4856 
L 1984 4856 
z
" transform="scale(0.015625)"/>
      <path id="DejaVuSans-6d" d="M 3328 2828 
Q 3544 3216 3844 3400 
Q 4144 3584 4550 3584 
Q 5097 3584 5394 3201 
Q 5691 2819 5691 2113 
L 5691 0 
L 5113 0 
L 5113 2094 
Q 5113 2597 4934 2840 
Q 4756 3084 4391 3084 
Q 3944 3084 3684 2787 
Q 3425 2491 3425 1978 
L 3425 0 
L 2847 0 
L 2847 2094 
Q 2847 2600 2669 2842 
Q 2491 3084 2119 3084 
Q 1678 3084 1418 2786 
Q 1159 2488 1159 1978 
L 1159 0 
L 581 0 
L 581 3500 
L 1159 3500 
L 1159 2956 
Q 1356 3278 1631 3431 
Q 1906 3584 2284 3584 
Q 2666 3584 2933 3390 
Q 3200 3197 3328 2828 
z
" transform="scale(0.015625)"/>
      <path id="DejaVuSans-23" d="M 3272 2816 
L 2363 2816 
L 2100 1772 
L 3016 1772 
L 3272 2816 
z
M 2803 4594 
L 2478 3297 
L 3391 3297 
L 3719 4594 
L 4219 4594 
L 3897 3297 
L 4872 3297 
L 4872 2816 
L 3775 2816 
L 3519 1772 
L 4513 1772 
L 4513 1294 
L 3397 1294 
L 3072 0 
L 2572 0 
L 2894 1294 
L 1978 1294 
L 1656 0 
L 1153 0 
L 1478 1294 
L 494 1294 
L 494 1772 
L 1594 1772 
L 1856 2816 
L 850 2816 
L 850 3297 
L 1978 3297 
L 2297 4594 
L 2803 4594 
z
" transform="scale(0.015625)"/>
      <path id="DejaVuSans-29" d="M 513 4856 
L 1013 4856 
Q 1481 4119 1714 3412 
Q 1947 2706 1947 2009 
Q 1947 1309 1714 600 
Q 1481 -109 1013 -844 
L 513 -844 
Q 928 -128 1133 580 
Q 1338 1288 1338 2009 
Q 1338 2731 1133 3434 
Q 928 4138 513 4856 
z
" transform="scale(0.015625)"/>
     </defs>
     <use xlink:href="#DejaVuSans-64"/>
     <use xlink:href="#DejaVuSans-50" transform="translate(63.476562 0)"/>
     <use xlink:href="#DejaVuSans-53" transform="translate(123.779297 0)"/>
     <use xlink:href="#DejaVuSans-4f" transform="translate(187.255859 0)"/>
     <use xlink:href="#DejaVuSans-20" transform="translate(265.966797 0)"/>
     <use xlink:href="#DejaVuSans-45" transform="translate(297.753906 0)"/>
     <use xlink:href="#DejaVuSans-76" transform="translate(360.9375 0)"/>
     <use xlink:href="#DejaVuSans-6f" transform="translate(420.117188 0)"/>
     <use xlink:href="#DejaVuSans-6c" transform="translate(481.298828 0)"/>
     <use xlink:href="#DejaVuSans-75" transform="translate(509.082031 0)"/>
     <use xlink:href="#DejaVuSans-74" transform="translate(572.460938 0)"/>
     <use xlink:href="#DejaVuSans-69" transform="translate(611.669922 0)"/>
     <use xlink:href="#DejaVuSans-6f" transform="translate(639.453125 0)"/>
     <use xlink:href="#DejaVuSans-6e" transform="translate(700.634766 0)"/>
     <use xlink:href="#DejaVuSans-20" transform="translate(764.013672 0)"/>
     <use xlink:href="#DejaVuSans-28" transform="translate(795.800781 0)"/>
     <use xlink:href="#DejaVuSans-53" transform="translate(834.814453 0)"/>
     <use xlink:href="#DejaVuSans-69" transform="translate(898.291016 0)"/>
     <use xlink:href="#DejaVuSans-6d" transform="translate(926.074219 0)"/>
     <use xlink:href="#DejaVuSans-75" transform="translate(1023.486328 0)"/>
     <use xlink:href="#DejaVuSans-6c" transform="translate(1086.865234 0)"/>
     <use xlink:href="#DejaVuSans-61" transform="translate(1114.648438 0)"/>
     <use xlink:href="#DejaVuSans-74" transform="translate(1175.927734 0)"/>
     <use xlink:href="#DejaVuSans-69" transform="translate(1215.136719 0)"/>
     <use xlink:href="#DejaVuSans-6f" transform="translate(1242.919922 0)"/>
     <use xlink:href="#DejaVuSans-6e" transform="translate(1304.101562 0)"/>
     <use xlink:href="#DejaVuSans-20" transform="translate(1367.480469 0)"/>
     <use xlink:href="#DejaVuSans-23" transform="translate(1399.267578 0)"/>
     <use xlink:href="#DejaVuSans-31" transform="translate(1483.056641 0)"/>
     <use xlink:href="#DejaVuSans-29" transform="translate(1546.679688 0)"/>
    </g>
   </g>
   <g id="legend_1">
    <g id="patch_7">
     <path d="M 549.897188 55.43625 
L 698.355 55.43625 
Q 700.355 55.43625 700.355 53.43625 
L 700.355 25.08 
Q 700.355 23.08 698.355 23.08 
L 549.897188 23.08 
Q 547.897188 23.08 547.897188 25.08 
L 547.897188 53.43625 
Q 547.897188 55.43625 549.897188 55.43625 
z
" style="fill: #ffffff; opacity: 0.8; stroke: #cccccc; stroke-linejoin: miter"/>
    </g>
    <g id="line2d_35">
     <path d="M 551.897188 31.178437 
L 561.897188 31.178437 
L 561.897188 31.178437 
L 571.897188 31.178437 
L 571.897188 31.178437 
" style="fill: none; stroke: #1f77b4; stroke-width: 1.5; stroke-linecap: square"/>
    </g>
    <g id="text_20">
     <!-- Best Fitness (dPSO) -->
     <g transform="translate(579.897188 34.678437) scale(0.1 -0.1)">
      <defs>
       <path id="DejaVuSans-42" d="M 1259 2228 
L 1259 519 
L 2272 519 
Q 2781 519 3026 730 
Q 3272 941 3272 1375 
Q 3272 1813 3026 2020 
Q 2781 2228 2272 2228 
L 1259 2228 
z
M 1259 4147 
L 1259 2741 
L 2194 2741 
Q 2656 2741 2882 2914 
Q 3109 3088 3109 3444 
Q 3109 3797 2882 3972 
Q 2656 4147 2194 4147 
L 1259 4147 
z
M 628 4666 
L 2241 4666 
Q 2963 4666 3353 4366 
Q 3744 4066 3744 3513 
Q 3744 3084 3544 2831 
Q 3344 2578 2956 2516 
Q 3422 2416 3680 2098 
Q 3938 1781 3938 1306 
Q 3938 681 3513 340 
Q 3088 0 2303 0 
L 628 0 
L 628 4666 
z
" transform="scale(0.015625)"/>
       <path id="DejaVuSans-73" d="M 2834 3397 
L 2834 2853 
Q 2591 2978 2328 3040 
Q 2066 3103 1784 3103 
Q 1356 3103 1142 2972 
Q 928 2841 928 2578 
Q 928 2378 1081 2264 
Q 1234 2150 1697 2047 
L 1894 2003 
Q 2506 1872 2764 1633 
Q 3022 1394 3022 966 
Q 3022 478 2636 193 
Q 2250 -91 1575 -91 
Q 1294 -91 989 -36 
Q 684 19 347 128 
L 347 722 
Q 666 556 975 473 
Q 1284 391 1588 391 
Q 1994 391 2212 530 
Q 2431 669 2431 922 
Q 2431 1156 2273 1281 
Q 2116 1406 1581 1522 
L 1381 1569 
Q 847 1681 609 1914 
Q 372 2147 372 2553 
Q 372 3047 722 3315 
Q 1072 3584 1716 3584 
Q 2034 3584 2315 3537 
Q 2597 3491 2834 3397 
z
" transform="scale(0.015625)"/>
       <path id="DejaVuSans-46" d="M 628 4666 
L 3309 4666 
L 3309 4134 
L 1259 4134 
L 1259 2759 
L 3109 2759 
L 3109 2228 
L 1259 2228 
L 1259 0 
L 628 0 
L 628 4666 
z
" transform="scale(0.015625)"/>
      </defs>
      <use xlink:href="#DejaVuSans-42"/>
      <use xlink:href="#DejaVuSans-65" transform="translate(68.603516 0)"/>
      <use xlink:href="#DejaVuSans-73" transform="translate(130.126953 0)"/>
      <use xlink:href="#DejaVuSans-74" transform="translate(182.226562 0)"/>
      <use xlink:href="#DejaVuSans-20" transform="translate(221.435547 0)"/>
      <use xlink:href="#DejaVuSans-46" transform="translate(253.222656 0)"/>
      <use xlink:href="#DejaVuSans-69" transform="translate(303.492188 0)"/>
      <use xlink:href="#DejaVuSans-74" transform="translate(331.275391 0)"/>
      <use xlink:href="#DejaVuSans-6e" transform="translate(370.484375 0)"/>
      <use xlink:href="#DejaVuSans-65" transform="translate(433.863281 0)"/>
      <use xlink:href="#DejaVuSans-73" transform="translate(495.386719 0)"/>
      <use xlink:href="#DejaVuSans-73" transform="translate(547.486328 0)"/>
      <use xlink:href="#DejaVuSans-20" transform="translate(599.585938 0)"/>
      <use xlink:href="#DejaVuSans-28" transform="translate(631.373047 0)"/>
      <use xlink:href="#DejaVuSans-64" transform="translate(670.386719 0)"/>
      <use xlink:href="#DejaVuSans-50" transform="translate(733.863281 0)"/>
      <use xlink:href="#DejaVuSans-53" transform="translate(794.166016 0)"/>
      <use xlink:href="#DejaVuSans-4f" transform="translate(857.642578 0)"/>
      <use xlink:href="#DejaVuSans-29" transform="translate(936.353516 0)"/>
     </g>
    </g>
    <g id="line2d_36">
     <path d="M 551.897188 45.856562 
L 561.897188 45.856562 
L 571.897188 45.856562 
" style="fill: none; stroke-dasharray: 5.55,2.4; stroke-dashoffset: 0; stroke: #ff7f0e; stroke-width: 1.5"/>
    </g>
    <g id="text_21">
     <!-- Average Fitness (dPSO) -->
     <g transform="translate(579.897188 49.356562) scale(0.1 -0.1)">
      <defs>
       <path id="DejaVuSans-41" d="M 2188 4044 
L 1331 1722 
L 3047 1722 
L 2188 4044 
z
M 1831 4666 
L 2547 4666 
L 4325 0 
L 3669 0 
L 3244 1197 
L 1141 1197 
L 716 0 
L 50 0 
L 1831 4666 
z
" transform="scale(0.015625)"/>
       <path id="DejaVuSans-67" d="M 2906 1791 
Q 2906 2416 2648 2759 
Q 2391 3103 1925 3103 
Q 1463 3103 1205 2759 
Q 947 2416 947 1791 
Q 947 1169 1205 825 
Q 1463 481 1925 481 
Q 2391 481 2648 825 
Q 2906 1169 2906 1791 
z
M 3481 434 
Q 3481 -459 3084 -895 
Q 2688 -1331 1869 -1331 
Q 1566 -1331 1297 -1286 
Q 1028 -1241 775 -1147 
L 775 -588 
Q 1028 -725 1275 -790 
Q 1522 -856 1778 -856 
Q 2344 -856 2625 -561 
Q 2906 -266 2906 331 
L 2906 616 
Q 2728 306 2450 153 
Q 2172 0 1784 0 
Q 1141 0 747 490 
Q 353 981 353 1791 
Q 353 2603 747 3093 
Q 1141 3584 1784 3584 
Q 2172 3584 2450 3431 
Q 2728 3278 2906 2969 
L 2906 3500 
L 3481 3500 
L 3481 434 
z
" transform="scale(0.015625)"/>
      </defs>
      <use xlink:href="#DejaVuSans-41"/>
      <use xlink:href="#DejaVuSans-76" transform="translate(62.533203 0)"/>
      <use xlink:href="#DejaVuSans-65" transform="translate(121.712891 0)"/>
      <use xlink:href="#DejaVuSans-72" transform="translate(183.236328 0)"/>
      <use xlink:href="#DejaVuSans-61" transform="translate(224.349609 0)"/>
      <use xlink:href="#DejaVuSans-67" transform="translate(285.628906 0)"/>
      <use xlink:href="#DejaVuSans-65" transform="translate(349.105469 0)"/>
      <use xlink:href="#DejaVuSans-20" transform="translate(410.628906 0)"/>
      <use xlink:href="#DejaVuSans-46" transform="translate(442.416016 0)"/>
      <use xlink:href="#DejaVuSans-69" transform="translate(492.685547 0)"/>
      <use xlink:href="#DejaVuSans-74" transform="translate(520.46875 0)"/>
      <use xlink:href="#DejaVuSans-6e" transform="translate(559.677734 0)"/>
      <use xlink:href="#DejaVuSans-65" transform="translate(623.056641 0)"/>
      <use xlink:href="#DejaVuSans-73" transform="translate(684.580078 0)"/>
      <use xlink:href="#DejaVuSans-73" transform="translate(736.679688 0)"/>
      <use xlink:href="#DejaVuSans-20" transform="translate(788.779297 0)"/>
      <use xlink:href="#DejaVuSans-28" transform="translate(820.566406 0)"/>
      <use xlink:href="#DejaVuSans-64" transform="translate(859.580078 0)"/>
      <use xlink:href="#DejaVuSans-50" transform="translate(923.056641 0)"/>
      <use xlink:href="#DejaVuSans-53" transform="translate(983.359375 0)"/>
      <use xlink:href="#DejaVuSans-4f" transform="translate(1046.835938 0)"/>
      <use xlink:href="#DejaVuSans-29" transform="translate(1125.546875 0)"/>
     </g>
    </g>
   </g>
  </g>
 </g>
 <defs>
  <clipPath id="p1421d9ba14">
   <rect x="48.28" y="18.08" width="657.075" height="380.76"/>
  </clipPath>
 </defs>
</svg>
