<?xml version="1.0" encoding="utf-8" standalone="no"?>
<!DOCTYPE svg PUBLIC "-//W3C//DTD SVG 1.1//EN"
  "http://www.w3.org/Graphics/SVG/1.1/DTD/svg11.dtd">
<svg xmlns:xlink="http://www.w3.org/1999/xlink" width="720pt" height="432pt" viewBox="0 0 720 432" xmlns="http://www.w3.org/2000/svg" version="1.1">
 <metadata>
  <rdf:RDF xmlns:dc="http://purl.org/dc/elements/1.1/" xmlns:cc="http://creativecommons.org/ns#" xmlns:rdf="http://www.w3.org/1999/02/22-rdf-syntax-ns#">
   <cc:Work>
    <dc:type rdf:resource="http://purl.org/dc/dcmitype/StillImage"/>
    <dc:date>2025-11-25T04:16:44.165067</dc:date>
    <dc:format>image/svg+xml</dc:format>
    <dc:creator>
     <cc:Agent>
      <dc:title>Matplotlib v3.10.6, https://matplotlib.org/</dc:title>
     </cc:Agent>
    </dc:creator>
   </cc:Work>
  </rdf:RDF>
 </metadata>
 <defs>
  <style type="text/css">*{stroke-linejoin: round; stroke-linecap: butt}</style>
 </defs>
 <g id="figure_1">
  <g id="patch_1">
   <path d="M 0 432 
L 720 432 
L 720 0 
L 0 0 
z
" style="fill: #ffffff"/>
  </g>
  <g id="axes_1">
   <g id="patch_2">
    <path d="M 48.37 398.84 
L 705.355 398.84 
L 705.355 18.08 
L 48.37 18.08 
z
" style="fill: #ffffff"/>
   </g>
   <g id="matplotlib.axis_1">
    <g id="xtick_1">
     <g id="line2d_1">
      <path d="M 48.37 398.84 
L 48.37 18.08 
" clip-path="url(#pd468246546)" style="fill: none; stroke-dasharray: 0.8,1.32; stroke-dashoffset: 0; stroke: #b0b0b0; stroke-opacity: 0.7; stroke-width: 0.8"/>
     </g>
     <g id="line2d_2">
      <defs>
       <path id="me570df7635" d="M 0 0 
L 0 3.5 
" style="stroke: #000000; stroke-width: 0.8"/>
      </defs>
      <g>
       <use xlink:href="#me570df7635" x="48.37" y="398.84" style="stroke: #000000; stroke-width: 0.8"/>
      </g>
     </g>
     <g id="text_1">
      <!-- 0 -->
      <g transform="translate(45.18875 413.438437) scale(0.1 -0.1)">
       <defs>
        <path id="DejaVuSans-30" d="M 2034 4250 
Q 1547 4250 1301 3770 
Q 1056 3291 1056 2328 
Q 1056 1369 1301 889 
Q 1547 409 2034 409 
Q 2525 409 2770 889 
Q 3016 1369 3016 2328 
Q 3016 3291 2770 3770 
Q 2525 4250 2034 4250 
z
M 2034 4750 
Q 2819 4750 3233 4129 
Q 3647 3509 3647 2328 
Q 3647 1150 3233 529 
Q 2819 -91 2034 -91 
Q 1250 -91 836 529 
Q 422 1150 422 2328 
Q 422 3509 836 4129 
Q 1250 4750 2034 4750 
z
" transform="scale(0.015625)"/>
       </defs>
       <use xlink:href="#DejaVuSans-30"/>
      </g>
     </g>
    </g>
    <g id="xtick_2">
     <g id="line2d_3">
      <path d="M 114.0685 398.84 
L 114.0685 18.08 
" clip-path="url(#pd468246546)" style="fill: none; stroke-dasharray: 0.8,1.32; stroke-dashoffset: 0; stroke: #b0b0b0; stroke-opacity: 0.7; stroke-width: 0.8"/>
     </g>
     <g id="line2d_4">
      <g>
       <use xlink:href="#me570df7635" x="114.0685" y="398.84" style="stroke: #000000; stroke-width: 0.8"/>
      </g>
     </g>
     <g id="text_2">
      <!-- 100 -->
      <g transform="translate(104.52475 413.438437) scale(0.1 -0.1)">
       <defs>
        <path id="DejaVuSans-31" d="M 794 531 
L 1825 531 
L 1825 4091 
L 703 3866 
L 703 4441 
L 1819 4666 
L 2450 4666 
L 2450 531 
L 3481 531 
L 3481 0 
L 794 0 
L 794 531 
z
" transform="scale(0.015625)"/>
       </defs>
       <use xlink:href="#DejaVuSans-31"/>
       <use xlink:href="#DejaVuSans-30" transform="translate(63.623047 0)"/>
       <use xlink:href="#DejaVuSans-30" transform="translate(127.246094 0)"/>
      </g>
     </g>
    </g>
    <g id="xtick_3">
     <g id="line2d_5">
      <path d="M 179.767 398.84 
L 179.767 18.08 
" clip-path="url(#pd468246546)" style="fill: none; stroke-dasharray: 0.8,1.32; stroke-dashoffset: 0; stroke: #b0b0b0; stroke-opacity: 0.7; stroke-width: 0.8"/>
     </g>
     <g id="line2d_6">
      <g>
       <use xlink:href="#me570df7635" x="179.767" y="398.84" style="stroke: #000000; stroke-width: 0.8"/>
      </g>
     </g>
     <g id="text_3">
      <!-- 200 -->
      <g transform="translate(170.22325 413.438437) scale(0.1 -0.1)">
       <defs>
        <path id="DejaVuSans-32" d="M 1228 531 
L 3431 531 
L 3431 0 
L 469 0 
L 469 531 
Q 828 903 1448 1529 
Q 2069 2156 2228 2338 
Q 2531 2678 2651 2914 
Q 2772 3150 2772 3378 
Q 2772 3750 2511 3984 
Q 2250 4219 1831 4219 
Q 1534 4219 1204 4116 
Q 875 4013 500 3803 
L 500 4441 
Q 881 4594 1212 4672 
Q 1544 4750 1819 4750 
Q 2544 4750 2975 4387 
Q 3406 4025 3406 3419 
Q 3406 3131 3298 2873 
Q 3191 2616 2906 2266 
Q 2828 2175 2409 1742 
Q 1991 1309 1228 531 
z
" transform="scale(0.015625)"/>
       </defs>
       <use xlink:href="#DejaVuSans-32"/>
       <use xlink:href="#DejaVuSans-30" transform="translate(63.623047 0)"/>
       <use xlink:href="#DejaVuSans-30" transform="translate(127.246094 0)"/>
      </g>
     </g>
    </g>
    <g id="xtick_4">
     <g id="line2d_7">
      <path d="M 245.4655 398.84 
L 245.4655 18.08 
" clip-path="url(#pd468246546)" style="fill: none; stroke-dasharray: 0.8,1.32; stroke-dashoffset: 0; stroke: #b0b0b0; stroke-opacity: 0.7; stroke-width: 0.8"/>
     </g>
     <g id="line2d_8">
      <g>
       <use xlink:href="#me570df7635" x="245.4655" y="398.84" style="stroke: #000000; stroke-width: 0.8"/>
      </g>
     </g>
     <g id="text_4">
      <!-- 300 -->
      <g transform="translate(235.92175 413.438437) scale(0.1 -0.1)">
       <defs>
        <path id="DejaVuSans-33" d="M 2597 2516 
Q 3050 2419 3304 2112 
Q 3559 1806 3559 1356 
Q 3559 666 3084 287 
Q 2609 -91 1734 -91 
Q 1441 -91 1130 -33 
Q 819 25 488 141 
L 488 750 
Q 750 597 1062 519 
Q 1375 441 1716 441 
Q 2309 441 2620 675 
Q 2931 909 2931 1356 
Q 2931 1769 2642 2001 
Q 2353 2234 1838 2234 
L 1294 2234 
L 1294 2753 
L 1863 2753 
Q 2328 2753 2575 2939 
Q 2822 3125 2822 3475 
Q 2822 3834 2567 4026 
Q 2313 4219 1838 4219 
Q 1578 4219 1281 4162 
Q 984 4106 628 3988 
L 628 4550 
Q 988 4650 1302 4700 
Q 1616 4750 1894 4750 
Q 2613 4750 3031 4423 
Q 3450 4097 3450 3541 
Q 3450 3153 3228 2886 
Q 3006 2619 2597 2516 
z
" transform="scale(0.015625)"/>
       </defs>
       <use xlink:href="#DejaVuSans-33"/>
       <use xlink:href="#DejaVuSans-30" transform="translate(63.623047 0)"/>
       <use xlink:href="#DejaVuSans-30" transform="translate(127.246094 0)"/>
      </g>
     </g>
    </g>
    <g id="xtick_5">
     <g id="line2d_9">
      <path d="M 311.164 398.84 
L 311.164 18.08 
" clip-path="url(#pd468246546)" style="fill: none; stroke-dasharray: 0.8,1.32; stroke-dashoffset: 0; stroke: #b0b0b0; stroke-opacity: 0.7; stroke-width: 0.8"/>
     </g>
     <g id="line2d_10">
      <g>
       <use xlink:href="#me570df7635" x="311.164" y="398.84" style="stroke: #000000; stroke-width: 0.8"/>
      </g>
     </g>
     <g id="text_5">
      <!-- 400 -->
      <g transform="translate(301.62025 413.438437) scale(0.1 -0.1)">
       <defs>
        <path id="DejaVuSans-34" d="M 2419 4116 
L 825 1625 
L 2419 1625 
L 2419 4116 
z
M 2253 4666 
L 3047 4666 
L 3047 1625 
L 3713 1625 
L 3713 1100 
L 3047 1100 
L 3047 0 
L 2419 0 
L 2419 1100 
L 313 1100 
L 313 1709 
L 2253 4666 
z
" transform="scale(0.015625)"/>
       </defs>
       <use xlink:href="#DejaVuSans-34"/>
       <use xlink:href="#DejaVuSans-30" transform="translate(63.623047 0)"/>
       <use xlink:href="#DejaVuSans-30" transform="translate(127.246094 0)"/>
      </g>
     </g>
    </g>
    <g id="xtick_6">
     <g id="line2d_11">
      <path d="M 376.8625 398.84 
L 376.8625 18.08 
" clip-path="url(#pd468246546)" style="fill: none; stroke-dasharray: 0.8,1.32; stroke-dashoffset: 0; stroke: #b0b0b0; stroke-opacity: 0.7; stroke-width: 0.8"/>
     </g>
     <g id="line2d_12">
      <g>
       <use xlink:href="#me570df7635" x="376.8625" y="398.84" style="stroke: #000000; stroke-width: 0.8"/>
      </g>
     </g>
     <g id="text_6">
      <!-- 500 -->
      <g transform="translate(367.31875 413.438437) scale(0.1 -0.1)">
       <defs>
        <path id="DejaVuSans-35" d="M 691 4666 
L 3169 4666 
L 3169 4134 
L 1269 4134 
L 1269 2991 
Q 1406 3038 1543 3061 
Q 1681 3084 1819 3084 
Q 2600 3084 3056 2656 
Q 3513 2228 3513 1497 
Q 3513 744 3044 326 
Q 2575 -91 1722 -91 
Q 1428 -91 1123 -41 
Q 819 9 494 109 
L 494 744 
Q 775 591 1075 516 
Q 1375 441 1709 441 
Q 2250 441 2565 725 
Q 2881 1009 2881 1497 
Q 2881 1984 2565 2268 
Q 2250 2553 1709 2553 
Q 1456 2553 1204 2497 
Q 953 2441 691 2322 
L 691 4666 
z
" transform="scale(0.015625)"/>
       </defs>
       <use xlink:href="#DejaVuSans-35"/>
       <use xlink:href="#DejaVuSans-30" transform="translate(63.623047 0)"/>
       <use xlink:href="#DejaVuSans-30" transform="translate(127.246094 0)"/>
      </g>
     </g>
    </g>
    <g id="xtick_7">
     <g id="line2d_13">
      <path d="M 442.561 398.84 
L 442.561 18.08 
" clip-path="url(#pd468246546)" style="fill: none; stroke-dasharray: 0.8,1.32; stroke-dashoffset: 0; stroke: #b0b0b0; stroke-opacity: 0.7; stroke-width: 0.8"/>
     </g>
     <g id="line2d_14">
      <g>
       <use xlink:href="#me570df7635" x="442.561" y="398.84" style="stroke: #000000; stroke-width: 0.8"/>
      </g>
     </g>
     <g id="text_7">
      <!-- 600 -->
      <g transform="translate(433.01725 413.438437) scale(0.1 -0.1)">
       <defs>
        <path id="DejaVuSans-36" d="M 2113 2584 
Q 1688 2584 1439 2293 
Q 1191 2003 1191 1497 
Q 1191 994 1439 701 
Q 1688 409 2113 409 
Q 2538 409 2786 701 
Q 3034 994 3034 1497 
Q 3034 2003 2786 2293 
Q 2538 2584 2113 2584 
z
M 3366 4563 
L 3366 3988 
Q 3128 4100 2886 4159 
Q 2644 4219 2406 4219 
Q 1781 4219 1451 3797 
Q 1122 3375 1075 2522 
Q 1259 2794 1537 2939 
Q 1816 3084 2150 3084 
Q 2853 3084 3261 2657 
Q 3669 2231 3669 1497 
Q 3669 778 3244 343 
Q 2819 -91 2113 -91 
Q 1303 -91 875 529 
Q 447 1150 447 2328 
Q 447 3434 972 4092 
Q 1497 4750 2381 4750 
Q 2619 4750 2861 4703 
Q 3103 4656 3366 4563 
z
" transform="scale(0.015625)"/>
       </defs>
       <use xlink:href="#DejaVuSans-36"/>
       <use xlink:href="#DejaVuSans-30" transform="translate(63.623047 0)"/>
       <use xlink:href="#DejaVuSans-30" transform="translate(127.246094 0)"/>
      </g>
     </g>
    </g>
    <g id="xtick_8">
     <g id="line2d_15">
      <path d="M 508.2595 398.84 
L 508.2595 18.08 
" clip-path="url(#pd468246546)" style="fill: none; stroke-dasharray: 0.8,1.32; stroke-dashoffset: 0; stroke: #b0b0b0; stroke-opacity: 0.7; stroke-width: 0.8"/>
     </g>
     <g id="line2d_16">
      <g>
       <use xlink:href="#me570df7635" x="508.2595" y="398.84" style="stroke: #000000; stroke-width: 0.8"/>
      </g>
     </g>
     <g id="text_8">
      <!-- 700 -->
      <g transform="translate(498.71575 413.438437) scale(0.1 -0.1)">
       <defs>
        <path id="DejaVuSans-37" d="M 525 4666 
L 3525 4666 
L 3525 4397 
L 1831 0 
L 1172 0 
L 2766 4134 
L 525 4134 
L 525 4666 
z
" transform="scale(0.015625)"/>
       </defs>
       <use xlink:href="#DejaVuSans-37"/>
       <use xlink:href="#DejaVuSans-30" transform="translate(63.623047 0)"/>
       <use xlink:href="#DejaVuSans-30" transform="translate(127.246094 0)"/>
      </g>
     </g>
    </g>
    <g id="xtick_9">
     <g id="line2d_17">
      <path d="M 573.958 398.84 
L 573.958 18.08 
" clip-path="url(#pd468246546)" style="fill: none; stroke-dasharray: 0.8,1.32; stroke-dashoffset: 0; stroke: #b0b0b0; stroke-opacity: 0.7; stroke-width: 0.8"/>
     </g>
     <g id="line2d_18">
      <g>
       <use xlink:href="#me570df7635" x="573.958" y="398.84" style="stroke: #000000; stroke-width: 0.8"/>
      </g>
     </g>
     <g id="text_9">
      <!-- 800 -->
      <g transform="translate(564.41425 413.438437) scale(0.1 -0.1)">
       <defs>
        <path id="DejaVuSans-38" d="M 2034 2216 
Q 1584 2216 1326 1975 
Q 1069 1734 1069 1313 
Q 1069 891 1326 650 
Q 1584 409 2034 409 
Q 2484 409 2743 651 
Q 3003 894 3003 1313 
Q 3003 1734 2745 1975 
Q 2488 2216 2034 2216 
z
M 1403 2484 
Q 997 2584 770 2862 
Q 544 3141 544 3541 
Q 544 4100 942 4425 
Q 1341 4750 2034 4750 
Q 2731 4750 3128 4425 
Q 3525 4100 3525 3541 
Q 3525 3141 3298 2862 
Q 3072 2584 2669 2484 
Q 3125 2378 3379 2068 
Q 3634 1759 3634 1313 
Q 3634 634 3220 271 
Q 2806 -91 2034 -91 
Q 1263 -91 848 271 
Q 434 634 434 1313 
Q 434 1759 690 2068 
Q 947 2378 1403 2484 
z
M 1172 3481 
Q 1172 3119 1398 2916 
Q 1625 2713 2034 2713 
Q 2441 2713 2670 2916 
Q 2900 3119 2900 3481 
Q 2900 3844 2670 4047 
Q 2441 4250 2034 4250 
Q 1625 4250 1398 4047 
Q 1172 3844 1172 3481 
z
" transform="scale(0.015625)"/>
       </defs>
       <use xlink:href="#DejaVuSans-38"/>
       <use xlink:href="#DejaVuSans-30" transform="translate(63.623047 0)"/>
       <use xlink:href="#DejaVuSans-30" transform="translate(127.246094 0)"/>
      </g>
     </g>
    </g>
    <g id="xtick_10">
     <g id="line2d_19">
      <path d="M 639.6565 398.84 
L 639.6565 18.08 
" clip-path="url(#pd468246546)" style="fill: none; stroke-dasharray: 0.8,1.32; stroke-dashoffset: 0; stroke: #b0b0b0; stroke-opacity: 0.7; stroke-width: 0.8"/>
     </g>
     <g id="line2d_20">
      <g>
       <use xlink:href="#me570df7635" x="639.6565" y="398.84" style="stroke: #000000; stroke-width: 0.8"/>
      </g>
     </g>
     <g id="text_10">
      <!-- 900 -->
      <g transform="translate(630.11275 413.438437) scale(0.1 -0.1)">
       <defs>
        <path id="DejaVuSans-39" d="M 703 97 
L 703 672 
Q 941 559 1184 500 
Q 1428 441 1663 441 
Q 2288 441 2617 861 
Q 2947 1281 2994 2138 
Q 2813 1869 2534 1725 
Q 2256 1581 1919 1581 
Q 1219 1581 811 2004 
Q 403 2428 403 3163 
Q 403 3881 828 4315 
Q 1253 4750 1959 4750 
Q 2769 4750 3195 4129 
Q 3622 3509 3622 2328 
Q 3622 1225 3098 567 
Q 2575 -91 1691 -91 
Q 1453 -91 1209 -44 
Q 966 3 703 97 
z
M 1959 2075 
Q 2384 2075 2632 2365 
Q 2881 2656 2881 3163 
Q 2881 3666 2632 3958 
Q 2384 4250 1959 4250 
Q 1534 4250 1286 3958 
Q 1038 3666 1038 3163 
Q 1038 2656 1286 2365 
Q 1534 2075 1959 2075 
z
" transform="scale(0.015625)"/>
       </defs>
       <use xlink:href="#DejaVuSans-39"/>
       <use xlink:href="#DejaVuSans-30" transform="translate(63.623047 0)"/>
       <use xlink:href="#DejaVuSans-30" transform="translate(127.246094 0)"/>
      </g>
     </g>
    </g>
    <g id="xtick_11">
     <g id="line2d_21">
      <path d="M 705.355 398.84 
L 705.355 18.08 
" clip-path="url(#pd468246546)" style="fill: none; stroke-dasharray: 0.8,1.32; stroke-dashoffset: 0; stroke: #b0b0b0; stroke-opacity: 0.7; stroke-width: 0.8"/>
     </g>
     <g id="line2d_22">
      <g>
       <use xlink:href="#me570df7635" x="705.355" y="398.84" style="stroke: #000000; stroke-width: 0.8"/>
      </g>
     </g>
     <g id="text_11">
      <!-- 1000 -->
      <g transform="translate(692.63 413.438437) scale(0.1 -0.1)">
       <use xlink:href="#DejaVuSans-31"/>
       <use xlink:href="#DejaVuSans-30" transform="translate(63.623047 0)"/>
       <use xlink:href="#DejaVuSans-30" transform="translate(127.246094 0)"/>
       <use xlink:href="#DejaVuSans-30" transform="translate(190.869141 0)"/>
      </g>
     </g>
    </g>
    <g id="text_12">
     <!-- Iteration / Generation -->
     <g transform="translate(322.898438 427.116562) scale(0.1 -0.1)">
      <defs>
       <path id="DejaVuSans-49" d="M 628 4666 
L 1259 4666 
L 1259 0 
L 628 0 
L 628 4666 
z
" transform="scale(0.015625)"/>
       <path id="DejaVuSans-74" d="M 1172 4494 
L 1172 3500 
L 2356 3500 
L 2356 3053 
L 1172 3053 
L 1172 1153 
Q 1172 725 1289 603 
Q 1406 481 1766 481 
L 2356 481 
L 2356 0 
L 1766 0 
Q 1100 0 847 248 
Q 594 497 594 1153 
L 594 3053 
L 172 3053 
L 172 3500 
L 594 3500 
L 594 4494 
L 1172 4494 
z
" transform="scale(0.015625)"/>
       <path id="DejaVuSans-65" d="M 3597 1894 
L 3597 1613 
L 953 1613 
Q 991 1019 1311 708 
Q 1631 397 2203 397 
Q 2534 397 2845 478 
Q 3156 559 3463 722 
L 3463 178 
Q 3153 47 2828 -22 
Q 2503 -91 2169 -91 
Q 1331 -91 842 396 
Q 353 884 353 1716 
Q 353 2575 817 3079 
Q 1281 3584 2069 3584 
Q 2775 3584 3186 3129 
Q 3597 2675 3597 1894 
z
M 3022 2063 
Q 3016 2534 2758 2815 
Q 2500 3097 2075 3097 
Q 1594 3097 1305 2825 
Q 1016 2553 972 2059 
L 3022 2063 
z
" transform="scale(0.015625)"/>
       <path id="DejaVuSans-72" d="M 2631 2963 
Q 2534 3019 2420 3045 
Q 2306 3072 2169 3072 
Q 1681 3072 1420 2755 
Q 1159 2438 1159 1844 
L 1159 0 
L 581 0 
L 581 3500 
L 1159 3500 
L 1159 2956 
Q 1341 3275 1631 3429 
Q 1922 3584 2338 3584 
Q 2397 3584 2469 3576 
Q 2541 3569 2628 3553 
L 2631 2963 
z
" transform="scale(0.015625)"/>
       <path id="DejaVuSans-61" d="M 2194 1759 
Q 1497 1759 1228 1600 
Q 959 1441 959 1056 
Q 959 750 1161 570 
Q 1363 391 1709 391 
Q 2188 391 2477 730 
Q 2766 1069 2766 1631 
L 2766 1759 
L 2194 1759 
z
M 3341 1997 
L 3341 0 
L 2766 0 
L 2766 531 
Q 2569 213 2275 61 
Q 1981 -91 1556 -91 
Q 1019 -91 701 211 
Q 384 513 384 1019 
Q 384 1609 779 1909 
Q 1175 2209 1959 2209 
L 2766 2209 
L 2766 2266 
Q 2766 2663 2505 2880 
Q 2244 3097 1772 3097 
Q 1472 3097 1187 3025 
Q 903 2953 641 2809 
L 641 3341 
Q 956 3463 1253 3523 
Q 1550 3584 1831 3584 
Q 2591 3584 2966 3190 
Q 3341 2797 3341 1997 
z
" transform="scale(0.015625)"/>
       <path id="DejaVuSans-69" d="M 603 3500 
L 1178 3500 
L 1178 0 
L 603 0 
L 603 3500 
z
M 603 4863 
L 1178 4863 
L 1178 4134 
L 603 4134 
L 603 4863 
z
" transform="scale(0.015625)"/>
       <path id="DejaVuSans-6f" d="M 1959 3097 
Q 1497 3097 1228 2736 
Q 959 2375 959 1747 
Q 959 1119 1226 758 
Q 1494 397 1959 397 
Q 2419 397 2687 759 
Q 2956 1122 2956 1747 
Q 2956 2369 2687 2733 
Q 2419 3097 1959 3097 
z
M 1959 3584 
Q 2709 3584 3137 3096 
Q 3566 2609 3566 1747 
Q 3566 888 3137 398 
Q 2709 -91 1959 -91 
Q 1206 -91 779 398 
Q 353 888 353 1747 
Q 353 2609 779 3096 
Q 1206 3584 1959 3584 
z
" transform="scale(0.015625)"/>
       <path id="DejaVuSans-6e" d="M 3513 2113 
L 3513 0 
L 2938 0 
L 2938 2094 
Q 2938 2591 2744 2837 
Q 2550 3084 2163 3084 
Q 1697 3084 1428 2787 
Q 1159 2491 1159 1978 
L 1159 0 
L 581 0 
L 581 3500 
L 1159 3500 
L 1159 2956 
Q 1366 3272 1645 3428 
Q 1925 3584 2291 3584 
Q 2894 3584 3203 3211 
Q 3513 2838 3513 2113 
z
" transform="scale(0.015625)"/>
       <path id="DejaVuSans-20" transform="scale(0.015625)"/>
       <path id="DejaVuSans-2f" d="M 1625 4666 
L 2156 4666 
L 531 -594 
L 0 -594 
L 1625 4666 
z
" transform="scale(0.015625)"/>
       <path id="DejaVuSans-47" d="M 3809 666 
L 3809 1919 
L 2778 1919 
L 2778 2438 
L 4434 2438 
L 4434 434 
Q 4069 175 3628 42 
Q 3188 -91 2688 -91 
Q 1594 -91 976 548 
Q 359 1188 359 2328 
Q 359 3472 976 4111 
Q 1594 4750 2688 4750 
Q 3144 4750 3555 4637 
Q 3966 4525 4313 4306 
L 4313 3634 
Q 3963 3931 3569 4081 
Q 3175 4231 2741 4231 
Q 1884 4231 1454 3753 
Q 1025 3275 1025 2328 
Q 1025 1384 1454 906 
Q 1884 428 2741 428 
Q 3075 428 3337 486 
Q 3600 544 3809 666 
z
" transform="scale(0.015625)"/>
      </defs>
      <use xlink:href="#DejaVuSans-49"/>
      <use xlink:href="#DejaVuSans-74" transform="translate(29.492188 0)"/>
      <use xlink:href="#DejaVuSans-65" transform="translate(68.701172 0)"/>
      <use xlink:href="#DejaVuSans-72" transform="translate(130.224609 0)"/>
      <use xlink:href="#DejaVuSans-61" transform="translate(171.337891 0)"/>
      <use xlink:href="#DejaVuSans-74" transform="translate(232.617188 0)"/>
      <use xlink:href="#DejaVuSans-69" transform="translate(271.826172 0)"/>
      <use xlink:href="#DejaVuSans-6f" transform="translate(299.609375 0)"/>
      <use xlink:href="#DejaVuSans-6e" transform="translate(360.791016 0)"/>
      <use xlink:href="#DejaVuSans-20" transform="translate(424.169922 0)"/>
      <use xlink:href="#DejaVuSans-2f" transform="translate(455.957031 0)"/>
      <use xlink:href="#DejaVuSans-20" transform="translate(489.648438 0)"/>
      <use xlink:href="#DejaVuSans-47" transform="translate(521.435547 0)"/>
      <use xlink:href="#DejaVuSans-65" transform="translate(598.925781 0)"/>
      <use xlink:href="#DejaVuSans-6e" transform="translate(660.449219 0)"/>
      <use xlink:href="#DejaVuSans-65" transform="translate(723.828125 0)"/>
      <use xlink:href="#DejaVuSans-72" transform="translate(785.351562 0)"/>
      <use xlink:href="#DejaVuSans-61" transform="translate(826.464844 0)"/>
      <use xlink:href="#DejaVuSans-74" transform="translate(887.744141 0)"/>
      <use xlink:href="#DejaVuSans-69" transform="translate(926.953125 0)"/>
      <use xlink:href="#DejaVuSans-6f" transform="translate(954.736328 0)"/>
      <use xlink:href="#DejaVuSans-6e" transform="translate(1015.917969 0)"/>
     </g>
    </g>
   </g>
   <g id="matplotlib.axis_2">
    <g id="ytick_1">
     <g id="line2d_23">
      <path d="M 48.37 338.238841 
L 705.355 338.238841 
" clip-path="url(#pd468246546)" style="fill: none; stroke-dasharray: 0.8,1.32; stroke-dashoffset: 0; stroke: #b0b0b0; stroke-opacity: 0.7; stroke-width: 0.8"/>
     </g>
     <g id="line2d_24">
      <defs>
       <path id="mcbde8984d2" d="M 0 0 
L -3.5 0 
" style="stroke: #000000; stroke-width: 0.8"/>
      </defs>
      <g>
       <use xlink:href="#mcbde8984d2" x="48.37" y="338.238841" style="stroke: #000000; stroke-width: 0.8"/>
      </g>
     </g>
     <g id="text_13">
      <!-- 1500 -->
      <g transform="translate(15.92 342.03806) scale(0.1 -0.1)">
       <use xlink:href="#DejaVuSans-31"/>
       <use xlink:href="#DejaVuSans-35" transform="translate(63.623047 0)"/>
       <use xlink:href="#DejaVuSans-30" transform="translate(127.246094 0)"/>
       <use xlink:href="#DejaVuSans-30" transform="translate(190.869141 0)"/>
      </g>
     </g>
    </g>
    <g id="ytick_2">
     <g id="line2d_25">
      <path d="M 48.37 272.373505 
L 705.355 272.373505 
" clip-path="url(#pd468246546)" style="fill: none; stroke-dasharray: 0.8,1.32; stroke-dashoffset: 0; stroke: #b0b0b0; stroke-opacity: 0.7; stroke-width: 0.8"/>
     </g>
     <g id="line2d_26">
      <g>
       <use xlink:href="#mcbde8984d2" x="48.37" y="272.373505" style="stroke: #000000; stroke-width: 0.8"/>
      </g>
     </g>
     <g id="text_14">
      <!-- 2000 -->
      <g transform="translate(15.92 276.172724) scale(0.1 -0.1)">
       <use xlink:href="#DejaVuSans-32"/>
       <use xlink:href="#DejaVuSans-30" transform="translate(63.623047 0)"/>
       <use xlink:href="#DejaVuSans-30" transform="translate(127.246094 0)"/>
       <use xlink:href="#DejaVuSans-30" transform="translate(190.869141 0)"/>
      </g>
     </g>
    </g>
    <g id="ytick_3">
     <g id="line2d_27">
      <path d="M 48.37 206.508169 
L 705.355 206.508169 
" clip-path="url(#pd468246546)" style="fill: none; stroke-dasharray: 0.8,1.32; stroke-dashoffset: 0; stroke: #b0b0b0; stroke-opacity: 0.7; stroke-width: 0.8"/>
     </g>
     <g id="line2d_28">
      <g>
       <use xlink:href="#mcbde8984d2" x="48.37" y="206.508169" style="stroke: #000000; stroke-width: 0.8"/>
      </g>
     </g>
     <g id="text_15">
      <!-- 2500 -->
      <g transform="translate(15.92 210.307388) scale(0.1 -0.1)">
       <use xlink:href="#DejaVuSans-32"/>
       <use xlink:href="#DejaVuSans-35" transform="translate(63.623047 0)"/>
       <use xlink:href="#DejaVuSans-30" transform="translate(127.246094 0)"/>
       <use xlink:href="#DejaVuSans-30" transform="translate(190.869141 0)"/>
      </g>
     </g>
    </g>
    <g id="ytick_4">
     <g id="line2d_29">
      <path d="M 48.37 140.642833 
L 705.355 140.642833 
" clip-path="url(#pd468246546)" style="fill: none; stroke-dasharray: 0.8,1.32; stroke-dashoffset: 0; stroke: #b0b0b0; stroke-opacity: 0.7; stroke-width: 0.8"/>
     </g>
     <g id="line2d_30">
      <g>
       <use xlink:href="#mcbde8984d2" x="48.37" y="140.642833" style="stroke: #000000; stroke-width: 0.8"/>
      </g>
     </g>
     <g id="text_16">
      <!-- 3000 -->
      <g transform="translate(15.92 144.442052) scale(0.1 -0.1)">
       <use xlink:href="#DejaVuSans-33"/>
       <use xlink:href="#DejaVuSans-30" transform="translate(63.623047 0)"/>
       <use xlink:href="#DejaVuSans-30" transform="translate(127.246094 0)"/>
       <use xlink:href="#DejaVuSans-30" transform="translate(190.869141 0)"/>
      </g>
     </g>
    </g>
    <g id="ytick_5">
     <g id="line2d_31">
      <path d="M 48.37 74.777497 
L 705.355 74.777497 
" clip-path="url(#pd468246546)" style="fill: none; stroke-dasharray: 0.8,1.32; stroke-dashoffset: 0; stroke: #b0b0b0; stroke-opacity: 0.7; stroke-width: 0.8"/>
     </g>
     <g id="line2d_32">
      <g>
       <use xlink:href="#mcbde8984d2" x="48.37" y="74.777497" style="stroke: #000000; stroke-width: 0.8"/>
      </g>
     </g>
     <g id="text_17">
      <!-- 3500 -->
      <g transform="translate(15.92 78.576715) scale(0.1 -0.1)">
       <use xlink:href="#DejaVuSans-33"/>
       <use xlink:href="#DejaVuSans-35" transform="translate(63.623047 0)"/>
       <use xlink:href="#DejaVuSans-30" transform="translate(127.246094 0)"/>
       <use xlink:href="#DejaVuSans-30" transform="translate(190.869141 0)"/>
      </g>
     </g>
    </g>
    <g id="text_18">
     <!-- Objective Value -->
     <g transform="translate(9.840312 247.490469) rotate(-90) scale(0.1 -0.1)">
      <defs>
       <path id="DejaVuSans-4f" d="M 2522 4238 
Q 1834 4238 1429 3725 
Q 1025 3213 1025 2328 
Q 1025 1447 1429 934 
Q 1834 422 2522 422 
Q 3209 422 3611 934 
Q 4013 1447 4013 2328 
Q 4013 3213 3611 3725 
Q 3209 4238 2522 4238 
z
M 2522 4750 
Q 3503 4750 4090 4092 
Q 4678 3434 4678 2328 
Q 4678 1225 4090 567 
Q 3503 -91 2522 -91 
Q 1538 -91 948 565 
Q 359 1222 359 2328 
Q 359 3434 948 4092 
Q 1538 4750 2522 4750 
z
" transform="scale(0.015625)"/>
       <path id="DejaVuSans-62" d="M 3116 1747 
Q 3116 2381 2855 2742 
Q 2594 3103 2138 3103 
Q 1681 3103 1420 2742 
Q 1159 2381 1159 1747 
Q 1159 1113 1420 752 
Q 1681 391 2138 391 
Q 2594 391 2855 752 
Q 3116 1113 3116 1747 
z
M 1159 2969 
Q 1341 3281 1617 3432 
Q 1894 3584 2278 3584 
Q 2916 3584 3314 3078 
Q 3713 2572 3713 1747 
Q 3713 922 3314 415 
Q 2916 -91 2278 -91 
Q 1894 -91 1617 61 
Q 1341 213 1159 525 
L 1159 0 
L 581 0 
L 581 4863 
L 1159 4863 
L 1159 2969 
z
" transform="scale(0.015625)"/>
       <path id="DejaVuSans-6a" d="M 603 3500 
L 1178 3500 
L 1178 -63 
Q 1178 -731 923 -1031 
Q 669 -1331 103 -1331 
L -116 -1331 
L -116 -844 
L 38 -844 
Q 366 -844 484 -692 
Q 603 -541 603 -63 
L 603 3500 
z
M 603 4863 
L 1178 4863 
L 1178 4134 
L 603 4134 
L 603 4863 
z
" transform="scale(0.015625)"/>
       <path id="DejaVuSans-63" d="M 3122 3366 
L 3122 2828 
Q 2878 2963 2633 3030 
Q 2388 3097 2138 3097 
Q 1578 3097 1268 2742 
Q 959 2388 959 1747 
Q 959 1106 1268 751 
Q 1578 397 2138 397 
Q 2388 397 2633 464 
Q 2878 531 3122 666 
L 3122 134 
Q 2881 22 2623 -34 
Q 2366 -91 2075 -91 
Q 1284 -91 818 406 
Q 353 903 353 1747 
Q 353 2603 823 3093 
Q 1294 3584 2113 3584 
Q 2378 3584 2631 3529 
Q 2884 3475 3122 3366 
z
" transform="scale(0.015625)"/>
       <path id="DejaVuSans-76" d="M 191 3500 
L 800 3500 
L 1894 563 
L 2988 3500 
L 3597 3500 
L 2284 0 
L 1503 0 
L 191 3500 
z
" transform="scale(0.015625)"/>
       <path id="DejaVuSans-56" d="M 1831 0 
L 50 4666 
L 709 4666 
L 2188 738 
L 3669 4666 
L 4325 4666 
L 2547 0 
L 1831 0 
z
" transform="scale(0.015625)"/>
       <path id="DejaVuSans-6c" d="M 603 4863 
L 1178 4863 
L 1178 0 
L 603 0 
L 603 4863 
z
" transform="scale(0.015625)"/>
       <path id="DejaVuSans-75" d="M 544 1381 
L 544 3500 
L 1119 3500 
L 1119 1403 
Q 1119 906 1312 657 
Q 1506 409 1894 409 
Q 2359 409 2629 706 
Q 2900 1003 2900 1516 
L 2900 3500 
L 3475 3500 
L 3475 0 
L 2900 0 
L 2900 538 
Q 2691 219 2414 64 
Q 2138 -91 1772 -91 
Q 1169 -91 856 284 
Q 544 659 544 1381 
z
M 1991 3584 
L 1991 3584 
z
" transform="scale(0.015625)"/>
      </defs>
      <use xlink:href="#DejaVuSans-4f"/>
      <use xlink:href="#DejaVuSans-62" transform="translate(78.710938 0)"/>
      <use xlink:href="#DejaVuSans-6a" transform="translate(142.1875 0)"/>
      <use xlink:href="#DejaVuSans-65" transform="translate(169.970703 0)"/>
      <use xlink:href="#DejaVuSans-63" transform="translate(231.494141 0)"/>
      <use xlink:href="#DejaVuSans-74" transform="translate(286.474609 0)"/>
      <use xlink:href="#DejaVuSans-69" transform="translate(325.683594 0)"/>
      <use xlink:href="#DejaVuSans-76" transform="translate(353.466797 0)"/>
      <use xlink:href="#DejaVuSans-65" transform="translate(412.646484 0)"/>
      <use xlink:href="#DejaVuSans-20" transform="translate(474.169922 0)"/>
      <use xlink:href="#DejaVuSans-56" transform="translate(505.957031 0)"/>
      <use xlink:href="#DejaVuSans-61" transform="translate(566.615234 0)"/>
      <use xlink:href="#DejaVuSans-6c" transform="translate(627.894531 0)"/>
      <use xlink:href="#DejaVuSans-75" transform="translate(655.677734 0)"/>
      <use xlink:href="#DejaVuSans-65" transform="translate(719.056641 0)"/>
     </g>
    </g>
   </g>
   <g id="line2d_33">
    <path d="M 48.37 217.146671 
L 49.68397 217.146671 
L 49.68397 232.47673 
L 50.340955 232.47673 
L 50.340955 237.609912 
L 50.99794 237.609912 
L 50.99794 276.240315 
L 56.910805 276.240315 
L 56.910805 307.338924 
L 63.480655 307.338924 
L 63.480655 313.260051 
L 73.992415 313.260051 
L 73.992415 324.837807 
L 84.504175 324.837807 
L 84.504175 328.450882 
L 118.667395 328.450882 
L 118.667395 340.919366 
L 316.41988 340.919366 
L 316.41988 349.618487 
L 383.43235 349.618487 
L 383.43235 367.11 
L 704.698015 367.11 
L 704.698015 367.11 
" clip-path="url(#pd468246546)" style="fill: none; stroke: #1f77b4; stroke-width: 1.5; stroke-linecap: square"/>
   </g>
   <g id="line2d_34">
    <path d="M 48.37 137.100911 
L 49.026985 69.499712 
L 50.340955 93.951587 
L 50.99794 84.43554 
L 51.654925 64.345224 
L 52.31191 80.105746 
L 52.968895 80.975904 
L 53.62588 77.54689 
L 54.282865 49.81 
L 54.93985 61.916727 
L 55.596835 80.642173 
L 56.25382 76.484584 
L 56.910805 87.727876 
L 57.56779 87.912893 
L 58.224775 105.376168 
L 58.88176 107.012797 
L 59.538745 105.672424 
L 60.19573 99.533863 
L 60.852715 109.844035 
L 61.5097 117.033812 
L 62.166685 133.003027 
L 63.480655 126.575046 
L 64.13764 121.063914 
L 64.794625 117.292409 
L 65.45161 145.868264 
L 66.108595 136.203385 
L 66.76558 141.48362 
L 67.422565 132.917843 
L 68.07955 135.848171 
L 68.736535 145.689864 
L 69.39352 126.843399 
L 70.050505 126.768344 
L 70.70749 128.656117 
L 71.364475 158.27344 
L 72.02146 152.051403 
L 72.678445 143.465223 
L 73.33543 154.832006 
L 73.992415 150.714933 
L 74.6494 148.137997 
L 75.306385 142.87233 
L 75.96337 167.153051 
L 76.620355 173.874924 
L 77.27734 168.933575 
L 78.59131 148.666247 
L 79.248295 160.47468 
L 79.90528 156.251189 
L 80.562265 185.670876 
L 81.21925 162.843752 
L 81.876235 171.849658 
L 82.53322 158.609962 
L 83.190205 149.907131 
L 83.84719 181.229908 
L 84.504175 175.313952 
L 85.16116 152.782052 
L 85.818145 167.975828 
L 86.47513 175.597782 
L 87.132115 163.883104 
L 87.7891 169.46263 
L 88.446085 178.561046 
L 89.10307 168.380801 
L 89.760055 174.981489 
L 90.41704 152.416026 
L 91.074025 170.939198 
L 91.73101 170.33711 
L 92.387995 176.437914 
L 93.04498 177.95887 
L 93.701965 196.254891 
L 94.35895 176.707581 
L 95.015935 177.799107 
L 95.67292 184.352651 
L 96.329905 169.81655 
L 96.98689 180.742963 
L 97.643875 165.185859 
L 98.30086 190.886557 
L 98.957845 190.979501 
L 99.61483 174.247288 
L 100.271815 186.732816 
L 101.585785 167.024492 
L 102.24277 173.222519 
L 102.899755 175.828899 
L 103.55674 184.447497 
L 104.213725 167.500327 
L 104.87071 180.449419 
L 105.527695 171.239831 
L 106.18468 169.569686 
L 106.841665 165.509264 
L 107.49865 188.584868 
L 108.155635 152.792252 
L 108.81262 161.526019 
L 109.469605 187.856964 
L 110.12659 172.223613 
L 110.783575 182.417948 
L 111.44056 180.777918 
L 112.097545 165.587391 
L 112.75453 194.21306 
L 113.411515 166.239587 
L 114.0685 156.209717 
L 114.725485 164.314267 
L 115.38247 189.111521 
L 116.039455 173.847552 
L 116.69644 172.312742 
L 117.353425 173.200089 
L 118.01041 168.853727 
L 118.667395 183.635698 
L 119.32438 172.254115 
L 119.981365 184.220213 
L 120.63835 179.197941 
L 121.295335 178.452539 
L 121.95232 181.738295 
L 122.609305 179.070884 
L 123.26629 204.455618 
L 123.923275 180.346094 
L 124.58026 189.110717 
L 125.237245 201.634241 
L 125.89423 175.610786 
L 126.551215 203.054988 
L 127.2082 195.633275 
L 127.865185 176.120873 
L 128.52217 176.651254 
L 129.179155 163.653308 
L 129.83614 196.3914 
L 130.493125 193.852972 
L 131.15011 194.781971 
L 131.807095 182.258001 
L 132.46408 178.806253 
L 133.121065 185.288484 
L 133.77805 195.510431 
L 134.435035 210.973715 
L 135.09202 189.956741 
L 135.749005 202.856958 
L 136.40599 173.509113 
L 137.062975 188.930954 
L 137.71996 172.336335 
L 138.376945 179.110947 
L 139.03393 184.18166 
L 139.690915 181.588967 
L 140.3479 201.373746 
L 141.004885 191.63841 
L 141.66187 201.579443 
L 142.318855 191.625133 
L 142.97584 192.488319 
L 143.632825 201.008998 
L 144.28981 181.298551 
L 144.946795 187.853192 
L 145.60378 181.440415 
L 146.260765 180.050337 
L 146.91775 179.244361 
L 147.574735 195.60366 
L 148.23172 190.217646 
L 148.888705 177.299145 
L 149.54569 193.955474 
L 150.85966 175.415749 
L 151.516645 178.048643 
L 152.17363 178.059609 
L 152.830615 180.757981 
L 153.4876 180.815339 
L 154.144585 185.030927 
L 154.80157 179.447002 
L 155.458555 170.87616 
L 156.11554 180.870235 
L 156.772525 185.141971 
L 157.42951 188.662421 
L 158.086495 179.374486 
L 158.74348 197.767022 
L 159.400465 176.407447 
L 160.05745 180.067696 
L 160.714435 211.641775 
L 161.37142 187.541177 
L 162.68539 208.400774 
L 163.342375 202.560981 
L 163.99936 197.959292 
L 164.656345 194.823267 
L 165.31333 198.616677 
L 165.970315 190.210355 
L 166.6273 199.412441 
L 167.284285 190.41294 
L 167.94127 189.41421 
L 168.598255 189.443706 
L 169.25524 205.309238 
L 169.912225 192.417465 
L 170.56921 173.087155 
L 171.226195 187.408476 
L 171.88318 186.424892 
L 172.540165 183.169991 
L 173.19715 195.376745 
L 173.854135 192.232323 
L 174.51112 193.900708 
L 175.168105 213.700716 
L 175.82509 193.233113 
L 176.482075 190.261244 
L 177.13906 207.486729 
L 177.796045 203.507759 
L 178.45303 187.499353 
L 179.110015 195.845113 
L 179.767 178.817919 
L 180.423985 194.822633 
L 181.08097 166.587598 
L 181.737955 180.459827 
L 182.39494 187.175913 
L 183.051925 180.517113 
L 183.70891 199.951669 
L 184.365895 202.551601 
L 185.02288 192.927889 
L 185.679865 187.376916 
L 186.33685 186.944493 
L 186.993835 204.486692 
L 187.65082 191.525227 
L 188.307805 196.704052 
L 188.96479 186.194801 
L 189.621775 204.685951 
L 190.27876 186.685093 
L 190.935745 194.723052 
L 191.59273 191.956381 
L 192.249715 184.979268 
L 192.9067 202.700145 
L 193.563685 201.435755 
L 194.22067 206.499646 
L 194.877655 187.361561 
L 195.53464 197.791655 
L 196.191625 187.048966 
L 197.505595 192.928442 
L 198.16258 204.433841 
L 198.819565 198.17958 
L 199.47655 197.221077 
L 200.133535 200.421749 
L 200.79052 195.840575 
L 201.447505 194.148631 
L 202.10449 202.245658 
L 202.761475 194.85721 
L 203.41846 201.728494 
L 204.075445 202.50757 
L 204.73243 208.886862 
L 205.389415 200.805211 
L 206.0464 203.053845 
L 206.703385 187.77062 
L 208.017355 210.844715 
L 208.67434 199.743724 
L 209.331325 199.106317 
L 209.98831 177.608719 
L 210.645295 187.637202 
L 211.30228 188.59581 
L 211.959265 198.064348 
L 212.61625 195.323202 
L 213.273235 202.24349 
L 213.93022 206.692123 
L 214.587205 204.548722 
L 215.24419 193.411055 
L 215.901175 190.76461 
L 216.55816 194.490271 
L 217.215145 206.044161 
L 217.87213 205.543105 
L 218.529115 188.388452 
L 219.1861 180.709164 
L 219.843085 191.144758 
L 220.50007 188.276704 
L 221.157055 208.509608 
L 221.81404 184.004225 
L 222.471025 181.032271 
L 223.12801 197.846365 
L 223.784995 180.51906 
L 224.44198 185.989073 
L 225.098965 196.811232 
L 225.75595 195.206247 
L 226.412935 209.841733 
L 227.726905 170.998409 
L 229.040875 204.703607 
L 229.69786 209.724401 
L 230.354845 195.729842 
L 231.01183 192.971947 
L 231.668815 185.553625 
L 232.3258 199.913071 
L 232.982785 202.47212 
L 233.63977 189.336077 
L 234.296755 188.797221 
L 234.95374 218.864465 
L 235.610725 191.429366 
L 236.26771 197.407631 
L 236.924695 195.493284 
L 237.58168 216.205268 
L 238.238665 194.74943 
L 238.89565 183.828912 
L 239.552635 197.573633 
L 240.20962 208.840941 
L 240.866605 216.185303 
L 241.52359 195.935471 
L 242.180575 202.050496 
L 242.83756 185.609716 
L 243.494545 186.623424 
L 244.15153 205.07456 
L 244.808515 182.379872 
L 245.4655 189.481376 
L 246.122485 201.307914 
L 246.77947 204.818955 
L 247.436455 192.83923 
L 248.09344 186.1882 
L 248.750425 196.58858 
L 249.40741 195.137693 
L 250.064395 201.769305 
L 251.378365 186.205638 
L 252.03535 174.93705 
L 252.692335 200.872947 
L 253.34932 190.855003 
L 254.006305 200.572552 
L 254.66329 187.756762 
L 255.320275 209.280628 
L 255.97726 205.652125 
L 256.634245 199.521091 
L 257.29123 180.459015 
L 257.948215 188.936709 
L 258.6052 209.607059 
L 259.262185 198.462264 
L 259.91917 200.662086 
L 260.576155 204.065284 
L 261.23314 202.934809 
L 261.890125 206.118637 
L 262.54711 196.482495 
L 263.204095 213.392927 
L 263.86108 191.21423 
L 264.518065 198.009291 
L 265.17505 200.460021 
L 265.832035 194.408283 
L 266.48902 204.35701 
L 267.146005 199.887802 
L 267.80299 179.167053 
L 268.459975 198.646269 
L 269.11696 200.361351 
L 270.43093 191.479075 
L 271.087915 207.010214 
L 271.7449 182.354546 
L 272.401885 198.853621 
L 273.05887 212.556962 
L 273.715855 201.057676 
L 274.37284 174.157552 
L 275.029825 187.765104 
L 275.68681 197.280789 
L 276.343795 199.810973 
L 277.00078 208.808086 
L 277.657765 212.367486 
L 278.31475 200.276411 
L 278.971735 198.155086 
L 279.62872 210.321919 
L 280.285705 196.213786 
L 280.94269 193.063785 
L 281.599675 199.174583 
L 282.25666 208.033044 
L 282.913645 194.611979 
L 283.57063 188.368588 
L 284.227615 204.747004 
L 284.8846 193.125314 
L 285.541585 196.499565 
L 286.19857 198.64844 
L 286.855555 206.00543 
L 287.51254 208.323376 
L 288.169525 183.859525 
L 288.82651 210.028189 
L 289.483495 200.438079 
L 290.14048 195.452058 
L 290.797465 210.705595 
L 291.45445 196.000017 
L 292.111435 209.973427 
L 292.76842 190.660928 
L 293.425405 194.976034 
L 294.08239 193.258564 
L 294.739375 208.702402 
L 295.39636 200.423972 
L 296.053345 176.941682 
L 296.71033 194.645985 
L 297.367315 204.278514 
L 298.0243 186.090913 
L 298.681285 211.023444 
L 299.33827 185.900084 
L 299.995255 197.010458 
L 300.65224 187.693788 
L 301.96621 210.437433 
L 302.623195 195.849426 
L 303.28018 199.420094 
L 303.937165 199.01928 
L 304.59415 196.716276 
L 305.251135 206.552392 
L 305.90812 220.28241 
L 306.565105 207.448535 
L 307.22209 209.118231 
L 307.879075 202.737398 
L 308.53606 194.959886 
L 309.193045 207.892546 
L 309.85003 199.715899 
L 310.507015 193.339374 
L 311.164 202.58333 
L 311.820985 192.25487 
L 312.47797 194.659382 
L 313.134955 210.594145 
L 313.79194 203.989926 
L 314.448925 212.207939 
L 315.762895 192.260242 
L 316.41988 212.402593 
L 317.076865 186.170853 
L 317.73385 210.140336 
L 318.390835 212.892245 
L 319.04782 211.075224 
L 319.704805 197.549647 
L 320.36179 186.829469 
L 321.018775 201.101847 
L 321.67576 194.248897 
L 322.332745 198.975462 
L 322.98973 195.336784 
L 323.646715 195.35654 
L 324.3037 206.768356 
L 324.960685 207.964911 
L 326.274655 199.234371 
L 326.93164 209.845928 
L 327.588625 213.299089 
L 328.24561 197.625827 
L 328.902595 198.282209 
L 329.55958 200.39543 
L 330.216565 189.50778 
L 330.87355 193.882827 
L 331.530535 194.372516 
L 332.18752 192.81354 
L 332.844505 185.982126 
L 333.50149 196.17599 
L 334.158475 210.43813 
L 334.81546 194.070792 
L 335.472445 196.622828 
L 336.12943 202.27555 
L 336.786415 200.004775 
L 337.4434 204.446677 
L 338.100385 199.275099 
L 338.75737 214.335269 
L 340.07134 178.542329 
L 340.728325 193.728527 
L 341.38531 193.301589 
L 342.042295 201.736526 
L 342.69928 195.547095 
L 343.356265 205.832519 
L 344.01325 194.002731 
L 344.670235 210.983706 
L 345.32722 195.928095 
L 345.984205 198.773943 
L 346.64119 205.083226 
L 347.298175 193.970581 
L 347.95516 185.264565 
L 348.612145 194.018405 
L 349.26913 192.765199 
L 349.926115 201.446535 
L 350.5831 205.343646 
L 351.240085 193.981307 
L 351.89707 194.228654 
L 352.554055 202.303021 
L 353.21104 196.477878 
L 353.868025 193.615346 
L 354.52501 188.533528 
L 355.181995 202.460415 
L 355.83898 199.161682 
L 356.495965 206.383241 
L 357.15295 211.488009 
L 357.809935 219.841654 
L 358.46692 208.650501 
L 359.123905 207.342138 
L 359.78089 190.11792 
L 360.437875 209.322542 
L 361.09486 206.860367 
L 361.751845 197.575934 
L 362.40883 199.953821 
L 363.065815 188.855253 
L 363.7228 204.460742 
L 364.379785 206.372846 
L 365.03677 202.522711 
L 365.693755 205.767952 
L 366.35074 187.308588 
L 367.007725 193.990224 
L 367.66471 197.512015 
L 368.321695 192.009985 
L 368.97868 207.765081 
L 369.635665 199.094299 
L 370.29265 213.503013 
L 370.949635 207.044092 
L 371.60662 197.087934 
L 372.263605 179.142439 
L 372.92059 200.268219 
L 373.577575 191.933974 
L 374.23456 204.135665 
L 374.891545 203.934681 
L 375.54853 204.105041 
L 376.205515 198.876659 
L 376.8625 195.554716 
L 377.519485 197.443449 
L 378.17647 197.541353 
L 378.833455 201.777977 
L 379.49044 200.971549 
L 380.147425 202.623137 
L 380.80441 196.347952 
L 381.461395 193.326469 
L 382.11838 202.960436 
L 382.775365 210.069692 
L 383.43235 188.57174 
L 384.089335 193.018412 
L 384.74632 195.53059 
L 385.403305 205.942036 
L 386.06029 209.258252 
L 386.717275 194.906467 
L 387.37426 205.251584 
L 388.031245 191.064133 
L 388.68823 196.27653 
L 389.345215 191.323089 
L 390.0022 204.006519 
L 390.659185 209.675775 
L 391.31617 187.861916 
L 391.973155 195.911675 
L 392.63014 191.56818 
L 393.287125 207.645021 
L 393.94411 201.81095 
L 394.601095 208.048629 
L 395.25808 190.725496 
L 396.57205 196.976562 
L 397.229035 199.066981 
L 397.88602 189.411518 
L 398.543005 192.612346 
L 399.19999 199.494955 
L 399.856975 182.749818 
L 400.51396 196.827037 
L 401.170945 201.855213 
L 401.82793 191.001578 
L 402.484915 191.577217 
L 403.1419 200.537855 
L 403.798885 197.986056 
L 404.45587 196.526731 
L 405.112855 198.687305 
L 405.76984 206.932391 
L 406.426825 206.754644 
L 407.08381 183.185557 
L 407.740795 192.13812 
L 409.054765 194.429078 
L 409.71175 186.098949 
L 410.368735 191.307666 
L 411.02572 193.161028 
L 411.682705 192.613422 
L 412.33969 198.353384 
L 412.996675 188.985575 
L 413.65366 189.724282 
L 414.310645 199.937587 
L 414.96763 185.758492 
L 416.2816 195.401235 
L 416.938585 186.901681 
L 417.59557 190.460221 
L 418.252555 192.581207 
L 418.90954 209.739197 
L 419.566525 204.798076 
L 420.22351 204.064018 
L 420.880495 205.07991 
L 421.53748 208.538952 
L 422.194465 193.03245 
L 422.85145 181.283711 
L 423.508435 191.849707 
L 424.16542 211.372299 
L 424.822405 204.401424 
L 425.47939 189.508901 
L 426.136375 180.228739 
L 426.79336 189.391869 
L 427.450345 187.882659 
L 428.10733 192.139181 
L 428.764315 187.383212 
L 429.4213 178.935855 
L 430.078285 194.399823 
L 430.73527 186.921048 
L 431.392255 186.208367 
L 432.04924 184.901449 
L 432.706225 200.672888 
L 433.36321 179.546144 
L 434.020195 178.365809 
L 434.67718 186.189281 
L 435.334165 183.01119 
L 435.99115 185.452678 
L 436.648135 181.104037 
L 437.30512 189.477334 
L 438.61909 217.465834 
L 439.276075 208.972713 
L 439.93306 185.844982 
L 440.590045 200.934155 
L 441.24703 199.70291 
L 441.904015 185.194027 
L 442.561 187.165058 
L 443.217985 196.277691 
L 443.87497 193.61815 
L 444.531955 198.406245 
L 445.18894 204.865631 
L 445.845925 199.384203 
L 446.50291 214.989243 
L 447.159895 204.496523 
L 447.81688 200.593667 
L 448.473865 187.011577 
L 449.13085 187.825941 
L 449.787835 159.26706 
L 450.44482 206.658119 
L 451.101805 173.553377 
L 451.75879 191.27133 
L 452.415775 192.64899 
L 453.729745 203.179054 
L 454.38673 188.745285 
L 455.043715 181.752727 
L 455.7007 182.527387 
L 456.357685 215.924106 
L 457.01467 191.803035 
L 457.671655 188.828702 
L 458.32864 194.329312 
L 458.985625 182.319192 
L 459.64261 193.992659 
L 460.299595 194.395397 
L 461.613565 188.859237 
L 462.27055 184.667844 
L 462.927535 196.841659 
L 463.58452 201.615512 
L 464.241505 208.299746 
L 464.89849 202.51906 
L 465.555475 202.661656 
L 466.21246 190.556438 
L 466.869445 189.464953 
L 467.52643 201.769888 
L 468.183415 184.30256 
L 468.8404 192.527472 
L 469.497385 176.941086 
L 470.15437 189.042195 
L 470.811355 181.850559 
L 471.46834 178.999027 
L 472.125325 172.651791 
L 472.78231 203.600855 
L 473.439295 176.595556 
L 474.09628 200.051197 
L 474.753265 183.07015 
L 475.41025 184.593387 
L 476.067235 198.075699 
L 476.72422 203.070196 
L 477.381205 203.761143 
L 478.03819 188.648888 
L 478.695175 190.442764 
L 479.35216 204.463408 
L 480.009145 203.055766 
L 480.66613 191.041936 
L 481.323115 207.464016 
L 481.9801 193.029162 
L 482.637085 198.577068 
L 483.29407 179.956633 
L 483.951055 192.332162 
L 484.60804 182.686811 
L 485.92201 193.289062 
L 486.578995 192.416784 
L 487.23598 184.937881 
L 487.892965 204.115167 
L 488.54995 200.040518 
L 489.206935 187.794097 
L 489.86392 198.852129 
L 490.520905 200.144481 
L 491.17789 189.58518 
L 491.834875 189.257095 
L 492.49186 181.966757 
L 493.148845 181.484949 
L 493.80583 212.836438 
L 494.462815 202.133261 
L 495.1198 182.997065 
L 495.776785 199.953077 
L 496.43377 199.256357 
L 497.090755 179.45399 
L 497.74774 177.122921 
L 498.404725 183.425882 
L 499.06171 176.70147 
L 499.718695 190.101766 
L 500.37568 188.664874 
L 501.032665 189.748422 
L 501.68965 192.253509 
L 502.346635 200.656326 
L 503.00362 198.919073 
L 503.660605 174.786811 
L 504.31759 193.372998 
L 504.974575 198.572263 
L 505.63156 207.31362 
L 506.288545 190.080941 
L 506.94553 196.723454 
L 507.602515 194.611203 
L 509.57347 180.368474 
L 510.230455 177.522286 
L 510.88744 202.187218 
L 511.544425 197.996796 
L 512.20141 197.3844 
L 512.858395 199.379073 
L 513.51538 177.44807 
L 514.172365 177.973618 
L 514.82935 184.893466 
L 515.486335 202.49624 
L 516.14332 202.034847 
L 516.800305 193.42627 
L 517.45729 196.839349 
L 518.114275 188.755093 
L 518.77126 191.96596 
L 519.428245 192.878026 
L 520.08523 192.812474 
L 520.742215 213.772204 
L 522.056185 181.478651 
L 522.71317 207.908211 
L 523.370155 193.21244 
L 524.02714 203.133079 
L 524.684125 199.804118 
L 525.34111 185.035838 
L 525.998095 203.475868 
L 526.65508 179.906115 
L 527.312065 176.555674 
L 527.96905 200.159532 
L 528.626035 195.894497 
L 529.28302 192.757992 
L 530.59699 199.085571 
L 531.253975 200.087885 
L 531.91096 193.883714 
L 532.567945 177.410344 
L 533.22493 188.271136 
L 533.881915 192.271019 
L 534.5389 209.225909 
L 535.195885 170.209881 
L 535.85287 186.50521 
L 536.509855 210.879726 
L 537.16684 191.553356 
L 537.823825 192.626822 
L 538.48081 183.559232 
L 539.137795 202.440078 
L 539.79478 166.806253 
L 541.10875 202.652571 
L 541.765735 195.221061 
L 542.42272 189.687572 
L 543.079705 186.86597 
L 543.73669 190.457627 
L 544.393675 196.648389 
L 545.05066 182.915598 
L 545.707645 189.661259 
L 546.36463 190.844422 
L 547.021615 189.7043 
L 547.6786 180.460462 
L 548.335585 197.159129 
L 548.99257 202.323826 
L 549.649555 200.839338 
L 550.30654 201.338922 
L 550.963525 195.094416 
L 552.277495 204.807335 
L 552.93448 175.589681 
L 553.591465 182.974766 
L 554.24845 196.73295 
L 554.905435 192.516048 
L 555.56242 179.102816 
L 556.219405 192.913015 
L 556.87639 177.174332 
L 557.533375 201.1214 
L 558.19036 191.208605 
L 558.847345 190.943834 
L 559.50433 198.969878 
L 560.161315 202.39356 
L 560.8183 197.078873 
L 561.475285 198.399747 
L 562.13227 187.323491 
L 562.789255 186.840883 
L 563.44624 192.835872 
L 564.103225 196.627583 
L 564.76021 196.530632 
L 565.417195 195.474347 
L 566.07418 197.205485 
L 566.731165 185.126243 
L 567.38815 213.215596 
L 568.045135 213.641587 
L 568.70212 215.419549 
L 569.359105 192.297663 
L 570.01609 199.279161 
L 570.673075 202.216565 
L 571.33006 217.29018 
L 571.987045 185.755128 
L 572.64403 177.720737 
L 573.301015 198.272814 
L 573.958 188.454943 
L 574.614985 204.973651 
L 575.928955 171.804481 
L 576.58594 209.309172 
L 577.242925 194.274533 
L 577.89991 184.620234 
L 579.21388 205.074964 
L 579.870865 210.74421 
L 581.184835 196.979072 
L 581.84182 178.481946 
L 582.498805 199.355256 
L 583.15579 200.415202 
L 583.812775 200.119634 
L 584.46976 195.360039 
L 585.126745 182.582685 
L 585.78373 194.305343 
L 586.440715 187.503586 
L 587.0977 182.559989 
L 587.754685 202.359525 
L 588.41167 180.20004 
L 589.068655 193.903158 
L 589.72564 179.328546 
L 590.382625 181.848842 
L 591.03961 186.292845 
L 591.696595 184.276054 
L 592.35358 194.33346 
L 593.010565 190.722309 
L 593.66755 190.202546 
L 594.324535 210.349323 
L 594.98152 201.181638 
L 595.638505 189.052949 
L 596.29549 172.728034 
L 596.952475 200.785837 
L 597.60946 182.170495 
L 598.266445 201.279001 
L 598.92343 193.716608 
L 599.580415 202.473847 
L 600.2374 187.978518 
L 600.894385 195.872519 
L 601.55137 188.598572 
L 602.208355 169.992309 
L 602.86534 186.384282 
L 603.522325 172.330134 
L 604.17931 190.31322 
L 604.836295 190.626649 
L 605.49328 205.352052 
L 606.150265 175.901598 
L 607.464235 192.591197 
L 608.778205 199.497555 
L 609.43519 186.20508 
L 610.092175 200.15129 
L 610.74916 192.223777 
L 611.406145 200.751021 
L 612.06313 207.469961 
L 612.720115 197.186272 
L 613.3771 192.247955 
L 614.034085 200.54585 
L 614.69107 202.901784 
L 615.348055 211.728995 
L 616.00504 197.738903 
L 616.662025 202.702714 
L 617.31901 189.366253 
L 617.975995 210.460262 
L 618.63298 189.178821 
L 619.289965 193.361787 
L 619.94695 193.866945 
L 620.603935 196.511988 
L 621.26092 194.243442 
L 621.917905 204.809072 
L 622.57489 210.184079 
L 623.231875 206.917054 
L 623.88886 208.431561 
L 624.545845 194.217405 
L 625.20283 184.192 
L 625.859815 205.628359 
L 626.5168 199.447347 
L 627.173785 184.02194 
L 627.83077 179.848901 
L 628.487755 172.394594 
L 629.14474 194.222167 
L 629.801725 205.289941 
L 630.45871 190.07769 
L 631.115695 200.538788 
L 631.77268 189.905157 
L 632.429665 195.098601 
L 633.08665 190.480663 
L 633.743635 183.472018 
L 634.40062 189.677575 
L 635.057605 185.592899 
L 635.71459 183.86578 
L 636.371575 199.440682 
L 637.02856 191.170431 
L 637.685545 191.755947 
L 638.34253 201.637609 
L 638.999515 192.230828 
L 639.6565 203.230261 
L 640.313485 192.590022 
L 640.97047 206.544181 
L 641.627455 193.567679 
L 642.28444 197.692597 
L 642.941425 180.030687 
L 643.59841 197.412792 
L 644.255395 205.976845 
L 644.91238 192.104522 
L 645.569365 212.095527 
L 646.22635 192.784141 
L 646.883335 191.905828 
L 647.54032 193.49879 
L 648.197305 211.22657 
L 648.85429 209.743107 
L 649.511275 199.50377 
L 650.16826 194.830523 
L 650.825245 189.176002 
L 651.48223 203.76157 
L 652.139215 205.558472 
L 652.7962 218.833655 
L 653.453185 182.916455 
L 654.11017 199.339009 
L 654.767155 191.038835 
L 655.42414 203.626007 
L 656.081125 205.705413 
L 656.73811 195.032383 
L 657.395095 206.105876 
L 658.05208 187.125855 
L 658.709065 197.997878 
L 659.36605 197.485473 
L 660.023035 190.130369 
L 660.68002 190.340765 
L 661.337005 184.14623 
L 661.99399 198.531376 
L 662.650975 208.467748 
L 663.30796 199.276881 
L 663.964945 183.683724 
L 664.62193 189.206579 
L 665.278915 196.307821 
L 665.9359 209.143598 
L 666.592885 204.259207 
L 667.24987 204.002945 
L 667.906855 189.34165 
L 668.56384 200.211011 
L 669.220825 209.019756 
L 669.87781 200.365773 
L 670.534795 184.431218 
L 671.19178 194.39117 
L 671.848765 193.808873 
L 672.50575 205.90104 
L 673.162735 178.745632 
L 673.81972 208.322569 
L 674.476705 185.593763 
L 675.790675 197.011502 
L 676.44766 185.564775 
L 677.104645 177.830773 
L 677.76163 195.680712 
L 678.418615 205.431939 
L 679.0756 181.954562 
L 679.732585 204.120861 
L 680.38957 189.813345 
L 681.046555 182.967835 
L 681.70354 187.365202 
L 682.360525 211.39372 
L 683.674495 183.657978 
L 684.33148 207.026052 
L 684.988465 181.771095 
L 685.64545 173.26337 
L 686.302435 195.099674 
L 686.95942 192.563569 
L 687.616405 210.656745 
L 688.27339 207.660237 
L 688.930375 187.680766 
L 689.58736 199.258234 
L 690.244345 194.333319 
L 690.90133 190.745799 
L 691.558315 189.345294 
L 692.2153 171.090104 
L 692.872285 178.846332 
L 693.52927 184.555052 
L 694.186255 188.513751 
L 694.84324 197.480263 
L 696.15721 204.484155 
L 696.814195 203.018631 
L 697.47118 196.875311 
L 698.128165 210.847543 
L 698.78515 177.463092 
L 699.442135 202.289248 
L 700.09912 190.670119 
L 700.756105 196.292765 
L 701.41309 179.797025 
L 702.070075 186.619452 
L 702.72706 183.016306 
L 703.384045 187.196231 
L 704.04103 200.159911 
L 704.698015 185.927882 
L 704.698015 185.927882 
" clip-path="url(#pd468246546)" style="fill: none; stroke-dasharray: 5.55,2.4; stroke-dashoffset: 0; stroke: #ff7f0e; stroke-width: 1.5"/>
   </g>
   <g id="patch_3">
    <path d="M 48.37 398.84 
L 48.37 18.08 
" style="fill: none; stroke: #000000; stroke-width: 0.8; stroke-linejoin: miter; stroke-linecap: square"/>
   </g>
   <g id="patch_4">
    <path d="M 705.355 398.84 
L 705.355 18.08 
" style="fill: none; stroke: #000000; stroke-width: 0.8; stroke-linejoin: miter; stroke-linecap: square"/>
   </g>
   <g id="patch_5">
    <path d="M 48.37 398.84 
L 705.355 398.84 
" style="fill: none; stroke: #000000; stroke-width: 0.8; stroke-linejoin: miter; stroke-linecap: square"/>
   </g>
   <g id="patch_6">
    <path d="M 48.37 18.08 
L 705.355 18.08 
" style="fill: none; stroke: #000000; stroke-width: 0.8; stroke-linejoin: miter; stroke-linecap: square"/>
   </g>
   <g id="text_19">
    <!-- dPSO Evolution (Simulation #75) -->
    <g transform="translate(277.902812 12.08) scale(0.12 -0.12)">
     <defs>
      <path id="DejaVuSans-64" d="M 2906 2969 
L 2906 4863 
L 3481 4863 
L 3481 0 
L 2906 0 
L 2906 525 
Q 2725 213 2448 61 
Q 2172 -91 1784 -91 
Q 1150 -91 751 415 
Q 353 922 353 1747 
Q 353 2572 751 3078 
Q 1150 3584 1784 3584 
Q 2172 3584 2448 3432 
Q 2725 3281 2906 2969 
z
M 947 1747 
Q 947 1113 1208 752 
Q 1469 391 1925 391 
Q 2381 391 2643 752 
Q 2906 1113 2906 1747 
Q 2906 2381 2643 2742 
Q 2381 3103 1925 3103 
Q 1469 3103 1208 2742 
Q 947 2381 947 1747 
z
" transform="scale(0.015625)"/>
      <path id="DejaVuSans-50" d="M 1259 4147 
L 1259 2394 
L 2053 2394 
Q 2494 2394 2734 2622 
Q 2975 2850 2975 3272 
Q 2975 3691 2734 3919 
Q 2494 4147 2053 4147 
L 1259 4147 
z
M 628 4666 
L 2053 4666 
Q 2838 4666 3239 4311 
Q 3641 3956 3641 3272 
Q 3641 2581 3239 2228 
Q 2838 1875 2053 1875 
L 1259 1875 
L 1259 0 
L 628 0 
L 628 4666 
z
" transform="scale(0.015625)"/>
      <path id="DejaVuSans-53" d="M 3425 4513 
L 3425 3897 
Q 3066 4069 2747 4153 
Q 2428 4238 2131 4238 
Q 1616 4238 1336 4038 
Q 1056 3838 1056 3469 
Q 1056 3159 1242 3001 
Q 1428 2844 1947 2747 
L 2328 2669 
Q 3034 2534 3370 2195 
Q 3706 1856 3706 1288 
Q 3706 609 3251 259 
Q 2797 -91 1919 -91 
Q 1588 -91 1214 -16 
Q 841 59 441 206 
L 441 856 
Q 825 641 1194 531 
Q 1563 422 1919 422 
Q 2459 422 2753 634 
Q 3047 847 3047 1241 
Q 3047 1584 2836 1778 
Q 2625 1972 2144 2069 
L 1759 2144 
Q 1053 2284 737 2584 
Q 422 2884 422 3419 
Q 422 4038 858 4394 
Q 1294 4750 2059 4750 
Q 2388 4750 2728 4690 
Q 3069 4631 3425 4513 
z
" transform="scale(0.015625)"/>
      <path id="DejaVuSans-45" d="M 628 4666 
L 3578 4666 
L 3578 4134 
L 1259 4134 
L 1259 2753 
L 3481 2753 
L 3481 2222 
L 1259 2222 
L 1259 531 
L 3634 531 
L 3634 0 
L 628 0 
L 628 4666 
z
" transform="scale(0.015625)"/>
      <path id="DejaVuSans-28" d="M 1984 4856 
Q 1566 4138 1362 3434 
Q 1159 2731 1159 2009 
Q 1159 1288 1364 580 
Q 1569 -128 1984 -844 
L 1484 -844 
Q 1016 -109 783 600 
Q 550 1309 550 2009 
Q 550 2706 781 3412 
Q 1013 4119 1484 4856 
L 1984 4856 
z
" transform="scale(0.015625)"/>
      <path id="DejaVuSans-6d" d="M 3328 2828 
Q 3544 3216 3844 3400 
Q 4144 3584 4550 3584 
Q 5097 3584 5394 3201 
Q 5691 2819 5691 2113 
L 5691 0 
L 5113 0 
L 5113 2094 
Q 5113 2597 4934 2840 
Q 4756 3084 4391 3084 
Q 3944 3084 3684 2787 
Q 3425 2491 3425 1978 
L 3425 0 
L 2847 0 
L 2847 2094 
Q 2847 2600 2669 2842 
Q 2491 3084 2119 3084 
Q 1678 3084 1418 2786 
Q 1159 2488 1159 1978 
L 1159 0 
L 581 0 
L 581 3500 
L 1159 3500 
L 1159 2956 
Q 1356 3278 1631 3431 
Q 1906 3584 2284 3584 
Q 2666 3584 2933 3390 
Q 3200 3197 3328 2828 
z
" transform="scale(0.015625)"/>
      <path id="DejaVuSans-23" d="M 3272 2816 
L 2363 2816 
L 2100 1772 
L 3016 1772 
L 3272 2816 
z
M 2803 4594 
L 2478 3297 
L 3391 3297 
L 3719 4594 
L 4219 4594 
L 3897 3297 
L 4872 3297 
L 4872 2816 
L 3775 2816 
L 3519 1772 
L 4513 1772 
L 4513 1294 
L 3397 1294 
L 3072 0 
L 2572 0 
L 2894 1294 
L 1978 1294 
L 1656 0 
L 1153 0 
L 1478 1294 
L 494 1294 
L 494 1772 
L 1594 1772 
L 1856 2816 
L 850 2816 
L 850 3297 
L 1978 3297 
L 2297 4594 
L 2803 4594 
z
" transform="scale(0.015625)"/>
      <path id="DejaVuSans-29" d="M 513 4856 
L 1013 4856 
Q 1481 4119 1714 3412 
Q 1947 2706 1947 2009 
Q 1947 1309 1714 600 
Q 1481 -109 1013 -844 
L 513 -844 
Q 928 -128 1133 580 
Q 1338 1288 1338 2009 
Q 1338 2731 1133 3434 
Q 928 4138 513 4856 
z
" transform="scale(0.015625)"/>
     </defs>
     <use xlink:href="#DejaVuSans-64"/>
     <use xlink:href="#DejaVuSans-50" transform="translate(63.476562 0)"/>
     <use xlink:href="#DejaVuSans-53" transform="translate(123.779297 0)"/>
     <use xlink:href="#DejaVuSans-4f" transform="translate(187.255859 0)"/>
     <use xlink:href="#DejaVuSans-20" transform="translate(265.966797 0)"/>
     <use xlink:href="#DejaVuSans-45" transform="translate(297.753906 0)"/>
     <use xlink:href="#DejaVuSans-76" transform="translate(360.9375 0)"/>
     <use xlink:href="#DejaVuSans-6f" transform="translate(420.117188 0)"/>
     <use xlink:href="#DejaVuSans-6c" transform="translate(481.298828 0)"/>
     <use xlink:href="#DejaVuSans-75" transform="translate(509.082031 0)"/>
     <use xlink:href="#DejaVuSans-74" transform="translate(572.460938 0)"/>
     <use xlink:href="#DejaVuSans-69" transform="translate(611.669922 0)"/>
     <use xlink:href="#DejaVuSans-6f" transform="translate(639.453125 0)"/>
     <use xlink:href="#DejaVuSans-6e" transform="translate(700.634766 0)"/>
     <use xlink:href="#DejaVuSans-20" transform="translate(764.013672 0)"/>
     <use xlink:href="#DejaVuSans-28" transform="translate(795.800781 0)"/>
     <use xlink:href="#DejaVuSans-53" transform="translate(834.814453 0)"/>
     <use xlink:href="#DejaVuSans-69" transform="translate(898.291016 0)"/>
     <use xlink:href="#DejaVuSans-6d" transform="translate(926.074219 0)"/>
     <use xlink:href="#DejaVuSans-75" transform="translate(1023.486328 0)"/>
     <use xlink:href="#DejaVuSans-6c" transform="translate(1086.865234 0)"/>
     <use xlink:href="#DejaVuSans-61" transform="translate(1114.648438 0)"/>
     <use xlink:href="#DejaVuSans-74" transform="translate(1175.927734 0)"/>
     <use xlink:href="#DejaVuSans-69" transform="translate(1215.136719 0)"/>
     <use xlink:href="#DejaVuSans-6f" transform="translate(1242.919922 0)"/>
     <use xlink:href="#DejaVuSans-6e" transform="translate(1304.101562 0)"/>
     <use xlink:href="#DejaVuSans-20" transform="translate(1367.480469 0)"/>
     <use xlink:href="#DejaVuSans-23" transform="translate(1399.267578 0)"/>
     <use xlink:href="#DejaVuSans-37" transform="translate(1483.056641 0)"/>
     <use xlink:href="#DejaVuSans-35" transform="translate(1546.679688 0)"/>
     <use xlink:href="#DejaVuSans-29" transform="translate(1610.302734 0)"/>
    </g>
   </g>
   <g id="legend_1">
    <g id="patch_7">
     <path d="M 549.897187 55.43625 
L 698.355 55.43625 
Q 700.355 55.43625 700.355 53.43625 
L 700.355 25.08 
Q 700.355 23.08 698.355 23.08 
L 549.897187 23.08 
Q 547.897187 23.08 547.897187 25.08 
L 547.897187 53.43625 
Q 547.897187 55.43625 549.897187 55.43625 
z
" style="fill: #ffffff; opacity: 0.8; stroke: #cccccc; stroke-linejoin: miter"/>
    </g>
    <g id="line2d_35">
     <path d="M 551.897187 31.178437 
L 561.897187 31.178437 
L 561.897187 31.178437 
L 571.897187 31.178437 
L 571.897187 31.178437 
" style="fill: none; stroke: #1f77b4; stroke-width: 1.5; stroke-linecap: square"/>
    </g>
    <g id="text_20">
     <!-- Best Fitness (dPSO) -->
     <g transform="translate(579.897187 34.678437) scale(0.1 -0.1)">
      <defs>
       <path id="DejaVuSans-42" d="M 1259 2228 
L 1259 519 
L 2272 519 
Q 2781 519 3026 730 
Q 3272 941 3272 1375 
Q 3272 1813 3026 2020 
Q 2781 2228 2272 2228 
L 1259 2228 
z
M 1259 4147 
L 1259 2741 
L 2194 2741 
Q 2656 2741 2882 2914 
Q 3109 3088 3109 3444 
Q 3109 3797 2882 3972 
Q 2656 4147 2194 4147 
L 1259 4147 
z
M 628 4666 
L 2241 4666 
Q 2963 4666 3353 4366 
Q 3744 4066 3744 3513 
Q 3744 3084 3544 2831 
Q 3344 2578 2956 2516 
Q 3422 2416 3680 2098 
Q 3938 1781 3938 1306 
Q 3938 681 3513 340 
Q 3088 0 2303 0 
L 628 0 
L 628 4666 
z
" transform="scale(0.015625)"/>
       <path id="DejaVuSans-73" d="M 2834 3397 
L 2834 2853 
Q 2591 2978 2328 3040 
Q 2066 3103 1784 3103 
Q 1356 3103 1142 2972 
Q 928 2841 928 2578 
Q 928 2378 1081 2264 
Q 1234 2150 1697 2047 
L 1894 2003 
Q 2506 1872 2764 1633 
Q 3022 1394 3022 966 
Q 3022 478 2636 193 
Q 2250 -91 1575 -91 
Q 1294 -91 989 -36 
Q 684 19 347 128 
L 347 722 
Q 666 556 975 473 
Q 1284 391 1588 391 
Q 1994 391 2212 530 
Q 2431 669 2431 922 
Q 2431 1156 2273 1281 
Q 2116 1406 1581 1522 
L 1381 1569 
Q 847 1681 609 1914 
Q 372 2147 372 2553 
Q 372 3047 722 3315 
Q 1072 3584 1716 3584 
Q 2034 3584 2315 3537 
Q 2597 3491 2834 3397 
z
" transform="scale(0.015625)"/>
       <path id="DejaVuSans-46" d="M 628 4666 
L 3309 4666 
L 3309 4134 
L 1259 4134 
L 1259 2759 
L 3109 2759 
L 3109 2228 
L 1259 2228 
L 1259 0 
L 628 0 
L 628 4666 
z
" transform="scale(0.015625)"/>
      </defs>
      <use xlink:href="#DejaVuSans-42"/>
      <use xlink:href="#DejaVuSans-65" transform="translate(68.603516 0)"/>
      <use xlink:href="#DejaVuSans-73" transform="translate(130.126953 0)"/>
      <use xlink:href="#DejaVuSans-74" transform="translate(182.226562 0)"/>
      <use xlink:href="#DejaVuSans-20" transform="translate(221.435547 0)"/>
      <use xlink:href="#DejaVuSans-46" transform="translate(253.222656 0)"/>
      <use xlink:href="#DejaVuSans-69" transform="translate(303.492188 0)"/>
      <use xlink:href="#DejaVuSans-74" transform="translate(331.275391 0)"/>
      <use xlink:href="#DejaVuSans-6e" transform="translate(370.484375 0)"/>
      <use xlink:href="#DejaVuSans-65" transform="translate(433.863281 0)"/>
      <use xlink:href="#DejaVuSans-73" transform="translate(495.386719 0)"/>
      <use xlink:href="#DejaVuSans-73" transform="translate(547.486328 0)"/>
      <use xlink:href="#DejaVuSans-20" transform="translate(599.585938 0)"/>
      <use xlink:href="#DejaVuSans-28" transform="translate(631.373047 0)"/>
      <use xlink:href="#DejaVuSans-64" transform="translate(670.386719 0)"/>
      <use xlink:href="#DejaVuSans-50" transform="translate(733.863281 0)"/>
      <use xlink:href="#DejaVuSans-53" transform="translate(794.166016 0)"/>
      <use xlink:href="#DejaVuSans-4f" transform="translate(857.642578 0)"/>
      <use xlink:href="#DejaVuSans-29" transform="translate(936.353516 0)"/>
     </g>
    </g>
    <g id="line2d_36">
     <path d="M 551.897187 45.856562 
L 561.897187 45.856562 
L 571.897187 45.856562 
" style="fill: none; stroke-dasharray: 5.55,2.4; stroke-dashoffset: 0; stroke: #ff7f0e; stroke-width: 1.5"/>
    </g>
    <g id="text_21">
     <!-- Average Fitness (dPSO) -->
     <g transform="translate(579.897187 49.356562) scale(0.1 -0.1)">
      <defs>
       <path id="DejaVuSans-41" d="M 2188 4044 
L 1331 1722 
L 3047 1722 
L 2188 4044 
z
M 1831 4666 
L 2547 4666 
L 4325 0 
L 3669 0 
L 3244 1197 
L 1141 1197 
L 716 0 
L 50 0 
L 1831 4666 
z
" transform="scale(0.015625)"/>
       <path id="DejaVuSans-67" d="M 2906 1791 
Q 2906 2416 2648 2759 
Q 2391 3103 1925 3103 
Q 1463 3103 1205 2759 
Q 947 2416 947 1791 
Q 947 1169 1205 825 
Q 1463 481 1925 481 
Q 2391 481 2648 825 
Q 2906 1169 2906 1791 
z
M 3481 434 
Q 3481 -459 3084 -895 
Q 2688 -1331 1869 -1331 
Q 1566 -1331 1297 -1286 
Q 1028 -1241 775 -1147 
L 775 -588 
Q 1028 -725 1275 -790 
Q 1522 -856 1778 -856 
Q 2344 -856 2625 -561 
Q 2906 -266 2906 331 
L 2906 616 
Q 2728 306 2450 153 
Q 2172 0 1784 0 
Q 1141 0 747 490 
Q 353 981 353 1791 
Q 353 2603 747 3093 
Q 1141 3584 1784 3584 
Q 2172 3584 2450 3431 
Q 2728 3278 2906 2969 
L 2906 3500 
L 3481 3500 
L 3481 434 
z
" transform="scale(0.015625)"/>
      </defs>
      <use xlink:href="#DejaVuSans-41"/>
      <use xlink:href="#DejaVuSans-76" transform="translate(62.533203 0)"/>
      <use xlink:href="#DejaVuSans-65" transform="translate(121.712891 0)"/>
      <use xlink:href="#DejaVuSans-72" transform="translate(183.236328 0)"/>
      <use xlink:href="#DejaVuSans-61" transform="translate(224.349609 0)"/>
      <use xlink:href="#DejaVuSans-67" transform="translate(285.628906 0)"/>
      <use xlink:href="#DejaVuSans-65" transform="translate(349.105469 0)"/>
      <use xlink:href="#DejaVuSans-20" transform="translate(410.628906 0)"/>
      <use xlink:href="#DejaVuSans-46" transform="translate(442.416016 0)"/>
      <use xlink:href="#DejaVuSans-69" transform="translate(492.685547 0)"/>
      <use xlink:href="#DejaVuSans-74" transform="translate(520.46875 0)"/>
      <use xlink:href="#DejaVuSans-6e" transform="translate(559.677734 0)"/>
      <use xlink:href="#DejaVuSans-65" transform="translate(623.056641 0)"/>
      <use xlink:href="#DejaVuSans-73" transform="translate(684.580078 0)"/>
      <use xlink:href="#DejaVuSans-73" transform="translate(736.679688 0)"/>
      <use xlink:href="#DejaVuSans-20" transform="translate(788.779297 0)"/>
      <use xlink:href="#DejaVuSans-28" transform="translate(820.566406 0)"/>
      <use xlink:href="#DejaVuSans-64" transform="translate(859.580078 0)"/>
      <use xlink:href="#DejaVuSans-50" transform="translate(923.056641 0)"/>
      <use xlink:href="#DejaVuSans-53" transform="translate(983.359375 0)"/>
      <use xlink:href="#DejaVuSans-4f" transform="translate(1046.835938 0)"/>
      <use xlink:href="#DejaVuSans-29" transform="translate(1125.546875 0)"/>
     </g>
    </g>
   </g>
  </g>
 </g>
 <defs>
  <clipPath id="pd468246546">
   <rect x="48.37" y="18.08" width="656.985" height="380.76"/>
  </clipPath>
 </defs>
</svg>
