<?xml version="1.0" encoding="utf-8" standalone="no"?>
<!DOCTYPE svg PUBLIC "-//W3C//DTD SVG 1.1//EN"
  "http://www.w3.org/Graphics/SVG/1.1/DTD/svg11.dtd">
<svg xmlns:xlink="http://www.w3.org/1999/xlink" width="720pt" height="432pt" viewBox="0 0 720 432" xmlns="http://www.w3.org/2000/svg" version="1.1">
 <metadata>
  <rdf:RDF xmlns:dc="http://purl.org/dc/elements/1.1/" xmlns:cc="http://creativecommons.org/ns#" xmlns:rdf="http://www.w3.org/1999/02/22-rdf-syntax-ns#">
   <cc:Work>
    <dc:type rdf:resource="http://purl.org/dc/dcmitype/StillImage"/>
    <dc:date>2026-05-05T22:16:05.682911</dc:date>
    <dc:format>image/svg+xml</dc:format>
    <dc:creator>
     <cc:Agent>
      <dc:title>Matplotlib v3.10.9, https://matplotlib.org/</dc:title>
     </cc:Agent>
    </dc:creator>
   </cc:Work>
  </rdf:RDF>
 </metadata>
 <defs>
  <style type="text/css">*{stroke-linejoin: round; stroke-linecap: butt}</style>
 </defs>
 <g id="figure_1">
  <g id="patch_1">
   <path d="M 0 432 
L 720 432 
L 720 0 
L 0 0 
z
" style="fill: #ffffff"/>
  </g>
  <g id="axes_1">
   <g id="patch_2">
    <path d="M 48.37 398.84 
L 705.355 398.84 
L 705.355 18.08 
L 48.37 18.08 
z
" style="fill: #ffffff"/>
   </g>
   <g id="matplotlib.axis_1">
    <g id="xtick_1">
     <g id="line2d_1">
      <path d="M 48.37 398.84 
L 48.37 18.08 
" clip-path="url(#p08b1741aed)" style="fill: none; stroke-dasharray: 0.8,1.32; stroke-dashoffset: 0; stroke: #b0b0b0; stroke-opacity: 0.7; stroke-width: 0.8"/>
     </g>
     <g id="line2d_2">
      <defs>
       <path id="m1927deb67a" d="M 0 0 
L 0 3.5 
" style="stroke: #000000; stroke-width: 0.8"/>
      </defs>
      <g>
       <use xlink:href="#m1927deb67a" x="48.37" y="398.84" style="stroke: #000000; stroke-width: 0.8"/>
      </g>
     </g>
     <g id="text_1">
      <!-- 0 -->
      <g transform="translate(45.18875 413.438437) scale(0.1 -0.1)">
       <defs>
        <path id="DejaVuSans-30" d="M 2034 4250 
Q 1547 4250 1301 3770 
Q 1056 3291 1056 2328 
Q 1056 1369 1301 889 
Q 1547 409 2034 409 
Q 2525 409 2770 889 
Q 3016 1369 3016 2328 
Q 3016 3291 2770 3770 
Q 2525 4250 2034 4250 
z
M 2034 4750 
Q 2819 4750 3233 4129 
Q 3647 3509 3647 2328 
Q 3647 1150 3233 529 
Q 2819 -91 2034 -91 
Q 1250 -91 836 529 
Q 422 1150 422 2328 
Q 422 3509 836 4129 
Q 1250 4750 2034 4750 
z
" transform="scale(0.015625)"/>
       </defs>
       <use xlink:href="#DejaVuSans-30"/>
      </g>
     </g>
    </g>
    <g id="xtick_2">
     <g id="line2d_3">
      <path d="M 114.0685 398.84 
L 114.0685 18.08 
" clip-path="url(#p08b1741aed)" style="fill: none; stroke-dasharray: 0.8,1.32; stroke-dashoffset: 0; stroke: #b0b0b0; stroke-opacity: 0.7; stroke-width: 0.8"/>
     </g>
     <g id="line2d_4">
      <g>
       <use xlink:href="#m1927deb67a" x="114.0685" y="398.84" style="stroke: #000000; stroke-width: 0.8"/>
      </g>
     </g>
     <g id="text_2">
      <!-- 100 -->
      <g transform="translate(104.52475 413.438437) scale(0.1 -0.1)">
       <defs>
        <path id="DejaVuSans-31" d="M 794 531 
L 1825 531 
L 1825 4091 
L 703 3866 
L 703 4441 
L 1819 4666 
L 2450 4666 
L 2450 531 
L 3481 531 
L 3481 0 
L 794 0 
L 794 531 
z
" transform="scale(0.015625)"/>
       </defs>
       <use xlink:href="#DejaVuSans-31"/>
       <use xlink:href="#DejaVuSans-30" transform="translate(63.623047 0)"/>
       <use xlink:href="#DejaVuSans-30" transform="translate(127.246094 0)"/>
      </g>
     </g>
    </g>
    <g id="xtick_3">
     <g id="line2d_5">
      <path d="M 179.767 398.84 
L 179.767 18.08 
" clip-path="url(#p08b1741aed)" style="fill: none; stroke-dasharray: 0.8,1.32; stroke-dashoffset: 0; stroke: #b0b0b0; stroke-opacity: 0.7; stroke-width: 0.8"/>
     </g>
     <g id="line2d_6">
      <g>
       <use xlink:href="#m1927deb67a" x="179.767" y="398.84" style="stroke: #000000; stroke-width: 0.8"/>
      </g>
     </g>
     <g id="text_3">
      <!-- 200 -->
      <g transform="translate(170.22325 413.438437) scale(0.1 -0.1)">
       <defs>
        <path id="DejaVuSans-32" d="M 1228 531 
L 3431 531 
L 3431 0 
L 469 0 
L 469 531 
Q 828 903 1448 1529 
Q 2069 2156 2228 2338 
Q 2531 2678 2651 2914 
Q 2772 3150 2772 3378 
Q 2772 3750 2511 3984 
Q 2250 4219 1831 4219 
Q 1534 4219 1204 4116 
Q 875 4013 500 3803 
L 500 4441 
Q 881 4594 1212 4672 
Q 1544 4750 1819 4750 
Q 2544 4750 2975 4387 
Q 3406 4025 3406 3419 
Q 3406 3131 3298 2873 
Q 3191 2616 2906 2266 
Q 2828 2175 2409 1742 
Q 1991 1309 1228 531 
z
" transform="scale(0.015625)"/>
       </defs>
       <use xlink:href="#DejaVuSans-32"/>
       <use xlink:href="#DejaVuSans-30" transform="translate(63.623047 0)"/>
       <use xlink:href="#DejaVuSans-30" transform="translate(127.246094 0)"/>
      </g>
     </g>
    </g>
    <g id="xtick_4">
     <g id="line2d_7">
      <path d="M 245.4655 398.84 
L 245.4655 18.08 
" clip-path="url(#p08b1741aed)" style="fill: none; stroke-dasharray: 0.8,1.32; stroke-dashoffset: 0; stroke: #b0b0b0; stroke-opacity: 0.7; stroke-width: 0.8"/>
     </g>
     <g id="line2d_8">
      <g>
       <use xlink:href="#m1927deb67a" x="245.4655" y="398.84" style="stroke: #000000; stroke-width: 0.8"/>
      </g>
     </g>
     <g id="text_4">
      <!-- 300 -->
      <g transform="translate(235.92175 413.438437) scale(0.1 -0.1)">
       <defs>
        <path id="DejaVuSans-33" d="M 2597 2516 
Q 3050 2419 3304 2112 
Q 3559 1806 3559 1356 
Q 3559 666 3084 287 
Q 2609 -91 1734 -91 
Q 1441 -91 1130 -33 
Q 819 25 488 141 
L 488 750 
Q 750 597 1062 519 
Q 1375 441 1716 441 
Q 2309 441 2620 675 
Q 2931 909 2931 1356 
Q 2931 1769 2642 2001 
Q 2353 2234 1838 2234 
L 1294 2234 
L 1294 2753 
L 1863 2753 
Q 2328 2753 2575 2939 
Q 2822 3125 2822 3475 
Q 2822 3834 2567 4026 
Q 2313 4219 1838 4219 
Q 1578 4219 1281 4162 
Q 984 4106 628 3988 
L 628 4550 
Q 988 4650 1302 4700 
Q 1616 4750 1894 4750 
Q 2613 4750 3031 4423 
Q 3450 4097 3450 3541 
Q 3450 3153 3228 2886 
Q 3006 2619 2597 2516 
z
" transform="scale(0.015625)"/>
       </defs>
       <use xlink:href="#DejaVuSans-33"/>
       <use xlink:href="#DejaVuSans-30" transform="translate(63.623047 0)"/>
       <use xlink:href="#DejaVuSans-30" transform="translate(127.246094 0)"/>
      </g>
     </g>
    </g>
    <g id="xtick_5">
     <g id="line2d_9">
      <path d="M 311.164 398.84 
L 311.164 18.08 
" clip-path="url(#p08b1741aed)" style="fill: none; stroke-dasharray: 0.8,1.32; stroke-dashoffset: 0; stroke: #b0b0b0; stroke-opacity: 0.7; stroke-width: 0.8"/>
     </g>
     <g id="line2d_10">
      <g>
       <use xlink:href="#m1927deb67a" x="311.164" y="398.84" style="stroke: #000000; stroke-width: 0.8"/>
      </g>
     </g>
     <g id="text_5">
      <!-- 400 -->
      <g transform="translate(301.62025 413.438437) scale(0.1 -0.1)">
       <defs>
        <path id="DejaVuSans-34" d="M 2419 4116 
L 825 1625 
L 2419 1625 
L 2419 4116 
z
M 2253 4666 
L 3047 4666 
L 3047 1625 
L 3713 1625 
L 3713 1100 
L 3047 1100 
L 3047 0 
L 2419 0 
L 2419 1100 
L 313 1100 
L 313 1709 
L 2253 4666 
z
" transform="scale(0.015625)"/>
       </defs>
       <use xlink:href="#DejaVuSans-34"/>
       <use xlink:href="#DejaVuSans-30" transform="translate(63.623047 0)"/>
       <use xlink:href="#DejaVuSans-30" transform="translate(127.246094 0)"/>
      </g>
     </g>
    </g>
    <g id="xtick_6">
     <g id="line2d_11">
      <path d="M 376.8625 398.84 
L 376.8625 18.08 
" clip-path="url(#p08b1741aed)" style="fill: none; stroke-dasharray: 0.8,1.32; stroke-dashoffset: 0; stroke: #b0b0b0; stroke-opacity: 0.7; stroke-width: 0.8"/>
     </g>
     <g id="line2d_12">
      <g>
       <use xlink:href="#m1927deb67a" x="376.8625" y="398.84" style="stroke: #000000; stroke-width: 0.8"/>
      </g>
     </g>
     <g id="text_6">
      <!-- 500 -->
      <g transform="translate(367.31875 413.438437) scale(0.1 -0.1)">
       <defs>
        <path id="DejaVuSans-35" d="M 691 4666 
L 3169 4666 
L 3169 4134 
L 1269 4134 
L 1269 2991 
Q 1406 3038 1543 3061 
Q 1681 3084 1819 3084 
Q 2600 3084 3056 2656 
Q 3513 2228 3513 1497 
Q 3513 744 3044 326 
Q 2575 -91 1722 -91 
Q 1428 -91 1123 -41 
Q 819 9 494 109 
L 494 744 
Q 775 591 1075 516 
Q 1375 441 1709 441 
Q 2250 441 2565 725 
Q 2881 1009 2881 1497 
Q 2881 1984 2565 2268 
Q 2250 2553 1709 2553 
Q 1456 2553 1204 2497 
Q 953 2441 691 2322 
L 691 4666 
z
" transform="scale(0.015625)"/>
       </defs>
       <use xlink:href="#DejaVuSans-35"/>
       <use xlink:href="#DejaVuSans-30" transform="translate(63.623047 0)"/>
       <use xlink:href="#DejaVuSans-30" transform="translate(127.246094 0)"/>
      </g>
     </g>
    </g>
    <g id="xtick_7">
     <g id="line2d_13">
      <path d="M 442.561 398.84 
L 442.561 18.08 
" clip-path="url(#p08b1741aed)" style="fill: none; stroke-dasharray: 0.8,1.32; stroke-dashoffset: 0; stroke: #b0b0b0; stroke-opacity: 0.7; stroke-width: 0.8"/>
     </g>
     <g id="line2d_14">
      <g>
       <use xlink:href="#m1927deb67a" x="442.561" y="398.84" style="stroke: #000000; stroke-width: 0.8"/>
      </g>
     </g>
     <g id="text_7">
      <!-- 600 -->
      <g transform="translate(433.01725 413.438437) scale(0.1 -0.1)">
       <defs>
        <path id="DejaVuSans-36" d="M 2113 2584 
Q 1688 2584 1439 2293 
Q 1191 2003 1191 1497 
Q 1191 994 1439 701 
Q 1688 409 2113 409 
Q 2538 409 2786 701 
Q 3034 994 3034 1497 
Q 3034 2003 2786 2293 
Q 2538 2584 2113 2584 
z
M 3366 4563 
L 3366 3988 
Q 3128 4100 2886 4159 
Q 2644 4219 2406 4219 
Q 1781 4219 1451 3797 
Q 1122 3375 1075 2522 
Q 1259 2794 1537 2939 
Q 1816 3084 2150 3084 
Q 2853 3084 3261 2657 
Q 3669 2231 3669 1497 
Q 3669 778 3244 343 
Q 2819 -91 2113 -91 
Q 1303 -91 875 529 
Q 447 1150 447 2328 
Q 447 3434 972 4092 
Q 1497 4750 2381 4750 
Q 2619 4750 2861 4703 
Q 3103 4656 3366 4563 
z
" transform="scale(0.015625)"/>
       </defs>
       <use xlink:href="#DejaVuSans-36"/>
       <use xlink:href="#DejaVuSans-30" transform="translate(63.623047 0)"/>
       <use xlink:href="#DejaVuSans-30" transform="translate(127.246094 0)"/>
      </g>
     </g>
    </g>
    <g id="xtick_8">
     <g id="line2d_15">
      <path d="M 508.2595 398.84 
L 508.2595 18.08 
" clip-path="url(#p08b1741aed)" style="fill: none; stroke-dasharray: 0.8,1.32; stroke-dashoffset: 0; stroke: #b0b0b0; stroke-opacity: 0.7; stroke-width: 0.8"/>
     </g>
     <g id="line2d_16">
      <g>
       <use xlink:href="#m1927deb67a" x="508.2595" y="398.84" style="stroke: #000000; stroke-width: 0.8"/>
      </g>
     </g>
     <g id="text_8">
      <!-- 700 -->
      <g transform="translate(498.71575 413.438437) scale(0.1 -0.1)">
       <defs>
        <path id="DejaVuSans-37" d="M 525 4666 
L 3525 4666 
L 3525 4397 
L 1831 0 
L 1172 0 
L 2766 4134 
L 525 4134 
L 525 4666 
z
" transform="scale(0.015625)"/>
       </defs>
       <use xlink:href="#DejaVuSans-37"/>
       <use xlink:href="#DejaVuSans-30" transform="translate(63.623047 0)"/>
       <use xlink:href="#DejaVuSans-30" transform="translate(127.246094 0)"/>
      </g>
     </g>
    </g>
    <g id="xtick_9">
     <g id="line2d_17">
      <path d="M 573.958 398.84 
L 573.958 18.08 
" clip-path="url(#p08b1741aed)" style="fill: none; stroke-dasharray: 0.8,1.32; stroke-dashoffset: 0; stroke: #b0b0b0; stroke-opacity: 0.7; stroke-width: 0.8"/>
     </g>
     <g id="line2d_18">
      <g>
       <use xlink:href="#m1927deb67a" x="573.958" y="398.84" style="stroke: #000000; stroke-width: 0.8"/>
      </g>
     </g>
     <g id="text_9">
      <!-- 800 -->
      <g transform="translate(564.41425 413.438437) scale(0.1 -0.1)">
       <defs>
        <path id="DejaVuSans-38" d="M 2034 2216 
Q 1584 2216 1326 1975 
Q 1069 1734 1069 1313 
Q 1069 891 1326 650 
Q 1584 409 2034 409 
Q 2484 409 2743 651 
Q 3003 894 3003 1313 
Q 3003 1734 2745 1975 
Q 2488 2216 2034 2216 
z
M 1403 2484 
Q 997 2584 770 2862 
Q 544 3141 544 3541 
Q 544 4100 942 4425 
Q 1341 4750 2034 4750 
Q 2731 4750 3128 4425 
Q 3525 4100 3525 3541 
Q 3525 3141 3298 2862 
Q 3072 2584 2669 2484 
Q 3125 2378 3379 2068 
Q 3634 1759 3634 1313 
Q 3634 634 3220 271 
Q 2806 -91 2034 -91 
Q 1263 -91 848 271 
Q 434 634 434 1313 
Q 434 1759 690 2068 
Q 947 2378 1403 2484 
z
M 1172 3481 
Q 1172 3119 1398 2916 
Q 1625 2713 2034 2713 
Q 2441 2713 2670 2916 
Q 2900 3119 2900 3481 
Q 2900 3844 2670 4047 
Q 2441 4250 2034 4250 
Q 1625 4250 1398 4047 
Q 1172 3844 1172 3481 
z
" transform="scale(0.015625)"/>
       </defs>
       <use xlink:href="#DejaVuSans-38"/>
       <use xlink:href="#DejaVuSans-30" transform="translate(63.623047 0)"/>
       <use xlink:href="#DejaVuSans-30" transform="translate(127.246094 0)"/>
      </g>
     </g>
    </g>
    <g id="xtick_10">
     <g id="line2d_19">
      <path d="M 639.6565 398.84 
L 639.6565 18.08 
" clip-path="url(#p08b1741aed)" style="fill: none; stroke-dasharray: 0.8,1.32; stroke-dashoffset: 0; stroke: #b0b0b0; stroke-opacity: 0.7; stroke-width: 0.8"/>
     </g>
     <g id="line2d_20">
      <g>
       <use xlink:href="#m1927deb67a" x="639.6565" y="398.84" style="stroke: #000000; stroke-width: 0.8"/>
      </g>
     </g>
     <g id="text_10">
      <!-- 900 -->
      <g transform="translate(630.11275 413.438437) scale(0.1 -0.1)">
       <defs>
        <path id="DejaVuSans-39" d="M 703 97 
L 703 672 
Q 941 559 1184 500 
Q 1428 441 1663 441 
Q 2288 441 2617 861 
Q 2947 1281 2994 2138 
Q 2813 1869 2534 1725 
Q 2256 1581 1919 1581 
Q 1219 1581 811 2004 
Q 403 2428 403 3163 
Q 403 3881 828 4315 
Q 1253 4750 1959 4750 
Q 2769 4750 3195 4129 
Q 3622 3509 3622 2328 
Q 3622 1225 3098 567 
Q 2575 -91 1691 -91 
Q 1453 -91 1209 -44 
Q 966 3 703 97 
z
M 1959 2075 
Q 2384 2075 2632 2365 
Q 2881 2656 2881 3163 
Q 2881 3666 2632 3958 
Q 2384 4250 1959 4250 
Q 1534 4250 1286 3958 
Q 1038 3666 1038 3163 
Q 1038 2656 1286 2365 
Q 1534 2075 1959 2075 
z
" transform="scale(0.015625)"/>
       </defs>
       <use xlink:href="#DejaVuSans-39"/>
       <use xlink:href="#DejaVuSans-30" transform="translate(63.623047 0)"/>
       <use xlink:href="#DejaVuSans-30" transform="translate(127.246094 0)"/>
      </g>
     </g>
    </g>
    <g id="xtick_11">
     <g id="line2d_21">
      <path d="M 705.355 398.84 
L 705.355 18.08 
" clip-path="url(#p08b1741aed)" style="fill: none; stroke-dasharray: 0.8,1.32; stroke-dashoffset: 0; stroke: #b0b0b0; stroke-opacity: 0.7; stroke-width: 0.8"/>
     </g>
     <g id="line2d_22">
      <g>
       <use xlink:href="#m1927deb67a" x="705.355" y="398.84" style="stroke: #000000; stroke-width: 0.8"/>
      </g>
     </g>
     <g id="text_11">
      <!-- 1000 -->
      <g transform="translate(692.63 413.438437) scale(0.1 -0.1)">
       <use xlink:href="#DejaVuSans-31"/>
       <use xlink:href="#DejaVuSans-30" transform="translate(63.623047 0)"/>
       <use xlink:href="#DejaVuSans-30" transform="translate(127.246094 0)"/>
       <use xlink:href="#DejaVuSans-30" transform="translate(190.869141 0)"/>
      </g>
     </g>
    </g>
    <g id="text_12">
     <!-- Iteration / Generation -->
     <g transform="translate(322.898438 427.116562) scale(0.1 -0.1)">
      <defs>
       <path id="DejaVuSans-49" d="M 628 4666 
L 1259 4666 
L 1259 0 
L 628 0 
L 628 4666 
z
" transform="scale(0.015625)"/>
       <path id="DejaVuSans-74" d="M 1172 4494 
L 1172 3500 
L 2356 3500 
L 2356 3053 
L 1172 3053 
L 1172 1153 
Q 1172 725 1289 603 
Q 1406 481 1766 481 
L 2356 481 
L 2356 0 
L 1766 0 
Q 1100 0 847 248 
Q 594 497 594 1153 
L 594 3053 
L 172 3053 
L 172 3500 
L 594 3500 
L 594 4494 
L 1172 4494 
z
" transform="scale(0.015625)"/>
       <path id="DejaVuSans-65" d="M 3597 1894 
L 3597 1613 
L 953 1613 
Q 991 1019 1311 708 
Q 1631 397 2203 397 
Q 2534 397 2845 478 
Q 3156 559 3463 722 
L 3463 178 
Q 3153 47 2828 -22 
Q 2503 -91 2169 -91 
Q 1331 -91 842 396 
Q 353 884 353 1716 
Q 353 2575 817 3079 
Q 1281 3584 2069 3584 
Q 2775 3584 3186 3129 
Q 3597 2675 3597 1894 
z
M 3022 2063 
Q 3016 2534 2758 2815 
Q 2500 3097 2075 3097 
Q 1594 3097 1305 2825 
Q 1016 2553 972 2059 
L 3022 2063 
z
" transform="scale(0.015625)"/>
       <path id="DejaVuSans-72" d="M 2631 2963 
Q 2534 3019 2420 3045 
Q 2306 3072 2169 3072 
Q 1681 3072 1420 2755 
Q 1159 2438 1159 1844 
L 1159 0 
L 581 0 
L 581 3500 
L 1159 3500 
L 1159 2956 
Q 1341 3275 1631 3429 
Q 1922 3584 2338 3584 
Q 2397 3584 2469 3576 
Q 2541 3569 2628 3553 
L 2631 2963 
z
" transform="scale(0.015625)"/>
       <path id="DejaVuSans-61" d="M 2194 1759 
Q 1497 1759 1228 1600 
Q 959 1441 959 1056 
Q 959 750 1161 570 
Q 1363 391 1709 391 
Q 2188 391 2477 730 
Q 2766 1069 2766 1631 
L 2766 1759 
L 2194 1759 
z
M 3341 1997 
L 3341 0 
L 2766 0 
L 2766 531 
Q 2569 213 2275 61 
Q 1981 -91 1556 -91 
Q 1019 -91 701 211 
Q 384 513 384 1019 
Q 384 1609 779 1909 
Q 1175 2209 1959 2209 
L 2766 2209 
L 2766 2266 
Q 2766 2663 2505 2880 
Q 2244 3097 1772 3097 
Q 1472 3097 1187 3025 
Q 903 2953 641 2809 
L 641 3341 
Q 956 3463 1253 3523 
Q 1550 3584 1831 3584 
Q 2591 3584 2966 3190 
Q 3341 2797 3341 1997 
z
" transform="scale(0.015625)"/>
       <path id="DejaVuSans-69" d="M 603 3500 
L 1178 3500 
L 1178 0 
L 603 0 
L 603 3500 
z
M 603 4863 
L 1178 4863 
L 1178 4134 
L 603 4134 
L 603 4863 
z
" transform="scale(0.015625)"/>
       <path id="DejaVuSans-6f" d="M 1959 3097 
Q 1497 3097 1228 2736 
Q 959 2375 959 1747 
Q 959 1119 1226 758 
Q 1494 397 1959 397 
Q 2419 397 2687 759 
Q 2956 1122 2956 1747 
Q 2956 2369 2687 2733 
Q 2419 3097 1959 3097 
z
M 1959 3584 
Q 2709 3584 3137 3096 
Q 3566 2609 3566 1747 
Q 3566 888 3137 398 
Q 2709 -91 1959 -91 
Q 1206 -91 779 398 
Q 353 888 353 1747 
Q 353 2609 779 3096 
Q 1206 3584 1959 3584 
z
" transform="scale(0.015625)"/>
       <path id="DejaVuSans-6e" d="M 3513 2113 
L 3513 0 
L 2938 0 
L 2938 2094 
Q 2938 2591 2744 2837 
Q 2550 3084 2163 3084 
Q 1697 3084 1428 2787 
Q 1159 2491 1159 1978 
L 1159 0 
L 581 0 
L 581 3500 
L 1159 3500 
L 1159 2956 
Q 1366 3272 1645 3428 
Q 1925 3584 2291 3584 
Q 2894 3584 3203 3211 
Q 3513 2838 3513 2113 
z
" transform="scale(0.015625)"/>
       <path id="DejaVuSans-20" transform="scale(0.015625)"/>
       <path id="DejaVuSans-2f" d="M 1625 4666 
L 2156 4666 
L 531 -594 
L 0 -594 
L 1625 4666 
z
" transform="scale(0.015625)"/>
       <path id="DejaVuSans-47" d="M 3809 666 
L 3809 1919 
L 2778 1919 
L 2778 2438 
L 4434 2438 
L 4434 434 
Q 4069 175 3628 42 
Q 3188 -91 2688 -91 
Q 1594 -91 976 548 
Q 359 1188 359 2328 
Q 359 3472 976 4111 
Q 1594 4750 2688 4750 
Q 3144 4750 3555 4637 
Q 3966 4525 4313 4306 
L 4313 3634 
Q 3963 3931 3569 4081 
Q 3175 4231 2741 4231 
Q 1884 4231 1454 3753 
Q 1025 3275 1025 2328 
Q 1025 1384 1454 906 
Q 1884 428 2741 428 
Q 3075 428 3337 486 
Q 3600 544 3809 666 
z
" transform="scale(0.015625)"/>
      </defs>
      <use xlink:href="#DejaVuSans-49"/>
      <use xlink:href="#DejaVuSans-74" transform="translate(29.492188 0)"/>
      <use xlink:href="#DejaVuSans-65" transform="translate(68.701172 0)"/>
      <use xlink:href="#DejaVuSans-72" transform="translate(130.224609 0)"/>
      <use xlink:href="#DejaVuSans-61" transform="translate(171.337891 0)"/>
      <use xlink:href="#DejaVuSans-74" transform="translate(232.617188 0)"/>
      <use xlink:href="#DejaVuSans-69" transform="translate(271.826172 0)"/>
      <use xlink:href="#DejaVuSans-6f" transform="translate(299.609375 0)"/>
      <use xlink:href="#DejaVuSans-6e" transform="translate(360.791016 0)"/>
      <use xlink:href="#DejaVuSans-20" transform="translate(424.169922 0)"/>
      <use xlink:href="#DejaVuSans-2f" transform="translate(455.957031 0)"/>
      <use xlink:href="#DejaVuSans-20" transform="translate(489.648438 0)"/>
      <use xlink:href="#DejaVuSans-47" transform="translate(521.435547 0)"/>
      <use xlink:href="#DejaVuSans-65" transform="translate(598.925781 0)"/>
      <use xlink:href="#DejaVuSans-6e" transform="translate(660.449219 0)"/>
      <use xlink:href="#DejaVuSans-65" transform="translate(723.828125 0)"/>
      <use xlink:href="#DejaVuSans-72" transform="translate(785.351562 0)"/>
      <use xlink:href="#DejaVuSans-61" transform="translate(826.464844 0)"/>
      <use xlink:href="#DejaVuSans-74" transform="translate(887.744141 0)"/>
      <use xlink:href="#DejaVuSans-69" transform="translate(926.953125 0)"/>
      <use xlink:href="#DejaVuSans-6f" transform="translate(954.736328 0)"/>
      <use xlink:href="#DejaVuSans-6e" transform="translate(1015.917969 0)"/>
     </g>
    </g>
   </g>
   <g id="matplotlib.axis_2">
    <g id="ytick_1">
     <g id="line2d_23">
      <path d="M 48.37 388.880242 
L 705.355 388.880242 
" clip-path="url(#p08b1741aed)" style="fill: none; stroke-dasharray: 0.8,1.32; stroke-dashoffset: 0; stroke: #b0b0b0; stroke-opacity: 0.7; stroke-width: 0.8"/>
     </g>
     <g id="line2d_24">
      <defs>
       <path id="mae1b4ee405" d="M 0 0 
L -3.5 0 
" style="stroke: #000000; stroke-width: 0.8"/>
      </defs>
      <g>
       <use xlink:href="#mae1b4ee405" x="48.37" y="388.880242" style="stroke: #000000; stroke-width: 0.8"/>
      </g>
     </g>
     <g id="text_13">
      <!-- 1000 -->
      <g transform="translate(15.92 392.679461) scale(0.1 -0.1)">
       <use xlink:href="#DejaVuSans-31"/>
       <use xlink:href="#DejaVuSans-30" transform="translate(63.623047 0)"/>
       <use xlink:href="#DejaVuSans-30" transform="translate(127.246094 0)"/>
       <use xlink:href="#DejaVuSans-30" transform="translate(190.869141 0)"/>
      </g>
     </g>
    </g>
    <g id="ytick_2">
     <g id="line2d_25">
      <path d="M 48.37 330.868676 
L 705.355 330.868676 
" clip-path="url(#p08b1741aed)" style="fill: none; stroke-dasharray: 0.8,1.32; stroke-dashoffset: 0; stroke: #b0b0b0; stroke-opacity: 0.7; stroke-width: 0.8"/>
     </g>
     <g id="line2d_26">
      <g>
       <use xlink:href="#mae1b4ee405" x="48.37" y="330.868676" style="stroke: #000000; stroke-width: 0.8"/>
      </g>
     </g>
     <g id="text_14">
      <!-- 1500 -->
      <g transform="translate(15.92 334.667895) scale(0.1 -0.1)">
       <use xlink:href="#DejaVuSans-31"/>
       <use xlink:href="#DejaVuSans-35" transform="translate(63.623047 0)"/>
       <use xlink:href="#DejaVuSans-30" transform="translate(127.246094 0)"/>
       <use xlink:href="#DejaVuSans-30" transform="translate(190.869141 0)"/>
      </g>
     </g>
    </g>
    <g id="ytick_3">
     <g id="line2d_27">
      <path d="M 48.37 272.85711 
L 705.355 272.85711 
" clip-path="url(#p08b1741aed)" style="fill: none; stroke-dasharray: 0.8,1.32; stroke-dashoffset: 0; stroke: #b0b0b0; stroke-opacity: 0.7; stroke-width: 0.8"/>
     </g>
     <g id="line2d_28">
      <g>
       <use xlink:href="#mae1b4ee405" x="48.37" y="272.85711" style="stroke: #000000; stroke-width: 0.8"/>
      </g>
     </g>
     <g id="text_15">
      <!-- 2000 -->
      <g transform="translate(15.92 276.656329) scale(0.1 -0.1)">
       <use xlink:href="#DejaVuSans-32"/>
       <use xlink:href="#DejaVuSans-30" transform="translate(63.623047 0)"/>
       <use xlink:href="#DejaVuSans-30" transform="translate(127.246094 0)"/>
       <use xlink:href="#DejaVuSans-30" transform="translate(190.869141 0)"/>
      </g>
     </g>
    </g>
    <g id="ytick_4">
     <g id="line2d_29">
      <path d="M 48.37 214.845544 
L 705.355 214.845544 
" clip-path="url(#p08b1741aed)" style="fill: none; stroke-dasharray: 0.8,1.32; stroke-dashoffset: 0; stroke: #b0b0b0; stroke-opacity: 0.7; stroke-width: 0.8"/>
     </g>
     <g id="line2d_30">
      <g>
       <use xlink:href="#mae1b4ee405" x="48.37" y="214.845544" style="stroke: #000000; stroke-width: 0.8"/>
      </g>
     </g>
     <g id="text_16">
      <!-- 2500 -->
      <g transform="translate(15.92 218.644763) scale(0.1 -0.1)">
       <use xlink:href="#DejaVuSans-32"/>
       <use xlink:href="#DejaVuSans-35" transform="translate(63.623047 0)"/>
       <use xlink:href="#DejaVuSans-30" transform="translate(127.246094 0)"/>
       <use xlink:href="#DejaVuSans-30" transform="translate(190.869141 0)"/>
      </g>
     </g>
    </g>
    <g id="ytick_5">
     <g id="line2d_31">
      <path d="M 48.37 156.833978 
L 705.355 156.833978 
" clip-path="url(#p08b1741aed)" style="fill: none; stroke-dasharray: 0.8,1.32; stroke-dashoffset: 0; stroke: #b0b0b0; stroke-opacity: 0.7; stroke-width: 0.8"/>
     </g>
     <g id="line2d_32">
      <g>
       <use xlink:href="#mae1b4ee405" x="48.37" y="156.833978" style="stroke: #000000; stroke-width: 0.8"/>
      </g>
     </g>
     <g id="text_17">
      <!-- 3000 -->
      <g transform="translate(15.92 160.633197) scale(0.1 -0.1)">
       <use xlink:href="#DejaVuSans-33"/>
       <use xlink:href="#DejaVuSans-30" transform="translate(63.623047 0)"/>
       <use xlink:href="#DejaVuSans-30" transform="translate(127.246094 0)"/>
       <use xlink:href="#DejaVuSans-30" transform="translate(190.869141 0)"/>
      </g>
     </g>
    </g>
    <g id="ytick_6">
     <g id="line2d_33">
      <path d="M 48.37 98.822412 
L 705.355 98.822412 
" clip-path="url(#p08b1741aed)" style="fill: none; stroke-dasharray: 0.8,1.32; stroke-dashoffset: 0; stroke: #b0b0b0; stroke-opacity: 0.7; stroke-width: 0.8"/>
     </g>
     <g id="line2d_34">
      <g>
       <use xlink:href="#mae1b4ee405" x="48.37" y="98.822412" style="stroke: #000000; stroke-width: 0.8"/>
      </g>
     </g>
     <g id="text_18">
      <!-- 3500 -->
      <g transform="translate(15.92 102.62163) scale(0.1 -0.1)">
       <use xlink:href="#DejaVuSans-33"/>
       <use xlink:href="#DejaVuSans-35" transform="translate(63.623047 0)"/>
       <use xlink:href="#DejaVuSans-30" transform="translate(127.246094 0)"/>
       <use xlink:href="#DejaVuSans-30" transform="translate(190.869141 0)"/>
      </g>
     </g>
    </g>
    <g id="ytick_7">
     <g id="line2d_35">
      <path d="M 48.37 40.810846 
L 705.355 40.810846 
" clip-path="url(#p08b1741aed)" style="fill: none; stroke-dasharray: 0.8,1.32; stroke-dashoffset: 0; stroke: #b0b0b0; stroke-opacity: 0.7; stroke-width: 0.8"/>
     </g>
     <g id="line2d_36">
      <g>
       <use xlink:href="#mae1b4ee405" x="48.37" y="40.810846" style="stroke: #000000; stroke-width: 0.8"/>
      </g>
     </g>
     <g id="text_19">
      <!-- 4000 -->
      <g transform="translate(15.92 44.610064) scale(0.1 -0.1)">
       <use xlink:href="#DejaVuSans-34"/>
       <use xlink:href="#DejaVuSans-30" transform="translate(63.623047 0)"/>
       <use xlink:href="#DejaVuSans-30" transform="translate(127.246094 0)"/>
       <use xlink:href="#DejaVuSans-30" transform="translate(190.869141 0)"/>
      </g>
     </g>
    </g>
    <g id="text_20">
     <!-- Objective Value -->
     <g transform="translate(9.840312 247.490469) rotate(-90) scale(0.1 -0.1)">
      <defs>
       <path id="DejaVuSans-4f" d="M 2522 4238 
Q 1834 4238 1429 3725 
Q 1025 3213 1025 2328 
Q 1025 1447 1429 934 
Q 1834 422 2522 422 
Q 3209 422 3611 934 
Q 4013 1447 4013 2328 
Q 4013 3213 3611 3725 
Q 3209 4238 2522 4238 
z
M 2522 4750 
Q 3503 4750 4090 4092 
Q 4678 3434 4678 2328 
Q 4678 1225 4090 567 
Q 3503 -91 2522 -91 
Q 1538 -91 948 565 
Q 359 1222 359 2328 
Q 359 3434 948 4092 
Q 1538 4750 2522 4750 
z
" transform="scale(0.015625)"/>
       <path id="DejaVuSans-62" d="M 3116 1747 
Q 3116 2381 2855 2742 
Q 2594 3103 2138 3103 
Q 1681 3103 1420 2742 
Q 1159 2381 1159 1747 
Q 1159 1113 1420 752 
Q 1681 391 2138 391 
Q 2594 391 2855 752 
Q 3116 1113 3116 1747 
z
M 1159 2969 
Q 1341 3281 1617 3432 
Q 1894 3584 2278 3584 
Q 2916 3584 3314 3078 
Q 3713 2572 3713 1747 
Q 3713 922 3314 415 
Q 2916 -91 2278 -91 
Q 1894 -91 1617 61 
Q 1341 213 1159 525 
L 1159 0 
L 581 0 
L 581 4863 
L 1159 4863 
L 1159 2969 
z
" transform="scale(0.015625)"/>
       <path id="DejaVuSans-6a" d="M 603 3500 
L 1178 3500 
L 1178 -63 
Q 1178 -731 923 -1031 
Q 669 -1331 103 -1331 
L -116 -1331 
L -116 -844 
L 38 -844 
Q 366 -844 484 -692 
Q 603 -541 603 -63 
L 603 3500 
z
M 603 4863 
L 1178 4863 
L 1178 4134 
L 603 4134 
L 603 4863 
z
" transform="scale(0.015625)"/>
       <path id="DejaVuSans-63" d="M 3122 3366 
L 3122 2828 
Q 2878 2963 2633 3030 
Q 2388 3097 2138 3097 
Q 1578 3097 1268 2742 
Q 959 2388 959 1747 
Q 959 1106 1268 751 
Q 1578 397 2138 397 
Q 2388 397 2633 464 
Q 2878 531 3122 666 
L 3122 134 
Q 2881 22 2623 -34 
Q 2366 -91 2075 -91 
Q 1284 -91 818 406 
Q 353 903 353 1747 
Q 353 2603 823 3093 
Q 1294 3584 2113 3584 
Q 2378 3584 2631 3529 
Q 2884 3475 3122 3366 
z
" transform="scale(0.015625)"/>
       <path id="DejaVuSans-76" d="M 191 3500 
L 800 3500 
L 1894 563 
L 2988 3500 
L 3597 3500 
L 2284 0 
L 1503 0 
L 191 3500 
z
" transform="scale(0.015625)"/>
       <path id="DejaVuSans-56" d="M 1831 0 
L 50 4666 
L 709 4666 
L 2188 738 
L 3669 4666 
L 4325 4666 
L 2547 0 
L 1831 0 
z
" transform="scale(0.015625)"/>
       <path id="DejaVuSans-6c" d="M 603 4863 
L 1178 4863 
L 1178 0 
L 603 0 
L 603 4863 
z
" transform="scale(0.015625)"/>
       <path id="DejaVuSans-75" d="M 544 1381 
L 544 3500 
L 1119 3500 
L 1119 1403 
Q 1119 906 1312 657 
Q 1506 409 1894 409 
Q 2359 409 2629 706 
Q 2900 1003 2900 1516 
L 2900 3500 
L 3475 3500 
L 3475 0 
L 2900 0 
L 2900 538 
Q 2691 219 2414 64 
Q 2138 -91 1772 -91 
Q 1169 -91 856 284 
Q 544 659 544 1381 
z
M 1991 3584 
L 1991 3584 
z
" transform="scale(0.015625)"/>
      </defs>
      <use xlink:href="#DejaVuSans-4f"/>
      <use xlink:href="#DejaVuSans-62" transform="translate(78.710938 0)"/>
      <use xlink:href="#DejaVuSans-6a" transform="translate(142.1875 0)"/>
      <use xlink:href="#DejaVuSans-65" transform="translate(169.970703 0)"/>
      <use xlink:href="#DejaVuSans-63" transform="translate(231.494141 0)"/>
      <use xlink:href="#DejaVuSans-74" transform="translate(286.474609 0)"/>
      <use xlink:href="#DejaVuSans-69" transform="translate(325.683594 0)"/>
      <use xlink:href="#DejaVuSans-76" transform="translate(353.466797 0)"/>
      <use xlink:href="#DejaVuSans-65" transform="translate(412.646484 0)"/>
      <use xlink:href="#DejaVuSans-20" transform="translate(474.169922 0)"/>
      <use xlink:href="#DejaVuSans-56" transform="translate(505.957031 0)"/>
      <use xlink:href="#DejaVuSans-61" transform="translate(566.615234 0)"/>
      <use xlink:href="#DejaVuSans-6c" transform="translate(627.894531 0)"/>
      <use xlink:href="#DejaVuSans-75" transform="translate(655.677734 0)"/>
      <use xlink:href="#DejaVuSans-65" transform="translate(719.056641 0)"/>
     </g>
    </g>
   </g>
   <g id="line2d_37">
    <path d="M 48.37 223.120064 
L 50.340955 223.120064 
L 50.340955 252.665593 
L 51.654925 252.665593 
L 51.654925 285.356969 
L 127.2082 285.356969 
L 127.2082 306.514241 
L 135.749005 306.514241 
L 135.749005 349.58105 
L 145.60378 349.58105 
L 145.60378 352.056992 
L 317.73385 352.056992 
L 317.73385 353.486656 
L 353.21104 353.486656 
L 353.21104 359.249765 
L 368.97868 359.249765 
L 368.97868 363.026438 
L 638.34253 363.026438 
L 638.34253 367.11 
L 704.698015 367.11 
L 704.698015 367.11 
" clip-path="url(#p08b1741aed)" style="fill: none; stroke: #1f77b4; stroke-width: 1.5; stroke-linecap: square"/>
   </g>
   <g id="line2d_38">
    <path d="M 48.37 121.298138 
L 49.026985 75.183659 
L 49.68397 81.100376 
L 50.340955 70.068405 
L 50.99794 63.046077 
L 51.654925 95.162809 
L 52.31191 120.547725 
L 52.968895 119.227603 
L 53.62588 61.829813 
L 54.282865 104.026753 
L 54.93985 106.874649 
L 55.596835 88.456181 
L 56.25382 53.593514 
L 56.910805 70.844868 
L 57.56779 104.33082 
L 58.224775 101.785897 
L 58.88176 105.916795 
L 59.538745 89.06945 
L 60.19573 86.176527 
L 60.852715 97.263155 
L 61.5097 71.7036 
L 62.166685 72.588106 
L 62.82367 84.267738 
L 63.480655 80.525706 
L 64.13764 82.692029 
L 64.794625 83.282146 
L 65.45161 81.669866 
L 66.108595 97.400343 
L 66.76558 88.997758 
L 67.422565 71.825213 
L 68.07955 88.848339 
L 68.736535 73.681391 
L 69.39352 109.192757 
L 70.050505 72.983919 
L 70.70749 75.696002 
L 71.364475 90.595202 
L 72.02146 59.455158 
L 72.678445 96.964392 
L 73.33543 117.209279 
L 73.992415 101.235909 
L 74.6494 104.079741 
L 75.306385 82.050609 
L 75.96337 92.693069 
L 76.620355 126.245026 
L 77.27734 108.250955 
L 77.934325 100.334286 
L 78.59131 114.06187 
L 79.248295 93.420892 
L 79.90528 120.261722 
L 81.21925 78.28893 
L 81.876235 95.816703 
L 82.53322 90.610907 
L 83.190205 79.245399 
L 83.84719 81.796236 
L 84.504175 83.017679 
L 85.16116 58.882416 
L 85.818145 60.47009 
L 86.47513 86.317823 
L 87.132115 94.87429 
L 87.7891 69.528164 
L 88.446085 100.982694 
L 89.10307 106.438794 
L 89.760055 89.787605 
L 90.41704 78.759835 
L 91.074025 107.896139 
L 91.73101 118.207983 
L 92.387995 112.934582 
L 93.04498 110.460353 
L 93.701965 99.083181 
L 94.35895 117.718104 
L 95.015935 122.122817 
L 96.329905 99.312883 
L 97.643875 78.409168 
L 98.30086 92.090219 
L 98.957845 108.818788 
L 100.271815 67.005275 
L 100.9288 86.337241 
L 101.585785 98.376855 
L 102.24277 91.046706 
L 102.899755 123.733866 
L 104.213725 108.113258 
L 104.87071 110.107287 
L 105.527695 77.898194 
L 106.18468 96.213107 
L 106.841665 97.188084 
L 107.49865 95.850068 
L 108.155635 80.227384 
L 108.81262 72.070848 
L 109.469605 90.938673 
L 110.12659 125.921712 
L 110.783575 108.390917 
L 111.44056 86.162274 
L 112.097545 96.460392 
L 112.75453 78.004104 
L 113.411515 96.059328 
L 114.0685 86.241887 
L 114.725485 110.849136 
L 115.38247 101.685389 
L 116.039455 66.34931 
L 116.69644 78.302374 
L 117.353425 96.188588 
L 118.01041 94.007857 
L 118.667395 83.374189 
L 119.32438 132.649843 
L 119.981365 69.02774 
L 120.63835 78.988495 
L 121.295335 94.733232 
L 121.95232 65.207162 
L 122.609305 96.062397 
L 123.26629 134.616365 
L 123.923275 112.00337 
L 124.58026 69.653801 
L 125.237245 86.688785 
L 125.89423 85.202119 
L 126.551215 72.405496 
L 127.2082 102.498375 
L 127.865185 101.847611 
L 128.52217 115.529904 
L 129.179155 115.52261 
L 129.83614 124.888974 
L 130.493125 106.693689 
L 131.15011 136.767398 
L 131.807095 131.733962 
L 132.46408 107.109066 
L 133.121065 72.176675 
L 133.77805 109.040009 
L 134.435035 92.45912 
L 135.749005 131.705292 
L 136.40599 84.294477 
L 137.062975 78.24143 
L 137.71996 82.42976 
L 138.376945 99.483553 
L 139.03393 98.461913 
L 139.690915 125.270628 
L 140.3479 121.193119 
L 141.004885 121.397381 
L 141.66187 146.299038 
L 142.318855 141.577771 
L 142.97584 128.086039 
L 143.632825 118.25838 
L 144.28981 106.281296 
L 144.946795 114.875632 
L 145.60378 130.544905 
L 146.260765 99.188584 
L 146.91775 126.522613 
L 147.574735 129.576499 
L 148.23172 118.135844 
L 148.888705 130.105011 
L 149.54569 137.860878 
L 150.85966 79.505056 
L 151.516645 102.354749 
L 152.17363 108.92743 
L 152.830615 119.028579 
L 153.4876 87.310933 
L 154.144585 87.701764 
L 154.80157 97.749711 
L 155.458555 128.209982 
L 156.11554 114.856748 
L 156.772525 116.379954 
L 157.42951 94.282652 
L 158.086495 102.790061 
L 158.74348 128.45624 
L 159.400465 106.796321 
L 160.05745 148.94667 
L 160.714435 102.854424 
L 161.37142 109.457273 
L 162.028405 102.400494 
L 162.68539 100.733716 
L 163.342375 89.226956 
L 163.99936 99.910379 
L 164.656345 91.910571 
L 165.31333 89.874622 
L 165.970315 90.633754 
L 166.6273 136.442169 
L 167.284285 137.493391 
L 167.94127 135.213633 
L 168.598255 106.337591 
L 169.25524 86.383139 
L 169.912225 107.838609 
L 170.56921 140.371283 
L 171.88318 111.026488 
L 172.540165 108.333185 
L 173.19715 98.165482 
L 173.854135 92.777872 
L 174.51112 84.953309 
L 175.168105 121.544008 
L 175.82509 124.511938 
L 176.482075 90.97489 
L 177.13906 73.885505 
L 177.796045 101.904755 
L 178.45303 111.651383 
L 179.110015 107.644408 
L 179.767 114.493214 
L 180.423985 103.270845 
L 181.08097 135.854557 
L 181.737955 121.72181 
L 182.39494 117.776586 
L 183.051925 153.176917 
L 183.70891 121.611626 
L 184.365895 143.600449 
L 185.02288 130.45317 
L 185.679865 145.14597 
L 186.33685 140.867621 
L 186.993835 139.678408 
L 187.65082 160.895119 
L 188.96479 74.19284 
L 189.621775 115.424189 
L 190.27876 111.960263 
L 191.59273 143.939392 
L 192.249715 113.247665 
L 192.9067 145.076832 
L 193.563685 119.690728 
L 194.22067 115.728393 
L 194.877655 128.440766 
L 195.53464 119.945705 
L 196.191625 96.090106 
L 196.84861 102.526004 
L 197.505595 107.578008 
L 198.16258 87.857801 
L 198.819565 108.033122 
L 199.47655 88.925907 
L 200.133535 87.918778 
L 200.79052 119.666544 
L 201.447505 108.419054 
L 202.10449 130.040729 
L 202.761475 156.141277 
L 203.41846 143.520278 
L 204.075445 135.021727 
L 204.73243 98.537855 
L 205.389415 118.886883 
L 206.0464 92.180796 
L 206.703385 91.156438 
L 207.36037 94.742593 
L 208.017355 72.419239 
L 209.331325 116.387346 
L 209.98831 136.435465 
L 210.645295 125.044419 
L 211.30228 137.069447 
L 212.61625 135.538075 
L 213.273235 109.412693 
L 213.93022 106.829109 
L 214.587205 108.844726 
L 215.24419 115.497947 
L 215.901175 92.183559 
L 216.55816 93.230565 
L 217.215145 78.14696 
L 217.87213 93.86403 
L 218.529115 94.691992 
L 219.1861 78.438152 
L 219.843085 78.911308 
L 220.50007 116.221355 
L 221.157055 106.152119 
L 221.81404 116.588164 
L 222.471025 91.406252 
L 223.12801 123.666701 
L 223.784995 107.890478 
L 224.44198 118.594024 
L 225.098965 110.478717 
L 225.75595 124.165423 
L 226.412935 97.526583 
L 227.06992 91.194282 
L 227.726905 61.329847 
L 228.38389 58.76638 
L 229.040875 78.00992 
L 229.69786 108.804557 
L 230.354845 129.514522 
L 231.01183 93.040741 
L 231.668815 143.627453 
L 232.982785 107.999743 
L 233.63977 90.096883 
L 234.296755 89.276554 
L 234.95374 86.842952 
L 235.610725 86.431901 
L 236.26771 99.905526 
L 237.58168 153.736216 
L 238.238665 165.908769 
L 238.89565 150.345399 
L 239.552635 123.217864 
L 240.20962 102.708901 
L 240.866605 143.473249 
L 241.52359 118.203543 
L 242.180575 104.03672 
L 242.83756 140.59839 
L 243.494545 137.998813 
L 244.15153 125.589375 
L 244.808515 133.692321 
L 245.4655 93.279664 
L 246.122485 119.092749 
L 246.77947 102.886154 
L 247.436455 96.52801 
L 248.09344 108.631275 
L 248.750425 132.003431 
L 249.40741 131.216815 
L 250.064395 132.529216 
L 250.72138 121.547211 
L 251.378365 115.124877 
L 252.03535 114.809705 
L 252.692335 124.620445 
L 253.34932 91.053083 
L 254.006305 91.759212 
L 254.66329 91.309092 
L 255.320275 110.941593 
L 255.97726 87.733472 
L 256.634245 54.591087 
L 257.29123 79.025528 
L 257.948215 84.045933 
L 258.6052 99.145328 
L 259.262185 123.211266 
L 259.91917 121.961923 
L 260.576155 119.166734 
L 261.23314 138.330756 
L 261.890125 123.114721 
L 262.54711 143.704787 
L 263.204095 126.546563 
L 263.86108 91.975755 
L 264.518065 112.863205 
L 265.17505 91.359134 
L 265.832035 84.935773 
L 266.48902 126.322455 
L 267.146005 107.8191 
L 267.80299 103.356385 
L 268.459975 127.533234 
L 269.11696 88.452613 
L 269.773945 72.191547 
L 270.43093 71.55819 
L 271.7449 134.570502 
L 272.401885 115.559099 
L 273.05887 127.479145 
L 273.715855 103.438675 
L 274.37284 122.546753 
L 275.029825 99.187936 
L 275.68681 122.627897 
L 276.343795 110.225321 
L 277.00078 133.843638 
L 277.657765 114.883895 
L 278.31475 149.185962 
L 278.971735 109.215709 
L 279.62872 132.761217 
L 280.285705 139.027979 
L 280.94269 133.896088 
L 282.25666 84.892869 
L 282.913645 115.246691 
L 283.57063 83.760849 
L 284.227615 89.164547 
L 284.8846 100.704129 
L 285.541585 97.783763 
L 286.19857 89.190736 
L 286.855555 77.055414 
L 287.51254 94.275362 
L 288.169525 82.059965 
L 288.82651 90.659226 
L 289.483495 111.359674 
L 290.14048 126.528164 
L 290.797465 122.363828 
L 291.45445 115.634319 
L 292.111435 121.736542 
L 292.76842 119.896021 
L 293.425405 129.047349 
L 294.08239 129.738792 
L 294.739375 119.229848 
L 295.39636 130.373334 
L 296.053345 84.631548 
L 296.71033 122.257822 
L 297.367315 136.599873 
L 298.0243 95.87854 
L 298.681285 95.721255 
L 299.33827 107.506269 
L 299.995255 140.902869 
L 300.65224 121.321237 
L 301.309225 87.967102 
L 301.96621 93.733068 
L 302.623195 122.143797 
L 303.28018 123.645897 
L 303.937165 123.170615 
L 304.59415 147.075203 
L 305.251135 143.191864 
L 305.90812 113.353361 
L 306.565105 106.906476 
L 307.22209 126.118431 
L 307.879075 167.739576 
L 308.53606 136.007609 
L 309.193045 138.772198 
L 309.85003 127.039376 
L 310.507015 125.971492 
L 311.164 107.546177 
L 311.820985 110.708427 
L 312.47797 114.578009 
L 313.134955 112.360749 
L 313.79194 112.769753 
L 314.448925 98.048884 
L 315.10591 123.815045 
L 315.762895 127.452912 
L 316.41988 126.103944 
L 317.076865 117.77369 
L 317.73385 118.051845 
L 319.04782 136.861476 
L 319.704805 138.009112 
L 320.36179 112.028246 
L 321.018775 105.377022 
L 321.67576 86.930115 
L 322.332745 116.076392 
L 322.98973 116.206076 
L 323.646715 112.312054 
L 324.3037 103.059424 
L 324.960685 117.153846 
L 325.61767 113.580316 
L 326.274655 113.033342 
L 326.93164 136.670968 
L 327.588625 87.207011 
L 328.24561 134.26023 
L 328.902595 130.147904 
L 329.55958 93.980178 
L 330.216565 103.26848 
L 330.87355 101.822196 
L 331.530535 109.787033 
L 332.18752 106.370881 
L 332.844505 90.287401 
L 334.158475 170.684161 
L 334.81546 125.017728 
L 335.472445 87.23534 
L 336.12943 96.990221 
L 336.786415 87.357941 
L 337.4434 108.887088 
L 338.100385 116.847579 
L 338.75737 131.100142 
L 339.414355 108.036788 
L 340.07134 113.02392 
L 340.728325 98.349668 
L 341.38531 130.74404 
L 342.042295 117.556196 
L 342.69928 101.864168 
L 343.356265 130.373042 
L 344.01325 105.174055 
L 344.670235 112.01766 
L 345.32722 134.995909 
L 345.984205 140.594646 
L 346.64119 123.45091 
L 347.298175 131.909287 
L 347.95516 137.443823 
L 348.612145 130.979405 
L 349.26913 108.375178 
L 349.926115 109.03469 
L 350.5831 143.927345 
L 351.89707 120.695373 
L 352.554055 94.677264 
L 353.21104 139.37347 
L 354.52501 128.860734 
L 355.181995 173.998947 
L 355.83898 119.931093 
L 356.495965 130.325095 
L 357.15295 101.87127 
L 357.809935 143.511131 
L 358.46692 136.780429 
L 359.123905 89.754242 
L 359.78089 115.690238 
L 361.09486 107.805535 
L 361.751845 94.056301 
L 362.40883 112.169839 
L 363.065815 126.053264 
L 363.7228 126.316669 
L 364.379785 118.525843 
L 365.03677 106.630753 
L 365.693755 103.423323 
L 366.35074 74.778396 
L 367.007725 102.471566 
L 367.66471 146.643354 
L 368.321695 117.963314 
L 368.97868 135.369969 
L 369.635665 139.419068 
L 370.29265 94.110322 
L 370.949635 104.704923 
L 371.60662 122.327395 
L 372.263605 128.679667 
L 372.92059 99.055856 
L 373.577575 100.886501 
L 374.23456 129.088972 
L 374.891545 133.661155 
L 375.54853 116.487371 
L 376.205515 148.399798 
L 376.8625 132.861753 
L 378.17647 118.638302 
L 378.833455 122.669725 
L 379.49044 101.963808 
L 380.147425 105.571668 
L 380.80441 100.923661 
L 381.461395 86.667912 
L 382.11838 115.491265 
L 382.775365 120.020909 
L 383.43235 119.500413 
L 384.089335 116.545961 
L 384.74632 123.425446 
L 385.403305 124.370465 
L 386.06029 118.323014 
L 386.717275 94.900654 
L 387.37426 126.54258 
L 388.031245 125.583271 
L 388.68823 131.933589 
L 389.345215 105.677132 
L 390.0022 93.894215 
L 390.659185 90.359572 
L 391.31617 98.494192 
L 391.973155 114.38418 
L 393.287125 63.603109 
L 394.601095 98.557629 
L 395.25808 111.808926 
L 395.915065 141.128198 
L 396.57205 124.088707 
L 397.229035 126.455102 
L 397.88602 112.829393 
L 398.543005 129.62537 
L 399.19999 125.566864 
L 399.856975 117.193014 
L 400.51396 105.223361 
L 401.170945 128.736425 
L 401.82793 105.112819 
L 402.484915 117.169783 
L 403.1419 104.694681 
L 403.798885 125.565107 
L 404.45587 103.467951 
L 405.112855 89.306948 
L 405.76984 94.131066 
L 406.426825 111.721778 
L 407.08381 98.41118 
L 407.740795 79.082186 
L 408.39778 114.829396 
L 409.71175 148.255112 
L 410.368735 127.10426 
L 411.02572 90.594926 
L 411.682705 81.701406 
L 412.33969 94.409104 
L 412.996675 80.54112 
L 413.65366 113.030076 
L 414.310645 116.969852 
L 414.96763 163.986936 
L 415.624615 103.278587 
L 416.2816 124.178129 
L 417.59557 102.480521 
L 418.252555 91.137257 
L 418.90954 92.504354 
L 419.566525 118.422086 
L 420.22351 135.445785 
L 420.880495 124.341004 
L 421.53748 135.078506 
L 422.194465 116.108151 
L 422.85145 103.427558 
L 423.508435 99.216029 
L 424.16542 101.82411 
L 424.822405 95.568263 
L 425.47939 141.096376 
L 426.136375 118.985221 
L 426.79336 118.376216 
L 428.10733 143.640842 
L 428.764315 102.135124 
L 430.078285 116.246828 
L 430.73527 100.196348 
L 431.392255 119.857351 
L 432.04924 109.364148 
L 432.706225 128.17975 
L 433.36321 114.748437 
L 434.020195 127.923304 
L 434.67718 157.326036 
L 435.334165 125.272601 
L 435.99115 110.21044 
L 436.648135 132.21475 
L 437.30512 124.130426 
L 437.962105 107.466881 
L 438.61909 82.476386 
L 439.276075 66.622521 
L 439.93306 78.777399 
L 440.590045 49.81 
L 441.904015 128.009836 
L 442.561 107.416655 
L 443.217985 108.683343 
L 443.87497 121.949306 
L 444.531955 127.044152 
L 445.18894 120.180991 
L 445.845925 123.153986 
L 446.50291 137.197323 
L 447.159895 100.713443 
L 447.81688 86.152777 
L 448.473865 105.238171 
L 449.13085 103.485555 
L 449.787835 116.528602 
L 450.44482 152.113474 
L 451.101805 135.198773 
L 451.75879 107.074219 
L 452.415775 110.855093 
L 453.07276 94.180977 
L 453.729745 93.946128 
L 455.043715 135.561714 
L 455.7007 150.114617 
L 456.357685 111.214686 
L 457.01467 135.408441 
L 457.671655 114.459318 
L 458.32864 103.969868 
L 458.985625 126.987507 
L 459.64261 108.053705 
L 460.299595 117.461819 
L 460.95658 118.586975 
L 461.613565 126.897837 
L 462.27055 118.491706 
L 462.927535 140.777342 
L 463.58452 117.07515 
L 464.241505 155.174713 
L 464.89849 97.752112 
L 465.555475 93.088666 
L 466.21246 121.634766 
L 466.869445 112.056735 
L 467.52643 95.492192 
L 468.183415 103.803385 
L 468.8404 102.681687 
L 469.497385 108.872901 
L 470.15437 116.889189 
L 471.46834 129.166377 
L 472.125325 115.122166 
L 472.78231 135.377196 
L 473.439295 132.939535 
L 474.09628 127.34226 
L 474.753265 123.028818 
L 475.41025 120.358126 
L 476.067235 125.339951 
L 476.72422 109.596213 
L 477.381205 101.875072 
L 478.03819 128.978444 
L 478.695175 128.254668 
L 479.35216 130.259168 
L 480.009145 129.202022 
L 480.66613 135.811338 
L 481.323115 117.29254 
L 482.637085 108.421962 
L 483.29407 114.283091 
L 483.951055 94.958679 
L 484.60804 89.094506 
L 485.265025 75.68041 
L 486.578995 138.340071 
L 487.23598 119.782081 
L 487.892965 127.76088 
L 488.54995 129.543607 
L 489.206935 124.459787 
L 489.86392 129.904472 
L 490.520905 128.265357 
L 491.17789 134.359596 
L 491.834875 133.465733 
L 492.49186 126.616238 
L 493.80583 137.799567 
L 494.462815 142.504117 
L 495.1198 154.270703 
L 495.776785 115.54288 
L 496.43377 138.712677 
L 497.090755 108.602325 
L 497.74774 101.317282 
L 498.404725 124.939048 
L 499.06171 130.282009 
L 499.718695 154.494369 
L 500.37568 124.368131 
L 501.032665 111.989174 
L 501.68965 118.101188 
L 502.346635 112.628373 
L 503.00362 97.064792 
L 503.660605 113.377009 
L 504.31759 109.069173 
L 504.974575 132.198747 
L 505.63156 147.420713 
L 506.288545 126.396381 
L 506.94553 149.977772 
L 507.602515 169.247905 
L 508.2595 101.692466 
L 508.916485 68.951617 
L 509.57347 101.45082 
L 510.230455 74.042184 
L 510.88744 109.313697 
L 511.544425 123.978775 
L 512.20141 107.817311 
L 512.858395 120.33568 
L 514.82935 88.455372 
L 515.486335 68.413245 
L 516.14332 113.719479 
L 516.800305 113.022472 
L 517.45729 126.020864 
L 518.114275 78.87754 
L 518.77126 68.438432 
L 519.428245 82.299035 
L 520.08523 93.378774 
L 520.742215 94.010169 
L 521.3992 122.183275 
L 522.056185 106.537439 
L 522.71317 109.652763 
L 523.370155 115.872784 
L 524.02714 97.406439 
L 524.684125 108.012363 
L 525.34111 99.206285 
L 525.998095 126.438894 
L 526.65508 89.889003 
L 527.312065 103.866305 
L 527.96905 126.783828 
L 528.626035 111.788287 
L 529.28302 140.8233 
L 529.940005 88.391849 
L 530.59699 135.533925 
L 531.253975 152.587561 
L 531.91096 132.982246 
L 532.567945 147.036758 
L 533.22493 122.008748 
L 533.881915 118.338574 
L 534.5389 155.355607 
L 535.195885 107.06895 
L 535.85287 120.423409 
L 536.509855 76.552023 
L 537.16684 96.056175 
L 537.823825 120.702902 
L 538.48081 136.371281 
L 539.137795 129.601185 
L 539.79478 137.486589 
L 540.451765 109.738095 
L 541.10875 110.514144 
L 541.765735 79.866198 
L 542.42272 101.336136 
L 543.079705 133.827881 
L 543.73669 122.237273 
L 544.393675 156.005323 
L 545.05066 118.096222 
L 545.707645 112.894173 
L 546.36463 137.015727 
L 547.021615 96.108012 
L 547.6786 115.53488 
L 548.335585 92.478999 
L 548.99257 106.119308 
L 549.649555 96.24437 
L 550.30654 102.303271 
L 550.963525 106.98775 
L 551.62051 90.691379 
L 552.277495 94.502114 
L 553.591465 117.90806 
L 554.24845 106.893755 
L 554.905435 111.239049 
L 555.56242 105.382116 
L 556.219405 106.995248 
L 556.87639 114.81348 
L 557.533375 132.735315 
L 558.19036 135.933523 
L 559.50433 107.441185 
L 560.161315 126.530239 
L 560.8183 95.782279 
L 561.475285 100.116483 
L 562.13227 124.630468 
L 562.789255 112.627887 
L 563.44624 144.149797 
L 564.103225 125.455079 
L 564.76021 134.851212 
L 565.417195 155.415184 
L 566.07418 137.450879 
L 566.731165 123.567535 
L 567.38815 122.277377 
L 568.045135 153.939111 
L 568.70212 129.823157 
L 569.359105 142.111968 
L 570.673075 111.86675 
L 571.33006 106.975018 
L 571.987045 82.866181 
L 572.64403 137.911163 
L 573.301015 103.095595 
L 573.958 122.039155 
L 574.614985 97.330078 
L 575.928955 144.426159 
L 576.58594 121.37747 
L 577.242925 141.526899 
L 577.89991 93.220831 
L 578.556895 135.933155 
L 579.21388 106.919255 
L 579.870865 121.307832 
L 580.52785 109.416031 
L 581.184835 128.415676 
L 581.84182 116.2883 
L 582.498805 136.553729 
L 583.15579 131.513869 
L 583.812775 137.813625 
L 584.46976 129.895997 
L 585.126745 162.207395 
L 585.78373 137.624309 
L 586.440715 138.04258 
L 587.0977 137.701208 
L 587.754685 92.991379 
L 588.41167 100.257355 
L 589.068655 122.607737 
L 590.382625 109.192517 
L 591.03961 119.179414 
L 591.696595 125.589218 
L 592.35358 135.055727 
L 593.010565 126.501508 
L 593.66755 136.185591 
L 594.324535 138.459685 
L 594.98152 125.716841 
L 595.638505 91.724311 
L 596.29549 120.754018 
L 596.952475 103.415496 
L 597.60946 126.106413 
L 598.266445 134.683432 
L 598.92343 128.756621 
L 599.580415 151.448496 
L 600.2374 107.463865 
L 600.894385 127.762173 
L 601.55137 126.239665 
L 602.208355 120.949988 
L 602.86534 122.32096 
L 603.522325 157.047143 
L 604.17931 80.098371 
L 604.836295 139.615463 
L 605.49328 135.352672 
L 606.150265 155.552982 
L 606.80725 122.233237 
L 607.464235 118.949913 
L 608.12122 137.565513 
L 608.778205 137.2366 
L 609.43519 107.946902 
L 610.092175 143.957503 
L 610.74916 125.030648 
L 611.406145 135.864148 
L 612.06313 119.694538 
L 612.720115 120.410529 
L 613.3771 127.148897 
L 614.034085 106.694913 
L 614.69107 104.28399 
L 615.348055 93.108806 
L 616.00504 109.466675 
L 616.662025 118.255077 
L 617.31901 128.761068 
L 617.975995 119.332652 
L 618.63298 120.925121 
L 619.289965 97.039215 
L 619.94695 89.116519 
L 620.603935 115.69597 
L 621.26092 148.947621 
L 621.917905 122.152215 
L 622.57489 117.698726 
L 623.231875 130.048413 
L 623.88886 121.275491 
L 624.545845 104.453391 
L 625.20283 133.103774 
L 625.859815 120.905273 
L 626.5168 134.995834 
L 627.173785 110.218456 
L 627.83077 112.818156 
L 628.487755 127.797956 
L 629.14474 102.434173 
L 629.801725 129.038539 
L 630.45871 137.731289 
L 631.115695 175.587456 
L 631.77268 111.957659 
L 632.429665 114.039516 
L 633.08665 101.107947 
L 633.743635 105.897968 
L 634.40062 106.318754 
L 635.057605 110.411191 
L 635.71459 117.384942 
L 636.371575 107.368726 
L 637.02856 80.640824 
L 637.685545 110.83706 
L 638.34253 115.182239 
L 638.999515 111.537844 
L 639.6565 71.698986 
L 640.313485 66.648135 
L 640.97047 111.980698 
L 641.627455 96.485634 
L 642.28444 91.236256 
L 642.941425 99.045038 
L 643.59841 103.955492 
L 644.255395 75.823604 
L 645.569365 107.137281 
L 646.22635 108.321805 
L 646.883335 112.364598 
L 647.54032 109.139212 
L 648.197305 107.18591 
L 648.85429 98.600157 
L 650.16826 114.341277 
L 650.825245 144.691191 
L 651.48223 128.320394 
L 652.139215 133.172973 
L 652.7962 134.837541 
L 653.453185 104.893364 
L 654.11017 124.633194 
L 654.767155 93.358943 
L 655.42414 80.360219 
L 656.081125 116.411064 
L 656.73811 95.538849 
L 657.395095 109.773089 
L 658.709065 100.216395 
L 659.36605 104.413297 
L 660.023035 82.858215 
L 660.68002 122.505104 
L 661.337005 90.356277 
L 661.99399 148.590861 
L 662.650975 111.792674 
L 663.30796 120.253234 
L 663.964945 109.961224 
L 664.62193 157.301494 
L 665.278915 151.865546 
L 665.9359 95.179171 
L 666.592885 97.265438 
L 667.24987 106.697985 
L 667.906855 100.191587 
L 668.56384 133.468311 
L 669.220825 116.12671 
L 669.87781 109.024534 
L 670.534795 127.640452 
L 671.19178 131.670943 
L 671.848765 139.167667 
L 672.50575 116.310123 
L 673.162735 102.576202 
L 673.81972 95.324337 
L 674.476705 100.137567 
L 675.13369 85.645596 
L 675.790675 126.214299 
L 676.44766 156.3947 
L 677.104645 138.25244 
L 677.76163 132.316114 
L 678.418615 138.522948 
L 679.0756 130.774538 
L 679.732585 146.59411 
L 680.38957 147.929426 
L 681.046555 151.552991 
L 681.70354 156.660495 
L 682.360525 120.59865 
L 683.01751 103.687009 
L 683.674495 78.336763 
L 684.33148 111.935389 
L 685.64545 124.989789 
L 686.302435 94.318035 
L 686.95942 119.272194 
L 687.616405 127.493864 
L 688.27339 139.523894 
L 688.930375 157.901548 
L 689.58736 118.082048 
L 690.244345 106.617303 
L 690.90133 148.960341 
L 691.558315 108.604135 
L 692.2153 121.65362 
L 692.872285 119.340774 
L 693.52927 138.515264 
L 694.186255 120.519766 
L 694.84324 112.069019 
L 695.500225 122.982769 
L 696.15721 108.805273 
L 696.814195 111.124052 
L 697.47118 107.399704 
L 698.128165 114.341988 
L 698.78515 112.561825 
L 699.442135 133.090839 
L 700.09912 124.710718 
L 700.756105 110.363278 
L 701.41309 133.705589 
L 702.070075 101.328676 
L 702.72706 110.382722 
L 704.04103 133.091215 
L 704.698015 127.628171 
L 704.698015 127.628171 
" clip-path="url(#p08b1741aed)" style="fill: none; stroke-dasharray: 5.55,2.4; stroke-dashoffset: 0; stroke: #ff7f0e; stroke-width: 1.5"/>
   </g>
   <g id="patch_3">
    <path d="M 48.37 398.84 
L 48.37 18.08 
" style="fill: none; stroke: #000000; stroke-width: 0.8; stroke-linejoin: miter; stroke-linecap: square"/>
   </g>
   <g id="patch_4">
    <path d="M 705.355 398.84 
L 705.355 18.08 
" style="fill: none; stroke: #000000; stroke-width: 0.8; stroke-linejoin: miter; stroke-linecap: square"/>
   </g>
   <g id="patch_5">
    <path d="M 48.37 398.84 
L 705.355 398.84 
" style="fill: none; stroke: #000000; stroke-width: 0.8; stroke-linejoin: miter; stroke-linecap: square"/>
   </g>
   <g id="patch_6">
    <path d="M 48.37 18.08 
L 705.355 18.08 
" style="fill: none; stroke: #000000; stroke-width: 0.8; stroke-linejoin: miter; stroke-linecap: square"/>
   </g>
   <g id="text_21">
    <!-- GA Evolution (Simulation #2) -->
    <g transform="translate(288.925938 12.08) scale(0.12 -0.12)">
     <defs>
      <path id="DejaVuSans-41" d="M 2188 4044 
L 1331 1722 
L 3047 1722 
L 2188 4044 
z
M 1831 4666 
L 2547 4666 
L 4325 0 
L 3669 0 
L 3244 1197 
L 1141 1197 
L 716 0 
L 50 0 
L 1831 4666 
z
" transform="scale(0.015625)"/>
      <path id="DejaVuSans-45" d="M 628 4666 
L 3578 4666 
L 3578 4134 
L 1259 4134 
L 1259 2753 
L 3481 2753 
L 3481 2222 
L 1259 2222 
L 1259 531 
L 3634 531 
L 3634 0 
L 628 0 
L 628 4666 
z
" transform="scale(0.015625)"/>
      <path id="DejaVuSans-28" d="M 1984 4856 
Q 1566 4138 1362 3434 
Q 1159 2731 1159 2009 
Q 1159 1288 1364 580 
Q 1569 -128 1984 -844 
L 1484 -844 
Q 1016 -109 783 600 
Q 550 1309 550 2009 
Q 550 2706 781 3412 
Q 1013 4119 1484 4856 
L 1984 4856 
z
" transform="scale(0.015625)"/>
      <path id="DejaVuSans-53" d="M 3425 4513 
L 3425 3897 
Q 3066 4069 2747 4153 
Q 2428 4238 2131 4238 
Q 1616 4238 1336 4038 
Q 1056 3838 1056 3469 
Q 1056 3159 1242 3001 
Q 1428 2844 1947 2747 
L 2328 2669 
Q 3034 2534 3370 2195 
Q 3706 1856 3706 1288 
Q 3706 609 3251 259 
Q 2797 -91 1919 -91 
Q 1588 -91 1214 -16 
Q 841 59 441 206 
L 441 856 
Q 825 641 1194 531 
Q 1563 422 1919 422 
Q 2459 422 2753 634 
Q 3047 847 3047 1241 
Q 3047 1584 2836 1778 
Q 2625 1972 2144 2069 
L 1759 2144 
Q 1053 2284 737 2584 
Q 422 2884 422 3419 
Q 422 4038 858 4394 
Q 1294 4750 2059 4750 
Q 2388 4750 2728 4690 
Q 3069 4631 3425 4513 
z
" transform="scale(0.015625)"/>
      <path id="DejaVuSans-6d" d="M 3328 2828 
Q 3544 3216 3844 3400 
Q 4144 3584 4550 3584 
Q 5097 3584 5394 3201 
Q 5691 2819 5691 2113 
L 5691 0 
L 5113 0 
L 5113 2094 
Q 5113 2597 4934 2840 
Q 4756 3084 4391 3084 
Q 3944 3084 3684 2787 
Q 3425 2491 3425 1978 
L 3425 0 
L 2847 0 
L 2847 2094 
Q 2847 2600 2669 2842 
Q 2491 3084 2119 3084 
Q 1678 3084 1418 2786 
Q 1159 2488 1159 1978 
L 1159 0 
L 581 0 
L 581 3500 
L 1159 3500 
L 1159 2956 
Q 1356 3278 1631 3431 
Q 1906 3584 2284 3584 
Q 2666 3584 2933 3390 
Q 3200 3197 3328 2828 
z
" transform="scale(0.015625)"/>
      <path id="DejaVuSans-23" d="M 3272 2816 
L 2363 2816 
L 2100 1772 
L 3016 1772 
L 3272 2816 
z
M 2803 4594 
L 2478 3297 
L 3391 3297 
L 3719 4594 
L 4219 4594 
L 3897 3297 
L 4872 3297 
L 4872 2816 
L 3775 2816 
L 3519 1772 
L 4513 1772 
L 4513 1294 
L 3397 1294 
L 3072 0 
L 2572 0 
L 2894 1294 
L 1978 1294 
L 1656 0 
L 1153 0 
L 1478 1294 
L 494 1294 
L 494 1772 
L 1594 1772 
L 1856 2816 
L 850 2816 
L 850 3297 
L 1978 3297 
L 2297 4594 
L 2803 4594 
z
" transform="scale(0.015625)"/>
      <path id="DejaVuSans-29" d="M 513 4856 
L 1013 4856 
Q 1481 4119 1714 3412 
Q 1947 2706 1947 2009 
Q 1947 1309 1714 600 
Q 1481 -109 1013 -844 
L 513 -844 
Q 928 -128 1133 580 
Q 1338 1288 1338 2009 
Q 1338 2731 1133 3434 
Q 928 4138 513 4856 
z
" transform="scale(0.015625)"/>
     </defs>
     <use xlink:href="#DejaVuSans-47"/>
     <use xlink:href="#DejaVuSans-41" transform="translate(77.490234 0)"/>
     <use xlink:href="#DejaVuSans-20" transform="translate(145.898438 0)"/>
     <use xlink:href="#DejaVuSans-45" transform="translate(177.685547 0)"/>
     <use xlink:href="#DejaVuSans-76" transform="translate(240.869141 0)"/>
     <use xlink:href="#DejaVuSans-6f" transform="translate(300.048828 0)"/>
     <use xlink:href="#DejaVuSans-6c" transform="translate(361.230469 0)"/>
     <use xlink:href="#DejaVuSans-75" transform="translate(389.013672 0)"/>
     <use xlink:href="#DejaVuSans-74" transform="translate(452.392578 0)"/>
     <use xlink:href="#DejaVuSans-69" transform="translate(491.601562 0)"/>
     <use xlink:href="#DejaVuSans-6f" transform="translate(519.384766 0)"/>
     <use xlink:href="#DejaVuSans-6e" transform="translate(580.566406 0)"/>
     <use xlink:href="#DejaVuSans-20" transform="translate(643.945312 0)"/>
     <use xlink:href="#DejaVuSans-28" transform="translate(675.732422 0)"/>
     <use xlink:href="#DejaVuSans-53" transform="translate(714.746094 0)"/>
     <use xlink:href="#DejaVuSans-69" transform="translate(778.222656 0)"/>
     <use xlink:href="#DejaVuSans-6d" transform="translate(806.005859 0)"/>
     <use xlink:href="#DejaVuSans-75" transform="translate(903.417969 0)"/>
     <use xlink:href="#DejaVuSans-6c" transform="translate(966.796875 0)"/>
     <use xlink:href="#DejaVuSans-61" transform="translate(994.580078 0)"/>
     <use xlink:href="#DejaVuSans-74" transform="translate(1055.859375 0)"/>
     <use xlink:href="#DejaVuSans-69" transform="translate(1095.068359 0)"/>
     <use xlink:href="#DejaVuSans-6f" transform="translate(1122.851562 0)"/>
     <use xlink:href="#DejaVuSans-6e" transform="translate(1184.033203 0)"/>
     <use xlink:href="#DejaVuSans-20" transform="translate(1247.412109 0)"/>
     <use xlink:href="#DejaVuSans-23" transform="translate(1279.199219 0)"/>
     <use xlink:href="#DejaVuSans-32" transform="translate(1362.988281 0)"/>
     <use xlink:href="#DejaVuSans-29" transform="translate(1426.611328 0)"/>
    </g>
   </g>
   <g id="legend_1">
    <g id="patch_7">
     <path d="M 561.906563 55.43625 
L 698.355 55.43625 
Q 700.355 55.43625 700.355 53.43625 
L 700.355 25.08 
Q 700.355 23.08 698.355 23.08 
L 561.906563 23.08 
Q 559.906563 23.08 559.906563 25.08 
L 559.906563 53.43625 
Q 559.906563 55.43625 561.906563 55.43625 
z
" style="fill: #ffffff; opacity: 0.8; stroke: #cccccc; stroke-linejoin: miter"/>
    </g>
    <g id="line2d_39">
     <path d="M 563.906563 31.178437 
L 573.906563 31.178437 
L 573.906563 31.178437 
L 583.906563 31.178437 
L 583.906563 31.178437 
" style="fill: none; stroke: #1f77b4; stroke-width: 1.5; stroke-linecap: square"/>
    </g>
    <g id="text_22">
     <!-- Best Fitness (GA) -->
     <g transform="translate(591.906563 34.678437) scale(0.1 -0.1)">
      <defs>
       <path id="DejaVuSans-42" d="M 1259 2228 
L 1259 519 
L 2272 519 
Q 2781 519 3026 730 
Q 3272 941 3272 1375 
Q 3272 1813 3026 2020 
Q 2781 2228 2272 2228 
L 1259 2228 
z
M 1259 4147 
L 1259 2741 
L 2194 2741 
Q 2656 2741 2882 2914 
Q 3109 3088 3109 3444 
Q 3109 3797 2882 3972 
Q 2656 4147 2194 4147 
L 1259 4147 
z
M 628 4666 
L 2241 4666 
Q 2963 4666 3353 4366 
Q 3744 4066 3744 3513 
Q 3744 3084 3544 2831 
Q 3344 2578 2956 2516 
Q 3422 2416 3680 2098 
Q 3938 1781 3938 1306 
Q 3938 681 3513 340 
Q 3088 0 2303 0 
L 628 0 
L 628 4666 
z
" transform="scale(0.015625)"/>
       <path id="DejaVuSans-73" d="M 2834 3397 
L 2834 2853 
Q 2591 2978 2328 3040 
Q 2066 3103 1784 3103 
Q 1356 3103 1142 2972 
Q 928 2841 928 2578 
Q 928 2378 1081 2264 
Q 1234 2150 1697 2047 
L 1894 2003 
Q 2506 1872 2764 1633 
Q 3022 1394 3022 966 
Q 3022 478 2636 193 
Q 2250 -91 1575 -91 
Q 1294 -91 989 -36 
Q 684 19 347 128 
L 347 722 
Q 666 556 975 473 
Q 1284 391 1588 391 
Q 1994 391 2212 530 
Q 2431 669 2431 922 
Q 2431 1156 2273 1281 
Q 2116 1406 1581 1522 
L 1381 1569 
Q 847 1681 609 1914 
Q 372 2147 372 2553 
Q 372 3047 722 3315 
Q 1072 3584 1716 3584 
Q 2034 3584 2315 3537 
Q 2597 3491 2834 3397 
z
" transform="scale(0.015625)"/>
       <path id="DejaVuSans-46" d="M 628 4666 
L 3309 4666 
L 3309 4134 
L 1259 4134 
L 1259 2759 
L 3109 2759 
L 3109 2228 
L 1259 2228 
L 1259 0 
L 628 0 
L 628 4666 
z
" transform="scale(0.015625)"/>
      </defs>
      <use xlink:href="#DejaVuSans-42"/>
      <use xlink:href="#DejaVuSans-65" transform="translate(68.603516 0)"/>
      <use xlink:href="#DejaVuSans-73" transform="translate(130.126953 0)"/>
      <use xlink:href="#DejaVuSans-74" transform="translate(182.226562 0)"/>
      <use xlink:href="#DejaVuSans-20" transform="translate(221.435547 0)"/>
      <use xlink:href="#DejaVuSans-46" transform="translate(253.222656 0)"/>
      <use xlink:href="#DejaVuSans-69" transform="translate(303.492188 0)"/>
      <use xlink:href="#DejaVuSans-74" transform="translate(331.275391 0)"/>
      <use xlink:href="#DejaVuSans-6e" transform="translate(370.484375 0)"/>
      <use xlink:href="#DejaVuSans-65" transform="translate(433.863281 0)"/>
      <use xlink:href="#DejaVuSans-73" transform="translate(495.386719 0)"/>
      <use xlink:href="#DejaVuSans-73" transform="translate(547.486328 0)"/>
      <use xlink:href="#DejaVuSans-20" transform="translate(599.585938 0)"/>
      <use xlink:href="#DejaVuSans-28" transform="translate(631.373047 0)"/>
      <use xlink:href="#DejaVuSans-47" transform="translate(670.386719 0)"/>
      <use xlink:href="#DejaVuSans-41" transform="translate(747.876953 0)"/>
      <use xlink:href="#DejaVuSans-29" transform="translate(816.285156 0)"/>
     </g>
    </g>
    <g id="line2d_40">
     <path d="M 563.906563 45.856562 
L 573.906563 45.856562 
L 583.906563 45.856562 
" style="fill: none; stroke-dasharray: 5.55,2.4; stroke-dashoffset: 0; stroke: #ff7f0e; stroke-width: 1.5"/>
    </g>
    <g id="text_23">
     <!-- Average Fitness (GA) -->
     <g transform="translate(591.906563 49.356562) scale(0.1 -0.1)">
      <defs>
       <path id="DejaVuSans-67" d="M 2906 1791 
Q 2906 2416 2648 2759 
Q 2391 3103 1925 3103 
Q 1463 3103 1205 2759 
Q 947 2416 947 1791 
Q 947 1169 1205 825 
Q 1463 481 1925 481 
Q 2391 481 2648 825 
Q 2906 1169 2906 1791 
z
M 3481 434 
Q 3481 -459 3084 -895 
Q 2688 -1331 1869 -1331 
Q 1566 -1331 1297 -1286 
Q 1028 -1241 775 -1147 
L 775 -588 
Q 1028 -725 1275 -790 
Q 1522 -856 1778 -856 
Q 2344 -856 2625 -561 
Q 2906 -266 2906 331 
L 2906 616 
Q 2728 306 2450 153 
Q 2172 0 1784 0 
Q 1141 0 747 490 
Q 353 981 353 1791 
Q 353 2603 747 3093 
Q 1141 3584 1784 3584 
Q 2172 3584 2450 3431 
Q 2728 3278 2906 2969 
L 2906 3500 
L 3481 3500 
L 3481 434 
z
" transform="scale(0.015625)"/>
      </defs>
      <use xlink:href="#DejaVuSans-41"/>
      <use xlink:href="#DejaVuSans-76" transform="translate(62.533203 0)"/>
      <use xlink:href="#DejaVuSans-65" transform="translate(121.712891 0)"/>
      <use xlink:href="#DejaVuSans-72" transform="translate(183.236328 0)"/>
      <use xlink:href="#DejaVuSans-61" transform="translate(224.349609 0)"/>
      <use xlink:href="#DejaVuSans-67" transform="translate(285.628906 0)"/>
      <use xlink:href="#DejaVuSans-65" transform="translate(349.105469 0)"/>
      <use xlink:href="#DejaVuSans-20" transform="translate(410.628906 0)"/>
      <use xlink:href="#DejaVuSans-46" transform="translate(442.416016 0)"/>
      <use xlink:href="#DejaVuSans-69" transform="translate(492.685547 0)"/>
      <use xlink:href="#DejaVuSans-74" transform="translate(520.46875 0)"/>
      <use xlink:href="#DejaVuSans-6e" transform="translate(559.677734 0)"/>
      <use xlink:href="#DejaVuSans-65" transform="translate(623.056641 0)"/>
      <use xlink:href="#DejaVuSans-73" transform="translate(684.580078 0)"/>
      <use xlink:href="#DejaVuSans-73" transform="translate(736.679688 0)"/>
      <use xlink:href="#DejaVuSans-20" transform="translate(788.779297 0)"/>
      <use xlink:href="#DejaVuSans-28" transform="translate(820.566406 0)"/>
      <use xlink:href="#DejaVuSans-47" transform="translate(859.580078 0)"/>
      <use xlink:href="#DejaVuSans-41" transform="translate(937.070312 0)"/>
      <use xlink:href="#DejaVuSans-29" transform="translate(1005.478516 0)"/>
     </g>
    </g>
   </g>
  </g>
 </g>
 <defs>
  <clipPath id="p08b1741aed">
   <rect x="48.37" y="18.08" width="656.985" height="380.76"/>
  </clipPath>
 </defs>
</svg>
