<?xml version="1.0" encoding="utf-8" standalone="no"?>
<!DOCTYPE svg PUBLIC "-//W3C//DTD SVG 1.1//EN"
  "http://www.w3.org/Graphics/SVG/1.1/DTD/svg11.dtd">
<svg xmlns:xlink="http://www.w3.org/1999/xlink" width="720pt" height="432pt" viewBox="0 0 720 432" xmlns="http://www.w3.org/2000/svg" version="1.1">
 <metadata>
  <rdf:RDF xmlns:dc="http://purl.org/dc/elements/1.1/" xmlns:cc="http://creativecommons.org/ns#" xmlns:rdf="http://www.w3.org/1999/02/22-rdf-syntax-ns#">
   <cc:Work>
    <dc:type rdf:resource="http://purl.org/dc/dcmitype/StillImage"/>
    <dc:date>2025-11-25T19:56:36.127676</dc:date>
    <dc:format>image/svg+xml</dc:format>
    <dc:creator>
     <cc:Agent>
      <dc:title>Matplotlib v3.10.6, https://matplotlib.org/</dc:title>
     </cc:Agent>
    </dc:creator>
   </cc:Work>
  </rdf:RDF>
 </metadata>
 <defs>
  <style type="text/css">*{stroke-linejoin: round; stroke-linecap: butt}</style>
 </defs>
 <g id="figure_1">
  <g id="patch_1">
   <path d="M 0 432 
L 720 432 
L 720 0 
L 0 0 
z
" style="fill: #ffffff"/>
  </g>
  <g id="axes_1">
   <g id="patch_2">
    <path d="M 48.37 398.84 
L 705.355 398.84 
L 705.355 18.08 
L 48.37 18.08 
z
" style="fill: #ffffff"/>
   </g>
   <g id="matplotlib.axis_1">
    <g id="xtick_1">
     <g id="line2d_1">
      <path d="M 48.37 398.84 
L 48.37 18.08 
" clip-path="url(#p24851c9533)" style="fill: none; stroke-dasharray: 0.8,1.32; stroke-dashoffset: 0; stroke: #b0b0b0; stroke-opacity: 0.7; stroke-width: 0.8"/>
     </g>
     <g id="line2d_2">
      <defs>
       <path id="m634b3d49c7" d="M 0 0 
L 0 3.5 
" style="stroke: #000000; stroke-width: 0.8"/>
      </defs>
      <g>
       <use xlink:href="#m634b3d49c7" x="48.37" y="398.84" style="stroke: #000000; stroke-width: 0.8"/>
      </g>
     </g>
     <g id="text_1">
      <!-- 0 -->
      <g transform="translate(45.18875 413.438437) scale(0.1 -0.1)">
       <defs>
        <path id="DejaVuSans-30" d="M 2034 4250 
Q 1547 4250 1301 3770 
Q 1056 3291 1056 2328 
Q 1056 1369 1301 889 
Q 1547 409 2034 409 
Q 2525 409 2770 889 
Q 3016 1369 3016 2328 
Q 3016 3291 2770 3770 
Q 2525 4250 2034 4250 
z
M 2034 4750 
Q 2819 4750 3233 4129 
Q 3647 3509 3647 2328 
Q 3647 1150 3233 529 
Q 2819 -91 2034 -91 
Q 1250 -91 836 529 
Q 422 1150 422 2328 
Q 422 3509 836 4129 
Q 1250 4750 2034 4750 
z
" transform="scale(0.015625)"/>
       </defs>
       <use xlink:href="#DejaVuSans-30"/>
      </g>
     </g>
    </g>
    <g id="xtick_2">
     <g id="line2d_3">
      <path d="M 114.0685 398.84 
L 114.0685 18.08 
" clip-path="url(#p24851c9533)" style="fill: none; stroke-dasharray: 0.8,1.32; stroke-dashoffset: 0; stroke: #b0b0b0; stroke-opacity: 0.7; stroke-width: 0.8"/>
     </g>
     <g id="line2d_4">
      <g>
       <use xlink:href="#m634b3d49c7" x="114.0685" y="398.84" style="stroke: #000000; stroke-width: 0.8"/>
      </g>
     </g>
     <g id="text_2">
      <!-- 100 -->
      <g transform="translate(104.52475 413.438437) scale(0.1 -0.1)">
       <defs>
        <path id="DejaVuSans-31" d="M 794 531 
L 1825 531 
L 1825 4091 
L 703 3866 
L 703 4441 
L 1819 4666 
L 2450 4666 
L 2450 531 
L 3481 531 
L 3481 0 
L 794 0 
L 794 531 
z
" transform="scale(0.015625)"/>
       </defs>
       <use xlink:href="#DejaVuSans-31"/>
       <use xlink:href="#DejaVuSans-30" transform="translate(63.623047 0)"/>
       <use xlink:href="#DejaVuSans-30" transform="translate(127.246094 0)"/>
      </g>
     </g>
    </g>
    <g id="xtick_3">
     <g id="line2d_5">
      <path d="M 179.767 398.84 
L 179.767 18.08 
" clip-path="url(#p24851c9533)" style="fill: none; stroke-dasharray: 0.8,1.32; stroke-dashoffset: 0; stroke: #b0b0b0; stroke-opacity: 0.7; stroke-width: 0.8"/>
     </g>
     <g id="line2d_6">
      <g>
       <use xlink:href="#m634b3d49c7" x="179.767" y="398.84" style="stroke: #000000; stroke-width: 0.8"/>
      </g>
     </g>
     <g id="text_3">
      <!-- 200 -->
      <g transform="translate(170.22325 413.438437) scale(0.1 -0.1)">
       <defs>
        <path id="DejaVuSans-32" d="M 1228 531 
L 3431 531 
L 3431 0 
L 469 0 
L 469 531 
Q 828 903 1448 1529 
Q 2069 2156 2228 2338 
Q 2531 2678 2651 2914 
Q 2772 3150 2772 3378 
Q 2772 3750 2511 3984 
Q 2250 4219 1831 4219 
Q 1534 4219 1204 4116 
Q 875 4013 500 3803 
L 500 4441 
Q 881 4594 1212 4672 
Q 1544 4750 1819 4750 
Q 2544 4750 2975 4387 
Q 3406 4025 3406 3419 
Q 3406 3131 3298 2873 
Q 3191 2616 2906 2266 
Q 2828 2175 2409 1742 
Q 1991 1309 1228 531 
z
" transform="scale(0.015625)"/>
       </defs>
       <use xlink:href="#DejaVuSans-32"/>
       <use xlink:href="#DejaVuSans-30" transform="translate(63.623047 0)"/>
       <use xlink:href="#DejaVuSans-30" transform="translate(127.246094 0)"/>
      </g>
     </g>
    </g>
    <g id="xtick_4">
     <g id="line2d_7">
      <path d="M 245.4655 398.84 
L 245.4655 18.08 
" clip-path="url(#p24851c9533)" style="fill: none; stroke-dasharray: 0.8,1.32; stroke-dashoffset: 0; stroke: #b0b0b0; stroke-opacity: 0.7; stroke-width: 0.8"/>
     </g>
     <g id="line2d_8">
      <g>
       <use xlink:href="#m634b3d49c7" x="245.4655" y="398.84" style="stroke: #000000; stroke-width: 0.8"/>
      </g>
     </g>
     <g id="text_4">
      <!-- 300 -->
      <g transform="translate(235.92175 413.438437) scale(0.1 -0.1)">
       <defs>
        <path id="DejaVuSans-33" d="M 2597 2516 
Q 3050 2419 3304 2112 
Q 3559 1806 3559 1356 
Q 3559 666 3084 287 
Q 2609 -91 1734 -91 
Q 1441 -91 1130 -33 
Q 819 25 488 141 
L 488 750 
Q 750 597 1062 519 
Q 1375 441 1716 441 
Q 2309 441 2620 675 
Q 2931 909 2931 1356 
Q 2931 1769 2642 2001 
Q 2353 2234 1838 2234 
L 1294 2234 
L 1294 2753 
L 1863 2753 
Q 2328 2753 2575 2939 
Q 2822 3125 2822 3475 
Q 2822 3834 2567 4026 
Q 2313 4219 1838 4219 
Q 1578 4219 1281 4162 
Q 984 4106 628 3988 
L 628 4550 
Q 988 4650 1302 4700 
Q 1616 4750 1894 4750 
Q 2613 4750 3031 4423 
Q 3450 4097 3450 3541 
Q 3450 3153 3228 2886 
Q 3006 2619 2597 2516 
z
" transform="scale(0.015625)"/>
       </defs>
       <use xlink:href="#DejaVuSans-33"/>
       <use xlink:href="#DejaVuSans-30" transform="translate(63.623047 0)"/>
       <use xlink:href="#DejaVuSans-30" transform="translate(127.246094 0)"/>
      </g>
     </g>
    </g>
    <g id="xtick_5">
     <g id="line2d_9">
      <path d="M 311.164 398.84 
L 311.164 18.08 
" clip-path="url(#p24851c9533)" style="fill: none; stroke-dasharray: 0.8,1.32; stroke-dashoffset: 0; stroke: #b0b0b0; stroke-opacity: 0.7; stroke-width: 0.8"/>
     </g>
     <g id="line2d_10">
      <g>
       <use xlink:href="#m634b3d49c7" x="311.164" y="398.84" style="stroke: #000000; stroke-width: 0.8"/>
      </g>
     </g>
     <g id="text_5">
      <!-- 400 -->
      <g transform="translate(301.62025 413.438437) scale(0.1 -0.1)">
       <defs>
        <path id="DejaVuSans-34" d="M 2419 4116 
L 825 1625 
L 2419 1625 
L 2419 4116 
z
M 2253 4666 
L 3047 4666 
L 3047 1625 
L 3713 1625 
L 3713 1100 
L 3047 1100 
L 3047 0 
L 2419 0 
L 2419 1100 
L 313 1100 
L 313 1709 
L 2253 4666 
z
" transform="scale(0.015625)"/>
       </defs>
       <use xlink:href="#DejaVuSans-34"/>
       <use xlink:href="#DejaVuSans-30" transform="translate(63.623047 0)"/>
       <use xlink:href="#DejaVuSans-30" transform="translate(127.246094 0)"/>
      </g>
     </g>
    </g>
    <g id="xtick_6">
     <g id="line2d_11">
      <path d="M 376.8625 398.84 
L 376.8625 18.08 
" clip-path="url(#p24851c9533)" style="fill: none; stroke-dasharray: 0.8,1.32; stroke-dashoffset: 0; stroke: #b0b0b0; stroke-opacity: 0.7; stroke-width: 0.8"/>
     </g>
     <g id="line2d_12">
      <g>
       <use xlink:href="#m634b3d49c7" x="376.8625" y="398.84" style="stroke: #000000; stroke-width: 0.8"/>
      </g>
     </g>
     <g id="text_6">
      <!-- 500 -->
      <g transform="translate(367.31875 413.438437) scale(0.1 -0.1)">
       <defs>
        <path id="DejaVuSans-35" d="M 691 4666 
L 3169 4666 
L 3169 4134 
L 1269 4134 
L 1269 2991 
Q 1406 3038 1543 3061 
Q 1681 3084 1819 3084 
Q 2600 3084 3056 2656 
Q 3513 2228 3513 1497 
Q 3513 744 3044 326 
Q 2575 -91 1722 -91 
Q 1428 -91 1123 -41 
Q 819 9 494 109 
L 494 744 
Q 775 591 1075 516 
Q 1375 441 1709 441 
Q 2250 441 2565 725 
Q 2881 1009 2881 1497 
Q 2881 1984 2565 2268 
Q 2250 2553 1709 2553 
Q 1456 2553 1204 2497 
Q 953 2441 691 2322 
L 691 4666 
z
" transform="scale(0.015625)"/>
       </defs>
       <use xlink:href="#DejaVuSans-35"/>
       <use xlink:href="#DejaVuSans-30" transform="translate(63.623047 0)"/>
       <use xlink:href="#DejaVuSans-30" transform="translate(127.246094 0)"/>
      </g>
     </g>
    </g>
    <g id="xtick_7">
     <g id="line2d_13">
      <path d="M 442.561 398.84 
L 442.561 18.08 
" clip-path="url(#p24851c9533)" style="fill: none; stroke-dasharray: 0.8,1.32; stroke-dashoffset: 0; stroke: #b0b0b0; stroke-opacity: 0.7; stroke-width: 0.8"/>
     </g>
     <g id="line2d_14">
      <g>
       <use xlink:href="#m634b3d49c7" x="442.561" y="398.84" style="stroke: #000000; stroke-width: 0.8"/>
      </g>
     </g>
     <g id="text_7">
      <!-- 600 -->
      <g transform="translate(433.01725 413.438437) scale(0.1 -0.1)">
       <defs>
        <path id="DejaVuSans-36" d="M 2113 2584 
Q 1688 2584 1439 2293 
Q 1191 2003 1191 1497 
Q 1191 994 1439 701 
Q 1688 409 2113 409 
Q 2538 409 2786 701 
Q 3034 994 3034 1497 
Q 3034 2003 2786 2293 
Q 2538 2584 2113 2584 
z
M 3366 4563 
L 3366 3988 
Q 3128 4100 2886 4159 
Q 2644 4219 2406 4219 
Q 1781 4219 1451 3797 
Q 1122 3375 1075 2522 
Q 1259 2794 1537 2939 
Q 1816 3084 2150 3084 
Q 2853 3084 3261 2657 
Q 3669 2231 3669 1497 
Q 3669 778 3244 343 
Q 2819 -91 2113 -91 
Q 1303 -91 875 529 
Q 447 1150 447 2328 
Q 447 3434 972 4092 
Q 1497 4750 2381 4750 
Q 2619 4750 2861 4703 
Q 3103 4656 3366 4563 
z
" transform="scale(0.015625)"/>
       </defs>
       <use xlink:href="#DejaVuSans-36"/>
       <use xlink:href="#DejaVuSans-30" transform="translate(63.623047 0)"/>
       <use xlink:href="#DejaVuSans-30" transform="translate(127.246094 0)"/>
      </g>
     </g>
    </g>
    <g id="xtick_8">
     <g id="line2d_15">
      <path d="M 508.2595 398.84 
L 508.2595 18.08 
" clip-path="url(#p24851c9533)" style="fill: none; stroke-dasharray: 0.8,1.32; stroke-dashoffset: 0; stroke: #b0b0b0; stroke-opacity: 0.7; stroke-width: 0.8"/>
     </g>
     <g id="line2d_16">
      <g>
       <use xlink:href="#m634b3d49c7" x="508.2595" y="398.84" style="stroke: #000000; stroke-width: 0.8"/>
      </g>
     </g>
     <g id="text_8">
      <!-- 700 -->
      <g transform="translate(498.71575 413.438437) scale(0.1 -0.1)">
       <defs>
        <path id="DejaVuSans-37" d="M 525 4666 
L 3525 4666 
L 3525 4397 
L 1831 0 
L 1172 0 
L 2766 4134 
L 525 4134 
L 525 4666 
z
" transform="scale(0.015625)"/>
       </defs>
       <use xlink:href="#DejaVuSans-37"/>
       <use xlink:href="#DejaVuSans-30" transform="translate(63.623047 0)"/>
       <use xlink:href="#DejaVuSans-30" transform="translate(127.246094 0)"/>
      </g>
     </g>
    </g>
    <g id="xtick_9">
     <g id="line2d_17">
      <path d="M 573.958 398.84 
L 573.958 18.08 
" clip-path="url(#p24851c9533)" style="fill: none; stroke-dasharray: 0.8,1.32; stroke-dashoffset: 0; stroke: #b0b0b0; stroke-opacity: 0.7; stroke-width: 0.8"/>
     </g>
     <g id="line2d_18">
      <g>
       <use xlink:href="#m634b3d49c7" x="573.958" y="398.84" style="stroke: #000000; stroke-width: 0.8"/>
      </g>
     </g>
     <g id="text_9">
      <!-- 800 -->
      <g transform="translate(564.41425 413.438437) scale(0.1 -0.1)">
       <defs>
        <path id="DejaVuSans-38" d="M 2034 2216 
Q 1584 2216 1326 1975 
Q 1069 1734 1069 1313 
Q 1069 891 1326 650 
Q 1584 409 2034 409 
Q 2484 409 2743 651 
Q 3003 894 3003 1313 
Q 3003 1734 2745 1975 
Q 2488 2216 2034 2216 
z
M 1403 2484 
Q 997 2584 770 2862 
Q 544 3141 544 3541 
Q 544 4100 942 4425 
Q 1341 4750 2034 4750 
Q 2731 4750 3128 4425 
Q 3525 4100 3525 3541 
Q 3525 3141 3298 2862 
Q 3072 2584 2669 2484 
Q 3125 2378 3379 2068 
Q 3634 1759 3634 1313 
Q 3634 634 3220 271 
Q 2806 -91 2034 -91 
Q 1263 -91 848 271 
Q 434 634 434 1313 
Q 434 1759 690 2068 
Q 947 2378 1403 2484 
z
M 1172 3481 
Q 1172 3119 1398 2916 
Q 1625 2713 2034 2713 
Q 2441 2713 2670 2916 
Q 2900 3119 2900 3481 
Q 2900 3844 2670 4047 
Q 2441 4250 2034 4250 
Q 1625 4250 1398 4047 
Q 1172 3844 1172 3481 
z
" transform="scale(0.015625)"/>
       </defs>
       <use xlink:href="#DejaVuSans-38"/>
       <use xlink:href="#DejaVuSans-30" transform="translate(63.623047 0)"/>
       <use xlink:href="#DejaVuSans-30" transform="translate(127.246094 0)"/>
      </g>
     </g>
    </g>
    <g id="xtick_10">
     <g id="line2d_19">
      <path d="M 639.6565 398.84 
L 639.6565 18.08 
" clip-path="url(#p24851c9533)" style="fill: none; stroke-dasharray: 0.8,1.32; stroke-dashoffset: 0; stroke: #b0b0b0; stroke-opacity: 0.7; stroke-width: 0.8"/>
     </g>
     <g id="line2d_20">
      <g>
       <use xlink:href="#m634b3d49c7" x="639.6565" y="398.84" style="stroke: #000000; stroke-width: 0.8"/>
      </g>
     </g>
     <g id="text_10">
      <!-- 900 -->
      <g transform="translate(630.11275 413.438437) scale(0.1 -0.1)">
       <defs>
        <path id="DejaVuSans-39" d="M 703 97 
L 703 672 
Q 941 559 1184 500 
Q 1428 441 1663 441 
Q 2288 441 2617 861 
Q 2947 1281 2994 2138 
Q 2813 1869 2534 1725 
Q 2256 1581 1919 1581 
Q 1219 1581 811 2004 
Q 403 2428 403 3163 
Q 403 3881 828 4315 
Q 1253 4750 1959 4750 
Q 2769 4750 3195 4129 
Q 3622 3509 3622 2328 
Q 3622 1225 3098 567 
Q 2575 -91 1691 -91 
Q 1453 -91 1209 -44 
Q 966 3 703 97 
z
M 1959 2075 
Q 2384 2075 2632 2365 
Q 2881 2656 2881 3163 
Q 2881 3666 2632 3958 
Q 2384 4250 1959 4250 
Q 1534 4250 1286 3958 
Q 1038 3666 1038 3163 
Q 1038 2656 1286 2365 
Q 1534 2075 1959 2075 
z
" transform="scale(0.015625)"/>
       </defs>
       <use xlink:href="#DejaVuSans-39"/>
       <use xlink:href="#DejaVuSans-30" transform="translate(63.623047 0)"/>
       <use xlink:href="#DejaVuSans-30" transform="translate(127.246094 0)"/>
      </g>
     </g>
    </g>
    <g id="xtick_11">
     <g id="line2d_21">
      <path d="M 705.355 398.84 
L 705.355 18.08 
" clip-path="url(#p24851c9533)" style="fill: none; stroke-dasharray: 0.8,1.32; stroke-dashoffset: 0; stroke: #b0b0b0; stroke-opacity: 0.7; stroke-width: 0.8"/>
     </g>
     <g id="line2d_22">
      <g>
       <use xlink:href="#m634b3d49c7" x="705.355" y="398.84" style="stroke: #000000; stroke-width: 0.8"/>
      </g>
     </g>
     <g id="text_11">
      <!-- 1000 -->
      <g transform="translate(692.63 413.438437) scale(0.1 -0.1)">
       <use xlink:href="#DejaVuSans-31"/>
       <use xlink:href="#DejaVuSans-30" transform="translate(63.623047 0)"/>
       <use xlink:href="#DejaVuSans-30" transform="translate(127.246094 0)"/>
       <use xlink:href="#DejaVuSans-30" transform="translate(190.869141 0)"/>
      </g>
     </g>
    </g>
    <g id="text_12">
     <!-- Iteration / Generation -->
     <g transform="translate(322.898438 427.116562) scale(0.1 -0.1)">
      <defs>
       <path id="DejaVuSans-49" d="M 628 4666 
L 1259 4666 
L 1259 0 
L 628 0 
L 628 4666 
z
" transform="scale(0.015625)"/>
       <path id="DejaVuSans-74" d="M 1172 4494 
L 1172 3500 
L 2356 3500 
L 2356 3053 
L 1172 3053 
L 1172 1153 
Q 1172 725 1289 603 
Q 1406 481 1766 481 
L 2356 481 
L 2356 0 
L 1766 0 
Q 1100 0 847 248 
Q 594 497 594 1153 
L 594 3053 
L 172 3053 
L 172 3500 
L 594 3500 
L 594 4494 
L 1172 4494 
z
" transform="scale(0.015625)"/>
       <path id="DejaVuSans-65" d="M 3597 1894 
L 3597 1613 
L 953 1613 
Q 991 1019 1311 708 
Q 1631 397 2203 397 
Q 2534 397 2845 478 
Q 3156 559 3463 722 
L 3463 178 
Q 3153 47 2828 -22 
Q 2503 -91 2169 -91 
Q 1331 -91 842 396 
Q 353 884 353 1716 
Q 353 2575 817 3079 
Q 1281 3584 2069 3584 
Q 2775 3584 3186 3129 
Q 3597 2675 3597 1894 
z
M 3022 2063 
Q 3016 2534 2758 2815 
Q 2500 3097 2075 3097 
Q 1594 3097 1305 2825 
Q 1016 2553 972 2059 
L 3022 2063 
z
" transform="scale(0.015625)"/>
       <path id="DejaVuSans-72" d="M 2631 2963 
Q 2534 3019 2420 3045 
Q 2306 3072 2169 3072 
Q 1681 3072 1420 2755 
Q 1159 2438 1159 1844 
L 1159 0 
L 581 0 
L 581 3500 
L 1159 3500 
L 1159 2956 
Q 1341 3275 1631 3429 
Q 1922 3584 2338 3584 
Q 2397 3584 2469 3576 
Q 2541 3569 2628 3553 
L 2631 2963 
z
" transform="scale(0.015625)"/>
       <path id="DejaVuSans-61" d="M 2194 1759 
Q 1497 1759 1228 1600 
Q 959 1441 959 1056 
Q 959 750 1161 570 
Q 1363 391 1709 391 
Q 2188 391 2477 730 
Q 2766 1069 2766 1631 
L 2766 1759 
L 2194 1759 
z
M 3341 1997 
L 3341 0 
L 2766 0 
L 2766 531 
Q 2569 213 2275 61 
Q 1981 -91 1556 -91 
Q 1019 -91 701 211 
Q 384 513 384 1019 
Q 384 1609 779 1909 
Q 1175 2209 1959 2209 
L 2766 2209 
L 2766 2266 
Q 2766 2663 2505 2880 
Q 2244 3097 1772 3097 
Q 1472 3097 1187 3025 
Q 903 2953 641 2809 
L 641 3341 
Q 956 3463 1253 3523 
Q 1550 3584 1831 3584 
Q 2591 3584 2966 3190 
Q 3341 2797 3341 1997 
z
" transform="scale(0.015625)"/>
       <path id="DejaVuSans-69" d="M 603 3500 
L 1178 3500 
L 1178 0 
L 603 0 
L 603 3500 
z
M 603 4863 
L 1178 4863 
L 1178 4134 
L 603 4134 
L 603 4863 
z
" transform="scale(0.015625)"/>
       <path id="DejaVuSans-6f" d="M 1959 3097 
Q 1497 3097 1228 2736 
Q 959 2375 959 1747 
Q 959 1119 1226 758 
Q 1494 397 1959 397 
Q 2419 397 2687 759 
Q 2956 1122 2956 1747 
Q 2956 2369 2687 2733 
Q 2419 3097 1959 3097 
z
M 1959 3584 
Q 2709 3584 3137 3096 
Q 3566 2609 3566 1747 
Q 3566 888 3137 398 
Q 2709 -91 1959 -91 
Q 1206 -91 779 398 
Q 353 888 353 1747 
Q 353 2609 779 3096 
Q 1206 3584 1959 3584 
z
" transform="scale(0.015625)"/>
       <path id="DejaVuSans-6e" d="M 3513 2113 
L 3513 0 
L 2938 0 
L 2938 2094 
Q 2938 2591 2744 2837 
Q 2550 3084 2163 3084 
Q 1697 3084 1428 2787 
Q 1159 2491 1159 1978 
L 1159 0 
L 581 0 
L 581 3500 
L 1159 3500 
L 1159 2956 
Q 1366 3272 1645 3428 
Q 1925 3584 2291 3584 
Q 2894 3584 3203 3211 
Q 3513 2838 3513 2113 
z
" transform="scale(0.015625)"/>
       <path id="DejaVuSans-20" transform="scale(0.015625)"/>
       <path id="DejaVuSans-2f" d="M 1625 4666 
L 2156 4666 
L 531 -594 
L 0 -594 
L 1625 4666 
z
" transform="scale(0.015625)"/>
       <path id="DejaVuSans-47" d="M 3809 666 
L 3809 1919 
L 2778 1919 
L 2778 2438 
L 4434 2438 
L 4434 434 
Q 4069 175 3628 42 
Q 3188 -91 2688 -91 
Q 1594 -91 976 548 
Q 359 1188 359 2328 
Q 359 3472 976 4111 
Q 1594 4750 2688 4750 
Q 3144 4750 3555 4637 
Q 3966 4525 4313 4306 
L 4313 3634 
Q 3963 3931 3569 4081 
Q 3175 4231 2741 4231 
Q 1884 4231 1454 3753 
Q 1025 3275 1025 2328 
Q 1025 1384 1454 906 
Q 1884 428 2741 428 
Q 3075 428 3337 486 
Q 3600 544 3809 666 
z
" transform="scale(0.015625)"/>
      </defs>
      <use xlink:href="#DejaVuSans-49"/>
      <use xlink:href="#DejaVuSans-74" transform="translate(29.492188 0)"/>
      <use xlink:href="#DejaVuSans-65" transform="translate(68.701172 0)"/>
      <use xlink:href="#DejaVuSans-72" transform="translate(130.224609 0)"/>
      <use xlink:href="#DejaVuSans-61" transform="translate(171.337891 0)"/>
      <use xlink:href="#DejaVuSans-74" transform="translate(232.617188 0)"/>
      <use xlink:href="#DejaVuSans-69" transform="translate(271.826172 0)"/>
      <use xlink:href="#DejaVuSans-6f" transform="translate(299.609375 0)"/>
      <use xlink:href="#DejaVuSans-6e" transform="translate(360.791016 0)"/>
      <use xlink:href="#DejaVuSans-20" transform="translate(424.169922 0)"/>
      <use xlink:href="#DejaVuSans-2f" transform="translate(455.957031 0)"/>
      <use xlink:href="#DejaVuSans-20" transform="translate(489.648438 0)"/>
      <use xlink:href="#DejaVuSans-47" transform="translate(521.435547 0)"/>
      <use xlink:href="#DejaVuSans-65" transform="translate(598.925781 0)"/>
      <use xlink:href="#DejaVuSans-6e" transform="translate(660.449219 0)"/>
      <use xlink:href="#DejaVuSans-65" transform="translate(723.828125 0)"/>
      <use xlink:href="#DejaVuSans-72" transform="translate(785.351562 0)"/>
      <use xlink:href="#DejaVuSans-61" transform="translate(826.464844 0)"/>
      <use xlink:href="#DejaVuSans-74" transform="translate(887.744141 0)"/>
      <use xlink:href="#DejaVuSans-69" transform="translate(926.953125 0)"/>
      <use xlink:href="#DejaVuSans-6f" transform="translate(954.736328 0)"/>
      <use xlink:href="#DejaVuSans-6e" transform="translate(1015.917969 0)"/>
     </g>
    </g>
   </g>
   <g id="matplotlib.axis_2">
    <g id="ytick_1">
     <g id="line2d_23">
      <path d="M 48.37 387.597832 
L 705.355 387.597832 
" clip-path="url(#p24851c9533)" style="fill: none; stroke-dasharray: 0.8,1.32; stroke-dashoffset: 0; stroke: #b0b0b0; stroke-opacity: 0.7; stroke-width: 0.8"/>
     </g>
     <g id="line2d_24">
      <defs>
       <path id="m308a994bd1" d="M 0 0 
L -3.5 0 
" style="stroke: #000000; stroke-width: 0.8"/>
      </defs>
      <g>
       <use xlink:href="#m308a994bd1" x="48.37" y="387.597832" style="stroke: #000000; stroke-width: 0.8"/>
      </g>
     </g>
     <g id="text_13">
      <!-- 1000 -->
      <g transform="translate(15.92 391.397051) scale(0.1 -0.1)">
       <use xlink:href="#DejaVuSans-31"/>
       <use xlink:href="#DejaVuSans-30" transform="translate(63.623047 0)"/>
       <use xlink:href="#DejaVuSans-30" transform="translate(127.246094 0)"/>
       <use xlink:href="#DejaVuSans-30" transform="translate(190.869141 0)"/>
      </g>
     </g>
    </g>
    <g id="ytick_2">
     <g id="line2d_25">
      <path d="M 48.37 320.244478 
L 705.355 320.244478 
" clip-path="url(#p24851c9533)" style="fill: none; stroke-dasharray: 0.8,1.32; stroke-dashoffset: 0; stroke: #b0b0b0; stroke-opacity: 0.7; stroke-width: 0.8"/>
     </g>
     <g id="line2d_26">
      <g>
       <use xlink:href="#m308a994bd1" x="48.37" y="320.244478" style="stroke: #000000; stroke-width: 0.8"/>
      </g>
     </g>
     <g id="text_14">
      <!-- 1500 -->
      <g transform="translate(15.92 324.043696) scale(0.1 -0.1)">
       <use xlink:href="#DejaVuSans-31"/>
       <use xlink:href="#DejaVuSans-35" transform="translate(63.623047 0)"/>
       <use xlink:href="#DejaVuSans-30" transform="translate(127.246094 0)"/>
       <use xlink:href="#DejaVuSans-30" transform="translate(190.869141 0)"/>
      </g>
     </g>
    </g>
    <g id="ytick_3">
     <g id="line2d_27">
      <path d="M 48.37 252.891123 
L 705.355 252.891123 
" clip-path="url(#p24851c9533)" style="fill: none; stroke-dasharray: 0.8,1.32; stroke-dashoffset: 0; stroke: #b0b0b0; stroke-opacity: 0.7; stroke-width: 0.8"/>
     </g>
     <g id="line2d_28">
      <g>
       <use xlink:href="#m308a994bd1" x="48.37" y="252.891123" style="stroke: #000000; stroke-width: 0.8"/>
      </g>
     </g>
     <g id="text_15">
      <!-- 2000 -->
      <g transform="translate(15.92 256.690342) scale(0.1 -0.1)">
       <use xlink:href="#DejaVuSans-32"/>
       <use xlink:href="#DejaVuSans-30" transform="translate(63.623047 0)"/>
       <use xlink:href="#DejaVuSans-30" transform="translate(127.246094 0)"/>
       <use xlink:href="#DejaVuSans-30" transform="translate(190.869141 0)"/>
      </g>
     </g>
    </g>
    <g id="ytick_4">
     <g id="line2d_29">
      <path d="M 48.37 185.537769 
L 705.355 185.537769 
" clip-path="url(#p24851c9533)" style="fill: none; stroke-dasharray: 0.8,1.32; stroke-dashoffset: 0; stroke: #b0b0b0; stroke-opacity: 0.7; stroke-width: 0.8"/>
     </g>
     <g id="line2d_30">
      <g>
       <use xlink:href="#m308a994bd1" x="48.37" y="185.537769" style="stroke: #000000; stroke-width: 0.8"/>
      </g>
     </g>
     <g id="text_16">
      <!-- 2500 -->
      <g transform="translate(15.92 189.336988) scale(0.1 -0.1)">
       <use xlink:href="#DejaVuSans-32"/>
       <use xlink:href="#DejaVuSans-35" transform="translate(63.623047 0)"/>
       <use xlink:href="#DejaVuSans-30" transform="translate(127.246094 0)"/>
       <use xlink:href="#DejaVuSans-30" transform="translate(190.869141 0)"/>
      </g>
     </g>
    </g>
    <g id="ytick_5">
     <g id="line2d_31">
      <path d="M 48.37 118.184415 
L 705.355 118.184415 
" clip-path="url(#p24851c9533)" style="fill: none; stroke-dasharray: 0.8,1.32; stroke-dashoffset: 0; stroke: #b0b0b0; stroke-opacity: 0.7; stroke-width: 0.8"/>
     </g>
     <g id="line2d_32">
      <g>
       <use xlink:href="#m308a994bd1" x="48.37" y="118.184415" style="stroke: #000000; stroke-width: 0.8"/>
      </g>
     </g>
     <g id="text_17">
      <!-- 3000 -->
      <g transform="translate(15.92 121.983633) scale(0.1 -0.1)">
       <use xlink:href="#DejaVuSans-33"/>
       <use xlink:href="#DejaVuSans-30" transform="translate(63.623047 0)"/>
       <use xlink:href="#DejaVuSans-30" transform="translate(127.246094 0)"/>
       <use xlink:href="#DejaVuSans-30" transform="translate(190.869141 0)"/>
      </g>
     </g>
    </g>
    <g id="ytick_6">
     <g id="line2d_33">
      <path d="M 48.37 50.83106 
L 705.355 50.83106 
" clip-path="url(#p24851c9533)" style="fill: none; stroke-dasharray: 0.8,1.32; stroke-dashoffset: 0; stroke: #b0b0b0; stroke-opacity: 0.7; stroke-width: 0.8"/>
     </g>
     <g id="line2d_34">
      <g>
       <use xlink:href="#m308a994bd1" x="48.37" y="50.83106" style="stroke: #000000; stroke-width: 0.8"/>
      </g>
     </g>
     <g id="text_18">
      <!-- 3500 -->
      <g transform="translate(15.92 54.630279) scale(0.1 -0.1)">
       <use xlink:href="#DejaVuSans-33"/>
       <use xlink:href="#DejaVuSans-35" transform="translate(63.623047 0)"/>
       <use xlink:href="#DejaVuSans-30" transform="translate(127.246094 0)"/>
       <use xlink:href="#DejaVuSans-30" transform="translate(190.869141 0)"/>
      </g>
     </g>
    </g>
    <g id="text_19">
     <!-- Objective Value -->
     <g transform="translate(9.840312 247.490469) rotate(-90) scale(0.1 -0.1)">
      <defs>
       <path id="DejaVuSans-4f" d="M 2522 4238 
Q 1834 4238 1429 3725 
Q 1025 3213 1025 2328 
Q 1025 1447 1429 934 
Q 1834 422 2522 422 
Q 3209 422 3611 934 
Q 4013 1447 4013 2328 
Q 4013 3213 3611 3725 
Q 3209 4238 2522 4238 
z
M 2522 4750 
Q 3503 4750 4090 4092 
Q 4678 3434 4678 2328 
Q 4678 1225 4090 567 
Q 3503 -91 2522 -91 
Q 1538 -91 948 565 
Q 359 1222 359 2328 
Q 359 3434 948 4092 
Q 1538 4750 2522 4750 
z
" transform="scale(0.015625)"/>
       <path id="DejaVuSans-62" d="M 3116 1747 
Q 3116 2381 2855 2742 
Q 2594 3103 2138 3103 
Q 1681 3103 1420 2742 
Q 1159 2381 1159 1747 
Q 1159 1113 1420 752 
Q 1681 391 2138 391 
Q 2594 391 2855 752 
Q 3116 1113 3116 1747 
z
M 1159 2969 
Q 1341 3281 1617 3432 
Q 1894 3584 2278 3584 
Q 2916 3584 3314 3078 
Q 3713 2572 3713 1747 
Q 3713 922 3314 415 
Q 2916 -91 2278 -91 
Q 1894 -91 1617 61 
Q 1341 213 1159 525 
L 1159 0 
L 581 0 
L 581 4863 
L 1159 4863 
L 1159 2969 
z
" transform="scale(0.015625)"/>
       <path id="DejaVuSans-6a" d="M 603 3500 
L 1178 3500 
L 1178 -63 
Q 1178 -731 923 -1031 
Q 669 -1331 103 -1331 
L -116 -1331 
L -116 -844 
L 38 -844 
Q 366 -844 484 -692 
Q 603 -541 603 -63 
L 603 3500 
z
M 603 4863 
L 1178 4863 
L 1178 4134 
L 603 4134 
L 603 4863 
z
" transform="scale(0.015625)"/>
       <path id="DejaVuSans-63" d="M 3122 3366 
L 3122 2828 
Q 2878 2963 2633 3030 
Q 2388 3097 2138 3097 
Q 1578 3097 1268 2742 
Q 959 2388 959 1747 
Q 959 1106 1268 751 
Q 1578 397 2138 397 
Q 2388 397 2633 464 
Q 2878 531 3122 666 
L 3122 134 
Q 2881 22 2623 -34 
Q 2366 -91 2075 -91 
Q 1284 -91 818 406 
Q 353 903 353 1747 
Q 353 2603 823 3093 
Q 1294 3584 2113 3584 
Q 2378 3584 2631 3529 
Q 2884 3475 3122 3366 
z
" transform="scale(0.015625)"/>
       <path id="DejaVuSans-76" d="M 191 3500 
L 800 3500 
L 1894 563 
L 2988 3500 
L 3597 3500 
L 2284 0 
L 1503 0 
L 191 3500 
z
" transform="scale(0.015625)"/>
       <path id="DejaVuSans-56" d="M 1831 0 
L 50 4666 
L 709 4666 
L 2188 738 
L 3669 4666 
L 4325 4666 
L 2547 0 
L 1831 0 
z
" transform="scale(0.015625)"/>
       <path id="DejaVuSans-6c" d="M 603 4863 
L 1178 4863 
L 1178 0 
L 603 0 
L 603 4863 
z
" transform="scale(0.015625)"/>
       <path id="DejaVuSans-75" d="M 544 1381 
L 544 3500 
L 1119 3500 
L 1119 1403 
Q 1119 906 1312 657 
Q 1506 409 1894 409 
Q 2359 409 2629 706 
Q 2900 1003 2900 1516 
L 2900 3500 
L 3475 3500 
L 3475 0 
L 2900 0 
L 2900 538 
Q 2691 219 2414 64 
Q 2138 -91 1772 -91 
Q 1169 -91 856 284 
Q 544 659 544 1381 
z
M 1991 3584 
L 1991 3584 
z
" transform="scale(0.015625)"/>
      </defs>
      <use xlink:href="#DejaVuSans-4f"/>
      <use xlink:href="#DejaVuSans-62" transform="translate(78.710938 0)"/>
      <use xlink:href="#DejaVuSans-6a" transform="translate(142.1875 0)"/>
      <use xlink:href="#DejaVuSans-65" transform="translate(169.970703 0)"/>
      <use xlink:href="#DejaVuSans-63" transform="translate(231.494141 0)"/>
      <use xlink:href="#DejaVuSans-74" transform="translate(286.474609 0)"/>
      <use xlink:href="#DejaVuSans-69" transform="translate(325.683594 0)"/>
      <use xlink:href="#DejaVuSans-76" transform="translate(353.466797 0)"/>
      <use xlink:href="#DejaVuSans-65" transform="translate(412.646484 0)"/>
      <use xlink:href="#DejaVuSans-20" transform="translate(474.169922 0)"/>
      <use xlink:href="#DejaVuSans-56" transform="translate(505.957031 0)"/>
      <use xlink:href="#DejaVuSans-61" transform="translate(566.615234 0)"/>
      <use xlink:href="#DejaVuSans-6c" transform="translate(627.894531 0)"/>
      <use xlink:href="#DejaVuSans-75" transform="translate(655.677734 0)"/>
      <use xlink:href="#DejaVuSans-65" transform="translate(719.056641 0)"/>
     </g>
    </g>
   </g>
   <g id="line2d_35">
    <path d="M 48.37 250.39551 
L 54.93985 250.39551 
L 54.93985 272.424958 
L 62.82367 272.424958 
L 62.82367 273.473447 
L 69.39352 273.473447 
L 69.39352 280.391059 
L 73.33543 280.391059 
L 73.33543 306.231578 
L 134.435035 306.231578 
L 134.435035 311.168046 
L 208.017355 311.168046 
L 208.017355 313.351128 
L 232.982785 313.351128 
L 232.982785 314.470335 
L 252.692335 314.470335 
L 252.692335 322.729074 
L 405.76984 322.729074 
L 405.76984 326.974702 
L 411.02572 326.974702 
L 411.02572 337.271458 
L 451.75879 337.271458 
L 451.75879 337.410181 
L 506.288545 337.410181 
L 506.288545 347.762135 
L 577.89991 347.762135 
L 577.89991 364.899018 
L 679.0756 364.899018 
L 679.0756 366.173991 
L 704.698015 366.173991 
L 704.698015 367.11 
L 704.698015 367.11 
" clip-path="url(#p24851c9533)" style="fill: none; stroke: #1f77b4; stroke-width: 1.5; stroke-linecap: square"/>
   </g>
   <g id="line2d_36">
    <path d="M 48.37 134.943313 
L 49.026985 106.838286 
L 49.68397 105.827762 
L 50.340955 57.686174 
L 50.99794 81.716165 
L 51.654925 67.160439 
L 52.31191 109.986722 
L 52.968895 86.796291 
L 53.62588 112.04814 
L 54.282865 117.666845 
L 54.93985 112.495452 
L 55.596835 102.59598 
L 56.25382 119.130168 
L 56.910805 115.340738 
L 57.56779 107.067023 
L 58.224775 70.349225 
L 58.88176 84.416699 
L 59.538745 125.76267 
L 60.19573 129.027734 
L 60.852715 88.714011 
L 61.5097 128.56448 
L 62.166685 114.440343 
L 62.82367 122.075005 
L 63.480655 114.117238 
L 64.13764 115.734758 
L 64.794625 130.93298 
L 65.45161 126.097422 
L 66.108595 102.342782 
L 66.76558 91.749342 
L 67.422565 77.883517 
L 68.07955 80.42766 
L 68.736535 100.414952 
L 69.39352 104.998003 
L 70.050505 132.903105 
L 70.70749 138.019867 
L 71.364475 134.612161 
L 72.02146 121.621092 
L 72.678445 89.425523 
L 73.33543 122.731263 
L 73.992415 94.485735 
L 74.6494 49.81 
L 75.306385 110.438652 
L 75.96337 97.239541 
L 76.620355 109.301525 
L 77.27734 97.384333 
L 77.934325 77.856726 
L 78.59131 104.219672 
L 79.248295 95.472486 
L 79.90528 138.561011 
L 80.562265 146.727605 
L 81.21925 137.912177 
L 81.876235 136.894612 
L 82.53322 130.748059 
L 83.190205 157.850955 
L 83.84719 163.793256 
L 84.504175 134.834961 
L 85.16116 129.725469 
L 85.818145 153.570743 
L 86.47513 168.204739 
L 87.132115 135.203515 
L 87.7891 137.486298 
L 88.446085 110.358033 
L 89.10307 103.854675 
L 89.760055 128.191615 
L 90.41704 126.607431 
L 91.074025 123.017358 
L 91.73101 129.620746 
L 92.387995 146.469429 
L 93.04498 136.519797 
L 93.701965 152.085169 
L 94.35895 159.762972 
L 95.015935 139.364457 
L 95.67292 166.069285 
L 96.329905 154.24789 
L 96.98689 152.072886 
L 97.643875 146.445134 
L 98.30086 148.246928 
L 98.957845 147.133633 
L 99.61483 118.701379 
L 100.271815 127.850525 
L 100.9288 111.262035 
L 101.585785 114.483417 
L 102.24277 91.308927 
L 102.899755 154.524702 
L 103.55674 131.849935 
L 104.213725 132.55608 
L 104.87071 146.786161 
L 105.527695 136.566333 
L 106.18468 114.800604 
L 106.841665 113.214826 
L 107.49865 126.814309 
L 108.155635 152.852407 
L 108.81262 110.198632 
L 109.469605 104.374059 
L 110.12659 105.389229 
L 110.783575 126.358714 
L 111.44056 141.324924 
L 112.097545 143.905648 
L 112.75453 156.533421 
L 113.411515 135.423516 
L 114.0685 134.04994 
L 114.725485 131.495568 
L 115.38247 147.266415 
L 116.039455 144.12787 
L 116.69644 158.660793 
L 117.353425 177.133629 
L 118.01041 160.876847 
L 118.667395 148.152847 
L 119.32438 101.771756 
L 119.981365 145.733308 
L 120.63835 144.23642 
L 121.295335 148.573094 
L 121.95232 130.501789 
L 122.609305 134.799808 
L 123.26629 128.321138 
L 123.923275 149.602456 
L 124.58026 166.023303 
L 125.237245 133.85544 
L 125.89423 143.896129 
L 126.551215 121.145556 
L 127.2082 104.724207 
L 127.865185 100.894757 
L 128.52217 122.221802 
L 129.179155 104.894072 
L 129.83614 159.972289 
L 130.493125 122.870343 
L 131.15011 135.963806 
L 131.807095 125.473515 
L 132.46408 123.805506 
L 133.121065 131.744033 
L 133.77805 163.750627 
L 134.435035 149.278678 
L 135.09202 128.355817 
L 135.749005 91.739586 
L 136.40599 118.919233 
L 137.062975 97.719764 
L 137.71996 126.755232 
L 138.376945 127.799712 
L 139.03393 127.724095 
L 139.690915 101.008125 
L 140.3479 83.493541 
L 141.004885 94.271584 
L 141.66187 121.947956 
L 142.318855 98.888244 
L 142.97584 116.824218 
L 143.632825 96.581831 
L 144.28981 121.33426 
L 144.946795 66.799072 
L 145.60378 96.298338 
L 146.260765 150.051783 
L 146.91775 171.360799 
L 147.574735 150.506728 
L 148.23172 139.483361 
L 148.888705 148.270894 
L 149.54569 144.201497 
L 150.202675 137.740583 
L 150.85966 163.403367 
L 151.516645 157.643889 
L 152.17363 144.312023 
L 152.830615 151.748735 
L 153.4876 118.984066 
L 154.144585 144.597053 
L 154.80157 149.434513 
L 155.458555 140.104922 
L 156.772525 91.814946 
L 157.42951 115.667778 
L 158.086495 92.68882 
L 158.74348 124.355301 
L 159.400465 116.530097 
L 160.05745 102.694025 
L 160.714435 107.655866 
L 161.37142 110.639818 
L 162.028405 114.251424 
L 162.68539 101.859991 
L 163.342375 126.083583 
L 163.99936 133.971163 
L 164.656345 108.812392 
L 165.31333 99.558225 
L 165.970315 99.452926 
L 166.6273 98.078658 
L 167.284285 113.878178 
L 167.94127 89.000388 
L 168.598255 90.972633 
L 169.25524 126.975562 
L 169.912225 151.38559 
L 170.56921 150.693702 
L 171.226195 124.676655 
L 171.88318 125.314764 
L 172.540165 125.149375 
L 173.19715 108.924596 
L 173.854135 112.628833 
L 174.51112 114.463475 
L 175.168105 102.65487 
L 175.82509 101.737974 
L 176.482075 112.596437 
L 177.13906 117.902934 
L 177.796045 107.620882 
L 178.45303 128.397629 
L 179.110015 125.937587 
L 179.767 136.558875 
L 180.423985 143.998249 
L 181.08097 139.538394 
L 181.737955 138.879798 
L 182.39494 102.641505 
L 183.70891 140.211834 
L 184.365895 110.624902 
L 185.02288 87.444375 
L 186.33685 151.403328 
L 186.993835 147.203503 
L 187.65082 111.738334 
L 188.307805 106.38865 
L 188.96479 109.467091 
L 189.621775 120.664096 
L 190.27876 98.812188 
L 190.935745 65.571115 
L 192.249715 91.516025 
L 192.9067 93.806102 
L 193.563685 117.152672 
L 194.22067 112.290531 
L 194.877655 140.430625 
L 195.53464 135.95374 
L 196.191625 148.281579 
L 197.505595 111.757326 
L 198.16258 134.851938 
L 198.819565 117.976459 
L 199.47655 132.62992 
L 200.133535 128.687763 
L 200.79052 133.925092 
L 202.10449 157.24224 
L 202.761475 157.580738 
L 203.41846 153.875879 
L 204.075445 140.782244 
L 204.73243 131.926916 
L 205.389415 131.769226 
L 206.0464 140.065983 
L 206.703385 139.867359 
L 207.36037 130.272666 
L 208.017355 139.348678 
L 208.67434 90.260065 
L 209.331325 100.984631 
L 209.98831 141.184081 
L 210.645295 126.595801 
L 211.30228 136.15771 
L 211.959265 124.5503 
L 212.61625 139.117654 
L 213.273235 130.612939 
L 213.93022 120.362666 
L 214.587205 105.789301 
L 215.24419 115.029189 
L 215.901175 89.846806 
L 216.55816 96.45846 
L 217.215145 131.420346 
L 217.87213 150.164605 
L 218.529115 129.142643 
L 219.1861 132.616098 
L 219.843085 151.640198 
L 220.50007 117.500153 
L 221.157055 129.492636 
L 221.81404 145.97315 
L 222.471025 120.919062 
L 223.12801 143.71017 
L 223.784995 113.441464 
L 224.44198 116.515648 
L 225.75595 97.932008 
L 226.412935 120.941183 
L 227.06992 122.886945 
L 227.726905 128.930394 
L 228.38389 130.879063 
L 229.040875 123.016223 
L 229.69786 165.381658 
L 230.354845 122.811576 
L 231.01183 156.949464 
L 231.668815 137.152985 
L 232.3258 137.928577 
L 232.982785 157.064537 
L 234.296755 127.379877 
L 234.95374 147.378681 
L 235.610725 112.406097 
L 236.26771 114.195718 
L 236.924695 131.392552 
L 237.58168 125.364444 
L 238.238665 109.456306 
L 238.89565 134.280135 
L 239.552635 176.561165 
L 240.20962 150.142295 
L 240.866605 139.190933 
L 241.52359 149.567883 
L 242.180575 137.969327 
L 242.83756 151.982378 
L 243.494545 142.334428 
L 244.15153 142.825039 
L 244.808515 130.310578 
L 245.4655 161.849268 
L 246.122485 133.973628 
L 246.77947 137.858274 
L 247.436455 150.007027 
L 248.09344 158.572952 
L 248.750425 142.929983 
L 249.40741 117.292416 
L 250.064395 114.343376 
L 250.72138 122.619779 
L 251.378365 157.313243 
L 252.03535 136.502183 
L 252.692335 154.306308 
L 253.34932 101.179715 
L 254.006305 118.406444 
L 254.66329 120.375659 
L 255.320275 116.204181 
L 255.97726 126.488835 
L 256.634245 133.558953 
L 257.29123 170.874604 
L 257.948215 118.245342 
L 258.6052 138.54369 
L 259.262185 131.981363 
L 259.91917 147.391487 
L 260.576155 128.561777 
L 261.23314 129.330589 
L 261.890125 156.465717 
L 262.54711 143.040147 
L 263.204095 135.697226 
L 263.86108 117.276395 
L 264.518065 141.360569 
L 265.17505 145.514309 
L 265.832035 154.09706 
L 266.48902 126.067304 
L 267.146005 138.431045 
L 267.80299 154.130259 
L 268.459975 157.90537 
L 269.11696 125.202037 
L 269.773945 118.378071 
L 270.43093 147.660914 
L 271.087915 142.255223 
L 271.7449 162.927774 
L 272.401885 144.508591 
L 273.715855 170.488094 
L 274.37284 123.257828 
L 275.029825 117.900415 
L 275.68681 129.059903 
L 276.343795 110.556619 
L 277.00078 95.665291 
L 278.971735 163.131738 
L 279.62872 120.275997 
L 280.94269 155.33979 
L 281.599675 146.134606 
L 282.25666 164.381204 
L 282.913645 136.825359 
L 283.57063 133.993922 
L 284.227615 171.997 
L 284.8846 155.400217 
L 285.541585 133.783304 
L 286.855555 161.792636 
L 287.51254 150.740517 
L 288.169525 136.690965 
L 288.82651 113.604521 
L 289.483495 154.343541 
L 290.14048 130.922291 
L 290.797465 126.894277 
L 291.45445 149.519707 
L 292.111435 148.204608 
L 292.76842 161.873151 
L 293.425405 134.462231 
L 294.08239 117.221911 
L 294.739375 135.7389 
L 295.39636 125.27184 
L 296.053345 128.353563 
L 296.71033 125.958737 
L 297.367315 147.112746 
L 298.0243 173.85004 
L 298.681285 149.114085 
L 299.33827 175.850677 
L 299.995255 151.66983 
L 300.65224 144.288077 
L 301.309225 151.979593 
L 301.96621 153.286672 
L 302.623195 147.928286 
L 303.28018 138.801556 
L 303.937165 150.847798 
L 304.59415 135.98772 
L 305.251135 135.05537 
L 305.90812 114.002678 
L 306.565105 149.101869 
L 307.22209 153.186358 
L 307.879075 146.816881 
L 308.53606 145.267915 
L 309.193045 144.868257 
L 309.85003 159.057196 
L 311.164 136.538583 
L 311.820985 125.049469 
L 312.47797 116.530475 
L 313.134955 99.836432 
L 313.79194 128.047941 
L 314.448925 93.733635 
L 315.10591 72.477121 
L 315.762895 92.612868 
L 316.41988 108.528983 
L 317.076865 121.491674 
L 317.73385 93.854213 
L 318.390835 126.718807 
L 319.04782 125.512683 
L 319.704805 133.514804 
L 320.36179 144.83863 
L 321.018775 134.925915 
L 321.67576 163.716571 
L 322.332745 143.47578 
L 322.98973 158.811013 
L 323.646715 129.305326 
L 324.3037 129.116172 
L 324.960685 127.122982 
L 325.61767 126.754842 
L 326.93164 142.377154 
L 327.588625 109.671725 
L 328.24561 98.280944 
L 328.902595 95.634126 
L 329.55958 123.519719 
L 330.216565 139.376344 
L 330.87355 131.67637 
L 331.530535 141.458427 
L 332.18752 158.853969 
L 332.844505 166.434878 
L 333.50149 132.381692 
L 334.158475 136.666255 
L 334.81546 137.022694 
L 335.472445 127.735865 
L 336.12943 175.866459 
L 336.786415 170.144305 
L 337.4434 144.600134 
L 338.100385 136.761833 
L 338.75737 135.366014 
L 339.414355 113.524235 
L 340.07134 114.909642 
L 340.728325 145.414322 
L 341.38531 117.120093 
L 342.042295 146.884913 
L 342.69928 108.422323 
L 343.356265 155.321654 
L 344.01325 141.381677 
L 344.670235 165.999768 
L 345.32722 153.255835 
L 345.984205 152.43121 
L 346.64119 165.135281 
L 347.298175 149.39323 
L 347.95516 157.795802 
L 348.612145 121.530485 
L 349.26913 133.146577 
L 349.926115 136.643372 
L 350.5831 113.702418 
L 351.89707 120.13402 
L 352.554055 117.114898 
L 353.21104 69.305467 
L 353.868025 104.371663 
L 354.52501 128.640376 
L 355.181995 142.316352 
L 355.83898 148.186592 
L 356.495965 145.699176 
L 357.15295 123.13111 
L 357.809935 127.856282 
L 358.46692 173.538362 
L 359.123905 139.612841 
L 359.78089 132.340946 
L 360.437875 134.430166 
L 361.09486 140.405148 
L 361.751845 155.555566 
L 362.40883 134.165707 
L 363.065815 108.350693 
L 363.7228 111.748488 
L 364.379785 142.980154 
L 365.03677 164.660514 
L 365.693755 144.273843 
L 366.35074 157.719482 
L 367.007725 150.617718 
L 367.66471 157.483236 
L 368.321695 135.621183 
L 368.97868 136.981538 
L 369.635665 162.772002 
L 370.29265 110.01567 
L 370.949635 150.363036 
L 371.60662 164.109052 
L 372.263605 151.029076 
L 372.92059 103.826998 
L 373.577575 116.233019 
L 374.23456 120.744944 
L 374.891545 148.786047 
L 376.205515 133.422675 
L 376.8625 124.704062 
L 377.519485 154.849829 
L 378.17647 144.241464 
L 378.833455 143.833894 
L 379.49044 131.31911 
L 380.147425 145.733255 
L 380.80441 153.220078 
L 381.461395 140.555295 
L 382.11838 125.160551 
L 382.775365 145.903753 
L 383.43235 131.360033 
L 384.089335 145.763694 
L 384.74632 151.756275 
L 385.403305 126.211517 
L 386.06029 136.676295 
L 386.717275 137.777934 
L 387.37426 158.364599 
L 388.031245 117.269571 
L 388.68823 112.329117 
L 389.345215 100.624994 
L 390.0022 112.80911 
L 390.659185 137.893398 
L 391.31617 141.193898 
L 391.973155 123.019497 
L 392.63014 115.91063 
L 393.287125 124.016673 
L 393.94411 156.664505 
L 394.601095 157.434607 
L 395.25808 148.642921 
L 395.915065 157.009498 
L 396.57205 161.461077 
L 397.229035 155.301276 
L 397.88602 157.873974 
L 398.543005 152.145891 
L 399.19999 118.72513 
L 399.856975 121.581184 
L 400.51396 140.156473 
L 401.170945 146.700493 
L 401.82793 129.024174 
L 402.484915 124.285228 
L 403.1419 156.954383 
L 403.798885 136.439271 
L 404.45587 139.650094 
L 405.112855 182.365309 
L 405.76984 138.418688 
L 406.426825 114.049514 
L 407.08381 122.761596 
L 407.740795 129.365024 
L 408.39778 133.227902 
L 409.054765 107.740749 
L 409.71175 137.237629 
L 410.368735 132.146762 
L 411.02572 144.221869 
L 411.682705 138.45845 
L 412.33969 111.086741 
L 412.996675 138.841169 
L 413.65366 130.006933 
L 414.310645 152.18582 
L 414.96763 144.909482 
L 415.624615 125.239619 
L 416.2816 151.809282 
L 416.938585 162.90113 
L 417.59557 161.710451 
L 418.252555 164.417558 
L 418.90954 168.733456 
L 419.566525 146.576974 
L 420.22351 162.761572 
L 420.880495 161.797542 
L 421.53748 151.240395 
L 422.194465 164.849488 
L 423.508435 138.680076 
L 424.822405 169.95576 
L 425.47939 139.399625 
L 426.79336 147.573063 
L 427.450345 140.792072 
L 428.10733 157.88986 
L 428.764315 147.513112 
L 429.4213 164.525597 
L 430.078285 142.337552 
L 430.73527 183.283988 
L 431.392255 143.005778 
L 432.04924 131.404135 
L 432.706225 158.467956 
L 433.36321 141.915589 
L 434.020195 158.028863 
L 434.67718 150.030678 
L 435.334165 144.969094 
L 435.99115 127.54357 
L 436.648135 128.137793 
L 437.30512 159.710437 
L 437.962105 130.558426 
L 438.61909 140.625634 
L 439.276075 118.542372 
L 439.93306 121.162531 
L 440.590045 148.651999 
L 441.24703 187.06356 
L 441.904015 168.974024 
L 442.561 182.51293 
L 443.87497 141.584341 
L 444.531955 144.353585 
L 445.18894 143.589225 
L 445.845925 166.122285 
L 446.50291 130.722822 
L 447.159895 156.644346 
L 447.81688 106.344983 
L 448.473865 99.021417 
L 449.13085 124.379753 
L 449.787835 154.414953 
L 450.44482 158.824964 
L 451.101805 111.450148 
L 451.75879 182.024948 
L 452.415775 130.764985 
L 453.07276 146.199633 
L 453.729745 153.218003 
L 454.38673 138.964883 
L 455.043715 191.582272 
L 455.7007 168.074587 
L 456.357685 154.61879 
L 457.01467 158.121478 
L 457.671655 181.28235 
L 458.32864 174.191634 
L 458.985625 127.435761 
L 459.64261 152.920509 
L 460.299595 145.212405 
L 460.95658 143.331149 
L 461.613565 161.697375 
L 462.27055 131.303153 
L 462.927535 152.88874 
L 463.58452 127.647537 
L 464.241505 151.593775 
L 464.89849 160.894958 
L 465.555475 134.738412 
L 466.21246 100.552892 
L 466.869445 150.153806 
L 467.52643 126.191996 
L 468.183415 143.423579 
L 468.8404 142.113526 
L 469.497385 162.171492 
L 470.15437 188.315078 
L 470.811355 176.040655 
L 471.46834 153.917495 
L 472.125325 165.553481 
L 472.78231 183.197211 
L 473.439295 170.389399 
L 474.09628 169.28917 
L 474.753265 116.680913 
L 475.41025 130.901279 
L 476.067235 139.867832 
L 476.72422 139.073661 
L 477.381205 178.443517 
L 478.03819 166.362199 
L 478.695175 162.920397 
L 479.35216 155.55709 
L 480.009145 140.079347 
L 480.66613 151.324839 
L 481.323115 134.108307 
L 481.9801 96.029424 
L 483.29407 141.299167 
L 483.951055 139.278532 
L 484.60804 142.481139 
L 485.265025 186.368322 
L 485.92201 170.781464 
L 486.578995 168.717994 
L 487.23598 136.306117 
L 487.892965 171.766201 
L 488.54995 164.393315 
L 489.206935 124.725239 
L 489.86392 154.416602 
L 490.520905 88.996359 
L 491.17789 96.19693 
L 491.834875 129.383143 
L 492.49186 146.658166 
L 493.148845 124.115781 
L 493.80583 120.157026 
L 494.462815 152.784219 
L 495.1198 156.086184 
L 495.776785 158.562423 
L 496.43377 171.816833 
L 497.090755 157.081746 
L 497.74774 165.983228 
L 498.404725 158.501493 
L 499.06171 147.83215 
L 499.718695 120.631734 
L 500.37568 155.951323 
L 501.032665 141.817025 
L 501.68965 140.541056 
L 502.346635 163.094069 
L 503.00362 161.840139 
L 503.660605 126.923406 
L 504.31759 127.589417 
L 504.974575 145.72442 
L 505.63156 154.310191 
L 506.288545 139.450007 
L 506.94553 147.978863 
L 507.602515 168.325913 
L 508.916485 139.703426 
L 509.57347 141.718361 
L 510.230455 125.722323 
L 510.88744 105.369768 
L 511.544425 131.503492 
L 512.20141 148.714947 
L 512.858395 112.671216 
L 513.51538 102.755537 
L 514.172365 135.440361 
L 514.82935 125.465853 
L 515.486335 77.580181 
L 516.14332 117.567715 
L 516.800305 99.613158 
L 517.45729 137.543791 
L 518.77126 168.2968 
L 519.428245 145.700882 
L 520.08523 133.502725 
L 520.742215 141.13352 
L 521.3992 144.169445 
L 522.056185 152.132865 
L 522.71317 130.870918 
L 523.370155 139.595456 
L 524.02714 168.414817 
L 524.684125 132.592607 
L 525.34111 135.370442 
L 525.998095 133.581091 
L 526.65508 169.852293 
L 527.312065 148.274259 
L 527.96905 160.822611 
L 528.626035 144.262835 
L 529.28302 157.440178 
L 529.940005 141.342777 
L 530.59699 117.687019 
L 531.253975 133.550555 
L 531.91096 142.34077 
L 532.567945 156.653875 
L 533.22493 135.215948 
L 533.881915 136.670193 
L 534.5389 146.537963 
L 535.195885 140.181846 
L 535.85287 117.364193 
L 536.509855 122.364411 
L 537.16684 137.924478 
L 537.823825 111.666968 
L 538.48081 80.940293 
L 539.137795 101.413711 
L 539.79478 135.069209 
L 540.451765 121.876219 
L 541.10875 134.920768 
L 541.765735 155.121497 
L 543.079705 168.789838 
L 543.73669 159.63248 
L 544.393675 155.382311 
L 545.05066 180.319729 
L 545.707645 176.676197 
L 546.36463 191.64446 
L 547.021615 150.863299 
L 547.6786 158.030702 
L 548.335585 170.250582 
L 548.99257 173.823146 
L 549.649555 150.682625 
L 550.30654 145.835056 
L 550.963525 171.70841 
L 551.62051 176.134396 
L 552.277495 134.565451 
L 552.93448 178.124941 
L 553.591465 159.682318 
L 554.24845 168.678909 
L 554.905435 172.487598 
L 555.56242 156.000089 
L 556.219405 150.522602 
L 556.87639 153.953072 
L 557.533375 174.986272 
L 558.19036 134.270474 
L 558.847345 156.418221 
L 559.50433 144.849573 
L 560.161315 103.019566 
L 560.8183 133.92555 
L 561.475285 148.176675 
L 562.13227 136.874484 
L 562.789255 97.748587 
L 563.44624 144.463746 
L 564.103225 147.703899 
L 564.76021 171.793872 
L 565.417195 159.087522 
L 566.07418 173.572024 
L 566.731165 128.214503 
L 567.38815 120.447998 
L 568.70212 160.438792 
L 569.359105 115.400611 
L 570.01609 172.289288 
L 570.673075 128.563461 
L 571.33006 131.14741 
L 571.987045 127.097594 
L 572.64403 136.755251 
L 573.301015 164.482915 
L 573.958 187.336254 
L 574.614985 178.126399 
L 575.27197 189.523219 
L 575.928955 162.832819 
L 576.58594 107.042588 
L 577.242925 99.761543 
L 577.89991 166.911973 
L 578.556895 159.27888 
L 579.21388 158.105094 
L 579.870865 200.136505 
L 580.52785 180.521566 
L 581.184835 199.950626 
L 581.84182 190.74668 
L 582.498805 167.909981 
L 583.15579 152.432938 
L 583.812775 171.295668 
L 584.46976 113.542937 
L 585.126745 100.76819 
L 585.78373 125.990702 
L 586.440715 143.643737 
L 587.0977 152.602541 
L 587.754685 189.071069 
L 588.41167 173.77406 
L 589.068655 134.188953 
L 589.72564 166.282416 
L 590.382625 123.063926 
L 591.03961 139.846184 
L 591.696595 139.460568 
L 592.35358 154.272523 
L 593.010565 151.870663 
L 593.66755 155.489557 
L 594.324535 150.865564 
L 594.98152 116.817395 
L 595.638505 153.272939 
L 596.29549 158.285237 
L 596.952475 179.733844 
L 597.60946 135.474546 
L 598.266445 153.557362 
L 598.92343 159.199046 
L 599.580415 178.514402 
L 600.2374 162.497295 
L 600.894385 164.203322 
L 601.55137 155.401317 
L 602.208355 132.096761 
L 602.86534 140.999934 
L 603.522325 116.032364 
L 604.17931 128.613933 
L 604.836295 122.495107 
L 605.49328 120.601312 
L 606.150265 145.175267 
L 606.80725 137.991143 
L 607.464235 120.726287 
L 608.12122 149.707569 
L 608.778205 125.804261 
L 609.43519 136.695192 
L 610.092175 127.809485 
L 610.74916 89.95112 
L 611.406145 75.466771 
L 612.06313 100.202474 
L 612.720115 113.071779 
L 613.3771 133.593375 
L 614.034085 134.430136 
L 614.69107 160.045665 
L 615.348055 140.632099 
L 616.00504 155.013703 
L 616.662025 157.936802 
L 617.31901 150.623263 
L 617.975995 172.416514 
L 618.63298 167.345963 
L 619.289965 144.040449 
L 619.94695 140.875118 
L 620.603935 132.068452 
L 621.26092 134.182013 
L 621.917905 144.92237 
L 622.57489 146.300091 
L 623.231875 97.334198 
L 623.88886 111.111347 
L 624.545845 138.360764 
L 625.20283 142.239566 
L 625.859815 118.683839 
L 626.5168 87.246924 
L 627.173785 132.008977 
L 627.83077 110.194431 
L 628.487755 97.628045 
L 629.14474 102.996631 
L 629.801725 83.095863 
L 630.45871 120.632858 
L 631.115695 139.861089 
L 631.77268 139.422481 
L 632.429665 134.382995 
L 633.08665 127.151299 
L 633.743635 146.229482 
L 634.40062 130.786749 
L 635.057605 122.043196 
L 635.71459 125.130774 
L 636.371575 117.320987 
L 637.02856 91.732607 
L 637.685545 134.549384 
L 638.34253 145.539962 
L 638.999515 172.710643 
L 639.6565 140.538168 
L 640.313485 153.205529 
L 640.97047 152.397121 
L 641.627455 111.464865 
L 642.28444 129.86345 
L 642.941425 111.927939 
L 643.59841 99.113138 
L 644.255395 129.701828 
L 644.91238 135.482314 
L 645.569365 107.014324 
L 646.22635 132.539629 
L 646.883335 137.497467 
L 647.54032 147.236645 
L 648.197305 128.169265 
L 648.85429 145.84963 
L 649.511275 154.064579 
L 650.16826 114.740251 
L 650.825245 147.511699 
L 651.48223 157.697061 
L 652.139215 153.70779 
L 652.7962 140.282329 
L 654.11017 154.416604 
L 654.767155 142.436016 
L 656.081125 138.899727 
L 656.73811 135.901031 
L 657.395095 143.250892 
L 659.36605 182.838045 
L 660.023035 173.157419 
L 660.68002 178.474013 
L 661.337005 143.88825 
L 661.99399 138.211923 
L 662.650975 138.258489 
L 663.30796 117.384151 
L 663.964945 142.271719 
L 665.278915 150.208199 
L 665.9359 112.998233 
L 666.592885 137.310472 
L 667.24987 147.824484 
L 667.906855 108.542497 
L 668.56384 108.549499 
L 669.220825 118.525442 
L 669.87781 126.695142 
L 670.534795 108.014334 
L 671.19178 144.420486 
L 672.50575 167.183398 
L 673.162735 139.925564 
L 673.81972 135.012797 
L 674.476705 118.590311 
L 675.13369 116.689975 
L 675.790675 126.114768 
L 676.44766 138.893408 
L 677.104645 158.661005 
L 677.76163 158.318403 
L 678.418615 144.545745 
L 679.0756 149.276342 
L 679.732585 156.177475 
L 680.38957 158.130292 
L 681.046555 165.065408 
L 681.70354 162.585592 
L 682.360525 153.137421 
L 683.01751 123.822824 
L 683.674495 158.207445 
L 684.988465 135.987792 
L 685.64545 144.487488 
L 686.302435 157.620937 
L 686.95942 154.125992 
L 687.616405 169.708835 
L 688.27339 151.738338 
L 688.930375 148.867375 
L 690.244345 149.388948 
L 690.90133 124.932043 
L 691.558315 166.324704 
L 692.2153 171.971038 
L 692.872285 147.708 
L 693.52927 129.968207 
L 694.186255 154.755991 
L 694.84324 133.831817 
L 695.500225 138.640805 
L 696.15721 134.901359 
L 696.814195 120.366504 
L 697.47118 116.811468 
L 698.128165 141.400121 
L 698.78515 113.910882 
L 699.442135 134.74836 
L 700.09912 140.709208 
L 700.756105 151.73086 
L 701.41309 135.725685 
L 702.070075 132.606645 
L 702.72706 162.360831 
L 703.384045 131.710248 
L 704.04103 167.55718 
L 704.698015 147.683804 
L 704.698015 147.683804 
" clip-path="url(#p24851c9533)" style="fill: none; stroke-dasharray: 5.55,2.4; stroke-dashoffset: 0; stroke: #ff7f0e; stroke-width: 1.5"/>
   </g>
   <g id="patch_3">
    <path d="M 48.37 398.84 
L 48.37 18.08 
" style="fill: none; stroke: #000000; stroke-width: 0.8; stroke-linejoin: miter; stroke-linecap: square"/>
   </g>
   <g id="patch_4">
    <path d="M 705.355 398.84 
L 705.355 18.08 
" style="fill: none; stroke: #000000; stroke-width: 0.8; stroke-linejoin: miter; stroke-linecap: square"/>
   </g>
   <g id="patch_5">
    <path d="M 48.37 398.84 
L 705.355 398.84 
" style="fill: none; stroke: #000000; stroke-width: 0.8; stroke-linejoin: miter; stroke-linecap: square"/>
   </g>
   <g id="patch_6">
    <path d="M 48.37 18.08 
L 705.355 18.08 
" style="fill: none; stroke: #000000; stroke-width: 0.8; stroke-linejoin: miter; stroke-linecap: square"/>
   </g>
   <g id="text_20">
    <!-- GA Evolution (Simulation #221) -->
    <g transform="translate(281.290938 12.08) scale(0.12 -0.12)">
     <defs>
      <path id="DejaVuSans-41" d="M 2188 4044 
L 1331 1722 
L 3047 1722 
L 2188 4044 
z
M 1831 4666 
L 2547 4666 
L 4325 0 
L 3669 0 
L 3244 1197 
L 1141 1197 
L 716 0 
L 50 0 
L 1831 4666 
z
" transform="scale(0.015625)"/>
      <path id="DejaVuSans-45" d="M 628 4666 
L 3578 4666 
L 3578 4134 
L 1259 4134 
L 1259 2753 
L 3481 2753 
L 3481 2222 
L 1259 2222 
L 1259 531 
L 3634 531 
L 3634 0 
L 628 0 
L 628 4666 
z
" transform="scale(0.015625)"/>
      <path id="DejaVuSans-28" d="M 1984 4856 
Q 1566 4138 1362 3434 
Q 1159 2731 1159 2009 
Q 1159 1288 1364 580 
Q 1569 -128 1984 -844 
L 1484 -844 
Q 1016 -109 783 600 
Q 550 1309 550 2009 
Q 550 2706 781 3412 
Q 1013 4119 1484 4856 
L 1984 4856 
z
" transform="scale(0.015625)"/>
      <path id="DejaVuSans-53" d="M 3425 4513 
L 3425 3897 
Q 3066 4069 2747 4153 
Q 2428 4238 2131 4238 
Q 1616 4238 1336 4038 
Q 1056 3838 1056 3469 
Q 1056 3159 1242 3001 
Q 1428 2844 1947 2747 
L 2328 2669 
Q 3034 2534 3370 2195 
Q 3706 1856 3706 1288 
Q 3706 609 3251 259 
Q 2797 -91 1919 -91 
Q 1588 -91 1214 -16 
Q 841 59 441 206 
L 441 856 
Q 825 641 1194 531 
Q 1563 422 1919 422 
Q 2459 422 2753 634 
Q 3047 847 3047 1241 
Q 3047 1584 2836 1778 
Q 2625 1972 2144 2069 
L 1759 2144 
Q 1053 2284 737 2584 
Q 422 2884 422 3419 
Q 422 4038 858 4394 
Q 1294 4750 2059 4750 
Q 2388 4750 2728 4690 
Q 3069 4631 3425 4513 
z
" transform="scale(0.015625)"/>
      <path id="DejaVuSans-6d" d="M 3328 2828 
Q 3544 3216 3844 3400 
Q 4144 3584 4550 3584 
Q 5097 3584 5394 3201 
Q 5691 2819 5691 2113 
L 5691 0 
L 5113 0 
L 5113 2094 
Q 5113 2597 4934 2840 
Q 4756 3084 4391 3084 
Q 3944 3084 3684 2787 
Q 3425 2491 3425 1978 
L 3425 0 
L 2847 0 
L 2847 2094 
Q 2847 2600 2669 2842 
Q 2491 3084 2119 3084 
Q 1678 3084 1418 2786 
Q 1159 2488 1159 1978 
L 1159 0 
L 581 0 
L 581 3500 
L 1159 3500 
L 1159 2956 
Q 1356 3278 1631 3431 
Q 1906 3584 2284 3584 
Q 2666 3584 2933 3390 
Q 3200 3197 3328 2828 
z
" transform="scale(0.015625)"/>
      <path id="DejaVuSans-23" d="M 3272 2816 
L 2363 2816 
L 2100 1772 
L 3016 1772 
L 3272 2816 
z
M 2803 4594 
L 2478 3297 
L 3391 3297 
L 3719 4594 
L 4219 4594 
L 3897 3297 
L 4872 3297 
L 4872 2816 
L 3775 2816 
L 3519 1772 
L 4513 1772 
L 4513 1294 
L 3397 1294 
L 3072 0 
L 2572 0 
L 2894 1294 
L 1978 1294 
L 1656 0 
L 1153 0 
L 1478 1294 
L 494 1294 
L 494 1772 
L 1594 1772 
L 1856 2816 
L 850 2816 
L 850 3297 
L 1978 3297 
L 2297 4594 
L 2803 4594 
z
" transform="scale(0.015625)"/>
      <path id="DejaVuSans-29" d="M 513 4856 
L 1013 4856 
Q 1481 4119 1714 3412 
Q 1947 2706 1947 2009 
Q 1947 1309 1714 600 
Q 1481 -109 1013 -844 
L 513 -844 
Q 928 -128 1133 580 
Q 1338 1288 1338 2009 
Q 1338 2731 1133 3434 
Q 928 4138 513 4856 
z
" transform="scale(0.015625)"/>
     </defs>
     <use xlink:href="#DejaVuSans-47"/>
     <use xlink:href="#DejaVuSans-41" transform="translate(77.490234 0)"/>
     <use xlink:href="#DejaVuSans-20" transform="translate(145.898438 0)"/>
     <use xlink:href="#DejaVuSans-45" transform="translate(177.685547 0)"/>
     <use xlink:href="#DejaVuSans-76" transform="translate(240.869141 0)"/>
     <use xlink:href="#DejaVuSans-6f" transform="translate(300.048828 0)"/>
     <use xlink:href="#DejaVuSans-6c" transform="translate(361.230469 0)"/>
     <use xlink:href="#DejaVuSans-75" transform="translate(389.013672 0)"/>
     <use xlink:href="#DejaVuSans-74" transform="translate(452.392578 0)"/>
     <use xlink:href="#DejaVuSans-69" transform="translate(491.601562 0)"/>
     <use xlink:href="#DejaVuSans-6f" transform="translate(519.384766 0)"/>
     <use xlink:href="#DejaVuSans-6e" transform="translate(580.566406 0)"/>
     <use xlink:href="#DejaVuSans-20" transform="translate(643.945312 0)"/>
     <use xlink:href="#DejaVuSans-28" transform="translate(675.732422 0)"/>
     <use xlink:href="#DejaVuSans-53" transform="translate(714.746094 0)"/>
     <use xlink:href="#DejaVuSans-69" transform="translate(778.222656 0)"/>
     <use xlink:href="#DejaVuSans-6d" transform="translate(806.005859 0)"/>
     <use xlink:href="#DejaVuSans-75" transform="translate(903.417969 0)"/>
     <use xlink:href="#DejaVuSans-6c" transform="translate(966.796875 0)"/>
     <use xlink:href="#DejaVuSans-61" transform="translate(994.580078 0)"/>
     <use xlink:href="#DejaVuSans-74" transform="translate(1055.859375 0)"/>
     <use xlink:href="#DejaVuSans-69" transform="translate(1095.068359 0)"/>
     <use xlink:href="#DejaVuSans-6f" transform="translate(1122.851562 0)"/>
     <use xlink:href="#DejaVuSans-6e" transform="translate(1184.033203 0)"/>
     <use xlink:href="#DejaVuSans-20" transform="translate(1247.412109 0)"/>
     <use xlink:href="#DejaVuSans-23" transform="translate(1279.199219 0)"/>
     <use xlink:href="#DejaVuSans-32" transform="translate(1362.988281 0)"/>
     <use xlink:href="#DejaVuSans-32" transform="translate(1426.611328 0)"/>
     <use xlink:href="#DejaVuSans-31" transform="translate(1490.234375 0)"/>
     <use xlink:href="#DejaVuSans-29" transform="translate(1553.857422 0)"/>
    </g>
   </g>
   <g id="legend_1">
    <g id="patch_7">
     <path d="M 561.906563 55.43625 
L 698.355 55.43625 
Q 700.355 55.43625 700.355 53.43625 
L 700.355 25.08 
Q 700.355 23.08 698.355 23.08 
L 561.906563 23.08 
Q 559.906563 23.08 559.906563 25.08 
L 559.906563 53.43625 
Q 559.906563 55.43625 561.906563 55.43625 
z
" style="fill: #ffffff; opacity: 0.8; stroke: #cccccc; stroke-linejoin: miter"/>
    </g>
    <g id="line2d_37">
     <path d="M 563.906563 31.178437 
L 573.906563 31.178437 
L 573.906563 31.178437 
L 583.906563 31.178437 
L 583.906563 31.178437 
" style="fill: none; stroke: #1f77b4; stroke-width: 1.5; stroke-linecap: square"/>
    </g>
    <g id="text_21">
     <!-- Best Fitness (GA) -->
     <g transform="translate(591.906563 34.678437) scale(0.1 -0.1)">
      <defs>
       <path id="DejaVuSans-42" d="M 1259 2228 
L 1259 519 
L 2272 519 
Q 2781 519 3026 730 
Q 3272 941 3272 1375 
Q 3272 1813 3026 2020 
Q 2781 2228 2272 2228 
L 1259 2228 
z
M 1259 4147 
L 1259 2741 
L 2194 2741 
Q 2656 2741 2882 2914 
Q 3109 3088 3109 3444 
Q 3109 3797 2882 3972 
Q 2656 4147 2194 4147 
L 1259 4147 
z
M 628 4666 
L 2241 4666 
Q 2963 4666 3353 4366 
Q 3744 4066 3744 3513 
Q 3744 3084 3544 2831 
Q 3344 2578 2956 2516 
Q 3422 2416 3680 2098 
Q 3938 1781 3938 1306 
Q 3938 681 3513 340 
Q 3088 0 2303 0 
L 628 0 
L 628 4666 
z
" transform="scale(0.015625)"/>
       <path id="DejaVuSans-73" d="M 2834 3397 
L 2834 2853 
Q 2591 2978 2328 3040 
Q 2066 3103 1784 3103 
Q 1356 3103 1142 2972 
Q 928 2841 928 2578 
Q 928 2378 1081 2264 
Q 1234 2150 1697 2047 
L 1894 2003 
Q 2506 1872 2764 1633 
Q 3022 1394 3022 966 
Q 3022 478 2636 193 
Q 2250 -91 1575 -91 
Q 1294 -91 989 -36 
Q 684 19 347 128 
L 347 722 
Q 666 556 975 473 
Q 1284 391 1588 391 
Q 1994 391 2212 530 
Q 2431 669 2431 922 
Q 2431 1156 2273 1281 
Q 2116 1406 1581 1522 
L 1381 1569 
Q 847 1681 609 1914 
Q 372 2147 372 2553 
Q 372 3047 722 3315 
Q 1072 3584 1716 3584 
Q 2034 3584 2315 3537 
Q 2597 3491 2834 3397 
z
" transform="scale(0.015625)"/>
       <path id="DejaVuSans-46" d="M 628 4666 
L 3309 4666 
L 3309 4134 
L 1259 4134 
L 1259 2759 
L 3109 2759 
L 3109 2228 
L 1259 2228 
L 1259 0 
L 628 0 
L 628 4666 
z
" transform="scale(0.015625)"/>
      </defs>
      <use xlink:href="#DejaVuSans-42"/>
      <use xlink:href="#DejaVuSans-65" transform="translate(68.603516 0)"/>
      <use xlink:href="#DejaVuSans-73" transform="translate(130.126953 0)"/>
      <use xlink:href="#DejaVuSans-74" transform="translate(182.226562 0)"/>
      <use xlink:href="#DejaVuSans-20" transform="translate(221.435547 0)"/>
      <use xlink:href="#DejaVuSans-46" transform="translate(253.222656 0)"/>
      <use xlink:href="#DejaVuSans-69" transform="translate(303.492188 0)"/>
      <use xlink:href="#DejaVuSans-74" transform="translate(331.275391 0)"/>
      <use xlink:href="#DejaVuSans-6e" transform="translate(370.484375 0)"/>
      <use xlink:href="#DejaVuSans-65" transform="translate(433.863281 0)"/>
      <use xlink:href="#DejaVuSans-73" transform="translate(495.386719 0)"/>
      <use xlink:href="#DejaVuSans-73" transform="translate(547.486328 0)"/>
      <use xlink:href="#DejaVuSans-20" transform="translate(599.585938 0)"/>
      <use xlink:href="#DejaVuSans-28" transform="translate(631.373047 0)"/>
      <use xlink:href="#DejaVuSans-47" transform="translate(670.386719 0)"/>
      <use xlink:href="#DejaVuSans-41" transform="translate(747.876953 0)"/>
      <use xlink:href="#DejaVuSans-29" transform="translate(816.285156 0)"/>
     </g>
    </g>
    <g id="line2d_38">
     <path d="M 563.906563 45.856562 
L 573.906563 45.856562 
L 583.906563 45.856562 
" style="fill: none; stroke-dasharray: 5.55,2.4; stroke-dashoffset: 0; stroke: #ff7f0e; stroke-width: 1.5"/>
    </g>
    <g id="text_22">
     <!-- Average Fitness (GA) -->
     <g transform="translate(591.906563 49.356562) scale(0.1 -0.1)">
      <defs>
       <path id="DejaVuSans-67" d="M 2906 1791 
Q 2906 2416 2648 2759 
Q 2391 3103 1925 3103 
Q 1463 3103 1205 2759 
Q 947 2416 947 1791 
Q 947 1169 1205 825 
Q 1463 481 1925 481 
Q 2391 481 2648 825 
Q 2906 1169 2906 1791 
z
M 3481 434 
Q 3481 -459 3084 -895 
Q 2688 -1331 1869 -1331 
Q 1566 -1331 1297 -1286 
Q 1028 -1241 775 -1147 
L 775 -588 
Q 1028 -725 1275 -790 
Q 1522 -856 1778 -856 
Q 2344 -856 2625 -561 
Q 2906 -266 2906 331 
L 2906 616 
Q 2728 306 2450 153 
Q 2172 0 1784 0 
Q 1141 0 747 490 
Q 353 981 353 1791 
Q 353 2603 747 3093 
Q 1141 3584 1784 3584 
Q 2172 3584 2450 3431 
Q 2728 3278 2906 2969 
L 2906 3500 
L 3481 3500 
L 3481 434 
z
" transform="scale(0.015625)"/>
      </defs>
      <use xlink:href="#DejaVuSans-41"/>
      <use xlink:href="#DejaVuSans-76" transform="translate(62.533203 0)"/>
      <use xlink:href="#DejaVuSans-65" transform="translate(121.712891 0)"/>
      <use xlink:href="#DejaVuSans-72" transform="translate(183.236328 0)"/>
      <use xlink:href="#DejaVuSans-61" transform="translate(224.349609 0)"/>
      <use xlink:href="#DejaVuSans-67" transform="translate(285.628906 0)"/>
      <use xlink:href="#DejaVuSans-65" transform="translate(349.105469 0)"/>
      <use xlink:href="#DejaVuSans-20" transform="translate(410.628906 0)"/>
      <use xlink:href="#DejaVuSans-46" transform="translate(442.416016 0)"/>
      <use xlink:href="#DejaVuSans-69" transform="translate(492.685547 0)"/>
      <use xlink:href="#DejaVuSans-74" transform="translate(520.46875 0)"/>
      <use xlink:href="#DejaVuSans-6e" transform="translate(559.677734 0)"/>
      <use xlink:href="#DejaVuSans-65" transform="translate(623.056641 0)"/>
      <use xlink:href="#DejaVuSans-73" transform="translate(684.580078 0)"/>
      <use xlink:href="#DejaVuSans-73" transform="translate(736.679688 0)"/>
      <use xlink:href="#DejaVuSans-20" transform="translate(788.779297 0)"/>
      <use xlink:href="#DejaVuSans-28" transform="translate(820.566406 0)"/>
      <use xlink:href="#DejaVuSans-47" transform="translate(859.580078 0)"/>
      <use xlink:href="#DejaVuSans-41" transform="translate(937.070312 0)"/>
      <use xlink:href="#DejaVuSans-29" transform="translate(1005.478516 0)"/>
     </g>
    </g>
   </g>
  </g>
 </g>
 <defs>
  <clipPath id="p24851c9533">
   <rect x="48.37" y="18.08" width="656.985" height="380.76"/>
  </clipPath>
 </defs>
</svg>
