<?xml version="1.0" encoding="utf-8" standalone="no"?>
<!DOCTYPE svg PUBLIC "-//W3C//DTD SVG 1.1//EN"
  "http://www.w3.org/Graphics/SVG/1.1/DTD/svg11.dtd">
<svg xmlns:xlink="http://www.w3.org/1999/xlink" width="720pt" height="432pt" viewBox="0 0 720 432" xmlns="http://www.w3.org/2000/svg" version="1.1">
 <metadata>
  <rdf:RDF xmlns:dc="http://purl.org/dc/elements/1.1/" xmlns:cc="http://creativecommons.org/ns#" xmlns:rdf="http://www.w3.org/1999/02/22-rdf-syntax-ns#">
   <cc:Work>
    <dc:type rdf:resource="http://purl.org/dc/dcmitype/StillImage"/>
    <dc:date>2025-11-25T04:16:43.829945</dc:date>
    <dc:format>image/svg+xml</dc:format>
    <dc:creator>
     <cc:Agent>
      <dc:title>Matplotlib v3.10.6, https://matplotlib.org/</dc:title>
     </cc:Agent>
    </dc:creator>
   </cc:Work>
  </rdf:RDF>
 </metadata>
 <defs>
  <style type="text/css">*{stroke-linejoin: round; stroke-linecap: butt}</style>
 </defs>
 <g id="figure_1">
  <g id="patch_1">
   <path d="M 0 432 
L 720 432 
L 720 0 
L 0 0 
z
" style="fill: #ffffff"/>
  </g>
  <g id="axes_1">
   <g id="patch_2">
    <path d="M 48.37 398.84 
L 705.355 398.84 
L 705.355 18.08 
L 48.37 18.08 
z
" style="fill: #ffffff"/>
   </g>
   <g id="matplotlib.axis_1">
    <g id="xtick_1">
     <g id="line2d_1">
      <path d="M 48.37 398.84 
L 48.37 18.08 
" clip-path="url(#pde843be38f)" style="fill: none; stroke-dasharray: 0.8,1.32; stroke-dashoffset: 0; stroke: #b0b0b0; stroke-opacity: 0.7; stroke-width: 0.8"/>
     </g>
     <g id="line2d_2">
      <defs>
       <path id="m03059e1c03" d="M 0 0 
L 0 3.5 
" style="stroke: #000000; stroke-width: 0.8"/>
      </defs>
      <g>
       <use xlink:href="#m03059e1c03" x="48.37" y="398.84" style="stroke: #000000; stroke-width: 0.8"/>
      </g>
     </g>
     <g id="text_1">
      <!-- 0 -->
      <g transform="translate(45.18875 413.438437) scale(0.1 -0.1)">
       <defs>
        <path id="DejaVuSans-30" d="M 2034 4250 
Q 1547 4250 1301 3770 
Q 1056 3291 1056 2328 
Q 1056 1369 1301 889 
Q 1547 409 2034 409 
Q 2525 409 2770 889 
Q 3016 1369 3016 2328 
Q 3016 3291 2770 3770 
Q 2525 4250 2034 4250 
z
M 2034 4750 
Q 2819 4750 3233 4129 
Q 3647 3509 3647 2328 
Q 3647 1150 3233 529 
Q 2819 -91 2034 -91 
Q 1250 -91 836 529 
Q 422 1150 422 2328 
Q 422 3509 836 4129 
Q 1250 4750 2034 4750 
z
" transform="scale(0.015625)"/>
       </defs>
       <use xlink:href="#DejaVuSans-30"/>
      </g>
     </g>
    </g>
    <g id="xtick_2">
     <g id="line2d_3">
      <path d="M 114.0685 398.84 
L 114.0685 18.08 
" clip-path="url(#pde843be38f)" style="fill: none; stroke-dasharray: 0.8,1.32; stroke-dashoffset: 0; stroke: #b0b0b0; stroke-opacity: 0.7; stroke-width: 0.8"/>
     </g>
     <g id="line2d_4">
      <g>
       <use xlink:href="#m03059e1c03" x="114.0685" y="398.84" style="stroke: #000000; stroke-width: 0.8"/>
      </g>
     </g>
     <g id="text_2">
      <!-- 100 -->
      <g transform="translate(104.52475 413.438437) scale(0.1 -0.1)">
       <defs>
        <path id="DejaVuSans-31" d="M 794 531 
L 1825 531 
L 1825 4091 
L 703 3866 
L 703 4441 
L 1819 4666 
L 2450 4666 
L 2450 531 
L 3481 531 
L 3481 0 
L 794 0 
L 794 531 
z
" transform="scale(0.015625)"/>
       </defs>
       <use xlink:href="#DejaVuSans-31"/>
       <use xlink:href="#DejaVuSans-30" transform="translate(63.623047 0)"/>
       <use xlink:href="#DejaVuSans-30" transform="translate(127.246094 0)"/>
      </g>
     </g>
    </g>
    <g id="xtick_3">
     <g id="line2d_5">
      <path d="M 179.767 398.84 
L 179.767 18.08 
" clip-path="url(#pde843be38f)" style="fill: none; stroke-dasharray: 0.8,1.32; stroke-dashoffset: 0; stroke: #b0b0b0; stroke-opacity: 0.7; stroke-width: 0.8"/>
     </g>
     <g id="line2d_6">
      <g>
       <use xlink:href="#m03059e1c03" x="179.767" y="398.84" style="stroke: #000000; stroke-width: 0.8"/>
      </g>
     </g>
     <g id="text_3">
      <!-- 200 -->
      <g transform="translate(170.22325 413.438437) scale(0.1 -0.1)">
       <defs>
        <path id="DejaVuSans-32" d="M 1228 531 
L 3431 531 
L 3431 0 
L 469 0 
L 469 531 
Q 828 903 1448 1529 
Q 2069 2156 2228 2338 
Q 2531 2678 2651 2914 
Q 2772 3150 2772 3378 
Q 2772 3750 2511 3984 
Q 2250 4219 1831 4219 
Q 1534 4219 1204 4116 
Q 875 4013 500 3803 
L 500 4441 
Q 881 4594 1212 4672 
Q 1544 4750 1819 4750 
Q 2544 4750 2975 4387 
Q 3406 4025 3406 3419 
Q 3406 3131 3298 2873 
Q 3191 2616 2906 2266 
Q 2828 2175 2409 1742 
Q 1991 1309 1228 531 
z
" transform="scale(0.015625)"/>
       </defs>
       <use xlink:href="#DejaVuSans-32"/>
       <use xlink:href="#DejaVuSans-30" transform="translate(63.623047 0)"/>
       <use xlink:href="#DejaVuSans-30" transform="translate(127.246094 0)"/>
      </g>
     </g>
    </g>
    <g id="xtick_4">
     <g id="line2d_7">
      <path d="M 245.4655 398.84 
L 245.4655 18.08 
" clip-path="url(#pde843be38f)" style="fill: none; stroke-dasharray: 0.8,1.32; stroke-dashoffset: 0; stroke: #b0b0b0; stroke-opacity: 0.7; stroke-width: 0.8"/>
     </g>
     <g id="line2d_8">
      <g>
       <use xlink:href="#m03059e1c03" x="245.4655" y="398.84" style="stroke: #000000; stroke-width: 0.8"/>
      </g>
     </g>
     <g id="text_4">
      <!-- 300 -->
      <g transform="translate(235.92175 413.438437) scale(0.1 -0.1)">
       <defs>
        <path id="DejaVuSans-33" d="M 2597 2516 
Q 3050 2419 3304 2112 
Q 3559 1806 3559 1356 
Q 3559 666 3084 287 
Q 2609 -91 1734 -91 
Q 1441 -91 1130 -33 
Q 819 25 488 141 
L 488 750 
Q 750 597 1062 519 
Q 1375 441 1716 441 
Q 2309 441 2620 675 
Q 2931 909 2931 1356 
Q 2931 1769 2642 2001 
Q 2353 2234 1838 2234 
L 1294 2234 
L 1294 2753 
L 1863 2753 
Q 2328 2753 2575 2939 
Q 2822 3125 2822 3475 
Q 2822 3834 2567 4026 
Q 2313 4219 1838 4219 
Q 1578 4219 1281 4162 
Q 984 4106 628 3988 
L 628 4550 
Q 988 4650 1302 4700 
Q 1616 4750 1894 4750 
Q 2613 4750 3031 4423 
Q 3450 4097 3450 3541 
Q 3450 3153 3228 2886 
Q 3006 2619 2597 2516 
z
" transform="scale(0.015625)"/>
       </defs>
       <use xlink:href="#DejaVuSans-33"/>
       <use xlink:href="#DejaVuSans-30" transform="translate(63.623047 0)"/>
       <use xlink:href="#DejaVuSans-30" transform="translate(127.246094 0)"/>
      </g>
     </g>
    </g>
    <g id="xtick_5">
     <g id="line2d_9">
      <path d="M 311.164 398.84 
L 311.164 18.08 
" clip-path="url(#pde843be38f)" style="fill: none; stroke-dasharray: 0.8,1.32; stroke-dashoffset: 0; stroke: #b0b0b0; stroke-opacity: 0.7; stroke-width: 0.8"/>
     </g>
     <g id="line2d_10">
      <g>
       <use xlink:href="#m03059e1c03" x="311.164" y="398.84" style="stroke: #000000; stroke-width: 0.8"/>
      </g>
     </g>
     <g id="text_5">
      <!-- 400 -->
      <g transform="translate(301.62025 413.438437) scale(0.1 -0.1)">
       <defs>
        <path id="DejaVuSans-34" d="M 2419 4116 
L 825 1625 
L 2419 1625 
L 2419 4116 
z
M 2253 4666 
L 3047 4666 
L 3047 1625 
L 3713 1625 
L 3713 1100 
L 3047 1100 
L 3047 0 
L 2419 0 
L 2419 1100 
L 313 1100 
L 313 1709 
L 2253 4666 
z
" transform="scale(0.015625)"/>
       </defs>
       <use xlink:href="#DejaVuSans-34"/>
       <use xlink:href="#DejaVuSans-30" transform="translate(63.623047 0)"/>
       <use xlink:href="#DejaVuSans-30" transform="translate(127.246094 0)"/>
      </g>
     </g>
    </g>
    <g id="xtick_6">
     <g id="line2d_11">
      <path d="M 376.8625 398.84 
L 376.8625 18.08 
" clip-path="url(#pde843be38f)" style="fill: none; stroke-dasharray: 0.8,1.32; stroke-dashoffset: 0; stroke: #b0b0b0; stroke-opacity: 0.7; stroke-width: 0.8"/>
     </g>
     <g id="line2d_12">
      <g>
       <use xlink:href="#m03059e1c03" x="376.8625" y="398.84" style="stroke: #000000; stroke-width: 0.8"/>
      </g>
     </g>
     <g id="text_6">
      <!-- 500 -->
      <g transform="translate(367.31875 413.438437) scale(0.1 -0.1)">
       <defs>
        <path id="DejaVuSans-35" d="M 691 4666 
L 3169 4666 
L 3169 4134 
L 1269 4134 
L 1269 2991 
Q 1406 3038 1543 3061 
Q 1681 3084 1819 3084 
Q 2600 3084 3056 2656 
Q 3513 2228 3513 1497 
Q 3513 744 3044 326 
Q 2575 -91 1722 -91 
Q 1428 -91 1123 -41 
Q 819 9 494 109 
L 494 744 
Q 775 591 1075 516 
Q 1375 441 1709 441 
Q 2250 441 2565 725 
Q 2881 1009 2881 1497 
Q 2881 1984 2565 2268 
Q 2250 2553 1709 2553 
Q 1456 2553 1204 2497 
Q 953 2441 691 2322 
L 691 4666 
z
" transform="scale(0.015625)"/>
       </defs>
       <use xlink:href="#DejaVuSans-35"/>
       <use xlink:href="#DejaVuSans-30" transform="translate(63.623047 0)"/>
       <use xlink:href="#DejaVuSans-30" transform="translate(127.246094 0)"/>
      </g>
     </g>
    </g>
    <g id="xtick_7">
     <g id="line2d_13">
      <path d="M 442.561 398.84 
L 442.561 18.08 
" clip-path="url(#pde843be38f)" style="fill: none; stroke-dasharray: 0.8,1.32; stroke-dashoffset: 0; stroke: #b0b0b0; stroke-opacity: 0.7; stroke-width: 0.8"/>
     </g>
     <g id="line2d_14">
      <g>
       <use xlink:href="#m03059e1c03" x="442.561" y="398.84" style="stroke: #000000; stroke-width: 0.8"/>
      </g>
     </g>
     <g id="text_7">
      <!-- 600 -->
      <g transform="translate(433.01725 413.438437) scale(0.1 -0.1)">
       <defs>
        <path id="DejaVuSans-36" d="M 2113 2584 
Q 1688 2584 1439 2293 
Q 1191 2003 1191 1497 
Q 1191 994 1439 701 
Q 1688 409 2113 409 
Q 2538 409 2786 701 
Q 3034 994 3034 1497 
Q 3034 2003 2786 2293 
Q 2538 2584 2113 2584 
z
M 3366 4563 
L 3366 3988 
Q 3128 4100 2886 4159 
Q 2644 4219 2406 4219 
Q 1781 4219 1451 3797 
Q 1122 3375 1075 2522 
Q 1259 2794 1537 2939 
Q 1816 3084 2150 3084 
Q 2853 3084 3261 2657 
Q 3669 2231 3669 1497 
Q 3669 778 3244 343 
Q 2819 -91 2113 -91 
Q 1303 -91 875 529 
Q 447 1150 447 2328 
Q 447 3434 972 4092 
Q 1497 4750 2381 4750 
Q 2619 4750 2861 4703 
Q 3103 4656 3366 4563 
z
" transform="scale(0.015625)"/>
       </defs>
       <use xlink:href="#DejaVuSans-36"/>
       <use xlink:href="#DejaVuSans-30" transform="translate(63.623047 0)"/>
       <use xlink:href="#DejaVuSans-30" transform="translate(127.246094 0)"/>
      </g>
     </g>
    </g>
    <g id="xtick_8">
     <g id="line2d_15">
      <path d="M 508.2595 398.84 
L 508.2595 18.08 
" clip-path="url(#pde843be38f)" style="fill: none; stroke-dasharray: 0.8,1.32; stroke-dashoffset: 0; stroke: #b0b0b0; stroke-opacity: 0.7; stroke-width: 0.8"/>
     </g>
     <g id="line2d_16">
      <g>
       <use xlink:href="#m03059e1c03" x="508.2595" y="398.84" style="stroke: #000000; stroke-width: 0.8"/>
      </g>
     </g>
     <g id="text_8">
      <!-- 700 -->
      <g transform="translate(498.71575 413.438437) scale(0.1 -0.1)">
       <defs>
        <path id="DejaVuSans-37" d="M 525 4666 
L 3525 4666 
L 3525 4397 
L 1831 0 
L 1172 0 
L 2766 4134 
L 525 4134 
L 525 4666 
z
" transform="scale(0.015625)"/>
       </defs>
       <use xlink:href="#DejaVuSans-37"/>
       <use xlink:href="#DejaVuSans-30" transform="translate(63.623047 0)"/>
       <use xlink:href="#DejaVuSans-30" transform="translate(127.246094 0)"/>
      </g>
     </g>
    </g>
    <g id="xtick_9">
     <g id="line2d_17">
      <path d="M 573.958 398.84 
L 573.958 18.08 
" clip-path="url(#pde843be38f)" style="fill: none; stroke-dasharray: 0.8,1.32; stroke-dashoffset: 0; stroke: #b0b0b0; stroke-opacity: 0.7; stroke-width: 0.8"/>
     </g>
     <g id="line2d_18">
      <g>
       <use xlink:href="#m03059e1c03" x="573.958" y="398.84" style="stroke: #000000; stroke-width: 0.8"/>
      </g>
     </g>
     <g id="text_9">
      <!-- 800 -->
      <g transform="translate(564.41425 413.438437) scale(0.1 -0.1)">
       <defs>
        <path id="DejaVuSans-38" d="M 2034 2216 
Q 1584 2216 1326 1975 
Q 1069 1734 1069 1313 
Q 1069 891 1326 650 
Q 1584 409 2034 409 
Q 2484 409 2743 651 
Q 3003 894 3003 1313 
Q 3003 1734 2745 1975 
Q 2488 2216 2034 2216 
z
M 1403 2484 
Q 997 2584 770 2862 
Q 544 3141 544 3541 
Q 544 4100 942 4425 
Q 1341 4750 2034 4750 
Q 2731 4750 3128 4425 
Q 3525 4100 3525 3541 
Q 3525 3141 3298 2862 
Q 3072 2584 2669 2484 
Q 3125 2378 3379 2068 
Q 3634 1759 3634 1313 
Q 3634 634 3220 271 
Q 2806 -91 2034 -91 
Q 1263 -91 848 271 
Q 434 634 434 1313 
Q 434 1759 690 2068 
Q 947 2378 1403 2484 
z
M 1172 3481 
Q 1172 3119 1398 2916 
Q 1625 2713 2034 2713 
Q 2441 2713 2670 2916 
Q 2900 3119 2900 3481 
Q 2900 3844 2670 4047 
Q 2441 4250 2034 4250 
Q 1625 4250 1398 4047 
Q 1172 3844 1172 3481 
z
" transform="scale(0.015625)"/>
       </defs>
       <use xlink:href="#DejaVuSans-38"/>
       <use xlink:href="#DejaVuSans-30" transform="translate(63.623047 0)"/>
       <use xlink:href="#DejaVuSans-30" transform="translate(127.246094 0)"/>
      </g>
     </g>
    </g>
    <g id="xtick_10">
     <g id="line2d_19">
      <path d="M 639.6565 398.84 
L 639.6565 18.08 
" clip-path="url(#pde843be38f)" style="fill: none; stroke-dasharray: 0.8,1.32; stroke-dashoffset: 0; stroke: #b0b0b0; stroke-opacity: 0.7; stroke-width: 0.8"/>
     </g>
     <g id="line2d_20">
      <g>
       <use xlink:href="#m03059e1c03" x="639.6565" y="398.84" style="stroke: #000000; stroke-width: 0.8"/>
      </g>
     </g>
     <g id="text_10">
      <!-- 900 -->
      <g transform="translate(630.11275 413.438437) scale(0.1 -0.1)">
       <defs>
        <path id="DejaVuSans-39" d="M 703 97 
L 703 672 
Q 941 559 1184 500 
Q 1428 441 1663 441 
Q 2288 441 2617 861 
Q 2947 1281 2994 2138 
Q 2813 1869 2534 1725 
Q 2256 1581 1919 1581 
Q 1219 1581 811 2004 
Q 403 2428 403 3163 
Q 403 3881 828 4315 
Q 1253 4750 1959 4750 
Q 2769 4750 3195 4129 
Q 3622 3509 3622 2328 
Q 3622 1225 3098 567 
Q 2575 -91 1691 -91 
Q 1453 -91 1209 -44 
Q 966 3 703 97 
z
M 1959 2075 
Q 2384 2075 2632 2365 
Q 2881 2656 2881 3163 
Q 2881 3666 2632 3958 
Q 2384 4250 1959 4250 
Q 1534 4250 1286 3958 
Q 1038 3666 1038 3163 
Q 1038 2656 1286 2365 
Q 1534 2075 1959 2075 
z
" transform="scale(0.015625)"/>
       </defs>
       <use xlink:href="#DejaVuSans-39"/>
       <use xlink:href="#DejaVuSans-30" transform="translate(63.623047 0)"/>
       <use xlink:href="#DejaVuSans-30" transform="translate(127.246094 0)"/>
      </g>
     </g>
    </g>
    <g id="xtick_11">
     <g id="line2d_21">
      <path d="M 705.355 398.84 
L 705.355 18.08 
" clip-path="url(#pde843be38f)" style="fill: none; stroke-dasharray: 0.8,1.32; stroke-dashoffset: 0; stroke: #b0b0b0; stroke-opacity: 0.7; stroke-width: 0.8"/>
     </g>
     <g id="line2d_22">
      <g>
       <use xlink:href="#m03059e1c03" x="705.355" y="398.84" style="stroke: #000000; stroke-width: 0.8"/>
      </g>
     </g>
     <g id="text_11">
      <!-- 1000 -->
      <g transform="translate(692.63 413.438437) scale(0.1 -0.1)">
       <use xlink:href="#DejaVuSans-31"/>
       <use xlink:href="#DejaVuSans-30" transform="translate(63.623047 0)"/>
       <use xlink:href="#DejaVuSans-30" transform="translate(127.246094 0)"/>
       <use xlink:href="#DejaVuSans-30" transform="translate(190.869141 0)"/>
      </g>
     </g>
    </g>
    <g id="text_12">
     <!-- Iteration / Generation -->
     <g transform="translate(322.898438 427.116562) scale(0.1 -0.1)">
      <defs>
       <path id="DejaVuSans-49" d="M 628 4666 
L 1259 4666 
L 1259 0 
L 628 0 
L 628 4666 
z
" transform="scale(0.015625)"/>
       <path id="DejaVuSans-74" d="M 1172 4494 
L 1172 3500 
L 2356 3500 
L 2356 3053 
L 1172 3053 
L 1172 1153 
Q 1172 725 1289 603 
Q 1406 481 1766 481 
L 2356 481 
L 2356 0 
L 1766 0 
Q 1100 0 847 248 
Q 594 497 594 1153 
L 594 3053 
L 172 3053 
L 172 3500 
L 594 3500 
L 594 4494 
L 1172 4494 
z
" transform="scale(0.015625)"/>
       <path id="DejaVuSans-65" d="M 3597 1894 
L 3597 1613 
L 953 1613 
Q 991 1019 1311 708 
Q 1631 397 2203 397 
Q 2534 397 2845 478 
Q 3156 559 3463 722 
L 3463 178 
Q 3153 47 2828 -22 
Q 2503 -91 2169 -91 
Q 1331 -91 842 396 
Q 353 884 353 1716 
Q 353 2575 817 3079 
Q 1281 3584 2069 3584 
Q 2775 3584 3186 3129 
Q 3597 2675 3597 1894 
z
M 3022 2063 
Q 3016 2534 2758 2815 
Q 2500 3097 2075 3097 
Q 1594 3097 1305 2825 
Q 1016 2553 972 2059 
L 3022 2063 
z
" transform="scale(0.015625)"/>
       <path id="DejaVuSans-72" d="M 2631 2963 
Q 2534 3019 2420 3045 
Q 2306 3072 2169 3072 
Q 1681 3072 1420 2755 
Q 1159 2438 1159 1844 
L 1159 0 
L 581 0 
L 581 3500 
L 1159 3500 
L 1159 2956 
Q 1341 3275 1631 3429 
Q 1922 3584 2338 3584 
Q 2397 3584 2469 3576 
Q 2541 3569 2628 3553 
L 2631 2963 
z
" transform="scale(0.015625)"/>
       <path id="DejaVuSans-61" d="M 2194 1759 
Q 1497 1759 1228 1600 
Q 959 1441 959 1056 
Q 959 750 1161 570 
Q 1363 391 1709 391 
Q 2188 391 2477 730 
Q 2766 1069 2766 1631 
L 2766 1759 
L 2194 1759 
z
M 3341 1997 
L 3341 0 
L 2766 0 
L 2766 531 
Q 2569 213 2275 61 
Q 1981 -91 1556 -91 
Q 1019 -91 701 211 
Q 384 513 384 1019 
Q 384 1609 779 1909 
Q 1175 2209 1959 2209 
L 2766 2209 
L 2766 2266 
Q 2766 2663 2505 2880 
Q 2244 3097 1772 3097 
Q 1472 3097 1187 3025 
Q 903 2953 641 2809 
L 641 3341 
Q 956 3463 1253 3523 
Q 1550 3584 1831 3584 
Q 2591 3584 2966 3190 
Q 3341 2797 3341 1997 
z
" transform="scale(0.015625)"/>
       <path id="DejaVuSans-69" d="M 603 3500 
L 1178 3500 
L 1178 0 
L 603 0 
L 603 3500 
z
M 603 4863 
L 1178 4863 
L 1178 4134 
L 603 4134 
L 603 4863 
z
" transform="scale(0.015625)"/>
       <path id="DejaVuSans-6f" d="M 1959 3097 
Q 1497 3097 1228 2736 
Q 959 2375 959 1747 
Q 959 1119 1226 758 
Q 1494 397 1959 397 
Q 2419 397 2687 759 
Q 2956 1122 2956 1747 
Q 2956 2369 2687 2733 
Q 2419 3097 1959 3097 
z
M 1959 3584 
Q 2709 3584 3137 3096 
Q 3566 2609 3566 1747 
Q 3566 888 3137 398 
Q 2709 -91 1959 -91 
Q 1206 -91 779 398 
Q 353 888 353 1747 
Q 353 2609 779 3096 
Q 1206 3584 1959 3584 
z
" transform="scale(0.015625)"/>
       <path id="DejaVuSans-6e" d="M 3513 2113 
L 3513 0 
L 2938 0 
L 2938 2094 
Q 2938 2591 2744 2837 
Q 2550 3084 2163 3084 
Q 1697 3084 1428 2787 
Q 1159 2491 1159 1978 
L 1159 0 
L 581 0 
L 581 3500 
L 1159 3500 
L 1159 2956 
Q 1366 3272 1645 3428 
Q 1925 3584 2291 3584 
Q 2894 3584 3203 3211 
Q 3513 2838 3513 2113 
z
" transform="scale(0.015625)"/>
       <path id="DejaVuSans-20" transform="scale(0.015625)"/>
       <path id="DejaVuSans-2f" d="M 1625 4666 
L 2156 4666 
L 531 -594 
L 0 -594 
L 1625 4666 
z
" transform="scale(0.015625)"/>
       <path id="DejaVuSans-47" d="M 3809 666 
L 3809 1919 
L 2778 1919 
L 2778 2438 
L 4434 2438 
L 4434 434 
Q 4069 175 3628 42 
Q 3188 -91 2688 -91 
Q 1594 -91 976 548 
Q 359 1188 359 2328 
Q 359 3472 976 4111 
Q 1594 4750 2688 4750 
Q 3144 4750 3555 4637 
Q 3966 4525 4313 4306 
L 4313 3634 
Q 3963 3931 3569 4081 
Q 3175 4231 2741 4231 
Q 1884 4231 1454 3753 
Q 1025 3275 1025 2328 
Q 1025 1384 1454 906 
Q 1884 428 2741 428 
Q 3075 428 3337 486 
Q 3600 544 3809 666 
z
" transform="scale(0.015625)"/>
      </defs>
      <use xlink:href="#DejaVuSans-49"/>
      <use xlink:href="#DejaVuSans-74" transform="translate(29.492188 0)"/>
      <use xlink:href="#DejaVuSans-65" transform="translate(68.701172 0)"/>
      <use xlink:href="#DejaVuSans-72" transform="translate(130.224609 0)"/>
      <use xlink:href="#DejaVuSans-61" transform="translate(171.337891 0)"/>
      <use xlink:href="#DejaVuSans-74" transform="translate(232.617188 0)"/>
      <use xlink:href="#DejaVuSans-69" transform="translate(271.826172 0)"/>
      <use xlink:href="#DejaVuSans-6f" transform="translate(299.609375 0)"/>
      <use xlink:href="#DejaVuSans-6e" transform="translate(360.791016 0)"/>
      <use xlink:href="#DejaVuSans-20" transform="translate(424.169922 0)"/>
      <use xlink:href="#DejaVuSans-2f" transform="translate(455.957031 0)"/>
      <use xlink:href="#DejaVuSans-20" transform="translate(489.648438 0)"/>
      <use xlink:href="#DejaVuSans-47" transform="translate(521.435547 0)"/>
      <use xlink:href="#DejaVuSans-65" transform="translate(598.925781 0)"/>
      <use xlink:href="#DejaVuSans-6e" transform="translate(660.449219 0)"/>
      <use xlink:href="#DejaVuSans-65" transform="translate(723.828125 0)"/>
      <use xlink:href="#DejaVuSans-72" transform="translate(785.351562 0)"/>
      <use xlink:href="#DejaVuSans-61" transform="translate(826.464844 0)"/>
      <use xlink:href="#DejaVuSans-74" transform="translate(887.744141 0)"/>
      <use xlink:href="#DejaVuSans-69" transform="translate(926.953125 0)"/>
      <use xlink:href="#DejaVuSans-6f" transform="translate(954.736328 0)"/>
      <use xlink:href="#DejaVuSans-6e" transform="translate(1015.917969 0)"/>
     </g>
    </g>
   </g>
   <g id="matplotlib.axis_2">
    <g id="ytick_1">
     <g id="line2d_23">
      <path d="M 48.37 390.133634 
L 705.355 390.133634 
" clip-path="url(#pde843be38f)" style="fill: none; stroke-dasharray: 0.8,1.32; stroke-dashoffset: 0; stroke: #b0b0b0; stroke-opacity: 0.7; stroke-width: 0.8"/>
     </g>
     <g id="line2d_24">
      <defs>
       <path id="m2646717f77" d="M 0 0 
L -3.5 0 
" style="stroke: #000000; stroke-width: 0.8"/>
      </defs>
      <g>
       <use xlink:href="#m2646717f77" x="48.37" y="390.133634" style="stroke: #000000; stroke-width: 0.8"/>
      </g>
     </g>
     <g id="text_13">
      <!-- 1000 -->
      <g transform="translate(15.92 393.932852) scale(0.1 -0.1)">
       <use xlink:href="#DejaVuSans-31"/>
       <use xlink:href="#DejaVuSans-30" transform="translate(63.623047 0)"/>
       <use xlink:href="#DejaVuSans-30" transform="translate(127.246094 0)"/>
       <use xlink:href="#DejaVuSans-30" transform="translate(190.869141 0)"/>
      </g>
     </g>
    </g>
    <g id="ytick_2">
     <g id="line2d_25">
      <path d="M 48.37 321.478012 
L 705.355 321.478012 
" clip-path="url(#pde843be38f)" style="fill: none; stroke-dasharray: 0.8,1.32; stroke-dashoffset: 0; stroke: #b0b0b0; stroke-opacity: 0.7; stroke-width: 0.8"/>
     </g>
     <g id="line2d_26">
      <g>
       <use xlink:href="#m2646717f77" x="48.37" y="321.478012" style="stroke: #000000; stroke-width: 0.8"/>
      </g>
     </g>
     <g id="text_14">
      <!-- 1500 -->
      <g transform="translate(15.92 325.277231) scale(0.1 -0.1)">
       <use xlink:href="#DejaVuSans-31"/>
       <use xlink:href="#DejaVuSans-35" transform="translate(63.623047 0)"/>
       <use xlink:href="#DejaVuSans-30" transform="translate(127.246094 0)"/>
       <use xlink:href="#DejaVuSans-30" transform="translate(190.869141 0)"/>
      </g>
     </g>
    </g>
    <g id="ytick_3">
     <g id="line2d_27">
      <path d="M 48.37 252.82239 
L 705.355 252.82239 
" clip-path="url(#pde843be38f)" style="fill: none; stroke-dasharray: 0.8,1.32; stroke-dashoffset: 0; stroke: #b0b0b0; stroke-opacity: 0.7; stroke-width: 0.8"/>
     </g>
     <g id="line2d_28">
      <g>
       <use xlink:href="#m2646717f77" x="48.37" y="252.82239" style="stroke: #000000; stroke-width: 0.8"/>
      </g>
     </g>
     <g id="text_15">
      <!-- 2000 -->
      <g transform="translate(15.92 256.621609) scale(0.1 -0.1)">
       <use xlink:href="#DejaVuSans-32"/>
       <use xlink:href="#DejaVuSans-30" transform="translate(63.623047 0)"/>
       <use xlink:href="#DejaVuSans-30" transform="translate(127.246094 0)"/>
       <use xlink:href="#DejaVuSans-30" transform="translate(190.869141 0)"/>
      </g>
     </g>
    </g>
    <g id="ytick_4">
     <g id="line2d_29">
      <path d="M 48.37 184.166768 
L 705.355 184.166768 
" clip-path="url(#pde843be38f)" style="fill: none; stroke-dasharray: 0.8,1.32; stroke-dashoffset: 0; stroke: #b0b0b0; stroke-opacity: 0.7; stroke-width: 0.8"/>
     </g>
     <g id="line2d_30">
      <g>
       <use xlink:href="#m2646717f77" x="48.37" y="184.166768" style="stroke: #000000; stroke-width: 0.8"/>
      </g>
     </g>
     <g id="text_16">
      <!-- 2500 -->
      <g transform="translate(15.92 187.965987) scale(0.1 -0.1)">
       <use xlink:href="#DejaVuSans-32"/>
       <use xlink:href="#DejaVuSans-35" transform="translate(63.623047 0)"/>
       <use xlink:href="#DejaVuSans-30" transform="translate(127.246094 0)"/>
       <use xlink:href="#DejaVuSans-30" transform="translate(190.869141 0)"/>
      </g>
     </g>
    </g>
    <g id="ytick_5">
     <g id="line2d_31">
      <path d="M 48.37 115.511147 
L 705.355 115.511147 
" clip-path="url(#pde843be38f)" style="fill: none; stroke-dasharray: 0.8,1.32; stroke-dashoffset: 0; stroke: #b0b0b0; stroke-opacity: 0.7; stroke-width: 0.8"/>
     </g>
     <g id="line2d_32">
      <g>
       <use xlink:href="#m2646717f77" x="48.37" y="115.511147" style="stroke: #000000; stroke-width: 0.8"/>
      </g>
     </g>
     <g id="text_17">
      <!-- 3000 -->
      <g transform="translate(15.92 119.310366) scale(0.1 -0.1)">
       <use xlink:href="#DejaVuSans-33"/>
       <use xlink:href="#DejaVuSans-30" transform="translate(63.623047 0)"/>
       <use xlink:href="#DejaVuSans-30" transform="translate(127.246094 0)"/>
       <use xlink:href="#DejaVuSans-30" transform="translate(190.869141 0)"/>
      </g>
     </g>
    </g>
    <g id="ytick_6">
     <g id="line2d_33">
      <path d="M 48.37 46.855525 
L 705.355 46.855525 
" clip-path="url(#pde843be38f)" style="fill: none; stroke-dasharray: 0.8,1.32; stroke-dashoffset: 0; stroke: #b0b0b0; stroke-opacity: 0.7; stroke-width: 0.8"/>
     </g>
     <g id="line2d_34">
      <g>
       <use xlink:href="#m2646717f77" x="48.37" y="46.855525" style="stroke: #000000; stroke-width: 0.8"/>
      </g>
     </g>
     <g id="text_18">
      <!-- 3500 -->
      <g transform="translate(15.92 50.654744) scale(0.1 -0.1)">
       <use xlink:href="#DejaVuSans-33"/>
       <use xlink:href="#DejaVuSans-35" transform="translate(63.623047 0)"/>
       <use xlink:href="#DejaVuSans-30" transform="translate(127.246094 0)"/>
       <use xlink:href="#DejaVuSans-30" transform="translate(190.869141 0)"/>
      </g>
     </g>
    </g>
    <g id="text_19">
     <!-- Objective Value -->
     <g transform="translate(9.840312 247.490469) rotate(-90) scale(0.1 -0.1)">
      <defs>
       <path id="DejaVuSans-4f" d="M 2522 4238 
Q 1834 4238 1429 3725 
Q 1025 3213 1025 2328 
Q 1025 1447 1429 934 
Q 1834 422 2522 422 
Q 3209 422 3611 934 
Q 4013 1447 4013 2328 
Q 4013 3213 3611 3725 
Q 3209 4238 2522 4238 
z
M 2522 4750 
Q 3503 4750 4090 4092 
Q 4678 3434 4678 2328 
Q 4678 1225 4090 567 
Q 3503 -91 2522 -91 
Q 1538 -91 948 565 
Q 359 1222 359 2328 
Q 359 3434 948 4092 
Q 1538 4750 2522 4750 
z
" transform="scale(0.015625)"/>
       <path id="DejaVuSans-62" d="M 3116 1747 
Q 3116 2381 2855 2742 
Q 2594 3103 2138 3103 
Q 1681 3103 1420 2742 
Q 1159 2381 1159 1747 
Q 1159 1113 1420 752 
Q 1681 391 2138 391 
Q 2594 391 2855 752 
Q 3116 1113 3116 1747 
z
M 1159 2969 
Q 1341 3281 1617 3432 
Q 1894 3584 2278 3584 
Q 2916 3584 3314 3078 
Q 3713 2572 3713 1747 
Q 3713 922 3314 415 
Q 2916 -91 2278 -91 
Q 1894 -91 1617 61 
Q 1341 213 1159 525 
L 1159 0 
L 581 0 
L 581 4863 
L 1159 4863 
L 1159 2969 
z
" transform="scale(0.015625)"/>
       <path id="DejaVuSans-6a" d="M 603 3500 
L 1178 3500 
L 1178 -63 
Q 1178 -731 923 -1031 
Q 669 -1331 103 -1331 
L -116 -1331 
L -116 -844 
L 38 -844 
Q 366 -844 484 -692 
Q 603 -541 603 -63 
L 603 3500 
z
M 603 4863 
L 1178 4863 
L 1178 4134 
L 603 4134 
L 603 4863 
z
" transform="scale(0.015625)"/>
       <path id="DejaVuSans-63" d="M 3122 3366 
L 3122 2828 
Q 2878 2963 2633 3030 
Q 2388 3097 2138 3097 
Q 1578 3097 1268 2742 
Q 959 2388 959 1747 
Q 959 1106 1268 751 
Q 1578 397 2138 397 
Q 2388 397 2633 464 
Q 2878 531 3122 666 
L 3122 134 
Q 2881 22 2623 -34 
Q 2366 -91 2075 -91 
Q 1284 -91 818 406 
Q 353 903 353 1747 
Q 353 2603 823 3093 
Q 1294 3584 2113 3584 
Q 2378 3584 2631 3529 
Q 2884 3475 3122 3366 
z
" transform="scale(0.015625)"/>
       <path id="DejaVuSans-76" d="M 191 3500 
L 800 3500 
L 1894 563 
L 2988 3500 
L 3597 3500 
L 2284 0 
L 1503 0 
L 191 3500 
z
" transform="scale(0.015625)"/>
       <path id="DejaVuSans-56" d="M 1831 0 
L 50 4666 
L 709 4666 
L 2188 738 
L 3669 4666 
L 4325 4666 
L 2547 0 
L 1831 0 
z
" transform="scale(0.015625)"/>
       <path id="DejaVuSans-6c" d="M 603 4863 
L 1178 4863 
L 1178 0 
L 603 0 
L 603 4863 
z
" transform="scale(0.015625)"/>
       <path id="DejaVuSans-75" d="M 544 1381 
L 544 3500 
L 1119 3500 
L 1119 1403 
Q 1119 906 1312 657 
Q 1506 409 1894 409 
Q 2359 409 2629 706 
Q 2900 1003 2900 1516 
L 2900 3500 
L 3475 3500 
L 3475 0 
L 2900 0 
L 2900 538 
Q 2691 219 2414 64 
Q 2138 -91 1772 -91 
Q 1169 -91 856 284 
Q 544 659 544 1381 
z
M 1991 3584 
L 1991 3584 
z
" transform="scale(0.015625)"/>
      </defs>
      <use xlink:href="#DejaVuSans-4f"/>
      <use xlink:href="#DejaVuSans-62" transform="translate(78.710938 0)"/>
      <use xlink:href="#DejaVuSans-6a" transform="translate(142.1875 0)"/>
      <use xlink:href="#DejaVuSans-65" transform="translate(169.970703 0)"/>
      <use xlink:href="#DejaVuSans-63" transform="translate(231.494141 0)"/>
      <use xlink:href="#DejaVuSans-74" transform="translate(286.474609 0)"/>
      <use xlink:href="#DejaVuSans-69" transform="translate(325.683594 0)"/>
      <use xlink:href="#DejaVuSans-76" transform="translate(353.466797 0)"/>
      <use xlink:href="#DejaVuSans-65" transform="translate(412.646484 0)"/>
      <use xlink:href="#DejaVuSans-20" transform="translate(474.169922 0)"/>
      <use xlink:href="#DejaVuSans-56" transform="translate(505.957031 0)"/>
      <use xlink:href="#DejaVuSans-61" transform="translate(566.615234 0)"/>
      <use xlink:href="#DejaVuSans-6c" transform="translate(627.894531 0)"/>
      <use xlink:href="#DejaVuSans-75" transform="translate(655.677734 0)"/>
      <use xlink:href="#DejaVuSans-65" transform="translate(719.056641 0)"/>
     </g>
    </g>
   </g>
   <g id="line2d_35">
    <path d="M 48.37 247.998954 
L 49.68397 247.998954 
L 49.68397 263.768032 
L 54.93985 263.768032 
L 54.93985 274.913533 
L 56.25382 274.913533 
L 56.25382 292.98937 
L 59.538745 292.98937 
L 59.538745 313.278765 
L 66.108595 313.278765 
L 66.108595 334.443543 
L 134.435035 334.443543 
L 134.435035 346.572526 
L 143.632825 346.572526 
L 143.632825 361.027707 
L 185.02288 361.027707 
L 185.02288 361.257053 
L 256.634245 361.257053 
L 256.634245 363.529307 
L 288.169525 363.529307 
L 288.169525 365.755697 
L 619.94695 365.755697 
L 619.94695 367.11 
L 704.698015 367.11 
L 704.698015 367.11 
" clip-path="url(#pde843be38f)" style="fill: none; stroke: #1f77b4; stroke-width: 1.5; stroke-linecap: square"/>
   </g>
   <g id="line2d_36">
    <path d="M 48.37 151.23467 
L 49.026985 115.091155 
L 49.68397 108.391122 
L 50.340955 58.408053 
L 50.99794 91.323657 
L 51.654925 87.040051 
L 52.31191 49.81 
L 53.62588 100.555288 
L 54.282865 130.703482 
L 54.93985 98.691871 
L 55.596835 102.98058 
L 56.25382 99.228684 
L 56.910805 133.682858 
L 57.56779 150.312537 
L 58.224775 139.04576 
L 58.88176 151.605802 
L 59.538745 149.267308 
L 60.19573 150.148347 
L 60.852715 130.461537 
L 61.5097 122.137635 
L 62.166685 150.788465 
L 62.82367 172.544975 
L 63.480655 125.611172 
L 64.13764 158.774855 
L 64.794625 120.927641 
L 65.45161 182.924098 
L 66.108595 186.884947 
L 66.76558 207.908964 
L 67.422565 192.59603 
L 68.07955 158.150767 
L 68.736535 156.33417 
L 69.39352 155.937238 
L 70.050505 155.400255 
L 70.70749 157.851652 
L 71.364475 169.444263 
L 72.02146 159.327851 
L 73.33543 170.545437 
L 73.992415 169.204242 
L 74.6494 119.1565 
L 75.306385 162.748422 
L 75.96337 180.290565 
L 76.620355 156.469957 
L 77.27734 152.097312 
L 77.934325 159.637524 
L 78.59131 139.237968 
L 79.248295 156.985429 
L 79.90528 142.229532 
L 80.562265 164.543318 
L 81.21925 130.850367 
L 81.876235 122.950753 
L 82.53322 135.406826 
L 83.190205 126.781158 
L 83.84719 167.585766 
L 84.504175 157.004077 
L 85.16116 168.286292 
L 85.818145 151.424471 
L 86.47513 159.404234 
L 87.132115 145.126243 
L 87.7891 107.717422 
L 88.446085 119.462344 
L 89.10307 133.226395 
L 89.760055 160.118496 
L 90.41704 137.282978 
L 91.074025 151.667439 
L 91.73101 148.094985 
L 92.387995 138.49631 
L 93.04498 149.379947 
L 93.701965 152.861647 
L 94.35895 154.957436 
L 95.015935 146.41969 
L 95.67292 154.75778 
L 96.329905 140.03923 
L 96.98689 159.883873 
L 97.643875 159.538129 
L 98.30086 155.866699 
L 98.957845 148.144873 
L 99.61483 159.002049 
L 100.271815 134.50721 
L 100.9288 135.402933 
L 101.585785 138.050373 
L 102.24277 96.383955 
L 102.899755 113.774436 
L 103.55674 146.305396 
L 104.213725 127.736936 
L 104.87071 126.194434 
L 105.527695 123.864619 
L 106.18468 106.442241 
L 106.841665 127.535217 
L 107.49865 120.014173 
L 108.155635 155.084769 
L 108.81262 171.736334 
L 109.469605 140.632423 
L 110.12659 167.81204 
L 110.783575 121.582844 
L 111.44056 150.203492 
L 112.097545 156.022451 
L 112.75453 139.567505 
L 113.411515 147.786276 
L 114.0685 161.893494 
L 114.725485 179.848512 
L 115.38247 135.824997 
L 116.039455 153.162286 
L 116.69644 161.229617 
L 117.353425 145.283032 
L 118.01041 141.918806 
L 118.667395 105.503345 
L 119.981365 119.797219 
L 120.63835 190.612549 
L 121.295335 170.504405 
L 121.95232 143.215516 
L 122.609305 164.2355 
L 124.58026 128.613709 
L 125.237245 121.055574 
L 125.89423 135.203081 
L 126.551215 143.062643 
L 127.2082 132.641823 
L 127.865185 138.185068 
L 128.52217 121.259441 
L 129.179155 113.807546 
L 129.83614 154.135539 
L 130.493125 156.6169 
L 131.15011 177.547574 
L 131.807095 149.564789 
L 132.46408 155.001036 
L 133.121065 180.489654 
L 133.77805 168.16898 
L 134.435035 196.088972 
L 135.09202 184.692189 
L 135.749005 153.843659 
L 136.40599 146.151241 
L 137.062975 166.939086 
L 137.71996 164.956607 
L 138.376945 163.629151 
L 139.03393 175.279845 
L 140.3479 142.284302 
L 141.004885 139.776631 
L 141.66187 144.324661 
L 142.318855 142.659525 
L 142.97584 151.021017 
L 143.632825 146.570609 
L 144.28981 166.209906 
L 144.946795 161.422197 
L 145.60378 160.000125 
L 146.260765 153.700932 
L 146.91775 165.013947 
L 147.574735 141.896323 
L 148.23172 150.77253 
L 148.888705 164.125497 
L 149.54569 123.178728 
L 150.202675 181.69982 
L 150.85966 158.073577 
L 151.516645 144.785044 
L 152.17363 138.327984 
L 152.830615 134.906743 
L 153.4876 142.636511 
L 154.144585 138.361142 
L 154.80157 75.115613 
L 155.458555 151.422166 
L 156.11554 123.065014 
L 156.772525 140.268724 
L 157.42951 146.158053 
L 158.086495 158.871562 
L 158.74348 124.678964 
L 159.400465 149.084761 
L 160.05745 149.584744 
L 160.714435 159.889934 
L 161.37142 137.034177 
L 162.028405 176.741099 
L 162.68539 160.399984 
L 163.99936 122.744682 
L 164.656345 144.163259 
L 165.970315 82.665127 
L 166.6273 83.092046 
L 167.284285 124.701197 
L 167.94127 130.148454 
L 168.598255 130.349649 
L 169.25524 140.761134 
L 169.912225 120.418487 
L 170.56921 135.801222 
L 171.226195 167.629279 
L 171.88318 158.532192 
L 172.540165 141.559267 
L 173.19715 168.531171 
L 173.854135 112.249483 
L 174.51112 136.692965 
L 175.168105 145.77961 
L 175.82509 141.944367 
L 176.482075 146.538222 
L 177.13906 144.224428 
L 177.796045 133.083575 
L 178.45303 180.926721 
L 179.110015 166.65608 
L 179.767 141.846939 
L 180.423985 140.160215 
L 181.08097 142.537845 
L 181.737955 144.250711 
L 182.39494 166.665133 
L 183.051925 172.023914 
L 183.70891 129.823893 
L 184.365895 129.953033 
L 185.02288 151.76109 
L 185.679865 129.460613 
L 186.33685 118.489082 
L 186.993835 162.750932 
L 187.65082 128.372129 
L 188.307805 134.229371 
L 188.96479 147.100249 
L 189.621775 162.209795 
L 190.27876 143.195872 
L 190.935745 150.001351 
L 191.59273 153.476199 
L 192.249715 153.987058 
L 192.9067 153.659625 
L 193.563685 172.148019 
L 194.22067 167.621542 
L 194.877655 182.830702 
L 195.53464 155.914445 
L 196.191625 138.777911 
L 196.84861 88.339073 
L 197.505595 102.619856 
L 198.16258 131.051892 
L 198.819565 145.449839 
L 199.47655 156.483658 
L 200.133535 178.916835 
L 200.79052 166.913869 
L 201.447505 130.657674 
L 202.10449 115.857474 
L 202.761475 166.26504 
L 203.41846 156.445918 
L 204.075445 150.113277 
L 204.73243 123.19193 
L 205.389415 148.016487 
L 206.0464 133.108529 
L 206.703385 129.533431 
L 207.36037 142.951849 
L 208.017355 148.96828 
L 208.67434 180.135835 
L 209.331325 200.16149 
L 209.98831 195.951653 
L 210.645295 188.853389 
L 211.30228 191.948483 
L 211.959265 191.859352 
L 213.273235 182.210203 
L 213.93022 143.005105 
L 214.587205 117.747023 
L 215.901175 150.431526 
L 216.55816 151.548175 
L 217.215145 181.583227 
L 217.87213 167.08338 
L 218.529115 161.666231 
L 219.1861 173.154065 
L 219.843085 149.222498 
L 220.50007 173.299507 
L 221.157055 170.959001 
L 221.81404 154.938276 
L 222.471025 157.648556 
L 223.12801 133.896898 
L 223.784995 175.0789 
L 224.44198 146.900404 
L 225.098965 169.322938 
L 225.75595 139.807888 
L 226.412935 128.315304 
L 227.06992 139.353127 
L 227.726905 136.455014 
L 228.38389 156.030247 
L 229.040875 129.342702 
L 229.69786 145.503761 
L 230.354845 168.79374 
L 231.01183 138.797827 
L 231.668815 177.25389 
L 232.3258 138.346782 
L 232.982785 166.242479 
L 233.63977 167.074552 
L 234.296755 187.077226 
L 234.95374 145.526864 
L 235.610725 131.003113 
L 236.26771 151.525656 
L 236.924695 166.272278 
L 237.58168 154.096066 
L 238.238665 130.085283 
L 238.89565 160.233768 
L 239.552635 160.36502 
L 240.20962 120.148262 
L 240.866605 119.619314 
L 241.52359 150.28543 
L 242.180575 160.985658 
L 242.83756 132.576684 
L 243.494545 132.127004 
L 244.15153 165.92512 
L 244.808515 157.394261 
L 245.4655 174.567419 
L 246.122485 161.949737 
L 246.77947 112.993051 
L 247.436455 113.140326 
L 248.09344 147.694612 
L 248.750425 141.901666 
L 249.40741 151.710236 
L 250.064395 139.105238 
L 250.72138 151.643273 
L 251.378365 167.661959 
L 252.03535 156.15797 
L 252.692335 160.874499 
L 253.34932 166.883931 
L 254.006305 156.177697 
L 254.66329 139.810097 
L 255.320275 173.488432 
L 255.97726 155.635652 
L 256.634245 188.403166 
L 257.29123 167.027345 
L 257.948215 141.168136 
L 258.6052 171.974219 
L 259.262185 155.69617 
L 259.91917 153.084835 
L 261.23314 122.453666 
L 261.890125 142.225343 
L 262.54711 120.418788 
L 263.204095 127.693856 
L 263.86108 121.876225 
L 264.518065 148.570695 
L 265.17505 136.144004 
L 265.832035 171.152099 
L 266.48902 157.767833 
L 267.146005 205.302743 
L 268.459975 153.008132 
L 269.11696 155.800479 
L 269.773945 162.899105 
L 270.43093 139.157661 
L 271.087915 139.172933 
L 271.7449 170.086377 
L 272.401885 175.751597 
L 273.05887 186.042309 
L 273.715855 147.653303 
L 274.37284 134.15275 
L 275.029825 139.676223 
L 275.68681 135.450186 
L 276.343795 154.355133 
L 277.00078 130.797788 
L 277.657765 121.944867 
L 278.31475 154.661627 
L 278.971735 168.574975 
L 279.62872 164.248082 
L 280.285705 163.620354 
L 280.94269 182.740731 
L 281.599675 138.795499 
L 282.25666 167.515203 
L 282.913645 147.868062 
L 283.57063 137.423773 
L 284.227615 202.81802 
L 284.8846 150.899689 
L 285.541585 160.080255 
L 286.855555 144.925784 
L 287.51254 149.305525 
L 288.169525 140.547336 
L 288.82651 165.860017 
L 289.483495 131.09977 
L 290.14048 128.709113 
L 290.797465 143.167002 
L 291.45445 147.935393 
L 292.111435 141.479785 
L 292.76842 148.629369 
L 293.425405 161.737705 
L 294.08239 149.528931 
L 294.739375 156.618827 
L 295.39636 138.008896 
L 296.053345 136.440453 
L 296.71033 129.971688 
L 297.367315 143.083658 
L 298.0243 110.763923 
L 298.681285 125.504563 
L 299.33827 146.613941 
L 299.995255 162.540025 
L 300.65224 175.188919 
L 301.309225 178.806436 
L 301.96621 165.852932 
L 302.623195 181.219499 
L 303.28018 137.318058 
L 303.937165 161.47669 
L 304.59415 162.906202 
L 305.251135 139.562164 
L 305.90812 161.355221 
L 306.565105 163.612162 
L 307.22209 176.62656 
L 307.879075 183.458457 
L 308.53606 142.278554 
L 309.193045 132.663481 
L 309.85003 155.163177 
L 310.507015 156.269655 
L 311.164 140.062299 
L 311.820985 131.233372 
L 312.47797 115.916491 
L 313.134955 150.681596 
L 313.79194 141.340413 
L 314.448925 128.232663 
L 315.10591 100.087538 
L 315.762895 123.564237 
L 316.41988 122.913604 
L 317.076865 178.89605 
L 317.73385 139.624049 
L 318.390835 138.839791 
L 319.04782 142.403912 
L 319.704805 132.122492 
L 320.36179 124.525277 
L 321.018775 128.725636 
L 321.67576 124.834402 
L 322.332745 132.992369 
L 322.98973 124.460218 
L 323.646715 126.301092 
L 324.3037 149.913184 
L 324.960685 148.137003 
L 325.61767 148.398434 
L 326.274655 121.876307 
L 326.93164 101.499046 
L 327.588625 135.756903 
L 328.24561 142.102563 
L 328.902595 157.178817 
L 329.55958 133.789405 
L 330.216565 158.623869 
L 330.87355 201.899164 
L 331.530535 140.794693 
L 332.18752 141.701589 
L 332.844505 101.463818 
L 333.50149 127.705349 
L 334.158475 148.276965 
L 334.81546 137.879409 
L 335.472445 144.233629 
L 336.12943 105.073688 
L 336.786415 130.423716 
L 337.4434 115.242818 
L 338.100385 93.471761 
L 338.75737 116.353438 
L 339.414355 119.59664 
L 340.07134 146.907752 
L 340.728325 153.576914 
L 341.38531 123.211203 
L 342.042295 150.454423 
L 342.69928 144.300681 
L 343.356265 107.214193 
L 344.01325 136.313971 
L 344.670235 93.294043 
L 345.32722 89.269274 
L 345.984205 133.233616 
L 346.64119 139.092804 
L 347.298175 152.824017 
L 347.95516 146.894964 
L 348.612145 133.792812 
L 349.26913 124.23274 
L 349.926115 131.159028 
L 350.5831 158.82718 
L 351.240085 168.521728 
L 351.89707 163.553846 
L 352.554055 167.964238 
L 353.21104 164.43044 
L 353.868025 157.938234 
L 354.52501 163.978824 
L 355.181995 158.975555 
L 355.83898 181.177431 
L 356.495965 167.994244 
L 357.15295 144.610876 
L 357.809935 146.754465 
L 358.46692 131.817158 
L 359.123905 179.432104 
L 359.78089 158.998954 
L 360.437875 150.767133 
L 361.09486 158.981454 
L 361.751845 140.570161 
L 362.40883 171.99915 
L 363.065815 150.286821 
L 363.7228 159.665803 
L 364.379785 166.034284 
L 365.03677 175.883036 
L 365.693755 155.172009 
L 366.35074 142.084031 
L 367.007725 123.646839 
L 367.66471 135.80421 
L 368.321695 139.070714 
L 368.97868 131.967617 
L 369.635665 135.680795 
L 370.29265 117.35761 
L 370.949635 113.094708 
L 371.60662 122.40226 
L 372.263605 140.989288 
L 372.92059 136.042808 
L 373.577575 157.432309 
L 374.23456 165.651337 
L 374.891545 192.195404 
L 375.54853 155.331835 
L 376.205515 175.165453 
L 376.8625 180.117146 
L 377.519485 163.688659 
L 378.17647 170.787673 
L 378.833455 164.803073 
L 379.49044 110.284002 
L 380.147425 108.688464 
L 380.80441 141.049982 
L 381.461395 112.017465 
L 382.11838 106.634777 
L 382.775365 161.871017 
L 383.43235 131.569167 
L 384.089335 143.137394 
L 384.74632 126.603484 
L 385.403305 153.625608 
L 386.06029 145.263192 
L 386.717275 111.265035 
L 387.37426 103.680992 
L 388.031245 115.552387 
L 388.68823 95.793267 
L 389.345215 112.629537 
L 390.0022 139.092932 
L 390.659185 147.533456 
L 391.31617 147.361266 
L 391.973155 160.292933 
L 392.63014 168.842762 
L 393.287125 162.242925 
L 393.94411 145.023248 
L 394.601095 123.582696 
L 395.25808 120.698012 
L 395.915065 145.158996 
L 397.229035 124.335725 
L 397.88602 127.918616 
L 398.543005 164.284783 
L 399.19999 137.057448 
L 399.856975 153.14462 
L 400.51396 117.449517 
L 401.170945 106.274419 
L 401.82793 107.646141 
L 402.484915 118.211488 
L 403.1419 98.358113 
L 403.798885 129.886868 
L 404.45587 134.410218 
L 405.112855 129.337557 
L 405.76984 175.173749 
L 406.426825 143.800655 
L 407.08381 124.519786 
L 407.740795 125.45265 
L 408.39778 64.251579 
L 409.054765 134.960819 
L 409.71175 135.261984 
L 410.368735 126.709185 
L 411.02572 166.714042 
L 411.682705 129.323508 
L 412.33969 123.737137 
L 412.996675 169.796939 
L 413.65366 161.889818 
L 414.310645 155.910789 
L 414.96763 151.751883 
L 415.624615 131.704779 
L 416.2816 155.841567 
L 416.938585 138.272437 
L 417.59557 116.915259 
L 418.252555 151.059675 
L 418.90954 143.252983 
L 419.566525 153.491656 
L 420.22351 133.800244 
L 420.880495 151.141077 
L 421.53748 153.210129 
L 422.194465 151.577626 
L 422.85145 140.861218 
L 423.508435 134.091705 
L 424.16542 151.058173 
L 424.822405 97.888296 
L 425.47939 139.06904 
L 426.136375 137.110508 
L 426.79336 163.794215 
L 427.450345 168.670868 
L 428.10733 172.484078 
L 428.764315 146.040979 
L 429.4213 174.028594 
L 430.078285 143.504792 
L 430.73527 150.206512 
L 431.392255 168.70978 
L 432.04924 148.894637 
L 432.706225 141.247533 
L 433.36321 151.907491 
L 434.020195 171.756348 
L 434.67718 178.668325 
L 435.334165 178.939461 
L 435.99115 150.364406 
L 436.648135 141.37358 
L 437.30512 149.157851 
L 437.962105 127.272531 
L 438.61909 110.810861 
L 439.276075 124.163292 
L 439.93306 155.899325 
L 440.590045 177.605492 
L 441.24703 140.309009 
L 441.904015 141.460798 
L 442.561 168.199871 
L 443.217985 120.575227 
L 443.87497 148.601433 
L 444.531955 133.844999 
L 445.18894 153.448849 
L 445.845925 112.891777 
L 446.50291 121.469235 
L 447.159895 142.081176 
L 447.81688 148.713999 
L 448.473865 149.85828 
L 449.13085 134.057612 
L 450.44482 156.111885 
L 451.101805 142.709388 
L 451.75879 164.46955 
L 452.415775 167.452129 
L 453.07276 171.319047 
L 453.729745 137.618664 
L 454.38673 120.779371 
L 455.043715 129.417321 
L 455.7007 116.41116 
L 456.357685 111.069378 
L 457.01467 148.080701 
L 457.671655 107.613967 
L 458.32864 117.844465 
L 458.985625 111.781317 
L 459.64261 138.238472 
L 460.299595 120.345703 
L 460.95658 139.177664 
L 462.27055 154.977153 
L 462.927535 133.287582 
L 463.58452 131.184168 
L 464.241505 144.823509 
L 464.89849 126.958205 
L 465.555475 160.432603 
L 466.21246 144.860328 
L 466.869445 151.462073 
L 467.52643 164.016243 
L 468.183415 145.766663 
L 468.8404 169.13336 
L 469.497385 158.936135 
L 470.15437 165.015417 
L 470.811355 156.294863 
L 471.46834 164.701964 
L 472.125325 131.715012 
L 472.78231 184.633348 
L 473.439295 158.247992 
L 474.09628 172.112006 
L 474.753265 162.365046 
L 475.41025 131.901434 
L 476.067235 163.596215 
L 476.72422 112.538267 
L 477.381205 148.604601 
L 478.03819 153.668798 
L 478.695175 169.24218 
L 479.35216 163.429031 
L 480.009145 130.90074 
L 480.66613 147.123264 
L 481.323115 100.585632 
L 481.9801 123.732916 
L 482.637085 137.374028 
L 483.29407 133.365614 
L 483.951055 126.367073 
L 484.60804 157.342441 
L 485.265025 139.895383 
L 485.92201 155.493578 
L 486.578995 135.339226 
L 487.23598 153.158247 
L 487.892965 165.34095 
L 489.206935 142.786004 
L 489.86392 164.22724 
L 490.520905 173.771803 
L 491.17789 177.622992 
L 491.834875 174.336114 
L 492.49186 147.128273 
L 493.148845 173.255529 
L 493.80583 161.650773 
L 494.462815 135.687687 
L 495.1198 149.924411 
L 495.776785 113.81623 
L 496.43377 153.343176 
L 497.090755 155.64317 
L 497.74774 150.524282 
L 498.404725 165.594001 
L 499.06171 157.56429 
L 499.718695 144.493063 
L 500.37568 121.825125 
L 501.032665 125.382483 
L 501.68965 95.330673 
L 502.346635 120.75005 
L 504.31759 165.342038 
L 504.974575 174.83805 
L 506.288545 154.273169 
L 506.94553 138.948906 
L 507.602515 135.402577 
L 508.2595 168.202553 
L 508.916485 166.426917 
L 509.57347 182.049795 
L 510.230455 115.1338 
L 510.88744 133.24743 
L 511.544425 145.93711 
L 512.20141 136.865114 
L 512.858395 148.106099 
L 513.51538 167.81677 
L 514.172365 138.981523 
L 514.82935 119.59758 
L 515.486335 145.645328 
L 516.14332 112.236628 
L 516.800305 123.012897 
L 517.45729 148.545963 
L 518.114275 158.569642 
L 518.77126 132.812941 
L 519.428245 154.615547 
L 520.08523 132.619008 
L 520.742215 119.908365 
L 521.3992 120.471402 
L 522.056185 145.008419 
L 522.71317 113.54807 
L 524.02714 150.651248 
L 524.684125 165.963632 
L 525.34111 173.685105 
L 525.998095 122.87761 
L 526.65508 157.897244 
L 527.312065 178.341286 
L 527.96905 152.485481 
L 528.626035 166.690817 
L 529.28302 172.120932 
L 529.940005 136.256604 
L 530.59699 166.936711 
L 531.253975 162.112102 
L 531.91096 137.438466 
L 532.567945 164.112472 
L 533.22493 146.356453 
L 533.881915 151.285255 
L 534.5389 166.38468 
L 535.195885 154.115783 
L 535.85287 151.372902 
L 536.509855 149.632136 
L 537.16684 158.019201 
L 537.823825 113.728922 
L 538.48081 143.926455 
L 539.137795 182.80942 
L 539.79478 123.74512 
L 540.451765 161.78503 
L 541.10875 139.083499 
L 541.765735 149.198247 
L 542.42272 128.385981 
L 543.079705 124.248176 
L 543.73669 127.28908 
L 544.393675 92.279252 
L 545.05066 116.922517 
L 545.707645 116.911516 
L 546.36463 129.953542 
L 547.021615 121.800968 
L 547.6786 149.150467 
L 548.335585 135.711605 
L 548.99257 147.022023 
L 549.649555 170.720253 
L 550.30654 161.813907 
L 550.963525 168.385938 
L 551.62051 164.477125 
L 552.277495 165.219638 
L 552.93448 148.998169 
L 553.591465 190.941503 
L 554.24845 142.03517 
L 555.56242 124.191561 
L 556.219405 128.213946 
L 556.87639 149.830211 
L 557.533375 120.02917 
L 558.19036 132.61626 
L 558.847345 139.160373 
L 559.50433 124.487727 
L 560.161315 134.657996 
L 560.8183 158.00261 
L 561.475285 161.309868 
L 562.13227 142.532411 
L 562.789255 165.35188 
L 563.44624 167.906362 
L 564.103225 125.239236 
L 564.76021 92.58971 
L 565.417195 95.540169 
L 566.07418 104.928026 
L 566.731165 122.100031 
L 567.38815 102.352173 
L 568.045135 135.597729 
L 568.70212 123.997837 
L 569.359105 131.921383 
L 570.01609 159.869648 
L 570.673075 142.742058 
L 571.33006 169.709689 
L 571.987045 127.458271 
L 572.64403 143.534941 
L 573.301015 142.800034 
L 573.958 166.262094 
L 574.614985 154.458038 
L 575.27197 147.737083 
L 575.928955 145.540156 
L 576.58594 184.038114 
L 577.242925 156.022527 
L 577.89991 175.089495 
L 578.556895 164.381583 
L 579.21388 134.672103 
L 579.870865 142.871352 
L 580.52785 105.03286 
L 581.184835 132.029779 
L 582.498805 161.761621 
L 583.15579 169.653059 
L 583.812775 155.335158 
L 584.46976 176.573187 
L 585.126745 152.87894 
L 585.78373 123.338062 
L 586.440715 128.712064 
L 587.0977 183.59241 
L 587.754685 153.291693 
L 588.41167 168.862335 
L 589.068655 162.487369 
L 589.72564 143.752329 
L 590.382625 151.892577 
L 591.03961 127.363845 
L 591.696595 128.436458 
L 592.35358 135.483406 
L 593.010565 130.143906 
L 593.66755 153.642764 
L 594.324535 128.654896 
L 594.98152 132.168877 
L 595.638505 168.168223 
L 596.29549 101.507003 
L 596.952475 117.337019 
L 597.60946 94.76886 
L 598.266445 113.84818 
L 598.92343 137.133481 
L 599.580415 148.499759 
L 600.2374 151.685819 
L 600.894385 163.532867 
L 601.55137 142.73087 
L 602.208355 154.869133 
L 602.86534 139.222263 
L 603.522325 167.788163 
L 604.17931 135.96874 
L 604.836295 138.620574 
L 606.150265 165.123194 
L 606.80725 140.022403 
L 607.464235 151.990182 
L 608.12122 159.794409 
L 608.778205 157.052632 
L 609.43519 144.113136 
L 610.092175 127.375384 
L 610.74916 159.99209 
L 611.406145 138.898581 
L 612.06313 145.833917 
L 612.720115 144.853745 
L 613.3771 128.000227 
L 614.034085 153.164509 
L 614.69107 132.833058 
L 615.348055 129.617063 
L 616.00504 110.541123 
L 616.662025 115.538798 
L 617.31901 142.054893 
L 617.975995 113.878914 
L 618.63298 122.898401 
L 619.289965 101.605423 
L 619.94695 132.9816 
L 620.603935 88.289661 
L 621.917905 173.900042 
L 622.57489 165.076555 
L 623.231875 125.48084 
L 623.88886 155.569845 
L 624.545845 132.345043 
L 625.20283 128.163344 
L 625.859815 119.093854 
L 626.5168 119.754299 
L 627.173785 119.956644 
L 627.83077 139.837387 
L 628.487755 148.715642 
L 629.14474 85.25962 
L 629.801725 98.233039 
L 631.115695 138.257962 
L 631.77268 157.416849 
L 633.08665 112.659662 
L 633.743635 131.909592 
L 634.40062 129.917082 
L 635.057605 176.004081 
L 635.71459 197.843421 
L 636.371575 184.936419 
L 637.02856 145.424183 
L 637.685545 162.746548 
L 638.34253 171.267618 
L 638.999515 160.858484 
L 639.6565 175.539032 
L 640.313485 174.021268 
L 640.97047 158.92513 
L 641.627455 119.898314 
L 642.28444 127.755344 
L 642.941425 119.242299 
L 643.59841 170.6885 
L 644.255395 112.292026 
L 644.91238 91.347293 
L 645.569365 154.440401 
L 646.22635 158.974543 
L 646.883335 157.042759 
L 647.54032 147.38951 
L 648.197305 151.900908 
L 648.85429 145.137881 
L 649.511275 185.867477 
L 650.16826 179.46798 
L 650.825245 165.009766 
L 651.48223 186.684447 
L 652.139215 145.597141 
L 652.7962 160.849646 
L 653.453185 154.287814 
L 654.11017 145.275815 
L 654.767155 156.800977 
L 656.081125 125.9041 
L 656.73811 129.320195 
L 657.395095 122.144019 
L 658.05208 139.369292 
L 658.709065 169.953798 
L 659.36605 156.250403 
L 660.023035 167.018795 
L 660.68002 158.02421 
L 661.337005 153.225427 
L 661.99399 135.239619 
L 662.650975 165.801804 
L 663.30796 145.554566 
L 664.62193 158.641118 
L 665.278915 157.240884 
L 665.9359 125.031466 
L 666.592885 119.045771 
L 667.24987 132.632682 
L 667.906855 152.024688 
L 668.56384 151.25967 
L 669.220825 120.60228 
L 669.87781 148.896372 
L 670.534795 147.148402 
L 671.19178 148.680968 
L 671.848765 162.021765 
L 672.50575 149.691999 
L 673.162735 123.478543 
L 673.81972 169.27875 
L 674.476705 163.733755 
L 675.13369 128.596467 
L 675.790675 137.980088 
L 676.44766 164.512003 
L 677.104645 141.191546 
L 677.76163 131.569271 
L 678.418615 162.217664 
L 679.0756 145.143059 
L 679.732585 133.178355 
L 680.38957 132.991936 
L 681.046555 146.156883 
L 681.70354 163.782366 
L 682.360525 139.899424 
L 683.01751 162.688383 
L 683.674495 131.244332 
L 684.33148 151.470895 
L 684.988465 146.86024 
L 685.64545 129.358263 
L 686.302435 149.437265 
L 686.95942 122.444051 
L 687.616405 161.131267 
L 688.930375 136.61318 
L 689.58736 137.43459 
L 690.244345 135.773861 
L 690.90133 110.445881 
L 691.558315 136.362837 
L 692.2153 154.87682 
L 692.872285 167.418487 
L 693.52927 149.363709 
L 694.186255 148.963841 
L 694.84324 151.568121 
L 695.500225 172.33184 
L 696.15721 170.978042 
L 697.47118 155.254492 
L 698.128165 170.465674 
L 698.78515 177.376102 
L 699.442135 161.916468 
L 700.09912 162.638329 
L 700.756105 156.219779 
L 701.41309 178.07684 
L 702.070075 169.079364 
L 702.72706 191.013344 
L 703.384045 174.796379 
L 704.04103 188.180183 
L 704.698015 169.550092 
L 704.698015 169.550092 
" clip-path="url(#pde843be38f)" style="fill: none; stroke-dasharray: 5.55,2.4; stroke-dashoffset: 0; stroke: #ff7f0e; stroke-width: 1.5"/>
   </g>
   <g id="patch_3">
    <path d="M 48.37 398.84 
L 48.37 18.08 
" style="fill: none; stroke: #000000; stroke-width: 0.8; stroke-linejoin: miter; stroke-linecap: square"/>
   </g>
   <g id="patch_4">
    <path d="M 705.355 398.84 
L 705.355 18.08 
" style="fill: none; stroke: #000000; stroke-width: 0.8; stroke-linejoin: miter; stroke-linecap: square"/>
   </g>
   <g id="patch_5">
    <path d="M 48.37 398.84 
L 705.355 398.84 
" style="fill: none; stroke: #000000; stroke-width: 0.8; stroke-linejoin: miter; stroke-linecap: square"/>
   </g>
   <g id="patch_6">
    <path d="M 48.37 18.08 
L 705.355 18.08 
" style="fill: none; stroke: #000000; stroke-width: 0.8; stroke-linejoin: miter; stroke-linecap: square"/>
   </g>
   <g id="text_20">
    <!-- GA Evolution (Simulation #45) -->
    <g transform="translate(285.108438 12.08) scale(0.12 -0.12)">
     <defs>
      <path id="DejaVuSans-41" d="M 2188 4044 
L 1331 1722 
L 3047 1722 
L 2188 4044 
z
M 1831 4666 
L 2547 4666 
L 4325 0 
L 3669 0 
L 3244 1197 
L 1141 1197 
L 716 0 
L 50 0 
L 1831 4666 
z
" transform="scale(0.015625)"/>
      <path id="DejaVuSans-45" d="M 628 4666 
L 3578 4666 
L 3578 4134 
L 1259 4134 
L 1259 2753 
L 3481 2753 
L 3481 2222 
L 1259 2222 
L 1259 531 
L 3634 531 
L 3634 0 
L 628 0 
L 628 4666 
z
" transform="scale(0.015625)"/>
      <path id="DejaVuSans-28" d="M 1984 4856 
Q 1566 4138 1362 3434 
Q 1159 2731 1159 2009 
Q 1159 1288 1364 580 
Q 1569 -128 1984 -844 
L 1484 -844 
Q 1016 -109 783 600 
Q 550 1309 550 2009 
Q 550 2706 781 3412 
Q 1013 4119 1484 4856 
L 1984 4856 
z
" transform="scale(0.015625)"/>
      <path id="DejaVuSans-53" d="M 3425 4513 
L 3425 3897 
Q 3066 4069 2747 4153 
Q 2428 4238 2131 4238 
Q 1616 4238 1336 4038 
Q 1056 3838 1056 3469 
Q 1056 3159 1242 3001 
Q 1428 2844 1947 2747 
L 2328 2669 
Q 3034 2534 3370 2195 
Q 3706 1856 3706 1288 
Q 3706 609 3251 259 
Q 2797 -91 1919 -91 
Q 1588 -91 1214 -16 
Q 841 59 441 206 
L 441 856 
Q 825 641 1194 531 
Q 1563 422 1919 422 
Q 2459 422 2753 634 
Q 3047 847 3047 1241 
Q 3047 1584 2836 1778 
Q 2625 1972 2144 2069 
L 1759 2144 
Q 1053 2284 737 2584 
Q 422 2884 422 3419 
Q 422 4038 858 4394 
Q 1294 4750 2059 4750 
Q 2388 4750 2728 4690 
Q 3069 4631 3425 4513 
z
" transform="scale(0.015625)"/>
      <path id="DejaVuSans-6d" d="M 3328 2828 
Q 3544 3216 3844 3400 
Q 4144 3584 4550 3584 
Q 5097 3584 5394 3201 
Q 5691 2819 5691 2113 
L 5691 0 
L 5113 0 
L 5113 2094 
Q 5113 2597 4934 2840 
Q 4756 3084 4391 3084 
Q 3944 3084 3684 2787 
Q 3425 2491 3425 1978 
L 3425 0 
L 2847 0 
L 2847 2094 
Q 2847 2600 2669 2842 
Q 2491 3084 2119 3084 
Q 1678 3084 1418 2786 
Q 1159 2488 1159 1978 
L 1159 0 
L 581 0 
L 581 3500 
L 1159 3500 
L 1159 2956 
Q 1356 3278 1631 3431 
Q 1906 3584 2284 3584 
Q 2666 3584 2933 3390 
Q 3200 3197 3328 2828 
z
" transform="scale(0.015625)"/>
      <path id="DejaVuSans-23" d="M 3272 2816 
L 2363 2816 
L 2100 1772 
L 3016 1772 
L 3272 2816 
z
M 2803 4594 
L 2478 3297 
L 3391 3297 
L 3719 4594 
L 4219 4594 
L 3897 3297 
L 4872 3297 
L 4872 2816 
L 3775 2816 
L 3519 1772 
L 4513 1772 
L 4513 1294 
L 3397 1294 
L 3072 0 
L 2572 0 
L 2894 1294 
L 1978 1294 
L 1656 0 
L 1153 0 
L 1478 1294 
L 494 1294 
L 494 1772 
L 1594 1772 
L 1856 2816 
L 850 2816 
L 850 3297 
L 1978 3297 
L 2297 4594 
L 2803 4594 
z
" transform="scale(0.015625)"/>
      <path id="DejaVuSans-29" d="M 513 4856 
L 1013 4856 
Q 1481 4119 1714 3412 
Q 1947 2706 1947 2009 
Q 1947 1309 1714 600 
Q 1481 -109 1013 -844 
L 513 -844 
Q 928 -128 1133 580 
Q 1338 1288 1338 2009 
Q 1338 2731 1133 3434 
Q 928 4138 513 4856 
z
" transform="scale(0.015625)"/>
     </defs>
     <use xlink:href="#DejaVuSans-47"/>
     <use xlink:href="#DejaVuSans-41" transform="translate(77.490234 0)"/>
     <use xlink:href="#DejaVuSans-20" transform="translate(145.898438 0)"/>
     <use xlink:href="#DejaVuSans-45" transform="translate(177.685547 0)"/>
     <use xlink:href="#DejaVuSans-76" transform="translate(240.869141 0)"/>
     <use xlink:href="#DejaVuSans-6f" transform="translate(300.048828 0)"/>
     <use xlink:href="#DejaVuSans-6c" transform="translate(361.230469 0)"/>
     <use xlink:href="#DejaVuSans-75" transform="translate(389.013672 0)"/>
     <use xlink:href="#DejaVuSans-74" transform="translate(452.392578 0)"/>
     <use xlink:href="#DejaVuSans-69" transform="translate(491.601562 0)"/>
     <use xlink:href="#DejaVuSans-6f" transform="translate(519.384766 0)"/>
     <use xlink:href="#DejaVuSans-6e" transform="translate(580.566406 0)"/>
     <use xlink:href="#DejaVuSans-20" transform="translate(643.945312 0)"/>
     <use xlink:href="#DejaVuSans-28" transform="translate(675.732422 0)"/>
     <use xlink:href="#DejaVuSans-53" transform="translate(714.746094 0)"/>
     <use xlink:href="#DejaVuSans-69" transform="translate(778.222656 0)"/>
     <use xlink:href="#DejaVuSans-6d" transform="translate(806.005859 0)"/>
     <use xlink:href="#DejaVuSans-75" transform="translate(903.417969 0)"/>
     <use xlink:href="#DejaVuSans-6c" transform="translate(966.796875 0)"/>
     <use xlink:href="#DejaVuSans-61" transform="translate(994.580078 0)"/>
     <use xlink:href="#DejaVuSans-74" transform="translate(1055.859375 0)"/>
     <use xlink:href="#DejaVuSans-69" transform="translate(1095.068359 0)"/>
     <use xlink:href="#DejaVuSans-6f" transform="translate(1122.851562 0)"/>
     <use xlink:href="#DejaVuSans-6e" transform="translate(1184.033203 0)"/>
     <use xlink:href="#DejaVuSans-20" transform="translate(1247.412109 0)"/>
     <use xlink:href="#DejaVuSans-23" transform="translate(1279.199219 0)"/>
     <use xlink:href="#DejaVuSans-34" transform="translate(1362.988281 0)"/>
     <use xlink:href="#DejaVuSans-35" transform="translate(1426.611328 0)"/>
     <use xlink:href="#DejaVuSans-29" transform="translate(1490.234375 0)"/>
    </g>
   </g>
   <g id="legend_1">
    <g id="patch_7">
     <path d="M 561.906563 55.43625 
L 698.355 55.43625 
Q 700.355 55.43625 700.355 53.43625 
L 700.355 25.08 
Q 700.355 23.08 698.355 23.08 
L 561.906563 23.08 
Q 559.906563 23.08 559.906563 25.08 
L 559.906563 53.43625 
Q 559.906563 55.43625 561.906563 55.43625 
z
" style="fill: #ffffff; opacity: 0.8; stroke: #cccccc; stroke-linejoin: miter"/>
    </g>
    <g id="line2d_37">
     <path d="M 563.906563 31.178437 
L 573.906563 31.178437 
L 573.906563 31.178437 
L 583.906563 31.178437 
L 583.906563 31.178437 
" style="fill: none; stroke: #1f77b4; stroke-width: 1.5; stroke-linecap: square"/>
    </g>
    <g id="text_21">
     <!-- Best Fitness (GA) -->
     <g transform="translate(591.906563 34.678437) scale(0.1 -0.1)">
      <defs>
       <path id="DejaVuSans-42" d="M 1259 2228 
L 1259 519 
L 2272 519 
Q 2781 519 3026 730 
Q 3272 941 3272 1375 
Q 3272 1813 3026 2020 
Q 2781 2228 2272 2228 
L 1259 2228 
z
M 1259 4147 
L 1259 2741 
L 2194 2741 
Q 2656 2741 2882 2914 
Q 3109 3088 3109 3444 
Q 3109 3797 2882 3972 
Q 2656 4147 2194 4147 
L 1259 4147 
z
M 628 4666 
L 2241 4666 
Q 2963 4666 3353 4366 
Q 3744 4066 3744 3513 
Q 3744 3084 3544 2831 
Q 3344 2578 2956 2516 
Q 3422 2416 3680 2098 
Q 3938 1781 3938 1306 
Q 3938 681 3513 340 
Q 3088 0 2303 0 
L 628 0 
L 628 4666 
z
" transform="scale(0.015625)"/>
       <path id="DejaVuSans-73" d="M 2834 3397 
L 2834 2853 
Q 2591 2978 2328 3040 
Q 2066 3103 1784 3103 
Q 1356 3103 1142 2972 
Q 928 2841 928 2578 
Q 928 2378 1081 2264 
Q 1234 2150 1697 2047 
L 1894 2003 
Q 2506 1872 2764 1633 
Q 3022 1394 3022 966 
Q 3022 478 2636 193 
Q 2250 -91 1575 -91 
Q 1294 -91 989 -36 
Q 684 19 347 128 
L 347 722 
Q 666 556 975 473 
Q 1284 391 1588 391 
Q 1994 391 2212 530 
Q 2431 669 2431 922 
Q 2431 1156 2273 1281 
Q 2116 1406 1581 1522 
L 1381 1569 
Q 847 1681 609 1914 
Q 372 2147 372 2553 
Q 372 3047 722 3315 
Q 1072 3584 1716 3584 
Q 2034 3584 2315 3537 
Q 2597 3491 2834 3397 
z
" transform="scale(0.015625)"/>
       <path id="DejaVuSans-46" d="M 628 4666 
L 3309 4666 
L 3309 4134 
L 1259 4134 
L 1259 2759 
L 3109 2759 
L 3109 2228 
L 1259 2228 
L 1259 0 
L 628 0 
L 628 4666 
z
" transform="scale(0.015625)"/>
      </defs>
      <use xlink:href="#DejaVuSans-42"/>
      <use xlink:href="#DejaVuSans-65" transform="translate(68.603516 0)"/>
      <use xlink:href="#DejaVuSans-73" transform="translate(130.126953 0)"/>
      <use xlink:href="#DejaVuSans-74" transform="translate(182.226562 0)"/>
      <use xlink:href="#DejaVuSans-20" transform="translate(221.435547 0)"/>
      <use xlink:href="#DejaVuSans-46" transform="translate(253.222656 0)"/>
      <use xlink:href="#DejaVuSans-69" transform="translate(303.492188 0)"/>
      <use xlink:href="#DejaVuSans-74" transform="translate(331.275391 0)"/>
      <use xlink:href="#DejaVuSans-6e" transform="translate(370.484375 0)"/>
      <use xlink:href="#DejaVuSans-65" transform="translate(433.863281 0)"/>
      <use xlink:href="#DejaVuSans-73" transform="translate(495.386719 0)"/>
      <use xlink:href="#DejaVuSans-73" transform="translate(547.486328 0)"/>
      <use xlink:href="#DejaVuSans-20" transform="translate(599.585938 0)"/>
      <use xlink:href="#DejaVuSans-28" transform="translate(631.373047 0)"/>
      <use xlink:href="#DejaVuSans-47" transform="translate(670.386719 0)"/>
      <use xlink:href="#DejaVuSans-41" transform="translate(747.876953 0)"/>
      <use xlink:href="#DejaVuSans-29" transform="translate(816.285156 0)"/>
     </g>
    </g>
    <g id="line2d_38">
     <path d="M 563.906563 45.856562 
L 573.906563 45.856562 
L 583.906563 45.856562 
" style="fill: none; stroke-dasharray: 5.55,2.4; stroke-dashoffset: 0; stroke: #ff7f0e; stroke-width: 1.5"/>
    </g>
    <g id="text_22">
     <!-- Average Fitness (GA) -->
     <g transform="translate(591.906563 49.356562) scale(0.1 -0.1)">
      <defs>
       <path id="DejaVuSans-67" d="M 2906 1791 
Q 2906 2416 2648 2759 
Q 2391 3103 1925 3103 
Q 1463 3103 1205 2759 
Q 947 2416 947 1791 
Q 947 1169 1205 825 
Q 1463 481 1925 481 
Q 2391 481 2648 825 
Q 2906 1169 2906 1791 
z
M 3481 434 
Q 3481 -459 3084 -895 
Q 2688 -1331 1869 -1331 
Q 1566 -1331 1297 -1286 
Q 1028 -1241 775 -1147 
L 775 -588 
Q 1028 -725 1275 -790 
Q 1522 -856 1778 -856 
Q 2344 -856 2625 -561 
Q 2906 -266 2906 331 
L 2906 616 
Q 2728 306 2450 153 
Q 2172 0 1784 0 
Q 1141 0 747 490 
Q 353 981 353 1791 
Q 353 2603 747 3093 
Q 1141 3584 1784 3584 
Q 2172 3584 2450 3431 
Q 2728 3278 2906 2969 
L 2906 3500 
L 3481 3500 
L 3481 434 
z
" transform="scale(0.015625)"/>
      </defs>
      <use xlink:href="#DejaVuSans-41"/>
      <use xlink:href="#DejaVuSans-76" transform="translate(62.533203 0)"/>
      <use xlink:href="#DejaVuSans-65" transform="translate(121.712891 0)"/>
      <use xlink:href="#DejaVuSans-72" transform="translate(183.236328 0)"/>
      <use xlink:href="#DejaVuSans-61" transform="translate(224.349609 0)"/>
      <use xlink:href="#DejaVuSans-67" transform="translate(285.628906 0)"/>
      <use xlink:href="#DejaVuSans-65" transform="translate(349.105469 0)"/>
      <use xlink:href="#DejaVuSans-20" transform="translate(410.628906 0)"/>
      <use xlink:href="#DejaVuSans-46" transform="translate(442.416016 0)"/>
      <use xlink:href="#DejaVuSans-69" transform="translate(492.685547 0)"/>
      <use xlink:href="#DejaVuSans-74" transform="translate(520.46875 0)"/>
      <use xlink:href="#DejaVuSans-6e" transform="translate(559.677734 0)"/>
      <use xlink:href="#DejaVuSans-65" transform="translate(623.056641 0)"/>
      <use xlink:href="#DejaVuSans-73" transform="translate(684.580078 0)"/>
      <use xlink:href="#DejaVuSans-73" transform="translate(736.679688 0)"/>
      <use xlink:href="#DejaVuSans-20" transform="translate(788.779297 0)"/>
      <use xlink:href="#DejaVuSans-28" transform="translate(820.566406 0)"/>
      <use xlink:href="#DejaVuSans-47" transform="translate(859.580078 0)"/>
      <use xlink:href="#DejaVuSans-41" transform="translate(937.070312 0)"/>
      <use xlink:href="#DejaVuSans-29" transform="translate(1005.478516 0)"/>
     </g>
    </g>
   </g>
  </g>
 </g>
 <defs>
  <clipPath id="pde843be38f">
   <rect x="48.37" y="18.08" width="656.985" height="380.76"/>
  </clipPath>
 </defs>
</svg>
