<?xml version="1.0" encoding="utf-8" standalone="no"?>
<!DOCTYPE svg PUBLIC "-//W3C//DTD SVG 1.1//EN"
  "http://www.w3.org/Graphics/SVG/1.1/DTD/svg11.dtd">
<svg xmlns:xlink="http://www.w3.org/1999/xlink" width="720pt" height="432pt" viewBox="0 0 720 432" xmlns="http://www.w3.org/2000/svg" version="1.1">
 <metadata>
  <rdf:RDF xmlns:dc="http://purl.org/dc/elements/1.1/" xmlns:cc="http://creativecommons.org/ns#" xmlns:rdf="http://www.w3.org/1999/02/22-rdf-syntax-ns#">
   <cc:Work>
    <dc:type rdf:resource="http://purl.org/dc/dcmitype/StillImage"/>
    <dc:date>2026-05-05T23:12:46.095908</dc:date>
    <dc:format>image/svg+xml</dc:format>
    <dc:creator>
     <cc:Agent>
      <dc:title>Matplotlib v3.10.9, https://matplotlib.org/</dc:title>
     </cc:Agent>
    </dc:creator>
   </cc:Work>
  </rdf:RDF>
 </metadata>
 <defs>
  <style type="text/css">*{stroke-linejoin: round; stroke-linecap: butt}</style>
 </defs>
 <g id="figure_1">
  <g id="patch_1">
   <path d="M 0 432 
L 720 432 
L 720 0 
L 0 0 
z
" style="fill: #ffffff"/>
  </g>
  <g id="axes_1">
   <g id="patch_2">
    <path d="M 48.46 398.84 
L 705.355 398.84 
L 705.355 18.08 
L 48.46 18.08 
z
" style="fill: #ffffff"/>
   </g>
   <g id="matplotlib.axis_1">
    <g id="xtick_1">
     <g id="line2d_1">
      <path d="M 48.46 398.84 
L 48.46 18.08 
" clip-path="url(#pbb7ccbbacc)" style="fill: none; stroke-dasharray: 0.8,1.32; stroke-dashoffset: 0; stroke: #b0b0b0; stroke-opacity: 0.7; stroke-width: 0.8"/>
     </g>
     <g id="line2d_2">
      <defs>
       <path id="m47b8244740" d="M 0 0 
L 0 3.5 
" style="stroke: #000000; stroke-width: 0.8"/>
      </defs>
      <g>
       <use xlink:href="#m47b8244740" x="48.46" y="398.84" style="stroke: #000000; stroke-width: 0.8"/>
      </g>
     </g>
     <g id="text_1">
      <!-- 0 -->
      <g transform="translate(45.27875 413.438437) scale(0.1 -0.1)">
       <defs>
        <path id="DejaVuSans-30" d="M 2034 4250 
Q 1547 4250 1301 3770 
Q 1056 3291 1056 2328 
Q 1056 1369 1301 889 
Q 1547 409 2034 409 
Q 2525 409 2770 889 
Q 3016 1369 3016 2328 
Q 3016 3291 2770 3770 
Q 2525 4250 2034 4250 
z
M 2034 4750 
Q 2819 4750 3233 4129 
Q 3647 3509 3647 2328 
Q 3647 1150 3233 529 
Q 2819 -91 2034 -91 
Q 1250 -91 836 529 
Q 422 1150 422 2328 
Q 422 3509 836 4129 
Q 1250 4750 2034 4750 
z
" transform="scale(0.015625)"/>
       </defs>
       <use xlink:href="#DejaVuSans-30"/>
      </g>
     </g>
    </g>
    <g id="xtick_2">
     <g id="line2d_3">
      <path d="M 114.1495 398.84 
L 114.1495 18.08 
" clip-path="url(#pbb7ccbbacc)" style="fill: none; stroke-dasharray: 0.8,1.32; stroke-dashoffset: 0; stroke: #b0b0b0; stroke-opacity: 0.7; stroke-width: 0.8"/>
     </g>
     <g id="line2d_4">
      <g>
       <use xlink:href="#m47b8244740" x="114.1495" y="398.84" style="stroke: #000000; stroke-width: 0.8"/>
      </g>
     </g>
     <g id="text_2">
      <!-- 100 -->
      <g transform="translate(104.60575 413.438437) scale(0.1 -0.1)">
       <defs>
        <path id="DejaVuSans-31" d="M 794 531 
L 1825 531 
L 1825 4091 
L 703 3866 
L 703 4441 
L 1819 4666 
L 2450 4666 
L 2450 531 
L 3481 531 
L 3481 0 
L 794 0 
L 794 531 
z
" transform="scale(0.015625)"/>
       </defs>
       <use xlink:href="#DejaVuSans-31"/>
       <use xlink:href="#DejaVuSans-30" transform="translate(63.623047 0)"/>
       <use xlink:href="#DejaVuSans-30" transform="translate(127.246094 0)"/>
      </g>
     </g>
    </g>
    <g id="xtick_3">
     <g id="line2d_5">
      <path d="M 179.839 398.84 
L 179.839 18.08 
" clip-path="url(#pbb7ccbbacc)" style="fill: none; stroke-dasharray: 0.8,1.32; stroke-dashoffset: 0; stroke: #b0b0b0; stroke-opacity: 0.7; stroke-width: 0.8"/>
     </g>
     <g id="line2d_6">
      <g>
       <use xlink:href="#m47b8244740" x="179.839" y="398.84" style="stroke: #000000; stroke-width: 0.8"/>
      </g>
     </g>
     <g id="text_3">
      <!-- 200 -->
      <g transform="translate(170.29525 413.438437) scale(0.1 -0.1)">
       <defs>
        <path id="DejaVuSans-32" d="M 1228 531 
L 3431 531 
L 3431 0 
L 469 0 
L 469 531 
Q 828 903 1448 1529 
Q 2069 2156 2228 2338 
Q 2531 2678 2651 2914 
Q 2772 3150 2772 3378 
Q 2772 3750 2511 3984 
Q 2250 4219 1831 4219 
Q 1534 4219 1204 4116 
Q 875 4013 500 3803 
L 500 4441 
Q 881 4594 1212 4672 
Q 1544 4750 1819 4750 
Q 2544 4750 2975 4387 
Q 3406 4025 3406 3419 
Q 3406 3131 3298 2873 
Q 3191 2616 2906 2266 
Q 2828 2175 2409 1742 
Q 1991 1309 1228 531 
z
" transform="scale(0.015625)"/>
       </defs>
       <use xlink:href="#DejaVuSans-32"/>
       <use xlink:href="#DejaVuSans-30" transform="translate(63.623047 0)"/>
       <use xlink:href="#DejaVuSans-30" transform="translate(127.246094 0)"/>
      </g>
     </g>
    </g>
    <g id="xtick_4">
     <g id="line2d_7">
      <path d="M 245.5285 398.84 
L 245.5285 18.08 
" clip-path="url(#pbb7ccbbacc)" style="fill: none; stroke-dasharray: 0.8,1.32; stroke-dashoffset: 0; stroke: #b0b0b0; stroke-opacity: 0.7; stroke-width: 0.8"/>
     </g>
     <g id="line2d_8">
      <g>
       <use xlink:href="#m47b8244740" x="245.5285" y="398.84" style="stroke: #000000; stroke-width: 0.8"/>
      </g>
     </g>
     <g id="text_4">
      <!-- 300 -->
      <g transform="translate(235.98475 413.438437) scale(0.1 -0.1)">
       <defs>
        <path id="DejaVuSans-33" d="M 2597 2516 
Q 3050 2419 3304 2112 
Q 3559 1806 3559 1356 
Q 3559 666 3084 287 
Q 2609 -91 1734 -91 
Q 1441 -91 1130 -33 
Q 819 25 488 141 
L 488 750 
Q 750 597 1062 519 
Q 1375 441 1716 441 
Q 2309 441 2620 675 
Q 2931 909 2931 1356 
Q 2931 1769 2642 2001 
Q 2353 2234 1838 2234 
L 1294 2234 
L 1294 2753 
L 1863 2753 
Q 2328 2753 2575 2939 
Q 2822 3125 2822 3475 
Q 2822 3834 2567 4026 
Q 2313 4219 1838 4219 
Q 1578 4219 1281 4162 
Q 984 4106 628 3988 
L 628 4550 
Q 988 4650 1302 4700 
Q 1616 4750 1894 4750 
Q 2613 4750 3031 4423 
Q 3450 4097 3450 3541 
Q 3450 3153 3228 2886 
Q 3006 2619 2597 2516 
z
" transform="scale(0.015625)"/>
       </defs>
       <use xlink:href="#DejaVuSans-33"/>
       <use xlink:href="#DejaVuSans-30" transform="translate(63.623047 0)"/>
       <use xlink:href="#DejaVuSans-30" transform="translate(127.246094 0)"/>
      </g>
     </g>
    </g>
    <g id="xtick_5">
     <g id="line2d_9">
      <path d="M 311.218 398.84 
L 311.218 18.08 
" clip-path="url(#pbb7ccbbacc)" style="fill: none; stroke-dasharray: 0.8,1.32; stroke-dashoffset: 0; stroke: #b0b0b0; stroke-opacity: 0.7; stroke-width: 0.8"/>
     </g>
     <g id="line2d_10">
      <g>
       <use xlink:href="#m47b8244740" x="311.218" y="398.84" style="stroke: #000000; stroke-width: 0.8"/>
      </g>
     </g>
     <g id="text_5">
      <!-- 400 -->
      <g transform="translate(301.67425 413.438437) scale(0.1 -0.1)">
       <defs>
        <path id="DejaVuSans-34" d="M 2419 4116 
L 825 1625 
L 2419 1625 
L 2419 4116 
z
M 2253 4666 
L 3047 4666 
L 3047 1625 
L 3713 1625 
L 3713 1100 
L 3047 1100 
L 3047 0 
L 2419 0 
L 2419 1100 
L 313 1100 
L 313 1709 
L 2253 4666 
z
" transform="scale(0.015625)"/>
       </defs>
       <use xlink:href="#DejaVuSans-34"/>
       <use xlink:href="#DejaVuSans-30" transform="translate(63.623047 0)"/>
       <use xlink:href="#DejaVuSans-30" transform="translate(127.246094 0)"/>
      </g>
     </g>
    </g>
    <g id="xtick_6">
     <g id="line2d_11">
      <path d="M 376.9075 398.84 
L 376.9075 18.08 
" clip-path="url(#pbb7ccbbacc)" style="fill: none; stroke-dasharray: 0.8,1.32; stroke-dashoffset: 0; stroke: #b0b0b0; stroke-opacity: 0.7; stroke-width: 0.8"/>
     </g>
     <g id="line2d_12">
      <g>
       <use xlink:href="#m47b8244740" x="376.9075" y="398.84" style="stroke: #000000; stroke-width: 0.8"/>
      </g>
     </g>
     <g id="text_6">
      <!-- 500 -->
      <g transform="translate(367.36375 413.438437) scale(0.1 -0.1)">
       <defs>
        <path id="DejaVuSans-35" d="M 691 4666 
L 3169 4666 
L 3169 4134 
L 1269 4134 
L 1269 2991 
Q 1406 3038 1543 3061 
Q 1681 3084 1819 3084 
Q 2600 3084 3056 2656 
Q 3513 2228 3513 1497 
Q 3513 744 3044 326 
Q 2575 -91 1722 -91 
Q 1428 -91 1123 -41 
Q 819 9 494 109 
L 494 744 
Q 775 591 1075 516 
Q 1375 441 1709 441 
Q 2250 441 2565 725 
Q 2881 1009 2881 1497 
Q 2881 1984 2565 2268 
Q 2250 2553 1709 2553 
Q 1456 2553 1204 2497 
Q 953 2441 691 2322 
L 691 4666 
z
" transform="scale(0.015625)"/>
       </defs>
       <use xlink:href="#DejaVuSans-35"/>
       <use xlink:href="#DejaVuSans-30" transform="translate(63.623047 0)"/>
       <use xlink:href="#DejaVuSans-30" transform="translate(127.246094 0)"/>
      </g>
     </g>
    </g>
    <g id="xtick_7">
     <g id="line2d_13">
      <path d="M 442.597 398.84 
L 442.597 18.08 
" clip-path="url(#pbb7ccbbacc)" style="fill: none; stroke-dasharray: 0.8,1.32; stroke-dashoffset: 0; stroke: #b0b0b0; stroke-opacity: 0.7; stroke-width: 0.8"/>
     </g>
     <g id="line2d_14">
      <g>
       <use xlink:href="#m47b8244740" x="442.597" y="398.84" style="stroke: #000000; stroke-width: 0.8"/>
      </g>
     </g>
     <g id="text_7">
      <!-- 600 -->
      <g transform="translate(433.05325 413.438437) scale(0.1 -0.1)">
       <defs>
        <path id="DejaVuSans-36" d="M 2113 2584 
Q 1688 2584 1439 2293 
Q 1191 2003 1191 1497 
Q 1191 994 1439 701 
Q 1688 409 2113 409 
Q 2538 409 2786 701 
Q 3034 994 3034 1497 
Q 3034 2003 2786 2293 
Q 2538 2584 2113 2584 
z
M 3366 4563 
L 3366 3988 
Q 3128 4100 2886 4159 
Q 2644 4219 2406 4219 
Q 1781 4219 1451 3797 
Q 1122 3375 1075 2522 
Q 1259 2794 1537 2939 
Q 1816 3084 2150 3084 
Q 2853 3084 3261 2657 
Q 3669 2231 3669 1497 
Q 3669 778 3244 343 
Q 2819 -91 2113 -91 
Q 1303 -91 875 529 
Q 447 1150 447 2328 
Q 447 3434 972 4092 
Q 1497 4750 2381 4750 
Q 2619 4750 2861 4703 
Q 3103 4656 3366 4563 
z
" transform="scale(0.015625)"/>
       </defs>
       <use xlink:href="#DejaVuSans-36"/>
       <use xlink:href="#DejaVuSans-30" transform="translate(63.623047 0)"/>
       <use xlink:href="#DejaVuSans-30" transform="translate(127.246094 0)"/>
      </g>
     </g>
    </g>
    <g id="xtick_8">
     <g id="line2d_15">
      <path d="M 508.2865 398.84 
L 508.2865 18.08 
" clip-path="url(#pbb7ccbbacc)" style="fill: none; stroke-dasharray: 0.8,1.32; stroke-dashoffset: 0; stroke: #b0b0b0; stroke-opacity: 0.7; stroke-width: 0.8"/>
     </g>
     <g id="line2d_16">
      <g>
       <use xlink:href="#m47b8244740" x="508.2865" y="398.84" style="stroke: #000000; stroke-width: 0.8"/>
      </g>
     </g>
     <g id="text_8">
      <!-- 700 -->
      <g transform="translate(498.74275 413.438437) scale(0.1 -0.1)">
       <defs>
        <path id="DejaVuSans-37" d="M 525 4666 
L 3525 4666 
L 3525 4397 
L 1831 0 
L 1172 0 
L 2766 4134 
L 525 4134 
L 525 4666 
z
" transform="scale(0.015625)"/>
       </defs>
       <use xlink:href="#DejaVuSans-37"/>
       <use xlink:href="#DejaVuSans-30" transform="translate(63.623047 0)"/>
       <use xlink:href="#DejaVuSans-30" transform="translate(127.246094 0)"/>
      </g>
     </g>
    </g>
    <g id="xtick_9">
     <g id="line2d_17">
      <path d="M 573.976 398.84 
L 573.976 18.08 
" clip-path="url(#pbb7ccbbacc)" style="fill: none; stroke-dasharray: 0.8,1.32; stroke-dashoffset: 0; stroke: #b0b0b0; stroke-opacity: 0.7; stroke-width: 0.8"/>
     </g>
     <g id="line2d_18">
      <g>
       <use xlink:href="#m47b8244740" x="573.976" y="398.84" style="stroke: #000000; stroke-width: 0.8"/>
      </g>
     </g>
     <g id="text_9">
      <!-- 800 -->
      <g transform="translate(564.43225 413.438437) scale(0.1 -0.1)">
       <defs>
        <path id="DejaVuSans-38" d="M 2034 2216 
Q 1584 2216 1326 1975 
Q 1069 1734 1069 1313 
Q 1069 891 1326 650 
Q 1584 409 2034 409 
Q 2484 409 2743 651 
Q 3003 894 3003 1313 
Q 3003 1734 2745 1975 
Q 2488 2216 2034 2216 
z
M 1403 2484 
Q 997 2584 770 2862 
Q 544 3141 544 3541 
Q 544 4100 942 4425 
Q 1341 4750 2034 4750 
Q 2731 4750 3128 4425 
Q 3525 4100 3525 3541 
Q 3525 3141 3298 2862 
Q 3072 2584 2669 2484 
Q 3125 2378 3379 2068 
Q 3634 1759 3634 1313 
Q 3634 634 3220 271 
Q 2806 -91 2034 -91 
Q 1263 -91 848 271 
Q 434 634 434 1313 
Q 434 1759 690 2068 
Q 947 2378 1403 2484 
z
M 1172 3481 
Q 1172 3119 1398 2916 
Q 1625 2713 2034 2713 
Q 2441 2713 2670 2916 
Q 2900 3119 2900 3481 
Q 2900 3844 2670 4047 
Q 2441 4250 2034 4250 
Q 1625 4250 1398 4047 
Q 1172 3844 1172 3481 
z
" transform="scale(0.015625)"/>
       </defs>
       <use xlink:href="#DejaVuSans-38"/>
       <use xlink:href="#DejaVuSans-30" transform="translate(63.623047 0)"/>
       <use xlink:href="#DejaVuSans-30" transform="translate(127.246094 0)"/>
      </g>
     </g>
    </g>
    <g id="xtick_10">
     <g id="line2d_19">
      <path d="M 639.6655 398.84 
L 639.6655 18.08 
" clip-path="url(#pbb7ccbbacc)" style="fill: none; stroke-dasharray: 0.8,1.32; stroke-dashoffset: 0; stroke: #b0b0b0; stroke-opacity: 0.7; stroke-width: 0.8"/>
     </g>
     <g id="line2d_20">
      <g>
       <use xlink:href="#m47b8244740" x="639.6655" y="398.84" style="stroke: #000000; stroke-width: 0.8"/>
      </g>
     </g>
     <g id="text_10">
      <!-- 900 -->
      <g transform="translate(630.12175 413.438437) scale(0.1 -0.1)">
       <defs>
        <path id="DejaVuSans-39" d="M 703 97 
L 703 672 
Q 941 559 1184 500 
Q 1428 441 1663 441 
Q 2288 441 2617 861 
Q 2947 1281 2994 2138 
Q 2813 1869 2534 1725 
Q 2256 1581 1919 1581 
Q 1219 1581 811 2004 
Q 403 2428 403 3163 
Q 403 3881 828 4315 
Q 1253 4750 1959 4750 
Q 2769 4750 3195 4129 
Q 3622 3509 3622 2328 
Q 3622 1225 3098 567 
Q 2575 -91 1691 -91 
Q 1453 -91 1209 -44 
Q 966 3 703 97 
z
M 1959 2075 
Q 2384 2075 2632 2365 
Q 2881 2656 2881 3163 
Q 2881 3666 2632 3958 
Q 2384 4250 1959 4250 
Q 1534 4250 1286 3958 
Q 1038 3666 1038 3163 
Q 1038 2656 1286 2365 
Q 1534 2075 1959 2075 
z
" transform="scale(0.015625)"/>
       </defs>
       <use xlink:href="#DejaVuSans-39"/>
       <use xlink:href="#DejaVuSans-30" transform="translate(63.623047 0)"/>
       <use xlink:href="#DejaVuSans-30" transform="translate(127.246094 0)"/>
      </g>
     </g>
    </g>
    <g id="xtick_11">
     <g id="line2d_21">
      <path d="M 705.355 398.84 
L 705.355 18.08 
" clip-path="url(#pbb7ccbbacc)" style="fill: none; stroke-dasharray: 0.8,1.32; stroke-dashoffset: 0; stroke: #b0b0b0; stroke-opacity: 0.7; stroke-width: 0.8"/>
     </g>
     <g id="line2d_22">
      <g>
       <use xlink:href="#m47b8244740" x="705.355" y="398.84" style="stroke: #000000; stroke-width: 0.8"/>
      </g>
     </g>
     <g id="text_11">
      <!-- 1000 -->
      <g transform="translate(692.63 413.438437) scale(0.1 -0.1)">
       <use xlink:href="#DejaVuSans-31"/>
       <use xlink:href="#DejaVuSans-30" transform="translate(63.623047 0)"/>
       <use xlink:href="#DejaVuSans-30" transform="translate(127.246094 0)"/>
       <use xlink:href="#DejaVuSans-30" transform="translate(190.869141 0)"/>
      </g>
     </g>
    </g>
    <g id="text_12">
     <!-- Iteration / Generation -->
     <g transform="translate(322.943437 427.116562) scale(0.1 -0.1)">
      <defs>
       <path id="DejaVuSans-49" d="M 628 4666 
L 1259 4666 
L 1259 0 
L 628 0 
L 628 4666 
z
" transform="scale(0.015625)"/>
       <path id="DejaVuSans-74" d="M 1172 4494 
L 1172 3500 
L 2356 3500 
L 2356 3053 
L 1172 3053 
L 1172 1153 
Q 1172 725 1289 603 
Q 1406 481 1766 481 
L 2356 481 
L 2356 0 
L 1766 0 
Q 1100 0 847 248 
Q 594 497 594 1153 
L 594 3053 
L 172 3053 
L 172 3500 
L 594 3500 
L 594 4494 
L 1172 4494 
z
" transform="scale(0.015625)"/>
       <path id="DejaVuSans-65" d="M 3597 1894 
L 3597 1613 
L 953 1613 
Q 991 1019 1311 708 
Q 1631 397 2203 397 
Q 2534 397 2845 478 
Q 3156 559 3463 722 
L 3463 178 
Q 3153 47 2828 -22 
Q 2503 -91 2169 -91 
Q 1331 -91 842 396 
Q 353 884 353 1716 
Q 353 2575 817 3079 
Q 1281 3584 2069 3584 
Q 2775 3584 3186 3129 
Q 3597 2675 3597 1894 
z
M 3022 2063 
Q 3016 2534 2758 2815 
Q 2500 3097 2075 3097 
Q 1594 3097 1305 2825 
Q 1016 2553 972 2059 
L 3022 2063 
z
" transform="scale(0.015625)"/>
       <path id="DejaVuSans-72" d="M 2631 2963 
Q 2534 3019 2420 3045 
Q 2306 3072 2169 3072 
Q 1681 3072 1420 2755 
Q 1159 2438 1159 1844 
L 1159 0 
L 581 0 
L 581 3500 
L 1159 3500 
L 1159 2956 
Q 1341 3275 1631 3429 
Q 1922 3584 2338 3584 
Q 2397 3584 2469 3576 
Q 2541 3569 2628 3553 
L 2631 2963 
z
" transform="scale(0.015625)"/>
       <path id="DejaVuSans-61" d="M 2194 1759 
Q 1497 1759 1228 1600 
Q 959 1441 959 1056 
Q 959 750 1161 570 
Q 1363 391 1709 391 
Q 2188 391 2477 730 
Q 2766 1069 2766 1631 
L 2766 1759 
L 2194 1759 
z
M 3341 1997 
L 3341 0 
L 2766 0 
L 2766 531 
Q 2569 213 2275 61 
Q 1981 -91 1556 -91 
Q 1019 -91 701 211 
Q 384 513 384 1019 
Q 384 1609 779 1909 
Q 1175 2209 1959 2209 
L 2766 2209 
L 2766 2266 
Q 2766 2663 2505 2880 
Q 2244 3097 1772 3097 
Q 1472 3097 1187 3025 
Q 903 2953 641 2809 
L 641 3341 
Q 956 3463 1253 3523 
Q 1550 3584 1831 3584 
Q 2591 3584 2966 3190 
Q 3341 2797 3341 1997 
z
" transform="scale(0.015625)"/>
       <path id="DejaVuSans-69" d="M 603 3500 
L 1178 3500 
L 1178 0 
L 603 0 
L 603 3500 
z
M 603 4863 
L 1178 4863 
L 1178 4134 
L 603 4134 
L 603 4863 
z
" transform="scale(0.015625)"/>
       <path id="DejaVuSans-6f" d="M 1959 3097 
Q 1497 3097 1228 2736 
Q 959 2375 959 1747 
Q 959 1119 1226 758 
Q 1494 397 1959 397 
Q 2419 397 2687 759 
Q 2956 1122 2956 1747 
Q 2956 2369 2687 2733 
Q 2419 3097 1959 3097 
z
M 1959 3584 
Q 2709 3584 3137 3096 
Q 3566 2609 3566 1747 
Q 3566 888 3137 398 
Q 2709 -91 1959 -91 
Q 1206 -91 779 398 
Q 353 888 353 1747 
Q 353 2609 779 3096 
Q 1206 3584 1959 3584 
z
" transform="scale(0.015625)"/>
       <path id="DejaVuSans-6e" d="M 3513 2113 
L 3513 0 
L 2938 0 
L 2938 2094 
Q 2938 2591 2744 2837 
Q 2550 3084 2163 3084 
Q 1697 3084 1428 2787 
Q 1159 2491 1159 1978 
L 1159 0 
L 581 0 
L 581 3500 
L 1159 3500 
L 1159 2956 
Q 1366 3272 1645 3428 
Q 1925 3584 2291 3584 
Q 2894 3584 3203 3211 
Q 3513 2838 3513 2113 
z
" transform="scale(0.015625)"/>
       <path id="DejaVuSans-20" transform="scale(0.015625)"/>
       <path id="DejaVuSans-2f" d="M 1625 4666 
L 2156 4666 
L 531 -594 
L 0 -594 
L 1625 4666 
z
" transform="scale(0.015625)"/>
       <path id="DejaVuSans-47" d="M 3809 666 
L 3809 1919 
L 2778 1919 
L 2778 2438 
L 4434 2438 
L 4434 434 
Q 4069 175 3628 42 
Q 3188 -91 2688 -91 
Q 1594 -91 976 548 
Q 359 1188 359 2328 
Q 359 3472 976 4111 
Q 1594 4750 2688 4750 
Q 3144 4750 3555 4637 
Q 3966 4525 4313 4306 
L 4313 3634 
Q 3963 3931 3569 4081 
Q 3175 4231 2741 4231 
Q 1884 4231 1454 3753 
Q 1025 3275 1025 2328 
Q 1025 1384 1454 906 
Q 1884 428 2741 428 
Q 3075 428 3337 486 
Q 3600 544 3809 666 
z
" transform="scale(0.015625)"/>
      </defs>
      <use xlink:href="#DejaVuSans-49"/>
      <use xlink:href="#DejaVuSans-74" transform="translate(29.492188 0)"/>
      <use xlink:href="#DejaVuSans-65" transform="translate(68.701172 0)"/>
      <use xlink:href="#DejaVuSans-72" transform="translate(130.224609 0)"/>
      <use xlink:href="#DejaVuSans-61" transform="translate(171.337891 0)"/>
      <use xlink:href="#DejaVuSans-74" transform="translate(232.617188 0)"/>
      <use xlink:href="#DejaVuSans-69" transform="translate(271.826172 0)"/>
      <use xlink:href="#DejaVuSans-6f" transform="translate(299.609375 0)"/>
      <use xlink:href="#DejaVuSans-6e" transform="translate(360.791016 0)"/>
      <use xlink:href="#DejaVuSans-20" transform="translate(424.169922 0)"/>
      <use xlink:href="#DejaVuSans-2f" transform="translate(455.957031 0)"/>
      <use xlink:href="#DejaVuSans-20" transform="translate(489.648438 0)"/>
      <use xlink:href="#DejaVuSans-47" transform="translate(521.435547 0)"/>
      <use xlink:href="#DejaVuSans-65" transform="translate(598.925781 0)"/>
      <use xlink:href="#DejaVuSans-6e" transform="translate(660.449219 0)"/>
      <use xlink:href="#DejaVuSans-65" transform="translate(723.828125 0)"/>
      <use xlink:href="#DejaVuSans-72" transform="translate(785.351562 0)"/>
      <use xlink:href="#DejaVuSans-61" transform="translate(826.464844 0)"/>
      <use xlink:href="#DejaVuSans-74" transform="translate(887.744141 0)"/>
      <use xlink:href="#DejaVuSans-69" transform="translate(926.953125 0)"/>
      <use xlink:href="#DejaVuSans-6f" transform="translate(954.736328 0)"/>
      <use xlink:href="#DejaVuSans-6e" transform="translate(1015.917969 0)"/>
     </g>
    </g>
   </g>
   <g id="matplotlib.axis_2">
    <g id="ytick_1">
     <g id="line2d_23">
      <path d="M 48.46 394.750024 
L 705.355 394.750024 
" clip-path="url(#pbb7ccbbacc)" style="fill: none; stroke-dasharray: 0.8,1.32; stroke-dashoffset: 0; stroke: #b0b0b0; stroke-opacity: 0.7; stroke-width: 0.8"/>
     </g>
     <g id="line2d_24">
      <defs>
       <path id="m915841d814" d="M 0 0 
L -3.5 0 
" style="stroke: #000000; stroke-width: 0.8"/>
      </defs>
      <g>
       <use xlink:href="#m915841d814" x="48.46" y="394.750024" style="stroke: #000000; stroke-width: 0.8"/>
      </g>
     </g>
     <g id="text_13">
      <!-- 400 -->
      <g transform="translate(22.3725 398.549243) scale(0.1 -0.1)">
       <use xlink:href="#DejaVuSans-34"/>
       <use xlink:href="#DejaVuSans-30" transform="translate(63.623047 0)"/>
       <use xlink:href="#DejaVuSans-30" transform="translate(127.246094 0)"/>
      </g>
     </g>
    </g>
    <g id="ytick_2">
     <g id="line2d_25">
      <path d="M 48.46 351.863232 
L 705.355 351.863232 
" clip-path="url(#pbb7ccbbacc)" style="fill: none; stroke-dasharray: 0.8,1.32; stroke-dashoffset: 0; stroke: #b0b0b0; stroke-opacity: 0.7; stroke-width: 0.8"/>
     </g>
     <g id="line2d_26">
      <g>
       <use xlink:href="#m915841d814" x="48.46" y="351.863232" style="stroke: #000000; stroke-width: 0.8"/>
      </g>
     </g>
     <g id="text_14">
      <!-- 600 -->
      <g transform="translate(22.3725 355.66245) scale(0.1 -0.1)">
       <use xlink:href="#DejaVuSans-36"/>
       <use xlink:href="#DejaVuSans-30" transform="translate(63.623047 0)"/>
       <use xlink:href="#DejaVuSans-30" transform="translate(127.246094 0)"/>
      </g>
     </g>
    </g>
    <g id="ytick_3">
     <g id="line2d_27">
      <path d="M 48.46 308.976439 
L 705.355 308.976439 
" clip-path="url(#pbb7ccbbacc)" style="fill: none; stroke-dasharray: 0.8,1.32; stroke-dashoffset: 0; stroke: #b0b0b0; stroke-opacity: 0.7; stroke-width: 0.8"/>
     </g>
     <g id="line2d_28">
      <g>
       <use xlink:href="#m915841d814" x="48.46" y="308.976439" style="stroke: #000000; stroke-width: 0.8"/>
      </g>
     </g>
     <g id="text_15">
      <!-- 800 -->
      <g transform="translate(22.3725 312.775658) scale(0.1 -0.1)">
       <use xlink:href="#DejaVuSans-38"/>
       <use xlink:href="#DejaVuSans-30" transform="translate(63.623047 0)"/>
       <use xlink:href="#DejaVuSans-30" transform="translate(127.246094 0)"/>
      </g>
     </g>
    </g>
    <g id="ytick_4">
     <g id="line2d_29">
      <path d="M 48.46 266.089647 
L 705.355 266.089647 
" clip-path="url(#pbb7ccbbacc)" style="fill: none; stroke-dasharray: 0.8,1.32; stroke-dashoffset: 0; stroke: #b0b0b0; stroke-opacity: 0.7; stroke-width: 0.8"/>
     </g>
     <g id="line2d_30">
      <g>
       <use xlink:href="#m915841d814" x="48.46" y="266.089647" style="stroke: #000000; stroke-width: 0.8"/>
      </g>
     </g>
     <g id="text_16">
      <!-- 1000 -->
      <g transform="translate(16.01 269.888865) scale(0.1 -0.1)">
       <use xlink:href="#DejaVuSans-31"/>
       <use xlink:href="#DejaVuSans-30" transform="translate(63.623047 0)"/>
       <use xlink:href="#DejaVuSans-30" transform="translate(127.246094 0)"/>
       <use xlink:href="#DejaVuSans-30" transform="translate(190.869141 0)"/>
      </g>
     </g>
    </g>
    <g id="ytick_5">
     <g id="line2d_31">
      <path d="M 48.46 223.202854 
L 705.355 223.202854 
" clip-path="url(#pbb7ccbbacc)" style="fill: none; stroke-dasharray: 0.8,1.32; stroke-dashoffset: 0; stroke: #b0b0b0; stroke-opacity: 0.7; stroke-width: 0.8"/>
     </g>
     <g id="line2d_32">
      <g>
       <use xlink:href="#m915841d814" x="48.46" y="223.202854" style="stroke: #000000; stroke-width: 0.8"/>
      </g>
     </g>
     <g id="text_17">
      <!-- 1200 -->
      <g transform="translate(16.01 227.002073) scale(0.1 -0.1)">
       <use xlink:href="#DejaVuSans-31"/>
       <use xlink:href="#DejaVuSans-32" transform="translate(63.623047 0)"/>
       <use xlink:href="#DejaVuSans-30" transform="translate(127.246094 0)"/>
       <use xlink:href="#DejaVuSans-30" transform="translate(190.869141 0)"/>
      </g>
     </g>
    </g>
    <g id="ytick_6">
     <g id="line2d_33">
      <path d="M 48.46 180.316061 
L 705.355 180.316061 
" clip-path="url(#pbb7ccbbacc)" style="fill: none; stroke-dasharray: 0.8,1.32; stroke-dashoffset: 0; stroke: #b0b0b0; stroke-opacity: 0.7; stroke-width: 0.8"/>
     </g>
     <g id="line2d_34">
      <g>
       <use xlink:href="#m915841d814" x="48.46" y="180.316061" style="stroke: #000000; stroke-width: 0.8"/>
      </g>
     </g>
     <g id="text_18">
      <!-- 1400 -->
      <g transform="translate(16.01 184.11528) scale(0.1 -0.1)">
       <use xlink:href="#DejaVuSans-31"/>
       <use xlink:href="#DejaVuSans-34" transform="translate(63.623047 0)"/>
       <use xlink:href="#DejaVuSans-30" transform="translate(127.246094 0)"/>
       <use xlink:href="#DejaVuSans-30" transform="translate(190.869141 0)"/>
      </g>
     </g>
    </g>
    <g id="ytick_7">
     <g id="line2d_35">
      <path d="M 48.46 137.429269 
L 705.355 137.429269 
" clip-path="url(#pbb7ccbbacc)" style="fill: none; stroke-dasharray: 0.8,1.32; stroke-dashoffset: 0; stroke: #b0b0b0; stroke-opacity: 0.7; stroke-width: 0.8"/>
     </g>
     <g id="line2d_36">
      <g>
       <use xlink:href="#m915841d814" x="48.46" y="137.429269" style="stroke: #000000; stroke-width: 0.8"/>
      </g>
     </g>
     <g id="text_19">
      <!-- 1600 -->
      <g transform="translate(16.01 141.228488) scale(0.1 -0.1)">
       <use xlink:href="#DejaVuSans-31"/>
       <use xlink:href="#DejaVuSans-36" transform="translate(63.623047 0)"/>
       <use xlink:href="#DejaVuSans-30" transform="translate(127.246094 0)"/>
       <use xlink:href="#DejaVuSans-30" transform="translate(190.869141 0)"/>
      </g>
     </g>
    </g>
    <g id="ytick_8">
     <g id="line2d_37">
      <path d="M 48.46 94.542476 
L 705.355 94.542476 
" clip-path="url(#pbb7ccbbacc)" style="fill: none; stroke-dasharray: 0.8,1.32; stroke-dashoffset: 0; stroke: #b0b0b0; stroke-opacity: 0.7; stroke-width: 0.8"/>
     </g>
     <g id="line2d_38">
      <g>
       <use xlink:href="#m915841d814" x="48.46" y="94.542476" style="stroke: #000000; stroke-width: 0.8"/>
      </g>
     </g>
     <g id="text_20">
      <!-- 1800 -->
      <g transform="translate(16.01 98.341695) scale(0.1 -0.1)">
       <use xlink:href="#DejaVuSans-31"/>
       <use xlink:href="#DejaVuSans-38" transform="translate(63.623047 0)"/>
       <use xlink:href="#DejaVuSans-30" transform="translate(127.246094 0)"/>
       <use xlink:href="#DejaVuSans-30" transform="translate(190.869141 0)"/>
      </g>
     </g>
    </g>
    <g id="ytick_9">
     <g id="line2d_39">
      <path d="M 48.46 51.655684 
L 705.355 51.655684 
" clip-path="url(#pbb7ccbbacc)" style="fill: none; stroke-dasharray: 0.8,1.32; stroke-dashoffset: 0; stroke: #b0b0b0; stroke-opacity: 0.7; stroke-width: 0.8"/>
     </g>
     <g id="line2d_40">
      <g>
       <use xlink:href="#m915841d814" x="48.46" y="51.655684" style="stroke: #000000; stroke-width: 0.8"/>
      </g>
     </g>
     <g id="text_21">
      <!-- 2000 -->
      <g transform="translate(16.01 55.454903) scale(0.1 -0.1)">
       <use xlink:href="#DejaVuSans-32"/>
       <use xlink:href="#DejaVuSans-30" transform="translate(63.623047 0)"/>
       <use xlink:href="#DejaVuSans-30" transform="translate(127.246094 0)"/>
       <use xlink:href="#DejaVuSans-30" transform="translate(190.869141 0)"/>
      </g>
     </g>
    </g>
    <g id="text_22">
     <!-- Objective Value -->
     <g transform="translate(9.930313 247.490469) rotate(-90) scale(0.1 -0.1)">
      <defs>
       <path id="DejaVuSans-4f" d="M 2522 4238 
Q 1834 4238 1429 3725 
Q 1025 3213 1025 2328 
Q 1025 1447 1429 934 
Q 1834 422 2522 422 
Q 3209 422 3611 934 
Q 4013 1447 4013 2328 
Q 4013 3213 3611 3725 
Q 3209 4238 2522 4238 
z
M 2522 4750 
Q 3503 4750 4090 4092 
Q 4678 3434 4678 2328 
Q 4678 1225 4090 567 
Q 3503 -91 2522 -91 
Q 1538 -91 948 565 
Q 359 1222 359 2328 
Q 359 3434 948 4092 
Q 1538 4750 2522 4750 
z
" transform="scale(0.015625)"/>
       <path id="DejaVuSans-62" d="M 3116 1747 
Q 3116 2381 2855 2742 
Q 2594 3103 2138 3103 
Q 1681 3103 1420 2742 
Q 1159 2381 1159 1747 
Q 1159 1113 1420 752 
Q 1681 391 2138 391 
Q 2594 391 2855 752 
Q 3116 1113 3116 1747 
z
M 1159 2969 
Q 1341 3281 1617 3432 
Q 1894 3584 2278 3584 
Q 2916 3584 3314 3078 
Q 3713 2572 3713 1747 
Q 3713 922 3314 415 
Q 2916 -91 2278 -91 
Q 1894 -91 1617 61 
Q 1341 213 1159 525 
L 1159 0 
L 581 0 
L 581 4863 
L 1159 4863 
L 1159 2969 
z
" transform="scale(0.015625)"/>
       <path id="DejaVuSans-6a" d="M 603 3500 
L 1178 3500 
L 1178 -63 
Q 1178 -731 923 -1031 
Q 669 -1331 103 -1331 
L -116 -1331 
L -116 -844 
L 38 -844 
Q 366 -844 484 -692 
Q 603 -541 603 -63 
L 603 3500 
z
M 603 4863 
L 1178 4863 
L 1178 4134 
L 603 4134 
L 603 4863 
z
" transform="scale(0.015625)"/>
       <path id="DejaVuSans-63" d="M 3122 3366 
L 3122 2828 
Q 2878 2963 2633 3030 
Q 2388 3097 2138 3097 
Q 1578 3097 1268 2742 
Q 959 2388 959 1747 
Q 959 1106 1268 751 
Q 1578 397 2138 397 
Q 2388 397 2633 464 
Q 2878 531 3122 666 
L 3122 134 
Q 2881 22 2623 -34 
Q 2366 -91 2075 -91 
Q 1284 -91 818 406 
Q 353 903 353 1747 
Q 353 2603 823 3093 
Q 1294 3584 2113 3584 
Q 2378 3584 2631 3529 
Q 2884 3475 3122 3366 
z
" transform="scale(0.015625)"/>
       <path id="DejaVuSans-76" d="M 191 3500 
L 800 3500 
L 1894 563 
L 2988 3500 
L 3597 3500 
L 2284 0 
L 1503 0 
L 191 3500 
z
" transform="scale(0.015625)"/>
       <path id="DejaVuSans-56" d="M 1831 0 
L 50 4666 
L 709 4666 
L 2188 738 
L 3669 4666 
L 4325 4666 
L 2547 0 
L 1831 0 
z
" transform="scale(0.015625)"/>
       <path id="DejaVuSans-6c" d="M 603 4863 
L 1178 4863 
L 1178 0 
L 603 0 
L 603 4863 
z
" transform="scale(0.015625)"/>
       <path id="DejaVuSans-75" d="M 544 1381 
L 544 3500 
L 1119 3500 
L 1119 1403 
Q 1119 906 1312 657 
Q 1506 409 1894 409 
Q 2359 409 2629 706 
Q 2900 1003 2900 1516 
L 2900 3500 
L 3475 3500 
L 3475 0 
L 2900 0 
L 2900 538 
Q 2691 219 2414 64 
Q 2138 -91 1772 -91 
Q 1169 -91 856 284 
Q 544 659 544 1381 
z
M 1991 3584 
L 1991 3584 
z
" transform="scale(0.015625)"/>
      </defs>
      <use xlink:href="#DejaVuSans-4f"/>
      <use xlink:href="#DejaVuSans-62" transform="translate(78.710938 0)"/>
      <use xlink:href="#DejaVuSans-6a" transform="translate(142.1875 0)"/>
      <use xlink:href="#DejaVuSans-65" transform="translate(169.970703 0)"/>
      <use xlink:href="#DejaVuSans-63" transform="translate(231.494141 0)"/>
      <use xlink:href="#DejaVuSans-74" transform="translate(286.474609 0)"/>
      <use xlink:href="#DejaVuSans-69" transform="translate(325.683594 0)"/>
      <use xlink:href="#DejaVuSans-76" transform="translate(353.466797 0)"/>
      <use xlink:href="#DejaVuSans-65" transform="translate(412.646484 0)"/>
      <use xlink:href="#DejaVuSans-20" transform="translate(474.169922 0)"/>
      <use xlink:href="#DejaVuSans-56" transform="translate(505.957031 0)"/>
      <use xlink:href="#DejaVuSans-61" transform="translate(566.615234 0)"/>
      <use xlink:href="#DejaVuSans-6c" transform="translate(627.894531 0)"/>
      <use xlink:href="#DejaVuSans-75" transform="translate(655.677734 0)"/>
      <use xlink:href="#DejaVuSans-65" transform="translate(719.056641 0)"/>
     </g>
    </g>
   </g>
   <g id="line2d_41">
    <path d="M 48.46 309.362355 
L 49.116895 309.362355 
L 49.116895 310.772864 
L 55.02895 310.772864 
L 55.02895 356.266353 
L 83.93233 356.266353 
L 83.93233 359.670717 
L 566.750155 359.670717 
L 566.750155 359.980253 
L 689.58952 359.980253 
L 689.58952 367.11 
L 704.698105 367.11 
L 704.698105 367.11 
" clip-path="url(#pbb7ccbbacc)" style="fill: none; stroke: #1f77b4; stroke-width: 1.5; stroke-linecap: square"/>
   </g>
   <g id="line2d_42">
    <path d="M 48.46 243.888262 
L 49.116895 158.420588 
L 49.77379 87.620995 
L 50.430685 120.173072 
L 51.08758 115.961081 
L 51.744475 126.535702 
L 52.40137 148.936489 
L 53.058265 157.476401 
L 53.71516 138.860505 
L 54.372055 104.484508 
L 55.02895 172.875453 
L 55.685845 171.551967 
L 56.34274 116.496239 
L 56.999635 125.790859 
L 57.65653 110.090606 
L 58.313425 146.520586 
L 58.97032 146.803098 
L 59.627215 145.791702 
L 60.28411 134.291522 
L 60.941005 127.012821 
L 61.5979 142.186099 
L 62.254795 146.720446 
L 62.91169 159.175145 
L 63.568585 152.153429 
L 64.22548 131.556511 
L 64.882375 145.179657 
L 65.53927 174.608899 
L 66.196165 140.938445 
L 66.85306 177.2889 
L 67.509955 118.798267 
L 68.16685 119.292649 
L 68.823745 100.578936 
L 69.48064 119.659654 
L 70.137535 110.897907 
L 70.79443 172.636946 
L 71.451325 169.648944 
L 72.10822 158.630076 
L 72.765115 175.722361 
L 73.42201 196.936411 
L 74.078905 196.062426 
L 74.7358 194.301926 
L 75.392695 184.159847 
L 76.04959 176.803454 
L 76.706485 166.775093 
L 77.36338 184.816563 
L 78.020275 153.744718 
L 78.67717 152.499446 
L 79.334065 159.116214 
L 79.99096 157.199238 
L 80.647855 161.94459 
L 81.30475 168.658459 
L 81.961645 171.79585 
L 82.61854 162.74019 
L 83.93233 186.849861 
L 84.589225 192.238648 
L 85.24612 164.893722 
L 85.903015 161.187402 
L 86.55991 131.381083 
L 87.216805 145.951047 
L 87.8737 140.46314 
L 89.18749 189.775506 
L 89.844385 194.028315 
L 90.50128 164.862366 
L 91.158175 184.015228 
L 91.81507 184.148524 
L 92.471965 178.123648 
L 93.12886 181.728784 
L 93.785755 181.192742 
L 94.44265 148.041528 
L 95.099545 152.13471 
L 95.75644 149.557936 
L 96.413335 150.596351 
L 97.07023 181.116678 
L 97.727125 155.165011 
L 98.38402 182.021842 
L 99.040915 165.091863 
L 99.69781 156.911803 
L 100.354705 159.483111 
L 101.0116 149.768822 
L 101.668495 157.555949 
L 102.32539 156.123588 
L 102.982285 165.363968 
L 103.63918 164.605896 
L 104.296075 110.10804 
L 104.95297 132.591984 
L 105.609865 136.200385 
L 106.26676 131.024326 
L 106.923655 154.87532 
L 107.58055 149.790853 
L 108.237445 122.380092 
L 108.89434 112.875113 
L 109.551235 142.900796 
L 110.20813 105.132195 
L 110.865025 116.0338 
L 111.52192 105.68699 
L 112.178815 127.330802 
L 112.83571 123.531593 
L 114.1495 153.879446 
L 114.806395 187.557823 
L 115.46329 177.175781 
L 116.120185 168.567755 
L 116.77708 164.169569 
L 117.433975 149.70396 
L 118.09087 126.82249 
L 118.747765 163.875734 
L 119.40466 164.497009 
L 120.061555 148.669872 
L 121.375345 187.636596 
L 122.03224 183.566924 
L 123.34603 164.348926 
L 124.002925 175.743723 
L 124.65982 197.246016 
L 125.316715 200.956271 
L 125.97361 189.336267 
L 126.630505 169.106352 
L 127.2874 133.219533 
L 127.944295 164.515184 
L 128.60119 166.019396 
L 129.258085 167.130078 
L 129.91498 155.159046 
L 130.571875 172.603615 
L 131.22877 164.784832 
L 131.885665 178.302788 
L 132.54256 185.227093 
L 133.199455 148.040996 
L 133.85635 155.43864 
L 134.513245 166.665948 
L 135.17014 166.040372 
L 135.827035 134.525365 
L 136.48393 122.467562 
L 137.140825 132.003285 
L 137.79772 153.948274 
L 138.454615 170.636747 
L 139.11151 165.613203 
L 139.768405 174.805913 
L 140.4253 177.69891 
L 141.082195 170.484751 
L 141.73909 176.454039 
L 142.395985 171.134477 
L 143.05288 189.977846 
L 143.709775 187.69815 
L 144.36667 180.755018 
L 145.023565 157.075305 
L 145.68046 184.363783 
L 146.337355 186.868479 
L 146.99425 182.897612 
L 147.651145 150.126704 
L 148.30804 133.315434 
L 148.964935 150.206481 
L 149.62183 174.675103 
L 150.278725 185.196072 
L 150.93562 169.749723 
L 151.592515 176.168482 
L 152.24941 184.270431 
L 152.906305 179.88608 
L 153.5632 145.5908 
L 154.220095 130.96166 
L 154.87699 129.97026 
L 155.533885 171.07922 
L 156.19078 133.036798 
L 157.50457 177.986658 
L 158.161465 128.310318 
L 158.81836 183.031141 
L 159.475255 133.274918 
L 160.13215 148.360647 
L 160.789045 182.277169 
L 161.44594 193.484743 
L 162.75973 130.723869 
L 163.416625 158.048485 
L 164.07352 157.217844 
L 164.730415 186.021246 
L 165.38731 103.895214 
L 166.044205 142.355343 
L 166.7011 132.410128 
L 168.01489 142.380515 
L 168.671785 140.382804 
L 169.32868 172.317075 
L 169.985575 174.889297 
L 170.64247 173.973944 
L 171.299365 146.401179 
L 171.95626 151.843137 
L 172.613155 145.837316 
L 173.27005 129.885011 
L 174.58384 172.512345 
L 175.240735 174.738973 
L 175.89763 171.118067 
L 176.554525 141.27312 
L 177.21142 158.56978 
L 177.868315 165.452025 
L 178.52521 131.575824 
L 179.182105 171.280414 
L 179.839 138.927584 
L 180.495895 190.308061 
L 181.15279 163.300362 
L 182.46658 152.737689 
L 183.123475 151.303141 
L 183.78037 142.788614 
L 184.437265 154.473168 
L 185.09416 148.720663 
L 185.751055 178.476435 
L 186.40795 180.859581 
L 187.064845 178.347703 
L 187.72174 162.164092 
L 188.378635 176.146686 
L 189.03553 195.771215 
L 189.692425 199.417314 
L 190.34932 162.398541 
L 191.006215 141.124604 
L 191.66311 162.927829 
L 192.320005 152.127003 
L 192.9769 138.089821 
L 193.633795 147.239284 
L 194.29069 182.06956 
L 194.947585 151.33544 
L 195.60448 147.81473 
L 196.261375 161.832468 
L 196.91827 129.598952 
L 197.575165 124.901834 
L 198.23206 151.542894 
L 198.888955 142.527397 
L 199.54585 149.202475 
L 200.202745 138.815516 
L 200.85964 150.543135 
L 201.516535 122.861909 
L 202.17343 138.753967 
L 202.830325 129.258514 
L 203.48722 135.967591 
L 204.144115 179.156766 
L 204.80101 162.17523 
L 205.457905 181.23674 
L 206.1148 141.482211 
L 206.771695 151.334719 
L 207.42859 180.552106 
L 208.085485 142.469938 
L 208.74238 129.646692 
L 209.399275 165.331736 
L 210.05617 171.956388 
L 210.713065 171.739824 
L 211.36996 160.785616 
L 212.026855 167.766952 
L 212.68375 131.494775 
L 213.340645 135.849225 
L 213.99754 150.05936 
L 214.654435 145.401373 
L 215.31133 154.97992 
L 215.968225 179.310326 
L 216.62512 149.260381 
L 217.282015 146.430136 
L 217.93891 119.761154 
L 218.595805 118.230828 
L 219.2527 152.130518 
L 219.909595 155.530955 
L 220.56649 156.147008 
L 221.223385 167.235318 
L 221.88028 122.262244 
L 222.537175 99.040691 
L 223.19407 114.172896 
L 224.50786 136.793274 
L 225.164755 176.456154 
L 225.82165 152.306541 
L 226.478545 170.792206 
L 227.13544 208.195572 
L 227.792335 191.773745 
L 228.44923 185.051683 
L 229.106125 185.887563 
L 229.76302 172.13131 
L 230.419915 164.88036 
L 231.07681 152.118228 
L 231.733705 111.028055 
L 232.3906 109.743877 
L 233.047495 111.255055 
L 233.70439 140.516887 
L 234.361285 142.522112 
L 235.01818 160.177962 
L 235.675075 140.933082 
L 236.33197 130.67079 
L 236.988865 144.191813 
L 237.64576 123.71046 
L 238.302655 125.394308 
L 238.95955 149.3534 
L 239.616445 178.13426 
L 240.27334 176.502229 
L 240.930235 175.877784 
L 241.58713 120.491096 
L 242.244025 123.190201 
L 242.90092 152.665948 
L 243.557815 156.420172 
L 244.21471 142.736575 
L 244.871605 124.543027 
L 245.5285 129.913096 
L 246.185395 139.397798 
L 246.84229 153.520157 
L 247.499185 172.533441 
L 248.15608 158.972406 
L 248.812975 174.121802 
L 249.46987 193.880482 
L 250.126765 196.562686 
L 250.78366 164.866109 
L 251.440555 156.257996 
L 252.09745 135.578886 
L 252.754345 164.369535 
L 253.41124 152.97388 
L 254.068135 152.911402 
L 254.72503 158.809774 
L 255.381925 140.342909 
L 256.03882 163.282195 
L 256.695715 154.086589 
L 257.35261 164.939642 
L 258.009505 156.811179 
L 258.6664 133.06769 
L 259.323295 154.820084 
L 259.98019 167.073578 
L 260.637085 164.319505 
L 261.29398 147.133324 
L 261.950875 142.341556 
L 262.60777 156.108075 
L 263.264665 146.263111 
L 263.92156 171.791799 
L 264.578455 176.376691 
L 265.23535 163.917888 
L 265.892245 122.876969 
L 266.54914 90.414494 
L 267.206035 104.610898 
L 267.86293 123.572606 
L 268.519825 93.307035 
L 269.17672 129.249749 
L 269.833615 130.89827 
L 270.49051 124.229075 
L 271.147405 138.679145 
L 271.8043 142.429861 
L 272.461195 156.05232 
L 273.11809 165.762522 
L 273.774985 172.318764 
L 274.43188 167.434038 
L 275.088775 96.321498 
L 276.402565 178.876564 
L 277.05946 157.191874 
L 277.716355 171.410779 
L 278.37325 171.632541 
L 279.030145 179.001739 
L 279.68704 149.924994 
L 280.343935 172.913125 
L 281.00083 146.738501 
L 281.657725 158.206405 
L 282.31462 166.623177 
L 282.971515 168.96585 
L 283.62841 164.721383 
L 284.285305 131.904962 
L 284.9422 179.766483 
L 285.599095 151.735079 
L 286.25599 162.90772 
L 286.912885 170.176817 
L 287.56978 147.06056 
L 288.226675 175.16143 
L 288.88357 163.919156 
L 289.540465 138.937901 
L 290.19736 149.297566 
L 291.51115 159.716412 
L 292.168045 151.396835 
L 292.82494 164.956228 
L 293.481835 185.847162 
L 294.13873 163.92086 
L 294.795625 175.346982 
L 295.45252 175.691483 
L 296.109415 139.254889 
L 296.76631 111.80559 
L 297.423205 111.193091 
L 298.0801 137.82223 
L 298.736995 144.533844 
L 299.39389 144.929226 
L 300.050785 163.649481 
L 300.70768 145.074854 
L 301.364575 172.448151 
L 302.02147 169.185427 
L 302.678365 192.385241 
L 303.33526 179.636527 
L 304.64905 136.800413 
L 305.305945 137.635243 
L 305.96284 153.14068 
L 306.619735 175.519088 
L 307.27663 130.65815 
L 307.933525 120.493284 
L 308.59042 149.913268 
L 309.247315 158.908906 
L 309.90421 156.59126 
L 310.561105 132.528867 
L 311.218 175.936026 
L 311.874895 148.439767 
L 312.53179 129.580698 
L 313.188685 137.281316 
L 313.84558 100.260228 
L 314.502475 151.180968 
L 315.15937 168.409155 
L 315.816265 156.063785 
L 316.47316 168.544065 
L 317.130055 138.320184 
L 317.78695 131.187946 
L 318.443845 132.272151 
L 319.10074 125.851165 
L 319.757635 140.82695 
L 320.41453 177.100571 
L 321.071425 164.821042 
L 321.72832 137.238977 
L 322.385215 154.851813 
L 323.04211 142.178489 
L 323.699005 140.322623 
L 324.3559 157.552333 
L 325.012795 162.719139 
L 325.66969 144.12692 
L 326.326585 182.604707 
L 326.98348 165.987065 
L 327.640375 172.72857 
L 328.954165 150.425296 
L 329.61106 146.099675 
L 330.267955 143.918741 
L 330.92485 170.553889 
L 331.581745 165.805709 
L 332.23864 177.696922 
L 332.895535 156.943821 
L 333.55243 147.423124 
L 334.209325 176.049037 
L 334.86622 146.893794 
L 335.523115 171.97995 
L 336.18001 156.152253 
L 336.836905 182.217192 
L 337.4938 176.286228 
L 338.150695 151.47864 
L 338.80759 119.141186 
L 339.464485 121.966327 
L 340.12138 105.695575 
L 340.778275 157.238776 
L 341.43517 161.951706 
L 342.092065 173.821332 
L 342.74896 148.767612 
L 343.405855 115.806828 
L 344.06275 159.672316 
L 344.719645 164.410731 
L 345.37654 130.526851 
L 346.033435 167.751611 
L 346.69033 142.253581 
L 347.347225 141.793358 
L 348.00412 175.367598 
L 348.661015 133.359873 
L 349.31791 147.549513 
L 349.974805 176.083231 
L 350.6317 182.554428 
L 351.288595 194.913097 
L 351.94549 188.143923 
L 352.602385 180.029943 
L 353.25928 152.671273 
L 353.916175 183.0226 
L 354.57307 198.366529 
L 355.229965 168.018343 
L 355.88686 155.572394 
L 356.543755 152.108035 
L 357.20065 135.001259 
L 357.857545 139.76337 
L 358.51444 122.322457 
L 359.171335 163.695144 
L 359.82823 132.949685 
L 360.485125 126.575386 
L 361.14202 146.206323 
L 361.798915 152.323719 
L 362.45581 112.104165 
L 363.112705 149.003092 
L 363.7696 166.894754 
L 364.426495 163.103966 
L 365.08339 175.817514 
L 365.740285 168.794237 
L 366.39718 173.482521 
L 367.054075 165.191125 
L 367.71097 167.804863 
L 368.367865 107.293971 
L 369.02476 167.934699 
L 369.681655 163.870163 
L 370.33855 149.637758 
L 370.995445 182.103112 
L 371.65234 176.658734 
L 372.309235 129.139043 
L 372.96613 113.253892 
L 373.623025 142.261794 
L 374.27992 114.970984 
L 374.936815 107.689444 
L 375.59371 158.288815 
L 376.250605 151.530424 
L 376.9075 182.314104 
L 377.564395 172.18456 
L 378.22129 146.81512 
L 378.878185 148.811103 
L 379.53508 160.638105 
L 380.191975 189.747582 
L 380.84887 188.351706 
L 381.505765 165.411762 
L 382.16266 187.261366 
L 382.819555 177.826643 
L 383.47645 173.317843 
L 384.133345 178.271432 
L 384.79024 138.620343 
L 385.447135 159.715809 
L 386.10403 154.430623 
L 386.760925 177.122083 
L 387.41782 153.042593 
L 388.074715 156.939873 
L 388.73161 173.394507 
L 389.388505 178.733981 
L 390.0454 158.741261 
L 390.702295 176.725622 
L 391.35919 181.37505 
L 392.016085 198.755272 
L 392.67298 195.709793 
L 393.329875 174.436651 
L 393.98677 180.468534 
L 394.643665 156.87239 
L 395.30056 175.663972 
L 395.957455 168.948748 
L 396.61435 141.354915 
L 397.271245 138.334284 
L 397.92814 136.917926 
L 398.585035 146.149644 
L 399.24193 179.155899 
L 399.898825 175.144209 
L 400.55572 169.152361 
L 401.212615 180.36562 
L 401.86951 187.474719 
L 402.526405 202.225936 
L 403.840195 175.545401 
L 404.49709 178.095174 
L 405.153985 150.150268 
L 405.81088 141.521718 
L 406.467775 178.394564 
L 407.12467 155.874306 
L 407.781565 186.995847 
L 408.43846 154.558702 
L 409.095355 165.380528 
L 409.75225 151.626425 
L 410.409145 184.870939 
L 411.06604 171.393922 
L 411.722935 194.00456 
L 412.37983 176.045071 
L 413.036725 178.626709 
L 413.69362 193.144305 
L 414.350515 183.185821 
L 415.00741 196.370782 
L 415.664305 165.889425 
L 416.3212 184.001748 
L 416.978095 139.627801 
L 417.63499 174.40887 
L 418.291885 148.299341 
L 418.94878 151.94767 
L 419.605675 134.59405 
L 420.26257 154.516198 
L 420.919465 113.169617 
L 421.57636 114.442385 
L 422.233255 161.329566 
L 422.89015 140.702859 
L 423.547045 158.128379 
L 424.860835 124.696509 
L 425.51773 148.100102 
L 426.174625 151.021627 
L 426.83152 151.16873 
L 427.488415 116.26921 
L 428.802205 157.408378 
L 429.4591 153.340665 
L 430.115995 182.606154 
L 430.77289 125.486544 
L 431.429785 167.834508 
L 432.08668 192.931994 
L 432.743575 168.122951 
L 433.40047 161.423085 
L 434.057365 153.128864 
L 434.71426 154.625047 
L 435.371155 163.129339 
L 436.02805 131.475971 
L 436.684945 126.804609 
L 437.34184 138.498116 
L 437.998735 171.690231 
L 438.65563 144.559233 
L 439.312525 166.804019 
L 439.96942 151.866122 
L 440.626315 130.537688 
L 441.28321 154.095085 
L 441.940105 147.518327 
L 442.597 170.362511 
L 443.253895 160.964369 
L 443.91079 153.688984 
L 444.567685 137.743022 
L 445.22458 167.485163 
L 445.881475 142.985776 
L 446.53837 162.38832 
L 447.195265 106.516571 
L 447.85216 114.614003 
L 448.509055 138.674615 
L 449.16595 179.129966 
L 449.822845 182.612907 
L 450.47974 202.890739 
L 451.136635 159.61804 
L 451.79353 177.119356 
L 452.450425 165.954483 
L 453.10732 130.089407 
L 453.764215 112.979453 
L 454.42111 106.41711 
L 455.078005 140.068872 
L 455.7349 196.221483 
L 456.391795 193.921486 
L 457.04869 166.440217 
L 457.705585 169.607831 
L 458.36248 162.651059 
L 459.019375 152.544439 
L 459.67627 128.944197 
L 460.333165 143.318633 
L 460.99006 177.502624 
L 461.646955 193.905448 
L 462.30385 195.109747 
L 463.61764 152.085411 
L 464.274535 149.766568 
L 464.93143 171.989586 
L 465.588325 189.545246 
L 466.24522 197.418266 
L 466.902115 167.964231 
L 467.55901 188.495772 
L 468.215905 163.278937 
L 468.8728 170.603626 
L 469.529695 140.609086 
L 470.18659 162.516127 
L 470.843485 172.375167 
L 471.50038 191.751117 
L 472.157275 188.148049 
L 472.81417 152.18673 
L 473.471065 183.923504 
L 474.12796 200.58031 
L 476.098645 165.91775 
L 476.75554 178.628188 
L 477.412435 130.220772 
L 478.06933 126.223705 
L 478.726225 170.63795 
L 479.38312 167.353744 
L 480.040015 170.645615 
L 480.69691 166.44726 
L 481.353805 200.965083 
L 482.0107 191.382641 
L 482.667595 149.651611 
L 483.32449 182.086368 
L 483.981385 178.967125 
L 484.63828 171.236399 
L 485.295175 153.807693 
L 485.95207 197.438629 
L 486.608965 180.948487 
L 487.26586 156.531412 
L 488.57965 137.387183 
L 489.236545 157.103318 
L 489.89344 162.007236 
L 490.550335 147.760153 
L 491.20723 117.6907 
L 491.864125 149.284742 
L 492.52102 166.539638 
L 493.177915 151.359967 
L 493.83481 167.181586 
L 494.491705 168.566099 
L 495.1486 163.717522 
L 495.805495 202.978502 
L 496.46239 205.981672 
L 497.119285 185.569991 
L 497.77618 187.724764 
L 498.433075 191.852696 
L 499.08997 187.536181 
L 499.746865 188.101457 
L 500.40376 171.428564 
L 501.060655 161.068381 
L 501.71755 114.390931 
L 502.374445 148.89941 
L 503.03134 131.591085 
L 503.688235 149.791756 
L 504.34513 123.370342 
L 505.002025 128.981671 
L 505.65892 132.78498 
L 506.315815 152.165641 
L 506.97271 153.525741 
L 507.629605 129.804911 
L 508.2865 171.131574 
L 508.943395 118.525413 
L 509.60029 153.029942 
L 510.257185 169.817583 
L 510.91408 173.429797 
L 511.570975 165.349191 
L 512.22787 192.123482 
L 512.884765 179.11042 
L 513.54166 169.589472 
L 514.198555 184.960458 
L 514.85545 180.305121 
L 515.512345 165.742014 
L 516.16924 183.465985 
L 516.826135 163.561789 
L 517.48303 157.217479 
L 518.139925 176.343548 
L 518.79682 152.862519 
L 519.453715 160.887867 
L 520.11061 160.942199 
L 520.767505 152.330392 
L 521.4244 134.524746 
L 522.081295 141.592559 
L 522.73819 130.152622 
L 523.395085 143.389575 
L 524.05198 169.486278 
L 524.708875 161.197068 
L 525.36577 151.360115 
L 526.022665 154.78653 
L 526.67956 126.681682 
L 527.336455 113.429023 
L 527.99335 154.798346 
L 528.650245 169.552995 
L 529.30714 172.238163 
L 529.964035 188.508132 
L 530.62093 167.602238 
L 531.277825 138.859537 
L 531.93472 166.818118 
L 532.591615 158.236979 
L 533.24851 180.987403 
L 533.905405 156.126424 
L 534.5623 178.83806 
L 535.219195 155.272826 
L 535.87609 156.658684 
L 536.532985 167.65586 
L 537.18988 163.110761 
L 537.846775 153.163225 
L 538.50367 130.398516 
L 539.160565 125.498556 
L 539.81746 150.311847 
L 540.474355 141.318796 
L 541.13125 145.592128 
L 541.788145 162.565634 
L 542.44504 168.86976 
L 543.101935 192.603975 
L 543.75883 156.736061 
L 544.415725 162.351849 
L 545.07262 124.910358 
L 546.38641 147.5693 
L 547.043305 151.269774 
L 547.7002 119.977678 
L 548.357095 156.561845 
L 549.01399 150.895135 
L 549.670885 100.228794 
L 550.32778 124.586799 
L 550.984675 163.987472 
L 551.64157 140.769541 
L 552.298465 157.932371 
L 552.95536 147.02905 
L 554.26915 150.001342 
L 554.926045 152.043454 
L 555.58294 141.276825 
L 556.239835 120.490887 
L 556.89673 141.516176 
L 557.553625 136.871152 
L 558.21052 125.993137 
L 559.52431 156.047134 
L 560.181205 164.376913 
L 560.8381 151.407631 
L 561.494995 109.906564 
L 562.15189 113.649853 
L 562.808785 95.899281 
L 563.46568 127.674434 
L 564.122575 113.667586 
L 564.77947 122.273865 
L 565.436365 124.609374 
L 566.09326 110.54412 
L 566.750155 175.290759 
L 567.40705 179.238196 
L 568.063945 174.161737 
L 568.72084 157.005295 
L 569.377735 161.235708 
L 570.03463 172.212785 
L 570.691525 143.171839 
L 571.34842 124.095556 
L 572.005315 183.11058 
L 572.66221 153.535245 
L 573.319105 163.541854 
L 573.976 160.529186 
L 574.632895 115.139509 
L 575.28979 122.604799 
L 575.946685 160.830933 
L 576.60358 184.587834 
L 577.260475 179.474894 
L 578.574265 128.120525 
L 579.23116 151.479647 
L 579.888055 168.641865 
L 580.54495 159.795889 
L 581.201845 158.516318 
L 581.85874 155.758217 
L 582.515635 149.37392 
L 583.17253 135.150505 
L 583.829425 157.791062 
L 584.48632 163.654885 
L 585.143215 173.267188 
L 585.80011 192.039239 
L 586.457005 148.87407 
L 587.1139 163.074999 
L 587.770795 160.788911 
L 588.42769 177.071136 
L 589.084585 152.219457 
L 589.74148 101.314198 
L 590.398375 120.2905 
L 591.05527 154.497781 
L 591.712165 139.733752 
L 592.36906 172.695738 
L 593.025955 169.981198 
L 593.68285 141.066203 
L 594.339745 164.552309 
L 594.99664 183.398391 
L 595.653535 165.124504 
L 596.31043 184.815085 
L 596.967325 162.987669 
L 597.62422 175.875917 
L 598.281115 162.019201 
L 598.93801 194.123013 
L 599.594905 190.609238 
L 600.908695 147.692665 
L 601.56559 163.272166 
L 602.222485 144.741365 
L 602.87938 129.604202 
L 603.536275 128.278184 
L 604.19317 153.499291 
L 604.850065 153.021164 
L 605.50696 161.183085 
L 606.163855 155.926953 
L 606.82075 159.458961 
L 607.477645 144.850852 
L 608.13454 151.305424 
L 608.791435 150.326313 
L 609.44833 114.11184 
L 610.105225 178.019394 
L 610.76212 198.815204 
L 611.419015 207.71685 
L 612.07591 191.10237 
L 612.732805 184.713833 
L 613.3897 153.358615 
L 614.046595 164.820432 
L 614.70349 144.754781 
L 615.360385 168.732315 
L 616.01728 164.583583 
L 616.674175 155.035954 
L 617.33107 198.774635 
L 617.987965 170.714242 
L 618.64486 160.838903 
L 619.301755 155.511091 
L 619.95865 173.505137 
L 620.615545 177.869149 
L 621.27244 173.08784 
L 621.929335 159.940157 
L 622.58623 155.869983 
L 623.243125 169.340463 
L 623.90002 167.21763 
L 624.556915 141.191673 
L 625.21381 171.482085 
L 625.870705 156.757489 
L 626.5276 159.40678 
L 627.184495 133.620302 
L 627.84139 168.275248 
L 628.498285 140.965741 
L 629.15518 137.484456 
L 629.812075 167.695535 
L 630.46897 129.255212 
L 631.125865 159.710262 
L 631.78276 174.376504 
L 632.439655 164.900934 
L 633.09655 139.765546 
L 633.753445 150.798086 
L 635.067235 204.496887 
L 635.72413 193.789661 
L 636.381025 188.020164 
L 637.03792 171.373783 
L 637.694815 159.549173 
L 638.35171 155.562057 
L 639.008605 167.976589 
L 639.6655 158.630112 
L 640.322395 158.801988 
L 640.97929 155.792204 
L 641.636185 156.009269 
L 642.29308 151.317529 
L 642.949975 176.281525 
L 643.60687 173.15448 
L 644.263765 174.12566 
L 644.92066 169.178415 
L 645.577555 146.863624 
L 646.23445 164.072235 
L 646.891345 167.761798 
L 647.54824 140.848516 
L 648.205135 156.613927 
L 648.86203 193.392855 
L 649.518925 188.315397 
L 650.17582 215.875329 
L 650.832715 158.309257 
L 651.48961 194.058173 
L 652.146505 143.273711 
L 652.8034 166.883165 
L 653.460295 174.293895 
L 654.11719 163.480943 
L 654.774085 147.913695 
L 655.43098 184.515845 
L 656.087875 179.86881 
L 656.74477 186.405444 
L 658.05856 174.338666 
L 658.715455 156.018214 
L 659.37235 171.71192 
L 660.029245 153.894371 
L 660.68614 162.101968 
L 661.343035 154.316634 
L 661.99993 121.25685 
L 662.656825 126.251485 
L 663.31372 155.261417 
L 663.970615 162.006702 
L 664.62751 156.694001 
L 665.284405 159.86646 
L 665.9413 132.279543 
L 666.598195 150.660063 
L 667.25509 144.310096 
L 667.911985 141.469362 
L 668.56888 154.348622 
L 669.225775 178.3701 
L 669.88267 151.085932 
L 670.539565 161.326426 
L 671.19646 136.534651 
L 671.853355 151.227469 
L 672.51025 192.670473 
L 673.167145 168.159423 
L 673.82404 162.565151 
L 674.480935 138.129908 
L 675.13783 155.490215 
L 675.794725 134.402315 
L 676.45162 179.267656 
L 677.108515 155.033181 
L 677.76541 138.133645 
L 678.422305 182.773406 
L 679.0792 150.078883 
L 679.736095 133.325341 
L 680.39299 126.358802 
L 681.049885 166.563841 
L 681.70678 173.72362 
L 682.363675 154.406808 
L 683.02057 187.000823 
L 683.677465 172.551165 
L 684.33436 165.422178 
L 684.991255 177.896683 
L 685.64815 155.092476 
L 686.305045 119.466849 
L 686.96194 146.341733 
L 687.618835 178.549684 
L 688.27573 154.689227 
L 688.932625 79.174587 
L 689.58952 162.567776 
L 690.246415 145.131703 
L 690.90331 155.909498 
L 691.560205 180.468225 
L 692.2171 159.211332 
L 692.873995 149.014637 
L 693.53089 146.918737 
L 694.187785 176.176526 
L 694.84468 174.104086 
L 695.501575 113.252096 
L 696.15847 133.098134 
L 696.815365 115.505493 
L 697.47226 69.229488 
L 698.129155 123.291354 
L 698.78605 96.209437 
L 699.442945 49.81 
L 700.09984 99.640398 
L 701.41363 163.042201 
L 702.070525 154.429341 
L 702.72742 150.739086 
L 703.384315 148.194868 
L 704.04121 154.551576 
L 704.698105 129.370188 
L 704.698105 129.370188 
" clip-path="url(#pbb7ccbbacc)" style="fill: none; stroke-dasharray: 5.55,2.4; stroke-dashoffset: 0; stroke: #ff7f0e; stroke-width: 1.5"/>
   </g>
   <g id="patch_3">
    <path d="M 48.46 398.84 
L 48.46 18.08 
" style="fill: none; stroke: #000000; stroke-width: 0.8; stroke-linejoin: miter; stroke-linecap: square"/>
   </g>
   <g id="patch_4">
    <path d="M 705.355 398.84 
L 705.355 18.08 
" style="fill: none; stroke: #000000; stroke-width: 0.8; stroke-linejoin: miter; stroke-linecap: square"/>
   </g>
   <g id="patch_5">
    <path d="M 48.46 398.84 
L 705.355 398.84 
" style="fill: none; stroke: #000000; stroke-width: 0.8; stroke-linejoin: miter; stroke-linecap: square"/>
   </g>
   <g id="patch_6">
    <path d="M 48.46 18.08 
L 705.355 18.08 
" style="fill: none; stroke: #000000; stroke-width: 0.8; stroke-linejoin: miter; stroke-linecap: square"/>
   </g>
   <g id="text_23">
    <!-- GA Evolution (Simulation #17) -->
    <g transform="translate(285.153437 12.08) scale(0.12 -0.12)">
     <defs>
      <path id="DejaVuSans-41" d="M 2188 4044 
L 1331 1722 
L 3047 1722 
L 2188 4044 
z
M 1831 4666 
L 2547 4666 
L 4325 0 
L 3669 0 
L 3244 1197 
L 1141 1197 
L 716 0 
L 50 0 
L 1831 4666 
z
" transform="scale(0.015625)"/>
      <path id="DejaVuSans-45" d="M 628 4666 
L 3578 4666 
L 3578 4134 
L 1259 4134 
L 1259 2753 
L 3481 2753 
L 3481 2222 
L 1259 2222 
L 1259 531 
L 3634 531 
L 3634 0 
L 628 0 
L 628 4666 
z
" transform="scale(0.015625)"/>
      <path id="DejaVuSans-28" d="M 1984 4856 
Q 1566 4138 1362 3434 
Q 1159 2731 1159 2009 
Q 1159 1288 1364 580 
Q 1569 -128 1984 -844 
L 1484 -844 
Q 1016 -109 783 600 
Q 550 1309 550 2009 
Q 550 2706 781 3412 
Q 1013 4119 1484 4856 
L 1984 4856 
z
" transform="scale(0.015625)"/>
      <path id="DejaVuSans-53" d="M 3425 4513 
L 3425 3897 
Q 3066 4069 2747 4153 
Q 2428 4238 2131 4238 
Q 1616 4238 1336 4038 
Q 1056 3838 1056 3469 
Q 1056 3159 1242 3001 
Q 1428 2844 1947 2747 
L 2328 2669 
Q 3034 2534 3370 2195 
Q 3706 1856 3706 1288 
Q 3706 609 3251 259 
Q 2797 -91 1919 -91 
Q 1588 -91 1214 -16 
Q 841 59 441 206 
L 441 856 
Q 825 641 1194 531 
Q 1563 422 1919 422 
Q 2459 422 2753 634 
Q 3047 847 3047 1241 
Q 3047 1584 2836 1778 
Q 2625 1972 2144 2069 
L 1759 2144 
Q 1053 2284 737 2584 
Q 422 2884 422 3419 
Q 422 4038 858 4394 
Q 1294 4750 2059 4750 
Q 2388 4750 2728 4690 
Q 3069 4631 3425 4513 
z
" transform="scale(0.015625)"/>
      <path id="DejaVuSans-6d" d="M 3328 2828 
Q 3544 3216 3844 3400 
Q 4144 3584 4550 3584 
Q 5097 3584 5394 3201 
Q 5691 2819 5691 2113 
L 5691 0 
L 5113 0 
L 5113 2094 
Q 5113 2597 4934 2840 
Q 4756 3084 4391 3084 
Q 3944 3084 3684 2787 
Q 3425 2491 3425 1978 
L 3425 0 
L 2847 0 
L 2847 2094 
Q 2847 2600 2669 2842 
Q 2491 3084 2119 3084 
Q 1678 3084 1418 2786 
Q 1159 2488 1159 1978 
L 1159 0 
L 581 0 
L 581 3500 
L 1159 3500 
L 1159 2956 
Q 1356 3278 1631 3431 
Q 1906 3584 2284 3584 
Q 2666 3584 2933 3390 
Q 3200 3197 3328 2828 
z
" transform="scale(0.015625)"/>
      <path id="DejaVuSans-23" d="M 3272 2816 
L 2363 2816 
L 2100 1772 
L 3016 1772 
L 3272 2816 
z
M 2803 4594 
L 2478 3297 
L 3391 3297 
L 3719 4594 
L 4219 4594 
L 3897 3297 
L 4872 3297 
L 4872 2816 
L 3775 2816 
L 3519 1772 
L 4513 1772 
L 4513 1294 
L 3397 1294 
L 3072 0 
L 2572 0 
L 2894 1294 
L 1978 1294 
L 1656 0 
L 1153 0 
L 1478 1294 
L 494 1294 
L 494 1772 
L 1594 1772 
L 1856 2816 
L 850 2816 
L 850 3297 
L 1978 3297 
L 2297 4594 
L 2803 4594 
z
" transform="scale(0.015625)"/>
      <path id="DejaVuSans-29" d="M 513 4856 
L 1013 4856 
Q 1481 4119 1714 3412 
Q 1947 2706 1947 2009 
Q 1947 1309 1714 600 
Q 1481 -109 1013 -844 
L 513 -844 
Q 928 -128 1133 580 
Q 1338 1288 1338 2009 
Q 1338 2731 1133 3434 
Q 928 4138 513 4856 
z
" transform="scale(0.015625)"/>
     </defs>
     <use xlink:href="#DejaVuSans-47"/>
     <use xlink:href="#DejaVuSans-41" transform="translate(77.490234 0)"/>
     <use xlink:href="#DejaVuSans-20" transform="translate(145.898438 0)"/>
     <use xlink:href="#DejaVuSans-45" transform="translate(177.685547 0)"/>
     <use xlink:href="#DejaVuSans-76" transform="translate(240.869141 0)"/>
     <use xlink:href="#DejaVuSans-6f" transform="translate(300.048828 0)"/>
     <use xlink:href="#DejaVuSans-6c" transform="translate(361.230469 0)"/>
     <use xlink:href="#DejaVuSans-75" transform="translate(389.013672 0)"/>
     <use xlink:href="#DejaVuSans-74" transform="translate(452.392578 0)"/>
     <use xlink:href="#DejaVuSans-69" transform="translate(491.601562 0)"/>
     <use xlink:href="#DejaVuSans-6f" transform="translate(519.384766 0)"/>
     <use xlink:href="#DejaVuSans-6e" transform="translate(580.566406 0)"/>
     <use xlink:href="#DejaVuSans-20" transform="translate(643.945312 0)"/>
     <use xlink:href="#DejaVuSans-28" transform="translate(675.732422 0)"/>
     <use xlink:href="#DejaVuSans-53" transform="translate(714.746094 0)"/>
     <use xlink:href="#DejaVuSans-69" transform="translate(778.222656 0)"/>
     <use xlink:href="#DejaVuSans-6d" transform="translate(806.005859 0)"/>
     <use xlink:href="#DejaVuSans-75" transform="translate(903.417969 0)"/>
     <use xlink:href="#DejaVuSans-6c" transform="translate(966.796875 0)"/>
     <use xlink:href="#DejaVuSans-61" transform="translate(994.580078 0)"/>
     <use xlink:href="#DejaVuSans-74" transform="translate(1055.859375 0)"/>
     <use xlink:href="#DejaVuSans-69" transform="translate(1095.068359 0)"/>
     <use xlink:href="#DejaVuSans-6f" transform="translate(1122.851562 0)"/>
     <use xlink:href="#DejaVuSans-6e" transform="translate(1184.033203 0)"/>
     <use xlink:href="#DejaVuSans-20" transform="translate(1247.412109 0)"/>
     <use xlink:href="#DejaVuSans-23" transform="translate(1279.199219 0)"/>
     <use xlink:href="#DejaVuSans-31" transform="translate(1362.988281 0)"/>
     <use xlink:href="#DejaVuSans-37" transform="translate(1426.611328 0)"/>
     <use xlink:href="#DejaVuSans-29" transform="translate(1490.234375 0)"/>
    </g>
   </g>
   <g id="legend_1">
    <g id="patch_7">
     <path d="M 55.46 55.43625 
L 191.908438 55.43625 
Q 193.908438 55.43625 193.908438 53.43625 
L 193.908438 25.08 
Q 193.908438 23.08 191.908438 23.08 
L 55.46 23.08 
Q 53.46 23.08 53.46 25.08 
L 53.46 53.43625 
Q 53.46 55.43625 55.46 55.43625 
z
" style="fill: #ffffff; opacity: 0.8; stroke: #cccccc; stroke-linejoin: miter"/>
    </g>
    <g id="line2d_43">
     <path d="M 57.46 31.178437 
L 67.46 31.178437 
L 67.46 31.178437 
L 77.46 31.178437 
L 77.46 31.178437 
" style="fill: none; stroke: #1f77b4; stroke-width: 1.5; stroke-linecap: square"/>
    </g>
    <g id="text_24">
     <!-- Best Fitness (GA) -->
     <g transform="translate(85.46 34.678437) scale(0.1 -0.1)">
      <defs>
       <path id="DejaVuSans-42" d="M 1259 2228 
L 1259 519 
L 2272 519 
Q 2781 519 3026 730 
Q 3272 941 3272 1375 
Q 3272 1813 3026 2020 
Q 2781 2228 2272 2228 
L 1259 2228 
z
M 1259 4147 
L 1259 2741 
L 2194 2741 
Q 2656 2741 2882 2914 
Q 3109 3088 3109 3444 
Q 3109 3797 2882 3972 
Q 2656 4147 2194 4147 
L 1259 4147 
z
M 628 4666 
L 2241 4666 
Q 2963 4666 3353 4366 
Q 3744 4066 3744 3513 
Q 3744 3084 3544 2831 
Q 3344 2578 2956 2516 
Q 3422 2416 3680 2098 
Q 3938 1781 3938 1306 
Q 3938 681 3513 340 
Q 3088 0 2303 0 
L 628 0 
L 628 4666 
z
" transform="scale(0.015625)"/>
       <path id="DejaVuSans-73" d="M 2834 3397 
L 2834 2853 
Q 2591 2978 2328 3040 
Q 2066 3103 1784 3103 
Q 1356 3103 1142 2972 
Q 928 2841 928 2578 
Q 928 2378 1081 2264 
Q 1234 2150 1697 2047 
L 1894 2003 
Q 2506 1872 2764 1633 
Q 3022 1394 3022 966 
Q 3022 478 2636 193 
Q 2250 -91 1575 -91 
Q 1294 -91 989 -36 
Q 684 19 347 128 
L 347 722 
Q 666 556 975 473 
Q 1284 391 1588 391 
Q 1994 391 2212 530 
Q 2431 669 2431 922 
Q 2431 1156 2273 1281 
Q 2116 1406 1581 1522 
L 1381 1569 
Q 847 1681 609 1914 
Q 372 2147 372 2553 
Q 372 3047 722 3315 
Q 1072 3584 1716 3584 
Q 2034 3584 2315 3537 
Q 2597 3491 2834 3397 
z
" transform="scale(0.015625)"/>
       <path id="DejaVuSans-46" d="M 628 4666 
L 3309 4666 
L 3309 4134 
L 1259 4134 
L 1259 2759 
L 3109 2759 
L 3109 2228 
L 1259 2228 
L 1259 0 
L 628 0 
L 628 4666 
z
" transform="scale(0.015625)"/>
      </defs>
      <use xlink:href="#DejaVuSans-42"/>
      <use xlink:href="#DejaVuSans-65" transform="translate(68.603516 0)"/>
      <use xlink:href="#DejaVuSans-73" transform="translate(130.126953 0)"/>
      <use xlink:href="#DejaVuSans-74" transform="translate(182.226562 0)"/>
      <use xlink:href="#DejaVuSans-20" transform="translate(221.435547 0)"/>
      <use xlink:href="#DejaVuSans-46" transform="translate(253.222656 0)"/>
      <use xlink:href="#DejaVuSans-69" transform="translate(303.492188 0)"/>
      <use xlink:href="#DejaVuSans-74" transform="translate(331.275391 0)"/>
      <use xlink:href="#DejaVuSans-6e" transform="translate(370.484375 0)"/>
      <use xlink:href="#DejaVuSans-65" transform="translate(433.863281 0)"/>
      <use xlink:href="#DejaVuSans-73" transform="translate(495.386719 0)"/>
      <use xlink:href="#DejaVuSans-73" transform="translate(547.486328 0)"/>
      <use xlink:href="#DejaVuSans-20" transform="translate(599.585938 0)"/>
      <use xlink:href="#DejaVuSans-28" transform="translate(631.373047 0)"/>
      <use xlink:href="#DejaVuSans-47" transform="translate(670.386719 0)"/>
      <use xlink:href="#DejaVuSans-41" transform="translate(747.876953 0)"/>
      <use xlink:href="#DejaVuSans-29" transform="translate(816.285156 0)"/>
     </g>
    </g>
    <g id="line2d_44">
     <path d="M 57.46 45.856562 
L 67.46 45.856562 
L 77.46 45.856562 
" style="fill: none; stroke-dasharray: 5.55,2.4; stroke-dashoffset: 0; stroke: #ff7f0e; stroke-width: 1.5"/>
    </g>
    <g id="text_25">
     <!-- Average Fitness (GA) -->
     <g transform="translate(85.46 49.356562) scale(0.1 -0.1)">
      <defs>
       <path id="DejaVuSans-67" d="M 2906 1791 
Q 2906 2416 2648 2759 
Q 2391 3103 1925 3103 
Q 1463 3103 1205 2759 
Q 947 2416 947 1791 
Q 947 1169 1205 825 
Q 1463 481 1925 481 
Q 2391 481 2648 825 
Q 2906 1169 2906 1791 
z
M 3481 434 
Q 3481 -459 3084 -895 
Q 2688 -1331 1869 -1331 
Q 1566 -1331 1297 -1286 
Q 1028 -1241 775 -1147 
L 775 -588 
Q 1028 -725 1275 -790 
Q 1522 -856 1778 -856 
Q 2344 -856 2625 -561 
Q 2906 -266 2906 331 
L 2906 616 
Q 2728 306 2450 153 
Q 2172 0 1784 0 
Q 1141 0 747 490 
Q 353 981 353 1791 
Q 353 2603 747 3093 
Q 1141 3584 1784 3584 
Q 2172 3584 2450 3431 
Q 2728 3278 2906 2969 
L 2906 3500 
L 3481 3500 
L 3481 434 
z
" transform="scale(0.015625)"/>
      </defs>
      <use xlink:href="#DejaVuSans-41"/>
      <use xlink:href="#DejaVuSans-76" transform="translate(62.533203 0)"/>
      <use xlink:href="#DejaVuSans-65" transform="translate(121.712891 0)"/>
      <use xlink:href="#DejaVuSans-72" transform="translate(183.236328 0)"/>
      <use xlink:href="#DejaVuSans-61" transform="translate(224.349609 0)"/>
      <use xlink:href="#DejaVuSans-67" transform="translate(285.628906 0)"/>
      <use xlink:href="#DejaVuSans-65" transform="translate(349.105469 0)"/>
      <use xlink:href="#DejaVuSans-20" transform="translate(410.628906 0)"/>
      <use xlink:href="#DejaVuSans-46" transform="translate(442.416016 0)"/>
      <use xlink:href="#DejaVuSans-69" transform="translate(492.685547 0)"/>
      <use xlink:href="#DejaVuSans-74" transform="translate(520.46875 0)"/>
      <use xlink:href="#DejaVuSans-6e" transform="translate(559.677734 0)"/>
      <use xlink:href="#DejaVuSans-65" transform="translate(623.056641 0)"/>
      <use xlink:href="#DejaVuSans-73" transform="translate(684.580078 0)"/>
      <use xlink:href="#DejaVuSans-73" transform="translate(736.679688 0)"/>
      <use xlink:href="#DejaVuSans-20" transform="translate(788.779297 0)"/>
      <use xlink:href="#DejaVuSans-28" transform="translate(820.566406 0)"/>
      <use xlink:href="#DejaVuSans-47" transform="translate(859.580078 0)"/>
      <use xlink:href="#DejaVuSans-41" transform="translate(937.070312 0)"/>
      <use xlink:href="#DejaVuSans-29" transform="translate(1005.478516 0)"/>
     </g>
    </g>
   </g>
  </g>
 </g>
 <defs>
  <clipPath id="pbb7ccbbacc">
   <rect x="48.46" y="18.08" width="656.895" height="380.76"/>
  </clipPath>
 </defs>
</svg>
