<?xml version="1.0" encoding="utf-8" standalone="no"?>
<!DOCTYPE svg PUBLIC "-//W3C//DTD SVG 1.1//EN"
  "http://www.w3.org/Graphics/SVG/1.1/DTD/svg11.dtd">
<svg xmlns:xlink="http://www.w3.org/1999/xlink" width="720pt" height="432pt" viewBox="0 0 720 432" xmlns="http://www.w3.org/2000/svg" version="1.1">
 <metadata>
  <rdf:RDF xmlns:dc="http://purl.org/dc/elements/1.1/" xmlns:cc="http://creativecommons.org/ns#" xmlns:rdf="http://www.w3.org/1999/02/22-rdf-syntax-ns#">
   <cc:Work>
    <dc:type rdf:resource="http://purl.org/dc/dcmitype/StillImage"/>
    <dc:date>2025-11-25T04:09:43.658099</dc:date>
    <dc:format>image/svg+xml</dc:format>
    <dc:creator>
     <cc:Agent>
      <dc:title>Matplotlib v3.10.6, https://matplotlib.org/</dc:title>
     </cc:Agent>
    </dc:creator>
   </cc:Work>
  </rdf:RDF>
 </metadata>
 <defs>
  <style type="text/css">*{stroke-linejoin: round; stroke-linecap: butt}</style>
 </defs>
 <g id="figure_1">
  <g id="patch_1">
   <path d="M 0 432 
L 720 432 
L 720 0 
L 0 0 
z
" style="fill: #ffffff"/>
  </g>
  <g id="axes_1">
   <g id="patch_2">
    <path d="M 48.37 398.84 
L 705.355 398.84 
L 705.355 18.08 
L 48.37 18.08 
z
" style="fill: #ffffff"/>
   </g>
   <g id="matplotlib.axis_1">
    <g id="xtick_1">
     <g id="line2d_1">
      <path d="M 48.37 398.84 
L 48.37 18.08 
" clip-path="url(#p97381a888d)" style="fill: none; stroke-dasharray: 0.8,1.32; stroke-dashoffset: 0; stroke: #b0b0b0; stroke-opacity: 0.7; stroke-width: 0.8"/>
     </g>
     <g id="line2d_2">
      <defs>
       <path id="mbe51bb88ba" d="M 0 0 
L 0 3.5 
" style="stroke: #000000; stroke-width: 0.8"/>
      </defs>
      <g>
       <use xlink:href="#mbe51bb88ba" x="48.37" y="398.84" style="stroke: #000000; stroke-width: 0.8"/>
      </g>
     </g>
     <g id="text_1">
      <!-- 0 -->
      <g transform="translate(45.18875 413.438437) scale(0.1 -0.1)">
       <defs>
        <path id="DejaVuSans-30" d="M 2034 4250 
Q 1547 4250 1301 3770 
Q 1056 3291 1056 2328 
Q 1056 1369 1301 889 
Q 1547 409 2034 409 
Q 2525 409 2770 889 
Q 3016 1369 3016 2328 
Q 3016 3291 2770 3770 
Q 2525 4250 2034 4250 
z
M 2034 4750 
Q 2819 4750 3233 4129 
Q 3647 3509 3647 2328 
Q 3647 1150 3233 529 
Q 2819 -91 2034 -91 
Q 1250 -91 836 529 
Q 422 1150 422 2328 
Q 422 3509 836 4129 
Q 1250 4750 2034 4750 
z
" transform="scale(0.015625)"/>
       </defs>
       <use xlink:href="#DejaVuSans-30"/>
      </g>
     </g>
    </g>
    <g id="xtick_2">
     <g id="line2d_3">
      <path d="M 114.0685 398.84 
L 114.0685 18.08 
" clip-path="url(#p97381a888d)" style="fill: none; stroke-dasharray: 0.8,1.32; stroke-dashoffset: 0; stroke: #b0b0b0; stroke-opacity: 0.7; stroke-width: 0.8"/>
     </g>
     <g id="line2d_4">
      <g>
       <use xlink:href="#mbe51bb88ba" x="114.0685" y="398.84" style="stroke: #000000; stroke-width: 0.8"/>
      </g>
     </g>
     <g id="text_2">
      <!-- 100 -->
      <g transform="translate(104.52475 413.438437) scale(0.1 -0.1)">
       <defs>
        <path id="DejaVuSans-31" d="M 794 531 
L 1825 531 
L 1825 4091 
L 703 3866 
L 703 4441 
L 1819 4666 
L 2450 4666 
L 2450 531 
L 3481 531 
L 3481 0 
L 794 0 
L 794 531 
z
" transform="scale(0.015625)"/>
       </defs>
       <use xlink:href="#DejaVuSans-31"/>
       <use xlink:href="#DejaVuSans-30" transform="translate(63.623047 0)"/>
       <use xlink:href="#DejaVuSans-30" transform="translate(127.246094 0)"/>
      </g>
     </g>
    </g>
    <g id="xtick_3">
     <g id="line2d_5">
      <path d="M 179.767 398.84 
L 179.767 18.08 
" clip-path="url(#p97381a888d)" style="fill: none; stroke-dasharray: 0.8,1.32; stroke-dashoffset: 0; stroke: #b0b0b0; stroke-opacity: 0.7; stroke-width: 0.8"/>
     </g>
     <g id="line2d_6">
      <g>
       <use xlink:href="#mbe51bb88ba" x="179.767" y="398.84" style="stroke: #000000; stroke-width: 0.8"/>
      </g>
     </g>
     <g id="text_3">
      <!-- 200 -->
      <g transform="translate(170.22325 413.438437) scale(0.1 -0.1)">
       <defs>
        <path id="DejaVuSans-32" d="M 1228 531 
L 3431 531 
L 3431 0 
L 469 0 
L 469 531 
Q 828 903 1448 1529 
Q 2069 2156 2228 2338 
Q 2531 2678 2651 2914 
Q 2772 3150 2772 3378 
Q 2772 3750 2511 3984 
Q 2250 4219 1831 4219 
Q 1534 4219 1204 4116 
Q 875 4013 500 3803 
L 500 4441 
Q 881 4594 1212 4672 
Q 1544 4750 1819 4750 
Q 2544 4750 2975 4387 
Q 3406 4025 3406 3419 
Q 3406 3131 3298 2873 
Q 3191 2616 2906 2266 
Q 2828 2175 2409 1742 
Q 1991 1309 1228 531 
z
" transform="scale(0.015625)"/>
       </defs>
       <use xlink:href="#DejaVuSans-32"/>
       <use xlink:href="#DejaVuSans-30" transform="translate(63.623047 0)"/>
       <use xlink:href="#DejaVuSans-30" transform="translate(127.246094 0)"/>
      </g>
     </g>
    </g>
    <g id="xtick_4">
     <g id="line2d_7">
      <path d="M 245.4655 398.84 
L 245.4655 18.08 
" clip-path="url(#p97381a888d)" style="fill: none; stroke-dasharray: 0.8,1.32; stroke-dashoffset: 0; stroke: #b0b0b0; stroke-opacity: 0.7; stroke-width: 0.8"/>
     </g>
     <g id="line2d_8">
      <g>
       <use xlink:href="#mbe51bb88ba" x="245.4655" y="398.84" style="stroke: #000000; stroke-width: 0.8"/>
      </g>
     </g>
     <g id="text_4">
      <!-- 300 -->
      <g transform="translate(235.92175 413.438437) scale(0.1 -0.1)">
       <defs>
        <path id="DejaVuSans-33" d="M 2597 2516 
Q 3050 2419 3304 2112 
Q 3559 1806 3559 1356 
Q 3559 666 3084 287 
Q 2609 -91 1734 -91 
Q 1441 -91 1130 -33 
Q 819 25 488 141 
L 488 750 
Q 750 597 1062 519 
Q 1375 441 1716 441 
Q 2309 441 2620 675 
Q 2931 909 2931 1356 
Q 2931 1769 2642 2001 
Q 2353 2234 1838 2234 
L 1294 2234 
L 1294 2753 
L 1863 2753 
Q 2328 2753 2575 2939 
Q 2822 3125 2822 3475 
Q 2822 3834 2567 4026 
Q 2313 4219 1838 4219 
Q 1578 4219 1281 4162 
Q 984 4106 628 3988 
L 628 4550 
Q 988 4650 1302 4700 
Q 1616 4750 1894 4750 
Q 2613 4750 3031 4423 
Q 3450 4097 3450 3541 
Q 3450 3153 3228 2886 
Q 3006 2619 2597 2516 
z
" transform="scale(0.015625)"/>
       </defs>
       <use xlink:href="#DejaVuSans-33"/>
       <use xlink:href="#DejaVuSans-30" transform="translate(63.623047 0)"/>
       <use xlink:href="#DejaVuSans-30" transform="translate(127.246094 0)"/>
      </g>
     </g>
    </g>
    <g id="xtick_5">
     <g id="line2d_9">
      <path d="M 311.164 398.84 
L 311.164 18.08 
" clip-path="url(#p97381a888d)" style="fill: none; stroke-dasharray: 0.8,1.32; stroke-dashoffset: 0; stroke: #b0b0b0; stroke-opacity: 0.7; stroke-width: 0.8"/>
     </g>
     <g id="line2d_10">
      <g>
       <use xlink:href="#mbe51bb88ba" x="311.164" y="398.84" style="stroke: #000000; stroke-width: 0.8"/>
      </g>
     </g>
     <g id="text_5">
      <!-- 400 -->
      <g transform="translate(301.62025 413.438437) scale(0.1 -0.1)">
       <defs>
        <path id="DejaVuSans-34" d="M 2419 4116 
L 825 1625 
L 2419 1625 
L 2419 4116 
z
M 2253 4666 
L 3047 4666 
L 3047 1625 
L 3713 1625 
L 3713 1100 
L 3047 1100 
L 3047 0 
L 2419 0 
L 2419 1100 
L 313 1100 
L 313 1709 
L 2253 4666 
z
" transform="scale(0.015625)"/>
       </defs>
       <use xlink:href="#DejaVuSans-34"/>
       <use xlink:href="#DejaVuSans-30" transform="translate(63.623047 0)"/>
       <use xlink:href="#DejaVuSans-30" transform="translate(127.246094 0)"/>
      </g>
     </g>
    </g>
    <g id="xtick_6">
     <g id="line2d_11">
      <path d="M 376.8625 398.84 
L 376.8625 18.08 
" clip-path="url(#p97381a888d)" style="fill: none; stroke-dasharray: 0.8,1.32; stroke-dashoffset: 0; stroke: #b0b0b0; stroke-opacity: 0.7; stroke-width: 0.8"/>
     </g>
     <g id="line2d_12">
      <g>
       <use xlink:href="#mbe51bb88ba" x="376.8625" y="398.84" style="stroke: #000000; stroke-width: 0.8"/>
      </g>
     </g>
     <g id="text_6">
      <!-- 500 -->
      <g transform="translate(367.31875 413.438437) scale(0.1 -0.1)">
       <defs>
        <path id="DejaVuSans-35" d="M 691 4666 
L 3169 4666 
L 3169 4134 
L 1269 4134 
L 1269 2991 
Q 1406 3038 1543 3061 
Q 1681 3084 1819 3084 
Q 2600 3084 3056 2656 
Q 3513 2228 3513 1497 
Q 3513 744 3044 326 
Q 2575 -91 1722 -91 
Q 1428 -91 1123 -41 
Q 819 9 494 109 
L 494 744 
Q 775 591 1075 516 
Q 1375 441 1709 441 
Q 2250 441 2565 725 
Q 2881 1009 2881 1497 
Q 2881 1984 2565 2268 
Q 2250 2553 1709 2553 
Q 1456 2553 1204 2497 
Q 953 2441 691 2322 
L 691 4666 
z
" transform="scale(0.015625)"/>
       </defs>
       <use xlink:href="#DejaVuSans-35"/>
       <use xlink:href="#DejaVuSans-30" transform="translate(63.623047 0)"/>
       <use xlink:href="#DejaVuSans-30" transform="translate(127.246094 0)"/>
      </g>
     </g>
    </g>
    <g id="xtick_7">
     <g id="line2d_13">
      <path d="M 442.561 398.84 
L 442.561 18.08 
" clip-path="url(#p97381a888d)" style="fill: none; stroke-dasharray: 0.8,1.32; stroke-dashoffset: 0; stroke: #b0b0b0; stroke-opacity: 0.7; stroke-width: 0.8"/>
     </g>
     <g id="line2d_14">
      <g>
       <use xlink:href="#mbe51bb88ba" x="442.561" y="398.84" style="stroke: #000000; stroke-width: 0.8"/>
      </g>
     </g>
     <g id="text_7">
      <!-- 600 -->
      <g transform="translate(433.01725 413.438437) scale(0.1 -0.1)">
       <defs>
        <path id="DejaVuSans-36" d="M 2113 2584 
Q 1688 2584 1439 2293 
Q 1191 2003 1191 1497 
Q 1191 994 1439 701 
Q 1688 409 2113 409 
Q 2538 409 2786 701 
Q 3034 994 3034 1497 
Q 3034 2003 2786 2293 
Q 2538 2584 2113 2584 
z
M 3366 4563 
L 3366 3988 
Q 3128 4100 2886 4159 
Q 2644 4219 2406 4219 
Q 1781 4219 1451 3797 
Q 1122 3375 1075 2522 
Q 1259 2794 1537 2939 
Q 1816 3084 2150 3084 
Q 2853 3084 3261 2657 
Q 3669 2231 3669 1497 
Q 3669 778 3244 343 
Q 2819 -91 2113 -91 
Q 1303 -91 875 529 
Q 447 1150 447 2328 
Q 447 3434 972 4092 
Q 1497 4750 2381 4750 
Q 2619 4750 2861 4703 
Q 3103 4656 3366 4563 
z
" transform="scale(0.015625)"/>
       </defs>
       <use xlink:href="#DejaVuSans-36"/>
       <use xlink:href="#DejaVuSans-30" transform="translate(63.623047 0)"/>
       <use xlink:href="#DejaVuSans-30" transform="translate(127.246094 0)"/>
      </g>
     </g>
    </g>
    <g id="xtick_8">
     <g id="line2d_15">
      <path d="M 508.2595 398.84 
L 508.2595 18.08 
" clip-path="url(#p97381a888d)" style="fill: none; stroke-dasharray: 0.8,1.32; stroke-dashoffset: 0; stroke: #b0b0b0; stroke-opacity: 0.7; stroke-width: 0.8"/>
     </g>
     <g id="line2d_16">
      <g>
       <use xlink:href="#mbe51bb88ba" x="508.2595" y="398.84" style="stroke: #000000; stroke-width: 0.8"/>
      </g>
     </g>
     <g id="text_8">
      <!-- 700 -->
      <g transform="translate(498.71575 413.438437) scale(0.1 -0.1)">
       <defs>
        <path id="DejaVuSans-37" d="M 525 4666 
L 3525 4666 
L 3525 4397 
L 1831 0 
L 1172 0 
L 2766 4134 
L 525 4134 
L 525 4666 
z
" transform="scale(0.015625)"/>
       </defs>
       <use xlink:href="#DejaVuSans-37"/>
       <use xlink:href="#DejaVuSans-30" transform="translate(63.623047 0)"/>
       <use xlink:href="#DejaVuSans-30" transform="translate(127.246094 0)"/>
      </g>
     </g>
    </g>
    <g id="xtick_9">
     <g id="line2d_17">
      <path d="M 573.958 398.84 
L 573.958 18.08 
" clip-path="url(#p97381a888d)" style="fill: none; stroke-dasharray: 0.8,1.32; stroke-dashoffset: 0; stroke: #b0b0b0; stroke-opacity: 0.7; stroke-width: 0.8"/>
     </g>
     <g id="line2d_18">
      <g>
       <use xlink:href="#mbe51bb88ba" x="573.958" y="398.84" style="stroke: #000000; stroke-width: 0.8"/>
      </g>
     </g>
     <g id="text_9">
      <!-- 800 -->
      <g transform="translate(564.41425 413.438437) scale(0.1 -0.1)">
       <defs>
        <path id="DejaVuSans-38" d="M 2034 2216 
Q 1584 2216 1326 1975 
Q 1069 1734 1069 1313 
Q 1069 891 1326 650 
Q 1584 409 2034 409 
Q 2484 409 2743 651 
Q 3003 894 3003 1313 
Q 3003 1734 2745 1975 
Q 2488 2216 2034 2216 
z
M 1403 2484 
Q 997 2584 770 2862 
Q 544 3141 544 3541 
Q 544 4100 942 4425 
Q 1341 4750 2034 4750 
Q 2731 4750 3128 4425 
Q 3525 4100 3525 3541 
Q 3525 3141 3298 2862 
Q 3072 2584 2669 2484 
Q 3125 2378 3379 2068 
Q 3634 1759 3634 1313 
Q 3634 634 3220 271 
Q 2806 -91 2034 -91 
Q 1263 -91 848 271 
Q 434 634 434 1313 
Q 434 1759 690 2068 
Q 947 2378 1403 2484 
z
M 1172 3481 
Q 1172 3119 1398 2916 
Q 1625 2713 2034 2713 
Q 2441 2713 2670 2916 
Q 2900 3119 2900 3481 
Q 2900 3844 2670 4047 
Q 2441 4250 2034 4250 
Q 1625 4250 1398 4047 
Q 1172 3844 1172 3481 
z
" transform="scale(0.015625)"/>
       </defs>
       <use xlink:href="#DejaVuSans-38"/>
       <use xlink:href="#DejaVuSans-30" transform="translate(63.623047 0)"/>
       <use xlink:href="#DejaVuSans-30" transform="translate(127.246094 0)"/>
      </g>
     </g>
    </g>
    <g id="xtick_10">
     <g id="line2d_19">
      <path d="M 639.6565 398.84 
L 639.6565 18.08 
" clip-path="url(#p97381a888d)" style="fill: none; stroke-dasharray: 0.8,1.32; stroke-dashoffset: 0; stroke: #b0b0b0; stroke-opacity: 0.7; stroke-width: 0.8"/>
     </g>
     <g id="line2d_20">
      <g>
       <use xlink:href="#mbe51bb88ba" x="639.6565" y="398.84" style="stroke: #000000; stroke-width: 0.8"/>
      </g>
     </g>
     <g id="text_10">
      <!-- 900 -->
      <g transform="translate(630.11275 413.438437) scale(0.1 -0.1)">
       <defs>
        <path id="DejaVuSans-39" d="M 703 97 
L 703 672 
Q 941 559 1184 500 
Q 1428 441 1663 441 
Q 2288 441 2617 861 
Q 2947 1281 2994 2138 
Q 2813 1869 2534 1725 
Q 2256 1581 1919 1581 
Q 1219 1581 811 2004 
Q 403 2428 403 3163 
Q 403 3881 828 4315 
Q 1253 4750 1959 4750 
Q 2769 4750 3195 4129 
Q 3622 3509 3622 2328 
Q 3622 1225 3098 567 
Q 2575 -91 1691 -91 
Q 1453 -91 1209 -44 
Q 966 3 703 97 
z
M 1959 2075 
Q 2384 2075 2632 2365 
Q 2881 2656 2881 3163 
Q 2881 3666 2632 3958 
Q 2384 4250 1959 4250 
Q 1534 4250 1286 3958 
Q 1038 3666 1038 3163 
Q 1038 2656 1286 2365 
Q 1534 2075 1959 2075 
z
" transform="scale(0.015625)"/>
       </defs>
       <use xlink:href="#DejaVuSans-39"/>
       <use xlink:href="#DejaVuSans-30" transform="translate(63.623047 0)"/>
       <use xlink:href="#DejaVuSans-30" transform="translate(127.246094 0)"/>
      </g>
     </g>
    </g>
    <g id="xtick_11">
     <g id="line2d_21">
      <path d="M 705.355 398.84 
L 705.355 18.08 
" clip-path="url(#p97381a888d)" style="fill: none; stroke-dasharray: 0.8,1.32; stroke-dashoffset: 0; stroke: #b0b0b0; stroke-opacity: 0.7; stroke-width: 0.8"/>
     </g>
     <g id="line2d_22">
      <g>
       <use xlink:href="#mbe51bb88ba" x="705.355" y="398.84" style="stroke: #000000; stroke-width: 0.8"/>
      </g>
     </g>
     <g id="text_11">
      <!-- 1000 -->
      <g transform="translate(692.63 413.438437) scale(0.1 -0.1)">
       <use xlink:href="#DejaVuSans-31"/>
       <use xlink:href="#DejaVuSans-30" transform="translate(63.623047 0)"/>
       <use xlink:href="#DejaVuSans-30" transform="translate(127.246094 0)"/>
       <use xlink:href="#DejaVuSans-30" transform="translate(190.869141 0)"/>
      </g>
     </g>
    </g>
    <g id="text_12">
     <!-- Iteration / Generation -->
     <g transform="translate(322.898438 427.116562) scale(0.1 -0.1)">
      <defs>
       <path id="DejaVuSans-49" d="M 628 4666 
L 1259 4666 
L 1259 0 
L 628 0 
L 628 4666 
z
" transform="scale(0.015625)"/>
       <path id="DejaVuSans-74" d="M 1172 4494 
L 1172 3500 
L 2356 3500 
L 2356 3053 
L 1172 3053 
L 1172 1153 
Q 1172 725 1289 603 
Q 1406 481 1766 481 
L 2356 481 
L 2356 0 
L 1766 0 
Q 1100 0 847 248 
Q 594 497 594 1153 
L 594 3053 
L 172 3053 
L 172 3500 
L 594 3500 
L 594 4494 
L 1172 4494 
z
" transform="scale(0.015625)"/>
       <path id="DejaVuSans-65" d="M 3597 1894 
L 3597 1613 
L 953 1613 
Q 991 1019 1311 708 
Q 1631 397 2203 397 
Q 2534 397 2845 478 
Q 3156 559 3463 722 
L 3463 178 
Q 3153 47 2828 -22 
Q 2503 -91 2169 -91 
Q 1331 -91 842 396 
Q 353 884 353 1716 
Q 353 2575 817 3079 
Q 1281 3584 2069 3584 
Q 2775 3584 3186 3129 
Q 3597 2675 3597 1894 
z
M 3022 2063 
Q 3016 2534 2758 2815 
Q 2500 3097 2075 3097 
Q 1594 3097 1305 2825 
Q 1016 2553 972 2059 
L 3022 2063 
z
" transform="scale(0.015625)"/>
       <path id="DejaVuSans-72" d="M 2631 2963 
Q 2534 3019 2420 3045 
Q 2306 3072 2169 3072 
Q 1681 3072 1420 2755 
Q 1159 2438 1159 1844 
L 1159 0 
L 581 0 
L 581 3500 
L 1159 3500 
L 1159 2956 
Q 1341 3275 1631 3429 
Q 1922 3584 2338 3584 
Q 2397 3584 2469 3576 
Q 2541 3569 2628 3553 
L 2631 2963 
z
" transform="scale(0.015625)"/>
       <path id="DejaVuSans-61" d="M 2194 1759 
Q 1497 1759 1228 1600 
Q 959 1441 959 1056 
Q 959 750 1161 570 
Q 1363 391 1709 391 
Q 2188 391 2477 730 
Q 2766 1069 2766 1631 
L 2766 1759 
L 2194 1759 
z
M 3341 1997 
L 3341 0 
L 2766 0 
L 2766 531 
Q 2569 213 2275 61 
Q 1981 -91 1556 -91 
Q 1019 -91 701 211 
Q 384 513 384 1019 
Q 384 1609 779 1909 
Q 1175 2209 1959 2209 
L 2766 2209 
L 2766 2266 
Q 2766 2663 2505 2880 
Q 2244 3097 1772 3097 
Q 1472 3097 1187 3025 
Q 903 2953 641 2809 
L 641 3341 
Q 956 3463 1253 3523 
Q 1550 3584 1831 3584 
Q 2591 3584 2966 3190 
Q 3341 2797 3341 1997 
z
" transform="scale(0.015625)"/>
       <path id="DejaVuSans-69" d="M 603 3500 
L 1178 3500 
L 1178 0 
L 603 0 
L 603 3500 
z
M 603 4863 
L 1178 4863 
L 1178 4134 
L 603 4134 
L 603 4863 
z
" transform="scale(0.015625)"/>
       <path id="DejaVuSans-6f" d="M 1959 3097 
Q 1497 3097 1228 2736 
Q 959 2375 959 1747 
Q 959 1119 1226 758 
Q 1494 397 1959 397 
Q 2419 397 2687 759 
Q 2956 1122 2956 1747 
Q 2956 2369 2687 2733 
Q 2419 3097 1959 3097 
z
M 1959 3584 
Q 2709 3584 3137 3096 
Q 3566 2609 3566 1747 
Q 3566 888 3137 398 
Q 2709 -91 1959 -91 
Q 1206 -91 779 398 
Q 353 888 353 1747 
Q 353 2609 779 3096 
Q 1206 3584 1959 3584 
z
" transform="scale(0.015625)"/>
       <path id="DejaVuSans-6e" d="M 3513 2113 
L 3513 0 
L 2938 0 
L 2938 2094 
Q 2938 2591 2744 2837 
Q 2550 3084 2163 3084 
Q 1697 3084 1428 2787 
Q 1159 2491 1159 1978 
L 1159 0 
L 581 0 
L 581 3500 
L 1159 3500 
L 1159 2956 
Q 1366 3272 1645 3428 
Q 1925 3584 2291 3584 
Q 2894 3584 3203 3211 
Q 3513 2838 3513 2113 
z
" transform="scale(0.015625)"/>
       <path id="DejaVuSans-20" transform="scale(0.015625)"/>
       <path id="DejaVuSans-2f" d="M 1625 4666 
L 2156 4666 
L 531 -594 
L 0 -594 
L 1625 4666 
z
" transform="scale(0.015625)"/>
       <path id="DejaVuSans-47" d="M 3809 666 
L 3809 1919 
L 2778 1919 
L 2778 2438 
L 4434 2438 
L 4434 434 
Q 4069 175 3628 42 
Q 3188 -91 2688 -91 
Q 1594 -91 976 548 
Q 359 1188 359 2328 
Q 359 3472 976 4111 
Q 1594 4750 2688 4750 
Q 3144 4750 3555 4637 
Q 3966 4525 4313 4306 
L 4313 3634 
Q 3963 3931 3569 4081 
Q 3175 4231 2741 4231 
Q 1884 4231 1454 3753 
Q 1025 3275 1025 2328 
Q 1025 1384 1454 906 
Q 1884 428 2741 428 
Q 3075 428 3337 486 
Q 3600 544 3809 666 
z
" transform="scale(0.015625)"/>
      </defs>
      <use xlink:href="#DejaVuSans-49"/>
      <use xlink:href="#DejaVuSans-74" transform="translate(29.492188 0)"/>
      <use xlink:href="#DejaVuSans-65" transform="translate(68.701172 0)"/>
      <use xlink:href="#DejaVuSans-72" transform="translate(130.224609 0)"/>
      <use xlink:href="#DejaVuSans-61" transform="translate(171.337891 0)"/>
      <use xlink:href="#DejaVuSans-74" transform="translate(232.617188 0)"/>
      <use xlink:href="#DejaVuSans-69" transform="translate(271.826172 0)"/>
      <use xlink:href="#DejaVuSans-6f" transform="translate(299.609375 0)"/>
      <use xlink:href="#DejaVuSans-6e" transform="translate(360.791016 0)"/>
      <use xlink:href="#DejaVuSans-20" transform="translate(424.169922 0)"/>
      <use xlink:href="#DejaVuSans-2f" transform="translate(455.957031 0)"/>
      <use xlink:href="#DejaVuSans-20" transform="translate(489.648438 0)"/>
      <use xlink:href="#DejaVuSans-47" transform="translate(521.435547 0)"/>
      <use xlink:href="#DejaVuSans-65" transform="translate(598.925781 0)"/>
      <use xlink:href="#DejaVuSans-6e" transform="translate(660.449219 0)"/>
      <use xlink:href="#DejaVuSans-65" transform="translate(723.828125 0)"/>
      <use xlink:href="#DejaVuSans-72" transform="translate(785.351562 0)"/>
      <use xlink:href="#DejaVuSans-61" transform="translate(826.464844 0)"/>
      <use xlink:href="#DejaVuSans-74" transform="translate(887.744141 0)"/>
      <use xlink:href="#DejaVuSans-69" transform="translate(926.953125 0)"/>
      <use xlink:href="#DejaVuSans-6f" transform="translate(954.736328 0)"/>
      <use xlink:href="#DejaVuSans-6e" transform="translate(1015.917969 0)"/>
     </g>
    </g>
   </g>
   <g id="matplotlib.axis_2">
    <g id="ytick_1">
     <g id="line2d_23">
      <path d="M 48.37 392.142479 
L 705.355 392.142479 
" clip-path="url(#p97381a888d)" style="fill: none; stroke-dasharray: 0.8,1.32; stroke-dashoffset: 0; stroke: #b0b0b0; stroke-opacity: 0.7; stroke-width: 0.8"/>
     </g>
     <g id="line2d_24">
      <defs>
       <path id="m8e06ca099b" d="M 0 0 
L -3.5 0 
" style="stroke: #000000; stroke-width: 0.8"/>
      </defs>
      <g>
       <use xlink:href="#m8e06ca099b" x="48.37" y="392.142479" style="stroke: #000000; stroke-width: 0.8"/>
      </g>
     </g>
     <g id="text_13">
      <!-- 1000 -->
      <g transform="translate(15.92 395.941698) scale(0.1 -0.1)">
       <use xlink:href="#DejaVuSans-31"/>
       <use xlink:href="#DejaVuSans-30" transform="translate(63.623047 0)"/>
       <use xlink:href="#DejaVuSans-30" transform="translate(127.246094 0)"/>
       <use xlink:href="#DejaVuSans-30" transform="translate(190.869141 0)"/>
      </g>
     </g>
    </g>
    <g id="ytick_2">
     <g id="line2d_25">
      <path d="M 48.37 329.221973 
L 705.355 329.221973 
" clip-path="url(#p97381a888d)" style="fill: none; stroke-dasharray: 0.8,1.32; stroke-dashoffset: 0; stroke: #b0b0b0; stroke-opacity: 0.7; stroke-width: 0.8"/>
     </g>
     <g id="line2d_26">
      <g>
       <use xlink:href="#m8e06ca099b" x="48.37" y="329.221973" style="stroke: #000000; stroke-width: 0.8"/>
      </g>
     </g>
     <g id="text_14">
      <!-- 1500 -->
      <g transform="translate(15.92 333.021192) scale(0.1 -0.1)">
       <use xlink:href="#DejaVuSans-31"/>
       <use xlink:href="#DejaVuSans-35" transform="translate(63.623047 0)"/>
       <use xlink:href="#DejaVuSans-30" transform="translate(127.246094 0)"/>
       <use xlink:href="#DejaVuSans-30" transform="translate(190.869141 0)"/>
      </g>
     </g>
    </g>
    <g id="ytick_3">
     <g id="line2d_27">
      <path d="M 48.37 266.301467 
L 705.355 266.301467 
" clip-path="url(#p97381a888d)" style="fill: none; stroke-dasharray: 0.8,1.32; stroke-dashoffset: 0; stroke: #b0b0b0; stroke-opacity: 0.7; stroke-width: 0.8"/>
     </g>
     <g id="line2d_28">
      <g>
       <use xlink:href="#m8e06ca099b" x="48.37" y="266.301467" style="stroke: #000000; stroke-width: 0.8"/>
      </g>
     </g>
     <g id="text_15">
      <!-- 2000 -->
      <g transform="translate(15.92 270.100686) scale(0.1 -0.1)">
       <use xlink:href="#DejaVuSans-32"/>
       <use xlink:href="#DejaVuSans-30" transform="translate(63.623047 0)"/>
       <use xlink:href="#DejaVuSans-30" transform="translate(127.246094 0)"/>
       <use xlink:href="#DejaVuSans-30" transform="translate(190.869141 0)"/>
      </g>
     </g>
    </g>
    <g id="ytick_4">
     <g id="line2d_29">
      <path d="M 48.37 203.380961 
L 705.355 203.380961 
" clip-path="url(#p97381a888d)" style="fill: none; stroke-dasharray: 0.8,1.32; stroke-dashoffset: 0; stroke: #b0b0b0; stroke-opacity: 0.7; stroke-width: 0.8"/>
     </g>
     <g id="line2d_30">
      <g>
       <use xlink:href="#m8e06ca099b" x="48.37" y="203.380961" style="stroke: #000000; stroke-width: 0.8"/>
      </g>
     </g>
     <g id="text_16">
      <!-- 2500 -->
      <g transform="translate(15.92 207.18018) scale(0.1 -0.1)">
       <use xlink:href="#DejaVuSans-32"/>
       <use xlink:href="#DejaVuSans-35" transform="translate(63.623047 0)"/>
       <use xlink:href="#DejaVuSans-30" transform="translate(127.246094 0)"/>
       <use xlink:href="#DejaVuSans-30" transform="translate(190.869141 0)"/>
      </g>
     </g>
    </g>
    <g id="ytick_5">
     <g id="line2d_31">
      <path d="M 48.37 140.460456 
L 705.355 140.460456 
" clip-path="url(#p97381a888d)" style="fill: none; stroke-dasharray: 0.8,1.32; stroke-dashoffset: 0; stroke: #b0b0b0; stroke-opacity: 0.7; stroke-width: 0.8"/>
     </g>
     <g id="line2d_32">
      <g>
       <use xlink:href="#m8e06ca099b" x="48.37" y="140.460456" style="stroke: #000000; stroke-width: 0.8"/>
      </g>
     </g>
     <g id="text_17">
      <!-- 3000 -->
      <g transform="translate(15.92 144.259674) scale(0.1 -0.1)">
       <use xlink:href="#DejaVuSans-33"/>
       <use xlink:href="#DejaVuSans-30" transform="translate(63.623047 0)"/>
       <use xlink:href="#DejaVuSans-30" transform="translate(127.246094 0)"/>
       <use xlink:href="#DejaVuSans-30" transform="translate(190.869141 0)"/>
      </g>
     </g>
    </g>
    <g id="ytick_6">
     <g id="line2d_33">
      <path d="M 48.37 77.53995 
L 705.355 77.53995 
" clip-path="url(#p97381a888d)" style="fill: none; stroke-dasharray: 0.8,1.32; stroke-dashoffset: 0; stroke: #b0b0b0; stroke-opacity: 0.7; stroke-width: 0.8"/>
     </g>
     <g id="line2d_34">
      <g>
       <use xlink:href="#m8e06ca099b" x="48.37" y="77.53995" style="stroke: #000000; stroke-width: 0.8"/>
      </g>
     </g>
     <g id="text_18">
      <!-- 3500 -->
      <g transform="translate(15.92 81.339169) scale(0.1 -0.1)">
       <use xlink:href="#DejaVuSans-33"/>
       <use xlink:href="#DejaVuSans-35" transform="translate(63.623047 0)"/>
       <use xlink:href="#DejaVuSans-30" transform="translate(127.246094 0)"/>
       <use xlink:href="#DejaVuSans-30" transform="translate(190.869141 0)"/>
      </g>
     </g>
    </g>
    <g id="text_19">
     <!-- Objective Value -->
     <g transform="translate(9.840312 247.490469) rotate(-90) scale(0.1 -0.1)">
      <defs>
       <path id="DejaVuSans-4f" d="M 2522 4238 
Q 1834 4238 1429 3725 
Q 1025 3213 1025 2328 
Q 1025 1447 1429 934 
Q 1834 422 2522 422 
Q 3209 422 3611 934 
Q 4013 1447 4013 2328 
Q 4013 3213 3611 3725 
Q 3209 4238 2522 4238 
z
M 2522 4750 
Q 3503 4750 4090 4092 
Q 4678 3434 4678 2328 
Q 4678 1225 4090 567 
Q 3503 -91 2522 -91 
Q 1538 -91 948 565 
Q 359 1222 359 2328 
Q 359 3434 948 4092 
Q 1538 4750 2522 4750 
z
" transform="scale(0.015625)"/>
       <path id="DejaVuSans-62" d="M 3116 1747 
Q 3116 2381 2855 2742 
Q 2594 3103 2138 3103 
Q 1681 3103 1420 2742 
Q 1159 2381 1159 1747 
Q 1159 1113 1420 752 
Q 1681 391 2138 391 
Q 2594 391 2855 752 
Q 3116 1113 3116 1747 
z
M 1159 2969 
Q 1341 3281 1617 3432 
Q 1894 3584 2278 3584 
Q 2916 3584 3314 3078 
Q 3713 2572 3713 1747 
Q 3713 922 3314 415 
Q 2916 -91 2278 -91 
Q 1894 -91 1617 61 
Q 1341 213 1159 525 
L 1159 0 
L 581 0 
L 581 4863 
L 1159 4863 
L 1159 2969 
z
" transform="scale(0.015625)"/>
       <path id="DejaVuSans-6a" d="M 603 3500 
L 1178 3500 
L 1178 -63 
Q 1178 -731 923 -1031 
Q 669 -1331 103 -1331 
L -116 -1331 
L -116 -844 
L 38 -844 
Q 366 -844 484 -692 
Q 603 -541 603 -63 
L 603 3500 
z
M 603 4863 
L 1178 4863 
L 1178 4134 
L 603 4134 
L 603 4863 
z
" transform="scale(0.015625)"/>
       <path id="DejaVuSans-63" d="M 3122 3366 
L 3122 2828 
Q 2878 2963 2633 3030 
Q 2388 3097 2138 3097 
Q 1578 3097 1268 2742 
Q 959 2388 959 1747 
Q 959 1106 1268 751 
Q 1578 397 2138 397 
Q 2388 397 2633 464 
Q 2878 531 3122 666 
L 3122 134 
Q 2881 22 2623 -34 
Q 2366 -91 2075 -91 
Q 1284 -91 818 406 
Q 353 903 353 1747 
Q 353 2603 823 3093 
Q 1294 3584 2113 3584 
Q 2378 3584 2631 3529 
Q 2884 3475 3122 3366 
z
" transform="scale(0.015625)"/>
       <path id="DejaVuSans-76" d="M 191 3500 
L 800 3500 
L 1894 563 
L 2988 3500 
L 3597 3500 
L 2284 0 
L 1503 0 
L 191 3500 
z
" transform="scale(0.015625)"/>
       <path id="DejaVuSans-56" d="M 1831 0 
L 50 4666 
L 709 4666 
L 2188 738 
L 3669 4666 
L 4325 4666 
L 2547 0 
L 1831 0 
z
" transform="scale(0.015625)"/>
       <path id="DejaVuSans-6c" d="M 603 4863 
L 1178 4863 
L 1178 0 
L 603 0 
L 603 4863 
z
" transform="scale(0.015625)"/>
       <path id="DejaVuSans-75" d="M 544 1381 
L 544 3500 
L 1119 3500 
L 1119 1403 
Q 1119 906 1312 657 
Q 1506 409 1894 409 
Q 2359 409 2629 706 
Q 2900 1003 2900 1516 
L 2900 3500 
L 3475 3500 
L 3475 0 
L 2900 0 
L 2900 538 
Q 2691 219 2414 64 
Q 2138 -91 1772 -91 
Q 1169 -91 856 284 
Q 544 659 544 1381 
z
M 1991 3584 
L 1991 3584 
z
" transform="scale(0.015625)"/>
      </defs>
      <use xlink:href="#DejaVuSans-4f"/>
      <use xlink:href="#DejaVuSans-62" transform="translate(78.710938 0)"/>
      <use xlink:href="#DejaVuSans-6a" transform="translate(142.1875 0)"/>
      <use xlink:href="#DejaVuSans-65" transform="translate(169.970703 0)"/>
      <use xlink:href="#DejaVuSans-63" transform="translate(231.494141 0)"/>
      <use xlink:href="#DejaVuSans-74" transform="translate(286.474609 0)"/>
      <use xlink:href="#DejaVuSans-69" transform="translate(325.683594 0)"/>
      <use xlink:href="#DejaVuSans-76" transform="translate(353.466797 0)"/>
      <use xlink:href="#DejaVuSans-65" transform="translate(412.646484 0)"/>
      <use xlink:href="#DejaVuSans-20" transform="translate(474.169922 0)"/>
      <use xlink:href="#DejaVuSans-56" transform="translate(505.957031 0)"/>
      <use xlink:href="#DejaVuSans-61" transform="translate(566.615234 0)"/>
      <use xlink:href="#DejaVuSans-6c" transform="translate(627.894531 0)"/>
      <use xlink:href="#DejaVuSans-75" transform="translate(655.677734 0)"/>
      <use xlink:href="#DejaVuSans-65" transform="translate(719.056641 0)"/>
     </g>
    </g>
   </g>
   <g id="line2d_35">
    <path d="M 48.37 246.295722 
L 50.99794 246.295722 
L 50.99794 300.985128 
L 62.82367 300.985128 
L 62.82367 309.193669 
L 79.90528 309.193669 
L 79.90528 316.015296 
L 102.24277 316.015296 
L 102.24277 325.698124 
L 185.02288 325.698124 
L 185.02288 331.888714 
L 204.73243 331.888714 
L 204.73243 333.465525 
L 254.006305 333.465525 
L 254.006305 340.086817 
L 386.06029 340.086817 
L 386.06029 343.15584 
L 449.13085 343.15584 
L 449.13085 347.063001 
L 483.951055 347.063001 
L 483.951055 347.788258 
L 540.451765 347.788258 
L 540.451765 366.124184 
L 614.034085 366.124184 
L 614.034085 367.11 
L 704.698015 367.11 
L 704.698015 367.11 
" clip-path="url(#p97381a888d)" style="fill: none; stroke: #1f77b4; stroke-width: 1.5; stroke-linecap: square"/>
   </g>
   <g id="line2d_36">
    <path d="M 48.37 121.522068 
L 49.026985 114.655871 
L 49.68397 102.645212 
L 50.340955 72.488246 
L 51.654925 107.337372 
L 52.31191 78.753148 
L 52.968895 93.449392 
L 53.62588 118.347435 
L 54.282865 137.869912 
L 54.93985 131.022863 
L 55.596835 114.423443 
L 56.25382 142.40905 
L 56.910805 127.155485 
L 57.56779 124.26274 
L 58.88176 147.278502 
L 59.538745 152.517124 
L 60.19573 137.178556 
L 60.852715 125.007716 
L 61.5097 149.022531 
L 62.166685 141.654324 
L 62.82367 114.969105 
L 63.480655 134.142984 
L 64.13764 131.94286 
L 64.794625 129.145535 
L 65.45161 115.211475 
L 66.108595 114.343531 
L 66.76558 172.082953 
L 67.422565 116.321447 
L 68.07955 95.10406 
L 68.736535 119.338986 
L 69.39352 98.466076 
L 70.050505 133.292521 
L 70.70749 110.813923 
L 71.364475 140.67198 
L 72.02146 152.02621 
L 72.678445 157.757335 
L 73.33543 107.082907 
L 73.992415 137.454321 
L 74.6494 110.33253 
L 75.306385 104.032965 
L 75.96337 116.385113 
L 76.620355 118.324533 
L 77.27734 132.269204 
L 77.934325 133.947216 
L 78.59131 156.255909 
L 79.248295 145.428869 
L 79.90528 149.972609 
L 80.562265 145.261378 
L 81.21925 114.672031 
L 81.876235 131.552599 
L 82.53322 170.853594 
L 83.190205 138.011324 
L 83.84719 175.411262 
L 84.504175 120.934833 
L 85.16116 160.899718 
L 85.818145 166.183051 
L 86.47513 148.356568 
L 87.132115 158.089092 
L 87.7891 185.221344 
L 88.446085 145.570437 
L 89.10307 137.270571 
L 89.760055 116.847893 
L 90.41704 136.892838 
L 91.074025 129.425562 
L 91.73101 144.289629 
L 92.387995 147.163565 
L 93.04498 154.061304 
L 93.701965 150.862551 
L 94.35895 140.131074 
L 95.015935 156.440088 
L 95.67292 154.801619 
L 96.329905 154.912353 
L 96.98689 150.529543 
L 97.643875 149.516559 
L 98.30086 151.215966 
L 98.957845 166.320783 
L 99.61483 159.471101 
L 100.271815 157.198846 
L 100.9288 155.516473 
L 101.585785 126.490844 
L 102.24277 154.639254 
L 102.899755 171.967017 
L 103.55674 139.561272 
L 104.213725 113.714247 
L 104.87071 157.140293 
L 105.527695 115.448078 
L 106.18468 140.040845 
L 106.841665 139.098801 
L 107.49865 144.972232 
L 108.155635 141.813471 
L 108.81262 139.886926 
L 109.469605 138.925523 
L 110.12659 157.576948 
L 110.783575 137.562916 
L 111.44056 155.40408 
L 112.097545 157.276775 
L 112.75453 131.077703 
L 113.411515 121.805033 
L 114.0685 130.36429 
L 114.725485 114.996425 
L 115.38247 142.026083 
L 116.039455 115.225325 
L 116.69644 129.390371 
L 118.01041 121.875194 
L 118.667395 121.399563 
L 119.32438 128.023493 
L 119.981365 128.812539 
L 120.63835 122.48051 
L 121.295335 139.92171 
L 121.95232 135.948168 
L 122.609305 128.490715 
L 123.26629 145.618918 
L 123.923275 129.17373 
L 124.58026 148.512901 
L 125.237245 161.59555 
L 125.89423 158.055103 
L 126.551215 143.503182 
L 127.2082 134.16056 
L 127.865185 132.522315 
L 128.52217 150.182736 
L 129.179155 149.483025 
L 129.83614 149.700894 
L 130.493125 120.900505 
L 131.15011 123.810073 
L 131.807095 114.587945 
L 132.46408 154.410495 
L 133.121065 134.422943 
L 133.77805 136.633757 
L 134.435035 123.715564 
L 135.09202 139.501786 
L 135.749005 114.474107 
L 136.40599 138.219238 
L 137.062975 145.603743 
L 137.71996 129.787237 
L 138.376945 134.068403 
L 139.03393 127.287933 
L 140.3479 102.168901 
L 141.004885 84.927643 
L 141.66187 115.334259 
L 142.318855 133.794169 
L 142.97584 126.983938 
L 143.632825 137.978543 
L 144.28981 119.584243 
L 144.946795 135.919701 
L 145.60378 136.820647 
L 146.260765 146.997474 
L 146.91775 117.708821 
L 148.23172 150.440128 
L 148.888705 157.02769 
L 149.54569 137.019908 
L 150.202675 132.896388 
L 150.85966 122.219745 
L 152.17363 143.267878 
L 152.830615 168.786169 
L 153.4876 144.972072 
L 154.144585 126.222818 
L 154.80157 142.953324 
L 155.458555 105.777184 
L 156.11554 163.047084 
L 156.772525 138.947055 
L 157.42951 129.520214 
L 158.086495 135.997357 
L 158.74348 136.789579 
L 159.400465 111.073152 
L 160.05745 157.613703 
L 160.714435 153.635849 
L 161.37142 171.389951 
L 162.028405 174.196014 
L 162.68539 140.576606 
L 163.342375 168.616446 
L 163.99936 161.145391 
L 164.656345 125.260501 
L 165.31333 144.165081 
L 165.970315 119.406595 
L 166.6273 116.194592 
L 167.284285 145.644992 
L 167.94127 161.577937 
L 168.598255 130.107434 
L 169.25524 129.033231 
L 170.56921 151.242741 
L 171.226195 110.346401 
L 171.88318 141.328003 
L 172.540165 140.655562 
L 173.854135 87.129046 
L 174.51112 115.965469 
L 175.168105 134.821828 
L 175.82509 135.28098 
L 176.482075 146.703379 
L 177.13906 167.517971 
L 177.796045 172.933309 
L 178.45303 159.070604 
L 179.110015 166.620865 
L 179.767 154.976027 
L 180.423985 148.170444 
L 181.08097 146.912335 
L 181.737955 152.728699 
L 182.39494 109.02869 
L 183.051925 137.943142 
L 183.70891 124.348459 
L 184.365895 153.111436 
L 185.02288 139.126735 
L 185.679865 90.603439 
L 186.33685 154.587888 
L 186.993835 125.50684 
L 187.65082 128.284672 
L 188.307805 119.491866 
L 188.96479 78.29569 
L 189.621775 113.136532 
L 190.27876 130.679079 
L 190.935745 123.933548 
L 191.59273 131.335484 
L 192.249715 134.3475 
L 192.9067 126.692106 
L 193.563685 155.84416 
L 194.22067 127.215368 
L 194.877655 144.117068 
L 195.53464 129.115582 
L 196.191625 122.233052 
L 196.84861 147.471621 
L 197.505595 139.029813 
L 198.16258 146.322812 
L 198.819565 181.637379 
L 199.47655 163.477002 
L 200.133535 176.188067 
L 200.79052 169.28015 
L 201.447505 100.323375 
L 202.10449 140.567931 
L 202.761475 151.296999 
L 203.41846 127.704194 
L 204.075445 133.766195 
L 205.389415 100.750103 
L 206.0464 128.669195 
L 206.703385 145.524374 
L 207.36037 135.2948 
L 208.017355 149.352036 
L 208.67434 104.788438 
L 209.331325 150.070055 
L 209.98831 140.39167 
L 210.645295 120.237689 
L 211.30228 163.219041 
L 211.959265 137.299735 
L 212.61625 148.154776 
L 213.273235 148.392315 
L 213.93022 165.379965 
L 214.587205 145.569494 
L 215.24419 121.59345 
L 215.901175 140.601523 
L 216.55816 126.281996 
L 217.215145 120.477598 
L 217.87213 96.804561 
L 218.529115 146.257961 
L 219.1861 154.126625 
L 219.843085 129.651738 
L 220.50007 130.193017 
L 221.157055 150.126585 
L 221.81404 151.657471 
L 223.12801 133.434501 
L 223.784995 128.189202 
L 224.44198 116.779177 
L 225.098965 144.925974 
L 225.75595 142.190473 
L 226.412935 168.494417 
L 227.06992 160.46281 
L 227.726905 164.488195 
L 228.38389 129.399399 
L 229.040875 163.946888 
L 229.69786 153.012438 
L 230.354845 173.88192 
L 231.01183 175.681018 
L 231.668815 154.805104 
L 232.3258 160.544832 
L 232.982785 161.620027 
L 234.296755 170.501868 
L 235.610725 130.96634 
L 236.26771 144.011354 
L 236.924695 140.544856 
L 237.58168 120.04977 
L 238.238665 154.843214 
L 238.89565 162.05536 
L 239.552635 133.296957 
L 240.20962 165.640978 
L 240.866605 131.825993 
L 241.52359 133.865282 
L 242.180575 100.023352 
L 242.83756 93.875297 
L 243.494545 141.713717 
L 244.15153 143.961548 
L 244.808515 149.247952 
L 245.4655 143.023627 
L 246.122485 128.469286 
L 246.77947 86.211499 
L 247.436455 94.370801 
L 248.09344 76.405012 
L 248.750425 49.81 
L 249.40741 74.046686 
L 250.72138 153.37359 
L 251.378365 129.838192 
L 252.03535 137.067218 
L 252.692335 137.797838 
L 254.006305 142.874105 
L 254.66329 118.922544 
L 255.320275 126.250584 
L 255.97726 144.400655 
L 256.634245 124.333176 
L 257.29123 149.424474 
L 257.948215 141.354346 
L 258.6052 123.54739 
L 259.262185 140.225988 
L 259.91917 151.978187 
L 260.576155 128.620362 
L 261.23314 136.174504 
L 261.890125 129.284597 
L 262.54711 132.225313 
L 263.204095 95.678526 
L 263.86108 120.325848 
L 264.518065 130.184726 
L 265.17505 145.045137 
L 265.832035 123.704185 
L 266.48902 71.820721 
L 267.146005 93.248828 
L 267.80299 123.019694 
L 268.459975 120.19917 
L 269.11696 144.125583 
L 269.773945 159.442814 
L 270.43093 181.57453 
L 271.087915 154.71687 
L 271.7449 173.531798 
L 273.05887 122.866251 
L 273.715855 135.964023 
L 274.37284 167.028535 
L 275.029825 133.979528 
L 275.68681 139.437318 
L 276.343795 89.32503 
L 277.00078 113.678983 
L 277.657765 142.694824 
L 278.31475 128.321077 
L 278.971735 159.805883 
L 279.62872 155.023653 
L 280.285705 159.271342 
L 280.94269 148.985625 
L 281.599675 135.788933 
L 282.25666 174.32087 
L 282.913645 159.528275 
L 283.57063 187.540535 
L 284.227615 177.994907 
L 284.8846 162.344405 
L 285.541585 155.029282 
L 286.19857 128.088636 
L 286.855555 151.670409 
L 287.51254 145.088906 
L 288.169525 135.29101 
L 288.82651 138.886709 
L 289.483495 164.708652 
L 290.14048 142.393774 
L 290.797465 171.735182 
L 291.45445 146.345356 
L 292.111435 140.018041 
L 292.76842 154.980961 
L 293.425405 152.725364 
L 294.08239 148.221226 
L 294.739375 157.584042 
L 295.39636 149.427665 
L 296.053345 145.336725 
L 296.71033 150.95634 
L 297.367315 177.855585 
L 298.0243 165.744406 
L 298.681285 192.24097 
L 299.995255 134.747626 
L 300.65224 153.264094 
L 301.309225 146.695199 
L 301.96621 172.873933 
L 302.623195 153.680994 
L 303.28018 153.402355 
L 303.937165 131.376432 
L 305.251135 162.509442 
L 305.90812 136.197338 
L 307.22209 175.606601 
L 307.879075 154.413153 
L 308.53606 167.417267 
L 309.193045 143.388654 
L 309.85003 153.819638 
L 310.507015 126.430381 
L 311.164 135.167479 
L 311.820985 136.463787 
L 312.47797 132.726576 
L 313.134955 110.630534 
L 313.79194 96.480327 
L 314.448925 111.181084 
L 315.10591 120.259519 
L 315.762895 101.658764 
L 316.41988 99.493973 
L 317.076865 87.898425 
L 317.73385 112.512774 
L 318.390835 125.185157 
L 319.04782 124.469311 
L 319.704805 127.063018 
L 320.36179 144.0739 
L 321.018775 144.716781 
L 321.67576 148.843321 
L 322.332745 160.311936 
L 322.98973 136.331051 
L 323.646715 144.883578 
L 324.3037 125.308477 
L 324.960685 130.68376 
L 325.61767 103.221962 
L 326.274655 125.149072 
L 326.93164 75.361579 
L 327.588625 116.709134 
L 328.24561 140.342482 
L 328.902595 98.015525 
L 329.55958 138.639113 
L 330.216565 145.302357 
L 330.87355 150.15205 
L 331.530535 149.090123 
L 332.18752 143.186037 
L 332.844505 168.998926 
L 333.50149 147.084027 
L 334.158475 154.844661 
L 334.81546 135.243075 
L 335.472445 124.732014 
L 336.12943 131.587097 
L 336.786415 177.726501 
L 337.4434 163.24633 
L 338.100385 139.524601 
L 338.75737 129.798219 
L 339.414355 164.173049 
L 340.07134 170.671866 
L 342.042295 142.973113 
L 342.69928 140.859095 
L 343.356265 137.563539 
L 344.01325 144.622737 
L 344.670235 117.104145 
L 345.32722 137.592297 
L 345.984205 88.957194 
L 346.64119 100.808322 
L 347.298175 136.83275 
L 347.95516 117.150456 
L 348.612145 133.230024 
L 349.26913 141.757071 
L 349.926115 132.042446 
L 350.5831 135.906014 
L 351.240085 108.273477 
L 351.89707 112.058341 
L 352.554055 116.768672 
L 353.21104 105.263827 
L 353.868025 98.193807 
L 354.52501 121.677604 
L 355.181995 115.324495 
L 355.83898 127.910031 
L 356.495965 127.270631 
L 357.15295 128.522595 
L 357.809935 121.414065 
L 358.46692 123.698204 
L 359.123905 149.552227 
L 359.78089 134.850955 
L 360.437875 162.420155 
L 361.09486 142.944931 
L 361.751845 176.656834 
L 362.40883 170.11744 
L 363.065815 153.477074 
L 363.7228 119.074683 
L 364.379785 132.468547 
L 365.03677 152.090032 
L 365.693755 155.521215 
L 366.35074 151.96031 
L 367.007725 162.138665 
L 367.66471 131.827562 
L 368.321695 134.078856 
L 368.97868 174.603073 
L 369.635665 143.689467 
L 370.29265 135.845448 
L 370.949635 165.605444 
L 371.60662 161.867946 
L 372.263605 156.202301 
L 372.92059 152.26663 
L 373.577575 136.858512 
L 374.23456 124.429511 
L 374.891545 98.753526 
L 375.54853 139.546895 
L 376.205515 125.242803 
L 376.8625 132.190956 
L 377.519485 152.080508 
L 378.17647 163.384086 
L 378.833455 152.639401 
L 379.49044 138.411577 
L 380.147425 138.484893 
L 381.461395 115.121339 
L 382.11838 113.695919 
L 382.775365 101.741069 
L 383.43235 128.880226 
L 384.089335 138.922922 
L 384.74632 152.59442 
L 385.403305 134.254953 
L 386.06029 130.766883 
L 386.717275 120.422275 
L 387.37426 105.724116 
L 388.031245 129.637775 
L 388.68823 114.556288 
L 389.345215 119.627686 
L 390.659185 151.925257 
L 391.31617 150.211156 
L 391.973155 147.949859 
L 392.63014 100.760518 
L 393.287125 141.572965 
L 393.94411 120.087554 
L 394.601095 121.748671 
L 395.25808 142.381135 
L 395.915065 121.412545 
L 396.57205 127.298588 
L 397.229035 145.023322 
L 397.88602 108.485715 
L 398.543005 141.400801 
L 399.19999 129.371565 
L 399.856975 150.082135 
L 400.51396 151.547912 
L 401.170945 143.994444 
L 401.82793 104.32886 
L 402.484915 137.399833 
L 403.1419 149.769464 
L 403.798885 148.058474 
L 404.45587 165.474391 
L 405.112855 114.033435 
L 405.76984 128.34923 
L 406.426825 136.754437 
L 407.08381 136.294683 
L 407.740795 171.868657 
L 408.39778 170.706116 
L 409.054765 140.622263 
L 409.71175 130.670568 
L 410.368735 153.096761 
L 411.02572 182.432766 
L 411.682705 181.129723 
L 412.33969 169.899466 
L 412.996675 150.0434 
L 413.65366 183.708845 
L 414.310645 150.039541 
L 414.96763 169.450279 
L 415.624615 162.681746 
L 416.2816 186.513328 
L 416.938585 156.326386 
L 417.59557 170.512896 
L 418.252555 128.11011 
L 418.90954 147.186236 
L 419.566525 103.643095 
L 420.880495 170.065344 
L 421.53748 170.823974 
L 422.194465 183.574883 
L 422.85145 175.032919 
L 423.508435 149.167898 
L 424.16542 151.809706 
L 424.822405 145.754138 
L 425.47939 122.461824 
L 426.136375 168.642383 
L 426.79336 122.928909 
L 427.450345 152.023376 
L 428.10733 143.089485 
L 428.764315 165.514482 
L 429.4213 129.282849 
L 430.078285 141.150908 
L 430.73527 161.708148 
L 431.392255 156.591405 
L 432.04924 140.042172 
L 432.706225 170.514713 
L 433.36321 123.497753 
L 434.020195 118.829728 
L 434.67718 160.298538 
L 435.99115 142.345709 
L 436.648135 114.167285 
L 437.30512 145.754157 
L 437.962105 160.494052 
L 439.276075 131.154606 
L 439.93306 144.195259 
L 440.590045 153.86158 
L 441.24703 153.928284 
L 441.904015 122.433035 
L 442.561 129.115518 
L 443.217985 141.561679 
L 443.87497 147.345826 
L 444.531955 168.97274 
L 445.18894 144.132257 
L 445.845925 144.147556 
L 446.50291 133.195156 
L 447.159895 139.797582 
L 447.81688 176.349473 
L 448.473865 177.388455 
L 449.13085 157.771608 
L 449.787835 145.871046 
L 450.44482 142.256865 
L 451.101805 144.456624 
L 451.75879 147.234303 
L 452.415775 109.447557 
L 453.07276 128.453226 
L 453.729745 153.777745 
L 454.38673 188.831401 
L 455.043715 150.99144 
L 455.7007 128.220533 
L 456.357685 149.704738 
L 457.01467 156.838221 
L 457.671655 125.304453 
L 458.32864 173.224992 
L 458.985625 150.312144 
L 459.64261 143.181322 
L 460.299595 191.067303 
L 461.613565 135.068964 
L 462.27055 131.394123 
L 462.927535 142.56531 
L 463.58452 163.233581 
L 464.241505 187.648189 
L 464.89849 173.798059 
L 465.555475 134.37765 
L 466.21246 158.944337 
L 466.869445 146.810693 
L 467.52643 136.881766 
L 468.183415 135.941909 
L 468.8404 143.085216 
L 469.497385 96.654421 
L 470.15437 103.925754 
L 470.811355 123.655165 
L 471.46834 120.419234 
L 472.125325 144.967031 
L 472.78231 153.253498 
L 473.439295 153.305671 
L 474.09628 170.130718 
L 474.753265 159.481874 
L 475.41025 159.377258 
L 476.067235 153.973906 
L 476.72422 151.160593 
L 477.381205 157.896576 
L 478.03819 113.27039 
L 478.695175 111.120099 
L 479.35216 126.045766 
L 480.009145 132.563948 
L 480.66613 106.376481 
L 481.323115 145.655107 
L 481.9801 165.532171 
L 482.637085 160.914159 
L 483.29407 151.247681 
L 483.951055 137.872309 
L 484.60804 138.204838 
L 485.265025 164.705112 
L 485.92201 91.210589 
L 486.578995 121.042663 
L 487.23598 110.435621 
L 487.892965 103.676695 
L 488.54995 102.131941 
L 489.206935 156.02795 
L 489.86392 162.413436 
L 490.520905 132.010483 
L 491.17789 95.283277 
L 491.834875 100.076841 
L 492.49186 131.333075 
L 493.148845 141.182468 
L 493.80583 163.167135 
L 494.462815 140.577369 
L 495.1198 110.727331 
L 495.776785 139.011968 
L 496.43377 115.463752 
L 497.090755 133.969176 
L 497.74774 128.727979 
L 498.404725 129.491785 
L 499.06171 144.755006 
L 499.718695 132.406934 
L 500.37568 128.747931 
L 501.032665 135.297132 
L 501.68965 155.838144 
L 502.346635 125.967123 
L 503.00362 133.236256 
L 503.660605 145.436943 
L 504.31759 141.882559 
L 504.974575 154.747534 
L 505.63156 135.827686 
L 506.288545 146.510844 
L 506.94553 149.992616 
L 507.602515 115.292929 
L 508.2595 141.689914 
L 508.916485 137.286605 
L 509.57347 155.727742 
L 510.230455 120.301228 
L 510.88744 128.093929 
L 511.544425 148.787965 
L 512.20141 116.494807 
L 512.858395 164.10402 
L 513.51538 145.325872 
L 514.172365 134.923573 
L 514.82935 141.520472 
L 515.486335 116.416081 
L 516.800305 149.748511 
L 517.45729 148.752729 
L 518.114275 159.800576 
L 518.77126 152.126563 
L 519.428245 151.203529 
L 520.08523 141.795851 
L 520.742215 151.412287 
L 521.3992 110.624489 
L 522.056185 147.642834 
L 522.71317 173.027533 
L 523.370155 180.617474 
L 524.02714 146.251447 
L 524.684125 144.523112 
L 525.34111 124.439991 
L 525.998095 136.958118 
L 526.65508 127.294764 
L 527.96905 148.18059 
L 528.626035 165.87936 
L 529.28302 147.182843 
L 529.940005 151.334764 
L 530.59699 167.446874 
L 531.253975 154.35864 
L 531.91096 147.268417 
L 533.22493 160.841376 
L 533.881915 144.864356 
L 534.5389 134.431091 
L 535.195885 107.031419 
L 535.85287 138.050781 
L 536.509855 139.796071 
L 537.16684 117.543759 
L 537.823825 149.41995 
L 539.137795 131.613546 
L 539.79478 139.570063 
L 540.451765 161.895456 
L 541.10875 159.650887 
L 541.765735 106.274876 
L 542.42272 98.233887 
L 543.079705 144.335037 
L 543.73669 130.12859 
L 544.393675 102.076488 
L 545.05066 123.273285 
L 545.707645 121.245172 
L 546.36463 118.79639 
L 547.021615 124.776703 
L 547.6786 102.944788 
L 548.335585 136.040426 
L 548.99257 96.020816 
L 549.649555 110.445039 
L 550.30654 145.896543 
L 550.963525 140.937025 
L 551.62051 130.819926 
L 552.277495 134.459968 
L 552.93448 108.712909 
L 553.591465 133.710268 
L 554.24845 119.133074 
L 554.905435 147.070352 
L 555.56242 97.228938 
L 556.219405 126.131459 
L 556.87639 135.671894 
L 557.533375 112.155403 
L 558.19036 137.33377 
L 558.847345 112.57332 
L 559.50433 137.516777 
L 560.161315 118.292142 
L 560.8183 141.623426 
L 561.475285 133.163593 
L 562.13227 157.288189 
L 562.789255 113.609133 
L 563.44624 173.853233 
L 564.103225 120.168135 
L 564.76021 109.891803 
L 565.417195 124.684303 
L 566.07418 123.551363 
L 566.731165 114.3006 
L 567.38815 76.982598 
L 568.045135 80.914043 
L 568.70212 74.375113 
L 569.359105 112.270505 
L 570.01609 157.85473 
L 570.673075 152.91985 
L 571.33006 126.034608 
L 571.987045 125.949885 
L 572.64403 131.268776 
L 573.301015 142.578769 
L 573.958 121.33287 
L 574.614985 124.187154 
L 575.27197 141.360027 
L 575.928955 152.831373 
L 576.58594 145.554783 
L 577.242925 131.064694 
L 577.89991 150.082955 
L 578.556895 141.697146 
L 579.21388 162.469254 
L 579.870865 172.973428 
L 580.52785 174.907824 
L 581.184835 151.983405 
L 581.84182 144.114436 
L 582.498805 150.838897 
L 583.15579 155.499606 
L 584.46976 146.536053 
L 585.126745 143.782183 
L 585.78373 165.561441 
L 586.440715 112.212811 
L 587.0977 134.257693 
L 587.754685 183.539195 
L 588.41167 132.118735 
L 589.068655 124.933784 
L 589.72564 84.429236 
L 590.382625 106.403727 
L 591.03961 112.403364 
L 591.696595 107.81826 
L 592.35358 136.593199 
L 593.010565 97.12225 
L 593.66755 126.396132 
L 594.324535 133.380751 
L 594.98152 128.833927 
L 595.638505 130.939578 
L 596.29549 147.09554 
L 596.952475 121.824174 
L 597.60946 160.30477 
L 598.266445 144.361751 
L 599.580415 152.778576 
L 600.2374 110.83778 
L 600.894385 116.582754 
L 601.55137 134.366608 
L 602.86534 86.111003 
L 603.522325 92.125029 
L 604.17931 124.130246 
L 604.836295 138.639077 
L 605.49328 137.123615 
L 606.150265 135.256431 
L 606.80725 145.596814 
L 607.464235 158.995652 
L 608.12122 140.994336 
L 608.778205 145.677711 
L 609.43519 157.358909 
L 610.092175 148.681437 
L 610.74916 136.532694 
L 611.406145 143.98914 
L 612.06313 166.898225 
L 612.720115 158.815255 
L 613.3771 141.00516 
L 614.034085 152.658895 
L 614.69107 154.158508 
L 615.348055 154.314192 
L 616.00504 129.211151 
L 616.662025 129.408132 
L 617.31901 125.807364 
L 617.975995 157.192633 
L 618.63298 154.349758 
L 619.289965 150.130546 
L 619.94695 149.053973 
L 620.603935 134.004374 
L 621.26092 124.12679 
L 621.917905 160.320247 
L 622.57489 141.89137 
L 623.231875 137.516351 
L 623.88886 130.213523 
L 624.545845 100.932189 
L 625.20283 135.216299 
L 625.859815 114.788989 
L 626.5168 135.291766 
L 627.173785 118.153323 
L 627.83077 116.864497 
L 628.487755 144.998077 
L 629.14474 86.856126 
L 629.801725 98.308973 
L 630.45871 122.260963 
L 631.115695 130.585649 
L 631.77268 141.143849 
L 632.429665 141.631515 
L 633.08665 168.068555 
L 633.743635 159.409021 
L 634.40062 142.224058 
L 635.057605 161.541948 
L 635.71459 130.085883 
L 636.371575 130.39854 
L 637.02856 120.504284 
L 637.685545 156.861453 
L 638.34253 85.68351 
L 638.999515 117.965477 
L 639.6565 84.935642 
L 640.313485 96.299324 
L 640.97047 135.37669 
L 642.28444 88.971315 
L 642.941425 150.729626 
L 643.59841 129.024689 
L 644.91238 174.896976 
L 645.569365 165.780884 
L 646.22635 136.789724 
L 646.883335 170.991985 
L 647.54032 133.228105 
L 648.197305 157.367496 
L 648.85429 161.049298 
L 649.511275 135.82261 
L 650.16826 174.396753 
L 650.825245 171.138517 
L 651.48223 179.00013 
L 652.139215 177.774528 
L 652.7962 165.707007 
L 653.453185 194.450592 
L 654.11017 175.901513 
L 654.767155 168.958442 
L 655.42414 130.152516 
L 656.081125 136.982935 
L 656.73811 137.505252 
L 657.395095 179.599966 
L 658.05208 152.514036 
L 658.709065 119.828933 
L 659.36605 130.473368 
L 660.023035 127.006091 
L 660.68002 148.377284 
L 661.337005 154.918036 
L 661.99399 123.320734 
L 662.650975 135.028415 
L 663.30796 116.251323 
L 663.964945 120.406201 
L 664.62193 132.854226 
L 665.278915 157.713586 
L 665.9359 130.427462 
L 666.592885 117.034979 
L 667.24987 133.838206 
L 667.906855 147.676411 
L 668.56384 154.427056 
L 669.220825 194.612072 
L 669.87781 136.80965 
L 670.534795 107.942673 
L 671.19178 153.078637 
L 671.848765 118.927927 
L 672.50575 111.004595 
L 673.162735 131.754763 
L 673.81972 107.126549 
L 674.476705 145.325348 
L 675.13369 128.186858 
L 675.790675 133.010495 
L 676.44766 132.522286 
L 677.104645 139.912241 
L 677.76163 138.807935 
L 678.418615 138.25121 
L 679.0756 147.408661 
L 679.732585 141.833335 
L 680.38957 124.355158 
L 681.046555 155.700191 
L 681.70354 173.087495 
L 682.360525 145.33854 
L 683.01751 153.170004 
L 683.674495 140.024567 
L 684.33148 142.037384 
L 684.988465 141.778227 
L 685.64545 178.490515 
L 686.302435 154.039271 
L 686.95942 172.541891 
L 687.616405 173.745718 
L 688.930375 159.401146 
L 690.244345 121.053765 
L 690.90133 114.865333 
L 691.558315 147.420493 
L 692.2153 116.120589 
L 692.872285 117.551894 
L 693.52927 142.585369 
L 694.186255 119.689632 
L 694.84324 153.192633 
L 695.500225 146.891823 
L 696.15721 177.971258 
L 696.814195 148.800596 
L 697.47118 153.68184 
L 698.128165 169.368148 
L 698.78515 107.670976 
L 699.442135 127.490431 
L 700.09912 142.241537 
L 700.756105 119.416478 
L 701.41309 144.622445 
L 702.070075 154.055871 
L 702.72706 134.745591 
L 703.384045 136.773854 
L 704.04103 177.380691 
L 704.698015 156.88341 
L 704.698015 156.88341 
" clip-path="url(#p97381a888d)" style="fill: none; stroke-dasharray: 5.55,2.4; stroke-dashoffset: 0; stroke: #ff7f0e; stroke-width: 1.5"/>
   </g>
   <g id="patch_3">
    <path d="M 48.37 398.84 
L 48.37 18.08 
" style="fill: none; stroke: #000000; stroke-width: 0.8; stroke-linejoin: miter; stroke-linecap: square"/>
   </g>
   <g id="patch_4">
    <path d="M 705.355 398.84 
L 705.355 18.08 
" style="fill: none; stroke: #000000; stroke-width: 0.8; stroke-linejoin: miter; stroke-linecap: square"/>
   </g>
   <g id="patch_5">
    <path d="M 48.37 398.84 
L 705.355 398.84 
" style="fill: none; stroke: #000000; stroke-width: 0.8; stroke-linejoin: miter; stroke-linecap: square"/>
   </g>
   <g id="patch_6">
    <path d="M 48.37 18.08 
L 705.355 18.08 
" style="fill: none; stroke: #000000; stroke-width: 0.8; stroke-linejoin: miter; stroke-linecap: square"/>
   </g>
   <g id="text_20">
    <!-- GA Evolution (Simulation #8) -->
    <g transform="translate(288.925938 12.08) scale(0.12 -0.12)">
     <defs>
      <path id="DejaVuSans-41" d="M 2188 4044 
L 1331 1722 
L 3047 1722 
L 2188 4044 
z
M 1831 4666 
L 2547 4666 
L 4325 0 
L 3669 0 
L 3244 1197 
L 1141 1197 
L 716 0 
L 50 0 
L 1831 4666 
z
" transform="scale(0.015625)"/>
      <path id="DejaVuSans-45" d="M 628 4666 
L 3578 4666 
L 3578 4134 
L 1259 4134 
L 1259 2753 
L 3481 2753 
L 3481 2222 
L 1259 2222 
L 1259 531 
L 3634 531 
L 3634 0 
L 628 0 
L 628 4666 
z
" transform="scale(0.015625)"/>
      <path id="DejaVuSans-28" d="M 1984 4856 
Q 1566 4138 1362 3434 
Q 1159 2731 1159 2009 
Q 1159 1288 1364 580 
Q 1569 -128 1984 -844 
L 1484 -844 
Q 1016 -109 783 600 
Q 550 1309 550 2009 
Q 550 2706 781 3412 
Q 1013 4119 1484 4856 
L 1984 4856 
z
" transform="scale(0.015625)"/>
      <path id="DejaVuSans-53" d="M 3425 4513 
L 3425 3897 
Q 3066 4069 2747 4153 
Q 2428 4238 2131 4238 
Q 1616 4238 1336 4038 
Q 1056 3838 1056 3469 
Q 1056 3159 1242 3001 
Q 1428 2844 1947 2747 
L 2328 2669 
Q 3034 2534 3370 2195 
Q 3706 1856 3706 1288 
Q 3706 609 3251 259 
Q 2797 -91 1919 -91 
Q 1588 -91 1214 -16 
Q 841 59 441 206 
L 441 856 
Q 825 641 1194 531 
Q 1563 422 1919 422 
Q 2459 422 2753 634 
Q 3047 847 3047 1241 
Q 3047 1584 2836 1778 
Q 2625 1972 2144 2069 
L 1759 2144 
Q 1053 2284 737 2584 
Q 422 2884 422 3419 
Q 422 4038 858 4394 
Q 1294 4750 2059 4750 
Q 2388 4750 2728 4690 
Q 3069 4631 3425 4513 
z
" transform="scale(0.015625)"/>
      <path id="DejaVuSans-6d" d="M 3328 2828 
Q 3544 3216 3844 3400 
Q 4144 3584 4550 3584 
Q 5097 3584 5394 3201 
Q 5691 2819 5691 2113 
L 5691 0 
L 5113 0 
L 5113 2094 
Q 5113 2597 4934 2840 
Q 4756 3084 4391 3084 
Q 3944 3084 3684 2787 
Q 3425 2491 3425 1978 
L 3425 0 
L 2847 0 
L 2847 2094 
Q 2847 2600 2669 2842 
Q 2491 3084 2119 3084 
Q 1678 3084 1418 2786 
Q 1159 2488 1159 1978 
L 1159 0 
L 581 0 
L 581 3500 
L 1159 3500 
L 1159 2956 
Q 1356 3278 1631 3431 
Q 1906 3584 2284 3584 
Q 2666 3584 2933 3390 
Q 3200 3197 3328 2828 
z
" transform="scale(0.015625)"/>
      <path id="DejaVuSans-23" d="M 3272 2816 
L 2363 2816 
L 2100 1772 
L 3016 1772 
L 3272 2816 
z
M 2803 4594 
L 2478 3297 
L 3391 3297 
L 3719 4594 
L 4219 4594 
L 3897 3297 
L 4872 3297 
L 4872 2816 
L 3775 2816 
L 3519 1772 
L 4513 1772 
L 4513 1294 
L 3397 1294 
L 3072 0 
L 2572 0 
L 2894 1294 
L 1978 1294 
L 1656 0 
L 1153 0 
L 1478 1294 
L 494 1294 
L 494 1772 
L 1594 1772 
L 1856 2816 
L 850 2816 
L 850 3297 
L 1978 3297 
L 2297 4594 
L 2803 4594 
z
" transform="scale(0.015625)"/>
      <path id="DejaVuSans-29" d="M 513 4856 
L 1013 4856 
Q 1481 4119 1714 3412 
Q 1947 2706 1947 2009 
Q 1947 1309 1714 600 
Q 1481 -109 1013 -844 
L 513 -844 
Q 928 -128 1133 580 
Q 1338 1288 1338 2009 
Q 1338 2731 1133 3434 
Q 928 4138 513 4856 
z
" transform="scale(0.015625)"/>
     </defs>
     <use xlink:href="#DejaVuSans-47"/>
     <use xlink:href="#DejaVuSans-41" transform="translate(77.490234 0)"/>
     <use xlink:href="#DejaVuSans-20" transform="translate(145.898438 0)"/>
     <use xlink:href="#DejaVuSans-45" transform="translate(177.685547 0)"/>
     <use xlink:href="#DejaVuSans-76" transform="translate(240.869141 0)"/>
     <use xlink:href="#DejaVuSans-6f" transform="translate(300.048828 0)"/>
     <use xlink:href="#DejaVuSans-6c" transform="translate(361.230469 0)"/>
     <use xlink:href="#DejaVuSans-75" transform="translate(389.013672 0)"/>
     <use xlink:href="#DejaVuSans-74" transform="translate(452.392578 0)"/>
     <use xlink:href="#DejaVuSans-69" transform="translate(491.601562 0)"/>
     <use xlink:href="#DejaVuSans-6f" transform="translate(519.384766 0)"/>
     <use xlink:href="#DejaVuSans-6e" transform="translate(580.566406 0)"/>
     <use xlink:href="#DejaVuSans-20" transform="translate(643.945312 0)"/>
     <use xlink:href="#DejaVuSans-28" transform="translate(675.732422 0)"/>
     <use xlink:href="#DejaVuSans-53" transform="translate(714.746094 0)"/>
     <use xlink:href="#DejaVuSans-69" transform="translate(778.222656 0)"/>
     <use xlink:href="#DejaVuSans-6d" transform="translate(806.005859 0)"/>
     <use xlink:href="#DejaVuSans-75" transform="translate(903.417969 0)"/>
     <use xlink:href="#DejaVuSans-6c" transform="translate(966.796875 0)"/>
     <use xlink:href="#DejaVuSans-61" transform="translate(994.580078 0)"/>
     <use xlink:href="#DejaVuSans-74" transform="translate(1055.859375 0)"/>
     <use xlink:href="#DejaVuSans-69" transform="translate(1095.068359 0)"/>
     <use xlink:href="#DejaVuSans-6f" transform="translate(1122.851562 0)"/>
     <use xlink:href="#DejaVuSans-6e" transform="translate(1184.033203 0)"/>
     <use xlink:href="#DejaVuSans-20" transform="translate(1247.412109 0)"/>
     <use xlink:href="#DejaVuSans-23" transform="translate(1279.199219 0)"/>
     <use xlink:href="#DejaVuSans-38" transform="translate(1362.988281 0)"/>
     <use xlink:href="#DejaVuSans-29" transform="translate(1426.611328 0)"/>
    </g>
   </g>
   <g id="legend_1">
    <g id="patch_7">
     <path d="M 561.906563 55.43625 
L 698.355 55.43625 
Q 700.355 55.43625 700.355 53.43625 
L 700.355 25.08 
Q 700.355 23.08 698.355 23.08 
L 561.906563 23.08 
Q 559.906563 23.08 559.906563 25.08 
L 559.906563 53.43625 
Q 559.906563 55.43625 561.906563 55.43625 
z
" style="fill: #ffffff; opacity: 0.8; stroke: #cccccc; stroke-linejoin: miter"/>
    </g>
    <g id="line2d_37">
     <path d="M 563.906563 31.178437 
L 573.906563 31.178437 
L 573.906563 31.178437 
L 583.906563 31.178437 
L 583.906563 31.178437 
" style="fill: none; stroke: #1f77b4; stroke-width: 1.5; stroke-linecap: square"/>
    </g>
    <g id="text_21">
     <!-- Best Fitness (GA) -->
     <g transform="translate(591.906563 34.678437) scale(0.1 -0.1)">
      <defs>
       <path id="DejaVuSans-42" d="M 1259 2228 
L 1259 519 
L 2272 519 
Q 2781 519 3026 730 
Q 3272 941 3272 1375 
Q 3272 1813 3026 2020 
Q 2781 2228 2272 2228 
L 1259 2228 
z
M 1259 4147 
L 1259 2741 
L 2194 2741 
Q 2656 2741 2882 2914 
Q 3109 3088 3109 3444 
Q 3109 3797 2882 3972 
Q 2656 4147 2194 4147 
L 1259 4147 
z
M 628 4666 
L 2241 4666 
Q 2963 4666 3353 4366 
Q 3744 4066 3744 3513 
Q 3744 3084 3544 2831 
Q 3344 2578 2956 2516 
Q 3422 2416 3680 2098 
Q 3938 1781 3938 1306 
Q 3938 681 3513 340 
Q 3088 0 2303 0 
L 628 0 
L 628 4666 
z
" transform="scale(0.015625)"/>
       <path id="DejaVuSans-73" d="M 2834 3397 
L 2834 2853 
Q 2591 2978 2328 3040 
Q 2066 3103 1784 3103 
Q 1356 3103 1142 2972 
Q 928 2841 928 2578 
Q 928 2378 1081 2264 
Q 1234 2150 1697 2047 
L 1894 2003 
Q 2506 1872 2764 1633 
Q 3022 1394 3022 966 
Q 3022 478 2636 193 
Q 2250 -91 1575 -91 
Q 1294 -91 989 -36 
Q 684 19 347 128 
L 347 722 
Q 666 556 975 473 
Q 1284 391 1588 391 
Q 1994 391 2212 530 
Q 2431 669 2431 922 
Q 2431 1156 2273 1281 
Q 2116 1406 1581 1522 
L 1381 1569 
Q 847 1681 609 1914 
Q 372 2147 372 2553 
Q 372 3047 722 3315 
Q 1072 3584 1716 3584 
Q 2034 3584 2315 3537 
Q 2597 3491 2834 3397 
z
" transform="scale(0.015625)"/>
       <path id="DejaVuSans-46" d="M 628 4666 
L 3309 4666 
L 3309 4134 
L 1259 4134 
L 1259 2759 
L 3109 2759 
L 3109 2228 
L 1259 2228 
L 1259 0 
L 628 0 
L 628 4666 
z
" transform="scale(0.015625)"/>
      </defs>
      <use xlink:href="#DejaVuSans-42"/>
      <use xlink:href="#DejaVuSans-65" transform="translate(68.603516 0)"/>
      <use xlink:href="#DejaVuSans-73" transform="translate(130.126953 0)"/>
      <use xlink:href="#DejaVuSans-74" transform="translate(182.226562 0)"/>
      <use xlink:href="#DejaVuSans-20" transform="translate(221.435547 0)"/>
      <use xlink:href="#DejaVuSans-46" transform="translate(253.222656 0)"/>
      <use xlink:href="#DejaVuSans-69" transform="translate(303.492188 0)"/>
      <use xlink:href="#DejaVuSans-74" transform="translate(331.275391 0)"/>
      <use xlink:href="#DejaVuSans-6e" transform="translate(370.484375 0)"/>
      <use xlink:href="#DejaVuSans-65" transform="translate(433.863281 0)"/>
      <use xlink:href="#DejaVuSans-73" transform="translate(495.386719 0)"/>
      <use xlink:href="#DejaVuSans-73" transform="translate(547.486328 0)"/>
      <use xlink:href="#DejaVuSans-20" transform="translate(599.585938 0)"/>
      <use xlink:href="#DejaVuSans-28" transform="translate(631.373047 0)"/>
      <use xlink:href="#DejaVuSans-47" transform="translate(670.386719 0)"/>
      <use xlink:href="#DejaVuSans-41" transform="translate(747.876953 0)"/>
      <use xlink:href="#DejaVuSans-29" transform="translate(816.285156 0)"/>
     </g>
    </g>
    <g id="line2d_38">
     <path d="M 563.906563 45.856562 
L 573.906563 45.856562 
L 583.906563 45.856562 
" style="fill: none; stroke-dasharray: 5.55,2.4; stroke-dashoffset: 0; stroke: #ff7f0e; stroke-width: 1.5"/>
    </g>
    <g id="text_22">
     <!-- Average Fitness (GA) -->
     <g transform="translate(591.906563 49.356562) scale(0.1 -0.1)">
      <defs>
       <path id="DejaVuSans-67" d="M 2906 1791 
Q 2906 2416 2648 2759 
Q 2391 3103 1925 3103 
Q 1463 3103 1205 2759 
Q 947 2416 947 1791 
Q 947 1169 1205 825 
Q 1463 481 1925 481 
Q 2391 481 2648 825 
Q 2906 1169 2906 1791 
z
M 3481 434 
Q 3481 -459 3084 -895 
Q 2688 -1331 1869 -1331 
Q 1566 -1331 1297 -1286 
Q 1028 -1241 775 -1147 
L 775 -588 
Q 1028 -725 1275 -790 
Q 1522 -856 1778 -856 
Q 2344 -856 2625 -561 
Q 2906 -266 2906 331 
L 2906 616 
Q 2728 306 2450 153 
Q 2172 0 1784 0 
Q 1141 0 747 490 
Q 353 981 353 1791 
Q 353 2603 747 3093 
Q 1141 3584 1784 3584 
Q 2172 3584 2450 3431 
Q 2728 3278 2906 2969 
L 2906 3500 
L 3481 3500 
L 3481 434 
z
" transform="scale(0.015625)"/>
      </defs>
      <use xlink:href="#DejaVuSans-41"/>
      <use xlink:href="#DejaVuSans-76" transform="translate(62.533203 0)"/>
      <use xlink:href="#DejaVuSans-65" transform="translate(121.712891 0)"/>
      <use xlink:href="#DejaVuSans-72" transform="translate(183.236328 0)"/>
      <use xlink:href="#DejaVuSans-61" transform="translate(224.349609 0)"/>
      <use xlink:href="#DejaVuSans-67" transform="translate(285.628906 0)"/>
      <use xlink:href="#DejaVuSans-65" transform="translate(349.105469 0)"/>
      <use xlink:href="#DejaVuSans-20" transform="translate(410.628906 0)"/>
      <use xlink:href="#DejaVuSans-46" transform="translate(442.416016 0)"/>
      <use xlink:href="#DejaVuSans-69" transform="translate(492.685547 0)"/>
      <use xlink:href="#DejaVuSans-74" transform="translate(520.46875 0)"/>
      <use xlink:href="#DejaVuSans-6e" transform="translate(559.677734 0)"/>
      <use xlink:href="#DejaVuSans-65" transform="translate(623.056641 0)"/>
      <use xlink:href="#DejaVuSans-73" transform="translate(684.580078 0)"/>
      <use xlink:href="#DejaVuSans-73" transform="translate(736.679688 0)"/>
      <use xlink:href="#DejaVuSans-20" transform="translate(788.779297 0)"/>
      <use xlink:href="#DejaVuSans-28" transform="translate(820.566406 0)"/>
      <use xlink:href="#DejaVuSans-47" transform="translate(859.580078 0)"/>
      <use xlink:href="#DejaVuSans-41" transform="translate(937.070312 0)"/>
      <use xlink:href="#DejaVuSans-29" transform="translate(1005.478516 0)"/>
     </g>
    </g>
   </g>
  </g>
 </g>
 <defs>
  <clipPath id="p97381a888d">
   <rect x="48.37" y="18.08" width="656.985" height="380.76"/>
  </clipPath>
 </defs>
</svg>
