<?xml version="1.0" encoding="utf-8" standalone="no"?>
<!DOCTYPE svg PUBLIC "-//W3C//DTD SVG 1.1//EN"
  "http://www.w3.org/Graphics/SVG/1.1/DTD/svg11.dtd">
<svg xmlns:xlink="http://www.w3.org/1999/xlink" width="720pt" height="432pt" viewBox="0 0 720 432" xmlns="http://www.w3.org/2000/svg" version="1.1">
 <metadata>
  <rdf:RDF xmlns:dc="http://purl.org/dc/elements/1.1/" xmlns:cc="http://creativecommons.org/ns#" xmlns:rdf="http://www.w3.org/1999/02/22-rdf-syntax-ns#">
   <cc:Work>
    <dc:type rdf:resource="http://purl.org/dc/dcmitype/StillImage"/>
    <dc:date>2026-07-15T14:12:48.268579</dc:date>
    <dc:format>image/svg+xml</dc:format>
    <dc:creator>
     <cc:Agent>
      <dc:title>Matplotlib v3.10.9, https://matplotlib.org/</dc:title>
     </cc:Agent>
    </dc:creator>
   </cc:Work>
  </rdf:RDF>
 </metadata>
 <defs>
  <style type="text/css">*{stroke-linejoin: round; stroke-linecap: butt}</style>
 </defs>
 <g id="figure_1">
  <g id="patch_1">
   <path d="M 0 432 
L 720 432 
L 720 0 
L 0 0 
z
" style="fill: #ffffff"/>
  </g>
  <g id="axes_1">
   <g id="patch_2">
    <path d="M 48.37 398.84 
L 705.355 398.84 
L 705.355 18.08 
L 48.37 18.08 
z
" style="fill: #ffffff"/>
   </g>
   <g id="matplotlib.axis_1">
    <g id="xtick_1">
     <g id="line2d_1">
      <path d="M 48.37 398.84 
L 48.37 18.08 
" clip-path="url(#p67b349e110)" style="fill: none; stroke-dasharray: 0.8,1.32; stroke-dashoffset: 0; stroke: #b0b0b0; stroke-opacity: 0.7; stroke-width: 0.8"/>
     </g>
     <g id="line2d_2">
      <defs>
       <path id="mccb94e76ab" d="M 0 0 
L 0 3.5 
" style="stroke: #000000; stroke-width: 0.8"/>
      </defs>
      <g>
       <use xlink:href="#mccb94e76ab" x="48.37" y="398.84" style="stroke: #000000; stroke-width: 0.8"/>
      </g>
     </g>
     <g id="text_1">
      <!-- 0 -->
      <g transform="translate(45.18875 413.438437) scale(0.1 -0.1)">
       <defs>
        <path id="DejaVuSans-30" d="M 2034 4250 
Q 1547 4250 1301 3770 
Q 1056 3291 1056 2328 
Q 1056 1369 1301 889 
Q 1547 409 2034 409 
Q 2525 409 2770 889 
Q 3016 1369 3016 2328 
Q 3016 3291 2770 3770 
Q 2525 4250 2034 4250 
z
M 2034 4750 
Q 2819 4750 3233 4129 
Q 3647 3509 3647 2328 
Q 3647 1150 3233 529 
Q 2819 -91 2034 -91 
Q 1250 -91 836 529 
Q 422 1150 422 2328 
Q 422 3509 836 4129 
Q 1250 4750 2034 4750 
z
" transform="scale(0.015625)"/>
       </defs>
       <use xlink:href="#DejaVuSans-30"/>
      </g>
     </g>
    </g>
    <g id="xtick_2">
     <g id="line2d_3">
      <path d="M 114.0685 398.84 
L 114.0685 18.08 
" clip-path="url(#p67b349e110)" style="fill: none; stroke-dasharray: 0.8,1.32; stroke-dashoffset: 0; stroke: #b0b0b0; stroke-opacity: 0.7; stroke-width: 0.8"/>
     </g>
     <g id="line2d_4">
      <g>
       <use xlink:href="#mccb94e76ab" x="114.0685" y="398.84" style="stroke: #000000; stroke-width: 0.8"/>
      </g>
     </g>
     <g id="text_2">
      <!-- 100 -->
      <g transform="translate(104.52475 413.438437) scale(0.1 -0.1)">
       <defs>
        <path id="DejaVuSans-31" d="M 794 531 
L 1825 531 
L 1825 4091 
L 703 3866 
L 703 4441 
L 1819 4666 
L 2450 4666 
L 2450 531 
L 3481 531 
L 3481 0 
L 794 0 
L 794 531 
z
" transform="scale(0.015625)"/>
       </defs>
       <use xlink:href="#DejaVuSans-31"/>
       <use xlink:href="#DejaVuSans-30" transform="translate(63.623047 0)"/>
       <use xlink:href="#DejaVuSans-30" transform="translate(127.246094 0)"/>
      </g>
     </g>
    </g>
    <g id="xtick_3">
     <g id="line2d_5">
      <path d="M 179.767 398.84 
L 179.767 18.08 
" clip-path="url(#p67b349e110)" style="fill: none; stroke-dasharray: 0.8,1.32; stroke-dashoffset: 0; stroke: #b0b0b0; stroke-opacity: 0.7; stroke-width: 0.8"/>
     </g>
     <g id="line2d_6">
      <g>
       <use xlink:href="#mccb94e76ab" x="179.767" y="398.84" style="stroke: #000000; stroke-width: 0.8"/>
      </g>
     </g>
     <g id="text_3">
      <!-- 200 -->
      <g transform="translate(170.22325 413.438437) scale(0.1 -0.1)">
       <defs>
        <path id="DejaVuSans-32" d="M 1228 531 
L 3431 531 
L 3431 0 
L 469 0 
L 469 531 
Q 828 903 1448 1529 
Q 2069 2156 2228 2338 
Q 2531 2678 2651 2914 
Q 2772 3150 2772 3378 
Q 2772 3750 2511 3984 
Q 2250 4219 1831 4219 
Q 1534 4219 1204 4116 
Q 875 4013 500 3803 
L 500 4441 
Q 881 4594 1212 4672 
Q 1544 4750 1819 4750 
Q 2544 4750 2975 4387 
Q 3406 4025 3406 3419 
Q 3406 3131 3298 2873 
Q 3191 2616 2906 2266 
Q 2828 2175 2409 1742 
Q 1991 1309 1228 531 
z
" transform="scale(0.015625)"/>
       </defs>
       <use xlink:href="#DejaVuSans-32"/>
       <use xlink:href="#DejaVuSans-30" transform="translate(63.623047 0)"/>
       <use xlink:href="#DejaVuSans-30" transform="translate(127.246094 0)"/>
      </g>
     </g>
    </g>
    <g id="xtick_4">
     <g id="line2d_7">
      <path d="M 245.4655 398.84 
L 245.4655 18.08 
" clip-path="url(#p67b349e110)" style="fill: none; stroke-dasharray: 0.8,1.32; stroke-dashoffset: 0; stroke: #b0b0b0; stroke-opacity: 0.7; stroke-width: 0.8"/>
     </g>
     <g id="line2d_8">
      <g>
       <use xlink:href="#mccb94e76ab" x="245.4655" y="398.84" style="stroke: #000000; stroke-width: 0.8"/>
      </g>
     </g>
     <g id="text_4">
      <!-- 300 -->
      <g transform="translate(235.92175 413.438437) scale(0.1 -0.1)">
       <defs>
        <path id="DejaVuSans-33" d="M 2597 2516 
Q 3050 2419 3304 2112 
Q 3559 1806 3559 1356 
Q 3559 666 3084 287 
Q 2609 -91 1734 -91 
Q 1441 -91 1130 -33 
Q 819 25 488 141 
L 488 750 
Q 750 597 1062 519 
Q 1375 441 1716 441 
Q 2309 441 2620 675 
Q 2931 909 2931 1356 
Q 2931 1769 2642 2001 
Q 2353 2234 1838 2234 
L 1294 2234 
L 1294 2753 
L 1863 2753 
Q 2328 2753 2575 2939 
Q 2822 3125 2822 3475 
Q 2822 3834 2567 4026 
Q 2313 4219 1838 4219 
Q 1578 4219 1281 4162 
Q 984 4106 628 3988 
L 628 4550 
Q 988 4650 1302 4700 
Q 1616 4750 1894 4750 
Q 2613 4750 3031 4423 
Q 3450 4097 3450 3541 
Q 3450 3153 3228 2886 
Q 3006 2619 2597 2516 
z
" transform="scale(0.015625)"/>
       </defs>
       <use xlink:href="#DejaVuSans-33"/>
       <use xlink:href="#DejaVuSans-30" transform="translate(63.623047 0)"/>
       <use xlink:href="#DejaVuSans-30" transform="translate(127.246094 0)"/>
      </g>
     </g>
    </g>
    <g id="xtick_5">
     <g id="line2d_9">
      <path d="M 311.164 398.84 
L 311.164 18.08 
" clip-path="url(#p67b349e110)" style="fill: none; stroke-dasharray: 0.8,1.32; stroke-dashoffset: 0; stroke: #b0b0b0; stroke-opacity: 0.7; stroke-width: 0.8"/>
     </g>
     <g id="line2d_10">
      <g>
       <use xlink:href="#mccb94e76ab" x="311.164" y="398.84" style="stroke: #000000; stroke-width: 0.8"/>
      </g>
     </g>
     <g id="text_5">
      <!-- 400 -->
      <g transform="translate(301.62025 413.438437) scale(0.1 -0.1)">
       <defs>
        <path id="DejaVuSans-34" d="M 2419 4116 
L 825 1625 
L 2419 1625 
L 2419 4116 
z
M 2253 4666 
L 3047 4666 
L 3047 1625 
L 3713 1625 
L 3713 1100 
L 3047 1100 
L 3047 0 
L 2419 0 
L 2419 1100 
L 313 1100 
L 313 1709 
L 2253 4666 
z
" transform="scale(0.015625)"/>
       </defs>
       <use xlink:href="#DejaVuSans-34"/>
       <use xlink:href="#DejaVuSans-30" transform="translate(63.623047 0)"/>
       <use xlink:href="#DejaVuSans-30" transform="translate(127.246094 0)"/>
      </g>
     </g>
    </g>
    <g id="xtick_6">
     <g id="line2d_11">
      <path d="M 376.8625 398.84 
L 376.8625 18.08 
" clip-path="url(#p67b349e110)" style="fill: none; stroke-dasharray: 0.8,1.32; stroke-dashoffset: 0; stroke: #b0b0b0; stroke-opacity: 0.7; stroke-width: 0.8"/>
     </g>
     <g id="line2d_12">
      <g>
       <use xlink:href="#mccb94e76ab" x="376.8625" y="398.84" style="stroke: #000000; stroke-width: 0.8"/>
      </g>
     </g>
     <g id="text_6">
      <!-- 500 -->
      <g transform="translate(367.31875 413.438437) scale(0.1 -0.1)">
       <defs>
        <path id="DejaVuSans-35" d="M 691 4666 
L 3169 4666 
L 3169 4134 
L 1269 4134 
L 1269 2991 
Q 1406 3038 1543 3061 
Q 1681 3084 1819 3084 
Q 2600 3084 3056 2656 
Q 3513 2228 3513 1497 
Q 3513 744 3044 326 
Q 2575 -91 1722 -91 
Q 1428 -91 1123 -41 
Q 819 9 494 109 
L 494 744 
Q 775 591 1075 516 
Q 1375 441 1709 441 
Q 2250 441 2565 725 
Q 2881 1009 2881 1497 
Q 2881 1984 2565 2268 
Q 2250 2553 1709 2553 
Q 1456 2553 1204 2497 
Q 953 2441 691 2322 
L 691 4666 
z
" transform="scale(0.015625)"/>
       </defs>
       <use xlink:href="#DejaVuSans-35"/>
       <use xlink:href="#DejaVuSans-30" transform="translate(63.623047 0)"/>
       <use xlink:href="#DejaVuSans-30" transform="translate(127.246094 0)"/>
      </g>
     </g>
    </g>
    <g id="xtick_7">
     <g id="line2d_13">
      <path d="M 442.561 398.84 
L 442.561 18.08 
" clip-path="url(#p67b349e110)" style="fill: none; stroke-dasharray: 0.8,1.32; stroke-dashoffset: 0; stroke: #b0b0b0; stroke-opacity: 0.7; stroke-width: 0.8"/>
     </g>
     <g id="line2d_14">
      <g>
       <use xlink:href="#mccb94e76ab" x="442.561" y="398.84" style="stroke: #000000; stroke-width: 0.8"/>
      </g>
     </g>
     <g id="text_7">
      <!-- 600 -->
      <g transform="translate(433.01725 413.438437) scale(0.1 -0.1)">
       <defs>
        <path id="DejaVuSans-36" d="M 2113 2584 
Q 1688 2584 1439 2293 
Q 1191 2003 1191 1497 
Q 1191 994 1439 701 
Q 1688 409 2113 409 
Q 2538 409 2786 701 
Q 3034 994 3034 1497 
Q 3034 2003 2786 2293 
Q 2538 2584 2113 2584 
z
M 3366 4563 
L 3366 3988 
Q 3128 4100 2886 4159 
Q 2644 4219 2406 4219 
Q 1781 4219 1451 3797 
Q 1122 3375 1075 2522 
Q 1259 2794 1537 2939 
Q 1816 3084 2150 3084 
Q 2853 3084 3261 2657 
Q 3669 2231 3669 1497 
Q 3669 778 3244 343 
Q 2819 -91 2113 -91 
Q 1303 -91 875 529 
Q 447 1150 447 2328 
Q 447 3434 972 4092 
Q 1497 4750 2381 4750 
Q 2619 4750 2861 4703 
Q 3103 4656 3366 4563 
z
" transform="scale(0.015625)"/>
       </defs>
       <use xlink:href="#DejaVuSans-36"/>
       <use xlink:href="#DejaVuSans-30" transform="translate(63.623047 0)"/>
       <use xlink:href="#DejaVuSans-30" transform="translate(127.246094 0)"/>
      </g>
     </g>
    </g>
    <g id="xtick_8">
     <g id="line2d_15">
      <path d="M 508.2595 398.84 
L 508.2595 18.08 
" clip-path="url(#p67b349e110)" style="fill: none; stroke-dasharray: 0.8,1.32; stroke-dashoffset: 0; stroke: #b0b0b0; stroke-opacity: 0.7; stroke-width: 0.8"/>
     </g>
     <g id="line2d_16">
      <g>
       <use xlink:href="#mccb94e76ab" x="508.2595" y="398.84" style="stroke: #000000; stroke-width: 0.8"/>
      </g>
     </g>
     <g id="text_8">
      <!-- 700 -->
      <g transform="translate(498.71575 413.438437) scale(0.1 -0.1)">
       <defs>
        <path id="DejaVuSans-37" d="M 525 4666 
L 3525 4666 
L 3525 4397 
L 1831 0 
L 1172 0 
L 2766 4134 
L 525 4134 
L 525 4666 
z
" transform="scale(0.015625)"/>
       </defs>
       <use xlink:href="#DejaVuSans-37"/>
       <use xlink:href="#DejaVuSans-30" transform="translate(63.623047 0)"/>
       <use xlink:href="#DejaVuSans-30" transform="translate(127.246094 0)"/>
      </g>
     </g>
    </g>
    <g id="xtick_9">
     <g id="line2d_17">
      <path d="M 573.958 398.84 
L 573.958 18.08 
" clip-path="url(#p67b349e110)" style="fill: none; stroke-dasharray: 0.8,1.32; stroke-dashoffset: 0; stroke: #b0b0b0; stroke-opacity: 0.7; stroke-width: 0.8"/>
     </g>
     <g id="line2d_18">
      <g>
       <use xlink:href="#mccb94e76ab" x="573.958" y="398.84" style="stroke: #000000; stroke-width: 0.8"/>
      </g>
     </g>
     <g id="text_9">
      <!-- 800 -->
      <g transform="translate(564.41425 413.438437) scale(0.1 -0.1)">
       <defs>
        <path id="DejaVuSans-38" d="M 2034 2216 
Q 1584 2216 1326 1975 
Q 1069 1734 1069 1313 
Q 1069 891 1326 650 
Q 1584 409 2034 409 
Q 2484 409 2743 651 
Q 3003 894 3003 1313 
Q 3003 1734 2745 1975 
Q 2488 2216 2034 2216 
z
M 1403 2484 
Q 997 2584 770 2862 
Q 544 3141 544 3541 
Q 544 4100 942 4425 
Q 1341 4750 2034 4750 
Q 2731 4750 3128 4425 
Q 3525 4100 3525 3541 
Q 3525 3141 3298 2862 
Q 3072 2584 2669 2484 
Q 3125 2378 3379 2068 
Q 3634 1759 3634 1313 
Q 3634 634 3220 271 
Q 2806 -91 2034 -91 
Q 1263 -91 848 271 
Q 434 634 434 1313 
Q 434 1759 690 2068 
Q 947 2378 1403 2484 
z
M 1172 3481 
Q 1172 3119 1398 2916 
Q 1625 2713 2034 2713 
Q 2441 2713 2670 2916 
Q 2900 3119 2900 3481 
Q 2900 3844 2670 4047 
Q 2441 4250 2034 4250 
Q 1625 4250 1398 4047 
Q 1172 3844 1172 3481 
z
" transform="scale(0.015625)"/>
       </defs>
       <use xlink:href="#DejaVuSans-38"/>
       <use xlink:href="#DejaVuSans-30" transform="translate(63.623047 0)"/>
       <use xlink:href="#DejaVuSans-30" transform="translate(127.246094 0)"/>
      </g>
     </g>
    </g>
    <g id="xtick_10">
     <g id="line2d_19">
      <path d="M 639.6565 398.84 
L 639.6565 18.08 
" clip-path="url(#p67b349e110)" style="fill: none; stroke-dasharray: 0.8,1.32; stroke-dashoffset: 0; stroke: #b0b0b0; stroke-opacity: 0.7; stroke-width: 0.8"/>
     </g>
     <g id="line2d_20">
      <g>
       <use xlink:href="#mccb94e76ab" x="639.6565" y="398.84" style="stroke: #000000; stroke-width: 0.8"/>
      </g>
     </g>
     <g id="text_10">
      <!-- 900 -->
      <g transform="translate(630.11275 413.438437) scale(0.1 -0.1)">
       <defs>
        <path id="DejaVuSans-39" d="M 703 97 
L 703 672 
Q 941 559 1184 500 
Q 1428 441 1663 441 
Q 2288 441 2617 861 
Q 2947 1281 2994 2138 
Q 2813 1869 2534 1725 
Q 2256 1581 1919 1581 
Q 1219 1581 811 2004 
Q 403 2428 403 3163 
Q 403 3881 828 4315 
Q 1253 4750 1959 4750 
Q 2769 4750 3195 4129 
Q 3622 3509 3622 2328 
Q 3622 1225 3098 567 
Q 2575 -91 1691 -91 
Q 1453 -91 1209 -44 
Q 966 3 703 97 
z
M 1959 2075 
Q 2384 2075 2632 2365 
Q 2881 2656 2881 3163 
Q 2881 3666 2632 3958 
Q 2384 4250 1959 4250 
Q 1534 4250 1286 3958 
Q 1038 3666 1038 3163 
Q 1038 2656 1286 2365 
Q 1534 2075 1959 2075 
z
" transform="scale(0.015625)"/>
       </defs>
       <use xlink:href="#DejaVuSans-39"/>
       <use xlink:href="#DejaVuSans-30" transform="translate(63.623047 0)"/>
       <use xlink:href="#DejaVuSans-30" transform="translate(127.246094 0)"/>
      </g>
     </g>
    </g>
    <g id="xtick_11">
     <g id="line2d_21">
      <path d="M 705.355 398.84 
L 705.355 18.08 
" clip-path="url(#p67b349e110)" style="fill: none; stroke-dasharray: 0.8,1.32; stroke-dashoffset: 0; stroke: #b0b0b0; stroke-opacity: 0.7; stroke-width: 0.8"/>
     </g>
     <g id="line2d_22">
      <g>
       <use xlink:href="#mccb94e76ab" x="705.355" y="398.84" style="stroke: #000000; stroke-width: 0.8"/>
      </g>
     </g>
     <g id="text_11">
      <!-- 1000 -->
      <g transform="translate(692.63 413.438437) scale(0.1 -0.1)">
       <use xlink:href="#DejaVuSans-31"/>
       <use xlink:href="#DejaVuSans-30" transform="translate(63.623047 0)"/>
       <use xlink:href="#DejaVuSans-30" transform="translate(127.246094 0)"/>
       <use xlink:href="#DejaVuSans-30" transform="translate(190.869141 0)"/>
      </g>
     </g>
    </g>
    <g id="text_12">
     <!-- Iteration / Generation -->
     <g transform="translate(322.898438 427.116562) scale(0.1 -0.1)">
      <defs>
       <path id="DejaVuSans-49" d="M 628 4666 
L 1259 4666 
L 1259 0 
L 628 0 
L 628 4666 
z
" transform="scale(0.015625)"/>
       <path id="DejaVuSans-74" d="M 1172 4494 
L 1172 3500 
L 2356 3500 
L 2356 3053 
L 1172 3053 
L 1172 1153 
Q 1172 725 1289 603 
Q 1406 481 1766 481 
L 2356 481 
L 2356 0 
L 1766 0 
Q 1100 0 847 248 
Q 594 497 594 1153 
L 594 3053 
L 172 3053 
L 172 3500 
L 594 3500 
L 594 4494 
L 1172 4494 
z
" transform="scale(0.015625)"/>
       <path id="DejaVuSans-65" d="M 3597 1894 
L 3597 1613 
L 953 1613 
Q 991 1019 1311 708 
Q 1631 397 2203 397 
Q 2534 397 2845 478 
Q 3156 559 3463 722 
L 3463 178 
Q 3153 47 2828 -22 
Q 2503 -91 2169 -91 
Q 1331 -91 842 396 
Q 353 884 353 1716 
Q 353 2575 817 3079 
Q 1281 3584 2069 3584 
Q 2775 3584 3186 3129 
Q 3597 2675 3597 1894 
z
M 3022 2063 
Q 3016 2534 2758 2815 
Q 2500 3097 2075 3097 
Q 1594 3097 1305 2825 
Q 1016 2553 972 2059 
L 3022 2063 
z
" transform="scale(0.015625)"/>
       <path id="DejaVuSans-72" d="M 2631 2963 
Q 2534 3019 2420 3045 
Q 2306 3072 2169 3072 
Q 1681 3072 1420 2755 
Q 1159 2438 1159 1844 
L 1159 0 
L 581 0 
L 581 3500 
L 1159 3500 
L 1159 2956 
Q 1341 3275 1631 3429 
Q 1922 3584 2338 3584 
Q 2397 3584 2469 3576 
Q 2541 3569 2628 3553 
L 2631 2963 
z
" transform="scale(0.015625)"/>
       <path id="DejaVuSans-61" d="M 2194 1759 
Q 1497 1759 1228 1600 
Q 959 1441 959 1056 
Q 959 750 1161 570 
Q 1363 391 1709 391 
Q 2188 391 2477 730 
Q 2766 1069 2766 1631 
L 2766 1759 
L 2194 1759 
z
M 3341 1997 
L 3341 0 
L 2766 0 
L 2766 531 
Q 2569 213 2275 61 
Q 1981 -91 1556 -91 
Q 1019 -91 701 211 
Q 384 513 384 1019 
Q 384 1609 779 1909 
Q 1175 2209 1959 2209 
L 2766 2209 
L 2766 2266 
Q 2766 2663 2505 2880 
Q 2244 3097 1772 3097 
Q 1472 3097 1187 3025 
Q 903 2953 641 2809 
L 641 3341 
Q 956 3463 1253 3523 
Q 1550 3584 1831 3584 
Q 2591 3584 2966 3190 
Q 3341 2797 3341 1997 
z
" transform="scale(0.015625)"/>
       <path id="DejaVuSans-69" d="M 603 3500 
L 1178 3500 
L 1178 0 
L 603 0 
L 603 3500 
z
M 603 4863 
L 1178 4863 
L 1178 4134 
L 603 4134 
L 603 4863 
z
" transform="scale(0.015625)"/>
       <path id="DejaVuSans-6f" d="M 1959 3097 
Q 1497 3097 1228 2736 
Q 959 2375 959 1747 
Q 959 1119 1226 758 
Q 1494 397 1959 397 
Q 2419 397 2687 759 
Q 2956 1122 2956 1747 
Q 2956 2369 2687 2733 
Q 2419 3097 1959 3097 
z
M 1959 3584 
Q 2709 3584 3137 3096 
Q 3566 2609 3566 1747 
Q 3566 888 3137 398 
Q 2709 -91 1959 -91 
Q 1206 -91 779 398 
Q 353 888 353 1747 
Q 353 2609 779 3096 
Q 1206 3584 1959 3584 
z
" transform="scale(0.015625)"/>
       <path id="DejaVuSans-6e" d="M 3513 2113 
L 3513 0 
L 2938 0 
L 2938 2094 
Q 2938 2591 2744 2837 
Q 2550 3084 2163 3084 
Q 1697 3084 1428 2787 
Q 1159 2491 1159 1978 
L 1159 0 
L 581 0 
L 581 3500 
L 1159 3500 
L 1159 2956 
Q 1366 3272 1645 3428 
Q 1925 3584 2291 3584 
Q 2894 3584 3203 3211 
Q 3513 2838 3513 2113 
z
" transform="scale(0.015625)"/>
       <path id="DejaVuSans-20" transform="scale(0.015625)"/>
       <path id="DejaVuSans-2f" d="M 1625 4666 
L 2156 4666 
L 531 -594 
L 0 -594 
L 1625 4666 
z
" transform="scale(0.015625)"/>
       <path id="DejaVuSans-47" d="M 3809 666 
L 3809 1919 
L 2778 1919 
L 2778 2438 
L 4434 2438 
L 4434 434 
Q 4069 175 3628 42 
Q 3188 -91 2688 -91 
Q 1594 -91 976 548 
Q 359 1188 359 2328 
Q 359 3472 976 4111 
Q 1594 4750 2688 4750 
Q 3144 4750 3555 4637 
Q 3966 4525 4313 4306 
L 4313 3634 
Q 3963 3931 3569 4081 
Q 3175 4231 2741 4231 
Q 1884 4231 1454 3753 
Q 1025 3275 1025 2328 
Q 1025 1384 1454 906 
Q 1884 428 2741 428 
Q 3075 428 3337 486 
Q 3600 544 3809 666 
z
" transform="scale(0.015625)"/>
      </defs>
      <use xlink:href="#DejaVuSans-49"/>
      <use xlink:href="#DejaVuSans-74" transform="translate(29.492188 0)"/>
      <use xlink:href="#DejaVuSans-65" transform="translate(68.701172 0)"/>
      <use xlink:href="#DejaVuSans-72" transform="translate(130.224609 0)"/>
      <use xlink:href="#DejaVuSans-61" transform="translate(171.337891 0)"/>
      <use xlink:href="#DejaVuSans-74" transform="translate(232.617188 0)"/>
      <use xlink:href="#DejaVuSans-69" transform="translate(271.826172 0)"/>
      <use xlink:href="#DejaVuSans-6f" transform="translate(299.609375 0)"/>
      <use xlink:href="#DejaVuSans-6e" transform="translate(360.791016 0)"/>
      <use xlink:href="#DejaVuSans-20" transform="translate(424.169922 0)"/>
      <use xlink:href="#DejaVuSans-2f" transform="translate(455.957031 0)"/>
      <use xlink:href="#DejaVuSans-20" transform="translate(489.648438 0)"/>
      <use xlink:href="#DejaVuSans-47" transform="translate(521.435547 0)"/>
      <use xlink:href="#DejaVuSans-65" transform="translate(598.925781 0)"/>
      <use xlink:href="#DejaVuSans-6e" transform="translate(660.449219 0)"/>
      <use xlink:href="#DejaVuSans-65" transform="translate(723.828125 0)"/>
      <use xlink:href="#DejaVuSans-72" transform="translate(785.351562 0)"/>
      <use xlink:href="#DejaVuSans-61" transform="translate(826.464844 0)"/>
      <use xlink:href="#DejaVuSans-74" transform="translate(887.744141 0)"/>
      <use xlink:href="#DejaVuSans-69" transform="translate(926.953125 0)"/>
      <use xlink:href="#DejaVuSans-6f" transform="translate(954.736328 0)"/>
      <use xlink:href="#DejaVuSans-6e" transform="translate(1015.917969 0)"/>
     </g>
    </g>
   </g>
   <g id="matplotlib.axis_2">
    <g id="ytick_1">
     <g id="line2d_23">
      <path d="M 48.37 361.253886 
L 705.355 361.253886 
" clip-path="url(#p67b349e110)" style="fill: none; stroke-dasharray: 0.8,1.32; stroke-dashoffset: 0; stroke: #b0b0b0; stroke-opacity: 0.7; stroke-width: 0.8"/>
     </g>
     <g id="line2d_24">
      <defs>
       <path id="md1369db801" d="M 0 0 
L -3.5 0 
" style="stroke: #000000; stroke-width: 0.8"/>
      </defs>
      <g>
       <use xlink:href="#md1369db801" x="48.37" y="361.253886" style="stroke: #000000; stroke-width: 0.8"/>
      </g>
     </g>
     <g id="text_13">
      <!-- 1500 -->
      <g transform="translate(15.92 365.053105) scale(0.1 -0.1)">
       <use xlink:href="#DejaVuSans-31"/>
       <use xlink:href="#DejaVuSans-35" transform="translate(63.623047 0)"/>
       <use xlink:href="#DejaVuSans-30" transform="translate(127.246094 0)"/>
       <use xlink:href="#DejaVuSans-30" transform="translate(190.869141 0)"/>
      </g>
     </g>
    </g>
    <g id="ytick_2">
     <g id="line2d_25">
      <path d="M 48.37 311.017565 
L 705.355 311.017565 
" clip-path="url(#p67b349e110)" style="fill: none; stroke-dasharray: 0.8,1.32; stroke-dashoffset: 0; stroke: #b0b0b0; stroke-opacity: 0.7; stroke-width: 0.8"/>
     </g>
     <g id="line2d_26">
      <g>
       <use xlink:href="#md1369db801" x="48.37" y="311.017565" style="stroke: #000000; stroke-width: 0.8"/>
      </g>
     </g>
     <g id="text_14">
      <!-- 2000 -->
      <g transform="translate(15.92 314.816784) scale(0.1 -0.1)">
       <use xlink:href="#DejaVuSans-32"/>
       <use xlink:href="#DejaVuSans-30" transform="translate(63.623047 0)"/>
       <use xlink:href="#DejaVuSans-30" transform="translate(127.246094 0)"/>
       <use xlink:href="#DejaVuSans-30" transform="translate(190.869141 0)"/>
      </g>
     </g>
    </g>
    <g id="ytick_3">
     <g id="line2d_27">
      <path d="M 48.37 260.781245 
L 705.355 260.781245 
" clip-path="url(#p67b349e110)" style="fill: none; stroke-dasharray: 0.8,1.32; stroke-dashoffset: 0; stroke: #b0b0b0; stroke-opacity: 0.7; stroke-width: 0.8"/>
     </g>
     <g id="line2d_28">
      <g>
       <use xlink:href="#md1369db801" x="48.37" y="260.781245" style="stroke: #000000; stroke-width: 0.8"/>
      </g>
     </g>
     <g id="text_15">
      <!-- 2500 -->
      <g transform="translate(15.92 264.580464) scale(0.1 -0.1)">
       <use xlink:href="#DejaVuSans-32"/>
       <use xlink:href="#DejaVuSans-35" transform="translate(63.623047 0)"/>
       <use xlink:href="#DejaVuSans-30" transform="translate(127.246094 0)"/>
       <use xlink:href="#DejaVuSans-30" transform="translate(190.869141 0)"/>
      </g>
     </g>
    </g>
    <g id="ytick_4">
     <g id="line2d_29">
      <path d="M 48.37 210.544924 
L 705.355 210.544924 
" clip-path="url(#p67b349e110)" style="fill: none; stroke-dasharray: 0.8,1.32; stroke-dashoffset: 0; stroke: #b0b0b0; stroke-opacity: 0.7; stroke-width: 0.8"/>
     </g>
     <g id="line2d_30">
      <g>
       <use xlink:href="#md1369db801" x="48.37" y="210.544924" style="stroke: #000000; stroke-width: 0.8"/>
      </g>
     </g>
     <g id="text_16">
      <!-- 3000 -->
      <g transform="translate(15.92 214.344143) scale(0.1 -0.1)">
       <use xlink:href="#DejaVuSans-33"/>
       <use xlink:href="#DejaVuSans-30" transform="translate(63.623047 0)"/>
       <use xlink:href="#DejaVuSans-30" transform="translate(127.246094 0)"/>
       <use xlink:href="#DejaVuSans-30" transform="translate(190.869141 0)"/>
      </g>
     </g>
    </g>
    <g id="ytick_5">
     <g id="line2d_31">
      <path d="M 48.37 160.308604 
L 705.355 160.308604 
" clip-path="url(#p67b349e110)" style="fill: none; stroke-dasharray: 0.8,1.32; stroke-dashoffset: 0; stroke: #b0b0b0; stroke-opacity: 0.7; stroke-width: 0.8"/>
     </g>
     <g id="line2d_32">
      <g>
       <use xlink:href="#md1369db801" x="48.37" y="160.308604" style="stroke: #000000; stroke-width: 0.8"/>
      </g>
     </g>
     <g id="text_17">
      <!-- 3500 -->
      <g transform="translate(15.92 164.107822) scale(0.1 -0.1)">
       <use xlink:href="#DejaVuSans-33"/>
       <use xlink:href="#DejaVuSans-35" transform="translate(63.623047 0)"/>
       <use xlink:href="#DejaVuSans-30" transform="translate(127.246094 0)"/>
       <use xlink:href="#DejaVuSans-30" transform="translate(190.869141 0)"/>
      </g>
     </g>
    </g>
    <g id="ytick_6">
     <g id="line2d_33">
      <path d="M 48.37 110.072283 
L 705.355 110.072283 
" clip-path="url(#p67b349e110)" style="fill: none; stroke-dasharray: 0.8,1.32; stroke-dashoffset: 0; stroke: #b0b0b0; stroke-opacity: 0.7; stroke-width: 0.8"/>
     </g>
     <g id="line2d_34">
      <g>
       <use xlink:href="#md1369db801" x="48.37" y="110.072283" style="stroke: #000000; stroke-width: 0.8"/>
      </g>
     </g>
     <g id="text_18">
      <!-- 4000 -->
      <g transform="translate(15.92 113.871502) scale(0.1 -0.1)">
       <use xlink:href="#DejaVuSans-34"/>
       <use xlink:href="#DejaVuSans-30" transform="translate(63.623047 0)"/>
       <use xlink:href="#DejaVuSans-30" transform="translate(127.246094 0)"/>
       <use xlink:href="#DejaVuSans-30" transform="translate(190.869141 0)"/>
      </g>
     </g>
    </g>
    <g id="ytick_7">
     <g id="line2d_35">
      <path d="M 48.37 59.835962 
L 705.355 59.835962 
" clip-path="url(#p67b349e110)" style="fill: none; stroke-dasharray: 0.8,1.32; stroke-dashoffset: 0; stroke: #b0b0b0; stroke-opacity: 0.7; stroke-width: 0.8"/>
     </g>
     <g id="line2d_36">
      <g>
       <use xlink:href="#md1369db801" x="48.37" y="59.835962" style="stroke: #000000; stroke-width: 0.8"/>
      </g>
     </g>
     <g id="text_19">
      <!-- 4500 -->
      <g transform="translate(15.92 63.635181) scale(0.1 -0.1)">
       <use xlink:href="#DejaVuSans-34"/>
       <use xlink:href="#DejaVuSans-35" transform="translate(63.623047 0)"/>
       <use xlink:href="#DejaVuSans-30" transform="translate(127.246094 0)"/>
       <use xlink:href="#DejaVuSans-30" transform="translate(190.869141 0)"/>
      </g>
     </g>
    </g>
    <g id="text_20">
     <!-- Objective Value -->
     <g transform="translate(9.840312 247.490469) rotate(-90) scale(0.1 -0.1)">
      <defs>
       <path id="DejaVuSans-4f" d="M 2522 4238 
Q 1834 4238 1429 3725 
Q 1025 3213 1025 2328 
Q 1025 1447 1429 934 
Q 1834 422 2522 422 
Q 3209 422 3611 934 
Q 4013 1447 4013 2328 
Q 4013 3213 3611 3725 
Q 3209 4238 2522 4238 
z
M 2522 4750 
Q 3503 4750 4090 4092 
Q 4678 3434 4678 2328 
Q 4678 1225 4090 567 
Q 3503 -91 2522 -91 
Q 1538 -91 948 565 
Q 359 1222 359 2328 
Q 359 3434 948 4092 
Q 1538 4750 2522 4750 
z
" transform="scale(0.015625)"/>
       <path id="DejaVuSans-62" d="M 3116 1747 
Q 3116 2381 2855 2742 
Q 2594 3103 2138 3103 
Q 1681 3103 1420 2742 
Q 1159 2381 1159 1747 
Q 1159 1113 1420 752 
Q 1681 391 2138 391 
Q 2594 391 2855 752 
Q 3116 1113 3116 1747 
z
M 1159 2969 
Q 1341 3281 1617 3432 
Q 1894 3584 2278 3584 
Q 2916 3584 3314 3078 
Q 3713 2572 3713 1747 
Q 3713 922 3314 415 
Q 2916 -91 2278 -91 
Q 1894 -91 1617 61 
Q 1341 213 1159 525 
L 1159 0 
L 581 0 
L 581 4863 
L 1159 4863 
L 1159 2969 
z
" transform="scale(0.015625)"/>
       <path id="DejaVuSans-6a" d="M 603 3500 
L 1178 3500 
L 1178 -63 
Q 1178 -731 923 -1031 
Q 669 -1331 103 -1331 
L -116 -1331 
L -116 -844 
L 38 -844 
Q 366 -844 484 -692 
Q 603 -541 603 -63 
L 603 3500 
z
M 603 4863 
L 1178 4863 
L 1178 4134 
L 603 4134 
L 603 4863 
z
" transform="scale(0.015625)"/>
       <path id="DejaVuSans-63" d="M 3122 3366 
L 3122 2828 
Q 2878 2963 2633 3030 
Q 2388 3097 2138 3097 
Q 1578 3097 1268 2742 
Q 959 2388 959 1747 
Q 959 1106 1268 751 
Q 1578 397 2138 397 
Q 2388 397 2633 464 
Q 2878 531 3122 666 
L 3122 134 
Q 2881 22 2623 -34 
Q 2366 -91 2075 -91 
Q 1284 -91 818 406 
Q 353 903 353 1747 
Q 353 2603 823 3093 
Q 1294 3584 2113 3584 
Q 2378 3584 2631 3529 
Q 2884 3475 3122 3366 
z
" transform="scale(0.015625)"/>
       <path id="DejaVuSans-76" d="M 191 3500 
L 800 3500 
L 1894 563 
L 2988 3500 
L 3597 3500 
L 2284 0 
L 1503 0 
L 191 3500 
z
" transform="scale(0.015625)"/>
       <path id="DejaVuSans-56" d="M 1831 0 
L 50 4666 
L 709 4666 
L 2188 738 
L 3669 4666 
L 4325 4666 
L 2547 0 
L 1831 0 
z
" transform="scale(0.015625)"/>
       <path id="DejaVuSans-6c" d="M 603 4863 
L 1178 4863 
L 1178 0 
L 603 0 
L 603 4863 
z
" transform="scale(0.015625)"/>
       <path id="DejaVuSans-75" d="M 544 1381 
L 544 3500 
L 1119 3500 
L 1119 1403 
Q 1119 906 1312 657 
Q 1506 409 1894 409 
Q 2359 409 2629 706 
Q 2900 1003 2900 1516 
L 2900 3500 
L 3475 3500 
L 3475 0 
L 2900 0 
L 2900 538 
Q 2691 219 2414 64 
Q 2138 -91 1772 -91 
Q 1169 -91 856 284 
Q 544 659 544 1381 
z
M 1991 3584 
L 1991 3584 
z
" transform="scale(0.015625)"/>
      </defs>
      <use xlink:href="#DejaVuSans-4f"/>
      <use xlink:href="#DejaVuSans-62" transform="translate(78.710938 0)"/>
      <use xlink:href="#DejaVuSans-6a" transform="translate(142.1875 0)"/>
      <use xlink:href="#DejaVuSans-65" transform="translate(169.970703 0)"/>
      <use xlink:href="#DejaVuSans-63" transform="translate(231.494141 0)"/>
      <use xlink:href="#DejaVuSans-74" transform="translate(286.474609 0)"/>
      <use xlink:href="#DejaVuSans-69" transform="translate(325.683594 0)"/>
      <use xlink:href="#DejaVuSans-76" transform="translate(353.466797 0)"/>
      <use xlink:href="#DejaVuSans-65" transform="translate(412.646484 0)"/>
      <use xlink:href="#DejaVuSans-20" transform="translate(474.169922 0)"/>
      <use xlink:href="#DejaVuSans-56" transform="translate(505.957031 0)"/>
      <use xlink:href="#DejaVuSans-61" transform="translate(566.615234 0)"/>
      <use xlink:href="#DejaVuSans-6c" transform="translate(627.894531 0)"/>
      <use xlink:href="#DejaVuSans-75" transform="translate(655.677734 0)"/>
      <use xlink:href="#DejaVuSans-65" transform="translate(719.056641 0)"/>
     </g>
    </g>
   </g>
   <g id="line2d_37">
    <path d="M 48.37 234.55372 
L 55.596835 234.55372 
L 55.596835 257.399187 
L 57.56779 257.399187 
L 57.56779 299.86427 
L 58.224775 299.86427 
L 58.224775 306.245375 
L 86.47513 306.245375 
L 86.47513 308.683052 
L 117.353425 308.683052 
L 117.353425 320.616084 
L 131.15011 320.616084 
L 131.15011 323.823745 
L 150.202675 323.823745 
L 150.202675 354.804289 
L 162.028405 354.804289 
L 162.028405 355.807681 
L 209.98831 355.807681 
L 209.98831 358.638473 
L 237.58168 358.638473 
L 237.58168 367.11 
L 704.698015 367.11 
L 704.698015 367.11 
" clip-path="url(#p67b349e110)" style="fill: none; stroke: #1f77b4; stroke-width: 1.5; stroke-linecap: square"/>
   </g>
   <g id="line2d_38">
    <path d="M 48.37 139.424661 
L 49.026985 101.900353 
L 49.68397 49.81 
L 50.340955 88.763471 
L 50.99794 117.66967 
L 51.654925 113.314055 
L 52.31191 88.224882 
L 52.968895 90.300912 
L 53.62588 103.271243 
L 54.282865 89.105418 
L 55.596835 97.246807 
L 56.25382 124.75736 
L 56.910805 112.734908 
L 57.56779 96.333599 
L 58.224775 124.396968 
L 58.88176 126.022233 
L 59.538745 102.346993 
L 60.19573 88.778378 
L 60.852715 138.30861 
L 61.5097 107.27662 
L 62.166685 106.475344 
L 62.82367 124.781485 
L 63.480655 112.304484 
L 64.13764 96.544884 
L 64.794625 114.577775 
L 65.45161 120.509988 
L 66.108595 119.008576 
L 66.76558 123.49257 
L 67.422565 133.31915 
L 68.07955 148.904599 
L 68.736535 98.924905 
L 69.39352 90.031837 
L 70.050505 93.053445 
L 70.70749 86.845195 
L 71.364475 91.585041 
L 72.02146 101.059085 
L 72.678445 124.763382 
L 73.33543 134.842805 
L 73.992415 116.48568 
L 74.6494 148.002413 
L 75.306385 117.36212 
L 75.96337 108.889345 
L 76.620355 58.015444 
L 77.27734 62.093981 
L 77.934325 74.931034 
L 78.59131 91.074603 
L 79.248295 120.875595 
L 79.90528 95.517029 
L 80.562265 135.260262 
L 81.21925 111.177518 
L 81.876235 109.891908 
L 82.53322 127.193454 
L 83.190205 136.595212 
L 83.84719 114.490189 
L 84.504175 98.646463 
L 85.16116 99.550183 
L 86.47513 163.658783 
L 87.7891 122.422888 
L 88.446085 103.63544 
L 89.10307 114.056837 
L 89.760055 117.428707 
L 90.41704 121.61842 
L 91.074025 138.863432 
L 91.73101 143.400367 
L 92.387995 170.905457 
L 93.04498 138.997027 
L 93.701965 129.052603 
L 94.35895 130.648724 
L 95.67292 128.05257 
L 96.329905 140.404659 
L 96.98689 115.322951 
L 97.643875 138.276927 
L 98.30086 128.279716 
L 98.957845 128.405728 
L 99.61483 118.643175 
L 100.271815 101.638808 
L 100.9288 122.749426 
L 101.585785 127.195343 
L 102.24277 112.093881 
L 102.899755 131.259383 
L 103.55674 90.851131 
L 104.213725 84.547726 
L 105.527695 97.661338 
L 106.18468 97.688139 
L 106.841665 86.037283 
L 107.49865 68.219602 
L 108.155635 154.263723 
L 108.81262 168.700707 
L 109.469605 157.050588 
L 110.12659 128.149946 
L 110.783575 85.851167 
L 112.097545 124.22933 
L 112.75453 114.485607 
L 113.411515 159.330588 
L 114.0685 121.616239 
L 114.725485 125.476731 
L 115.38247 125.994006 
L 116.039455 134.041904 
L 116.69644 139.237161 
L 117.353425 147.883462 
L 118.01041 113.941383 
L 118.667395 119.526272 
L 119.32438 146.045072 
L 119.981365 136.12848 
L 120.63835 159.174069 
L 121.295335 159.209905 
L 121.95232 124.265353 
L 122.609305 137.34802 
L 123.26629 125.159498 
L 123.923275 104.330401 
L 124.58026 111.96714 
L 125.237245 144.995817 
L 125.89423 115.336319 
L 126.551215 103.578852 
L 127.2082 119.547095 
L 127.865185 124.029719 
L 128.52217 120.426587 
L 129.179155 129.300939 
L 129.83614 160.716943 
L 130.493125 152.135657 
L 131.15011 177.693861 
L 131.807095 151.900693 
L 132.46408 151.686118 
L 133.121065 139.798752 
L 133.77805 157.95699 
L 134.435035 156.494795 
L 135.749005 116.96154 
L 136.40599 104.483169 
L 137.062975 132.956449 
L 137.71996 142.420529 
L 138.376945 112.141992 
L 139.03393 119.416891 
L 139.690915 129.244154 
L 140.3479 113.664722 
L 141.004885 131.793586 
L 141.66187 138.32254 
L 142.318855 177.68729 
L 142.97584 171.400064 
L 143.632825 145.259526 
L 144.28981 157.515713 
L 144.946795 138.274652 
L 145.60378 123.752184 
L 146.260765 139.284054 
L 146.91775 125.444291 
L 147.574735 128.012829 
L 148.23172 144.495342 
L 149.54569 129.654585 
L 150.202675 144.103651 
L 150.85966 126.697147 
L 151.516645 133.345593 
L 152.17363 128.199678 
L 152.830615 135.30943 
L 153.4876 126.021037 
L 154.144585 115.055764 
L 154.80157 121.134868 
L 155.458555 98.928543 
L 156.11554 143.301725 
L 156.772525 158.943286 
L 157.42951 159.93447 
L 158.086495 170.666443 
L 158.74348 157.139047 
L 159.400465 150.064406 
L 160.05745 153.01066 
L 160.714435 116.865094 
L 161.37142 115.34013 
L 162.028405 135.732762 
L 162.68539 173.341837 
L 163.342375 124.357298 
L 163.99936 152.025839 
L 164.656345 153.286325 
L 165.31333 163.95937 
L 165.970315 134.548255 
L 166.6273 126.593742 
L 167.284285 171.642848 
L 167.94127 164.559211 
L 168.598255 169.180164 
L 169.25524 131.101597 
L 169.912225 146.353583 
L 170.56921 164.365971 
L 171.226195 161.74249 
L 171.88318 115.764712 
L 172.540165 149.031013 
L 173.19715 127.075988 
L 173.854135 138.408988 
L 174.51112 133.120789 
L 175.168105 109.790297 
L 175.82509 119.184241 
L 176.482075 123.678995 
L 177.13906 134.968253 
L 177.796045 136.784346 
L 178.45303 163.290112 
L 179.110015 120.430142 
L 179.767 97.303981 
L 180.423985 123.587722 
L 181.08097 79.879265 
L 181.737955 81.007805 
L 182.39494 142.84039 
L 183.051925 128.770121 
L 183.70891 117.343113 
L 184.365895 137.345639 
L 185.02288 137.684816 
L 185.679865 105.841634 
L 186.33685 108.093251 
L 186.993835 142.667339 
L 187.65082 107.752726 
L 188.307805 103.615217 
L 188.96479 146.015544 
L 189.621775 150.545208 
L 190.27876 155.851484 
L 190.935745 146.800424 
L 191.59273 144.080369 
L 192.249715 122.380552 
L 192.9067 119.992644 
L 193.563685 137.172959 
L 194.22067 146.787955 
L 194.877655 150.969515 
L 195.53464 135.366262 
L 196.191625 153.285705 
L 196.84861 127.688579 
L 197.505595 149.785883 
L 198.16258 109.216992 
L 198.819565 126.095573 
L 199.47655 152.808945 
L 200.133535 123.238287 
L 200.79052 128.908805 
L 201.447505 126.366077 
L 202.10449 133.27998 
L 202.761475 112.10596 
L 203.41846 98.241458 
L 204.075445 149.126423 
L 204.73243 179.876462 
L 205.389415 143.863962 
L 206.0464 136.134977 
L 206.703385 164.159305 
L 207.36037 129.194262 
L 208.017355 115.756908 
L 208.67434 96.047919 
L 209.331325 93.376481 
L 209.98831 160.100399 
L 210.645295 142.697142 
L 211.30228 143.748051 
L 211.959265 131.700674 
L 212.61625 165.380937 
L 213.273235 140.27307 
L 213.93022 152.581829 
L 214.587205 130.504088 
L 215.24419 147.426297 
L 215.901175 139.004355 
L 217.87213 121.120268 
L 218.529115 91.851103 
L 219.1861 127.974773 
L 219.843085 119.832488 
L 220.50007 118.80652 
L 221.157055 116.685482 
L 221.81404 137.230057 
L 222.471025 166.421925 
L 223.12801 158.455699 
L 223.784995 141.486965 
L 224.44198 147.057496 
L 225.098965 150.356288 
L 225.75595 152.553426 
L 226.412935 146.84667 
L 227.06992 155.12529 
L 227.726905 141.846557 
L 228.38389 160.271902 
L 229.040875 144.828914 
L 229.69786 110.194495 
L 230.354845 125.784239 
L 231.01183 110.556495 
L 231.668815 118.724017 
L 232.3258 114.809314 
L 232.982785 105.900093 
L 233.63977 133.744167 
L 234.296755 144.656337 
L 234.95374 106.043085 
L 236.26771 129.871056 
L 236.924695 147.14054 
L 237.58168 148.554754 
L 238.238665 131.866487 
L 238.89565 148.718405 
L 239.552635 128.164795 
L 240.20962 159.918432 
L 240.866605 136.080898 
L 241.52359 104.562924 
L 242.180575 131.938138 
L 242.83756 131.629088 
L 243.494545 135.657256 
L 244.15153 129.837468 
L 244.808515 127.885775 
L 245.4655 129.082564 
L 246.122485 113.790539 
L 246.77947 95.480338 
L 247.436455 128.51317 
L 248.750425 147.815864 
L 249.40741 133.068568 
L 250.064395 159.625262 
L 250.72138 174.280055 
L 251.378365 148.087929 
L 252.03535 161.443256 
L 252.692335 122.720965 
L 253.34932 109.027944 
L 254.006305 147.598281 
L 254.66329 164.292453 
L 255.320275 165.312268 
L 255.97726 147.004426 
L 256.634245 132.158392 
L 257.29123 132.80161 
L 257.948215 140.860749 
L 258.6052 138.488566 
L 259.262185 146.252029 
L 259.91917 135.781026 
L 260.576155 137.818653 
L 261.23314 166.424621 
L 261.890125 154.840095 
L 262.54711 166.739861 
L 263.204095 116.359512 
L 263.86108 140.022132 
L 264.518065 115.075777 
L 265.17505 114.816518 
L 265.832035 119.982703 
L 266.48902 120.4093 
L 267.146005 147.864998 
L 267.80299 139.909026 
L 268.459975 122.161168 
L 269.11696 149.983734 
L 269.773945 139.132214 
L 270.43093 137.193874 
L 271.087915 147.989749 
L 271.7449 144.009816 
L 272.401885 137.454777 
L 273.05887 123.024014 
L 273.715855 131.287459 
L 274.37284 104.764228 
L 275.029825 132.850773 
L 275.68681 118.611024 
L 276.343795 127.925473 
L 277.00078 153.535965 
L 277.657765 138.210023 
L 278.31475 114.13443 
L 278.971735 136.857529 
L 279.62872 122.171214 
L 280.285705 132.298971 
L 280.94269 122.483392 
L 281.599675 145.629822 
L 282.25666 150.995047 
L 282.913645 152.454948 
L 283.57063 171.78169 
L 284.227615 135.198883 
L 284.8846 127.7183 
L 285.541585 86.283 
L 286.855555 130.515057 
L 287.51254 128.208627 
L 288.169525 123.768596 
L 288.82651 134.913368 
L 289.483495 139.10295 
L 290.14048 158.172207 
L 290.797465 112.335429 
L 291.45445 104.028257 
L 292.111435 119.20958 
L 292.76842 139.382803 
L 293.425405 139.461278 
L 294.08239 107.344415 
L 295.39636 138.748357 
L 296.053345 118.953478 
L 296.71033 106.942501 
L 297.367315 130.132608 
L 298.0243 113.710746 
L 298.681285 135.980166 
L 299.33827 133.99916 
L 299.995255 146.062648 
L 300.65224 126.316219 
L 301.309225 133.318519 
L 301.96621 104.486334 
L 302.623195 126.683572 
L 303.28018 121.19438 
L 303.937165 140.300543 
L 304.59415 113.347302 
L 305.251135 128.353402 
L 305.90812 133.930098 
L 306.565105 142.691389 
L 307.22209 116.812652 
L 307.879075 122.923146 
L 308.53606 153.296065 
L 309.193045 152.328455 
L 309.85003 155.481096 
L 310.507015 132.683496 
L 311.164 158.391545 
L 311.820985 130.428029 
L 312.47797 147.298521 
L 313.134955 105.814669 
L 313.79194 141.543727 
L 314.448925 116.707858 
L 315.10591 119.787735 
L 316.41988 130.134242 
L 317.076865 160.312227 
L 317.73385 152.150699 
L 318.390835 122.908972 
L 319.04782 131.831937 
L 319.704805 154.804276 
L 320.36179 143.20954 
L 321.018775 153.049809 
L 321.67576 157.49574 
L 322.332745 111.913395 
L 322.98973 141.49375 
L 323.646715 124.499509 
L 324.3037 134.606994 
L 324.960685 164.375471 
L 325.61767 135.500636 
L 326.274655 118.657145 
L 326.93164 134.9067 
L 327.588625 116.859087 
L 328.24561 105.974664 
L 328.902595 129.412625 
L 329.55958 123.100668 
L 330.216565 148.840812 
L 330.87355 106.990324 
L 331.530535 154.04636 
L 332.18752 116.225555 
L 332.844505 151.658322 
L 333.50149 148.846477 
L 334.158475 138.170787 
L 334.81546 154.17928 
L 335.472445 118.764345 
L 336.12943 137.368157 
L 336.786415 105.931646 
L 337.4434 133.098006 
L 338.100385 147.786745 
L 338.75737 143.50464 
L 339.414355 176.082677 
L 340.07134 138.99363 
L 340.728325 130.472462 
L 341.38531 138.730462 
L 342.042295 132.524019 
L 342.69928 135.392 
L 343.356265 152.643362 
L 344.01325 126.699029 
L 344.670235 117.159851 
L 345.32722 131.232003 
L 345.984205 167.647562 
L 346.64119 128.348996 
L 347.298175 119.009682 
L 347.95516 157.604735 
L 348.612145 132.783969 
L 349.26913 133.501026 
L 349.926115 144.554954 
L 350.5831 152.3143 
L 351.240085 143.421047 
L 351.89707 148.584903 
L 352.554055 163.414995 
L 353.21104 149.755543 
L 353.868025 153.75361 
L 354.52501 148.179036 
L 355.181995 150.624487 
L 355.83898 163.389516 
L 356.495965 132.887227 
L 357.15295 136.110389 
L 357.809935 129.669635 
L 358.46692 118.142388 
L 359.123905 141.880545 
L 359.78089 140.678533 
L 360.437875 138.85556 
L 361.09486 138.909729 
L 361.751845 116.212321 
L 362.40883 139.292277 
L 363.065815 124.754471 
L 363.7228 122.74397 
L 364.379785 128.104276 
L 365.03677 136.781608 
L 365.693755 112.161418 
L 366.35074 146.385123 
L 367.007725 131.060872 
L 367.66471 151.543439 
L 368.321695 144.748668 
L 368.97868 143.435824 
L 369.635665 172.688272 
L 370.29265 165.451685 
L 370.949635 120.186835 
L 371.60662 113.416407 
L 372.263605 138.666896 
L 372.92059 131.878112 
L 373.577575 135.623565 
L 374.23456 108.960637 
L 374.891545 118.351901 
L 375.54853 123.221006 
L 376.205515 135.859464 
L 376.8625 140.340004 
L 377.519485 151.608009 
L 378.17647 133.112653 
L 378.833455 155.921942 
L 379.49044 155.246388 
L 380.147425 135.361775 
L 380.80441 141.213891 
L 381.461395 127.269016 
L 382.11838 130.00354 
L 382.775365 90.170073 
L 383.43235 109.437566 
L 384.089335 154.271121 
L 384.74632 163.010002 
L 385.403305 130.210063 
L 386.717275 121.990406 
L 387.37426 112.211925 
L 388.031245 140.002747 
L 388.68823 125.073414 
L 389.345215 157.063242 
L 390.0022 179.854843 
L 390.659185 188.238035 
L 391.31617 147.157169 
L 391.973155 164.90186 
L 392.63014 144.896239 
L 393.287125 116.445613 
L 393.94411 137.103438 
L 394.601095 137.443913 
L 395.25808 129.765365 
L 395.915065 130.735691 
L 396.57205 124.906286 
L 397.229035 143.49072 
L 397.88602 133.654226 
L 398.543005 118.077236 
L 399.19999 137.498095 
L 399.856975 137.393155 
L 400.51396 142.721486 
L 401.170945 161.602108 
L 403.1419 136.617869 
L 403.798885 151.786857 
L 404.45587 137.835144 
L 405.112855 110.584373 
L 405.76984 111.827797 
L 407.08381 129.406225 
L 407.740795 129.920492 
L 408.39778 152.841862 
L 409.054765 135.574789 
L 409.71175 137.477477 
L 410.368735 124.35075 
L 411.02572 142.544072 
L 411.682705 143.812204 
L 412.33969 147.091065 
L 412.996675 133.395 
L 413.65366 132.112641 
L 414.310645 154.817616 
L 414.96763 157.169496 
L 415.624615 158.273031 
L 416.2816 166.894012 
L 416.938585 159.139896 
L 417.59557 109.33616 
L 418.252555 167.031741 
L 418.90954 140.816153 
L 419.566525 128.128248 
L 420.22351 146.882102 
L 420.880495 147.383568 
L 421.53748 111.611171 
L 422.194465 143.350406 
L 422.85145 110.517998 
L 423.508435 146.374171 
L 424.16542 164.858127 
L 425.47939 114.182025 
L 426.136375 105.422532 
L 426.79336 137.435342 
L 427.450345 163.94813 
L 428.10733 135.500455 
L 428.764315 158.643955 
L 429.4213 155.917521 
L 430.078285 144.864001 
L 430.73527 124.37132 
L 431.392255 135.923949 
L 432.04924 129.684267 
L 432.706225 109.355343 
L 433.36321 173.506652 
L 434.020195 136.439239 
L 434.67718 123.561913 
L 435.334165 120.40011 
L 435.99115 102.896913 
L 436.648135 104.315062 
L 437.30512 114.1363 
L 437.962105 98.672068 
L 438.61909 92.76482 
L 439.276075 133.094853 
L 439.93306 155.18753 
L 440.590045 139.378606 
L 441.24703 166.278359 
L 441.904015 166.769249 
L 442.561 138.434641 
L 443.217985 116.439692 
L 443.87497 156.184254 
L 444.531955 125.314898 
L 445.18894 144.641834 
L 445.845925 135.933223 
L 446.50291 136.84876 
L 447.81688 140.09618 
L 448.473865 116.736578 
L 449.13085 153.941912 
L 449.787835 146.875851 
L 450.44482 135.707992 
L 451.101805 114.03342 
L 451.75879 87.377294 
L 452.415775 129.716737 
L 453.07276 152.404864 
L 453.729745 124.783682 
L 454.38673 152.078043 
L 455.043715 169.633227 
L 456.357685 129.251739 
L 457.01467 145.67899 
L 457.671655 118.951874 
L 458.32864 147.820268 
L 458.985625 131.215572 
L 459.64261 165.472112 
L 460.299595 106.715731 
L 460.95658 121.72062 
L 461.613565 126.598387 
L 462.27055 99.199023 
L 462.927535 126.830694 
L 463.58452 142.318649 
L 464.241505 128.234441 
L 465.555475 132.297108 
L 466.21246 110.689278 
L 466.869445 129.02636 
L 467.52643 134.858816 
L 468.183415 127.123291 
L 468.8404 114.877291 
L 469.497385 111.62967 
L 470.15437 109.413154 
L 470.811355 101.114097 
L 471.46834 142.459407 
L 472.125325 142.275102 
L 472.78231 112.412653 
L 473.439295 124.035958 
L 474.09628 146.83584 
L 474.753265 108.947414 
L 475.41025 127.86591 
L 476.067235 130.626989 
L 476.72422 142.448005 
L 477.381205 147.001298 
L 478.03819 146.847519 
L 478.695175 137.376929 
L 479.35216 123.277731 
L 480.009145 123.248084 
L 480.66613 137.857037 
L 481.323115 138.911712 
L 481.9801 136.577864 
L 482.637085 143.858365 
L 483.29407 97.987837 
L 483.951055 119.147728 
L 484.60804 126.81628 
L 485.265025 136.424308 
L 485.92201 86.94706 
L 486.578995 113.257984 
L 487.23598 94.185508 
L 487.892965 88.628056 
L 488.54995 118.786136 
L 489.206935 109.503442 
L 489.86392 136.052816 
L 490.520905 114.003216 
L 491.17789 105.262822 
L 491.834875 124.333459 
L 492.49186 127.092904 
L 493.148845 142.475275 
L 493.80583 135.573681 
L 494.462815 123.61802 
L 495.1198 142.35358 
L 495.776785 165.925149 
L 496.43377 147.033562 
L 497.090755 143.529171 
L 497.74774 121.364418 
L 498.404725 135.635642 
L 499.06171 138.891455 
L 499.718695 148.308366 
L 500.37568 167.851115 
L 501.032665 143.789625 
L 501.68965 153.76506 
L 502.346635 146.530173 
L 503.00362 126.30835 
L 503.660605 95.112477 
L 504.31759 123.915089 
L 504.974575 116.28142 
L 505.63156 105.696236 
L 506.288545 120.229356 
L 506.94553 122.313168 
L 507.602515 148.463069 
L 508.2595 149.835077 
L 508.916485 119.875899 
L 509.57347 159.781362 
L 510.230455 140.586028 
L 510.88744 176.727585 
L 511.544425 157.266026 
L 512.20141 142.474908 
L 512.858395 154.196807 
L 513.51538 159.216019 
L 514.172365 173.856147 
L 514.82935 150.972148 
L 515.486335 122.677982 
L 516.14332 162.018413 
L 516.800305 155.160535 
L 517.45729 174.383555 
L 518.114275 121.172613 
L 518.77126 114.910855 
L 519.428245 118.799287 
L 520.08523 144.798077 
L 520.742215 112.916147 
L 521.3992 111.908294 
L 522.71317 130.867229 
L 523.370155 126.1452 
L 524.02714 133.707405 
L 524.684125 109.676006 
L 525.34111 132.492779 
L 525.998095 127.879548 
L 526.65508 129.725248 
L 527.312065 135.518402 
L 527.96905 117.122888 
L 528.626035 117.996673 
L 529.28302 122.305342 
L 529.940005 131.524466 
L 530.59699 136.202113 
L 531.253975 106.895002 
L 531.91096 101.200488 
L 533.22493 141.426862 
L 533.881915 159.109621 
L 534.5389 167.045571 
L 535.195885 137.210622 
L 535.85287 117.644215 
L 536.509855 126.96208 
L 537.16684 139.711736 
L 537.823825 136.436316 
L 538.48081 142.140163 
L 539.137795 144.725859 
L 539.79478 145.498952 
L 540.451765 169.91877 
L 541.10875 130.218256 
L 541.765735 119.207246 
L 542.42272 135.82086 
L 543.079705 156.577802 
L 543.73669 160.645676 
L 544.393675 157.458983 
L 545.05066 176.467337 
L 545.707645 152.687001 
L 546.36463 133.315917 
L 547.021615 139.855351 
L 547.6786 131.293021 
L 548.335585 135.020485 
L 549.649555 126.3312 
L 550.30654 124.275969 
L 550.963525 104.650036 
L 551.62051 123.695374 
L 552.277495 117.561875 
L 552.93448 138.985494 
L 553.591465 149.708773 
L 554.24845 145.069937 
L 554.905435 137.257615 
L 555.56242 157.956858 
L 556.219405 142.450863 
L 556.87639 161.124786 
L 557.533375 124.666421 
L 558.19036 153.293019 
L 558.847345 148.794495 
L 559.50433 146.196489 
L 560.161315 154.769919 
L 561.475285 148.77509 
L 562.13227 137.056605 
L 562.789255 143.923727 
L 563.44624 123.479271 
L 564.103225 125.526497 
L 564.76021 118.617978 
L 565.417195 133.947136 
L 566.07418 160.250042 
L 566.731165 158.219152 
L 567.38815 136.758106 
L 568.045135 96.307184 
L 568.70212 109.63613 
L 569.359105 97.793082 
L 570.01609 163.327113 
L 570.673075 144.528746 
L 571.33006 138.741738 
L 571.987045 138.439621 
L 572.64403 130.289418 
L 573.301015 134.042955 
L 573.958 135.650539 
L 574.614985 156.761443 
L 575.27197 143.857957 
L 575.928955 140.26393 
L 576.58594 132.973606 
L 577.242925 122.720901 
L 577.89991 102.285192 
L 578.556895 127.901297 
L 579.21388 148.160774 
L 579.870865 126.201814 
L 580.52785 140.091425 
L 581.184835 131.173192 
L 581.84182 98.114433 
L 582.498805 149.136314 
L 583.15579 151.190711 
L 584.46976 124.167632 
L 585.126745 116.249547 
L 585.78373 122.875502 
L 586.440715 153.27277 
L 587.0977 148.318174 
L 587.754685 125.62882 
L 588.41167 142.934611 
L 589.068655 119.168958 
L 589.72564 148.137095 
L 590.382625 147.588145 
L 591.03961 122.130387 
L 591.696595 103.756838 
L 592.35358 90.736584 
L 593.010565 133.989664 
L 593.66755 144.26712 
L 594.324535 130.33613 
L 594.98152 156.609896 
L 595.638505 141.975556 
L 596.29549 182.302064 
L 596.952475 158.618356 
L 597.60946 140.900257 
L 598.266445 111.24586 
L 598.92343 155.711901 
L 599.580415 124.462137 
L 600.2374 116.64858 
L 600.894385 118.863412 
L 601.55137 147.896471 
L 602.208355 127.684548 
L 602.86534 166.021047 
L 603.522325 125.470534 
L 604.17931 126.434233 
L 604.836295 143.728943 
L 605.49328 151.163917 
L 606.150265 143.411583 
L 606.80725 151.387638 
L 607.464235 146.595258 
L 608.12122 156.268833 
L 608.778205 125.932541 
L 609.43519 150.577118 
L 610.74916 108.442093 
L 611.406145 119.107367 
L 612.06313 112.85342 
L 612.720115 135.222329 
L 613.3771 121.192171 
L 614.034085 139.907342 
L 614.69107 177.257147 
L 615.348055 143.910424 
L 616.00504 147.016698 
L 616.662025 122.628982 
L 617.31901 132.502942 
L 617.975995 133.797763 
L 618.63298 121.708187 
L 619.289965 135.686047 
L 619.94695 164.038436 
L 620.603935 144.343914 
L 621.26092 151.101977 
L 621.917905 145.73968 
L 622.57489 115.281924 
L 623.231875 126.140671 
L 623.88886 160.130392 
L 624.545845 162.698764 
L 625.20283 137.26953 
L 625.859815 167.313611 
L 626.5168 147.842323 
L 627.173785 144.558863 
L 627.83077 130.660046 
L 628.487755 129.602136 
L 629.14474 121.504442 
L 629.801725 102.849426 
L 630.45871 121.77085 
L 631.115695 97.313047 
L 631.77268 124.967248 
L 632.429665 119.136123 
L 633.08665 147.167215 
L 633.743635 155.232667 
L 634.40062 161.117016 
L 635.71459 142.039231 
L 636.371575 154.65339 
L 637.02856 153.92536 
L 637.685545 144.726795 
L 638.34253 118.535242 
L 638.999515 158.046728 
L 639.6565 149.664136 
L 640.313485 113.993929 
L 640.97047 125.479112 
L 641.627455 102.415731 
L 642.28444 138.585434 
L 642.941425 149.610324 
L 643.59841 194.227309 
L 644.255395 157.095084 
L 644.91238 129.809709 
L 645.569365 155.780005 
L 646.22635 170.190244 
L 646.883335 153.7715 
L 647.54032 129.713547 
L 648.197305 127.628279 
L 648.85429 158.79466 
L 649.511275 145.254584 
L 650.16826 103.203266 
L 650.825245 125.700068 
L 651.48223 128.282813 
L 652.139215 139.249237 
L 652.7962 137.577972 
L 653.453185 136.595925 
L 654.11017 152.004299 
L 654.767155 146.956632 
L 655.42414 136.811599 
L 656.081125 136.225842 
L 656.73811 152.127454 
L 657.395095 156.732297 
L 658.709065 122.794009 
L 659.36605 159.43309 
L 660.023035 135.330043 
L 660.68002 147.275864 
L 661.337005 143.066296 
L 661.99399 174.09409 
L 662.650975 154.400529 
L 663.30796 139.870173 
L 663.964945 138.811891 
L 664.62193 113.952833 
L 665.278915 82.706427 
L 666.592885 129.228694 
L 667.24987 164.091836 
L 667.906855 117.296032 
L 668.56384 155.630011 
L 669.220825 142.201892 
L 669.87781 126.092142 
L 670.534795 104.211072 
L 671.19178 113.895934 
L 671.848765 103.071109 
L 672.50575 125.754134 
L 673.162735 154.10928 
L 673.81972 120.021826 
L 674.476705 129.110698 
L 675.13369 146.044171 
L 675.790675 130.633345 
L 676.44766 157.918403 
L 677.104645 98.171696 
L 677.76163 104.798102 
L 678.418615 106.95795 
L 679.0756 119.96088 
L 679.732585 105.389865 
L 680.38957 123.473099 
L 681.046555 110.290812 
L 681.70354 105.776184 
L 682.360525 142.351301 
L 683.01751 140.350709 
L 683.674495 120.52118 
L 684.33148 123.658277 
L 684.988465 145.013058 
L 685.64545 136.952939 
L 686.95942 110.722525 
L 687.616405 102.560768 
L 688.27339 96.878696 
L 688.930375 128.03143 
L 690.244345 148.940779 
L 690.90133 146.087569 
L 691.558315 148.682553 
L 692.2153 166.688818 
L 692.872285 111.740141 
L 693.52927 128.809114 
L 694.186255 121.587199 
L 694.84324 137.316766 
L 695.500225 98.741717 
L 696.15721 128.570264 
L 696.814195 148.74522 
L 697.47118 120.726898 
L 698.128165 120.780043 
L 698.78515 146.603675 
L 699.442135 116.347715 
L 700.09912 130.194261 
L 700.756105 128.512096 
L 701.41309 148.92401 
L 702.070075 148.887199 
L 702.72706 128.41964 
L 703.384045 169.175145 
L 704.04103 155.942459 
L 704.698015 163.145756 
L 704.698015 163.145756 
" clip-path="url(#p67b349e110)" style="fill: none; stroke-dasharray: 5.55,2.4; stroke-dashoffset: 0; stroke: #ff7f0e; stroke-width: 1.5"/>
   </g>
   <g id="patch_3">
    <path d="M 48.37 398.84 
L 48.37 18.08 
" style="fill: none; stroke: #000000; stroke-width: 0.8; stroke-linejoin: miter; stroke-linecap: square"/>
   </g>
   <g id="patch_4">
    <path d="M 705.355 398.84 
L 705.355 18.08 
" style="fill: none; stroke: #000000; stroke-width: 0.8; stroke-linejoin: miter; stroke-linecap: square"/>
   </g>
   <g id="patch_5">
    <path d="M 48.37 398.84 
L 705.355 398.84 
" style="fill: none; stroke: #000000; stroke-width: 0.8; stroke-linejoin: miter; stroke-linecap: square"/>
   </g>
   <g id="patch_6">
    <path d="M 48.37 18.08 
L 705.355 18.08 
" style="fill: none; stroke: #000000; stroke-width: 0.8; stroke-linejoin: miter; stroke-linecap: square"/>
   </g>
   <g id="text_21">
    <!-- GA Evolution (Simulation #7) -->
    <g transform="translate(288.925938 12.08) scale(0.12 -0.12)">
     <defs>
      <path id="DejaVuSans-41" d="M 2188 4044 
L 1331 1722 
L 3047 1722 
L 2188 4044 
z
M 1831 4666 
L 2547 4666 
L 4325 0 
L 3669 0 
L 3244 1197 
L 1141 1197 
L 716 0 
L 50 0 
L 1831 4666 
z
" transform="scale(0.015625)"/>
      <path id="DejaVuSans-45" d="M 628 4666 
L 3578 4666 
L 3578 4134 
L 1259 4134 
L 1259 2753 
L 3481 2753 
L 3481 2222 
L 1259 2222 
L 1259 531 
L 3634 531 
L 3634 0 
L 628 0 
L 628 4666 
z
" transform="scale(0.015625)"/>
      <path id="DejaVuSans-28" d="M 1984 4856 
Q 1566 4138 1362 3434 
Q 1159 2731 1159 2009 
Q 1159 1288 1364 580 
Q 1569 -128 1984 -844 
L 1484 -844 
Q 1016 -109 783 600 
Q 550 1309 550 2009 
Q 550 2706 781 3412 
Q 1013 4119 1484 4856 
L 1984 4856 
z
" transform="scale(0.015625)"/>
      <path id="DejaVuSans-53" d="M 3425 4513 
L 3425 3897 
Q 3066 4069 2747 4153 
Q 2428 4238 2131 4238 
Q 1616 4238 1336 4038 
Q 1056 3838 1056 3469 
Q 1056 3159 1242 3001 
Q 1428 2844 1947 2747 
L 2328 2669 
Q 3034 2534 3370 2195 
Q 3706 1856 3706 1288 
Q 3706 609 3251 259 
Q 2797 -91 1919 -91 
Q 1588 -91 1214 -16 
Q 841 59 441 206 
L 441 856 
Q 825 641 1194 531 
Q 1563 422 1919 422 
Q 2459 422 2753 634 
Q 3047 847 3047 1241 
Q 3047 1584 2836 1778 
Q 2625 1972 2144 2069 
L 1759 2144 
Q 1053 2284 737 2584 
Q 422 2884 422 3419 
Q 422 4038 858 4394 
Q 1294 4750 2059 4750 
Q 2388 4750 2728 4690 
Q 3069 4631 3425 4513 
z
" transform="scale(0.015625)"/>
      <path id="DejaVuSans-6d" d="M 3328 2828 
Q 3544 3216 3844 3400 
Q 4144 3584 4550 3584 
Q 5097 3584 5394 3201 
Q 5691 2819 5691 2113 
L 5691 0 
L 5113 0 
L 5113 2094 
Q 5113 2597 4934 2840 
Q 4756 3084 4391 3084 
Q 3944 3084 3684 2787 
Q 3425 2491 3425 1978 
L 3425 0 
L 2847 0 
L 2847 2094 
Q 2847 2600 2669 2842 
Q 2491 3084 2119 3084 
Q 1678 3084 1418 2786 
Q 1159 2488 1159 1978 
L 1159 0 
L 581 0 
L 581 3500 
L 1159 3500 
L 1159 2956 
Q 1356 3278 1631 3431 
Q 1906 3584 2284 3584 
Q 2666 3584 2933 3390 
Q 3200 3197 3328 2828 
z
" transform="scale(0.015625)"/>
      <path id="DejaVuSans-23" d="M 3272 2816 
L 2363 2816 
L 2100 1772 
L 3016 1772 
L 3272 2816 
z
M 2803 4594 
L 2478 3297 
L 3391 3297 
L 3719 4594 
L 4219 4594 
L 3897 3297 
L 4872 3297 
L 4872 2816 
L 3775 2816 
L 3519 1772 
L 4513 1772 
L 4513 1294 
L 3397 1294 
L 3072 0 
L 2572 0 
L 2894 1294 
L 1978 1294 
L 1656 0 
L 1153 0 
L 1478 1294 
L 494 1294 
L 494 1772 
L 1594 1772 
L 1856 2816 
L 850 2816 
L 850 3297 
L 1978 3297 
L 2297 4594 
L 2803 4594 
z
" transform="scale(0.015625)"/>
      <path id="DejaVuSans-29" d="M 513 4856 
L 1013 4856 
Q 1481 4119 1714 3412 
Q 1947 2706 1947 2009 
Q 1947 1309 1714 600 
Q 1481 -109 1013 -844 
L 513 -844 
Q 928 -128 1133 580 
Q 1338 1288 1338 2009 
Q 1338 2731 1133 3434 
Q 928 4138 513 4856 
z
" transform="scale(0.015625)"/>
     </defs>
     <use xlink:href="#DejaVuSans-47"/>
     <use xlink:href="#DejaVuSans-41" transform="translate(77.490234 0)"/>
     <use xlink:href="#DejaVuSans-20" transform="translate(145.898438 0)"/>
     <use xlink:href="#DejaVuSans-45" transform="translate(177.685547 0)"/>
     <use xlink:href="#DejaVuSans-76" transform="translate(240.869141 0)"/>
     <use xlink:href="#DejaVuSans-6f" transform="translate(300.048828 0)"/>
     <use xlink:href="#DejaVuSans-6c" transform="translate(361.230469 0)"/>
     <use xlink:href="#DejaVuSans-75" transform="translate(389.013672 0)"/>
     <use xlink:href="#DejaVuSans-74" transform="translate(452.392578 0)"/>
     <use xlink:href="#DejaVuSans-69" transform="translate(491.601562 0)"/>
     <use xlink:href="#DejaVuSans-6f" transform="translate(519.384766 0)"/>
     <use xlink:href="#DejaVuSans-6e" transform="translate(580.566406 0)"/>
     <use xlink:href="#DejaVuSans-20" transform="translate(643.945312 0)"/>
     <use xlink:href="#DejaVuSans-28" transform="translate(675.732422 0)"/>
     <use xlink:href="#DejaVuSans-53" transform="translate(714.746094 0)"/>
     <use xlink:href="#DejaVuSans-69" transform="translate(778.222656 0)"/>
     <use xlink:href="#DejaVuSans-6d" transform="translate(806.005859 0)"/>
     <use xlink:href="#DejaVuSans-75" transform="translate(903.417969 0)"/>
     <use xlink:href="#DejaVuSans-6c" transform="translate(966.796875 0)"/>
     <use xlink:href="#DejaVuSans-61" transform="translate(994.580078 0)"/>
     <use xlink:href="#DejaVuSans-74" transform="translate(1055.859375 0)"/>
     <use xlink:href="#DejaVuSans-69" transform="translate(1095.068359 0)"/>
     <use xlink:href="#DejaVuSans-6f" transform="translate(1122.851562 0)"/>
     <use xlink:href="#DejaVuSans-6e" transform="translate(1184.033203 0)"/>
     <use xlink:href="#DejaVuSans-20" transform="translate(1247.412109 0)"/>
     <use xlink:href="#DejaVuSans-23" transform="translate(1279.199219 0)"/>
     <use xlink:href="#DejaVuSans-37" transform="translate(1362.988281 0)"/>
     <use xlink:href="#DejaVuSans-29" transform="translate(1426.611328 0)"/>
    </g>
   </g>
   <g id="legend_1">
    <g id="patch_7">
     <path d="M 561.906563 55.43625 
L 698.355 55.43625 
Q 700.355 55.43625 700.355 53.43625 
L 700.355 25.08 
Q 700.355 23.08 698.355 23.08 
L 561.906563 23.08 
Q 559.906563 23.08 559.906563 25.08 
L 559.906563 53.43625 
Q 559.906563 55.43625 561.906563 55.43625 
z
" style="fill: #ffffff; opacity: 0.8; stroke: #cccccc; stroke-linejoin: miter"/>
    </g>
    <g id="line2d_39">
     <path d="M 563.906563 31.178437 
L 573.906563 31.178437 
L 573.906563 31.178437 
L 583.906563 31.178437 
L 583.906563 31.178437 
" style="fill: none; stroke: #1f77b4; stroke-width: 1.5; stroke-linecap: square"/>
    </g>
    <g id="text_22">
     <!-- Best Fitness (GA) -->
     <g transform="translate(591.906563 34.678437) scale(0.1 -0.1)">
      <defs>
       <path id="DejaVuSans-42" d="M 1259 2228 
L 1259 519 
L 2272 519 
Q 2781 519 3026 730 
Q 3272 941 3272 1375 
Q 3272 1813 3026 2020 
Q 2781 2228 2272 2228 
L 1259 2228 
z
M 1259 4147 
L 1259 2741 
L 2194 2741 
Q 2656 2741 2882 2914 
Q 3109 3088 3109 3444 
Q 3109 3797 2882 3972 
Q 2656 4147 2194 4147 
L 1259 4147 
z
M 628 4666 
L 2241 4666 
Q 2963 4666 3353 4366 
Q 3744 4066 3744 3513 
Q 3744 3084 3544 2831 
Q 3344 2578 2956 2516 
Q 3422 2416 3680 2098 
Q 3938 1781 3938 1306 
Q 3938 681 3513 340 
Q 3088 0 2303 0 
L 628 0 
L 628 4666 
z
" transform="scale(0.015625)"/>
       <path id="DejaVuSans-73" d="M 2834 3397 
L 2834 2853 
Q 2591 2978 2328 3040 
Q 2066 3103 1784 3103 
Q 1356 3103 1142 2972 
Q 928 2841 928 2578 
Q 928 2378 1081 2264 
Q 1234 2150 1697 2047 
L 1894 2003 
Q 2506 1872 2764 1633 
Q 3022 1394 3022 966 
Q 3022 478 2636 193 
Q 2250 -91 1575 -91 
Q 1294 -91 989 -36 
Q 684 19 347 128 
L 347 722 
Q 666 556 975 473 
Q 1284 391 1588 391 
Q 1994 391 2212 530 
Q 2431 669 2431 922 
Q 2431 1156 2273 1281 
Q 2116 1406 1581 1522 
L 1381 1569 
Q 847 1681 609 1914 
Q 372 2147 372 2553 
Q 372 3047 722 3315 
Q 1072 3584 1716 3584 
Q 2034 3584 2315 3537 
Q 2597 3491 2834 3397 
z
" transform="scale(0.015625)"/>
       <path id="DejaVuSans-46" d="M 628 4666 
L 3309 4666 
L 3309 4134 
L 1259 4134 
L 1259 2759 
L 3109 2759 
L 3109 2228 
L 1259 2228 
L 1259 0 
L 628 0 
L 628 4666 
z
" transform="scale(0.015625)"/>
      </defs>
      <use xlink:href="#DejaVuSans-42"/>
      <use xlink:href="#DejaVuSans-65" transform="translate(68.603516 0)"/>
      <use xlink:href="#DejaVuSans-73" transform="translate(130.126953 0)"/>
      <use xlink:href="#DejaVuSans-74" transform="translate(182.226562 0)"/>
      <use xlink:href="#DejaVuSans-20" transform="translate(221.435547 0)"/>
      <use xlink:href="#DejaVuSans-46" transform="translate(253.222656 0)"/>
      <use xlink:href="#DejaVuSans-69" transform="translate(303.492188 0)"/>
      <use xlink:href="#DejaVuSans-74" transform="translate(331.275391 0)"/>
      <use xlink:href="#DejaVuSans-6e" transform="translate(370.484375 0)"/>
      <use xlink:href="#DejaVuSans-65" transform="translate(433.863281 0)"/>
      <use xlink:href="#DejaVuSans-73" transform="translate(495.386719 0)"/>
      <use xlink:href="#DejaVuSans-73" transform="translate(547.486328 0)"/>
      <use xlink:href="#DejaVuSans-20" transform="translate(599.585938 0)"/>
      <use xlink:href="#DejaVuSans-28" transform="translate(631.373047 0)"/>
      <use xlink:href="#DejaVuSans-47" transform="translate(670.386719 0)"/>
      <use xlink:href="#DejaVuSans-41" transform="translate(747.876953 0)"/>
      <use xlink:href="#DejaVuSans-29" transform="translate(816.285156 0)"/>
     </g>
    </g>
    <g id="line2d_40">
     <path d="M 563.906563 45.856562 
L 573.906563 45.856562 
L 583.906563 45.856562 
" style="fill: none; stroke-dasharray: 5.55,2.4; stroke-dashoffset: 0; stroke: #ff7f0e; stroke-width: 1.5"/>
    </g>
    <g id="text_23">
     <!-- Average Fitness (GA) -->
     <g transform="translate(591.906563 49.356562) scale(0.1 -0.1)">
      <defs>
       <path id="DejaVuSans-67" d="M 2906 1791 
Q 2906 2416 2648 2759 
Q 2391 3103 1925 3103 
Q 1463 3103 1205 2759 
Q 947 2416 947 1791 
Q 947 1169 1205 825 
Q 1463 481 1925 481 
Q 2391 481 2648 825 
Q 2906 1169 2906 1791 
z
M 3481 434 
Q 3481 -459 3084 -895 
Q 2688 -1331 1869 -1331 
Q 1566 -1331 1297 -1286 
Q 1028 -1241 775 -1147 
L 775 -588 
Q 1028 -725 1275 -790 
Q 1522 -856 1778 -856 
Q 2344 -856 2625 -561 
Q 2906 -266 2906 331 
L 2906 616 
Q 2728 306 2450 153 
Q 2172 0 1784 0 
Q 1141 0 747 490 
Q 353 981 353 1791 
Q 353 2603 747 3093 
Q 1141 3584 1784 3584 
Q 2172 3584 2450 3431 
Q 2728 3278 2906 2969 
L 2906 3500 
L 3481 3500 
L 3481 434 
z
" transform="scale(0.015625)"/>
      </defs>
      <use xlink:href="#DejaVuSans-41"/>
      <use xlink:href="#DejaVuSans-76" transform="translate(62.533203 0)"/>
      <use xlink:href="#DejaVuSans-65" transform="translate(121.712891 0)"/>
      <use xlink:href="#DejaVuSans-72" transform="translate(183.236328 0)"/>
      <use xlink:href="#DejaVuSans-61" transform="translate(224.349609 0)"/>
      <use xlink:href="#DejaVuSans-67" transform="translate(285.628906 0)"/>
      <use xlink:href="#DejaVuSans-65" transform="translate(349.105469 0)"/>
      <use xlink:href="#DejaVuSans-20" transform="translate(410.628906 0)"/>
      <use xlink:href="#DejaVuSans-46" transform="translate(442.416016 0)"/>
      <use xlink:href="#DejaVuSans-69" transform="translate(492.685547 0)"/>
      <use xlink:href="#DejaVuSans-74" transform="translate(520.46875 0)"/>
      <use xlink:href="#DejaVuSans-6e" transform="translate(559.677734 0)"/>
      <use xlink:href="#DejaVuSans-65" transform="translate(623.056641 0)"/>
      <use xlink:href="#DejaVuSans-73" transform="translate(684.580078 0)"/>
      <use xlink:href="#DejaVuSans-73" transform="translate(736.679688 0)"/>
      <use xlink:href="#DejaVuSans-20" transform="translate(788.779297 0)"/>
      <use xlink:href="#DejaVuSans-28" transform="translate(820.566406 0)"/>
      <use xlink:href="#DejaVuSans-47" transform="translate(859.580078 0)"/>
      <use xlink:href="#DejaVuSans-41" transform="translate(937.070312 0)"/>
      <use xlink:href="#DejaVuSans-29" transform="translate(1005.478516 0)"/>
     </g>
    </g>
   </g>
  </g>
 </g>
 <defs>
  <clipPath id="p67b349e110">
   <rect x="48.37" y="18.08" width="656.985" height="380.76"/>
  </clipPath>
 </defs>
</svg>
