<?xml version="1.0" encoding="utf-8" standalone="no"?>
<!DOCTYPE svg PUBLIC "-//W3C//DTD SVG 1.1//EN"
  "http://www.w3.org/Graphics/SVG/1.1/DTD/svg11.dtd">
<svg xmlns:xlink="http://www.w3.org/1999/xlink" width="720pt" height="432pt" viewBox="0 0 720 432" xmlns="http://www.w3.org/2000/svg" version="1.1">
 <metadata>
  <rdf:RDF xmlns:dc="http://purl.org/dc/elements/1.1/" xmlns:cc="http://creativecommons.org/ns#" xmlns:rdf="http://www.w3.org/1999/02/22-rdf-syntax-ns#">
   <cc:Work>
    <dc:type rdf:resource="http://purl.org/dc/dcmitype/StillImage"/>
    <dc:date>2026-05-05T21:10:37.921934</dc:date>
    <dc:format>image/svg+xml</dc:format>
    <dc:creator>
     <cc:Agent>
      <dc:title>Matplotlib v3.10.9, https://matplotlib.org/</dc:title>
     </cc:Agent>
    </dc:creator>
   </cc:Work>
  </rdf:RDF>
 </metadata>
 <defs>
  <style type="text/css">*{stroke-linejoin: round; stroke-linecap: butt}</style>
 </defs>
 <g id="figure_1">
  <g id="patch_1">
   <path d="M 0 432 
L 720 432 
L 720 0 
L 0 0 
z
" style="fill: #ffffff"/>
  </g>
  <g id="axes_1">
   <g id="patch_2">
    <path d="M 48.37 398.84 
L 705.355 398.84 
L 705.355 18.08 
L 48.37 18.08 
z
" style="fill: #ffffff"/>
   </g>
   <g id="matplotlib.axis_1">
    <g id="xtick_1">
     <g id="line2d_1">
      <path d="M 48.37 398.84 
L 48.37 18.08 
" clip-path="url(#p4f15e9a811)" style="fill: none; stroke-dasharray: 0.8,1.32; stroke-dashoffset: 0; stroke: #b0b0b0; stroke-opacity: 0.7; stroke-width: 0.8"/>
     </g>
     <g id="line2d_2">
      <defs>
       <path id="m440dc41cd9" d="M 0 0 
L 0 3.5 
" style="stroke: #000000; stroke-width: 0.8"/>
      </defs>
      <g>
       <use xlink:href="#m440dc41cd9" x="48.37" y="398.84" style="stroke: #000000; stroke-width: 0.8"/>
      </g>
     </g>
     <g id="text_1">
      <!-- 0 -->
      <g transform="translate(45.18875 413.438437) scale(0.1 -0.1)">
       <defs>
        <path id="DejaVuSans-30" d="M 2034 4250 
Q 1547 4250 1301 3770 
Q 1056 3291 1056 2328 
Q 1056 1369 1301 889 
Q 1547 409 2034 409 
Q 2525 409 2770 889 
Q 3016 1369 3016 2328 
Q 3016 3291 2770 3770 
Q 2525 4250 2034 4250 
z
M 2034 4750 
Q 2819 4750 3233 4129 
Q 3647 3509 3647 2328 
Q 3647 1150 3233 529 
Q 2819 -91 2034 -91 
Q 1250 -91 836 529 
Q 422 1150 422 2328 
Q 422 3509 836 4129 
Q 1250 4750 2034 4750 
z
" transform="scale(0.015625)"/>
       </defs>
       <use xlink:href="#DejaVuSans-30"/>
      </g>
     </g>
    </g>
    <g id="xtick_2">
     <g id="line2d_3">
      <path d="M 114.0685 398.84 
L 114.0685 18.08 
" clip-path="url(#p4f15e9a811)" style="fill: none; stroke-dasharray: 0.8,1.32; stroke-dashoffset: 0; stroke: #b0b0b0; stroke-opacity: 0.7; stroke-width: 0.8"/>
     </g>
     <g id="line2d_4">
      <g>
       <use xlink:href="#m440dc41cd9" x="114.0685" y="398.84" style="stroke: #000000; stroke-width: 0.8"/>
      </g>
     </g>
     <g id="text_2">
      <!-- 100 -->
      <g transform="translate(104.52475 413.438437) scale(0.1 -0.1)">
       <defs>
        <path id="DejaVuSans-31" d="M 794 531 
L 1825 531 
L 1825 4091 
L 703 3866 
L 703 4441 
L 1819 4666 
L 2450 4666 
L 2450 531 
L 3481 531 
L 3481 0 
L 794 0 
L 794 531 
z
" transform="scale(0.015625)"/>
       </defs>
       <use xlink:href="#DejaVuSans-31"/>
       <use xlink:href="#DejaVuSans-30" transform="translate(63.623047 0)"/>
       <use xlink:href="#DejaVuSans-30" transform="translate(127.246094 0)"/>
      </g>
     </g>
    </g>
    <g id="xtick_3">
     <g id="line2d_5">
      <path d="M 179.767 398.84 
L 179.767 18.08 
" clip-path="url(#p4f15e9a811)" style="fill: none; stroke-dasharray: 0.8,1.32; stroke-dashoffset: 0; stroke: #b0b0b0; stroke-opacity: 0.7; stroke-width: 0.8"/>
     </g>
     <g id="line2d_6">
      <g>
       <use xlink:href="#m440dc41cd9" x="179.767" y="398.84" style="stroke: #000000; stroke-width: 0.8"/>
      </g>
     </g>
     <g id="text_3">
      <!-- 200 -->
      <g transform="translate(170.22325 413.438437) scale(0.1 -0.1)">
       <defs>
        <path id="DejaVuSans-32" d="M 1228 531 
L 3431 531 
L 3431 0 
L 469 0 
L 469 531 
Q 828 903 1448 1529 
Q 2069 2156 2228 2338 
Q 2531 2678 2651 2914 
Q 2772 3150 2772 3378 
Q 2772 3750 2511 3984 
Q 2250 4219 1831 4219 
Q 1534 4219 1204 4116 
Q 875 4013 500 3803 
L 500 4441 
Q 881 4594 1212 4672 
Q 1544 4750 1819 4750 
Q 2544 4750 2975 4387 
Q 3406 4025 3406 3419 
Q 3406 3131 3298 2873 
Q 3191 2616 2906 2266 
Q 2828 2175 2409 1742 
Q 1991 1309 1228 531 
z
" transform="scale(0.015625)"/>
       </defs>
       <use xlink:href="#DejaVuSans-32"/>
       <use xlink:href="#DejaVuSans-30" transform="translate(63.623047 0)"/>
       <use xlink:href="#DejaVuSans-30" transform="translate(127.246094 0)"/>
      </g>
     </g>
    </g>
    <g id="xtick_4">
     <g id="line2d_7">
      <path d="M 245.4655 398.84 
L 245.4655 18.08 
" clip-path="url(#p4f15e9a811)" style="fill: none; stroke-dasharray: 0.8,1.32; stroke-dashoffset: 0; stroke: #b0b0b0; stroke-opacity: 0.7; stroke-width: 0.8"/>
     </g>
     <g id="line2d_8">
      <g>
       <use xlink:href="#m440dc41cd9" x="245.4655" y="398.84" style="stroke: #000000; stroke-width: 0.8"/>
      </g>
     </g>
     <g id="text_4">
      <!-- 300 -->
      <g transform="translate(235.92175 413.438437) scale(0.1 -0.1)">
       <defs>
        <path id="DejaVuSans-33" d="M 2597 2516 
Q 3050 2419 3304 2112 
Q 3559 1806 3559 1356 
Q 3559 666 3084 287 
Q 2609 -91 1734 -91 
Q 1441 -91 1130 -33 
Q 819 25 488 141 
L 488 750 
Q 750 597 1062 519 
Q 1375 441 1716 441 
Q 2309 441 2620 675 
Q 2931 909 2931 1356 
Q 2931 1769 2642 2001 
Q 2353 2234 1838 2234 
L 1294 2234 
L 1294 2753 
L 1863 2753 
Q 2328 2753 2575 2939 
Q 2822 3125 2822 3475 
Q 2822 3834 2567 4026 
Q 2313 4219 1838 4219 
Q 1578 4219 1281 4162 
Q 984 4106 628 3988 
L 628 4550 
Q 988 4650 1302 4700 
Q 1616 4750 1894 4750 
Q 2613 4750 3031 4423 
Q 3450 4097 3450 3541 
Q 3450 3153 3228 2886 
Q 3006 2619 2597 2516 
z
" transform="scale(0.015625)"/>
       </defs>
       <use xlink:href="#DejaVuSans-33"/>
       <use xlink:href="#DejaVuSans-30" transform="translate(63.623047 0)"/>
       <use xlink:href="#DejaVuSans-30" transform="translate(127.246094 0)"/>
      </g>
     </g>
    </g>
    <g id="xtick_5">
     <g id="line2d_9">
      <path d="M 311.164 398.84 
L 311.164 18.08 
" clip-path="url(#p4f15e9a811)" style="fill: none; stroke-dasharray: 0.8,1.32; stroke-dashoffset: 0; stroke: #b0b0b0; stroke-opacity: 0.7; stroke-width: 0.8"/>
     </g>
     <g id="line2d_10">
      <g>
       <use xlink:href="#m440dc41cd9" x="311.164" y="398.84" style="stroke: #000000; stroke-width: 0.8"/>
      </g>
     </g>
     <g id="text_5">
      <!-- 400 -->
      <g transform="translate(301.62025 413.438437) scale(0.1 -0.1)">
       <defs>
        <path id="DejaVuSans-34" d="M 2419 4116 
L 825 1625 
L 2419 1625 
L 2419 4116 
z
M 2253 4666 
L 3047 4666 
L 3047 1625 
L 3713 1625 
L 3713 1100 
L 3047 1100 
L 3047 0 
L 2419 0 
L 2419 1100 
L 313 1100 
L 313 1709 
L 2253 4666 
z
" transform="scale(0.015625)"/>
       </defs>
       <use xlink:href="#DejaVuSans-34"/>
       <use xlink:href="#DejaVuSans-30" transform="translate(63.623047 0)"/>
       <use xlink:href="#DejaVuSans-30" transform="translate(127.246094 0)"/>
      </g>
     </g>
    </g>
    <g id="xtick_6">
     <g id="line2d_11">
      <path d="M 376.8625 398.84 
L 376.8625 18.08 
" clip-path="url(#p4f15e9a811)" style="fill: none; stroke-dasharray: 0.8,1.32; stroke-dashoffset: 0; stroke: #b0b0b0; stroke-opacity: 0.7; stroke-width: 0.8"/>
     </g>
     <g id="line2d_12">
      <g>
       <use xlink:href="#m440dc41cd9" x="376.8625" y="398.84" style="stroke: #000000; stroke-width: 0.8"/>
      </g>
     </g>
     <g id="text_6">
      <!-- 500 -->
      <g transform="translate(367.31875 413.438437) scale(0.1 -0.1)">
       <defs>
        <path id="DejaVuSans-35" d="M 691 4666 
L 3169 4666 
L 3169 4134 
L 1269 4134 
L 1269 2991 
Q 1406 3038 1543 3061 
Q 1681 3084 1819 3084 
Q 2600 3084 3056 2656 
Q 3513 2228 3513 1497 
Q 3513 744 3044 326 
Q 2575 -91 1722 -91 
Q 1428 -91 1123 -41 
Q 819 9 494 109 
L 494 744 
Q 775 591 1075 516 
Q 1375 441 1709 441 
Q 2250 441 2565 725 
Q 2881 1009 2881 1497 
Q 2881 1984 2565 2268 
Q 2250 2553 1709 2553 
Q 1456 2553 1204 2497 
Q 953 2441 691 2322 
L 691 4666 
z
" transform="scale(0.015625)"/>
       </defs>
       <use xlink:href="#DejaVuSans-35"/>
       <use xlink:href="#DejaVuSans-30" transform="translate(63.623047 0)"/>
       <use xlink:href="#DejaVuSans-30" transform="translate(127.246094 0)"/>
      </g>
     </g>
    </g>
    <g id="xtick_7">
     <g id="line2d_13">
      <path d="M 442.561 398.84 
L 442.561 18.08 
" clip-path="url(#p4f15e9a811)" style="fill: none; stroke-dasharray: 0.8,1.32; stroke-dashoffset: 0; stroke: #b0b0b0; stroke-opacity: 0.7; stroke-width: 0.8"/>
     </g>
     <g id="line2d_14">
      <g>
       <use xlink:href="#m440dc41cd9" x="442.561" y="398.84" style="stroke: #000000; stroke-width: 0.8"/>
      </g>
     </g>
     <g id="text_7">
      <!-- 600 -->
      <g transform="translate(433.01725 413.438437) scale(0.1 -0.1)">
       <defs>
        <path id="DejaVuSans-36" d="M 2113 2584 
Q 1688 2584 1439 2293 
Q 1191 2003 1191 1497 
Q 1191 994 1439 701 
Q 1688 409 2113 409 
Q 2538 409 2786 701 
Q 3034 994 3034 1497 
Q 3034 2003 2786 2293 
Q 2538 2584 2113 2584 
z
M 3366 4563 
L 3366 3988 
Q 3128 4100 2886 4159 
Q 2644 4219 2406 4219 
Q 1781 4219 1451 3797 
Q 1122 3375 1075 2522 
Q 1259 2794 1537 2939 
Q 1816 3084 2150 3084 
Q 2853 3084 3261 2657 
Q 3669 2231 3669 1497 
Q 3669 778 3244 343 
Q 2819 -91 2113 -91 
Q 1303 -91 875 529 
Q 447 1150 447 2328 
Q 447 3434 972 4092 
Q 1497 4750 2381 4750 
Q 2619 4750 2861 4703 
Q 3103 4656 3366 4563 
z
" transform="scale(0.015625)"/>
       </defs>
       <use xlink:href="#DejaVuSans-36"/>
       <use xlink:href="#DejaVuSans-30" transform="translate(63.623047 0)"/>
       <use xlink:href="#DejaVuSans-30" transform="translate(127.246094 0)"/>
      </g>
     </g>
    </g>
    <g id="xtick_8">
     <g id="line2d_15">
      <path d="M 508.2595 398.84 
L 508.2595 18.08 
" clip-path="url(#p4f15e9a811)" style="fill: none; stroke-dasharray: 0.8,1.32; stroke-dashoffset: 0; stroke: #b0b0b0; stroke-opacity: 0.7; stroke-width: 0.8"/>
     </g>
     <g id="line2d_16">
      <g>
       <use xlink:href="#m440dc41cd9" x="508.2595" y="398.84" style="stroke: #000000; stroke-width: 0.8"/>
      </g>
     </g>
     <g id="text_8">
      <!-- 700 -->
      <g transform="translate(498.71575 413.438437) scale(0.1 -0.1)">
       <defs>
        <path id="DejaVuSans-37" d="M 525 4666 
L 3525 4666 
L 3525 4397 
L 1831 0 
L 1172 0 
L 2766 4134 
L 525 4134 
L 525 4666 
z
" transform="scale(0.015625)"/>
       </defs>
       <use xlink:href="#DejaVuSans-37"/>
       <use xlink:href="#DejaVuSans-30" transform="translate(63.623047 0)"/>
       <use xlink:href="#DejaVuSans-30" transform="translate(127.246094 0)"/>
      </g>
     </g>
    </g>
    <g id="xtick_9">
     <g id="line2d_17">
      <path d="M 573.958 398.84 
L 573.958 18.08 
" clip-path="url(#p4f15e9a811)" style="fill: none; stroke-dasharray: 0.8,1.32; stroke-dashoffset: 0; stroke: #b0b0b0; stroke-opacity: 0.7; stroke-width: 0.8"/>
     </g>
     <g id="line2d_18">
      <g>
       <use xlink:href="#m440dc41cd9" x="573.958" y="398.84" style="stroke: #000000; stroke-width: 0.8"/>
      </g>
     </g>
     <g id="text_9">
      <!-- 800 -->
      <g transform="translate(564.41425 413.438437) scale(0.1 -0.1)">
       <defs>
        <path id="DejaVuSans-38" d="M 2034 2216 
Q 1584 2216 1326 1975 
Q 1069 1734 1069 1313 
Q 1069 891 1326 650 
Q 1584 409 2034 409 
Q 2484 409 2743 651 
Q 3003 894 3003 1313 
Q 3003 1734 2745 1975 
Q 2488 2216 2034 2216 
z
M 1403 2484 
Q 997 2584 770 2862 
Q 544 3141 544 3541 
Q 544 4100 942 4425 
Q 1341 4750 2034 4750 
Q 2731 4750 3128 4425 
Q 3525 4100 3525 3541 
Q 3525 3141 3298 2862 
Q 3072 2584 2669 2484 
Q 3125 2378 3379 2068 
Q 3634 1759 3634 1313 
Q 3634 634 3220 271 
Q 2806 -91 2034 -91 
Q 1263 -91 848 271 
Q 434 634 434 1313 
Q 434 1759 690 2068 
Q 947 2378 1403 2484 
z
M 1172 3481 
Q 1172 3119 1398 2916 
Q 1625 2713 2034 2713 
Q 2441 2713 2670 2916 
Q 2900 3119 2900 3481 
Q 2900 3844 2670 4047 
Q 2441 4250 2034 4250 
Q 1625 4250 1398 4047 
Q 1172 3844 1172 3481 
z
" transform="scale(0.015625)"/>
       </defs>
       <use xlink:href="#DejaVuSans-38"/>
       <use xlink:href="#DejaVuSans-30" transform="translate(63.623047 0)"/>
       <use xlink:href="#DejaVuSans-30" transform="translate(127.246094 0)"/>
      </g>
     </g>
    </g>
    <g id="xtick_10">
     <g id="line2d_19">
      <path d="M 639.6565 398.84 
L 639.6565 18.08 
" clip-path="url(#p4f15e9a811)" style="fill: none; stroke-dasharray: 0.8,1.32; stroke-dashoffset: 0; stroke: #b0b0b0; stroke-opacity: 0.7; stroke-width: 0.8"/>
     </g>
     <g id="line2d_20">
      <g>
       <use xlink:href="#m440dc41cd9" x="639.6565" y="398.84" style="stroke: #000000; stroke-width: 0.8"/>
      </g>
     </g>
     <g id="text_10">
      <!-- 900 -->
      <g transform="translate(630.11275 413.438437) scale(0.1 -0.1)">
       <defs>
        <path id="DejaVuSans-39" d="M 703 97 
L 703 672 
Q 941 559 1184 500 
Q 1428 441 1663 441 
Q 2288 441 2617 861 
Q 2947 1281 2994 2138 
Q 2813 1869 2534 1725 
Q 2256 1581 1919 1581 
Q 1219 1581 811 2004 
Q 403 2428 403 3163 
Q 403 3881 828 4315 
Q 1253 4750 1959 4750 
Q 2769 4750 3195 4129 
Q 3622 3509 3622 2328 
Q 3622 1225 3098 567 
Q 2575 -91 1691 -91 
Q 1453 -91 1209 -44 
Q 966 3 703 97 
z
M 1959 2075 
Q 2384 2075 2632 2365 
Q 2881 2656 2881 3163 
Q 2881 3666 2632 3958 
Q 2384 4250 1959 4250 
Q 1534 4250 1286 3958 
Q 1038 3666 1038 3163 
Q 1038 2656 1286 2365 
Q 1534 2075 1959 2075 
z
" transform="scale(0.015625)"/>
       </defs>
       <use xlink:href="#DejaVuSans-39"/>
       <use xlink:href="#DejaVuSans-30" transform="translate(63.623047 0)"/>
       <use xlink:href="#DejaVuSans-30" transform="translate(127.246094 0)"/>
      </g>
     </g>
    </g>
    <g id="xtick_11">
     <g id="line2d_21">
      <path d="M 705.355 398.84 
L 705.355 18.08 
" clip-path="url(#p4f15e9a811)" style="fill: none; stroke-dasharray: 0.8,1.32; stroke-dashoffset: 0; stroke: #b0b0b0; stroke-opacity: 0.7; stroke-width: 0.8"/>
     </g>
     <g id="line2d_22">
      <g>
       <use xlink:href="#m440dc41cd9" x="705.355" y="398.84" style="stroke: #000000; stroke-width: 0.8"/>
      </g>
     </g>
     <g id="text_11">
      <!-- 1000 -->
      <g transform="translate(692.63 413.438437) scale(0.1 -0.1)">
       <use xlink:href="#DejaVuSans-31"/>
       <use xlink:href="#DejaVuSans-30" transform="translate(63.623047 0)"/>
       <use xlink:href="#DejaVuSans-30" transform="translate(127.246094 0)"/>
       <use xlink:href="#DejaVuSans-30" transform="translate(190.869141 0)"/>
      </g>
     </g>
    </g>
    <g id="text_12">
     <!-- Iteration / Generation -->
     <g transform="translate(322.898438 427.116562) scale(0.1 -0.1)">
      <defs>
       <path id="DejaVuSans-49" d="M 628 4666 
L 1259 4666 
L 1259 0 
L 628 0 
L 628 4666 
z
" transform="scale(0.015625)"/>
       <path id="DejaVuSans-74" d="M 1172 4494 
L 1172 3500 
L 2356 3500 
L 2356 3053 
L 1172 3053 
L 1172 1153 
Q 1172 725 1289 603 
Q 1406 481 1766 481 
L 2356 481 
L 2356 0 
L 1766 0 
Q 1100 0 847 248 
Q 594 497 594 1153 
L 594 3053 
L 172 3053 
L 172 3500 
L 594 3500 
L 594 4494 
L 1172 4494 
z
" transform="scale(0.015625)"/>
       <path id="DejaVuSans-65" d="M 3597 1894 
L 3597 1613 
L 953 1613 
Q 991 1019 1311 708 
Q 1631 397 2203 397 
Q 2534 397 2845 478 
Q 3156 559 3463 722 
L 3463 178 
Q 3153 47 2828 -22 
Q 2503 -91 2169 -91 
Q 1331 -91 842 396 
Q 353 884 353 1716 
Q 353 2575 817 3079 
Q 1281 3584 2069 3584 
Q 2775 3584 3186 3129 
Q 3597 2675 3597 1894 
z
M 3022 2063 
Q 3016 2534 2758 2815 
Q 2500 3097 2075 3097 
Q 1594 3097 1305 2825 
Q 1016 2553 972 2059 
L 3022 2063 
z
" transform="scale(0.015625)"/>
       <path id="DejaVuSans-72" d="M 2631 2963 
Q 2534 3019 2420 3045 
Q 2306 3072 2169 3072 
Q 1681 3072 1420 2755 
Q 1159 2438 1159 1844 
L 1159 0 
L 581 0 
L 581 3500 
L 1159 3500 
L 1159 2956 
Q 1341 3275 1631 3429 
Q 1922 3584 2338 3584 
Q 2397 3584 2469 3576 
Q 2541 3569 2628 3553 
L 2631 2963 
z
" transform="scale(0.015625)"/>
       <path id="DejaVuSans-61" d="M 2194 1759 
Q 1497 1759 1228 1600 
Q 959 1441 959 1056 
Q 959 750 1161 570 
Q 1363 391 1709 391 
Q 2188 391 2477 730 
Q 2766 1069 2766 1631 
L 2766 1759 
L 2194 1759 
z
M 3341 1997 
L 3341 0 
L 2766 0 
L 2766 531 
Q 2569 213 2275 61 
Q 1981 -91 1556 -91 
Q 1019 -91 701 211 
Q 384 513 384 1019 
Q 384 1609 779 1909 
Q 1175 2209 1959 2209 
L 2766 2209 
L 2766 2266 
Q 2766 2663 2505 2880 
Q 2244 3097 1772 3097 
Q 1472 3097 1187 3025 
Q 903 2953 641 2809 
L 641 3341 
Q 956 3463 1253 3523 
Q 1550 3584 1831 3584 
Q 2591 3584 2966 3190 
Q 3341 2797 3341 1997 
z
" transform="scale(0.015625)"/>
       <path id="DejaVuSans-69" d="M 603 3500 
L 1178 3500 
L 1178 0 
L 603 0 
L 603 3500 
z
M 603 4863 
L 1178 4863 
L 1178 4134 
L 603 4134 
L 603 4863 
z
" transform="scale(0.015625)"/>
       <path id="DejaVuSans-6f" d="M 1959 3097 
Q 1497 3097 1228 2736 
Q 959 2375 959 1747 
Q 959 1119 1226 758 
Q 1494 397 1959 397 
Q 2419 397 2687 759 
Q 2956 1122 2956 1747 
Q 2956 2369 2687 2733 
Q 2419 3097 1959 3097 
z
M 1959 3584 
Q 2709 3584 3137 3096 
Q 3566 2609 3566 1747 
Q 3566 888 3137 398 
Q 2709 -91 1959 -91 
Q 1206 -91 779 398 
Q 353 888 353 1747 
Q 353 2609 779 3096 
Q 1206 3584 1959 3584 
z
" transform="scale(0.015625)"/>
       <path id="DejaVuSans-6e" d="M 3513 2113 
L 3513 0 
L 2938 0 
L 2938 2094 
Q 2938 2591 2744 2837 
Q 2550 3084 2163 3084 
Q 1697 3084 1428 2787 
Q 1159 2491 1159 1978 
L 1159 0 
L 581 0 
L 581 3500 
L 1159 3500 
L 1159 2956 
Q 1366 3272 1645 3428 
Q 1925 3584 2291 3584 
Q 2894 3584 3203 3211 
Q 3513 2838 3513 2113 
z
" transform="scale(0.015625)"/>
       <path id="DejaVuSans-20" transform="scale(0.015625)"/>
       <path id="DejaVuSans-2f" d="M 1625 4666 
L 2156 4666 
L 531 -594 
L 0 -594 
L 1625 4666 
z
" transform="scale(0.015625)"/>
       <path id="DejaVuSans-47" d="M 3809 666 
L 3809 1919 
L 2778 1919 
L 2778 2438 
L 4434 2438 
L 4434 434 
Q 4069 175 3628 42 
Q 3188 -91 2688 -91 
Q 1594 -91 976 548 
Q 359 1188 359 2328 
Q 359 3472 976 4111 
Q 1594 4750 2688 4750 
Q 3144 4750 3555 4637 
Q 3966 4525 4313 4306 
L 4313 3634 
Q 3963 3931 3569 4081 
Q 3175 4231 2741 4231 
Q 1884 4231 1454 3753 
Q 1025 3275 1025 2328 
Q 1025 1384 1454 906 
Q 1884 428 2741 428 
Q 3075 428 3337 486 
Q 3600 544 3809 666 
z
" transform="scale(0.015625)"/>
      </defs>
      <use xlink:href="#DejaVuSans-49"/>
      <use xlink:href="#DejaVuSans-74" transform="translate(29.492188 0)"/>
      <use xlink:href="#DejaVuSans-65" transform="translate(68.701172 0)"/>
      <use xlink:href="#DejaVuSans-72" transform="translate(130.224609 0)"/>
      <use xlink:href="#DejaVuSans-61" transform="translate(171.337891 0)"/>
      <use xlink:href="#DejaVuSans-74" transform="translate(232.617188 0)"/>
      <use xlink:href="#DejaVuSans-69" transform="translate(271.826172 0)"/>
      <use xlink:href="#DejaVuSans-6f" transform="translate(299.609375 0)"/>
      <use xlink:href="#DejaVuSans-6e" transform="translate(360.791016 0)"/>
      <use xlink:href="#DejaVuSans-20" transform="translate(424.169922 0)"/>
      <use xlink:href="#DejaVuSans-2f" transform="translate(455.957031 0)"/>
      <use xlink:href="#DejaVuSans-20" transform="translate(489.648438 0)"/>
      <use xlink:href="#DejaVuSans-47" transform="translate(521.435547 0)"/>
      <use xlink:href="#DejaVuSans-65" transform="translate(598.925781 0)"/>
      <use xlink:href="#DejaVuSans-6e" transform="translate(660.449219 0)"/>
      <use xlink:href="#DejaVuSans-65" transform="translate(723.828125 0)"/>
      <use xlink:href="#DejaVuSans-72" transform="translate(785.351562 0)"/>
      <use xlink:href="#DejaVuSans-61" transform="translate(826.464844 0)"/>
      <use xlink:href="#DejaVuSans-74" transform="translate(887.744141 0)"/>
      <use xlink:href="#DejaVuSans-69" transform="translate(926.953125 0)"/>
      <use xlink:href="#DejaVuSans-6f" transform="translate(954.736328 0)"/>
      <use xlink:href="#DejaVuSans-6e" transform="translate(1015.917969 0)"/>
     </g>
    </g>
   </g>
   <g id="matplotlib.axis_2">
    <g id="ytick_1">
     <g id="line2d_23">
      <path d="M 48.37 364.833444 
L 705.355 364.833444 
" clip-path="url(#p4f15e9a811)" style="fill: none; stroke-dasharray: 0.8,1.32; stroke-dashoffset: 0; stroke: #b0b0b0; stroke-opacity: 0.7; stroke-width: 0.8"/>
     </g>
     <g id="line2d_24">
      <defs>
       <path id="mb7acbcb582" d="M 0 0 
L -3.5 0 
" style="stroke: #000000; stroke-width: 0.8"/>
      </defs>
      <g>
       <use xlink:href="#mb7acbcb582" x="48.37" y="364.833444" style="stroke: #000000; stroke-width: 0.8"/>
      </g>
     </g>
     <g id="text_13">
      <!-- 1500 -->
      <g transform="translate(15.92 368.632663) scale(0.1 -0.1)">
       <use xlink:href="#DejaVuSans-31"/>
       <use xlink:href="#DejaVuSans-35" transform="translate(63.623047 0)"/>
       <use xlink:href="#DejaVuSans-30" transform="translate(127.246094 0)"/>
       <use xlink:href="#DejaVuSans-30" transform="translate(190.869141 0)"/>
      </g>
     </g>
    </g>
    <g id="ytick_2">
     <g id="line2d_25">
      <path d="M 48.37 302.691936 
L 705.355 302.691936 
" clip-path="url(#p4f15e9a811)" style="fill: none; stroke-dasharray: 0.8,1.32; stroke-dashoffset: 0; stroke: #b0b0b0; stroke-opacity: 0.7; stroke-width: 0.8"/>
     </g>
     <g id="line2d_26">
      <g>
       <use xlink:href="#mb7acbcb582" x="48.37" y="302.691936" style="stroke: #000000; stroke-width: 0.8"/>
      </g>
     </g>
     <g id="text_14">
      <!-- 2000 -->
      <g transform="translate(15.92 306.491155) scale(0.1 -0.1)">
       <use xlink:href="#DejaVuSans-32"/>
       <use xlink:href="#DejaVuSans-30" transform="translate(63.623047 0)"/>
       <use xlink:href="#DejaVuSans-30" transform="translate(127.246094 0)"/>
       <use xlink:href="#DejaVuSans-30" transform="translate(190.869141 0)"/>
      </g>
     </g>
    </g>
    <g id="ytick_3">
     <g id="line2d_27">
      <path d="M 48.37 240.550429 
L 705.355 240.550429 
" clip-path="url(#p4f15e9a811)" style="fill: none; stroke-dasharray: 0.8,1.32; stroke-dashoffset: 0; stroke: #b0b0b0; stroke-opacity: 0.7; stroke-width: 0.8"/>
     </g>
     <g id="line2d_28">
      <g>
       <use xlink:href="#mb7acbcb582" x="48.37" y="240.550429" style="stroke: #000000; stroke-width: 0.8"/>
      </g>
     </g>
     <g id="text_15">
      <!-- 2500 -->
      <g transform="translate(15.92 244.349647) scale(0.1 -0.1)">
       <use xlink:href="#DejaVuSans-32"/>
       <use xlink:href="#DejaVuSans-35" transform="translate(63.623047 0)"/>
       <use xlink:href="#DejaVuSans-30" transform="translate(127.246094 0)"/>
       <use xlink:href="#DejaVuSans-30" transform="translate(190.869141 0)"/>
      </g>
     </g>
    </g>
    <g id="ytick_4">
     <g id="line2d_29">
      <path d="M 48.37 178.408921 
L 705.355 178.408921 
" clip-path="url(#p4f15e9a811)" style="fill: none; stroke-dasharray: 0.8,1.32; stroke-dashoffset: 0; stroke: #b0b0b0; stroke-opacity: 0.7; stroke-width: 0.8"/>
     </g>
     <g id="line2d_30">
      <g>
       <use xlink:href="#mb7acbcb582" x="48.37" y="178.408921" style="stroke: #000000; stroke-width: 0.8"/>
      </g>
     </g>
     <g id="text_16">
      <!-- 3000 -->
      <g transform="translate(15.92 182.20814) scale(0.1 -0.1)">
       <use xlink:href="#DejaVuSans-33"/>
       <use xlink:href="#DejaVuSans-30" transform="translate(63.623047 0)"/>
       <use xlink:href="#DejaVuSans-30" transform="translate(127.246094 0)"/>
       <use xlink:href="#DejaVuSans-30" transform="translate(190.869141 0)"/>
      </g>
     </g>
    </g>
    <g id="ytick_5">
     <g id="line2d_31">
      <path d="M 48.37 116.267413 
L 705.355 116.267413 
" clip-path="url(#p4f15e9a811)" style="fill: none; stroke-dasharray: 0.8,1.32; stroke-dashoffset: 0; stroke: #b0b0b0; stroke-opacity: 0.7; stroke-width: 0.8"/>
     </g>
     <g id="line2d_32">
      <g>
       <use xlink:href="#mb7acbcb582" x="48.37" y="116.267413" style="stroke: #000000; stroke-width: 0.8"/>
      </g>
     </g>
     <g id="text_17">
      <!-- 3500 -->
      <g transform="translate(15.92 120.066632) scale(0.1 -0.1)">
       <use xlink:href="#DejaVuSans-33"/>
       <use xlink:href="#DejaVuSans-35" transform="translate(63.623047 0)"/>
       <use xlink:href="#DejaVuSans-30" transform="translate(127.246094 0)"/>
       <use xlink:href="#DejaVuSans-30" transform="translate(190.869141 0)"/>
      </g>
     </g>
    </g>
    <g id="ytick_6">
     <g id="line2d_33">
      <path d="M 48.37 54.125906 
L 705.355 54.125906 
" clip-path="url(#p4f15e9a811)" style="fill: none; stroke-dasharray: 0.8,1.32; stroke-dashoffset: 0; stroke: #b0b0b0; stroke-opacity: 0.7; stroke-width: 0.8"/>
     </g>
     <g id="line2d_34">
      <g>
       <use xlink:href="#mb7acbcb582" x="48.37" y="54.125906" style="stroke: #000000; stroke-width: 0.8"/>
      </g>
     </g>
     <g id="text_18">
      <!-- 4000 -->
      <g transform="translate(15.92 57.925124) scale(0.1 -0.1)">
       <use xlink:href="#DejaVuSans-34"/>
       <use xlink:href="#DejaVuSans-30" transform="translate(63.623047 0)"/>
       <use xlink:href="#DejaVuSans-30" transform="translate(127.246094 0)"/>
       <use xlink:href="#DejaVuSans-30" transform="translate(190.869141 0)"/>
      </g>
     </g>
    </g>
    <g id="text_19">
     <!-- Objective Value -->
     <g transform="translate(9.840312 247.490469) rotate(-90) scale(0.1 -0.1)">
      <defs>
       <path id="DejaVuSans-4f" d="M 2522 4238 
Q 1834 4238 1429 3725 
Q 1025 3213 1025 2328 
Q 1025 1447 1429 934 
Q 1834 422 2522 422 
Q 3209 422 3611 934 
Q 4013 1447 4013 2328 
Q 4013 3213 3611 3725 
Q 3209 4238 2522 4238 
z
M 2522 4750 
Q 3503 4750 4090 4092 
Q 4678 3434 4678 2328 
Q 4678 1225 4090 567 
Q 3503 -91 2522 -91 
Q 1538 -91 948 565 
Q 359 1222 359 2328 
Q 359 3434 948 4092 
Q 1538 4750 2522 4750 
z
" transform="scale(0.015625)"/>
       <path id="DejaVuSans-62" d="M 3116 1747 
Q 3116 2381 2855 2742 
Q 2594 3103 2138 3103 
Q 1681 3103 1420 2742 
Q 1159 2381 1159 1747 
Q 1159 1113 1420 752 
Q 1681 391 2138 391 
Q 2594 391 2855 752 
Q 3116 1113 3116 1747 
z
M 1159 2969 
Q 1341 3281 1617 3432 
Q 1894 3584 2278 3584 
Q 2916 3584 3314 3078 
Q 3713 2572 3713 1747 
Q 3713 922 3314 415 
Q 2916 -91 2278 -91 
Q 1894 -91 1617 61 
Q 1341 213 1159 525 
L 1159 0 
L 581 0 
L 581 4863 
L 1159 4863 
L 1159 2969 
z
" transform="scale(0.015625)"/>
       <path id="DejaVuSans-6a" d="M 603 3500 
L 1178 3500 
L 1178 -63 
Q 1178 -731 923 -1031 
Q 669 -1331 103 -1331 
L -116 -1331 
L -116 -844 
L 38 -844 
Q 366 -844 484 -692 
Q 603 -541 603 -63 
L 603 3500 
z
M 603 4863 
L 1178 4863 
L 1178 4134 
L 603 4134 
L 603 4863 
z
" transform="scale(0.015625)"/>
       <path id="DejaVuSans-63" d="M 3122 3366 
L 3122 2828 
Q 2878 2963 2633 3030 
Q 2388 3097 2138 3097 
Q 1578 3097 1268 2742 
Q 959 2388 959 1747 
Q 959 1106 1268 751 
Q 1578 397 2138 397 
Q 2388 397 2633 464 
Q 2878 531 3122 666 
L 3122 134 
Q 2881 22 2623 -34 
Q 2366 -91 2075 -91 
Q 1284 -91 818 406 
Q 353 903 353 1747 
Q 353 2603 823 3093 
Q 1294 3584 2113 3584 
Q 2378 3584 2631 3529 
Q 2884 3475 3122 3366 
z
" transform="scale(0.015625)"/>
       <path id="DejaVuSans-76" d="M 191 3500 
L 800 3500 
L 1894 563 
L 2988 3500 
L 3597 3500 
L 2284 0 
L 1503 0 
L 191 3500 
z
" transform="scale(0.015625)"/>
       <path id="DejaVuSans-56" d="M 1831 0 
L 50 4666 
L 709 4666 
L 2188 738 
L 3669 4666 
L 4325 4666 
L 2547 0 
L 1831 0 
z
" transform="scale(0.015625)"/>
       <path id="DejaVuSans-6c" d="M 603 4863 
L 1178 4863 
L 1178 0 
L 603 0 
L 603 4863 
z
" transform="scale(0.015625)"/>
       <path id="DejaVuSans-75" d="M 544 1381 
L 544 3500 
L 1119 3500 
L 1119 1403 
Q 1119 906 1312 657 
Q 1506 409 1894 409 
Q 2359 409 2629 706 
Q 2900 1003 2900 1516 
L 2900 3500 
L 3475 3500 
L 3475 0 
L 2900 0 
L 2900 538 
Q 2691 219 2414 64 
Q 2138 -91 1772 -91 
Q 1169 -91 856 284 
Q 544 659 544 1381 
z
M 1991 3584 
L 1991 3584 
z
" transform="scale(0.015625)"/>
      </defs>
      <use xlink:href="#DejaVuSans-4f"/>
      <use xlink:href="#DejaVuSans-62" transform="translate(78.710938 0)"/>
      <use xlink:href="#DejaVuSans-6a" transform="translate(142.1875 0)"/>
      <use xlink:href="#DejaVuSans-65" transform="translate(169.970703 0)"/>
      <use xlink:href="#DejaVuSans-63" transform="translate(231.494141 0)"/>
      <use xlink:href="#DejaVuSans-74" transform="translate(286.474609 0)"/>
      <use xlink:href="#DejaVuSans-69" transform="translate(325.683594 0)"/>
      <use xlink:href="#DejaVuSans-76" transform="translate(353.466797 0)"/>
      <use xlink:href="#DejaVuSans-65" transform="translate(412.646484 0)"/>
      <use xlink:href="#DejaVuSans-20" transform="translate(474.169922 0)"/>
      <use xlink:href="#DejaVuSans-56" transform="translate(505.957031 0)"/>
      <use xlink:href="#DejaVuSans-61" transform="translate(566.615234 0)"/>
      <use xlink:href="#DejaVuSans-6c" transform="translate(627.894531 0)"/>
      <use xlink:href="#DejaVuSans-75" transform="translate(655.677734 0)"/>
      <use xlink:href="#DejaVuSans-65" transform="translate(719.056641 0)"/>
     </g>
    </g>
   </g>
   <g id="line2d_35">
    <path d="M 48.37 224.528272 
L 49.026985 224.528272 
L 49.026985 243.931732 
L 50.99794 244.002117 
L 50.99794 245.852491 
L 52.31191 245.852491 
L 52.31191 342.510292 
L 231.01183 342.510292 
L 231.01183 356.796524 
L 315.10591 356.796524 
L 315.10591 367.11 
L 704.698015 367.11 
L 704.698015 367.11 
" clip-path="url(#p4f15e9a811)" style="fill: none; stroke: #1f77b4; stroke-width: 1.5; stroke-linecap: square"/>
   </g>
   <g id="line2d_36">
    <path d="M 48.37 148.05111 
L 49.026985 93.179727 
L 49.68397 60.575063 
L 50.340955 91.121575 
L 50.99794 89.947551 
L 51.654925 80.107496 
L 52.31191 132.459359 
L 53.62588 59.97628 
L 54.282865 49.81 
L 54.93985 82.967267 
L 55.596835 64.398344 
L 56.25382 71.593635 
L 56.910805 59.865045 
L 57.56779 66.014582 
L 58.224775 58.723804 
L 58.88176 54.743162 
L 59.538745 83.103044 
L 60.19573 67.104365 
L 60.852715 83.246029 
L 61.5097 89.945172 
L 62.166685 69.857789 
L 62.82367 92.766841 
L 63.480655 82.944363 
L 64.13764 94.420323 
L 64.794625 88.172625 
L 65.45161 87.958234 
L 66.108595 112.547259 
L 66.76558 111.597848 
L 67.422565 117.574874 
L 68.07955 95.161689 
L 68.736535 101.413259 
L 69.39352 93.402586 
L 70.050505 99.185012 
L 70.70749 103.894467 
L 71.364475 95.286028 
L 72.02146 89.243062 
L 72.678445 103.814868 
L 73.33543 91.170602 
L 73.992415 112.064142 
L 74.6494 119.494475 
L 75.306385 112.064466 
L 75.96337 129.224203 
L 76.620355 99.896533 
L 77.27734 120.25737 
L 77.934325 118.825632 
L 78.59131 116.334616 
L 79.248295 109.572678 
L 79.90528 111.305307 
L 80.562265 125.386994 
L 81.21925 134.626688 
L 81.876235 131.703832 
L 82.53322 123.684172 
L 83.190205 112.511958 
L 83.84719 96.632425 
L 84.504175 103.738465 
L 85.16116 103.688024 
L 85.818145 119.141147 
L 86.47513 121.730929 
L 87.132115 136.199526 
L 87.7891 131.127277 
L 88.446085 90.262622 
L 89.10307 119.656569 
L 89.760055 90.383497 
L 91.074025 110.499308 
L 91.73101 108.314262 
L 92.387995 105.222138 
L 93.04498 99.789182 
L 93.701965 134.636052 
L 94.35895 109.17929 
L 95.015935 119.125436 
L 95.67292 121.186664 
L 96.329905 120.283373 
L 96.98689 151.980332 
L 97.643875 127.485278 
L 98.30086 132.315161 
L 98.957845 112.263939 
L 99.61483 126.714249 
L 100.271815 133.854892 
L 101.585785 139.553903 
L 102.24277 114.910816 
L 102.899755 129.086634 
L 103.55674 124.453298 
L 104.213725 107.624722 
L 104.87071 101.686008 
L 105.527695 89.859221 
L 106.18468 120.716629 
L 106.841665 116.29089 
L 107.49865 119.698897 
L 108.155635 136.20255 
L 108.81262 114.689129 
L 109.469605 127.608898 
L 110.12659 131.538992 
L 110.783575 131.868477 
L 111.44056 131.160486 
L 112.097545 123.201223 
L 112.75453 162.287813 
L 113.411515 146.924078 
L 114.0685 135.6519 
L 114.725485 117.336435 
L 115.38247 148.206542 
L 116.039455 136.771718 
L 116.69644 129.453974 
L 117.353425 130.570886 
L 118.01041 146.136433 
L 118.667395 140.292371 
L 119.32438 148.640731 
L 119.981365 131.499366 
L 120.63835 123.181186 
L 121.295335 143.944278 
L 121.95232 138.323818 
L 122.609305 141.045093 
L 123.26629 127.973054 
L 123.923275 123.183545 
L 124.58026 131.835241 
L 125.237245 132.803988 
L 125.89423 119.603087 
L 126.551215 144.333353 
L 127.2082 148.933223 
L 127.865185 126.167834 
L 128.52217 121.4771 
L 129.179155 138.921419 
L 129.83614 121.481693 
L 130.493125 148.794689 
L 131.15011 125.947488 
L 131.807095 137.542753 
L 132.46408 117.290068 
L 133.121065 135.805559 
L 133.77805 146.926016 
L 134.435035 126.140939 
L 135.09202 143.5302 
L 135.749005 139.634735 
L 136.40599 150.966047 
L 137.062975 142.328959 
L 137.71996 161.780102 
L 138.376945 130.436073 
L 139.03393 148.932431 
L 139.690915 147.623553 
L 140.3479 143.112575 
L 141.004885 113.959808 
L 141.66187 112.932614 
L 142.318855 133.240833 
L 142.97584 124.941631 
L 143.632825 140.291248 
L 144.28981 133.127433 
L 144.946795 138.154594 
L 145.60378 156.160278 
L 146.260765 158.187612 
L 146.91775 147.362674 
L 147.574735 126.437566 
L 148.23172 136.637736 
L 148.888705 125.084475 
L 149.54569 129.182347 
L 150.202675 156.600648 
L 150.85966 149.078431 
L 151.516645 148.301844 
L 152.17363 152.778535 
L 152.830615 146.245132 
L 153.4876 137.008056 
L 154.144585 160.466761 
L 154.80157 155.992995 
L 155.458555 131.125552 
L 156.11554 154.43034 
L 156.772525 163.404157 
L 157.42951 135.256437 
L 158.086495 138.885589 
L 158.74348 140.471856 
L 159.400465 162.927745 
L 160.05745 160.20443 
L 160.714435 155.174401 
L 161.37142 132.689316 
L 162.028405 149.644589 
L 162.68539 144.594655 
L 163.342375 161.279919 
L 163.99936 143.487737 
L 164.656345 146.673778 
L 165.31333 151.032652 
L 165.970315 138.272925 
L 166.6273 146.699108 
L 167.284285 150.834131 
L 167.94127 147.449641 
L 168.598255 173.140017 
L 169.25524 155.666659 
L 169.912225 155.794986 
L 170.56921 138.631811 
L 171.226195 154.721209 
L 171.88318 143.766187 
L 172.540165 146.872034 
L 173.854135 143.730579 
L 174.51112 159.046669 
L 175.168105 144.073232 
L 175.82509 135.669178 
L 176.482075 153.734961 
L 177.796045 139.117151 
L 178.45303 147.641745 
L 179.110015 152.321096 
L 179.767 170.850601 
L 180.423985 137.378531 
L 181.08097 138.212444 
L 181.737955 155.92727 
L 182.39494 138.224778 
L 183.051925 133.616176 
L 183.70891 160.630964 
L 184.365895 154.563193 
L 185.02288 133.329395 
L 185.679865 142.393247 
L 186.33685 148.352936 
L 186.993835 138.530321 
L 187.65082 130.525302 
L 188.307805 155.435783 
L 188.96479 155.593335 
L 189.621775 143.325565 
L 190.27876 154.434567 
L 190.935745 154.364455 
L 191.59273 144.397684 
L 192.249715 138.466209 
L 192.9067 150.710712 
L 193.563685 176.61552 
L 194.22067 122.560323 
L 195.53464 170.987021 
L 196.191625 159.806827 
L 196.84861 160.343888 
L 197.505595 145.679235 
L 198.16258 149.029933 
L 198.819565 174.25108 
L 200.133535 150.790212 
L 200.79052 145.259789 
L 201.447505 175.179604 
L 202.10449 148.748118 
L 202.761475 156.438956 
L 203.41846 172.93288 
L 204.075445 157.346071 
L 204.73243 136.400055 
L 205.389415 151.099421 
L 206.0464 153.667354 
L 206.703385 164.871012 
L 208.017355 146.491846 
L 208.67434 166.186208 
L 209.331325 179.721176 
L 209.98831 163.675245 
L 210.645295 167.770269 
L 211.30228 149.964007 
L 211.959265 145.227491 
L 212.61625 152.763142 
L 213.273235 147.601176 
L 213.93022 164.159955 
L 214.587205 153.350511 
L 215.24419 144.499928 
L 215.901175 162.130004 
L 216.55816 129.129311 
L 217.215145 142.751532 
L 217.87213 151.365206 
L 218.529115 148.326787 
L 219.1861 154.741361 
L 219.843085 178.479824 
L 220.50007 159.97619 
L 221.157055 169.582243 
L 221.81404 170.802587 
L 222.471025 164.133453 
L 223.12801 156.055981 
L 223.784995 146.437838 
L 224.44198 156.890981 
L 225.098965 120.496217 
L 225.75595 154.082218 
L 226.412935 143.226536 
L 227.06992 144.203517 
L 227.726905 159.408174 
L 228.38389 159.759425 
L 229.040875 150.150913 
L 229.69786 155.4326 
L 230.354845 163.021809 
L 231.01183 147.979776 
L 231.668815 161.959802 
L 232.3258 129.321933 
L 232.982785 139.195931 
L 233.63977 154.292394 
L 234.296755 136.9193 
L 235.610725 166.021875 
L 236.26771 119.785708 
L 236.924695 146.166781 
L 237.58168 140.142627 
L 238.238665 150.06179 
L 239.552635 129.746328 
L 240.20962 138.737198 
L 240.866605 135.724309 
L 241.52359 138.049797 
L 242.180575 151.220101 
L 242.83756 134.481126 
L 243.494545 130.980178 
L 244.15153 122.15465 
L 244.808515 119.538515 
L 245.4655 143.015025 
L 246.122485 124.67648 
L 246.77947 121.99474 
L 247.436455 159.864534 
L 248.09344 140.475483 
L 248.750425 134.70964 
L 249.40741 140.397306 
L 250.72138 147.893624 
L 251.378365 133.398234 
L 252.03535 144.917558 
L 252.692335 127.958297 
L 253.34932 152.216049 
L 254.66329 128.963597 
L 255.320275 138.622641 
L 255.97726 113.420047 
L 256.634245 126.660735 
L 257.29123 148.049657 
L 257.948215 132.774201 
L 258.6052 137.775975 
L 259.262185 129.110537 
L 259.91917 145.556207 
L 260.576155 126.282275 
L 261.23314 133.971432 
L 261.890125 137.644173 
L 262.54711 129.450635 
L 263.86108 121.528189 
L 264.518065 150.45278 
L 265.17505 154.321685 
L 265.832035 153.997569 
L 266.48902 135.421262 
L 267.146005 143.22087 
L 267.80299 129.093312 
L 268.459975 150.048393 
L 269.11696 152.373781 
L 269.773945 148.32768 
L 270.43093 143.455041 
L 271.087915 130.95584 
L 271.7449 159.300778 
L 272.401885 133.921713 
L 273.05887 162.438123 
L 273.715855 143.377956 
L 274.37284 144.869525 
L 275.029825 150.207406 
L 275.68681 174.022648 
L 276.343795 123.346007 
L 277.00078 128.213048 
L 277.657765 112.57226 
L 278.31475 130.440646 
L 278.971735 116.492323 
L 279.62872 130.924308 
L 280.285705 136.73086 
L 280.94269 144.697128 
L 281.599675 156.567688 
L 282.25666 143.229612 
L 282.913645 132.21807 
L 283.57063 149.341772 
L 284.227615 146.863221 
L 284.8846 137.670857 
L 285.541585 159.900247 
L 286.19857 144.389435 
L 286.855555 159.615336 
L 287.51254 112.503366 
L 288.169525 134.825697 
L 288.82651 149.597669 
L 289.483495 146.144591 
L 290.14048 149.196673 
L 290.797465 146.78601 
L 291.45445 139.95841 
L 292.111435 124.817658 
L 292.76842 129.785704 
L 293.425405 137.867269 
L 294.08239 121.208166 
L 294.739375 147.491089 
L 295.39636 152.915561 
L 296.053345 145.90742 
L 296.71033 118.775036 
L 297.367315 146.03319 
L 298.681285 128.956326 
L 299.33827 159.406211 
L 299.995255 127.026624 
L 300.65224 130.306899 
L 301.309225 126.483077 
L 301.96621 141.058028 
L 302.623195 122.818163 
L 303.28018 142.866164 
L 303.937165 156.319637 
L 304.59415 158.59291 
L 305.251135 127.940881 
L 305.90812 143.838072 
L 306.565105 130.868602 
L 307.22209 134.874611 
L 307.879075 137.476716 
L 308.53606 129.412007 
L 309.193045 141.134273 
L 309.85003 149.436428 
L 310.507015 149.769135 
L 311.164 148.40404 
L 311.820985 153.895549 
L 312.47797 139.788566 
L 313.134955 148.460169 
L 313.79194 151.993348 
L 314.448925 142.063648 
L 315.10591 170.602723 
L 315.762895 146.613456 
L 316.41988 135.418742 
L 317.076865 152.205379 
L 317.73385 149.550234 
L 318.390835 150.729453 
L 319.04782 146.813015 
L 319.704805 156.872443 
L 320.36179 152.327646 
L 321.018775 153.551691 
L 321.67576 139.1823 
L 322.332745 145.858749 
L 322.98973 136.484275 
L 323.646715 157.111244 
L 324.3037 138.440786 
L 324.960685 172.132471 
L 325.61767 147.138203 
L 326.274655 153.549258 
L 326.93164 151.092839 
L 327.588625 161.494248 
L 328.24561 168.310396 
L 328.902595 145.633579 
L 329.55958 153.808338 
L 330.216565 144.059639 
L 330.87355 148.624309 
L 331.530535 150.985037 
L 332.18752 155.974436 
L 332.844505 145.697636 
L 333.50149 164.640731 
L 334.158475 148.122206 
L 334.81546 151.664855 
L 335.472445 169.141157 
L 336.12943 175.368883 
L 336.786415 165.586269 
L 337.4434 183.640514 
L 338.100385 154.042225 
L 338.75737 146.51563 
L 339.414355 153.606273 
L 340.07134 136.79048 
L 340.728325 143.700065 
L 341.38531 146.400666 
L 342.042295 146.126022 
L 342.69928 134.09817 
L 343.356265 137.191208 
L 344.01325 162.079145 
L 344.670235 141.480017 
L 345.32722 151.366869 
L 345.984205 152.969993 
L 346.64119 151.807565 
L 347.298175 148.872425 
L 347.95516 154.475952 
L 348.612145 170.204987 
L 349.26913 173.087697 
L 349.926115 182.122367 
L 350.5831 162.076604 
L 351.240085 148.058093 
L 351.89707 167.495961 
L 352.554055 172.286008 
L 353.21104 139.959172 
L 353.868025 138.92528 
L 354.52501 159.297026 
L 355.181995 165.98382 
L 355.83898 148.917059 
L 356.495965 148.913232 
L 357.15295 146.478958 
L 357.809935 152.897715 
L 358.46692 155.729377 
L 359.123905 154.808512 
L 359.78089 162.510006 
L 360.437875 158.724601 
L 361.751845 140.909455 
L 362.40883 161.777332 
L 363.065815 143.69752 
L 363.7228 155.919745 
L 364.379785 151.120447 
L 365.03677 156.300992 
L 365.693755 165.290844 
L 367.007725 129.428386 
L 367.66471 154.794497 
L 368.321695 162.792932 
L 368.97868 155.995174 
L 369.635665 145.611931 
L 370.29265 158.650106 
L 370.949635 151.249904 
L 371.60662 150.619897 
L 372.263605 130.628642 
L 372.92059 172.620477 
L 373.577575 161.892497 
L 374.23456 174.085023 
L 374.891545 136.71389 
L 375.54853 154.470604 
L 376.205515 152.374494 
L 376.8625 170.4244 
L 377.519485 151.066475 
L 378.17647 148.725006 
L 378.833455 159.565934 
L 379.49044 156.387528 
L 380.147425 147.069616 
L 380.80441 177.564841 
L 381.461395 160.089866 
L 382.11838 152.264404 
L 382.775365 168.173835 
L 383.43235 165.887485 
L 384.089335 155.593156 
L 384.74632 181.177806 
L 385.403305 169.977698 
L 386.06029 170.644804 
L 386.717275 163.548932 
L 387.37426 165.521102 
L 388.031245 157.397571 
L 388.68823 154.009033 
L 389.345215 161.903684 
L 390.0022 165.432992 
L 390.659185 152.087487 
L 391.31617 161.948949 
L 391.973155 168.140668 
L 392.63014 157.958123 
L 393.287125 145.565826 
L 393.94411 168.376666 
L 394.601095 169.084553 
L 395.25808 171.806339 
L 395.915065 156.282006 
L 396.57205 166.413705 
L 397.229035 153.649154 
L 397.88602 170.431794 
L 398.543005 168.468551 
L 399.19999 161.530038 
L 399.856975 150.025709 
L 400.51396 172.318529 
L 401.170945 180.401379 
L 401.82793 158.155854 
L 402.484915 160.462302 
L 403.1419 161.265013 
L 403.798885 144.694294 
L 404.45587 170.595769 
L 405.112855 170.84431 
L 405.76984 179.26428 
L 406.426825 160.894572 
L 407.08381 161.56206 
L 407.740795 147.844033 
L 408.39778 149.830716 
L 409.054765 152.326475 
L 409.71175 163.468324 
L 410.368735 160.731895 
L 411.02572 171.389052 
L 411.682705 151.912232 
L 412.33969 187.865024 
L 412.996675 180.394615 
L 413.65366 184.092874 
L 414.310645 163.877297 
L 414.96763 171.954985 
L 415.624615 177.538851 
L 416.2816 178.542921 
L 416.938585 182.42715 
L 417.59557 200.412139 
L 418.252555 178.615446 
L 418.90954 180.295794 
L 419.566525 167.575506 
L 420.22351 165.502357 
L 420.880495 132.214239 
L 421.53748 157.105324 
L 422.194465 148.271163 
L 422.85145 148.350362 
L 423.508435 142.984349 
L 424.16542 145.20908 
L 424.822405 162.088783 
L 425.47939 151.994764 
L 426.136375 160.581069 
L 427.450345 171.186147 
L 428.10733 186.233178 
L 428.764315 169.656634 
L 429.4213 156.096131 
L 430.078285 164.937523 
L 430.73527 170.6344 
L 431.392255 153.119632 
L 432.04924 166.29904 
L 432.706225 152.31628 
L 433.36321 150.726794 
L 434.020195 171.505823 
L 434.67718 175.868357 
L 435.334165 152.418044 
L 435.99115 169.340427 
L 436.648135 157.994782 
L 437.30512 171.626833 
L 437.962105 169.173737 
L 438.61909 168.572877 
L 439.276075 176.638981 
L 439.93306 176.309605 
L 440.590045 163.878136 
L 441.24703 158.275822 
L 441.904015 173.861269 
L 442.561 180.823558 
L 443.217985 170.805562 
L 443.87497 170.515991 
L 444.531955 183.95639 
L 445.845925 159.757587 
L 446.50291 165.796669 
L 447.159895 167.512165 
L 447.81688 167.853443 
L 448.473865 155.511023 
L 449.13085 172.249213 
L 449.787835 173.898439 
L 450.44482 171.192851 
L 451.101805 170.341436 
L 451.75879 172.430631 
L 452.415775 195.205183 
L 453.07276 176.361456 
L 453.729745 174.910931 
L 454.38673 182.145905 
L 455.043715 167.867113 
L 455.7007 171.855071 
L 456.357685 195.153473 
L 457.01467 155.932058 
L 457.671655 172.42584 
L 458.32864 167.499365 
L 458.985625 179.639393 
L 459.64261 170.998649 
L 460.299595 149.947174 
L 460.95658 163.759221 
L 461.613565 167.493996 
L 462.27055 180.561049 
L 462.927535 167.929329 
L 463.58452 168.189987 
L 464.241505 169.822348 
L 464.89849 148.077709 
L 465.555475 164.671584 
L 466.21246 152.235537 
L 466.869445 156.327302 
L 467.52643 164.73193 
L 468.183415 158.259868 
L 468.8404 186.602323 
L 469.497385 186.839287 
L 470.811355 165.512423 
L 471.46834 160.77113 
L 472.125325 151.815195 
L 472.78231 166.054789 
L 473.439295 163.434473 
L 474.09628 160.18719 
L 474.753265 173.712621 
L 475.41025 192.428303 
L 476.067235 181.739029 
L 476.72422 173.445884 
L 477.381205 182.917462 
L 478.03819 173.378139 
L 478.695175 175.791244 
L 479.35216 175.689014 
L 480.009145 176.647728 
L 480.66613 196.195611 
L 481.323115 166.149759 
L 481.9801 173.265657 
L 482.637085 146.87354 
L 483.29407 172.718269 
L 483.951055 177.592605 
L 484.60804 184.573141 
L 485.265025 163.379263 
L 485.92201 171.760709 
L 486.578995 177.698805 
L 487.23598 159.315532 
L 487.892965 174.695184 
L 488.54995 184.944254 
L 489.206935 174.638007 
L 489.86392 174.009229 
L 490.520905 175.581676 
L 491.17789 173.267555 
L 491.834875 162.332424 
L 492.49186 149.536137 
L 493.148845 196.739684 
L 493.80583 172.543665 
L 494.462815 170.758452 
L 495.1198 185.756796 
L 495.776785 169.410549 
L 496.43377 185.133017 
L 497.090755 162.183698 
L 498.404725 191.970887 
L 499.06171 212.599431 
L 499.718695 146.765729 
L 501.032665 181.218798 
L 501.68965 183.288147 
L 502.346635 170.760314 
L 503.00362 173.808909 
L 504.31759 177.052805 
L 504.974575 169.430858 
L 505.63156 170.742144 
L 506.288545 186.401419 
L 506.94553 153.736013 
L 507.602515 154.471003 
L 508.2595 171.353637 
L 508.916485 168.610512 
L 509.57347 170.879224 
L 510.230455 155.158336 
L 510.88744 171.9798 
L 511.544425 179.864839 
L 512.20141 167.786577 
L 512.858395 173.03597 
L 513.51538 164.336302 
L 514.172365 175.538854 
L 514.82935 182.897218 
L 515.486335 152.580133 
L 516.14332 175.88839 
L 516.800305 168.939628 
L 517.45729 163.817208 
L 518.114275 171.279209 
L 518.77126 164.637571 
L 519.428245 165.204509 
L 520.08523 175.560251 
L 520.742215 175.879349 
L 521.3992 173.410496 
L 522.056185 155.265044 
L 522.71317 173.091617 
L 523.370155 166.700893 
L 524.02714 183.519448 
L 524.684125 178.816605 
L 525.34111 171.631333 
L 525.998095 182.043784 
L 526.65508 163.00043 
L 527.312065 160.314612 
L 527.96905 180.864931 
L 528.626035 195.728155 
L 529.28302 172.591595 
L 529.940005 176.749799 
L 530.59699 201.680211 
L 531.253975 162.487869 
L 531.91096 190.469016 
L 532.567945 165.881029 
L 533.22493 176.008422 
L 533.881915 176.054882 
L 534.5389 159.437619 
L 535.195885 174.242238 
L 535.85287 174.8642 
L 536.509855 170.705602 
L 537.16684 163.720272 
L 537.823825 179.453301 
L 538.48081 178.761216 
L 539.137795 176.421331 
L 539.79478 197.871742 
L 540.451765 181.305434 
L 541.10875 171.872731 
L 541.765735 171.207636 
L 542.42272 159.932177 
L 543.079705 180.907748 
L 543.73669 161.622268 
L 544.393675 170.817862 
L 545.05066 162.294149 
L 545.707645 174.620841 
L 546.36463 176.041113 
L 547.021615 174.067605 
L 547.6786 175.618676 
L 548.335585 186.695369 
L 548.99257 183.396738 
L 549.649555 181.200001 
L 550.30654 153.146817 
L 550.963525 175.856791 
L 551.62051 160.624819 
L 552.277495 151.369651 
L 552.93448 186.019856 
L 553.591465 170.499963 
L 554.24845 163.48759 
L 554.905435 177.691741 
L 555.56242 183.946696 
L 556.219405 168.326689 
L 556.87639 166.461306 
L 557.533375 176.501589 
L 558.19036 181.370619 
L 558.847345 181.483379 
L 559.50433 174.662462 
L 560.161315 187.014175 
L 560.8183 170.9123 
L 561.475285 176.320052 
L 562.13227 195.450999 
L 562.789255 175.908687 
L 563.44624 182.155929 
L 564.103225 149.167375 
L 564.76021 186.514538 
L 565.417195 168.41417 
L 566.07418 187.471407 
L 566.731165 178.485071 
L 567.38815 172.439425 
L 568.045135 174.85357 
L 568.70212 155.454579 
L 569.359105 191.318755 
L 570.01609 160.109865 
L 571.33006 176.107932 
L 571.987045 161.39879 
L 572.64403 174.324983 
L 573.301015 190.466298 
L 573.958 166.362053 
L 574.614985 176.650309 
L 575.27197 148.940711 
L 575.928955 163.972647 
L 576.58594 163.243521 
L 577.242925 168.883825 
L 577.89991 196.876751 
L 578.556895 190.203557 
L 579.21388 193.045491 
L 579.870865 191.820228 
L 580.52785 163.56058 
L 581.184835 182.7219 
L 581.84182 187.049977 
L 582.498805 178.445663 
L 583.15579 173.489427 
L 583.812775 194.066248 
L 584.46976 180.809432 
L 585.126745 175.320496 
L 585.78373 171.144098 
L 586.440715 164.72814 
L 587.0977 165.244382 
L 587.754685 176.597309 
L 588.41167 176.413761 
L 589.068655 163.245129 
L 589.72564 170.675758 
L 590.382625 165.776986 
L 591.03961 184.351262 
L 591.696595 174.57285 
L 592.35358 191.245497 
L 593.010565 190.652804 
L 593.66755 171.732637 
L 594.324535 175.713675 
L 594.98152 181.743091 
L 595.638505 184.818043 
L 596.29549 190.255992 
L 596.952475 169.467844 
L 597.60946 169.773194 
L 598.266445 176.001986 
L 598.92343 186.81406 
L 599.580415 175.750806 
L 600.2374 153.76766 
L 600.894385 173.902247 
L 601.55137 168.313876 
L 602.208355 149.072147 
L 602.86534 174.787892 
L 603.522325 185.61043 
L 604.17931 163.077023 
L 604.836295 153.81311 
L 606.80725 184.958729 
L 607.464235 193.201052 
L 608.12122 167.350409 
L 608.778205 195.052771 
L 609.43519 188.524644 
L 610.092175 150.962658 
L 610.74916 151.40082 
L 611.406145 172.44869 
L 612.06313 180.284889 
L 612.720115 167.167509 
L 613.3771 156.977368 
L 614.034085 156.965138 
L 614.69107 188.036898 
L 615.348055 180.303799 
L 616.00504 201.995009 
L 616.662025 157.802513 
L 617.31901 185.308441 
L 618.63298 154.918835 
L 619.289965 165.25716 
L 619.94695 186.076419 
L 620.603935 196.24279 
L 621.26092 178.769899 
L 621.917905 190.467239 
L 622.57489 173.261162 
L 623.231875 168.990915 
L 623.88886 177.728496 
L 624.545845 170.178219 
L 625.859815 190.344561 
L 626.5168 175.527984 
L 627.173785 169.431844 
L 627.83077 165.357129 
L 628.487755 180.476285 
L 629.801725 169.670706 
L 630.45871 190.503593 
L 631.115695 194.079204 
L 632.429665 167.271901 
L 633.08665 170.576901 
L 633.743635 192.208191 
L 634.40062 175.053699 
L 635.057605 180.731149 
L 635.71459 180.270957 
L 636.371575 182.325955 
L 637.02856 179.708989 
L 637.685545 180.048941 
L 638.34253 161.979395 
L 638.999515 187.629958 
L 639.6565 178.155144 
L 640.313485 186.635421 
L 640.97047 173.34738 
L 641.627455 183.892355 
L 642.28444 185.515595 
L 642.941425 172.749936 
L 643.59841 167.547127 
L 644.255395 175.418999 
L 644.91238 177.205102 
L 645.569365 170.798325 
L 646.22635 189.544966 
L 646.883335 180.552255 
L 647.54032 180.889912 
L 648.197305 172.411001 
L 648.85429 156.312693 
L 649.511275 156.772762 
L 650.16826 184.829214 
L 650.825245 172.833058 
L 651.48223 179.864496 
L 652.139215 180.699194 
L 652.7962 174.608808 
L 653.453185 179.063348 
L 654.11017 154.835503 
L 654.767155 162.732834 
L 655.42414 162.217447 
L 656.081125 174.608781 
L 656.73811 169.246222 
L 657.395095 168.78865 
L 658.05208 163.369375 
L 658.709065 173.27702 
L 659.36605 201.722534 
L 660.023035 197.663826 
L 660.68002 158.127944 
L 661.337005 161.903158 
L 661.99399 183.776068 
L 662.650975 170.186851 
L 663.30796 170.622703 
L 663.964945 171.711595 
L 664.62193 188.184635 
L 665.278915 160.335595 
L 666.592885 192.430483 
L 667.24987 178.449772 
L 667.906855 176.023719 
L 668.56384 174.829306 
L 669.220825 205.466623 
L 669.87781 181.618742 
L 670.534795 174.64037 
L 671.19178 184.578848 
L 671.848765 167.803434 
L 672.50575 173.893307 
L 673.162735 178.923465 
L 673.81972 195.900969 
L 675.790675 183.118707 
L 676.44766 157.714954 
L 677.104645 166.037821 
L 677.76163 185.638304 
L 678.418615 169.654826 
L 679.0756 194.38294 
L 679.732585 180.457558 
L 680.38957 194.427085 
L 681.046555 179.988266 
L 681.70354 181.159361 
L 682.360525 162.101542 
L 683.01751 150.842925 
L 684.33148 193.095017 
L 684.988465 188.710575 
L 685.64545 171.036921 
L 686.302435 172.124138 
L 686.95942 164.924822 
L 687.616405 159.546283 
L 688.27339 169.653956 
L 688.930375 176.893531 
L 689.58736 169.633562 
L 690.244345 176.25445 
L 690.90133 161.085509 
L 691.558315 184.908509 
L 692.2153 153.879352 
L 693.52927 172.260623 
L 694.186255 156.56836 
L 694.84324 195.526512 
L 695.500225 180.737747 
L 696.15721 187.679596 
L 696.814195 166.136126 
L 697.47118 178.100391 
L 698.128165 154.679773 
L 698.78515 162.696616 
L 699.442135 173.703453 
L 700.09912 179.943418 
L 700.756105 161.696095 
L 701.41309 168.202775 
L 702.070075 192.914612 
L 702.72706 169.419297 
L 703.384045 175.237013 
L 704.04103 169.625476 
L 704.698015 178.648352 
L 704.698015 178.648352 
" clip-path="url(#p4f15e9a811)" style="fill: none; stroke-dasharray: 5.55,2.4; stroke-dashoffset: 0; stroke: #ff7f0e; stroke-width: 1.5"/>
   </g>
   <g id="patch_3">
    <path d="M 48.37 398.84 
L 48.37 18.08 
" style="fill: none; stroke: #000000; stroke-width: 0.8; stroke-linejoin: miter; stroke-linecap: square"/>
   </g>
   <g id="patch_4">
    <path d="M 705.355 398.84 
L 705.355 18.08 
" style="fill: none; stroke: #000000; stroke-width: 0.8; stroke-linejoin: miter; stroke-linecap: square"/>
   </g>
   <g id="patch_5">
    <path d="M 48.37 398.84 
L 705.355 398.84 
" style="fill: none; stroke: #000000; stroke-width: 0.8; stroke-linejoin: miter; stroke-linecap: square"/>
   </g>
   <g id="patch_6">
    <path d="M 48.37 18.08 
L 705.355 18.08 
" style="fill: none; stroke: #000000; stroke-width: 0.8; stroke-linejoin: miter; stroke-linecap: square"/>
   </g>
   <g id="text_20">
    <!-- dPSO Evolution (Simulation #48) -->
    <g transform="translate(277.902812 12.08) scale(0.12 -0.12)">
     <defs>
      <path id="DejaVuSans-64" d="M 2906 2969 
L 2906 4863 
L 3481 4863 
L 3481 0 
L 2906 0 
L 2906 525 
Q 2725 213 2448 61 
Q 2172 -91 1784 -91 
Q 1150 -91 751 415 
Q 353 922 353 1747 
Q 353 2572 751 3078 
Q 1150 3584 1784 3584 
Q 2172 3584 2448 3432 
Q 2725 3281 2906 2969 
z
M 947 1747 
Q 947 1113 1208 752 
Q 1469 391 1925 391 
Q 2381 391 2643 752 
Q 2906 1113 2906 1747 
Q 2906 2381 2643 2742 
Q 2381 3103 1925 3103 
Q 1469 3103 1208 2742 
Q 947 2381 947 1747 
z
" transform="scale(0.015625)"/>
      <path id="DejaVuSans-50" d="M 1259 4147 
L 1259 2394 
L 2053 2394 
Q 2494 2394 2734 2622 
Q 2975 2850 2975 3272 
Q 2975 3691 2734 3919 
Q 2494 4147 2053 4147 
L 1259 4147 
z
M 628 4666 
L 2053 4666 
Q 2838 4666 3239 4311 
Q 3641 3956 3641 3272 
Q 3641 2581 3239 2228 
Q 2838 1875 2053 1875 
L 1259 1875 
L 1259 0 
L 628 0 
L 628 4666 
z
" transform="scale(0.015625)"/>
      <path id="DejaVuSans-53" d="M 3425 4513 
L 3425 3897 
Q 3066 4069 2747 4153 
Q 2428 4238 2131 4238 
Q 1616 4238 1336 4038 
Q 1056 3838 1056 3469 
Q 1056 3159 1242 3001 
Q 1428 2844 1947 2747 
L 2328 2669 
Q 3034 2534 3370 2195 
Q 3706 1856 3706 1288 
Q 3706 609 3251 259 
Q 2797 -91 1919 -91 
Q 1588 -91 1214 -16 
Q 841 59 441 206 
L 441 856 
Q 825 641 1194 531 
Q 1563 422 1919 422 
Q 2459 422 2753 634 
Q 3047 847 3047 1241 
Q 3047 1584 2836 1778 
Q 2625 1972 2144 2069 
L 1759 2144 
Q 1053 2284 737 2584 
Q 422 2884 422 3419 
Q 422 4038 858 4394 
Q 1294 4750 2059 4750 
Q 2388 4750 2728 4690 
Q 3069 4631 3425 4513 
z
" transform="scale(0.015625)"/>
      <path id="DejaVuSans-45" d="M 628 4666 
L 3578 4666 
L 3578 4134 
L 1259 4134 
L 1259 2753 
L 3481 2753 
L 3481 2222 
L 1259 2222 
L 1259 531 
L 3634 531 
L 3634 0 
L 628 0 
L 628 4666 
z
" transform="scale(0.015625)"/>
      <path id="DejaVuSans-28" d="M 1984 4856 
Q 1566 4138 1362 3434 
Q 1159 2731 1159 2009 
Q 1159 1288 1364 580 
Q 1569 -128 1984 -844 
L 1484 -844 
Q 1016 -109 783 600 
Q 550 1309 550 2009 
Q 550 2706 781 3412 
Q 1013 4119 1484 4856 
L 1984 4856 
z
" transform="scale(0.015625)"/>
      <path id="DejaVuSans-6d" d="M 3328 2828 
Q 3544 3216 3844 3400 
Q 4144 3584 4550 3584 
Q 5097 3584 5394 3201 
Q 5691 2819 5691 2113 
L 5691 0 
L 5113 0 
L 5113 2094 
Q 5113 2597 4934 2840 
Q 4756 3084 4391 3084 
Q 3944 3084 3684 2787 
Q 3425 2491 3425 1978 
L 3425 0 
L 2847 0 
L 2847 2094 
Q 2847 2600 2669 2842 
Q 2491 3084 2119 3084 
Q 1678 3084 1418 2786 
Q 1159 2488 1159 1978 
L 1159 0 
L 581 0 
L 581 3500 
L 1159 3500 
L 1159 2956 
Q 1356 3278 1631 3431 
Q 1906 3584 2284 3584 
Q 2666 3584 2933 3390 
Q 3200 3197 3328 2828 
z
" transform="scale(0.015625)"/>
      <path id="DejaVuSans-23" d="M 3272 2816 
L 2363 2816 
L 2100 1772 
L 3016 1772 
L 3272 2816 
z
M 2803 4594 
L 2478 3297 
L 3391 3297 
L 3719 4594 
L 4219 4594 
L 3897 3297 
L 4872 3297 
L 4872 2816 
L 3775 2816 
L 3519 1772 
L 4513 1772 
L 4513 1294 
L 3397 1294 
L 3072 0 
L 2572 0 
L 2894 1294 
L 1978 1294 
L 1656 0 
L 1153 0 
L 1478 1294 
L 494 1294 
L 494 1772 
L 1594 1772 
L 1856 2816 
L 850 2816 
L 850 3297 
L 1978 3297 
L 2297 4594 
L 2803 4594 
z
" transform="scale(0.015625)"/>
      <path id="DejaVuSans-29" d="M 513 4856 
L 1013 4856 
Q 1481 4119 1714 3412 
Q 1947 2706 1947 2009 
Q 1947 1309 1714 600 
Q 1481 -109 1013 -844 
L 513 -844 
Q 928 -128 1133 580 
Q 1338 1288 1338 2009 
Q 1338 2731 1133 3434 
Q 928 4138 513 4856 
z
" transform="scale(0.015625)"/>
     </defs>
     <use xlink:href="#DejaVuSans-64"/>
     <use xlink:href="#DejaVuSans-50" transform="translate(63.476562 0)"/>
     <use xlink:href="#DejaVuSans-53" transform="translate(123.779297 0)"/>
     <use xlink:href="#DejaVuSans-4f" transform="translate(187.255859 0)"/>
     <use xlink:href="#DejaVuSans-20" transform="translate(265.966797 0)"/>
     <use xlink:href="#DejaVuSans-45" transform="translate(297.753906 0)"/>
     <use xlink:href="#DejaVuSans-76" transform="translate(360.9375 0)"/>
     <use xlink:href="#DejaVuSans-6f" transform="translate(420.117188 0)"/>
     <use xlink:href="#DejaVuSans-6c" transform="translate(481.298828 0)"/>
     <use xlink:href="#DejaVuSans-75" transform="translate(509.082031 0)"/>
     <use xlink:href="#DejaVuSans-74" transform="translate(572.460938 0)"/>
     <use xlink:href="#DejaVuSans-69" transform="translate(611.669922 0)"/>
     <use xlink:href="#DejaVuSans-6f" transform="translate(639.453125 0)"/>
     <use xlink:href="#DejaVuSans-6e" transform="translate(700.634766 0)"/>
     <use xlink:href="#DejaVuSans-20" transform="translate(764.013672 0)"/>
     <use xlink:href="#DejaVuSans-28" transform="translate(795.800781 0)"/>
     <use xlink:href="#DejaVuSans-53" transform="translate(834.814453 0)"/>
     <use xlink:href="#DejaVuSans-69" transform="translate(898.291016 0)"/>
     <use xlink:href="#DejaVuSans-6d" transform="translate(926.074219 0)"/>
     <use xlink:href="#DejaVuSans-75" transform="translate(1023.486328 0)"/>
     <use xlink:href="#DejaVuSans-6c" transform="translate(1086.865234 0)"/>
     <use xlink:href="#DejaVuSans-61" transform="translate(1114.648438 0)"/>
     <use xlink:href="#DejaVuSans-74" transform="translate(1175.927734 0)"/>
     <use xlink:href="#DejaVuSans-69" transform="translate(1215.136719 0)"/>
     <use xlink:href="#DejaVuSans-6f" transform="translate(1242.919922 0)"/>
     <use xlink:href="#DejaVuSans-6e" transform="translate(1304.101562 0)"/>
     <use xlink:href="#DejaVuSans-20" transform="translate(1367.480469 0)"/>
     <use xlink:href="#DejaVuSans-23" transform="translate(1399.267578 0)"/>
     <use xlink:href="#DejaVuSans-34" transform="translate(1483.056641 0)"/>
     <use xlink:href="#DejaVuSans-38" transform="translate(1546.679688 0)"/>
     <use xlink:href="#DejaVuSans-29" transform="translate(1610.302734 0)"/>
    </g>
   </g>
   <g id="legend_1">
    <g id="patch_7">
     <path d="M 549.897187 55.43625 
L 698.355 55.43625 
Q 700.355 55.43625 700.355 53.43625 
L 700.355 25.08 
Q 700.355 23.08 698.355 23.08 
L 549.897187 23.08 
Q 547.897187 23.08 547.897187 25.08 
L 547.897187 53.43625 
Q 547.897187 55.43625 549.897187 55.43625 
z
" style="fill: #ffffff; opacity: 0.8; stroke: #cccccc; stroke-linejoin: miter"/>
    </g>
    <g id="line2d_37">
     <path d="M 551.897187 31.178437 
L 561.897187 31.178437 
L 561.897187 31.178437 
L 571.897187 31.178437 
L 571.897187 31.178437 
" style="fill: none; stroke: #1f77b4; stroke-width: 1.5; stroke-linecap: square"/>
    </g>
    <g id="text_21">
     <!-- Best Fitness (dPSO) -->
     <g transform="translate(579.897187 34.678437) scale(0.1 -0.1)">
      <defs>
       <path id="DejaVuSans-42" d="M 1259 2228 
L 1259 519 
L 2272 519 
Q 2781 519 3026 730 
Q 3272 941 3272 1375 
Q 3272 1813 3026 2020 
Q 2781 2228 2272 2228 
L 1259 2228 
z
M 1259 4147 
L 1259 2741 
L 2194 2741 
Q 2656 2741 2882 2914 
Q 3109 3088 3109 3444 
Q 3109 3797 2882 3972 
Q 2656 4147 2194 4147 
L 1259 4147 
z
M 628 4666 
L 2241 4666 
Q 2963 4666 3353 4366 
Q 3744 4066 3744 3513 
Q 3744 3084 3544 2831 
Q 3344 2578 2956 2516 
Q 3422 2416 3680 2098 
Q 3938 1781 3938 1306 
Q 3938 681 3513 340 
Q 3088 0 2303 0 
L 628 0 
L 628 4666 
z
" transform="scale(0.015625)"/>
       <path id="DejaVuSans-73" d="M 2834 3397 
L 2834 2853 
Q 2591 2978 2328 3040 
Q 2066 3103 1784 3103 
Q 1356 3103 1142 2972 
Q 928 2841 928 2578 
Q 928 2378 1081 2264 
Q 1234 2150 1697 2047 
L 1894 2003 
Q 2506 1872 2764 1633 
Q 3022 1394 3022 966 
Q 3022 478 2636 193 
Q 2250 -91 1575 -91 
Q 1294 -91 989 -36 
Q 684 19 347 128 
L 347 722 
Q 666 556 975 473 
Q 1284 391 1588 391 
Q 1994 391 2212 530 
Q 2431 669 2431 922 
Q 2431 1156 2273 1281 
Q 2116 1406 1581 1522 
L 1381 1569 
Q 847 1681 609 1914 
Q 372 2147 372 2553 
Q 372 3047 722 3315 
Q 1072 3584 1716 3584 
Q 2034 3584 2315 3537 
Q 2597 3491 2834 3397 
z
" transform="scale(0.015625)"/>
       <path id="DejaVuSans-46" d="M 628 4666 
L 3309 4666 
L 3309 4134 
L 1259 4134 
L 1259 2759 
L 3109 2759 
L 3109 2228 
L 1259 2228 
L 1259 0 
L 628 0 
L 628 4666 
z
" transform="scale(0.015625)"/>
      </defs>
      <use xlink:href="#DejaVuSans-42"/>
      <use xlink:href="#DejaVuSans-65" transform="translate(68.603516 0)"/>
      <use xlink:href="#DejaVuSans-73" transform="translate(130.126953 0)"/>
      <use xlink:href="#DejaVuSans-74" transform="translate(182.226562 0)"/>
      <use xlink:href="#DejaVuSans-20" transform="translate(221.435547 0)"/>
      <use xlink:href="#DejaVuSans-46" transform="translate(253.222656 0)"/>
      <use xlink:href="#DejaVuSans-69" transform="translate(303.492188 0)"/>
      <use xlink:href="#DejaVuSans-74" transform="translate(331.275391 0)"/>
      <use xlink:href="#DejaVuSans-6e" transform="translate(370.484375 0)"/>
      <use xlink:href="#DejaVuSans-65" transform="translate(433.863281 0)"/>
      <use xlink:href="#DejaVuSans-73" transform="translate(495.386719 0)"/>
      <use xlink:href="#DejaVuSans-73" transform="translate(547.486328 0)"/>
      <use xlink:href="#DejaVuSans-20" transform="translate(599.585938 0)"/>
      <use xlink:href="#DejaVuSans-28" transform="translate(631.373047 0)"/>
      <use xlink:href="#DejaVuSans-64" transform="translate(670.386719 0)"/>
      <use xlink:href="#DejaVuSans-50" transform="translate(733.863281 0)"/>
      <use xlink:href="#DejaVuSans-53" transform="translate(794.166016 0)"/>
      <use xlink:href="#DejaVuSans-4f" transform="translate(857.642578 0)"/>
      <use xlink:href="#DejaVuSans-29" transform="translate(936.353516 0)"/>
     </g>
    </g>
    <g id="line2d_38">
     <path d="M 551.897187 45.856562 
L 561.897187 45.856562 
L 571.897187 45.856562 
" style="fill: none; stroke-dasharray: 5.55,2.4; stroke-dashoffset: 0; stroke: #ff7f0e; stroke-width: 1.5"/>
    </g>
    <g id="text_22">
     <!-- Average Fitness (dPSO) -->
     <g transform="translate(579.897187 49.356562) scale(0.1 -0.1)">
      <defs>
       <path id="DejaVuSans-41" d="M 2188 4044 
L 1331 1722 
L 3047 1722 
L 2188 4044 
z
M 1831 4666 
L 2547 4666 
L 4325 0 
L 3669 0 
L 3244 1197 
L 1141 1197 
L 716 0 
L 50 0 
L 1831 4666 
z
" transform="scale(0.015625)"/>
       <path id="DejaVuSans-67" d="M 2906 1791 
Q 2906 2416 2648 2759 
Q 2391 3103 1925 3103 
Q 1463 3103 1205 2759 
Q 947 2416 947 1791 
Q 947 1169 1205 825 
Q 1463 481 1925 481 
Q 2391 481 2648 825 
Q 2906 1169 2906 1791 
z
M 3481 434 
Q 3481 -459 3084 -895 
Q 2688 -1331 1869 -1331 
Q 1566 -1331 1297 -1286 
Q 1028 -1241 775 -1147 
L 775 -588 
Q 1028 -725 1275 -790 
Q 1522 -856 1778 -856 
Q 2344 -856 2625 -561 
Q 2906 -266 2906 331 
L 2906 616 
Q 2728 306 2450 153 
Q 2172 0 1784 0 
Q 1141 0 747 490 
Q 353 981 353 1791 
Q 353 2603 747 3093 
Q 1141 3584 1784 3584 
Q 2172 3584 2450 3431 
Q 2728 3278 2906 2969 
L 2906 3500 
L 3481 3500 
L 3481 434 
z
" transform="scale(0.015625)"/>
      </defs>
      <use xlink:href="#DejaVuSans-41"/>
      <use xlink:href="#DejaVuSans-76" transform="translate(62.533203 0)"/>
      <use xlink:href="#DejaVuSans-65" transform="translate(121.712891 0)"/>
      <use xlink:href="#DejaVuSans-72" transform="translate(183.236328 0)"/>
      <use xlink:href="#DejaVuSans-61" transform="translate(224.349609 0)"/>
      <use xlink:href="#DejaVuSans-67" transform="translate(285.628906 0)"/>
      <use xlink:href="#DejaVuSans-65" transform="translate(349.105469 0)"/>
      <use xlink:href="#DejaVuSans-20" transform="translate(410.628906 0)"/>
      <use xlink:href="#DejaVuSans-46" transform="translate(442.416016 0)"/>
      <use xlink:href="#DejaVuSans-69" transform="translate(492.685547 0)"/>
      <use xlink:href="#DejaVuSans-74" transform="translate(520.46875 0)"/>
      <use xlink:href="#DejaVuSans-6e" transform="translate(559.677734 0)"/>
      <use xlink:href="#DejaVuSans-65" transform="translate(623.056641 0)"/>
      <use xlink:href="#DejaVuSans-73" transform="translate(684.580078 0)"/>
      <use xlink:href="#DejaVuSans-73" transform="translate(736.679688 0)"/>
      <use xlink:href="#DejaVuSans-20" transform="translate(788.779297 0)"/>
      <use xlink:href="#DejaVuSans-28" transform="translate(820.566406 0)"/>
      <use xlink:href="#DejaVuSans-64" transform="translate(859.580078 0)"/>
      <use xlink:href="#DejaVuSans-50" transform="translate(923.056641 0)"/>
      <use xlink:href="#DejaVuSans-53" transform="translate(983.359375 0)"/>
      <use xlink:href="#DejaVuSans-4f" transform="translate(1046.835938 0)"/>
      <use xlink:href="#DejaVuSans-29" transform="translate(1125.546875 0)"/>
     </g>
    </g>
   </g>
  </g>
 </g>
 <defs>
  <clipPath id="p4f15e9a811">
   <rect x="48.37" y="18.08" width="656.985" height="380.76"/>
  </clipPath>
 </defs>
</svg>
