<?xml version="1.0" encoding="utf-8" standalone="no"?>
<!DOCTYPE svg PUBLIC "-//W3C//DTD SVG 1.1//EN"
  "http://www.w3.org/Graphics/SVG/1.1/DTD/svg11.dtd">
<svg xmlns:xlink="http://www.w3.org/1999/xlink" width="720pt" height="432pt" viewBox="0 0 720 432" xmlns="http://www.w3.org/2000/svg" version="1.1">
 <metadata>
  <rdf:RDF xmlns:dc="http://purl.org/dc/elements/1.1/" xmlns:cc="http://creativecommons.org/ns#" xmlns:rdf="http://www.w3.org/1999/02/22-rdf-syntax-ns#">
   <cc:Work>
    <dc:type rdf:resource="http://purl.org/dc/dcmitype/StillImage"/>
    <dc:date>2025-11-25T21:18:46.881443</dc:date>
    <dc:format>image/svg+xml</dc:format>
    <dc:creator>
     <cc:Agent>
      <dc:title>Matplotlib v3.10.6, https://matplotlib.org/</dc:title>
     </cc:Agent>
    </dc:creator>
   </cc:Work>
  </rdf:RDF>
 </metadata>
 <defs>
  <style type="text/css">*{stroke-linejoin: round; stroke-linecap: butt}</style>
 </defs>
 <g id="figure_1">
  <g id="patch_1">
   <path d="M 0 432 
L 720 432 
L 720 0 
L 0 0 
z
" style="fill: #ffffff"/>
  </g>
  <g id="axes_1">
   <g id="patch_2">
    <path d="M 48.37 398.84 
L 705.355 398.84 
L 705.355 18.08 
L 48.37 18.08 
z
" style="fill: #ffffff"/>
   </g>
   <g id="matplotlib.axis_1">
    <g id="xtick_1">
     <g id="line2d_1">
      <path d="M 48.37 398.84 
L 48.37 18.08 
" clip-path="url(#p155a3f689b)" style="fill: none; stroke-dasharray: 0.8,1.32; stroke-dashoffset: 0; stroke: #b0b0b0; stroke-opacity: 0.7; stroke-width: 0.8"/>
     </g>
     <g id="line2d_2">
      <defs>
       <path id="m7b1fd191ca" d="M 0 0 
L 0 3.5 
" style="stroke: #000000; stroke-width: 0.8"/>
      </defs>
      <g>
       <use xlink:href="#m7b1fd191ca" x="48.37" y="398.84" style="stroke: #000000; stroke-width: 0.8"/>
      </g>
     </g>
     <g id="text_1">
      <!-- 0 -->
      <g transform="translate(45.18875 413.438437) scale(0.1 -0.1)">
       <defs>
        <path id="DejaVuSans-30" d="M 2034 4250 
Q 1547 4250 1301 3770 
Q 1056 3291 1056 2328 
Q 1056 1369 1301 889 
Q 1547 409 2034 409 
Q 2525 409 2770 889 
Q 3016 1369 3016 2328 
Q 3016 3291 2770 3770 
Q 2525 4250 2034 4250 
z
M 2034 4750 
Q 2819 4750 3233 4129 
Q 3647 3509 3647 2328 
Q 3647 1150 3233 529 
Q 2819 -91 2034 -91 
Q 1250 -91 836 529 
Q 422 1150 422 2328 
Q 422 3509 836 4129 
Q 1250 4750 2034 4750 
z
" transform="scale(0.015625)"/>
       </defs>
       <use xlink:href="#DejaVuSans-30"/>
      </g>
     </g>
    </g>
    <g id="xtick_2">
     <g id="line2d_3">
      <path d="M 114.0685 398.84 
L 114.0685 18.08 
" clip-path="url(#p155a3f689b)" style="fill: none; stroke-dasharray: 0.8,1.32; stroke-dashoffset: 0; stroke: #b0b0b0; stroke-opacity: 0.7; stroke-width: 0.8"/>
     </g>
     <g id="line2d_4">
      <g>
       <use xlink:href="#m7b1fd191ca" x="114.0685" y="398.84" style="stroke: #000000; stroke-width: 0.8"/>
      </g>
     </g>
     <g id="text_2">
      <!-- 100 -->
      <g transform="translate(104.52475 413.438437) scale(0.1 -0.1)">
       <defs>
        <path id="DejaVuSans-31" d="M 794 531 
L 1825 531 
L 1825 4091 
L 703 3866 
L 703 4441 
L 1819 4666 
L 2450 4666 
L 2450 531 
L 3481 531 
L 3481 0 
L 794 0 
L 794 531 
z
" transform="scale(0.015625)"/>
       </defs>
       <use xlink:href="#DejaVuSans-31"/>
       <use xlink:href="#DejaVuSans-30" transform="translate(63.623047 0)"/>
       <use xlink:href="#DejaVuSans-30" transform="translate(127.246094 0)"/>
      </g>
     </g>
    </g>
    <g id="xtick_3">
     <g id="line2d_5">
      <path d="M 179.767 398.84 
L 179.767 18.08 
" clip-path="url(#p155a3f689b)" style="fill: none; stroke-dasharray: 0.8,1.32; stroke-dashoffset: 0; stroke: #b0b0b0; stroke-opacity: 0.7; stroke-width: 0.8"/>
     </g>
     <g id="line2d_6">
      <g>
       <use xlink:href="#m7b1fd191ca" x="179.767" y="398.84" style="stroke: #000000; stroke-width: 0.8"/>
      </g>
     </g>
     <g id="text_3">
      <!-- 200 -->
      <g transform="translate(170.22325 413.438437) scale(0.1 -0.1)">
       <defs>
        <path id="DejaVuSans-32" d="M 1228 531 
L 3431 531 
L 3431 0 
L 469 0 
L 469 531 
Q 828 903 1448 1529 
Q 2069 2156 2228 2338 
Q 2531 2678 2651 2914 
Q 2772 3150 2772 3378 
Q 2772 3750 2511 3984 
Q 2250 4219 1831 4219 
Q 1534 4219 1204 4116 
Q 875 4013 500 3803 
L 500 4441 
Q 881 4594 1212 4672 
Q 1544 4750 1819 4750 
Q 2544 4750 2975 4387 
Q 3406 4025 3406 3419 
Q 3406 3131 3298 2873 
Q 3191 2616 2906 2266 
Q 2828 2175 2409 1742 
Q 1991 1309 1228 531 
z
" transform="scale(0.015625)"/>
       </defs>
       <use xlink:href="#DejaVuSans-32"/>
       <use xlink:href="#DejaVuSans-30" transform="translate(63.623047 0)"/>
       <use xlink:href="#DejaVuSans-30" transform="translate(127.246094 0)"/>
      </g>
     </g>
    </g>
    <g id="xtick_4">
     <g id="line2d_7">
      <path d="M 245.4655 398.84 
L 245.4655 18.08 
" clip-path="url(#p155a3f689b)" style="fill: none; stroke-dasharray: 0.8,1.32; stroke-dashoffset: 0; stroke: #b0b0b0; stroke-opacity: 0.7; stroke-width: 0.8"/>
     </g>
     <g id="line2d_8">
      <g>
       <use xlink:href="#m7b1fd191ca" x="245.4655" y="398.84" style="stroke: #000000; stroke-width: 0.8"/>
      </g>
     </g>
     <g id="text_4">
      <!-- 300 -->
      <g transform="translate(235.92175 413.438437) scale(0.1 -0.1)">
       <defs>
        <path id="DejaVuSans-33" d="M 2597 2516 
Q 3050 2419 3304 2112 
Q 3559 1806 3559 1356 
Q 3559 666 3084 287 
Q 2609 -91 1734 -91 
Q 1441 -91 1130 -33 
Q 819 25 488 141 
L 488 750 
Q 750 597 1062 519 
Q 1375 441 1716 441 
Q 2309 441 2620 675 
Q 2931 909 2931 1356 
Q 2931 1769 2642 2001 
Q 2353 2234 1838 2234 
L 1294 2234 
L 1294 2753 
L 1863 2753 
Q 2328 2753 2575 2939 
Q 2822 3125 2822 3475 
Q 2822 3834 2567 4026 
Q 2313 4219 1838 4219 
Q 1578 4219 1281 4162 
Q 984 4106 628 3988 
L 628 4550 
Q 988 4650 1302 4700 
Q 1616 4750 1894 4750 
Q 2613 4750 3031 4423 
Q 3450 4097 3450 3541 
Q 3450 3153 3228 2886 
Q 3006 2619 2597 2516 
z
" transform="scale(0.015625)"/>
       </defs>
       <use xlink:href="#DejaVuSans-33"/>
       <use xlink:href="#DejaVuSans-30" transform="translate(63.623047 0)"/>
       <use xlink:href="#DejaVuSans-30" transform="translate(127.246094 0)"/>
      </g>
     </g>
    </g>
    <g id="xtick_5">
     <g id="line2d_9">
      <path d="M 311.164 398.84 
L 311.164 18.08 
" clip-path="url(#p155a3f689b)" style="fill: none; stroke-dasharray: 0.8,1.32; stroke-dashoffset: 0; stroke: #b0b0b0; stroke-opacity: 0.7; stroke-width: 0.8"/>
     </g>
     <g id="line2d_10">
      <g>
       <use xlink:href="#m7b1fd191ca" x="311.164" y="398.84" style="stroke: #000000; stroke-width: 0.8"/>
      </g>
     </g>
     <g id="text_5">
      <!-- 400 -->
      <g transform="translate(301.62025 413.438437) scale(0.1 -0.1)">
       <defs>
        <path id="DejaVuSans-34" d="M 2419 4116 
L 825 1625 
L 2419 1625 
L 2419 4116 
z
M 2253 4666 
L 3047 4666 
L 3047 1625 
L 3713 1625 
L 3713 1100 
L 3047 1100 
L 3047 0 
L 2419 0 
L 2419 1100 
L 313 1100 
L 313 1709 
L 2253 4666 
z
" transform="scale(0.015625)"/>
       </defs>
       <use xlink:href="#DejaVuSans-34"/>
       <use xlink:href="#DejaVuSans-30" transform="translate(63.623047 0)"/>
       <use xlink:href="#DejaVuSans-30" transform="translate(127.246094 0)"/>
      </g>
     </g>
    </g>
    <g id="xtick_6">
     <g id="line2d_11">
      <path d="M 376.8625 398.84 
L 376.8625 18.08 
" clip-path="url(#p155a3f689b)" style="fill: none; stroke-dasharray: 0.8,1.32; stroke-dashoffset: 0; stroke: #b0b0b0; stroke-opacity: 0.7; stroke-width: 0.8"/>
     </g>
     <g id="line2d_12">
      <g>
       <use xlink:href="#m7b1fd191ca" x="376.8625" y="398.84" style="stroke: #000000; stroke-width: 0.8"/>
      </g>
     </g>
     <g id="text_6">
      <!-- 500 -->
      <g transform="translate(367.31875 413.438437) scale(0.1 -0.1)">
       <defs>
        <path id="DejaVuSans-35" d="M 691 4666 
L 3169 4666 
L 3169 4134 
L 1269 4134 
L 1269 2991 
Q 1406 3038 1543 3061 
Q 1681 3084 1819 3084 
Q 2600 3084 3056 2656 
Q 3513 2228 3513 1497 
Q 3513 744 3044 326 
Q 2575 -91 1722 -91 
Q 1428 -91 1123 -41 
Q 819 9 494 109 
L 494 744 
Q 775 591 1075 516 
Q 1375 441 1709 441 
Q 2250 441 2565 725 
Q 2881 1009 2881 1497 
Q 2881 1984 2565 2268 
Q 2250 2553 1709 2553 
Q 1456 2553 1204 2497 
Q 953 2441 691 2322 
L 691 4666 
z
" transform="scale(0.015625)"/>
       </defs>
       <use xlink:href="#DejaVuSans-35"/>
       <use xlink:href="#DejaVuSans-30" transform="translate(63.623047 0)"/>
       <use xlink:href="#DejaVuSans-30" transform="translate(127.246094 0)"/>
      </g>
     </g>
    </g>
    <g id="xtick_7">
     <g id="line2d_13">
      <path d="M 442.561 398.84 
L 442.561 18.08 
" clip-path="url(#p155a3f689b)" style="fill: none; stroke-dasharray: 0.8,1.32; stroke-dashoffset: 0; stroke: #b0b0b0; stroke-opacity: 0.7; stroke-width: 0.8"/>
     </g>
     <g id="line2d_14">
      <g>
       <use xlink:href="#m7b1fd191ca" x="442.561" y="398.84" style="stroke: #000000; stroke-width: 0.8"/>
      </g>
     </g>
     <g id="text_7">
      <!-- 600 -->
      <g transform="translate(433.01725 413.438437) scale(0.1 -0.1)">
       <defs>
        <path id="DejaVuSans-36" d="M 2113 2584 
Q 1688 2584 1439 2293 
Q 1191 2003 1191 1497 
Q 1191 994 1439 701 
Q 1688 409 2113 409 
Q 2538 409 2786 701 
Q 3034 994 3034 1497 
Q 3034 2003 2786 2293 
Q 2538 2584 2113 2584 
z
M 3366 4563 
L 3366 3988 
Q 3128 4100 2886 4159 
Q 2644 4219 2406 4219 
Q 1781 4219 1451 3797 
Q 1122 3375 1075 2522 
Q 1259 2794 1537 2939 
Q 1816 3084 2150 3084 
Q 2853 3084 3261 2657 
Q 3669 2231 3669 1497 
Q 3669 778 3244 343 
Q 2819 -91 2113 -91 
Q 1303 -91 875 529 
Q 447 1150 447 2328 
Q 447 3434 972 4092 
Q 1497 4750 2381 4750 
Q 2619 4750 2861 4703 
Q 3103 4656 3366 4563 
z
" transform="scale(0.015625)"/>
       </defs>
       <use xlink:href="#DejaVuSans-36"/>
       <use xlink:href="#DejaVuSans-30" transform="translate(63.623047 0)"/>
       <use xlink:href="#DejaVuSans-30" transform="translate(127.246094 0)"/>
      </g>
     </g>
    </g>
    <g id="xtick_8">
     <g id="line2d_15">
      <path d="M 508.2595 398.84 
L 508.2595 18.08 
" clip-path="url(#p155a3f689b)" style="fill: none; stroke-dasharray: 0.8,1.32; stroke-dashoffset: 0; stroke: #b0b0b0; stroke-opacity: 0.7; stroke-width: 0.8"/>
     </g>
     <g id="line2d_16">
      <g>
       <use xlink:href="#m7b1fd191ca" x="508.2595" y="398.84" style="stroke: #000000; stroke-width: 0.8"/>
      </g>
     </g>
     <g id="text_8">
      <!-- 700 -->
      <g transform="translate(498.71575 413.438437) scale(0.1 -0.1)">
       <defs>
        <path id="DejaVuSans-37" d="M 525 4666 
L 3525 4666 
L 3525 4397 
L 1831 0 
L 1172 0 
L 2766 4134 
L 525 4134 
L 525 4666 
z
" transform="scale(0.015625)"/>
       </defs>
       <use xlink:href="#DejaVuSans-37"/>
       <use xlink:href="#DejaVuSans-30" transform="translate(63.623047 0)"/>
       <use xlink:href="#DejaVuSans-30" transform="translate(127.246094 0)"/>
      </g>
     </g>
    </g>
    <g id="xtick_9">
     <g id="line2d_17">
      <path d="M 573.958 398.84 
L 573.958 18.08 
" clip-path="url(#p155a3f689b)" style="fill: none; stroke-dasharray: 0.8,1.32; stroke-dashoffset: 0; stroke: #b0b0b0; stroke-opacity: 0.7; stroke-width: 0.8"/>
     </g>
     <g id="line2d_18">
      <g>
       <use xlink:href="#m7b1fd191ca" x="573.958" y="398.84" style="stroke: #000000; stroke-width: 0.8"/>
      </g>
     </g>
     <g id="text_9">
      <!-- 800 -->
      <g transform="translate(564.41425 413.438437) scale(0.1 -0.1)">
       <defs>
        <path id="DejaVuSans-38" d="M 2034 2216 
Q 1584 2216 1326 1975 
Q 1069 1734 1069 1313 
Q 1069 891 1326 650 
Q 1584 409 2034 409 
Q 2484 409 2743 651 
Q 3003 894 3003 1313 
Q 3003 1734 2745 1975 
Q 2488 2216 2034 2216 
z
M 1403 2484 
Q 997 2584 770 2862 
Q 544 3141 544 3541 
Q 544 4100 942 4425 
Q 1341 4750 2034 4750 
Q 2731 4750 3128 4425 
Q 3525 4100 3525 3541 
Q 3525 3141 3298 2862 
Q 3072 2584 2669 2484 
Q 3125 2378 3379 2068 
Q 3634 1759 3634 1313 
Q 3634 634 3220 271 
Q 2806 -91 2034 -91 
Q 1263 -91 848 271 
Q 434 634 434 1313 
Q 434 1759 690 2068 
Q 947 2378 1403 2484 
z
M 1172 3481 
Q 1172 3119 1398 2916 
Q 1625 2713 2034 2713 
Q 2441 2713 2670 2916 
Q 2900 3119 2900 3481 
Q 2900 3844 2670 4047 
Q 2441 4250 2034 4250 
Q 1625 4250 1398 4047 
Q 1172 3844 1172 3481 
z
" transform="scale(0.015625)"/>
       </defs>
       <use xlink:href="#DejaVuSans-38"/>
       <use xlink:href="#DejaVuSans-30" transform="translate(63.623047 0)"/>
       <use xlink:href="#DejaVuSans-30" transform="translate(127.246094 0)"/>
      </g>
     </g>
    </g>
    <g id="xtick_10">
     <g id="line2d_19">
      <path d="M 639.6565 398.84 
L 639.6565 18.08 
" clip-path="url(#p155a3f689b)" style="fill: none; stroke-dasharray: 0.8,1.32; stroke-dashoffset: 0; stroke: #b0b0b0; stroke-opacity: 0.7; stroke-width: 0.8"/>
     </g>
     <g id="line2d_20">
      <g>
       <use xlink:href="#m7b1fd191ca" x="639.6565" y="398.84" style="stroke: #000000; stroke-width: 0.8"/>
      </g>
     </g>
     <g id="text_10">
      <!-- 900 -->
      <g transform="translate(630.11275 413.438437) scale(0.1 -0.1)">
       <defs>
        <path id="DejaVuSans-39" d="M 703 97 
L 703 672 
Q 941 559 1184 500 
Q 1428 441 1663 441 
Q 2288 441 2617 861 
Q 2947 1281 2994 2138 
Q 2813 1869 2534 1725 
Q 2256 1581 1919 1581 
Q 1219 1581 811 2004 
Q 403 2428 403 3163 
Q 403 3881 828 4315 
Q 1253 4750 1959 4750 
Q 2769 4750 3195 4129 
Q 3622 3509 3622 2328 
Q 3622 1225 3098 567 
Q 2575 -91 1691 -91 
Q 1453 -91 1209 -44 
Q 966 3 703 97 
z
M 1959 2075 
Q 2384 2075 2632 2365 
Q 2881 2656 2881 3163 
Q 2881 3666 2632 3958 
Q 2384 4250 1959 4250 
Q 1534 4250 1286 3958 
Q 1038 3666 1038 3163 
Q 1038 2656 1286 2365 
Q 1534 2075 1959 2075 
z
" transform="scale(0.015625)"/>
       </defs>
       <use xlink:href="#DejaVuSans-39"/>
       <use xlink:href="#DejaVuSans-30" transform="translate(63.623047 0)"/>
       <use xlink:href="#DejaVuSans-30" transform="translate(127.246094 0)"/>
      </g>
     </g>
    </g>
    <g id="xtick_11">
     <g id="line2d_21">
      <path d="M 705.355 398.84 
L 705.355 18.08 
" clip-path="url(#p155a3f689b)" style="fill: none; stroke-dasharray: 0.8,1.32; stroke-dashoffset: 0; stroke: #b0b0b0; stroke-opacity: 0.7; stroke-width: 0.8"/>
     </g>
     <g id="line2d_22">
      <g>
       <use xlink:href="#m7b1fd191ca" x="705.355" y="398.84" style="stroke: #000000; stroke-width: 0.8"/>
      </g>
     </g>
     <g id="text_11">
      <!-- 1000 -->
      <g transform="translate(692.63 413.438437) scale(0.1 -0.1)">
       <use xlink:href="#DejaVuSans-31"/>
       <use xlink:href="#DejaVuSans-30" transform="translate(63.623047 0)"/>
       <use xlink:href="#DejaVuSans-30" transform="translate(127.246094 0)"/>
       <use xlink:href="#DejaVuSans-30" transform="translate(190.869141 0)"/>
      </g>
     </g>
    </g>
    <g id="text_12">
     <!-- Iteration / Generation -->
     <g transform="translate(322.898438 427.116562) scale(0.1 -0.1)">
      <defs>
       <path id="DejaVuSans-49" d="M 628 4666 
L 1259 4666 
L 1259 0 
L 628 0 
L 628 4666 
z
" transform="scale(0.015625)"/>
       <path id="DejaVuSans-74" d="M 1172 4494 
L 1172 3500 
L 2356 3500 
L 2356 3053 
L 1172 3053 
L 1172 1153 
Q 1172 725 1289 603 
Q 1406 481 1766 481 
L 2356 481 
L 2356 0 
L 1766 0 
Q 1100 0 847 248 
Q 594 497 594 1153 
L 594 3053 
L 172 3053 
L 172 3500 
L 594 3500 
L 594 4494 
L 1172 4494 
z
" transform="scale(0.015625)"/>
       <path id="DejaVuSans-65" d="M 3597 1894 
L 3597 1613 
L 953 1613 
Q 991 1019 1311 708 
Q 1631 397 2203 397 
Q 2534 397 2845 478 
Q 3156 559 3463 722 
L 3463 178 
Q 3153 47 2828 -22 
Q 2503 -91 2169 -91 
Q 1331 -91 842 396 
Q 353 884 353 1716 
Q 353 2575 817 3079 
Q 1281 3584 2069 3584 
Q 2775 3584 3186 3129 
Q 3597 2675 3597 1894 
z
M 3022 2063 
Q 3016 2534 2758 2815 
Q 2500 3097 2075 3097 
Q 1594 3097 1305 2825 
Q 1016 2553 972 2059 
L 3022 2063 
z
" transform="scale(0.015625)"/>
       <path id="DejaVuSans-72" d="M 2631 2963 
Q 2534 3019 2420 3045 
Q 2306 3072 2169 3072 
Q 1681 3072 1420 2755 
Q 1159 2438 1159 1844 
L 1159 0 
L 581 0 
L 581 3500 
L 1159 3500 
L 1159 2956 
Q 1341 3275 1631 3429 
Q 1922 3584 2338 3584 
Q 2397 3584 2469 3576 
Q 2541 3569 2628 3553 
L 2631 2963 
z
" transform="scale(0.015625)"/>
       <path id="DejaVuSans-61" d="M 2194 1759 
Q 1497 1759 1228 1600 
Q 959 1441 959 1056 
Q 959 750 1161 570 
Q 1363 391 1709 391 
Q 2188 391 2477 730 
Q 2766 1069 2766 1631 
L 2766 1759 
L 2194 1759 
z
M 3341 1997 
L 3341 0 
L 2766 0 
L 2766 531 
Q 2569 213 2275 61 
Q 1981 -91 1556 -91 
Q 1019 -91 701 211 
Q 384 513 384 1019 
Q 384 1609 779 1909 
Q 1175 2209 1959 2209 
L 2766 2209 
L 2766 2266 
Q 2766 2663 2505 2880 
Q 2244 3097 1772 3097 
Q 1472 3097 1187 3025 
Q 903 2953 641 2809 
L 641 3341 
Q 956 3463 1253 3523 
Q 1550 3584 1831 3584 
Q 2591 3584 2966 3190 
Q 3341 2797 3341 1997 
z
" transform="scale(0.015625)"/>
       <path id="DejaVuSans-69" d="M 603 3500 
L 1178 3500 
L 1178 0 
L 603 0 
L 603 3500 
z
M 603 4863 
L 1178 4863 
L 1178 4134 
L 603 4134 
L 603 4863 
z
" transform="scale(0.015625)"/>
       <path id="DejaVuSans-6f" d="M 1959 3097 
Q 1497 3097 1228 2736 
Q 959 2375 959 1747 
Q 959 1119 1226 758 
Q 1494 397 1959 397 
Q 2419 397 2687 759 
Q 2956 1122 2956 1747 
Q 2956 2369 2687 2733 
Q 2419 3097 1959 3097 
z
M 1959 3584 
Q 2709 3584 3137 3096 
Q 3566 2609 3566 1747 
Q 3566 888 3137 398 
Q 2709 -91 1959 -91 
Q 1206 -91 779 398 
Q 353 888 353 1747 
Q 353 2609 779 3096 
Q 1206 3584 1959 3584 
z
" transform="scale(0.015625)"/>
       <path id="DejaVuSans-6e" d="M 3513 2113 
L 3513 0 
L 2938 0 
L 2938 2094 
Q 2938 2591 2744 2837 
Q 2550 3084 2163 3084 
Q 1697 3084 1428 2787 
Q 1159 2491 1159 1978 
L 1159 0 
L 581 0 
L 581 3500 
L 1159 3500 
L 1159 2956 
Q 1366 3272 1645 3428 
Q 1925 3584 2291 3584 
Q 2894 3584 3203 3211 
Q 3513 2838 3513 2113 
z
" transform="scale(0.015625)"/>
       <path id="DejaVuSans-20" transform="scale(0.015625)"/>
       <path id="DejaVuSans-2f" d="M 1625 4666 
L 2156 4666 
L 531 -594 
L 0 -594 
L 1625 4666 
z
" transform="scale(0.015625)"/>
       <path id="DejaVuSans-47" d="M 3809 666 
L 3809 1919 
L 2778 1919 
L 2778 2438 
L 4434 2438 
L 4434 434 
Q 4069 175 3628 42 
Q 3188 -91 2688 -91 
Q 1594 -91 976 548 
Q 359 1188 359 2328 
Q 359 3472 976 4111 
Q 1594 4750 2688 4750 
Q 3144 4750 3555 4637 
Q 3966 4525 4313 4306 
L 4313 3634 
Q 3963 3931 3569 4081 
Q 3175 4231 2741 4231 
Q 1884 4231 1454 3753 
Q 1025 3275 1025 2328 
Q 1025 1384 1454 906 
Q 1884 428 2741 428 
Q 3075 428 3337 486 
Q 3600 544 3809 666 
z
" transform="scale(0.015625)"/>
      </defs>
      <use xlink:href="#DejaVuSans-49"/>
      <use xlink:href="#DejaVuSans-74" transform="translate(29.492188 0)"/>
      <use xlink:href="#DejaVuSans-65" transform="translate(68.701172 0)"/>
      <use xlink:href="#DejaVuSans-72" transform="translate(130.224609 0)"/>
      <use xlink:href="#DejaVuSans-61" transform="translate(171.337891 0)"/>
      <use xlink:href="#DejaVuSans-74" transform="translate(232.617188 0)"/>
      <use xlink:href="#DejaVuSans-69" transform="translate(271.826172 0)"/>
      <use xlink:href="#DejaVuSans-6f" transform="translate(299.609375 0)"/>
      <use xlink:href="#DejaVuSans-6e" transform="translate(360.791016 0)"/>
      <use xlink:href="#DejaVuSans-20" transform="translate(424.169922 0)"/>
      <use xlink:href="#DejaVuSans-2f" transform="translate(455.957031 0)"/>
      <use xlink:href="#DejaVuSans-20" transform="translate(489.648438 0)"/>
      <use xlink:href="#DejaVuSans-47" transform="translate(521.435547 0)"/>
      <use xlink:href="#DejaVuSans-65" transform="translate(598.925781 0)"/>
      <use xlink:href="#DejaVuSans-6e" transform="translate(660.449219 0)"/>
      <use xlink:href="#DejaVuSans-65" transform="translate(723.828125 0)"/>
      <use xlink:href="#DejaVuSans-72" transform="translate(785.351562 0)"/>
      <use xlink:href="#DejaVuSans-61" transform="translate(826.464844 0)"/>
      <use xlink:href="#DejaVuSans-74" transform="translate(887.744141 0)"/>
      <use xlink:href="#DejaVuSans-69" transform="translate(926.953125 0)"/>
      <use xlink:href="#DejaVuSans-6f" transform="translate(954.736328 0)"/>
      <use xlink:href="#DejaVuSans-6e" transform="translate(1015.917969 0)"/>
     </g>
    </g>
   </g>
   <g id="matplotlib.axis_2">
    <g id="ytick_1">
     <g id="line2d_23">
      <path d="M 48.37 353.672428 
L 705.355 353.672428 
" clip-path="url(#p155a3f689b)" style="fill: none; stroke-dasharray: 0.8,1.32; stroke-dashoffset: 0; stroke: #b0b0b0; stroke-opacity: 0.7; stroke-width: 0.8"/>
     </g>
     <g id="line2d_24">
      <defs>
       <path id="m3a105849ca" d="M 0 0 
L -3.5 0 
" style="stroke: #000000; stroke-width: 0.8"/>
      </defs>
      <g>
       <use xlink:href="#m3a105849ca" x="48.37" y="353.672428" style="stroke: #000000; stroke-width: 0.8"/>
      </g>
     </g>
     <g id="text_13">
      <!-- 1500 -->
      <g transform="translate(15.92 357.471647) scale(0.1 -0.1)">
       <use xlink:href="#DejaVuSans-31"/>
       <use xlink:href="#DejaVuSans-35" transform="translate(63.623047 0)"/>
       <use xlink:href="#DejaVuSans-30" transform="translate(127.246094 0)"/>
       <use xlink:href="#DejaVuSans-30" transform="translate(190.869141 0)"/>
      </g>
     </g>
    </g>
    <g id="ytick_2">
     <g id="line2d_25">
      <path d="M 48.37 277.622193 
L 705.355 277.622193 
" clip-path="url(#p155a3f689b)" style="fill: none; stroke-dasharray: 0.8,1.32; stroke-dashoffset: 0; stroke: #b0b0b0; stroke-opacity: 0.7; stroke-width: 0.8"/>
     </g>
     <g id="line2d_26">
      <g>
       <use xlink:href="#m3a105849ca" x="48.37" y="277.622193" style="stroke: #000000; stroke-width: 0.8"/>
      </g>
     </g>
     <g id="text_14">
      <!-- 2000 -->
      <g transform="translate(15.92 281.421411) scale(0.1 -0.1)">
       <use xlink:href="#DejaVuSans-32"/>
       <use xlink:href="#DejaVuSans-30" transform="translate(63.623047 0)"/>
       <use xlink:href="#DejaVuSans-30" transform="translate(127.246094 0)"/>
       <use xlink:href="#DejaVuSans-30" transform="translate(190.869141 0)"/>
      </g>
     </g>
    </g>
    <g id="ytick_3">
     <g id="line2d_27">
      <path d="M 48.37 201.571957 
L 705.355 201.571957 
" clip-path="url(#p155a3f689b)" style="fill: none; stroke-dasharray: 0.8,1.32; stroke-dashoffset: 0; stroke: #b0b0b0; stroke-opacity: 0.7; stroke-width: 0.8"/>
     </g>
     <g id="line2d_28">
      <g>
       <use xlink:href="#m3a105849ca" x="48.37" y="201.571957" style="stroke: #000000; stroke-width: 0.8"/>
      </g>
     </g>
     <g id="text_15">
      <!-- 2500 -->
      <g transform="translate(15.92 205.371176) scale(0.1 -0.1)">
       <use xlink:href="#DejaVuSans-32"/>
       <use xlink:href="#DejaVuSans-35" transform="translate(63.623047 0)"/>
       <use xlink:href="#DejaVuSans-30" transform="translate(127.246094 0)"/>
       <use xlink:href="#DejaVuSans-30" transform="translate(190.869141 0)"/>
      </g>
     </g>
    </g>
    <g id="ytick_4">
     <g id="line2d_29">
      <path d="M 48.37 125.521721 
L 705.355 125.521721 
" clip-path="url(#p155a3f689b)" style="fill: none; stroke-dasharray: 0.8,1.32; stroke-dashoffset: 0; stroke: #b0b0b0; stroke-opacity: 0.7; stroke-width: 0.8"/>
     </g>
     <g id="line2d_30">
      <g>
       <use xlink:href="#m3a105849ca" x="48.37" y="125.521721" style="stroke: #000000; stroke-width: 0.8"/>
      </g>
     </g>
     <g id="text_16">
      <!-- 3000 -->
      <g transform="translate(15.92 129.32094) scale(0.1 -0.1)">
       <use xlink:href="#DejaVuSans-33"/>
       <use xlink:href="#DejaVuSans-30" transform="translate(63.623047 0)"/>
       <use xlink:href="#DejaVuSans-30" transform="translate(127.246094 0)"/>
       <use xlink:href="#DejaVuSans-30" transform="translate(190.869141 0)"/>
      </g>
     </g>
    </g>
    <g id="ytick_5">
     <g id="line2d_31">
      <path d="M 48.37 49.471485 
L 705.355 49.471485 
" clip-path="url(#p155a3f689b)" style="fill: none; stroke-dasharray: 0.8,1.32; stroke-dashoffset: 0; stroke: #b0b0b0; stroke-opacity: 0.7; stroke-width: 0.8"/>
     </g>
     <g id="line2d_32">
      <g>
       <use xlink:href="#m3a105849ca" x="48.37" y="49.471485" style="stroke: #000000; stroke-width: 0.8"/>
      </g>
     </g>
     <g id="text_17">
      <!-- 3500 -->
      <g transform="translate(15.92 53.270704) scale(0.1 -0.1)">
       <use xlink:href="#DejaVuSans-33"/>
       <use xlink:href="#DejaVuSans-35" transform="translate(63.623047 0)"/>
       <use xlink:href="#DejaVuSans-30" transform="translate(127.246094 0)"/>
       <use xlink:href="#DejaVuSans-30" transform="translate(190.869141 0)"/>
      </g>
     </g>
    </g>
    <g id="text_18">
     <!-- Objective Value -->
     <g transform="translate(9.840312 247.490469) rotate(-90) scale(0.1 -0.1)">
      <defs>
       <path id="DejaVuSans-4f" d="M 2522 4238 
Q 1834 4238 1429 3725 
Q 1025 3213 1025 2328 
Q 1025 1447 1429 934 
Q 1834 422 2522 422 
Q 3209 422 3611 934 
Q 4013 1447 4013 2328 
Q 4013 3213 3611 3725 
Q 3209 4238 2522 4238 
z
M 2522 4750 
Q 3503 4750 4090 4092 
Q 4678 3434 4678 2328 
Q 4678 1225 4090 567 
Q 3503 -91 2522 -91 
Q 1538 -91 948 565 
Q 359 1222 359 2328 
Q 359 3434 948 4092 
Q 1538 4750 2522 4750 
z
" transform="scale(0.015625)"/>
       <path id="DejaVuSans-62" d="M 3116 1747 
Q 3116 2381 2855 2742 
Q 2594 3103 2138 3103 
Q 1681 3103 1420 2742 
Q 1159 2381 1159 1747 
Q 1159 1113 1420 752 
Q 1681 391 2138 391 
Q 2594 391 2855 752 
Q 3116 1113 3116 1747 
z
M 1159 2969 
Q 1341 3281 1617 3432 
Q 1894 3584 2278 3584 
Q 2916 3584 3314 3078 
Q 3713 2572 3713 1747 
Q 3713 922 3314 415 
Q 2916 -91 2278 -91 
Q 1894 -91 1617 61 
Q 1341 213 1159 525 
L 1159 0 
L 581 0 
L 581 4863 
L 1159 4863 
L 1159 2969 
z
" transform="scale(0.015625)"/>
       <path id="DejaVuSans-6a" d="M 603 3500 
L 1178 3500 
L 1178 -63 
Q 1178 -731 923 -1031 
Q 669 -1331 103 -1331 
L -116 -1331 
L -116 -844 
L 38 -844 
Q 366 -844 484 -692 
Q 603 -541 603 -63 
L 603 3500 
z
M 603 4863 
L 1178 4863 
L 1178 4134 
L 603 4134 
L 603 4863 
z
" transform="scale(0.015625)"/>
       <path id="DejaVuSans-63" d="M 3122 3366 
L 3122 2828 
Q 2878 2963 2633 3030 
Q 2388 3097 2138 3097 
Q 1578 3097 1268 2742 
Q 959 2388 959 1747 
Q 959 1106 1268 751 
Q 1578 397 2138 397 
Q 2388 397 2633 464 
Q 2878 531 3122 666 
L 3122 134 
Q 2881 22 2623 -34 
Q 2366 -91 2075 -91 
Q 1284 -91 818 406 
Q 353 903 353 1747 
Q 353 2603 823 3093 
Q 1294 3584 2113 3584 
Q 2378 3584 2631 3529 
Q 2884 3475 3122 3366 
z
" transform="scale(0.015625)"/>
       <path id="DejaVuSans-76" d="M 191 3500 
L 800 3500 
L 1894 563 
L 2988 3500 
L 3597 3500 
L 2284 0 
L 1503 0 
L 191 3500 
z
" transform="scale(0.015625)"/>
       <path id="DejaVuSans-56" d="M 1831 0 
L 50 4666 
L 709 4666 
L 2188 738 
L 3669 4666 
L 4325 4666 
L 2547 0 
L 1831 0 
z
" transform="scale(0.015625)"/>
       <path id="DejaVuSans-6c" d="M 603 4863 
L 1178 4863 
L 1178 0 
L 603 0 
L 603 4863 
z
" transform="scale(0.015625)"/>
       <path id="DejaVuSans-75" d="M 544 1381 
L 544 3500 
L 1119 3500 
L 1119 1403 
Q 1119 906 1312 657 
Q 1506 409 1894 409 
Q 2359 409 2629 706 
Q 2900 1003 2900 1516 
L 2900 3500 
L 3475 3500 
L 3475 0 
L 2900 0 
L 2900 538 
Q 2691 219 2414 64 
Q 2138 -91 1772 -91 
Q 1169 -91 856 284 
Q 544 659 544 1381 
z
M 1991 3584 
L 1991 3584 
z
" transform="scale(0.015625)"/>
      </defs>
      <use xlink:href="#DejaVuSans-4f"/>
      <use xlink:href="#DejaVuSans-62" transform="translate(78.710938 0)"/>
      <use xlink:href="#DejaVuSans-6a" transform="translate(142.1875 0)"/>
      <use xlink:href="#DejaVuSans-65" transform="translate(169.970703 0)"/>
      <use xlink:href="#DejaVuSans-63" transform="translate(231.494141 0)"/>
      <use xlink:href="#DejaVuSans-74" transform="translate(286.474609 0)"/>
      <use xlink:href="#DejaVuSans-69" transform="translate(325.683594 0)"/>
      <use xlink:href="#DejaVuSans-76" transform="translate(353.466797 0)"/>
      <use xlink:href="#DejaVuSans-65" transform="translate(412.646484 0)"/>
      <use xlink:href="#DejaVuSans-20" transform="translate(474.169922 0)"/>
      <use xlink:href="#DejaVuSans-56" transform="translate(505.957031 0)"/>
      <use xlink:href="#DejaVuSans-61" transform="translate(566.615234 0)"/>
      <use xlink:href="#DejaVuSans-6c" transform="translate(627.894531 0)"/>
      <use xlink:href="#DejaVuSans-75" transform="translate(655.677734 0)"/>
      <use xlink:href="#DejaVuSans-65" transform="translate(719.056641 0)"/>
     </g>
    </g>
   </g>
   <g id="line2d_33">
    <path d="M 48.37 265.628371 
L 52.31191 265.628371 
L 52.31191 270.951132 
L 52.968895 270.951132 
L 52.968895 285.560114 
L 61.5097 285.560114 
L 61.5097 310.047558 
L 69.39352 310.047558 
L 69.39352 323.231209 
L 89.760055 323.231209 
L 89.760055 324.328804 
L 91.73101 324.328804 
L 91.73101 329.216916 
L 113.411515 329.216916 
L 113.411515 340.165065 
L 171.88318 340.165065 
L 171.88318 348.539281 
L 210.645295 348.539281 
L 210.645295 351.749471 
L 217.87213 351.749471 
L 217.87213 367.11 
L 704.698015 367.11 
L 704.698015 367.11 
" clip-path="url(#p155a3f689b)" style="fill: none; stroke: #1f77b4; stroke-width: 1.5; stroke-linecap: square"/>
   </g>
   <g id="line2d_34">
    <path d="M 48.37 128.005961 
L 49.026985 75.093886 
L 49.68397 105.862471 
L 50.340955 67.341469 
L 50.99794 58.878303 
L 51.654925 84.47834 
L 52.31191 93.556071 
L 52.968895 62.305691 
L 53.62588 73.871931 
L 54.282865 76.983068 
L 54.93985 89.072125 
L 55.596835 80.938162 
L 56.25382 86.6097 
L 56.910805 63.890641 
L 57.56779 75.250808 
L 58.224775 79.832129 
L 58.88176 80.935244 
L 59.538745 82.626722 
L 60.19573 49.81 
L 60.852715 89.339847 
L 61.5097 100.00832 
L 62.166685 93.46814 
L 62.82367 112.590062 
L 63.480655 102.444998 
L 64.13764 85.027135 
L 64.794625 100.452621 
L 65.45161 75.332471 
L 66.108595 94.408018 
L 66.76558 95.982361 
L 67.422565 98.637713 
L 68.07955 117.396375 
L 68.736535 97.136182 
L 70.050505 133.910968 
L 70.70749 136.097624 
L 71.364475 134.821677 
L 72.02146 132.333861 
L 72.678445 104.359824 
L 73.33543 114.372402 
L 74.6494 156.43129 
L 75.306385 131.0279 
L 75.96337 130.569666 
L 76.620355 120.516497 
L 77.27734 137.107634 
L 77.934325 143.823136 
L 78.59131 122.137352 
L 79.248295 108.209153 
L 79.90528 149.60573 
L 80.562265 149.984342 
L 81.21925 141.521824 
L 81.876235 143.102375 
L 82.53322 150.806727 
L 83.190205 134.574721 
L 83.84719 157.157579 
L 84.504175 148.127486 
L 85.16116 165.338715 
L 85.818145 158.624673 
L 86.47513 147.680149 
L 87.132115 139.060173 
L 87.7891 141.182287 
L 88.446085 152.087887 
L 89.10307 180.246857 
L 89.760055 177.09873 
L 90.41704 171.256745 
L 91.074025 175.870975 
L 91.73101 168.502226 
L 92.387995 155.343915 
L 93.04498 160.046077 
L 93.701965 148.756626 
L 94.35895 146.108125 
L 95.015935 153.65312 
L 95.67292 176.363742 
L 96.329905 157.058441 
L 96.98689 181.770526 
L 97.643875 175.114335 
L 98.30086 160.669697 
L 98.957845 164.296824 
L 99.61483 162.421704 
L 100.271815 163.878204 
L 100.9288 156.733537 
L 101.585785 155.279778 
L 102.24277 150.032184 
L 102.899755 170.16388 
L 103.55674 174.078409 
L 104.213725 175.93005 
L 104.87071 174.773295 
L 105.527695 166.48701 
L 106.18468 175.338725 
L 106.841665 172.776631 
L 107.49865 157.072042 
L 108.155635 176.100431 
L 108.81262 162.784462 
L 109.469605 176.075425 
L 110.12659 159.098653 
L 110.783575 174.075445 
L 111.44056 173.438835 
L 112.097545 160.753614 
L 112.75453 139.166943 
L 113.411515 148.103724 
L 114.0685 164.402474 
L 114.725485 160.092444 
L 115.38247 147.461839 
L 116.039455 142.522066 
L 116.69644 155.284932 
L 117.353425 156.586715 
L 118.01041 151.458077 
L 118.667395 140.791608 
L 119.32438 161.335014 
L 119.981365 166.375052 
L 120.63835 153.231762 
L 121.295335 132.197174 
L 121.95232 174.702495 
L 122.609305 153.240207 
L 123.26629 141.049149 
L 123.923275 153.78502 
L 124.58026 164.13171 
L 125.237245 156.527232 
L 125.89423 163.630622 
L 126.551215 151.701607 
L 127.2082 168.021421 
L 127.865185 177.679006 
L 128.52217 150.370202 
L 129.179155 169.779358 
L 129.83614 177.754057 
L 130.493125 192.257442 
L 131.15011 170.123913 
L 131.807095 160.810814 
L 132.46408 188.97655 
L 133.121065 150.886245 
L 133.77805 147.411331 
L 134.435035 139.090004 
L 135.09202 154.748876 
L 135.749005 154.924326 
L 136.40599 160.992721 
L 137.062975 142.060263 
L 137.71996 160.137903 
L 138.376945 158.071998 
L 139.03393 166.879648 
L 139.690915 174.166698 
L 140.3479 151.530139 
L 141.004885 139.313998 
L 141.66187 172.624429 
L 142.318855 152.49964 
L 142.97584 167.237806 
L 143.632825 145.246404 
L 144.28981 166.550106 
L 144.946795 169.129484 
L 145.60378 142.823464 
L 146.260765 148.872654 
L 146.91775 171.055351 
L 147.574735 165.961255 
L 148.23172 137.494436 
L 148.888705 164.402439 
L 149.54569 158.175051 
L 150.202675 171.115053 
L 150.85966 164.233548 
L 151.516645 149.057637 
L 152.17363 151.817858 
L 152.830615 180.554291 
L 153.4876 163.015636 
L 154.144585 162.535023 
L 154.80157 145.375191 
L 155.458555 184.185856 
L 156.11554 152.125582 
L 156.772525 156.161121 
L 157.42951 170.849458 
L 158.086495 152.195057 
L 158.74348 162.72221 
L 159.400465 169.029622 
L 160.05745 154.032496 
L 160.714435 179.148349 
L 161.37142 172.197806 
L 162.028405 172.305782 
L 162.68539 184.226151 
L 163.342375 167.450041 
L 163.99936 174.672632 
L 164.656345 147.505697 
L 165.31333 153.202367 
L 165.970315 177.147791 
L 166.6273 148.357501 
L 167.284285 137.790162 
L 167.94127 145.293034 
L 168.598255 179.056438 
L 169.25524 148.429182 
L 169.912225 151.48598 
L 170.56921 141.000484 
L 171.226195 153.099349 
L 171.88318 187.884811 
L 172.540165 163.603427 
L 173.19715 175.789579 
L 173.854135 180.940131 
L 174.51112 177.90998 
L 175.168105 186.599377 
L 175.82509 180.161153 
L 176.482075 194.060714 
L 177.13906 203.748927 
L 177.796045 182.445243 
L 178.45303 181.353158 
L 179.110015 184.904501 
L 179.767 184.743903 
L 180.423985 192.125162 
L 181.08097 183.468522 
L 181.737955 200.006763 
L 182.39494 181.343383 
L 183.051925 176.92859 
L 183.70891 205.204996 
L 184.365895 204.86079 
L 185.02288 190.345753 
L 185.679865 190.970197 
L 186.33685 171.140732 
L 186.993835 180.863355 
L 187.65082 174.746586 
L 188.307805 185.86188 
L 188.96479 192.371188 
L 189.621775 177.580226 
L 190.27876 177.65487 
L 190.935745 187.583329 
L 191.59273 175.596198 
L 192.249715 166.484256 
L 192.9067 181.251082 
L 193.563685 187.120679 
L 194.22067 183.057376 
L 194.877655 183.58628 
L 195.53464 173.637414 
L 196.191625 186.848962 
L 196.84861 176.672756 
L 197.505595 177.039986 
L 198.16258 170.645621 
L 198.819565 172.626945 
L 199.47655 191.923157 
L 200.133535 201.496787 
L 200.79052 194.765604 
L 201.447505 179.454359 
L 202.10449 204.520649 
L 202.761475 186.858307 
L 203.41846 183.860172 
L 204.075445 198.082288 
L 204.73243 202.574925 
L 205.389415 189.533344 
L 206.0464 186.396692 
L 206.703385 185.395058 
L 207.36037 185.142204 
L 208.017355 179.904264 
L 208.67434 202.015757 
L 209.331325 194.710362 
L 209.98831 192.866371 
L 210.645295 206.39419 
L 211.30228 193.913599 
L 211.959265 192.527635 
L 212.61625 201.921936 
L 213.273235 205.502418 
L 213.93022 190.750501 
L 214.587205 187.376204 
L 215.24419 203.471707 
L 216.55816 182.052073 
L 217.215145 207.54865 
L 217.87213 182.558185 
L 218.529115 192.258998 
L 219.1861 191.792823 
L 219.843085 187.802846 
L 220.50007 192.787422 
L 221.157055 176.324781 
L 221.81404 194.729009 
L 222.471025 181.327399 
L 223.12801 184.158491 
L 223.784995 178.247593 
L 224.44198 175.508391 
L 225.098965 183.120141 
L 225.75595 179.079905 
L 226.412935 186.762665 
L 227.06992 198.379892 
L 227.726905 190.168112 
L 228.38389 193.768759 
L 229.040875 220.513221 
L 229.69786 198.58947 
L 230.354845 196.742501 
L 231.01183 192.786591 
L 231.668815 185.425589 
L 232.3258 184.017616 
L 232.982785 178.378819 
L 233.63977 158.312816 
L 234.296755 173.311348 
L 234.95374 195.873818 
L 235.610725 197.187754 
L 236.26771 190.291406 
L 236.924695 190.582837 
L 237.58168 183.735412 
L 238.238665 197.67974 
L 238.89565 168.263881 
L 239.552635 188.63267 
L 240.20962 169.559876 
L 240.866605 182.947494 
L 241.52359 187.121631 
L 242.180575 169.668175 
L 242.83756 194.677206 
L 243.494545 187.939391 
L 244.15153 186.115825 
L 244.808515 203.689652 
L 245.4655 206.798887 
L 246.122485 222.06816 
L 246.77947 187.21142 
L 247.436455 183.965752 
L 248.09344 196.641702 
L 248.750425 178.104902 
L 249.40741 195.89648 
L 250.064395 175.050277 
L 250.72138 200.902491 
L 251.378365 197.110445 
L 252.03535 194.160081 
L 252.692335 188.689528 
L 253.34932 188.904653 
L 254.006305 177.865261 
L 254.66329 198.559989 
L 255.320275 205.20072 
L 255.97726 197.781019 
L 256.634245 177.715134 
L 257.29123 181.05972 
L 257.948215 197.943285 
L 259.262185 204.282476 
L 259.91917 213.433884 
L 260.576155 201.358239 
L 261.23314 211.357936 
L 261.890125 205.270837 
L 262.54711 196.374486 
L 263.204095 200.098242 
L 263.86108 194.664786 
L 264.518065 194.867524 
L 265.17505 206.598231 
L 265.832035 188.603313 
L 266.48902 189.604431 
L 267.146005 187.018927 
L 268.459975 216.461311 
L 269.11696 199.023168 
L 269.773945 202.18558 
L 270.43093 191.681437 
L 271.087915 173.909779 
L 271.7449 214.679363 
L 273.05887 184.92924 
L 273.715855 188.216899 
L 274.37284 182.846875 
L 275.029825 190.443239 
L 275.68681 199.3854 
L 276.343795 194.075754 
L 277.00078 192.790848 
L 277.657765 172.12545 
L 278.31475 188.044783 
L 278.971735 174.142343 
L 279.62872 195.664179 
L 280.285705 200.874556 
L 280.94269 195.605915 
L 281.599675 204.525992 
L 282.25666 206.237849 
L 282.913645 195.318344 
L 283.57063 203.833192 
L 284.227615 174.993028 
L 284.8846 201.670127 
L 285.541585 202.772609 
L 286.19857 177.498692 
L 286.855555 201.538189 
L 287.51254 198.381626 
L 288.169525 200.759404 
L 288.82651 191.17009 
L 289.483495 196.076711 
L 290.14048 192.355484 
L 290.797465 219.519013 
L 291.45445 215.566839 
L 292.111435 198.164416 
L 292.76842 198.505536 
L 293.425405 211.326894 
L 294.08239 187.036519 
L 294.739375 191.298825 
L 295.39636 205.047614 
L 296.053345 211.122639 
L 296.71033 205.046893 
L 297.367315 201.607355 
L 298.0243 199.252761 
L 298.681285 192.022878 
L 299.33827 195.31467 
L 299.995255 194.496919 
L 300.65224 190.022378 
L 301.309225 213.860464 
L 301.96621 198.60994 
L 302.623195 198.440301 
L 303.28018 211.828394 
L 303.937165 183.772718 
L 304.59415 185.978738 
L 305.251135 179.54181 
L 305.90812 185.217285 
L 306.565105 172.068373 
L 307.22209 196.010816 
L 307.879075 207.226794 
L 308.53606 205.332007 
L 309.193045 198.331825 
L 309.85003 198.863943 
L 310.507015 202.087722 
L 311.164 189.065696 
L 311.820985 200.564832 
L 312.47797 182.58065 
L 313.134955 199.8126 
L 313.79194 204.187149 
L 314.448925 196.62844 
L 315.10591 199.804027 
L 315.762895 177.831397 
L 316.41988 207.845824 
L 317.076865 183.63063 
L 317.73385 192.727564 
L 318.390835 196.189219 
L 319.04782 191.559608 
L 320.36179 210.659661 
L 321.018775 203.560743 
L 321.67576 189.631991 
L 322.332745 192.873471 
L 322.98973 204.801931 
L 323.646715 196.396968 
L 324.3037 218.459471 
L 324.960685 196.691072 
L 325.61767 187.675283 
L 326.274655 189.501795 
L 326.93164 192.331811 
L 328.24561 212.822913 
L 328.902595 201.937967 
L 329.55958 201.819986 
L 330.216565 210.012988 
L 330.87355 190.168057 
L 331.530535 201.92936 
L 332.18752 209.915509 
L 332.844505 201.26634 
L 333.50149 201.006768 
L 334.158475 203.059824 
L 334.81546 191.770402 
L 335.472445 193.440159 
L 336.12943 194.080499 
L 336.786415 212.558961 
L 337.4434 204.050466 
L 338.75737 220.907073 
L 339.414355 206.269387 
L 340.07134 202.490154 
L 340.728325 205.907053 
L 341.38531 212.704989 
L 342.042295 212.505188 
L 342.69928 195.031165 
L 343.356265 203.223897 
L 344.670235 184.64279 
L 345.32722 206.3302 
L 345.984205 195.984068 
L 346.64119 198.278052 
L 347.298175 209.697021 
L 347.95516 204.067783 
L 348.612145 207.120246 
L 349.26913 205.084924 
L 349.926115 209.663533 
L 350.5831 197.067214 
L 351.240085 198.324449 
L 351.89707 197.819411 
L 352.554055 213.536981 
L 353.21104 208.138702 
L 353.868025 204.943321 
L 354.52501 214.401814 
L 355.181995 203.706236 
L 355.83898 184.863591 
L 356.495965 191.523743 
L 357.15295 208.98736 
L 357.809935 204.033492 
L 358.46692 204.274617 
L 359.123905 199.628885 
L 359.78089 191.295111 
L 360.437875 200.696832 
L 361.09486 178.364961 
L 361.751845 201.081496 
L 362.40883 192.081271 
L 363.065815 195.260555 
L 363.7228 205.436639 
L 364.379785 205.118991 
L 365.03677 209.633697 
L 365.693755 196.213301 
L 366.35074 186.477559 
L 367.007725 197.820201 
L 368.321695 192.07803 
L 368.97868 214.145062 
L 369.635665 200.095608 
L 370.29265 210.997087 
L 370.949635 201.088483 
L 371.60662 201.083386 
L 372.263605 198.657062 
L 372.92059 203.78159 
L 373.577575 206.566646 
L 374.23456 211.57591 
L 374.891545 207.873753 
L 375.54853 203.239286 
L 376.205515 192.970538 
L 376.8625 206.282533 
L 377.519485 194.742918 
L 378.17647 204.054491 
L 378.833455 199.825948 
L 379.49044 223.251129 
L 380.147425 209.8312 
L 380.80441 220.373777 
L 381.461395 214.480751 
L 382.11838 198.69906 
L 382.775365 207.720851 
L 383.43235 196.872663 
L 384.089335 204.60794 
L 384.74632 203.28796 
L 385.403305 198.418069 
L 386.06029 204.757908 
L 386.717275 225.996832 
L 387.37426 202.65956 
L 388.031245 198.911671 
L 388.68823 204.024116 
L 389.345215 193.311904 
L 390.0022 207.235371 
L 390.659185 189.726792 
L 391.31617 196.260268 
L 391.973155 192.438716 
L 392.63014 203.007491 
L 393.287125 203.171383 
L 393.94411 210.817029 
L 395.25808 205.881769 
L 395.915065 213.02845 
L 396.57205 208.168501 
L 397.229035 195.544117 
L 397.88602 207.997329 
L 398.543005 205.865637 
L 399.19999 211.004095 
L 399.856975 204.73477 
L 400.51396 230.437025 
L 401.170945 224.975331 
L 401.82793 216.237146 
L 402.484915 204.659702 
L 403.1419 190.0607 
L 403.798885 208.081963 
L 404.45587 209.913238 
L 405.112855 209.282756 
L 405.76984 211.338398 
L 406.426825 217.454094 
L 407.08381 235.914637 
L 407.740795 207.938458 
L 408.39778 221.328647 
L 409.054765 198.528658 
L 409.71175 216.246231 
L 410.368735 201.691765 
L 411.02572 218.45549 
L 411.682705 218.470679 
L 412.33969 200.880489 
L 412.996675 201.531039 
L 413.65366 210.810872 
L 414.310645 207.878534 
L 414.96763 236.311678 
L 415.624615 207.034039 
L 416.2816 206.169348 
L 416.938585 218.161232 
L 417.59557 217.119931 
L 418.252555 215.127143 
L 418.90954 218.180234 
L 419.566525 206.137607 
L 420.22351 205.720606 
L 420.880495 220.05578 
L 421.53748 197.578889 
L 422.194465 203.419047 
L 422.85145 203.409258 
L 423.508435 189.789088 
L 424.16542 193.501513 
L 424.822405 204.058928 
L 425.47939 217.536947 
L 426.136375 219.296155 
L 426.79336 237.329431 
L 427.450345 209.372856 
L 428.10733 207.222317 
L 428.764315 203.349372 
L 429.4213 206.979261 
L 430.078285 209.43003 
L 430.73527 194.36998 
L 431.392255 218.044701 
L 432.04924 200.483485 
L 432.706225 176.561904 
L 433.36321 201.638489 
L 434.020195 210.446487 
L 434.67718 211.406633 
L 435.334165 210.564722 
L 435.99115 202.930448 
L 436.648135 216.38106 
L 437.30512 210.097937 
L 437.962105 211.466247 
L 438.61909 205.958552 
L 439.276075 205.257334 
L 439.93306 206.151139 
L 440.590045 212.397473 
L 441.24703 200.383154 
L 441.904015 221.571681 
L 443.217985 205.674451 
L 443.87497 218.31003 
L 444.531955 211.803868 
L 445.18894 202.437777 
L 445.845925 228.158673 
L 446.50291 216.776633 
L 447.159895 188.041588 
L 447.81688 203.233412 
L 448.473865 202.32195 
L 449.13085 211.132108 
L 449.787835 199.780003 
L 450.44482 213.02088 
L 451.101805 210.286674 
L 451.75879 214.251605 
L 452.415775 208.163908 
L 453.07276 220.620802 
L 453.729745 210.170823 
L 454.38673 215.189336 
L 455.043715 200.012272 
L 455.7007 202.274062 
L 456.357685 203.601027 
L 457.01467 213.617638 
L 457.671655 210.918835 
L 458.32864 215.82354 
L 458.985625 236.666096 
L 459.64261 206.291996 
L 460.299595 199.724951 
L 462.27055 213.820893 
L 462.927535 211.931565 
L 463.58452 208.29016 
L 464.241505 220.014134 
L 464.89849 203.553092 
L 465.555475 222.879257 
L 466.21246 207.006515 
L 466.869445 212.470069 
L 467.52643 226.091882 
L 468.183415 215.887496 
L 468.8404 209.349183 
L 469.497385 218.544008 
L 470.15437 211.943196 
L 470.811355 235.284898 
L 471.46834 212.672502 
L 472.125325 223.425903 
L 472.78231 211.11084 
L 473.439295 217.62401 
L 474.09628 217.809499 
L 474.753265 206.282564 
L 475.41025 209.601592 
L 476.067235 227.479686 
L 476.72422 228.865259 
L 477.381205 197.937171 
L 478.03819 201.973462 
L 478.695175 196.296983 
L 479.35216 211.731982 
L 480.009145 202.84794 
L 480.66613 208.213883 
L 481.323115 209.381713 
L 481.9801 220.576844 
L 482.637085 212.225905 
L 483.29407 205.396855 
L 483.951055 228.674605 
L 484.60804 219.090173 
L 485.265025 207.72271 
L 485.92201 220.389578 
L 486.578995 228.501512 
L 487.23598 207.698709 
L 487.892965 214.71264 
L 488.54995 226.989184 
L 489.206935 207.477723 
L 489.86392 231.127556 
L 490.520905 214.215465 
L 491.17789 205.578808 
L 491.834875 213.992787 
L 492.49186 218.652539 
L 493.148845 216.936297 
L 493.80583 201.071965 
L 494.462815 188.67004 
L 495.1198 207.232435 
L 495.776785 219.454362 
L 496.43377 217.911053 
L 497.090755 219.736455 
L 497.74774 208.362046 
L 498.404725 221.500053 
L 499.06171 213.806788 
L 499.718695 216.020752 
L 500.37568 199.311299 
L 501.032665 218.348188 
L 502.346635 200.673026 
L 503.00362 223.198688 
L 503.660605 201.131987 
L 504.31759 228.626757 
L 504.974575 215.854314 
L 505.63156 217.016848 
L 506.288545 219.984701 
L 506.94553 202.774895 
L 507.602515 223.208544 
L 508.2595 205.254348 
L 508.916485 227.847944 
L 509.57347 202.714499 
L 510.230455 221.877905 
L 510.88744 211.649875 
L 511.544425 208.128801 
L 512.20141 214.551358 
L 512.858395 195.950816 
L 513.51538 229.622632 
L 514.172365 195.541818 
L 514.82935 215.729742 
L 515.486335 214.357293 
L 516.800305 203.576778 
L 517.45729 193.525476 
L 518.114275 218.080105 
L 518.77126 207.697787 
L 520.08523 232.451148 
L 520.742215 212.179587 
L 521.3992 204.249317 
L 522.056185 218.72752 
L 522.71317 213.966201 
L 523.370155 202.142368 
L 524.02714 215.958223 
L 524.684125 213.142855 
L 525.34111 221.156425 
L 525.998095 222.840429 
L 526.65508 218.983813 
L 527.312065 205.042584 
L 527.96905 207.752355 
L 528.626035 195.820427 
L 529.28302 207.541249 
L 529.940005 228.55068 
L 530.59699 232.63168 
L 531.91096 191.196012 
L 532.567945 222.448384 
L 533.22493 197.827242 
L 533.881915 229.432909 
L 534.5389 198.245691 
L 535.195885 206.362583 
L 535.85287 198.152583 
L 536.509855 221.294102 
L 537.16684 229.92922 
L 537.823825 221.710222 
L 538.48081 187.075582 
L 539.137795 213.508273 
L 539.79478 221.383959 
L 540.451765 217.382203 
L 541.10875 204.875518 
L 541.765735 222.717365 
L 542.42272 215.016631 
L 543.079705 218.506714 
L 544.393675 209.514923 
L 545.05066 200.492321 
L 545.707645 194.025808 
L 546.36463 218.709702 
L 547.021615 218.397585 
L 547.6786 229.12783 
L 548.335585 221.583003 
L 548.99257 218.939927 
L 549.649555 220.876628 
L 550.30654 208.425145 
L 550.963525 230.997685 
L 551.62051 223.274647 
L 552.277495 201.756471 
L 552.93448 215.802626 
L 553.591465 238.217729 
L 554.24845 215.432661 
L 554.905435 210.708949 
L 555.56242 226.903221 
L 556.219405 208.608062 
L 556.87639 210.914503 
L 557.533375 206.4826 
L 558.19036 226.758868 
L 558.847345 227.223082 
L 559.50433 220.025801 
L 560.161315 218.897501 
L 560.8183 214.624164 
L 561.475285 225.56743 
L 562.13227 225.298086 
L 562.789255 233.112086 
L 563.44624 217.162153 
L 564.103225 209.366827 
L 564.76021 218.956144 
L 566.07418 231.775022 
L 566.731165 201.719369 
L 567.38815 216.245294 
L 568.045135 213.928254 
L 568.70212 215.819294 
L 569.359105 238.706735 
L 570.01609 202.197724 
L 570.673075 189.298358 
L 571.33006 192.555182 
L 571.987045 207.773534 
L 572.64403 227.558043 
L 573.301015 217.879586 
L 573.958 206.058888 
L 574.614985 215.230772 
L 575.27197 210.189864 
L 575.928955 227.422307 
L 576.58594 211.424844 
L 577.242925 213.26752 
L 578.556895 224.868401 
L 579.21388 209.790167 
L 579.870865 232.639966 
L 580.52785 227.905644 
L 581.184835 197.138479 
L 581.84182 213.727672 
L 582.498805 235.981217 
L 583.15579 223.262489 
L 583.812775 221.220615 
L 584.46976 206.308722 
L 585.126745 202.643541 
L 585.78373 230.60099 
L 586.440715 221.909477 
L 587.0977 223.210131 
L 587.754685 210.788227 
L 588.41167 206.67682 
L 589.068655 213.336134 
L 589.72564 208.114382 
L 590.382625 220.198324 
L 591.03961 216.438799 
L 591.696595 224.504291 
L 592.35358 224.955757 
L 593.010565 229.384834 
L 593.66755 193.893815 
L 594.324535 213.724891 
L 594.98152 218.370825 
L 595.638505 206.864946 
L 596.29549 203.593455 
L 596.952475 220.701052 
L 597.60946 221.852133 
L 598.266445 226.80235 
L 598.92343 213.572597 
L 599.580415 229.979518 
L 600.2374 226.012049 
L 600.894385 208.48096 
L 601.55137 220.736349 
L 602.208355 219.940157 
L 602.86534 217.298258 
L 603.522325 221.320527 
L 604.17931 223.884972 
L 604.836295 200.738212 
L 605.49328 218.897298 
L 606.150265 209.042931 
L 607.464235 234.235404 
L 608.12122 227.186055 
L 608.778205 216.801191 
L 609.43519 216.728905 
L 610.092175 215.683082 
L 610.74916 224.98174 
L 611.406145 206.203076 
L 612.06313 202.260179 
L 613.3771 205.995391 
L 614.034085 229.113521 
L 614.69107 191.718035 
L 615.348055 219.896955 
L 616.00504 224.634167 
L 616.662025 214.114031 
L 617.31901 219.197765 
L 617.975995 232.373746 
L 618.63298 208.360151 
L 619.289965 219.399963 
L 619.94695 207.2993 
L 620.603935 225.718886 
L 621.26092 215.988257 
L 621.917905 217.200165 
L 622.57489 220.162653 
L 623.231875 225.577395 
L 623.88886 204.551857 
L 624.545845 219.527939 
L 625.20283 220.51874 
L 625.859815 218.663195 
L 626.5168 220.061398 
L 627.173785 212.291627 
L 628.487755 219.749731 
L 629.14474 208.695926 
L 630.45871 228.746698 
L 631.115695 221.601126 
L 632.429665 215.61131 
L 633.08665 215.257926 
L 633.743635 208.332623 
L 634.40062 224.385557 
L 635.057605 209.980312 
L 635.71459 216.269984 
L 636.371575 213.961901 
L 637.02856 233.420651 
L 637.685545 215.936731 
L 638.34253 226.286748 
L 638.999515 225.778076 
L 639.6565 207.033822 
L 640.97047 225.998909 
L 641.627455 204.493665 
L 642.28444 220.413628 
L 642.941425 227.155276 
L 643.59841 212.696573 
L 644.255395 223.198431 
L 644.91238 219.825281 
L 645.569365 215.843891 
L 646.22635 215.597619 
L 646.883335 214.596385 
L 647.54032 189.656169 
L 648.197305 218.669916 
L 648.85429 223.615902 
L 649.511275 235.663023 
L 650.16826 233.840147 
L 651.48223 207.955627 
L 652.139215 211.468943 
L 652.7962 189.422206 
L 653.453185 238.405599 
L 654.11017 213.079801 
L 654.767155 206.873829 
L 655.42414 218.604984 
L 656.081125 218.341407 
L 656.73811 209.418372 
L 657.395095 205.292456 
L 658.05208 228.531281 
L 658.709065 210.697465 
L 659.36605 219.463969 
L 660.023035 224.374179 
L 660.68002 223.646503 
L 661.337005 198.687881 
L 661.99399 203.017214 
L 662.650975 226.916264 
L 663.30796 206.444016 
L 663.964945 211.791647 
L 664.62193 227.121642 
L 665.278915 213.123968 
L 665.9359 216.788685 
L 666.592885 222.277034 
L 667.24987 215.558162 
L 667.906855 203.063545 
L 668.56384 195.584556 
L 669.87781 229.816237 
L 670.534795 203.049616 
L 671.19178 236.606826 
L 671.848765 223.361651 
L 672.50575 205.694229 
L 673.162735 213.720883 
L 673.81972 234.772252 
L 674.476705 218.228031 
L 675.13369 207.881831 
L 675.790675 223.987065 
L 676.44766 193.224451 
L 677.104645 199.918193 
L 677.76163 203.392118 
L 678.418615 217.794712 
L 679.0756 209.616158 
L 679.732585 219.372562 
L 680.38957 198.935584 
L 681.046555 197.174326 
L 681.70354 206.63346 
L 682.360525 217.86722 
L 683.674495 220.28593 
L 684.33148 192.60874 
L 684.988465 217.820929 
L 685.64545 218.098504 
L 686.302435 222.782653 
L 686.95942 221.661457 
L 687.616405 223.981954 
L 688.27339 214.427892 
L 688.930375 211.736299 
L 689.58736 196.00733 
L 690.244345 212.342132 
L 690.90133 211.50108 
L 691.558315 224.329633 
L 692.2153 208.041644 
L 692.872285 229.591911 
L 693.52927 221.122581 
L 694.186255 217.495974 
L 694.84324 209.835181 
L 695.500225 206.953624 
L 696.15721 207.383064 
L 696.814195 199.582042 
L 697.47118 221.952621 
L 698.128165 208.17541 
L 698.78515 225.152473 
L 699.442135 208.032811 
L 700.09912 216.556153 
L 700.756105 211.048802 
L 701.41309 213.882978 
L 702.070075 205.644405 
L 702.72706 210.506711 
L 703.384045 206.271453 
L 704.04103 205.742552 
L 704.698015 204.357046 
L 704.698015 204.357046 
" clip-path="url(#p155a3f689b)" style="fill: none; stroke-dasharray: 5.55,2.4; stroke-dashoffset: 0; stroke: #ff7f0e; stroke-width: 1.5"/>
   </g>
   <g id="patch_3">
    <path d="M 48.37 398.84 
L 48.37 18.08 
" style="fill: none; stroke: #000000; stroke-width: 0.8; stroke-linejoin: miter; stroke-linecap: square"/>
   </g>
   <g id="patch_4">
    <path d="M 705.355 398.84 
L 705.355 18.08 
" style="fill: none; stroke: #000000; stroke-width: 0.8; stroke-linejoin: miter; stroke-linecap: square"/>
   </g>
   <g id="patch_5">
    <path d="M 48.37 398.84 
L 705.355 398.84 
" style="fill: none; stroke: #000000; stroke-width: 0.8; stroke-linejoin: miter; stroke-linecap: square"/>
   </g>
   <g id="patch_6">
    <path d="M 48.37 18.08 
L 705.355 18.08 
" style="fill: none; stroke: #000000; stroke-width: 0.8; stroke-linejoin: miter; stroke-linecap: square"/>
   </g>
   <g id="text_19">
    <!-- dPSO Evolution (Simulation #208) -->
    <g transform="translate(274.085312 12.08) scale(0.12 -0.12)">
     <defs>
      <path id="DejaVuSans-64" d="M 2906 2969 
L 2906 4863 
L 3481 4863 
L 3481 0 
L 2906 0 
L 2906 525 
Q 2725 213 2448 61 
Q 2172 -91 1784 -91 
Q 1150 -91 751 415 
Q 353 922 353 1747 
Q 353 2572 751 3078 
Q 1150 3584 1784 3584 
Q 2172 3584 2448 3432 
Q 2725 3281 2906 2969 
z
M 947 1747 
Q 947 1113 1208 752 
Q 1469 391 1925 391 
Q 2381 391 2643 752 
Q 2906 1113 2906 1747 
Q 2906 2381 2643 2742 
Q 2381 3103 1925 3103 
Q 1469 3103 1208 2742 
Q 947 2381 947 1747 
z
" transform="scale(0.015625)"/>
      <path id="DejaVuSans-50" d="M 1259 4147 
L 1259 2394 
L 2053 2394 
Q 2494 2394 2734 2622 
Q 2975 2850 2975 3272 
Q 2975 3691 2734 3919 
Q 2494 4147 2053 4147 
L 1259 4147 
z
M 628 4666 
L 2053 4666 
Q 2838 4666 3239 4311 
Q 3641 3956 3641 3272 
Q 3641 2581 3239 2228 
Q 2838 1875 2053 1875 
L 1259 1875 
L 1259 0 
L 628 0 
L 628 4666 
z
" transform="scale(0.015625)"/>
      <path id="DejaVuSans-53" d="M 3425 4513 
L 3425 3897 
Q 3066 4069 2747 4153 
Q 2428 4238 2131 4238 
Q 1616 4238 1336 4038 
Q 1056 3838 1056 3469 
Q 1056 3159 1242 3001 
Q 1428 2844 1947 2747 
L 2328 2669 
Q 3034 2534 3370 2195 
Q 3706 1856 3706 1288 
Q 3706 609 3251 259 
Q 2797 -91 1919 -91 
Q 1588 -91 1214 -16 
Q 841 59 441 206 
L 441 856 
Q 825 641 1194 531 
Q 1563 422 1919 422 
Q 2459 422 2753 634 
Q 3047 847 3047 1241 
Q 3047 1584 2836 1778 
Q 2625 1972 2144 2069 
L 1759 2144 
Q 1053 2284 737 2584 
Q 422 2884 422 3419 
Q 422 4038 858 4394 
Q 1294 4750 2059 4750 
Q 2388 4750 2728 4690 
Q 3069 4631 3425 4513 
z
" transform="scale(0.015625)"/>
      <path id="DejaVuSans-45" d="M 628 4666 
L 3578 4666 
L 3578 4134 
L 1259 4134 
L 1259 2753 
L 3481 2753 
L 3481 2222 
L 1259 2222 
L 1259 531 
L 3634 531 
L 3634 0 
L 628 0 
L 628 4666 
z
" transform="scale(0.015625)"/>
      <path id="DejaVuSans-28" d="M 1984 4856 
Q 1566 4138 1362 3434 
Q 1159 2731 1159 2009 
Q 1159 1288 1364 580 
Q 1569 -128 1984 -844 
L 1484 -844 
Q 1016 -109 783 600 
Q 550 1309 550 2009 
Q 550 2706 781 3412 
Q 1013 4119 1484 4856 
L 1984 4856 
z
" transform="scale(0.015625)"/>
      <path id="DejaVuSans-6d" d="M 3328 2828 
Q 3544 3216 3844 3400 
Q 4144 3584 4550 3584 
Q 5097 3584 5394 3201 
Q 5691 2819 5691 2113 
L 5691 0 
L 5113 0 
L 5113 2094 
Q 5113 2597 4934 2840 
Q 4756 3084 4391 3084 
Q 3944 3084 3684 2787 
Q 3425 2491 3425 1978 
L 3425 0 
L 2847 0 
L 2847 2094 
Q 2847 2600 2669 2842 
Q 2491 3084 2119 3084 
Q 1678 3084 1418 2786 
Q 1159 2488 1159 1978 
L 1159 0 
L 581 0 
L 581 3500 
L 1159 3500 
L 1159 2956 
Q 1356 3278 1631 3431 
Q 1906 3584 2284 3584 
Q 2666 3584 2933 3390 
Q 3200 3197 3328 2828 
z
" transform="scale(0.015625)"/>
      <path id="DejaVuSans-23" d="M 3272 2816 
L 2363 2816 
L 2100 1772 
L 3016 1772 
L 3272 2816 
z
M 2803 4594 
L 2478 3297 
L 3391 3297 
L 3719 4594 
L 4219 4594 
L 3897 3297 
L 4872 3297 
L 4872 2816 
L 3775 2816 
L 3519 1772 
L 4513 1772 
L 4513 1294 
L 3397 1294 
L 3072 0 
L 2572 0 
L 2894 1294 
L 1978 1294 
L 1656 0 
L 1153 0 
L 1478 1294 
L 494 1294 
L 494 1772 
L 1594 1772 
L 1856 2816 
L 850 2816 
L 850 3297 
L 1978 3297 
L 2297 4594 
L 2803 4594 
z
" transform="scale(0.015625)"/>
      <path id="DejaVuSans-29" d="M 513 4856 
L 1013 4856 
Q 1481 4119 1714 3412 
Q 1947 2706 1947 2009 
Q 1947 1309 1714 600 
Q 1481 -109 1013 -844 
L 513 -844 
Q 928 -128 1133 580 
Q 1338 1288 1338 2009 
Q 1338 2731 1133 3434 
Q 928 4138 513 4856 
z
" transform="scale(0.015625)"/>
     </defs>
     <use xlink:href="#DejaVuSans-64"/>
     <use xlink:href="#DejaVuSans-50" transform="translate(63.476562 0)"/>
     <use xlink:href="#DejaVuSans-53" transform="translate(123.779297 0)"/>
     <use xlink:href="#DejaVuSans-4f" transform="translate(187.255859 0)"/>
     <use xlink:href="#DejaVuSans-20" transform="translate(265.966797 0)"/>
     <use xlink:href="#DejaVuSans-45" transform="translate(297.753906 0)"/>
     <use xlink:href="#DejaVuSans-76" transform="translate(360.9375 0)"/>
     <use xlink:href="#DejaVuSans-6f" transform="translate(420.117188 0)"/>
     <use xlink:href="#DejaVuSans-6c" transform="translate(481.298828 0)"/>
     <use xlink:href="#DejaVuSans-75" transform="translate(509.082031 0)"/>
     <use xlink:href="#DejaVuSans-74" transform="translate(572.460938 0)"/>
     <use xlink:href="#DejaVuSans-69" transform="translate(611.669922 0)"/>
     <use xlink:href="#DejaVuSans-6f" transform="translate(639.453125 0)"/>
     <use xlink:href="#DejaVuSans-6e" transform="translate(700.634766 0)"/>
     <use xlink:href="#DejaVuSans-20" transform="translate(764.013672 0)"/>
     <use xlink:href="#DejaVuSans-28" transform="translate(795.800781 0)"/>
     <use xlink:href="#DejaVuSans-53" transform="translate(834.814453 0)"/>
     <use xlink:href="#DejaVuSans-69" transform="translate(898.291016 0)"/>
     <use xlink:href="#DejaVuSans-6d" transform="translate(926.074219 0)"/>
     <use xlink:href="#DejaVuSans-75" transform="translate(1023.486328 0)"/>
     <use xlink:href="#DejaVuSans-6c" transform="translate(1086.865234 0)"/>
     <use xlink:href="#DejaVuSans-61" transform="translate(1114.648438 0)"/>
     <use xlink:href="#DejaVuSans-74" transform="translate(1175.927734 0)"/>
     <use xlink:href="#DejaVuSans-69" transform="translate(1215.136719 0)"/>
     <use xlink:href="#DejaVuSans-6f" transform="translate(1242.919922 0)"/>
     <use xlink:href="#DejaVuSans-6e" transform="translate(1304.101562 0)"/>
     <use xlink:href="#DejaVuSans-20" transform="translate(1367.480469 0)"/>
     <use xlink:href="#DejaVuSans-23" transform="translate(1399.267578 0)"/>
     <use xlink:href="#DejaVuSans-32" transform="translate(1483.056641 0)"/>
     <use xlink:href="#DejaVuSans-30" transform="translate(1546.679688 0)"/>
     <use xlink:href="#DejaVuSans-38" transform="translate(1610.302734 0)"/>
     <use xlink:href="#DejaVuSans-29" transform="translate(1673.925781 0)"/>
    </g>
   </g>
   <g id="legend_1">
    <g id="patch_7">
     <path d="M 549.897187 55.43625 
L 698.355 55.43625 
Q 700.355 55.43625 700.355 53.43625 
L 700.355 25.08 
Q 700.355 23.08 698.355 23.08 
L 549.897187 23.08 
Q 547.897187 23.08 547.897187 25.08 
L 547.897187 53.43625 
Q 547.897187 55.43625 549.897187 55.43625 
z
" style="fill: #ffffff; opacity: 0.8; stroke: #cccccc; stroke-linejoin: miter"/>
    </g>
    <g id="line2d_35">
     <path d="M 551.897187 31.178437 
L 561.897187 31.178437 
L 561.897187 31.178437 
L 571.897187 31.178437 
L 571.897187 31.178437 
" style="fill: none; stroke: #1f77b4; stroke-width: 1.5; stroke-linecap: square"/>
    </g>
    <g id="text_20">
     <!-- Best Fitness (dPSO) -->
     <g transform="translate(579.897187 34.678437) scale(0.1 -0.1)">
      <defs>
       <path id="DejaVuSans-42" d="M 1259 2228 
L 1259 519 
L 2272 519 
Q 2781 519 3026 730 
Q 3272 941 3272 1375 
Q 3272 1813 3026 2020 
Q 2781 2228 2272 2228 
L 1259 2228 
z
M 1259 4147 
L 1259 2741 
L 2194 2741 
Q 2656 2741 2882 2914 
Q 3109 3088 3109 3444 
Q 3109 3797 2882 3972 
Q 2656 4147 2194 4147 
L 1259 4147 
z
M 628 4666 
L 2241 4666 
Q 2963 4666 3353 4366 
Q 3744 4066 3744 3513 
Q 3744 3084 3544 2831 
Q 3344 2578 2956 2516 
Q 3422 2416 3680 2098 
Q 3938 1781 3938 1306 
Q 3938 681 3513 340 
Q 3088 0 2303 0 
L 628 0 
L 628 4666 
z
" transform="scale(0.015625)"/>
       <path id="DejaVuSans-73" d="M 2834 3397 
L 2834 2853 
Q 2591 2978 2328 3040 
Q 2066 3103 1784 3103 
Q 1356 3103 1142 2972 
Q 928 2841 928 2578 
Q 928 2378 1081 2264 
Q 1234 2150 1697 2047 
L 1894 2003 
Q 2506 1872 2764 1633 
Q 3022 1394 3022 966 
Q 3022 478 2636 193 
Q 2250 -91 1575 -91 
Q 1294 -91 989 -36 
Q 684 19 347 128 
L 347 722 
Q 666 556 975 473 
Q 1284 391 1588 391 
Q 1994 391 2212 530 
Q 2431 669 2431 922 
Q 2431 1156 2273 1281 
Q 2116 1406 1581 1522 
L 1381 1569 
Q 847 1681 609 1914 
Q 372 2147 372 2553 
Q 372 3047 722 3315 
Q 1072 3584 1716 3584 
Q 2034 3584 2315 3537 
Q 2597 3491 2834 3397 
z
" transform="scale(0.015625)"/>
       <path id="DejaVuSans-46" d="M 628 4666 
L 3309 4666 
L 3309 4134 
L 1259 4134 
L 1259 2759 
L 3109 2759 
L 3109 2228 
L 1259 2228 
L 1259 0 
L 628 0 
L 628 4666 
z
" transform="scale(0.015625)"/>
      </defs>
      <use xlink:href="#DejaVuSans-42"/>
      <use xlink:href="#DejaVuSans-65" transform="translate(68.603516 0)"/>
      <use xlink:href="#DejaVuSans-73" transform="translate(130.126953 0)"/>
      <use xlink:href="#DejaVuSans-74" transform="translate(182.226562 0)"/>
      <use xlink:href="#DejaVuSans-20" transform="translate(221.435547 0)"/>
      <use xlink:href="#DejaVuSans-46" transform="translate(253.222656 0)"/>
      <use xlink:href="#DejaVuSans-69" transform="translate(303.492188 0)"/>
      <use xlink:href="#DejaVuSans-74" transform="translate(331.275391 0)"/>
      <use xlink:href="#DejaVuSans-6e" transform="translate(370.484375 0)"/>
      <use xlink:href="#DejaVuSans-65" transform="translate(433.863281 0)"/>
      <use xlink:href="#DejaVuSans-73" transform="translate(495.386719 0)"/>
      <use xlink:href="#DejaVuSans-73" transform="translate(547.486328 0)"/>
      <use xlink:href="#DejaVuSans-20" transform="translate(599.585938 0)"/>
      <use xlink:href="#DejaVuSans-28" transform="translate(631.373047 0)"/>
      <use xlink:href="#DejaVuSans-64" transform="translate(670.386719 0)"/>
      <use xlink:href="#DejaVuSans-50" transform="translate(733.863281 0)"/>
      <use xlink:href="#DejaVuSans-53" transform="translate(794.166016 0)"/>
      <use xlink:href="#DejaVuSans-4f" transform="translate(857.642578 0)"/>
      <use xlink:href="#DejaVuSans-29" transform="translate(936.353516 0)"/>
     </g>
    </g>
    <g id="line2d_36">
     <path d="M 551.897187 45.856562 
L 561.897187 45.856562 
L 571.897187 45.856562 
" style="fill: none; stroke-dasharray: 5.55,2.4; stroke-dashoffset: 0; stroke: #ff7f0e; stroke-width: 1.5"/>
    </g>
    <g id="text_21">
     <!-- Average Fitness (dPSO) -->
     <g transform="translate(579.897187 49.356562) scale(0.1 -0.1)">
      <defs>
       <path id="DejaVuSans-41" d="M 2188 4044 
L 1331 1722 
L 3047 1722 
L 2188 4044 
z
M 1831 4666 
L 2547 4666 
L 4325 0 
L 3669 0 
L 3244 1197 
L 1141 1197 
L 716 0 
L 50 0 
L 1831 4666 
z
" transform="scale(0.015625)"/>
       <path id="DejaVuSans-67" d="M 2906 1791 
Q 2906 2416 2648 2759 
Q 2391 3103 1925 3103 
Q 1463 3103 1205 2759 
Q 947 2416 947 1791 
Q 947 1169 1205 825 
Q 1463 481 1925 481 
Q 2391 481 2648 825 
Q 2906 1169 2906 1791 
z
M 3481 434 
Q 3481 -459 3084 -895 
Q 2688 -1331 1869 -1331 
Q 1566 -1331 1297 -1286 
Q 1028 -1241 775 -1147 
L 775 -588 
Q 1028 -725 1275 -790 
Q 1522 -856 1778 -856 
Q 2344 -856 2625 -561 
Q 2906 -266 2906 331 
L 2906 616 
Q 2728 306 2450 153 
Q 2172 0 1784 0 
Q 1141 0 747 490 
Q 353 981 353 1791 
Q 353 2603 747 3093 
Q 1141 3584 1784 3584 
Q 2172 3584 2450 3431 
Q 2728 3278 2906 2969 
L 2906 3500 
L 3481 3500 
L 3481 434 
z
" transform="scale(0.015625)"/>
      </defs>
      <use xlink:href="#DejaVuSans-41"/>
      <use xlink:href="#DejaVuSans-76" transform="translate(62.533203 0)"/>
      <use xlink:href="#DejaVuSans-65" transform="translate(121.712891 0)"/>
      <use xlink:href="#DejaVuSans-72" transform="translate(183.236328 0)"/>
      <use xlink:href="#DejaVuSans-61" transform="translate(224.349609 0)"/>
      <use xlink:href="#DejaVuSans-67" transform="translate(285.628906 0)"/>
      <use xlink:href="#DejaVuSans-65" transform="translate(349.105469 0)"/>
      <use xlink:href="#DejaVuSans-20" transform="translate(410.628906 0)"/>
      <use xlink:href="#DejaVuSans-46" transform="translate(442.416016 0)"/>
      <use xlink:href="#DejaVuSans-69" transform="translate(492.685547 0)"/>
      <use xlink:href="#DejaVuSans-74" transform="translate(520.46875 0)"/>
      <use xlink:href="#DejaVuSans-6e" transform="translate(559.677734 0)"/>
      <use xlink:href="#DejaVuSans-65" transform="translate(623.056641 0)"/>
      <use xlink:href="#DejaVuSans-73" transform="translate(684.580078 0)"/>
      <use xlink:href="#DejaVuSans-73" transform="translate(736.679688 0)"/>
      <use xlink:href="#DejaVuSans-20" transform="translate(788.779297 0)"/>
      <use xlink:href="#DejaVuSans-28" transform="translate(820.566406 0)"/>
      <use xlink:href="#DejaVuSans-64" transform="translate(859.580078 0)"/>
      <use xlink:href="#DejaVuSans-50" transform="translate(923.056641 0)"/>
      <use xlink:href="#DejaVuSans-53" transform="translate(983.359375 0)"/>
      <use xlink:href="#DejaVuSans-4f" transform="translate(1046.835938 0)"/>
      <use xlink:href="#DejaVuSans-29" transform="translate(1125.546875 0)"/>
     </g>
    </g>
   </g>
  </g>
 </g>
 <defs>
  <clipPath id="p155a3f689b">
   <rect x="48.37" y="18.08" width="656.985" height="380.76"/>
  </clipPath>
 </defs>
</svg>
