<?xml version="1.0" encoding="utf-8" standalone="no"?>
<!DOCTYPE svg PUBLIC "-//W3C//DTD SVG 1.1//EN"
  "http://www.w3.org/Graphics/SVG/1.1/DTD/svg11.dtd">
<svg xmlns:xlink="http://www.w3.org/1999/xlink" width="720pt" height="432pt" viewBox="0 0 720 432" xmlns="http://www.w3.org/2000/svg" version="1.1">
 <metadata>
  <rdf:RDF xmlns:dc="http://purl.org/dc/elements/1.1/" xmlns:cc="http://creativecommons.org/ns#" xmlns:rdf="http://www.w3.org/1999/02/22-rdf-syntax-ns#">
   <cc:Work>
    <dc:type rdf:resource="http://purl.org/dc/dcmitype/StillImage"/>
    <dc:date>2026-01-12T19:07:55.084116</dc:date>
    <dc:format>image/svg+xml</dc:format>
    <dc:creator>
     <cc:Agent>
      <dc:title>Matplotlib v3.10.8, https://matplotlib.org/</dc:title>
     </cc:Agent>
    </dc:creator>
   </cc:Work>
  </rdf:RDF>
 </metadata>
 <defs>
  <style type="text/css">*{stroke-linejoin: round; stroke-linecap: butt}</style>
 </defs>
 <g id="figure_1">
  <g id="patch_1">
   <path d="M 0 432 
L 720 432 
L 720 0 
L 0 0 
z
" style="fill: #ffffff"/>
  </g>
  <g id="axes_1">
   <g id="patch_2">
    <path d="M 48.37 398.84 
L 705.355 398.84 
L 705.355 18.08 
L 48.37 18.08 
z
" style="fill: #ffffff"/>
   </g>
   <g id="matplotlib.axis_1">
    <g id="xtick_1">
     <g id="line2d_1">
      <path d="M 48.37 398.84 
L 48.37 18.08 
" clip-path="url(#pbd011b82dd)" style="fill: none; stroke-dasharray: 0.8,1.32; stroke-dashoffset: 0; stroke: #b0b0b0; stroke-opacity: 0.7; stroke-width: 0.8"/>
     </g>
     <g id="line2d_2">
      <defs>
       <path id="mffa6523ff3" d="M 0 0 
L 0 3.5 
" style="stroke: #000000; stroke-width: 0.8"/>
      </defs>
      <g>
       <use xlink:href="#mffa6523ff3" x="48.37" y="398.84" style="stroke: #000000; stroke-width: 0.8"/>
      </g>
     </g>
     <g id="text_1">
      <!-- 0 -->
      <g transform="translate(45.18875 413.438437) scale(0.1 -0.1)">
       <defs>
        <path id="DejaVuSans-30" d="M 2034 4250 
Q 1547 4250 1301 3770 
Q 1056 3291 1056 2328 
Q 1056 1369 1301 889 
Q 1547 409 2034 409 
Q 2525 409 2770 889 
Q 3016 1369 3016 2328 
Q 3016 3291 2770 3770 
Q 2525 4250 2034 4250 
z
M 2034 4750 
Q 2819 4750 3233 4129 
Q 3647 3509 3647 2328 
Q 3647 1150 3233 529 
Q 2819 -91 2034 -91 
Q 1250 -91 836 529 
Q 422 1150 422 2328 
Q 422 3509 836 4129 
Q 1250 4750 2034 4750 
z
" transform="scale(0.015625)"/>
       </defs>
       <use xlink:href="#DejaVuSans-30"/>
      </g>
     </g>
    </g>
    <g id="xtick_2">
     <g id="line2d_3">
      <path d="M 114.0685 398.84 
L 114.0685 18.08 
" clip-path="url(#pbd011b82dd)" style="fill: none; stroke-dasharray: 0.8,1.32; stroke-dashoffset: 0; stroke: #b0b0b0; stroke-opacity: 0.7; stroke-width: 0.8"/>
     </g>
     <g id="line2d_4">
      <g>
       <use xlink:href="#mffa6523ff3" x="114.0685" y="398.84" style="stroke: #000000; stroke-width: 0.8"/>
      </g>
     </g>
     <g id="text_2">
      <!-- 100 -->
      <g transform="translate(104.52475 413.438437) scale(0.1 -0.1)">
       <defs>
        <path id="DejaVuSans-31" d="M 794 531 
L 1825 531 
L 1825 4091 
L 703 3866 
L 703 4441 
L 1819 4666 
L 2450 4666 
L 2450 531 
L 3481 531 
L 3481 0 
L 794 0 
L 794 531 
z
" transform="scale(0.015625)"/>
       </defs>
       <use xlink:href="#DejaVuSans-31"/>
       <use xlink:href="#DejaVuSans-30" transform="translate(63.623047 0)"/>
       <use xlink:href="#DejaVuSans-30" transform="translate(127.246094 0)"/>
      </g>
     </g>
    </g>
    <g id="xtick_3">
     <g id="line2d_5">
      <path d="M 179.767 398.84 
L 179.767 18.08 
" clip-path="url(#pbd011b82dd)" style="fill: none; stroke-dasharray: 0.8,1.32; stroke-dashoffset: 0; stroke: #b0b0b0; stroke-opacity: 0.7; stroke-width: 0.8"/>
     </g>
     <g id="line2d_6">
      <g>
       <use xlink:href="#mffa6523ff3" x="179.767" y="398.84" style="stroke: #000000; stroke-width: 0.8"/>
      </g>
     </g>
     <g id="text_3">
      <!-- 200 -->
      <g transform="translate(170.22325 413.438437) scale(0.1 -0.1)">
       <defs>
        <path id="DejaVuSans-32" d="M 1228 531 
L 3431 531 
L 3431 0 
L 469 0 
L 469 531 
Q 828 903 1448 1529 
Q 2069 2156 2228 2338 
Q 2531 2678 2651 2914 
Q 2772 3150 2772 3378 
Q 2772 3750 2511 3984 
Q 2250 4219 1831 4219 
Q 1534 4219 1204 4116 
Q 875 4013 500 3803 
L 500 4441 
Q 881 4594 1212 4672 
Q 1544 4750 1819 4750 
Q 2544 4750 2975 4387 
Q 3406 4025 3406 3419 
Q 3406 3131 3298 2873 
Q 3191 2616 2906 2266 
Q 2828 2175 2409 1742 
Q 1991 1309 1228 531 
z
" transform="scale(0.015625)"/>
       </defs>
       <use xlink:href="#DejaVuSans-32"/>
       <use xlink:href="#DejaVuSans-30" transform="translate(63.623047 0)"/>
       <use xlink:href="#DejaVuSans-30" transform="translate(127.246094 0)"/>
      </g>
     </g>
    </g>
    <g id="xtick_4">
     <g id="line2d_7">
      <path d="M 245.4655 398.84 
L 245.4655 18.08 
" clip-path="url(#pbd011b82dd)" style="fill: none; stroke-dasharray: 0.8,1.32; stroke-dashoffset: 0; stroke: #b0b0b0; stroke-opacity: 0.7; stroke-width: 0.8"/>
     </g>
     <g id="line2d_8">
      <g>
       <use xlink:href="#mffa6523ff3" x="245.4655" y="398.84" style="stroke: #000000; stroke-width: 0.8"/>
      </g>
     </g>
     <g id="text_4">
      <!-- 300 -->
      <g transform="translate(235.92175 413.438437) scale(0.1 -0.1)">
       <defs>
        <path id="DejaVuSans-33" d="M 2597 2516 
Q 3050 2419 3304 2112 
Q 3559 1806 3559 1356 
Q 3559 666 3084 287 
Q 2609 -91 1734 -91 
Q 1441 -91 1130 -33 
Q 819 25 488 141 
L 488 750 
Q 750 597 1062 519 
Q 1375 441 1716 441 
Q 2309 441 2620 675 
Q 2931 909 2931 1356 
Q 2931 1769 2642 2001 
Q 2353 2234 1838 2234 
L 1294 2234 
L 1294 2753 
L 1863 2753 
Q 2328 2753 2575 2939 
Q 2822 3125 2822 3475 
Q 2822 3834 2567 4026 
Q 2313 4219 1838 4219 
Q 1578 4219 1281 4162 
Q 984 4106 628 3988 
L 628 4550 
Q 988 4650 1302 4700 
Q 1616 4750 1894 4750 
Q 2613 4750 3031 4423 
Q 3450 4097 3450 3541 
Q 3450 3153 3228 2886 
Q 3006 2619 2597 2516 
z
" transform="scale(0.015625)"/>
       </defs>
       <use xlink:href="#DejaVuSans-33"/>
       <use xlink:href="#DejaVuSans-30" transform="translate(63.623047 0)"/>
       <use xlink:href="#DejaVuSans-30" transform="translate(127.246094 0)"/>
      </g>
     </g>
    </g>
    <g id="xtick_5">
     <g id="line2d_9">
      <path d="M 311.164 398.84 
L 311.164 18.08 
" clip-path="url(#pbd011b82dd)" style="fill: none; stroke-dasharray: 0.8,1.32; stroke-dashoffset: 0; stroke: #b0b0b0; stroke-opacity: 0.7; stroke-width: 0.8"/>
     </g>
     <g id="line2d_10">
      <g>
       <use xlink:href="#mffa6523ff3" x="311.164" y="398.84" style="stroke: #000000; stroke-width: 0.8"/>
      </g>
     </g>
     <g id="text_5">
      <!-- 400 -->
      <g transform="translate(301.62025 413.438437) scale(0.1 -0.1)">
       <defs>
        <path id="DejaVuSans-34" d="M 2419 4116 
L 825 1625 
L 2419 1625 
L 2419 4116 
z
M 2253 4666 
L 3047 4666 
L 3047 1625 
L 3713 1625 
L 3713 1100 
L 3047 1100 
L 3047 0 
L 2419 0 
L 2419 1100 
L 313 1100 
L 313 1709 
L 2253 4666 
z
" transform="scale(0.015625)"/>
       </defs>
       <use xlink:href="#DejaVuSans-34"/>
       <use xlink:href="#DejaVuSans-30" transform="translate(63.623047 0)"/>
       <use xlink:href="#DejaVuSans-30" transform="translate(127.246094 0)"/>
      </g>
     </g>
    </g>
    <g id="xtick_6">
     <g id="line2d_11">
      <path d="M 376.8625 398.84 
L 376.8625 18.08 
" clip-path="url(#pbd011b82dd)" style="fill: none; stroke-dasharray: 0.8,1.32; stroke-dashoffset: 0; stroke: #b0b0b0; stroke-opacity: 0.7; stroke-width: 0.8"/>
     </g>
     <g id="line2d_12">
      <g>
       <use xlink:href="#mffa6523ff3" x="376.8625" y="398.84" style="stroke: #000000; stroke-width: 0.8"/>
      </g>
     </g>
     <g id="text_6">
      <!-- 500 -->
      <g transform="translate(367.31875 413.438437) scale(0.1 -0.1)">
       <defs>
        <path id="DejaVuSans-35" d="M 691 4666 
L 3169 4666 
L 3169 4134 
L 1269 4134 
L 1269 2991 
Q 1406 3038 1543 3061 
Q 1681 3084 1819 3084 
Q 2600 3084 3056 2656 
Q 3513 2228 3513 1497 
Q 3513 744 3044 326 
Q 2575 -91 1722 -91 
Q 1428 -91 1123 -41 
Q 819 9 494 109 
L 494 744 
Q 775 591 1075 516 
Q 1375 441 1709 441 
Q 2250 441 2565 725 
Q 2881 1009 2881 1497 
Q 2881 1984 2565 2268 
Q 2250 2553 1709 2553 
Q 1456 2553 1204 2497 
Q 953 2441 691 2322 
L 691 4666 
z
" transform="scale(0.015625)"/>
       </defs>
       <use xlink:href="#DejaVuSans-35"/>
       <use xlink:href="#DejaVuSans-30" transform="translate(63.623047 0)"/>
       <use xlink:href="#DejaVuSans-30" transform="translate(127.246094 0)"/>
      </g>
     </g>
    </g>
    <g id="xtick_7">
     <g id="line2d_13">
      <path d="M 442.561 398.84 
L 442.561 18.08 
" clip-path="url(#pbd011b82dd)" style="fill: none; stroke-dasharray: 0.8,1.32; stroke-dashoffset: 0; stroke: #b0b0b0; stroke-opacity: 0.7; stroke-width: 0.8"/>
     </g>
     <g id="line2d_14">
      <g>
       <use xlink:href="#mffa6523ff3" x="442.561" y="398.84" style="stroke: #000000; stroke-width: 0.8"/>
      </g>
     </g>
     <g id="text_7">
      <!-- 600 -->
      <g transform="translate(433.01725 413.438437) scale(0.1 -0.1)">
       <defs>
        <path id="DejaVuSans-36" d="M 2113 2584 
Q 1688 2584 1439 2293 
Q 1191 2003 1191 1497 
Q 1191 994 1439 701 
Q 1688 409 2113 409 
Q 2538 409 2786 701 
Q 3034 994 3034 1497 
Q 3034 2003 2786 2293 
Q 2538 2584 2113 2584 
z
M 3366 4563 
L 3366 3988 
Q 3128 4100 2886 4159 
Q 2644 4219 2406 4219 
Q 1781 4219 1451 3797 
Q 1122 3375 1075 2522 
Q 1259 2794 1537 2939 
Q 1816 3084 2150 3084 
Q 2853 3084 3261 2657 
Q 3669 2231 3669 1497 
Q 3669 778 3244 343 
Q 2819 -91 2113 -91 
Q 1303 -91 875 529 
Q 447 1150 447 2328 
Q 447 3434 972 4092 
Q 1497 4750 2381 4750 
Q 2619 4750 2861 4703 
Q 3103 4656 3366 4563 
z
" transform="scale(0.015625)"/>
       </defs>
       <use xlink:href="#DejaVuSans-36"/>
       <use xlink:href="#DejaVuSans-30" transform="translate(63.623047 0)"/>
       <use xlink:href="#DejaVuSans-30" transform="translate(127.246094 0)"/>
      </g>
     </g>
    </g>
    <g id="xtick_8">
     <g id="line2d_15">
      <path d="M 508.2595 398.84 
L 508.2595 18.08 
" clip-path="url(#pbd011b82dd)" style="fill: none; stroke-dasharray: 0.8,1.32; stroke-dashoffset: 0; stroke: #b0b0b0; stroke-opacity: 0.7; stroke-width: 0.8"/>
     </g>
     <g id="line2d_16">
      <g>
       <use xlink:href="#mffa6523ff3" x="508.2595" y="398.84" style="stroke: #000000; stroke-width: 0.8"/>
      </g>
     </g>
     <g id="text_8">
      <!-- 700 -->
      <g transform="translate(498.71575 413.438437) scale(0.1 -0.1)">
       <defs>
        <path id="DejaVuSans-37" d="M 525 4666 
L 3525 4666 
L 3525 4397 
L 1831 0 
L 1172 0 
L 2766 4134 
L 525 4134 
L 525 4666 
z
" transform="scale(0.015625)"/>
       </defs>
       <use xlink:href="#DejaVuSans-37"/>
       <use xlink:href="#DejaVuSans-30" transform="translate(63.623047 0)"/>
       <use xlink:href="#DejaVuSans-30" transform="translate(127.246094 0)"/>
      </g>
     </g>
    </g>
    <g id="xtick_9">
     <g id="line2d_17">
      <path d="M 573.958 398.84 
L 573.958 18.08 
" clip-path="url(#pbd011b82dd)" style="fill: none; stroke-dasharray: 0.8,1.32; stroke-dashoffset: 0; stroke: #b0b0b0; stroke-opacity: 0.7; stroke-width: 0.8"/>
     </g>
     <g id="line2d_18">
      <g>
       <use xlink:href="#mffa6523ff3" x="573.958" y="398.84" style="stroke: #000000; stroke-width: 0.8"/>
      </g>
     </g>
     <g id="text_9">
      <!-- 800 -->
      <g transform="translate(564.41425 413.438437) scale(0.1 -0.1)">
       <defs>
        <path id="DejaVuSans-38" d="M 2034 2216 
Q 1584 2216 1326 1975 
Q 1069 1734 1069 1313 
Q 1069 891 1326 650 
Q 1584 409 2034 409 
Q 2484 409 2743 651 
Q 3003 894 3003 1313 
Q 3003 1734 2745 1975 
Q 2488 2216 2034 2216 
z
M 1403 2484 
Q 997 2584 770 2862 
Q 544 3141 544 3541 
Q 544 4100 942 4425 
Q 1341 4750 2034 4750 
Q 2731 4750 3128 4425 
Q 3525 4100 3525 3541 
Q 3525 3141 3298 2862 
Q 3072 2584 2669 2484 
Q 3125 2378 3379 2068 
Q 3634 1759 3634 1313 
Q 3634 634 3220 271 
Q 2806 -91 2034 -91 
Q 1263 -91 848 271 
Q 434 634 434 1313 
Q 434 1759 690 2068 
Q 947 2378 1403 2484 
z
M 1172 3481 
Q 1172 3119 1398 2916 
Q 1625 2713 2034 2713 
Q 2441 2713 2670 2916 
Q 2900 3119 2900 3481 
Q 2900 3844 2670 4047 
Q 2441 4250 2034 4250 
Q 1625 4250 1398 4047 
Q 1172 3844 1172 3481 
z
" transform="scale(0.015625)"/>
       </defs>
       <use xlink:href="#DejaVuSans-38"/>
       <use xlink:href="#DejaVuSans-30" transform="translate(63.623047 0)"/>
       <use xlink:href="#DejaVuSans-30" transform="translate(127.246094 0)"/>
      </g>
     </g>
    </g>
    <g id="xtick_10">
     <g id="line2d_19">
      <path d="M 639.6565 398.84 
L 639.6565 18.08 
" clip-path="url(#pbd011b82dd)" style="fill: none; stroke-dasharray: 0.8,1.32; stroke-dashoffset: 0; stroke: #b0b0b0; stroke-opacity: 0.7; stroke-width: 0.8"/>
     </g>
     <g id="line2d_20">
      <g>
       <use xlink:href="#mffa6523ff3" x="639.6565" y="398.84" style="stroke: #000000; stroke-width: 0.8"/>
      </g>
     </g>
     <g id="text_10">
      <!-- 900 -->
      <g transform="translate(630.11275 413.438437) scale(0.1 -0.1)">
       <defs>
        <path id="DejaVuSans-39" d="M 703 97 
L 703 672 
Q 941 559 1184 500 
Q 1428 441 1663 441 
Q 2288 441 2617 861 
Q 2947 1281 2994 2138 
Q 2813 1869 2534 1725 
Q 2256 1581 1919 1581 
Q 1219 1581 811 2004 
Q 403 2428 403 3163 
Q 403 3881 828 4315 
Q 1253 4750 1959 4750 
Q 2769 4750 3195 4129 
Q 3622 3509 3622 2328 
Q 3622 1225 3098 567 
Q 2575 -91 1691 -91 
Q 1453 -91 1209 -44 
Q 966 3 703 97 
z
M 1959 2075 
Q 2384 2075 2632 2365 
Q 2881 2656 2881 3163 
Q 2881 3666 2632 3958 
Q 2384 4250 1959 4250 
Q 1534 4250 1286 3958 
Q 1038 3666 1038 3163 
Q 1038 2656 1286 2365 
Q 1534 2075 1959 2075 
z
" transform="scale(0.015625)"/>
       </defs>
       <use xlink:href="#DejaVuSans-39"/>
       <use xlink:href="#DejaVuSans-30" transform="translate(63.623047 0)"/>
       <use xlink:href="#DejaVuSans-30" transform="translate(127.246094 0)"/>
      </g>
     </g>
    </g>
    <g id="xtick_11">
     <g id="line2d_21">
      <path d="M 705.355 398.84 
L 705.355 18.08 
" clip-path="url(#pbd011b82dd)" style="fill: none; stroke-dasharray: 0.8,1.32; stroke-dashoffset: 0; stroke: #b0b0b0; stroke-opacity: 0.7; stroke-width: 0.8"/>
     </g>
     <g id="line2d_22">
      <g>
       <use xlink:href="#mffa6523ff3" x="705.355" y="398.84" style="stroke: #000000; stroke-width: 0.8"/>
      </g>
     </g>
     <g id="text_11">
      <!-- 1000 -->
      <g transform="translate(692.63 413.438437) scale(0.1 -0.1)">
       <use xlink:href="#DejaVuSans-31"/>
       <use xlink:href="#DejaVuSans-30" transform="translate(63.623047 0)"/>
       <use xlink:href="#DejaVuSans-30" transform="translate(127.246094 0)"/>
       <use xlink:href="#DejaVuSans-30" transform="translate(190.869141 0)"/>
      </g>
     </g>
    </g>
    <g id="text_12">
     <!-- Iteration / Generation -->
     <g transform="translate(322.898438 427.116562) scale(0.1 -0.1)">
      <defs>
       <path id="DejaVuSans-49" d="M 628 4666 
L 1259 4666 
L 1259 0 
L 628 0 
L 628 4666 
z
" transform="scale(0.015625)"/>
       <path id="DejaVuSans-74" d="M 1172 4494 
L 1172 3500 
L 2356 3500 
L 2356 3053 
L 1172 3053 
L 1172 1153 
Q 1172 725 1289 603 
Q 1406 481 1766 481 
L 2356 481 
L 2356 0 
L 1766 0 
Q 1100 0 847 248 
Q 594 497 594 1153 
L 594 3053 
L 172 3053 
L 172 3500 
L 594 3500 
L 594 4494 
L 1172 4494 
z
" transform="scale(0.015625)"/>
       <path id="DejaVuSans-65" d="M 3597 1894 
L 3597 1613 
L 953 1613 
Q 991 1019 1311 708 
Q 1631 397 2203 397 
Q 2534 397 2845 478 
Q 3156 559 3463 722 
L 3463 178 
Q 3153 47 2828 -22 
Q 2503 -91 2169 -91 
Q 1331 -91 842 396 
Q 353 884 353 1716 
Q 353 2575 817 3079 
Q 1281 3584 2069 3584 
Q 2775 3584 3186 3129 
Q 3597 2675 3597 1894 
z
M 3022 2063 
Q 3016 2534 2758 2815 
Q 2500 3097 2075 3097 
Q 1594 3097 1305 2825 
Q 1016 2553 972 2059 
L 3022 2063 
z
" transform="scale(0.015625)"/>
       <path id="DejaVuSans-72" d="M 2631 2963 
Q 2534 3019 2420 3045 
Q 2306 3072 2169 3072 
Q 1681 3072 1420 2755 
Q 1159 2438 1159 1844 
L 1159 0 
L 581 0 
L 581 3500 
L 1159 3500 
L 1159 2956 
Q 1341 3275 1631 3429 
Q 1922 3584 2338 3584 
Q 2397 3584 2469 3576 
Q 2541 3569 2628 3553 
L 2631 2963 
z
" transform="scale(0.015625)"/>
       <path id="DejaVuSans-61" d="M 2194 1759 
Q 1497 1759 1228 1600 
Q 959 1441 959 1056 
Q 959 750 1161 570 
Q 1363 391 1709 391 
Q 2188 391 2477 730 
Q 2766 1069 2766 1631 
L 2766 1759 
L 2194 1759 
z
M 3341 1997 
L 3341 0 
L 2766 0 
L 2766 531 
Q 2569 213 2275 61 
Q 1981 -91 1556 -91 
Q 1019 -91 701 211 
Q 384 513 384 1019 
Q 384 1609 779 1909 
Q 1175 2209 1959 2209 
L 2766 2209 
L 2766 2266 
Q 2766 2663 2505 2880 
Q 2244 3097 1772 3097 
Q 1472 3097 1187 3025 
Q 903 2953 641 2809 
L 641 3341 
Q 956 3463 1253 3523 
Q 1550 3584 1831 3584 
Q 2591 3584 2966 3190 
Q 3341 2797 3341 1997 
z
" transform="scale(0.015625)"/>
       <path id="DejaVuSans-69" d="M 603 3500 
L 1178 3500 
L 1178 0 
L 603 0 
L 603 3500 
z
M 603 4863 
L 1178 4863 
L 1178 4134 
L 603 4134 
L 603 4863 
z
" transform="scale(0.015625)"/>
       <path id="DejaVuSans-6f" d="M 1959 3097 
Q 1497 3097 1228 2736 
Q 959 2375 959 1747 
Q 959 1119 1226 758 
Q 1494 397 1959 397 
Q 2419 397 2687 759 
Q 2956 1122 2956 1747 
Q 2956 2369 2687 2733 
Q 2419 3097 1959 3097 
z
M 1959 3584 
Q 2709 3584 3137 3096 
Q 3566 2609 3566 1747 
Q 3566 888 3137 398 
Q 2709 -91 1959 -91 
Q 1206 -91 779 398 
Q 353 888 353 1747 
Q 353 2609 779 3096 
Q 1206 3584 1959 3584 
z
" transform="scale(0.015625)"/>
       <path id="DejaVuSans-6e" d="M 3513 2113 
L 3513 0 
L 2938 0 
L 2938 2094 
Q 2938 2591 2744 2837 
Q 2550 3084 2163 3084 
Q 1697 3084 1428 2787 
Q 1159 2491 1159 1978 
L 1159 0 
L 581 0 
L 581 3500 
L 1159 3500 
L 1159 2956 
Q 1366 3272 1645 3428 
Q 1925 3584 2291 3584 
Q 2894 3584 3203 3211 
Q 3513 2838 3513 2113 
z
" transform="scale(0.015625)"/>
       <path id="DejaVuSans-20" transform="scale(0.015625)"/>
       <path id="DejaVuSans-2f" d="M 1625 4666 
L 2156 4666 
L 531 -594 
L 0 -594 
L 1625 4666 
z
" transform="scale(0.015625)"/>
       <path id="DejaVuSans-47" d="M 3809 666 
L 3809 1919 
L 2778 1919 
L 2778 2438 
L 4434 2438 
L 4434 434 
Q 4069 175 3628 42 
Q 3188 -91 2688 -91 
Q 1594 -91 976 548 
Q 359 1188 359 2328 
Q 359 3472 976 4111 
Q 1594 4750 2688 4750 
Q 3144 4750 3555 4637 
Q 3966 4525 4313 4306 
L 4313 3634 
Q 3963 3931 3569 4081 
Q 3175 4231 2741 4231 
Q 1884 4231 1454 3753 
Q 1025 3275 1025 2328 
Q 1025 1384 1454 906 
Q 1884 428 2741 428 
Q 3075 428 3337 486 
Q 3600 544 3809 666 
z
" transform="scale(0.015625)"/>
      </defs>
      <use xlink:href="#DejaVuSans-49"/>
      <use xlink:href="#DejaVuSans-74" transform="translate(29.492188 0)"/>
      <use xlink:href="#DejaVuSans-65" transform="translate(68.701172 0)"/>
      <use xlink:href="#DejaVuSans-72" transform="translate(130.224609 0)"/>
      <use xlink:href="#DejaVuSans-61" transform="translate(171.337891 0)"/>
      <use xlink:href="#DejaVuSans-74" transform="translate(232.617188 0)"/>
      <use xlink:href="#DejaVuSans-69" transform="translate(271.826172 0)"/>
      <use xlink:href="#DejaVuSans-6f" transform="translate(299.609375 0)"/>
      <use xlink:href="#DejaVuSans-6e" transform="translate(360.791016 0)"/>
      <use xlink:href="#DejaVuSans-20" transform="translate(424.169922 0)"/>
      <use xlink:href="#DejaVuSans-2f" transform="translate(455.957031 0)"/>
      <use xlink:href="#DejaVuSans-20" transform="translate(489.648438 0)"/>
      <use xlink:href="#DejaVuSans-47" transform="translate(521.435547 0)"/>
      <use xlink:href="#DejaVuSans-65" transform="translate(598.925781 0)"/>
      <use xlink:href="#DejaVuSans-6e" transform="translate(660.449219 0)"/>
      <use xlink:href="#DejaVuSans-65" transform="translate(723.828125 0)"/>
      <use xlink:href="#DejaVuSans-72" transform="translate(785.351562 0)"/>
      <use xlink:href="#DejaVuSans-61" transform="translate(826.464844 0)"/>
      <use xlink:href="#DejaVuSans-74" transform="translate(887.744141 0)"/>
      <use xlink:href="#DejaVuSans-69" transform="translate(926.953125 0)"/>
      <use xlink:href="#DejaVuSans-6f" transform="translate(954.736328 0)"/>
      <use xlink:href="#DejaVuSans-6e" transform="translate(1015.917969 0)"/>
     </g>
    </g>
   </g>
   <g id="matplotlib.axis_2">
    <g id="ytick_1">
     <g id="line2d_23">
      <path d="M 48.37 338.806449 
L 705.355 338.806449 
" clip-path="url(#pbd011b82dd)" style="fill: none; stroke-dasharray: 0.8,1.32; stroke-dashoffset: 0; stroke: #b0b0b0; stroke-opacity: 0.7; stroke-width: 0.8"/>
     </g>
     <g id="line2d_24">
      <defs>
       <path id="mc37481b22b" d="M 0 0 
L -3.5 0 
" style="stroke: #000000; stroke-width: 0.8"/>
      </defs>
      <g>
       <use xlink:href="#mc37481b22b" x="48.37" y="338.806449" style="stroke: #000000; stroke-width: 0.8"/>
      </g>
     </g>
     <g id="text_13">
      <!-- 1500 -->
      <g transform="translate(15.92 342.605668) scale(0.1 -0.1)">
       <use xlink:href="#DejaVuSans-31"/>
       <use xlink:href="#DejaVuSans-35" transform="translate(63.623047 0)"/>
       <use xlink:href="#DejaVuSans-30" transform="translate(127.246094 0)"/>
       <use xlink:href="#DejaVuSans-30" transform="translate(190.869141 0)"/>
      </g>
     </g>
    </g>
    <g id="ytick_2">
     <g id="line2d_25">
      <path d="M 48.37 256.251869 
L 705.355 256.251869 
" clip-path="url(#pbd011b82dd)" style="fill: none; stroke-dasharray: 0.8,1.32; stroke-dashoffset: 0; stroke: #b0b0b0; stroke-opacity: 0.7; stroke-width: 0.8"/>
     </g>
     <g id="line2d_26">
      <g>
       <use xlink:href="#mc37481b22b" x="48.37" y="256.251869" style="stroke: #000000; stroke-width: 0.8"/>
      </g>
     </g>
     <g id="text_14">
      <!-- 2000 -->
      <g transform="translate(15.92 260.051087) scale(0.1 -0.1)">
       <use xlink:href="#DejaVuSans-32"/>
       <use xlink:href="#DejaVuSans-30" transform="translate(63.623047 0)"/>
       <use xlink:href="#DejaVuSans-30" transform="translate(127.246094 0)"/>
       <use xlink:href="#DejaVuSans-30" transform="translate(190.869141 0)"/>
      </g>
     </g>
    </g>
    <g id="ytick_3">
     <g id="line2d_27">
      <path d="M 48.37 173.697288 
L 705.355 173.697288 
" clip-path="url(#pbd011b82dd)" style="fill: none; stroke-dasharray: 0.8,1.32; stroke-dashoffset: 0; stroke: #b0b0b0; stroke-opacity: 0.7; stroke-width: 0.8"/>
     </g>
     <g id="line2d_28">
      <g>
       <use xlink:href="#mc37481b22b" x="48.37" y="173.697288" style="stroke: #000000; stroke-width: 0.8"/>
      </g>
     </g>
     <g id="text_15">
      <!-- 2500 -->
      <g transform="translate(15.92 177.496507) scale(0.1 -0.1)">
       <use xlink:href="#DejaVuSans-32"/>
       <use xlink:href="#DejaVuSans-35" transform="translate(63.623047 0)"/>
       <use xlink:href="#DejaVuSans-30" transform="translate(127.246094 0)"/>
       <use xlink:href="#DejaVuSans-30" transform="translate(190.869141 0)"/>
      </g>
     </g>
    </g>
    <g id="ytick_4">
     <g id="line2d_29">
      <path d="M 48.37 91.142707 
L 705.355 91.142707 
" clip-path="url(#pbd011b82dd)" style="fill: none; stroke-dasharray: 0.8,1.32; stroke-dashoffset: 0; stroke: #b0b0b0; stroke-opacity: 0.7; stroke-width: 0.8"/>
     </g>
     <g id="line2d_30">
      <g>
       <use xlink:href="#mc37481b22b" x="48.37" y="91.142707" style="stroke: #000000; stroke-width: 0.8"/>
      </g>
     </g>
     <g id="text_16">
      <!-- 3000 -->
      <g transform="translate(15.92 94.941926) scale(0.1 -0.1)">
       <use xlink:href="#DejaVuSans-33"/>
       <use xlink:href="#DejaVuSans-30" transform="translate(63.623047 0)"/>
       <use xlink:href="#DejaVuSans-30" transform="translate(127.246094 0)"/>
       <use xlink:href="#DejaVuSans-30" transform="translate(190.869141 0)"/>
      </g>
     </g>
    </g>
    <g id="text_17">
     <!-- Objective Value -->
     <g transform="translate(9.840312 247.490469) rotate(-90) scale(0.1 -0.1)">
      <defs>
       <path id="DejaVuSans-4f" d="M 2522 4238 
Q 1834 4238 1429 3725 
Q 1025 3213 1025 2328 
Q 1025 1447 1429 934 
Q 1834 422 2522 422 
Q 3209 422 3611 934 
Q 4013 1447 4013 2328 
Q 4013 3213 3611 3725 
Q 3209 4238 2522 4238 
z
M 2522 4750 
Q 3503 4750 4090 4092 
Q 4678 3434 4678 2328 
Q 4678 1225 4090 567 
Q 3503 -91 2522 -91 
Q 1538 -91 948 565 
Q 359 1222 359 2328 
Q 359 3434 948 4092 
Q 1538 4750 2522 4750 
z
" transform="scale(0.015625)"/>
       <path id="DejaVuSans-62" d="M 3116 1747 
Q 3116 2381 2855 2742 
Q 2594 3103 2138 3103 
Q 1681 3103 1420 2742 
Q 1159 2381 1159 1747 
Q 1159 1113 1420 752 
Q 1681 391 2138 391 
Q 2594 391 2855 752 
Q 3116 1113 3116 1747 
z
M 1159 2969 
Q 1341 3281 1617 3432 
Q 1894 3584 2278 3584 
Q 2916 3584 3314 3078 
Q 3713 2572 3713 1747 
Q 3713 922 3314 415 
Q 2916 -91 2278 -91 
Q 1894 -91 1617 61 
Q 1341 213 1159 525 
L 1159 0 
L 581 0 
L 581 4863 
L 1159 4863 
L 1159 2969 
z
" transform="scale(0.015625)"/>
       <path id="DejaVuSans-6a" d="M 603 3500 
L 1178 3500 
L 1178 -63 
Q 1178 -731 923 -1031 
Q 669 -1331 103 -1331 
L -116 -1331 
L -116 -844 
L 38 -844 
Q 366 -844 484 -692 
Q 603 -541 603 -63 
L 603 3500 
z
M 603 4863 
L 1178 4863 
L 1178 4134 
L 603 4134 
L 603 4863 
z
" transform="scale(0.015625)"/>
       <path id="DejaVuSans-63" d="M 3122 3366 
L 3122 2828 
Q 2878 2963 2633 3030 
Q 2388 3097 2138 3097 
Q 1578 3097 1268 2742 
Q 959 2388 959 1747 
Q 959 1106 1268 751 
Q 1578 397 2138 397 
Q 2388 397 2633 464 
Q 2878 531 3122 666 
L 3122 134 
Q 2881 22 2623 -34 
Q 2366 -91 2075 -91 
Q 1284 -91 818 406 
Q 353 903 353 1747 
Q 353 2603 823 3093 
Q 1294 3584 2113 3584 
Q 2378 3584 2631 3529 
Q 2884 3475 3122 3366 
z
" transform="scale(0.015625)"/>
       <path id="DejaVuSans-76" d="M 191 3500 
L 800 3500 
L 1894 563 
L 2988 3500 
L 3597 3500 
L 2284 0 
L 1503 0 
L 191 3500 
z
" transform="scale(0.015625)"/>
       <path id="DejaVuSans-56" d="M 1831 0 
L 50 4666 
L 709 4666 
L 2188 738 
L 3669 4666 
L 4325 4666 
L 2547 0 
L 1831 0 
z
" transform="scale(0.015625)"/>
       <path id="DejaVuSans-6c" d="M 603 4863 
L 1178 4863 
L 1178 0 
L 603 0 
L 603 4863 
z
" transform="scale(0.015625)"/>
       <path id="DejaVuSans-75" d="M 544 1381 
L 544 3500 
L 1119 3500 
L 1119 1403 
Q 1119 906 1312 657 
Q 1506 409 1894 409 
Q 2359 409 2629 706 
Q 2900 1003 2900 1516 
L 2900 3500 
L 3475 3500 
L 3475 0 
L 2900 0 
L 2900 538 
Q 2691 219 2414 64 
Q 2138 -91 1772 -91 
Q 1169 -91 856 284 
Q 544 659 544 1381 
z
M 1991 3584 
L 1991 3584 
z
" transform="scale(0.015625)"/>
      </defs>
      <use xlink:href="#DejaVuSans-4f"/>
      <use xlink:href="#DejaVuSans-62" transform="translate(78.710938 0)"/>
      <use xlink:href="#DejaVuSans-6a" transform="translate(142.1875 0)"/>
      <use xlink:href="#DejaVuSans-65" transform="translate(169.970703 0)"/>
      <use xlink:href="#DejaVuSans-63" transform="translate(231.494141 0)"/>
      <use xlink:href="#DejaVuSans-74" transform="translate(286.474609 0)"/>
      <use xlink:href="#DejaVuSans-69" transform="translate(325.683594 0)"/>
      <use xlink:href="#DejaVuSans-76" transform="translate(353.466797 0)"/>
      <use xlink:href="#DejaVuSans-65" transform="translate(412.646484 0)"/>
      <use xlink:href="#DejaVuSans-20" transform="translate(474.169922 0)"/>
      <use xlink:href="#DejaVuSans-56" transform="translate(505.957031 0)"/>
      <use xlink:href="#DejaVuSans-61" transform="translate(566.615234 0)"/>
      <use xlink:href="#DejaVuSans-6c" transform="translate(627.894531 0)"/>
      <use xlink:href="#DejaVuSans-75" transform="translate(655.677734 0)"/>
      <use xlink:href="#DejaVuSans-65" transform="translate(719.056641 0)"/>
     </g>
    </g>
   </g>
   <g id="line2d_31">
    <path d="M 48.37 226.401028 
L 50.340955 226.401028 
L 50.340955 290.337312 
L 60.19573 290.337312 
L 60.19573 293.372938 
L 63.480655 293.372938 
L 63.480655 300.948033 
L 77.27734 300.948033 
L 77.27734 304.501768 
L 77.934325 304.501768 
L 77.934325 306.697874 
L 87.132115 306.697874 
L 87.132115 316.646081 
L 94.35895 316.646081 
L 94.35895 325.566897 
L 100.9288 325.566897 
L 100.9288 338.976952 
L 102.899755 338.976952 
L 102.899755 363.504625 
L 671.848765 363.504625 
L 671.848765 367.11 
L 704.698015 367.11 
L 704.698015 367.11 
" clip-path="url(#pbd011b82dd)" style="fill: none; stroke: #1f77b4; stroke-width: 1.5; stroke-linecap: square"/>
   </g>
   <g id="line2d_32">
    <path d="M 48.37 133.032369 
L 49.026985 103.315245 
L 49.68397 50.327764 
L 50.340955 85.234169 
L 50.99794 84.147101 
L 52.31191 112.917928 
L 52.968895 86.233069 
L 53.62588 49.81 
L 54.282865 67.636776 
L 54.93985 96.473987 
L 55.596835 95.439531 
L 56.25382 84.162278 
L 56.910805 82.687057 
L 57.56779 91.196541 
L 58.224775 83.710268 
L 58.88176 83.070933 
L 59.538745 100.293261 
L 60.19573 68.702126 
L 60.852715 81.970157 
L 62.166685 146.844428 
L 62.82367 152.291863 
L 63.480655 130.471499 
L 64.13764 98.78945 
L 64.794625 89.801524 
L 65.45161 73.197144 
L 66.108595 105.201329 
L 66.76558 86.48006 
L 67.422565 110.98962 
L 68.07955 120.058137 
L 68.736535 101.169817 
L 69.39352 94.361988 
L 70.050505 71.026197 
L 70.70749 102.14963 
L 71.364475 87.65385 
L 72.02146 86.834292 
L 72.678445 115.658317 
L 73.33543 92.659991 
L 73.992415 93.548204 
L 74.6494 120.179274 
L 75.306385 123.351479 
L 75.96337 83.974687 
L 76.620355 115.90882 
L 77.27734 123.347165 
L 77.934325 92.690401 
L 78.59131 98.206285 
L 79.248295 96.04272 
L 79.90528 89.86979 
L 80.562265 89.692996 
L 81.21925 89.828597 
L 81.876235 96.4866 
L 83.190205 124.80403 
L 83.84719 113.401931 
L 84.504175 93.49132 
L 85.16116 93.616598 
L 85.818145 97.494479 
L 86.47513 117.711377 
L 87.132115 99.186603 
L 87.7891 113.384817 
L 88.446085 103.172965 
L 89.10307 88.473451 
L 89.760055 110.116895 
L 90.41704 104.177591 
L 91.074025 138.906604 
L 91.73101 75.58776 
L 92.387995 106.836501 
L 93.04498 127.962044 
L 93.701965 126.339515 
L 94.35895 113.078124 
L 95.015935 143.780695 
L 95.67292 129.823835 
L 96.329905 136.084406 
L 96.98689 149.778908 
L 97.643875 124.918307 
L 98.30086 146.504969 
L 98.957845 146.831587 
L 99.61483 143.532907 
L 100.271815 155.746694 
L 100.9288 152.031809 
L 101.585785 124.637917 
L 102.24277 128.07995 
L 102.899755 162.340519 
L 103.55674 141.462252 
L 104.213725 146.053182 
L 104.87071 123.929703 
L 105.527695 149.867173 
L 106.18468 146.608487 
L 106.841665 128.198284 
L 107.49865 148.53318 
L 108.155635 117.037948 
L 108.81262 144.737404 
L 109.469605 134.531492 
L 110.12659 127.791886 
L 110.783575 149.965844 
L 112.097545 125.011794 
L 112.75453 155.530083 
L 113.411515 145.227156 
L 114.0685 162.0533 
L 114.725485 138.614739 
L 115.38247 146.464958 
L 116.039455 166.276315 
L 116.69644 138.625581 
L 117.353425 128.229199 
L 118.01041 122.638007 
L 118.667395 136.392468 
L 119.32438 131.460784 
L 119.981365 139.747037 
L 120.63835 134.987961 
L 121.295335 166.904621 
L 121.95232 146.23477 
L 122.609305 160.900332 
L 123.26629 154.038773 
L 123.923275 142.379645 
L 124.58026 152.937092 
L 125.237245 157.953525 
L 125.89423 166.890276 
L 126.551215 142.166745 
L 127.2082 165.810696 
L 127.865185 149.230021 
L 128.52217 151.801629 
L 129.83614 130.718682 
L 130.493125 153.226981 
L 131.15011 165.16017 
L 131.807095 171.955162 
L 132.46408 170.192524 
L 133.121065 158.081287 
L 133.77805 159.496687 
L 134.435035 185.839103 
L 135.09202 160.82077 
L 135.749005 164.365308 
L 136.40599 138.06064 
L 137.062975 167.984207 
L 137.71996 150.881777 
L 138.376945 178.252852 
L 139.03393 182.497192 
L 139.690915 169.389504 
L 141.004885 156.959824 
L 141.66187 171.13879 
L 142.318855 145.813881 
L 142.97584 166.567063 
L 143.632825 141.365688 
L 144.28981 145.396887 
L 144.946795 176.334789 
L 145.60378 169.968867 
L 146.260765 148.991157 
L 146.91775 162.523217 
L 147.574735 157.501478 
L 148.23172 161.920368 
L 148.888705 160.117855 
L 149.54569 174.664276 
L 150.202675 169.845662 
L 150.85966 188.982399 
L 151.516645 162.253677 
L 152.17363 157.884098 
L 152.830615 149.340428 
L 153.4876 170.685589 
L 154.144585 175.313085 
L 154.80157 162.149497 
L 155.458555 155.011821 
L 156.11554 161.736331 
L 156.772525 155.319288 
L 157.42951 159.188047 
L 158.086495 160.090582 
L 158.74348 150.668032 
L 159.400465 157.634555 
L 160.05745 163.319521 
L 161.37142 183.3253 
L 162.028405 178.838293 
L 162.68539 165.23962 
L 163.342375 178.58261 
L 163.99936 177.688324 
L 164.656345 153.007626 
L 165.31333 187.95306 
L 165.970315 154.697791 
L 166.6273 150.103433 
L 167.284285 172.922624 
L 167.94127 183.231284 
L 168.598255 156.56392 
L 169.25524 163.154741 
L 169.912225 128.618949 
L 170.56921 134.798891 
L 171.226195 147.199443 
L 171.88318 167.157606 
L 172.540165 169.667996 
L 173.19715 164.75514 
L 173.854135 194.830964 
L 174.51112 158.825454 
L 175.168105 171.01051 
L 175.82509 187.65182 
L 176.482075 177.14112 
L 177.13906 171.146654 
L 177.796045 173.959652 
L 178.45303 184.501471 
L 179.110015 171.253862 
L 179.767 160.492444 
L 180.423985 146.153269 
L 181.08097 152.705942 
L 181.737955 145.628873 
L 182.39494 176.178302 
L 183.051925 175.218177 
L 183.70891 200.558285 
L 184.365895 173.857143 
L 185.02288 161.265743 
L 185.679865 164.58743 
L 186.33685 178.284454 
L 186.993835 164.678347 
L 187.65082 180.789185 
L 188.307805 152.583708 
L 188.96479 165.684692 
L 189.621775 176.068132 
L 190.27876 183.195818 
L 190.935745 158.63326 
L 191.59273 183.777765 
L 192.249715 169.155043 
L 192.9067 175.14803 
L 193.563685 182.908246 
L 194.22067 171.221195 
L 194.877655 157.078891 
L 195.53464 194.220365 
L 196.191625 171.421927 
L 196.84861 166.165373 
L 197.505595 178.855116 
L 198.16258 167.649631 
L 198.819565 169.624684 
L 199.47655 152.319997 
L 200.133535 154.462469 
L 200.79052 153.80837 
L 201.447505 179.450201 
L 202.10449 178.515384 
L 202.761475 161.393112 
L 203.41846 186.031073 
L 204.075445 166.210646 
L 204.73243 168.241295 
L 205.389415 183.755102 
L 206.0464 182.269797 
L 206.703385 164.521527 
L 207.36037 186.26069 
L 208.017355 182.031769 
L 208.67434 172.725622 
L 209.331325 159.901787 
L 209.98831 169.245397 
L 210.645295 150.145503 
L 211.30228 174.915619 
L 211.959265 167.870134 
L 213.273235 180.62435 
L 214.587205 165.395174 
L 215.901175 202.813934 
L 216.55816 194.438397 
L 217.215145 200.241401 
L 217.87213 191.511166 
L 218.529115 192.737396 
L 219.1861 173.459561 
L 219.843085 166.822972 
L 220.50007 174.867608 
L 221.157055 172.055879 
L 221.81404 181.089619 
L 222.471025 187.479358 
L 223.12801 189.892903 
L 223.784995 170.661326 
L 224.44198 188.081946 
L 225.098965 164.578994 
L 225.75595 174.548265 
L 226.412935 182.358768 
L 227.06992 175.522271 
L 227.726905 167.318717 
L 228.38389 186.958193 
L 229.040875 188.820222 
L 229.69786 196.227517 
L 230.354845 202.202239 
L 231.668815 174.90553 
L 232.3258 188.967584 
L 232.982785 165.764519 
L 233.63977 193.091139 
L 234.296755 176.098315 
L 234.95374 173.322156 
L 235.610725 161.777913 
L 236.26771 167.106766 
L 236.924695 164.539004 
L 237.58168 185.137229 
L 238.238665 182.043822 
L 238.89565 154.61681 
L 239.552635 182.252158 
L 240.20962 167.589177 
L 240.866605 177.621528 
L 241.52359 190.241711 
L 242.180575 172.360553 
L 242.83756 191.395591 
L 243.494545 174.383016 
L 244.15153 180.154807 
L 244.808515 167.600185 
L 245.4655 181.257641 
L 246.122485 166.995254 
L 246.77947 169.590411 
L 247.436455 179.939927 
L 248.09344 145.713391 
L 248.750425 190.129549 
L 249.40741 171.893769 
L 250.064395 179.188794 
L 250.72138 166.937408 
L 251.378365 162.839656 
L 252.03535 189.037372 
L 252.692335 174.652883 
L 253.34932 183.194826 
L 254.006305 163.383818 
L 255.320275 192.529959 
L 255.97726 181.686696 
L 256.634245 188.82777 
L 257.29123 161.695048 
L 257.948215 178.302308 
L 258.6052 150.667801 
L 259.262185 178.698055 
L 259.91917 182.435477 
L 260.576155 169.116089 
L 261.23314 179.72296 
L 261.890125 196.015081 
L 262.54711 179.056337 
L 263.204095 158.174732 
L 263.86108 175.656354 
L 264.518065 185.802401 
L 265.17505 189.853159 
L 265.832035 179.090169 
L 266.48902 193.002878 
L 267.146005 187.144038 
L 267.80299 173.354082 
L 268.459975 150.716641 
L 269.11696 164.170744 
L 269.773945 173.724479 
L 270.43093 151.696433 
L 271.087915 171.981908 
L 271.7449 166.181761 
L 272.401885 158.497707 
L 273.05887 174.680127 
L 273.715855 204.219748 
L 274.37284 204.834165 
L 275.029825 174.517562 
L 275.68681 193.674824 
L 277.00078 175.051447 
L 277.657765 178.418076 
L 278.31475 179.232654 
L 278.971735 174.975956 
L 280.285705 185.026561 
L 280.94269 183.444108 
L 281.599675 168.813752 
L 282.25666 198.733197 
L 282.913645 185.797567 
L 283.57063 197.373662 
L 284.227615 189.892588 
L 284.8846 194.089939 
L 285.541585 181.266272 
L 286.19857 193.97292 
L 286.855555 194.959076 
L 287.51254 194.739811 
L 288.169525 184.818038 
L 288.82651 185.151378 
L 289.483495 198.119926 
L 290.14048 186.322462 
L 290.797465 198.295445 
L 291.45445 176.258874 
L 292.111435 182.194963 
L 292.76842 177.151332 
L 293.425405 185.497436 
L 294.08239 173.937483 
L 294.739375 184.804146 
L 295.39636 176.545458 
L 296.053345 191.790049 
L 296.71033 147.190357 
L 297.367315 177.676799 
L 298.0243 168.370723 
L 298.681285 165.775501 
L 299.33827 170.003993 
L 299.995255 169.85633 
L 300.65224 189.000328 
L 301.309225 180.656329 
L 301.96621 179.219942 
L 302.623195 172.991247 
L 303.28018 180.579029 
L 303.937165 192.464958 
L 304.59415 185.319486 
L 305.251135 187.52582 
L 305.90812 192.606173 
L 306.565105 189.534915 
L 307.22209 176.821154 
L 307.879075 172.014965 
L 308.53606 170.256631 
L 309.193045 154.443771 
L 309.85003 188.33916 
L 310.507015 171.56056 
L 311.164 179.779175 
L 311.820985 162.856808 
L 312.47797 178.265273 
L 313.134955 177.087638 
L 313.79194 168.600265 
L 314.448925 180.774216 
L 315.10591 201.852395 
L 315.762895 187.367324 
L 316.41988 188.682354 
L 317.076865 186.021395 
L 317.73385 163.666606 
L 318.390835 180.877803 
L 319.04782 180.840529 
L 319.704805 171.812021 
L 320.36179 169.840523 
L 321.018775 180.080037 
L 321.67576 164.656059 
L 322.332745 174.517243 
L 322.98973 193.744441 
L 323.646715 190.472045 
L 324.3037 203.425199 
L 324.960685 170.043714 
L 325.61767 186.46513 
L 326.274655 193.183887 
L 326.93164 171.064882 
L 327.588625 183.917153 
L 328.24561 175.341912 
L 328.902595 150.560285 
L 329.55958 164.921423 
L 330.216565 149.959903 
L 330.87355 192.939774 
L 331.530535 192.551851 
L 332.18752 199.870218 
L 332.844505 198.573999 
L 333.50149 197.770443 
L 334.158475 175.914293 
L 334.81546 195.794097 
L 335.472445 194.875579 
L 336.12943 180.143211 
L 336.786415 177.786944 
L 337.4434 181.252562 
L 338.75737 157.655905 
L 339.414355 170.833974 
L 340.07134 173.843879 
L 340.728325 194.683867 
L 341.38531 192.981594 
L 342.042295 187.082218 
L 342.69928 193.731113 
L 343.356265 183.619221 
L 344.01325 171.36455 
L 344.670235 172.25418 
L 345.32722 177.602915 
L 345.984205 165.549971 
L 346.64119 171.317009 
L 347.298175 178.468277 
L 347.95516 168.946799 
L 348.612145 190.497707 
L 349.26913 165.898004 
L 349.926115 173.052188 
L 350.5831 197.164381 
L 351.240085 180.18658 
L 351.89707 177.303698 
L 352.554055 192.108267 
L 353.21104 177.860746 
L 353.868025 174.931075 
L 354.52501 192.476072 
L 355.181995 179.513131 
L 355.83898 157.731484 
L 356.495965 167.252259 
L 357.15295 195.237781 
L 357.809935 196.739721 
L 359.123905 181.201283 
L 359.78089 179.661486 
L 360.437875 188.214295 
L 361.09486 198.328326 
L 361.751845 159.593815 
L 362.40883 199.768983 
L 363.065815 193.949758 
L 363.7228 158.378481 
L 364.379785 170.709569 
L 365.03677 169.588336 
L 365.693755 176.318379 
L 366.35074 187.578907 
L 367.007725 182.758295 
L 367.66471 194.441827 
L 368.321695 184.40454 
L 368.97868 189.281966 
L 369.635665 196.519574 
L 370.29265 174.690983 
L 370.949635 173.853076 
L 371.60662 168.108724 
L 372.263605 178.908143 
L 372.92059 192.701274 
L 373.577575 179.780152 
L 374.23456 186.706591 
L 374.891545 183.237357 
L 375.54853 184.195223 
L 376.205515 174.081351 
L 376.8625 172.379881 
L 377.519485 177.405344 
L 378.17647 177.954763 
L 378.833455 175.828131 
L 379.49044 165.202351 
L 380.147425 187.033688 
L 380.80441 192.432459 
L 381.461395 183.299102 
L 382.11838 185.432904 
L 382.775365 170.062083 
L 383.43235 160.657059 
L 384.089335 165.203145 
L 384.74632 207.585911 
L 385.403305 175.565112 
L 386.06029 159.907139 
L 386.717275 189.899531 
L 388.031245 171.539112 
L 388.68823 175.877132 
L 389.345215 174.482355 
L 390.0022 193.544874 
L 390.659185 171.453 
L 391.31617 164.48969 
L 391.973155 181.015611 
L 392.63014 191.690843 
L 393.94411 203.998036 
L 394.601095 168.17283 
L 395.25808 185.858308 
L 395.915065 178.183838 
L 396.57205 185.277494 
L 397.229035 152.417151 
L 397.88602 192.885173 
L 398.543005 162.635093 
L 399.19999 188.736509 
L 399.856975 169.137738 
L 400.51396 160.901227 
L 401.170945 156.230816 
L 402.484915 194.212275 
L 403.1419 186.930781 
L 403.798885 186.922874 
L 404.45587 185.704135 
L 405.112855 196.511439 
L 405.76984 186.123319 
L 406.426825 188.814679 
L 407.08381 206.858154 
L 407.740795 195.400867 
L 408.39778 195.724158 
L 409.054765 179.854779 
L 409.71175 199.867765 
L 410.368735 199.884942 
L 411.02572 190.839906 
L 411.682705 187.807111 
L 412.33969 183.46745 
L 412.996675 177.146207 
L 413.65366 180.65216 
L 414.96763 166.870013 
L 415.624615 181.927792 
L 416.2816 183.976301 
L 416.938585 168.921962 
L 417.59557 167.62144 
L 418.252555 186.3902 
L 418.90954 184.167979 
L 419.566525 177.901086 
L 420.22351 176.93469 
L 420.880495 180.738837 
L 421.53748 193.525496 
L 422.194465 179.8046 
L 422.85145 184.190314 
L 423.508435 175.281931 
L 424.16542 171.777794 
L 424.822405 185.148084 
L 425.47939 172.174904 
L 426.136375 203.124515 
L 426.79336 201.707275 
L 427.450345 178.043249 
L 428.10733 166.364499 
L 428.764315 179.801985 
L 429.4213 184.172589 
L 430.078285 181.072184 
L 430.73527 182.291301 
L 431.392255 175.887698 
L 432.04924 187.562373 
L 432.706225 193.929586 
L 433.36321 217.880242 
L 434.020195 180.168995 
L 434.67718 174.7473 
L 435.334165 203.799976 
L 435.99115 182.618734 
L 436.648135 192.536516 
L 437.30512 192.025343 
L 437.962105 198.854459 
L 438.61909 200.686237 
L 439.276075 191.692206 
L 439.93306 197.260081 
L 440.590045 175.450441 
L 441.24703 187.893398 
L 441.904015 211.975371 
L 442.561 201.655869 
L 443.217985 174.592803 
L 443.87497 200.556661 
L 444.531955 198.244512 
L 445.18894 192.852425 
L 445.845925 183.747009 
L 446.50291 195.114615 
L 447.159895 187.044154 
L 447.81688 182.828308 
L 448.473865 167.097607 
L 449.13085 190.870068 
L 449.787835 185.690709 
L 450.44482 185.509849 
L 451.101805 206.042129 
L 451.75879 192.13888 
L 452.415775 208.854268 
L 453.07276 189.724996 
L 453.729745 198.879726 
L 454.38673 199.715542 
L 455.043715 190.402556 
L 455.7007 196.628642 
L 456.357685 196.917215 
L 457.01467 197.652437 
L 457.671655 198.988596 
L 458.32864 163.612659 
L 458.985625 168.208589 
L 459.64261 184.572535 
L 460.299595 173.167638 
L 460.95658 167.596012 
L 461.613565 198.760226 
L 462.27055 203.816781 
L 462.927535 196.711736 
L 463.58452 190.97349 
L 464.241505 202.311401 
L 464.89849 184.461228 
L 465.555475 180.504672 
L 466.21246 190.327066 
L 466.869445 167.427568 
L 467.52643 190.046028 
L 468.183415 188.613805 
L 468.8404 191.240222 
L 469.497385 179.776758 
L 470.15437 188.316349 
L 470.811355 172.54343 
L 471.46834 177.956354 
L 472.125325 167.684463 
L 472.78231 181.57836 
L 473.439295 181.974663 
L 474.09628 193.759229 
L 474.753265 186.730449 
L 476.067235 189.364605 
L 476.72422 182.926062 
L 477.381205 182.788949 
L 478.03819 208.137977 
L 478.695175 200.61052 
L 479.35216 197.411591 
L 480.66613 183.732079 
L 481.323115 189.015664 
L 481.9801 203.695604 
L 482.637085 187.660321 
L 483.29407 192.055181 
L 483.951055 187.504478 
L 484.60804 168.489409 
L 485.265025 160.318467 
L 485.92201 199.80993 
L 486.578995 195.791886 
L 487.23598 212.65503 
L 487.892965 197.447301 
L 488.54995 199.843215 
L 489.206935 183.725108 
L 489.86392 205.966151 
L 490.520905 194.369501 
L 491.17789 224.692477 
L 491.834875 197.14163 
L 492.49186 180.165747 
L 493.148845 212.458691 
L 493.80583 205.456354 
L 494.462815 194.276074 
L 495.1198 179.515866 
L 495.776785 179.690155 
L 496.43377 199.084465 
L 497.090755 194.809425 
L 497.74774 171.741454 
L 498.404725 154.999546 
L 499.06171 185.039096 
L 499.718695 183.888625 
L 500.37568 166.903341 
L 501.032665 179.918059 
L 501.68965 178.370804 
L 502.346635 181.416119 
L 503.00362 200.188067 
L 503.660605 180.718422 
L 504.31759 180.85638 
L 504.974575 181.786211 
L 505.63156 193.205458 
L 506.288545 189.287298 
L 506.94553 207.868802 
L 507.602515 219.910743 
L 508.2595 165.872483 
L 508.916485 177.925888 
L 509.57347 170.050611 
L 510.230455 176.423017 
L 510.88744 194.702503 
L 511.544425 189.637845 
L 512.20141 200.596148 
L 512.858395 203.327965 
L 513.51538 173.2805 
L 514.172365 197.545262 
L 514.82935 193.838036 
L 515.486335 184.834212 
L 516.14332 198.8103 
L 516.800305 199.820743 
L 517.45729 197.155153 
L 518.114275 169.336211 
L 518.77126 181.421963 
L 519.428245 181.830136 
L 520.08523 184.279825 
L 520.742215 189.982172 
L 521.3992 180.291083 
L 522.056185 190.959294 
L 522.71317 179.533617 
L 523.370155 196.875932 
L 524.02714 195.598827 
L 524.684125 193.946366 
L 525.998095 181.627809 
L 526.65508 178.796727 
L 527.312065 171.782613 
L 527.96905 205.463278 
L 528.626035 187.858742 
L 529.28302 174.040146 
L 529.940005 192.38136 
L 530.59699 190.415756 
L 531.253975 181.279696 
L 531.91096 184.111953 
L 532.567945 186.284098 
L 533.22493 177.994314 
L 533.881915 164.722235 
L 534.5389 162.824705 
L 535.195885 179.635704 
L 535.85287 203.50286 
L 536.509855 199.745056 
L 537.16684 206.735664 
L 537.823825 199.342429 
L 538.48081 204.991922 
L 539.137795 182.804412 
L 539.79478 194.709912 
L 540.451765 184.605529 
L 541.10875 189.597851 
L 541.765735 172.526645 
L 542.42272 187.184622 
L 543.079705 173.448555 
L 543.73669 173.624245 
L 544.393675 189.349621 
L 545.05066 187.991479 
L 545.707645 207.376595 
L 546.36463 201.685917 
L 547.021615 173.232992 
L 547.6786 186.897263 
L 548.335585 184.81647 
L 548.99257 186.523593 
L 549.649555 203.681123 
L 550.30654 196.279387 
L 550.963525 208.197192 
L 551.62051 188.716141 
L 552.277495 190.441426 
L 552.93448 180.947396 
L 553.591465 201.67564 
L 554.24845 180.052209 
L 554.905435 189.444549 
L 555.56242 171.631086 
L 556.219405 196.035549 
L 556.87639 200.834398 
L 557.533375 185.834046 
L 558.19036 187.498466 
L 558.847345 202.662513 
L 559.50433 194.462376 
L 560.161315 197.429445 
L 561.475285 205.379776 
L 562.13227 197.542776 
L 562.789255 193.071011 
L 563.44624 177.409335 
L 564.103225 179.226428 
L 564.76021 188.985721 
L 565.417195 172.82109 
L 566.07418 184.848837 
L 566.731165 185.313678 
L 567.38815 193.811076 
L 568.045135 198.416176 
L 568.70212 179.878856 
L 569.359105 193.672975 
L 570.01609 194.179798 
L 570.673075 189.532974 
L 571.33006 198.282759 
L 571.987045 191.930501 
L 572.64403 191.275647 
L 573.301015 180.488181 
L 573.958 183.468077 
L 574.614985 193.965153 
L 575.27197 191.060403 
L 575.928955 192.175957 
L 576.58594 199.838031 
L 577.242925 171.031446 
L 578.556895 193.09116 
L 579.21388 172.29266 
L 579.870865 190.986577 
L 580.52785 178.356019 
L 581.184835 185.829802 
L 581.84182 176.901724 
L 582.498805 180.47633 
L 583.15579 181.266585 
L 583.812775 196.312484 
L 585.126745 188.1238 
L 585.78373 197.713065 
L 586.440715 183.083725 
L 587.0977 202.377397 
L 587.754685 202.853694 
L 588.41167 216.4211 
L 589.068655 187.654877 
L 589.72564 196.29159 
L 590.382625 166.718482 
L 591.03961 190.432868 
L 591.696595 175.878396 
L 592.35358 207.020031 
L 593.010565 201.291248 
L 593.66755 172.614359 
L 594.324535 210.117583 
L 595.638505 181.558354 
L 596.29549 183.60533 
L 596.952475 196.639237 
L 597.60946 197.687453 
L 598.92343 201.926947 
L 599.580415 176.019997 
L 600.2374 208.783454 
L 600.894385 177.442853 
L 601.55137 177.605869 
L 602.208355 181.302733 
L 602.86534 169.018806 
L 603.522325 191.764145 
L 604.17931 192.927104 
L 604.836295 188.943726 
L 605.49328 188.968893 
L 606.150265 184.002002 
L 606.80725 188.50429 
L 607.464235 191.639215 
L 608.12122 180.760706 
L 608.778205 194.073949 
L 609.43519 200.693654 
L 610.74916 189.875975 
L 611.406145 196.620109 
L 612.06313 187.569629 
L 612.720115 196.997 
L 613.3771 198.397361 
L 614.034085 181.940761 
L 614.69107 185.719486 
L 615.348055 185.152523 
L 616.00504 169.661437 
L 616.662025 174.004526 
L 617.31901 181.216388 
L 617.975995 203.532015 
L 618.63298 166.314295 
L 619.289965 197.739211 
L 619.94695 207.746568 
L 620.603935 183.839886 
L 621.26092 176.02929 
L 621.917905 206.736814 
L 622.57489 201.239862 
L 623.231875 204.35613 
L 623.88886 190.855389 
L 624.545845 181.239491 
L 625.20283 205.231384 
L 625.859815 183.541145 
L 626.5168 189.863948 
L 627.173785 192.697803 
L 627.83077 196.210936 
L 628.487755 191.431503 
L 629.14474 201.987728 
L 629.801725 176.592301 
L 630.45871 175.574443 
L 631.115695 180.481776 
L 631.77268 192.866513 
L 632.429665 190.61399 
L 633.08665 185.300258 
L 633.743635 182.888397 
L 634.40062 188.754469 
L 635.057605 177.258021 
L 635.71459 195.561607 
L 636.371575 206.555804 
L 637.02856 173.474677 
L 637.685545 188.395377 
L 638.34253 200.759519 
L 638.999515 199.550355 
L 639.6565 195.688157 
L 640.313485 189.21881 
L 640.97047 200.892321 
L 641.627455 180.243379 
L 642.28444 191.894134 
L 642.941425 207.960009 
L 643.59841 190.394671 
L 644.255395 185.698772 
L 644.91238 191.056698 
L 645.569365 178.59711 
L 646.22635 173.571352 
L 646.883335 179.010195 
L 647.54032 198.672679 
L 648.197305 187.248454 
L 648.85429 190.266269 
L 649.511275 174.538092 
L 650.16826 175.003753 
L 650.825245 188.369737 
L 651.48223 177.14018 
L 652.139215 191.044325 
L 652.7962 197.144781 
L 653.453185 176.2252 
L 654.11017 185.957493 
L 654.767155 189.451883 
L 655.42414 179.951704 
L 656.081125 164.525358 
L 656.73811 182.830188 
L 657.395095 183.328004 
L 658.05208 172.944019 
L 658.709065 184.099582 
L 659.36605 207.00484 
L 660.023035 177.668999 
L 660.68002 189.210802 
L 661.337005 211.720678 
L 661.99399 200.362312 
L 662.650975 209.598697 
L 663.30796 185.442748 
L 663.964945 166.368513 
L 664.62193 187.461333 
L 665.278915 194.780773 
L 665.9359 181.46052 
L 666.592885 196.025857 
L 667.24987 183.166396 
L 667.906855 185.393553 
L 668.56384 176.561812 
L 669.220825 178.863404 
L 669.87781 175.42521 
L 670.534795 220.662298 
L 671.19178 213.051834 
L 671.848765 203.8438 
L 672.50575 207.284314 
L 673.162735 204.805583 
L 673.81972 200.798417 
L 674.476705 204.063661 
L 675.13369 209.006829 
L 675.790675 199.958966 
L 676.44766 215.342824 
L 677.104645 181.992653 
L 677.76163 218.315982 
L 678.418615 177.899979 
L 679.0756 180.547788 
L 679.732585 175.674848 
L 680.38957 203.147186 
L 681.046555 181.277338 
L 681.70354 214.745375 
L 682.360525 190.394508 
L 683.01751 193.806681 
L 683.674495 188.460302 
L 684.33148 193.301262 
L 684.988465 189.225547 
L 685.64545 188.577479 
L 686.302435 199.03152 
L 686.95942 169.055247 
L 687.616405 199.734107 
L 688.27339 175.784876 
L 688.930375 188.992022 
L 689.58736 216.839982 
L 690.244345 182.047881 
L 690.90133 202.492372 
L 691.558315 200.571955 
L 692.2153 191.781784 
L 692.872285 205.49986 
L 693.52927 200.67889 
L 694.186255 198.217411 
L 694.84324 163.245735 
L 695.500225 186.360442 
L 696.15721 181.597319 
L 696.814195 182.952503 
L 697.47118 195.077121 
L 698.128165 191.434241 
L 698.78515 197.944398 
L 699.442135 200.59436 
L 700.09912 165.387718 
L 700.756105 193.281266 
L 701.41309 188.516527 
L 702.070075 175.487491 
L 702.72706 199.00167 
L 703.384045 180.762882 
L 704.04103 202.650193 
L 704.698015 191.486713 
L 704.698015 191.486713 
" clip-path="url(#pbd011b82dd)" style="fill: none; stroke-dasharray: 5.55,2.4; stroke-dashoffset: 0; stroke: #ff7f0e; stroke-width: 1.5"/>
   </g>
   <g id="patch_3">
    <path d="M 48.37 398.84 
L 48.37 18.08 
" style="fill: none; stroke: #000000; stroke-width: 0.8; stroke-linejoin: miter; stroke-linecap: square"/>
   </g>
   <g id="patch_4">
    <path d="M 705.355 398.84 
L 705.355 18.08 
" style="fill: none; stroke: #000000; stroke-width: 0.8; stroke-linejoin: miter; stroke-linecap: square"/>
   </g>
   <g id="patch_5">
    <path d="M 48.37 398.84 
L 705.355 398.84 
" style="fill: none; stroke: #000000; stroke-width: 0.8; stroke-linejoin: miter; stroke-linecap: square"/>
   </g>
   <g id="patch_6">
    <path d="M 48.37 18.08 
L 705.355 18.08 
" style="fill: none; stroke: #000000; stroke-width: 0.8; stroke-linejoin: miter; stroke-linecap: square"/>
   </g>
   <g id="text_18">
    <!-- dPSO Evolution (Simulation #47) -->
    <g transform="translate(277.902812 12.08) scale(0.12 -0.12)">
     <defs>
      <path id="DejaVuSans-64" d="M 2906 2969 
L 2906 4863 
L 3481 4863 
L 3481 0 
L 2906 0 
L 2906 525 
Q 2725 213 2448 61 
Q 2172 -91 1784 -91 
Q 1150 -91 751 415 
Q 353 922 353 1747 
Q 353 2572 751 3078 
Q 1150 3584 1784 3584 
Q 2172 3584 2448 3432 
Q 2725 3281 2906 2969 
z
M 947 1747 
Q 947 1113 1208 752 
Q 1469 391 1925 391 
Q 2381 391 2643 752 
Q 2906 1113 2906 1747 
Q 2906 2381 2643 2742 
Q 2381 3103 1925 3103 
Q 1469 3103 1208 2742 
Q 947 2381 947 1747 
z
" transform="scale(0.015625)"/>
      <path id="DejaVuSans-50" d="M 1259 4147 
L 1259 2394 
L 2053 2394 
Q 2494 2394 2734 2622 
Q 2975 2850 2975 3272 
Q 2975 3691 2734 3919 
Q 2494 4147 2053 4147 
L 1259 4147 
z
M 628 4666 
L 2053 4666 
Q 2838 4666 3239 4311 
Q 3641 3956 3641 3272 
Q 3641 2581 3239 2228 
Q 2838 1875 2053 1875 
L 1259 1875 
L 1259 0 
L 628 0 
L 628 4666 
z
" transform="scale(0.015625)"/>
      <path id="DejaVuSans-53" d="M 3425 4513 
L 3425 3897 
Q 3066 4069 2747 4153 
Q 2428 4238 2131 4238 
Q 1616 4238 1336 4038 
Q 1056 3838 1056 3469 
Q 1056 3159 1242 3001 
Q 1428 2844 1947 2747 
L 2328 2669 
Q 3034 2534 3370 2195 
Q 3706 1856 3706 1288 
Q 3706 609 3251 259 
Q 2797 -91 1919 -91 
Q 1588 -91 1214 -16 
Q 841 59 441 206 
L 441 856 
Q 825 641 1194 531 
Q 1563 422 1919 422 
Q 2459 422 2753 634 
Q 3047 847 3047 1241 
Q 3047 1584 2836 1778 
Q 2625 1972 2144 2069 
L 1759 2144 
Q 1053 2284 737 2584 
Q 422 2884 422 3419 
Q 422 4038 858 4394 
Q 1294 4750 2059 4750 
Q 2388 4750 2728 4690 
Q 3069 4631 3425 4513 
z
" transform="scale(0.015625)"/>
      <path id="DejaVuSans-45" d="M 628 4666 
L 3578 4666 
L 3578 4134 
L 1259 4134 
L 1259 2753 
L 3481 2753 
L 3481 2222 
L 1259 2222 
L 1259 531 
L 3634 531 
L 3634 0 
L 628 0 
L 628 4666 
z
" transform="scale(0.015625)"/>
      <path id="DejaVuSans-28" d="M 1984 4856 
Q 1566 4138 1362 3434 
Q 1159 2731 1159 2009 
Q 1159 1288 1364 580 
Q 1569 -128 1984 -844 
L 1484 -844 
Q 1016 -109 783 600 
Q 550 1309 550 2009 
Q 550 2706 781 3412 
Q 1013 4119 1484 4856 
L 1984 4856 
z
" transform="scale(0.015625)"/>
      <path id="DejaVuSans-6d" d="M 3328 2828 
Q 3544 3216 3844 3400 
Q 4144 3584 4550 3584 
Q 5097 3584 5394 3201 
Q 5691 2819 5691 2113 
L 5691 0 
L 5113 0 
L 5113 2094 
Q 5113 2597 4934 2840 
Q 4756 3084 4391 3084 
Q 3944 3084 3684 2787 
Q 3425 2491 3425 1978 
L 3425 0 
L 2847 0 
L 2847 2094 
Q 2847 2600 2669 2842 
Q 2491 3084 2119 3084 
Q 1678 3084 1418 2786 
Q 1159 2488 1159 1978 
L 1159 0 
L 581 0 
L 581 3500 
L 1159 3500 
L 1159 2956 
Q 1356 3278 1631 3431 
Q 1906 3584 2284 3584 
Q 2666 3584 2933 3390 
Q 3200 3197 3328 2828 
z
" transform="scale(0.015625)"/>
      <path id="DejaVuSans-23" d="M 3272 2816 
L 2363 2816 
L 2100 1772 
L 3016 1772 
L 3272 2816 
z
M 2803 4594 
L 2478 3297 
L 3391 3297 
L 3719 4594 
L 4219 4594 
L 3897 3297 
L 4872 3297 
L 4872 2816 
L 3775 2816 
L 3519 1772 
L 4513 1772 
L 4513 1294 
L 3397 1294 
L 3072 0 
L 2572 0 
L 2894 1294 
L 1978 1294 
L 1656 0 
L 1153 0 
L 1478 1294 
L 494 1294 
L 494 1772 
L 1594 1772 
L 1856 2816 
L 850 2816 
L 850 3297 
L 1978 3297 
L 2297 4594 
L 2803 4594 
z
" transform="scale(0.015625)"/>
      <path id="DejaVuSans-29" d="M 513 4856 
L 1013 4856 
Q 1481 4119 1714 3412 
Q 1947 2706 1947 2009 
Q 1947 1309 1714 600 
Q 1481 -109 1013 -844 
L 513 -844 
Q 928 -128 1133 580 
Q 1338 1288 1338 2009 
Q 1338 2731 1133 3434 
Q 928 4138 513 4856 
z
" transform="scale(0.015625)"/>
     </defs>
     <use xlink:href="#DejaVuSans-64"/>
     <use xlink:href="#DejaVuSans-50" transform="translate(63.476562 0)"/>
     <use xlink:href="#DejaVuSans-53" transform="translate(123.779297 0)"/>
     <use xlink:href="#DejaVuSans-4f" transform="translate(187.255859 0)"/>
     <use xlink:href="#DejaVuSans-20" transform="translate(265.966797 0)"/>
     <use xlink:href="#DejaVuSans-45" transform="translate(297.753906 0)"/>
     <use xlink:href="#DejaVuSans-76" transform="translate(360.9375 0)"/>
     <use xlink:href="#DejaVuSans-6f" transform="translate(420.117188 0)"/>
     <use xlink:href="#DejaVuSans-6c" transform="translate(481.298828 0)"/>
     <use xlink:href="#DejaVuSans-75" transform="translate(509.082031 0)"/>
     <use xlink:href="#DejaVuSans-74" transform="translate(572.460938 0)"/>
     <use xlink:href="#DejaVuSans-69" transform="translate(611.669922 0)"/>
     <use xlink:href="#DejaVuSans-6f" transform="translate(639.453125 0)"/>
     <use xlink:href="#DejaVuSans-6e" transform="translate(700.634766 0)"/>
     <use xlink:href="#DejaVuSans-20" transform="translate(764.013672 0)"/>
     <use xlink:href="#DejaVuSans-28" transform="translate(795.800781 0)"/>
     <use xlink:href="#DejaVuSans-53" transform="translate(834.814453 0)"/>
     <use xlink:href="#DejaVuSans-69" transform="translate(898.291016 0)"/>
     <use xlink:href="#DejaVuSans-6d" transform="translate(926.074219 0)"/>
     <use xlink:href="#DejaVuSans-75" transform="translate(1023.486328 0)"/>
     <use xlink:href="#DejaVuSans-6c" transform="translate(1086.865234 0)"/>
     <use xlink:href="#DejaVuSans-61" transform="translate(1114.648438 0)"/>
     <use xlink:href="#DejaVuSans-74" transform="translate(1175.927734 0)"/>
     <use xlink:href="#DejaVuSans-69" transform="translate(1215.136719 0)"/>
     <use xlink:href="#DejaVuSans-6f" transform="translate(1242.919922 0)"/>
     <use xlink:href="#DejaVuSans-6e" transform="translate(1304.101562 0)"/>
     <use xlink:href="#DejaVuSans-20" transform="translate(1367.480469 0)"/>
     <use xlink:href="#DejaVuSans-23" transform="translate(1399.267578 0)"/>
     <use xlink:href="#DejaVuSans-34" transform="translate(1483.056641 0)"/>
     <use xlink:href="#DejaVuSans-37" transform="translate(1546.679688 0)"/>
     <use xlink:href="#DejaVuSans-29" transform="translate(1610.302734 0)"/>
    </g>
   </g>
   <g id="legend_1">
    <g id="patch_7">
     <path d="M 549.897187 55.43625 
L 698.355 55.43625 
Q 700.355 55.43625 700.355 53.43625 
L 700.355 25.08 
Q 700.355 23.08 698.355 23.08 
L 549.897187 23.08 
Q 547.897187 23.08 547.897187 25.08 
L 547.897187 53.43625 
Q 547.897187 55.43625 549.897187 55.43625 
z
" style="fill: #ffffff; opacity: 0.8; stroke: #cccccc; stroke-linejoin: miter"/>
    </g>
    <g id="line2d_33">
     <path d="M 551.897187 31.178437 
L 561.897187 31.178437 
L 561.897187 31.178437 
L 571.897187 31.178437 
L 571.897187 31.178437 
" style="fill: none; stroke: #1f77b4; stroke-width: 1.5; stroke-linecap: square"/>
    </g>
    <g id="text_19">
     <!-- Best Fitness (dPSO) -->
     <g transform="translate(579.897187 34.678437) scale(0.1 -0.1)">
      <defs>
       <path id="DejaVuSans-42" d="M 1259 2228 
L 1259 519 
L 2272 519 
Q 2781 519 3026 730 
Q 3272 941 3272 1375 
Q 3272 1813 3026 2020 
Q 2781 2228 2272 2228 
L 1259 2228 
z
M 1259 4147 
L 1259 2741 
L 2194 2741 
Q 2656 2741 2882 2914 
Q 3109 3088 3109 3444 
Q 3109 3797 2882 3972 
Q 2656 4147 2194 4147 
L 1259 4147 
z
M 628 4666 
L 2241 4666 
Q 2963 4666 3353 4366 
Q 3744 4066 3744 3513 
Q 3744 3084 3544 2831 
Q 3344 2578 2956 2516 
Q 3422 2416 3680 2098 
Q 3938 1781 3938 1306 
Q 3938 681 3513 340 
Q 3088 0 2303 0 
L 628 0 
L 628 4666 
z
" transform="scale(0.015625)"/>
       <path id="DejaVuSans-73" d="M 2834 3397 
L 2834 2853 
Q 2591 2978 2328 3040 
Q 2066 3103 1784 3103 
Q 1356 3103 1142 2972 
Q 928 2841 928 2578 
Q 928 2378 1081 2264 
Q 1234 2150 1697 2047 
L 1894 2003 
Q 2506 1872 2764 1633 
Q 3022 1394 3022 966 
Q 3022 478 2636 193 
Q 2250 -91 1575 -91 
Q 1294 -91 989 -36 
Q 684 19 347 128 
L 347 722 
Q 666 556 975 473 
Q 1284 391 1588 391 
Q 1994 391 2212 530 
Q 2431 669 2431 922 
Q 2431 1156 2273 1281 
Q 2116 1406 1581 1522 
L 1381 1569 
Q 847 1681 609 1914 
Q 372 2147 372 2553 
Q 372 3047 722 3315 
Q 1072 3584 1716 3584 
Q 2034 3584 2315 3537 
Q 2597 3491 2834 3397 
z
" transform="scale(0.015625)"/>
       <path id="DejaVuSans-46" d="M 628 4666 
L 3309 4666 
L 3309 4134 
L 1259 4134 
L 1259 2759 
L 3109 2759 
L 3109 2228 
L 1259 2228 
L 1259 0 
L 628 0 
L 628 4666 
z
" transform="scale(0.015625)"/>
      </defs>
      <use xlink:href="#DejaVuSans-42"/>
      <use xlink:href="#DejaVuSans-65" transform="translate(68.603516 0)"/>
      <use xlink:href="#DejaVuSans-73" transform="translate(130.126953 0)"/>
      <use xlink:href="#DejaVuSans-74" transform="translate(182.226562 0)"/>
      <use xlink:href="#DejaVuSans-20" transform="translate(221.435547 0)"/>
      <use xlink:href="#DejaVuSans-46" transform="translate(253.222656 0)"/>
      <use xlink:href="#DejaVuSans-69" transform="translate(303.492188 0)"/>
      <use xlink:href="#DejaVuSans-74" transform="translate(331.275391 0)"/>
      <use xlink:href="#DejaVuSans-6e" transform="translate(370.484375 0)"/>
      <use xlink:href="#DejaVuSans-65" transform="translate(433.863281 0)"/>
      <use xlink:href="#DejaVuSans-73" transform="translate(495.386719 0)"/>
      <use xlink:href="#DejaVuSans-73" transform="translate(547.486328 0)"/>
      <use xlink:href="#DejaVuSans-20" transform="translate(599.585938 0)"/>
      <use xlink:href="#DejaVuSans-28" transform="translate(631.373047 0)"/>
      <use xlink:href="#DejaVuSans-64" transform="translate(670.386719 0)"/>
      <use xlink:href="#DejaVuSans-50" transform="translate(733.863281 0)"/>
      <use xlink:href="#DejaVuSans-53" transform="translate(794.166016 0)"/>
      <use xlink:href="#DejaVuSans-4f" transform="translate(857.642578 0)"/>
      <use xlink:href="#DejaVuSans-29" transform="translate(936.353516 0)"/>
     </g>
    </g>
    <g id="line2d_34">
     <path d="M 551.897187 45.856562 
L 561.897187 45.856562 
L 571.897187 45.856562 
" style="fill: none; stroke-dasharray: 5.55,2.4; stroke-dashoffset: 0; stroke: #ff7f0e; stroke-width: 1.5"/>
    </g>
    <g id="text_20">
     <!-- Average Fitness (dPSO) -->
     <g transform="translate(579.897187 49.356562) scale(0.1 -0.1)">
      <defs>
       <path id="DejaVuSans-41" d="M 2188 4044 
L 1331 1722 
L 3047 1722 
L 2188 4044 
z
M 1831 4666 
L 2547 4666 
L 4325 0 
L 3669 0 
L 3244 1197 
L 1141 1197 
L 716 0 
L 50 0 
L 1831 4666 
z
" transform="scale(0.015625)"/>
       <path id="DejaVuSans-67" d="M 2906 1791 
Q 2906 2416 2648 2759 
Q 2391 3103 1925 3103 
Q 1463 3103 1205 2759 
Q 947 2416 947 1791 
Q 947 1169 1205 825 
Q 1463 481 1925 481 
Q 2391 481 2648 825 
Q 2906 1169 2906 1791 
z
M 3481 434 
Q 3481 -459 3084 -895 
Q 2688 -1331 1869 -1331 
Q 1566 -1331 1297 -1286 
Q 1028 -1241 775 -1147 
L 775 -588 
Q 1028 -725 1275 -790 
Q 1522 -856 1778 -856 
Q 2344 -856 2625 -561 
Q 2906 -266 2906 331 
L 2906 616 
Q 2728 306 2450 153 
Q 2172 0 1784 0 
Q 1141 0 747 490 
Q 353 981 353 1791 
Q 353 2603 747 3093 
Q 1141 3584 1784 3584 
Q 2172 3584 2450 3431 
Q 2728 3278 2906 2969 
L 2906 3500 
L 3481 3500 
L 3481 434 
z
" transform="scale(0.015625)"/>
      </defs>
      <use xlink:href="#DejaVuSans-41"/>
      <use xlink:href="#DejaVuSans-76" transform="translate(62.533203 0)"/>
      <use xlink:href="#DejaVuSans-65" transform="translate(121.712891 0)"/>
      <use xlink:href="#DejaVuSans-72" transform="translate(183.236328 0)"/>
      <use xlink:href="#DejaVuSans-61" transform="translate(224.349609 0)"/>
      <use xlink:href="#DejaVuSans-67" transform="translate(285.628906 0)"/>
      <use xlink:href="#DejaVuSans-65" transform="translate(349.105469 0)"/>
      <use xlink:href="#DejaVuSans-20" transform="translate(410.628906 0)"/>
      <use xlink:href="#DejaVuSans-46" transform="translate(442.416016 0)"/>
      <use xlink:href="#DejaVuSans-69" transform="translate(492.685547 0)"/>
      <use xlink:href="#DejaVuSans-74" transform="translate(520.46875 0)"/>
      <use xlink:href="#DejaVuSans-6e" transform="translate(559.677734 0)"/>
      <use xlink:href="#DejaVuSans-65" transform="translate(623.056641 0)"/>
      <use xlink:href="#DejaVuSans-73" transform="translate(684.580078 0)"/>
      <use xlink:href="#DejaVuSans-73" transform="translate(736.679688 0)"/>
      <use xlink:href="#DejaVuSans-20" transform="translate(788.779297 0)"/>
      <use xlink:href="#DejaVuSans-28" transform="translate(820.566406 0)"/>
      <use xlink:href="#DejaVuSans-64" transform="translate(859.580078 0)"/>
      <use xlink:href="#DejaVuSans-50" transform="translate(923.056641 0)"/>
      <use xlink:href="#DejaVuSans-53" transform="translate(983.359375 0)"/>
      <use xlink:href="#DejaVuSans-4f" transform="translate(1046.835938 0)"/>
      <use xlink:href="#DejaVuSans-29" transform="translate(1125.546875 0)"/>
     </g>
    </g>
   </g>
  </g>
 </g>
 <defs>
  <clipPath id="pbd011b82dd">
   <rect x="48.37" y="18.08" width="656.985" height="380.76"/>
  </clipPath>
 </defs>
</svg>
