<?xml version="1.0" encoding="utf-8" standalone="no"?>
<!DOCTYPE svg PUBLIC "-//W3C//DTD SVG 1.1//EN"
  "http://www.w3.org/Graphics/SVG/1.1/DTD/svg11.dtd">
<svg xmlns:xlink="http://www.w3.org/1999/xlink" width="720pt" height="432pt" viewBox="0 0 720 432" xmlns="http://www.w3.org/2000/svg" version="1.1">
 <metadata>
  <rdf:RDF xmlns:dc="http://purl.org/dc/elements/1.1/" xmlns:cc="http://creativecommons.org/ns#" xmlns:rdf="http://www.w3.org/1999/02/22-rdf-syntax-ns#">
   <cc:Work>
    <dc:type rdf:resource="http://purl.org/dc/dcmitype/StillImage"/>
    <dc:date>2026-05-05T21:10:33.193437</dc:date>
    <dc:format>image/svg+xml</dc:format>
    <dc:creator>
     <cc:Agent>
      <dc:title>Matplotlib v3.10.9, https://matplotlib.org/</dc:title>
     </cc:Agent>
    </dc:creator>
   </cc:Work>
  </rdf:RDF>
 </metadata>
 <defs>
  <style type="text/css">*{stroke-linejoin: round; stroke-linecap: butt}</style>
 </defs>
 <g id="figure_1">
  <g id="patch_1">
   <path d="M 0 432 
L 720 432 
L 720 0 
L 0 0 
z
" style="fill: #ffffff"/>
  </g>
  <g id="axes_1">
   <g id="patch_2">
    <path d="M 48.37 398.84 
L 705.355 398.84 
L 705.355 18.08 
L 48.37 18.08 
z
" style="fill: #ffffff"/>
   </g>
   <g id="matplotlib.axis_1">
    <g id="xtick_1">
     <g id="line2d_1">
      <path d="M 48.37 398.84 
L 48.37 18.08 
" clip-path="url(#p9270cfd8df)" style="fill: none; stroke-dasharray: 0.8,1.32; stroke-dashoffset: 0; stroke: #b0b0b0; stroke-opacity: 0.7; stroke-width: 0.8"/>
     </g>
     <g id="line2d_2">
      <defs>
       <path id="m13675e0372" d="M 0 0 
L 0 3.5 
" style="stroke: #000000; stroke-width: 0.8"/>
      </defs>
      <g>
       <use xlink:href="#m13675e0372" x="48.37" y="398.84" style="stroke: #000000; stroke-width: 0.8"/>
      </g>
     </g>
     <g id="text_1">
      <!-- 0 -->
      <g transform="translate(45.18875 413.438437) scale(0.1 -0.1)">
       <defs>
        <path id="DejaVuSans-30" d="M 2034 4250 
Q 1547 4250 1301 3770 
Q 1056 3291 1056 2328 
Q 1056 1369 1301 889 
Q 1547 409 2034 409 
Q 2525 409 2770 889 
Q 3016 1369 3016 2328 
Q 3016 3291 2770 3770 
Q 2525 4250 2034 4250 
z
M 2034 4750 
Q 2819 4750 3233 4129 
Q 3647 3509 3647 2328 
Q 3647 1150 3233 529 
Q 2819 -91 2034 -91 
Q 1250 -91 836 529 
Q 422 1150 422 2328 
Q 422 3509 836 4129 
Q 1250 4750 2034 4750 
z
" transform="scale(0.015625)"/>
       </defs>
       <use xlink:href="#DejaVuSans-30"/>
      </g>
     </g>
    </g>
    <g id="xtick_2">
     <g id="line2d_3">
      <path d="M 114.0685 398.84 
L 114.0685 18.08 
" clip-path="url(#p9270cfd8df)" style="fill: none; stroke-dasharray: 0.8,1.32; stroke-dashoffset: 0; stroke: #b0b0b0; stroke-opacity: 0.7; stroke-width: 0.8"/>
     </g>
     <g id="line2d_4">
      <g>
       <use xlink:href="#m13675e0372" x="114.0685" y="398.84" style="stroke: #000000; stroke-width: 0.8"/>
      </g>
     </g>
     <g id="text_2">
      <!-- 100 -->
      <g transform="translate(104.52475 413.438437) scale(0.1 -0.1)">
       <defs>
        <path id="DejaVuSans-31" d="M 794 531 
L 1825 531 
L 1825 4091 
L 703 3866 
L 703 4441 
L 1819 4666 
L 2450 4666 
L 2450 531 
L 3481 531 
L 3481 0 
L 794 0 
L 794 531 
z
" transform="scale(0.015625)"/>
       </defs>
       <use xlink:href="#DejaVuSans-31"/>
       <use xlink:href="#DejaVuSans-30" transform="translate(63.623047 0)"/>
       <use xlink:href="#DejaVuSans-30" transform="translate(127.246094 0)"/>
      </g>
     </g>
    </g>
    <g id="xtick_3">
     <g id="line2d_5">
      <path d="M 179.767 398.84 
L 179.767 18.08 
" clip-path="url(#p9270cfd8df)" style="fill: none; stroke-dasharray: 0.8,1.32; stroke-dashoffset: 0; stroke: #b0b0b0; stroke-opacity: 0.7; stroke-width: 0.8"/>
     </g>
     <g id="line2d_6">
      <g>
       <use xlink:href="#m13675e0372" x="179.767" y="398.84" style="stroke: #000000; stroke-width: 0.8"/>
      </g>
     </g>
     <g id="text_3">
      <!-- 200 -->
      <g transform="translate(170.22325 413.438437) scale(0.1 -0.1)">
       <defs>
        <path id="DejaVuSans-32" d="M 1228 531 
L 3431 531 
L 3431 0 
L 469 0 
L 469 531 
Q 828 903 1448 1529 
Q 2069 2156 2228 2338 
Q 2531 2678 2651 2914 
Q 2772 3150 2772 3378 
Q 2772 3750 2511 3984 
Q 2250 4219 1831 4219 
Q 1534 4219 1204 4116 
Q 875 4013 500 3803 
L 500 4441 
Q 881 4594 1212 4672 
Q 1544 4750 1819 4750 
Q 2544 4750 2975 4387 
Q 3406 4025 3406 3419 
Q 3406 3131 3298 2873 
Q 3191 2616 2906 2266 
Q 2828 2175 2409 1742 
Q 1991 1309 1228 531 
z
" transform="scale(0.015625)"/>
       </defs>
       <use xlink:href="#DejaVuSans-32"/>
       <use xlink:href="#DejaVuSans-30" transform="translate(63.623047 0)"/>
       <use xlink:href="#DejaVuSans-30" transform="translate(127.246094 0)"/>
      </g>
     </g>
    </g>
    <g id="xtick_4">
     <g id="line2d_7">
      <path d="M 245.4655 398.84 
L 245.4655 18.08 
" clip-path="url(#p9270cfd8df)" style="fill: none; stroke-dasharray: 0.8,1.32; stroke-dashoffset: 0; stroke: #b0b0b0; stroke-opacity: 0.7; stroke-width: 0.8"/>
     </g>
     <g id="line2d_8">
      <g>
       <use xlink:href="#m13675e0372" x="245.4655" y="398.84" style="stroke: #000000; stroke-width: 0.8"/>
      </g>
     </g>
     <g id="text_4">
      <!-- 300 -->
      <g transform="translate(235.92175 413.438437) scale(0.1 -0.1)">
       <defs>
        <path id="DejaVuSans-33" d="M 2597 2516 
Q 3050 2419 3304 2112 
Q 3559 1806 3559 1356 
Q 3559 666 3084 287 
Q 2609 -91 1734 -91 
Q 1441 -91 1130 -33 
Q 819 25 488 141 
L 488 750 
Q 750 597 1062 519 
Q 1375 441 1716 441 
Q 2309 441 2620 675 
Q 2931 909 2931 1356 
Q 2931 1769 2642 2001 
Q 2353 2234 1838 2234 
L 1294 2234 
L 1294 2753 
L 1863 2753 
Q 2328 2753 2575 2939 
Q 2822 3125 2822 3475 
Q 2822 3834 2567 4026 
Q 2313 4219 1838 4219 
Q 1578 4219 1281 4162 
Q 984 4106 628 3988 
L 628 4550 
Q 988 4650 1302 4700 
Q 1616 4750 1894 4750 
Q 2613 4750 3031 4423 
Q 3450 4097 3450 3541 
Q 3450 3153 3228 2886 
Q 3006 2619 2597 2516 
z
" transform="scale(0.015625)"/>
       </defs>
       <use xlink:href="#DejaVuSans-33"/>
       <use xlink:href="#DejaVuSans-30" transform="translate(63.623047 0)"/>
       <use xlink:href="#DejaVuSans-30" transform="translate(127.246094 0)"/>
      </g>
     </g>
    </g>
    <g id="xtick_5">
     <g id="line2d_9">
      <path d="M 311.164 398.84 
L 311.164 18.08 
" clip-path="url(#p9270cfd8df)" style="fill: none; stroke-dasharray: 0.8,1.32; stroke-dashoffset: 0; stroke: #b0b0b0; stroke-opacity: 0.7; stroke-width: 0.8"/>
     </g>
     <g id="line2d_10">
      <g>
       <use xlink:href="#m13675e0372" x="311.164" y="398.84" style="stroke: #000000; stroke-width: 0.8"/>
      </g>
     </g>
     <g id="text_5">
      <!-- 400 -->
      <g transform="translate(301.62025 413.438437) scale(0.1 -0.1)">
       <defs>
        <path id="DejaVuSans-34" d="M 2419 4116 
L 825 1625 
L 2419 1625 
L 2419 4116 
z
M 2253 4666 
L 3047 4666 
L 3047 1625 
L 3713 1625 
L 3713 1100 
L 3047 1100 
L 3047 0 
L 2419 0 
L 2419 1100 
L 313 1100 
L 313 1709 
L 2253 4666 
z
" transform="scale(0.015625)"/>
       </defs>
       <use xlink:href="#DejaVuSans-34"/>
       <use xlink:href="#DejaVuSans-30" transform="translate(63.623047 0)"/>
       <use xlink:href="#DejaVuSans-30" transform="translate(127.246094 0)"/>
      </g>
     </g>
    </g>
    <g id="xtick_6">
     <g id="line2d_11">
      <path d="M 376.8625 398.84 
L 376.8625 18.08 
" clip-path="url(#p9270cfd8df)" style="fill: none; stroke-dasharray: 0.8,1.32; stroke-dashoffset: 0; stroke: #b0b0b0; stroke-opacity: 0.7; stroke-width: 0.8"/>
     </g>
     <g id="line2d_12">
      <g>
       <use xlink:href="#m13675e0372" x="376.8625" y="398.84" style="stroke: #000000; stroke-width: 0.8"/>
      </g>
     </g>
     <g id="text_6">
      <!-- 500 -->
      <g transform="translate(367.31875 413.438437) scale(0.1 -0.1)">
       <defs>
        <path id="DejaVuSans-35" d="M 691 4666 
L 3169 4666 
L 3169 4134 
L 1269 4134 
L 1269 2991 
Q 1406 3038 1543 3061 
Q 1681 3084 1819 3084 
Q 2600 3084 3056 2656 
Q 3513 2228 3513 1497 
Q 3513 744 3044 326 
Q 2575 -91 1722 -91 
Q 1428 -91 1123 -41 
Q 819 9 494 109 
L 494 744 
Q 775 591 1075 516 
Q 1375 441 1709 441 
Q 2250 441 2565 725 
Q 2881 1009 2881 1497 
Q 2881 1984 2565 2268 
Q 2250 2553 1709 2553 
Q 1456 2553 1204 2497 
Q 953 2441 691 2322 
L 691 4666 
z
" transform="scale(0.015625)"/>
       </defs>
       <use xlink:href="#DejaVuSans-35"/>
       <use xlink:href="#DejaVuSans-30" transform="translate(63.623047 0)"/>
       <use xlink:href="#DejaVuSans-30" transform="translate(127.246094 0)"/>
      </g>
     </g>
    </g>
    <g id="xtick_7">
     <g id="line2d_13">
      <path d="M 442.561 398.84 
L 442.561 18.08 
" clip-path="url(#p9270cfd8df)" style="fill: none; stroke-dasharray: 0.8,1.32; stroke-dashoffset: 0; stroke: #b0b0b0; stroke-opacity: 0.7; stroke-width: 0.8"/>
     </g>
     <g id="line2d_14">
      <g>
       <use xlink:href="#m13675e0372" x="442.561" y="398.84" style="stroke: #000000; stroke-width: 0.8"/>
      </g>
     </g>
     <g id="text_7">
      <!-- 600 -->
      <g transform="translate(433.01725 413.438437) scale(0.1 -0.1)">
       <defs>
        <path id="DejaVuSans-36" d="M 2113 2584 
Q 1688 2584 1439 2293 
Q 1191 2003 1191 1497 
Q 1191 994 1439 701 
Q 1688 409 2113 409 
Q 2538 409 2786 701 
Q 3034 994 3034 1497 
Q 3034 2003 2786 2293 
Q 2538 2584 2113 2584 
z
M 3366 4563 
L 3366 3988 
Q 3128 4100 2886 4159 
Q 2644 4219 2406 4219 
Q 1781 4219 1451 3797 
Q 1122 3375 1075 2522 
Q 1259 2794 1537 2939 
Q 1816 3084 2150 3084 
Q 2853 3084 3261 2657 
Q 3669 2231 3669 1497 
Q 3669 778 3244 343 
Q 2819 -91 2113 -91 
Q 1303 -91 875 529 
Q 447 1150 447 2328 
Q 447 3434 972 4092 
Q 1497 4750 2381 4750 
Q 2619 4750 2861 4703 
Q 3103 4656 3366 4563 
z
" transform="scale(0.015625)"/>
       </defs>
       <use xlink:href="#DejaVuSans-36"/>
       <use xlink:href="#DejaVuSans-30" transform="translate(63.623047 0)"/>
       <use xlink:href="#DejaVuSans-30" transform="translate(127.246094 0)"/>
      </g>
     </g>
    </g>
    <g id="xtick_8">
     <g id="line2d_15">
      <path d="M 508.2595 398.84 
L 508.2595 18.08 
" clip-path="url(#p9270cfd8df)" style="fill: none; stroke-dasharray: 0.8,1.32; stroke-dashoffset: 0; stroke: #b0b0b0; stroke-opacity: 0.7; stroke-width: 0.8"/>
     </g>
     <g id="line2d_16">
      <g>
       <use xlink:href="#m13675e0372" x="508.2595" y="398.84" style="stroke: #000000; stroke-width: 0.8"/>
      </g>
     </g>
     <g id="text_8">
      <!-- 700 -->
      <g transform="translate(498.71575 413.438437) scale(0.1 -0.1)">
       <defs>
        <path id="DejaVuSans-37" d="M 525 4666 
L 3525 4666 
L 3525 4397 
L 1831 0 
L 1172 0 
L 2766 4134 
L 525 4134 
L 525 4666 
z
" transform="scale(0.015625)"/>
       </defs>
       <use xlink:href="#DejaVuSans-37"/>
       <use xlink:href="#DejaVuSans-30" transform="translate(63.623047 0)"/>
       <use xlink:href="#DejaVuSans-30" transform="translate(127.246094 0)"/>
      </g>
     </g>
    </g>
    <g id="xtick_9">
     <g id="line2d_17">
      <path d="M 573.958 398.84 
L 573.958 18.08 
" clip-path="url(#p9270cfd8df)" style="fill: none; stroke-dasharray: 0.8,1.32; stroke-dashoffset: 0; stroke: #b0b0b0; stroke-opacity: 0.7; stroke-width: 0.8"/>
     </g>
     <g id="line2d_18">
      <g>
       <use xlink:href="#m13675e0372" x="573.958" y="398.84" style="stroke: #000000; stroke-width: 0.8"/>
      </g>
     </g>
     <g id="text_9">
      <!-- 800 -->
      <g transform="translate(564.41425 413.438437) scale(0.1 -0.1)">
       <defs>
        <path id="DejaVuSans-38" d="M 2034 2216 
Q 1584 2216 1326 1975 
Q 1069 1734 1069 1313 
Q 1069 891 1326 650 
Q 1584 409 2034 409 
Q 2484 409 2743 651 
Q 3003 894 3003 1313 
Q 3003 1734 2745 1975 
Q 2488 2216 2034 2216 
z
M 1403 2484 
Q 997 2584 770 2862 
Q 544 3141 544 3541 
Q 544 4100 942 4425 
Q 1341 4750 2034 4750 
Q 2731 4750 3128 4425 
Q 3525 4100 3525 3541 
Q 3525 3141 3298 2862 
Q 3072 2584 2669 2484 
Q 3125 2378 3379 2068 
Q 3634 1759 3634 1313 
Q 3634 634 3220 271 
Q 2806 -91 2034 -91 
Q 1263 -91 848 271 
Q 434 634 434 1313 
Q 434 1759 690 2068 
Q 947 2378 1403 2484 
z
M 1172 3481 
Q 1172 3119 1398 2916 
Q 1625 2713 2034 2713 
Q 2441 2713 2670 2916 
Q 2900 3119 2900 3481 
Q 2900 3844 2670 4047 
Q 2441 4250 2034 4250 
Q 1625 4250 1398 4047 
Q 1172 3844 1172 3481 
z
" transform="scale(0.015625)"/>
       </defs>
       <use xlink:href="#DejaVuSans-38"/>
       <use xlink:href="#DejaVuSans-30" transform="translate(63.623047 0)"/>
       <use xlink:href="#DejaVuSans-30" transform="translate(127.246094 0)"/>
      </g>
     </g>
    </g>
    <g id="xtick_10">
     <g id="line2d_19">
      <path d="M 639.6565 398.84 
L 639.6565 18.08 
" clip-path="url(#p9270cfd8df)" style="fill: none; stroke-dasharray: 0.8,1.32; stroke-dashoffset: 0; stroke: #b0b0b0; stroke-opacity: 0.7; stroke-width: 0.8"/>
     </g>
     <g id="line2d_20">
      <g>
       <use xlink:href="#m13675e0372" x="639.6565" y="398.84" style="stroke: #000000; stroke-width: 0.8"/>
      </g>
     </g>
     <g id="text_10">
      <!-- 900 -->
      <g transform="translate(630.11275 413.438437) scale(0.1 -0.1)">
       <defs>
        <path id="DejaVuSans-39" d="M 703 97 
L 703 672 
Q 941 559 1184 500 
Q 1428 441 1663 441 
Q 2288 441 2617 861 
Q 2947 1281 2994 2138 
Q 2813 1869 2534 1725 
Q 2256 1581 1919 1581 
Q 1219 1581 811 2004 
Q 403 2428 403 3163 
Q 403 3881 828 4315 
Q 1253 4750 1959 4750 
Q 2769 4750 3195 4129 
Q 3622 3509 3622 2328 
Q 3622 1225 3098 567 
Q 2575 -91 1691 -91 
Q 1453 -91 1209 -44 
Q 966 3 703 97 
z
M 1959 2075 
Q 2384 2075 2632 2365 
Q 2881 2656 2881 3163 
Q 2881 3666 2632 3958 
Q 2384 4250 1959 4250 
Q 1534 4250 1286 3958 
Q 1038 3666 1038 3163 
Q 1038 2656 1286 2365 
Q 1534 2075 1959 2075 
z
" transform="scale(0.015625)"/>
       </defs>
       <use xlink:href="#DejaVuSans-39"/>
       <use xlink:href="#DejaVuSans-30" transform="translate(63.623047 0)"/>
       <use xlink:href="#DejaVuSans-30" transform="translate(127.246094 0)"/>
      </g>
     </g>
    </g>
    <g id="xtick_11">
     <g id="line2d_21">
      <path d="M 705.355 398.84 
L 705.355 18.08 
" clip-path="url(#p9270cfd8df)" style="fill: none; stroke-dasharray: 0.8,1.32; stroke-dashoffset: 0; stroke: #b0b0b0; stroke-opacity: 0.7; stroke-width: 0.8"/>
     </g>
     <g id="line2d_22">
      <g>
       <use xlink:href="#m13675e0372" x="705.355" y="398.84" style="stroke: #000000; stroke-width: 0.8"/>
      </g>
     </g>
     <g id="text_11">
      <!-- 1000 -->
      <g transform="translate(692.63 413.438437) scale(0.1 -0.1)">
       <use xlink:href="#DejaVuSans-31"/>
       <use xlink:href="#DejaVuSans-30" transform="translate(63.623047 0)"/>
       <use xlink:href="#DejaVuSans-30" transform="translate(127.246094 0)"/>
       <use xlink:href="#DejaVuSans-30" transform="translate(190.869141 0)"/>
      </g>
     </g>
    </g>
    <g id="text_12">
     <!-- Iteration / Generation -->
     <g transform="translate(322.898438 427.116562) scale(0.1 -0.1)">
      <defs>
       <path id="DejaVuSans-49" d="M 628 4666 
L 1259 4666 
L 1259 0 
L 628 0 
L 628 4666 
z
" transform="scale(0.015625)"/>
       <path id="DejaVuSans-74" d="M 1172 4494 
L 1172 3500 
L 2356 3500 
L 2356 3053 
L 1172 3053 
L 1172 1153 
Q 1172 725 1289 603 
Q 1406 481 1766 481 
L 2356 481 
L 2356 0 
L 1766 0 
Q 1100 0 847 248 
Q 594 497 594 1153 
L 594 3053 
L 172 3053 
L 172 3500 
L 594 3500 
L 594 4494 
L 1172 4494 
z
" transform="scale(0.015625)"/>
       <path id="DejaVuSans-65" d="M 3597 1894 
L 3597 1613 
L 953 1613 
Q 991 1019 1311 708 
Q 1631 397 2203 397 
Q 2534 397 2845 478 
Q 3156 559 3463 722 
L 3463 178 
Q 3153 47 2828 -22 
Q 2503 -91 2169 -91 
Q 1331 -91 842 396 
Q 353 884 353 1716 
Q 353 2575 817 3079 
Q 1281 3584 2069 3584 
Q 2775 3584 3186 3129 
Q 3597 2675 3597 1894 
z
M 3022 2063 
Q 3016 2534 2758 2815 
Q 2500 3097 2075 3097 
Q 1594 3097 1305 2825 
Q 1016 2553 972 2059 
L 3022 2063 
z
" transform="scale(0.015625)"/>
       <path id="DejaVuSans-72" d="M 2631 2963 
Q 2534 3019 2420 3045 
Q 2306 3072 2169 3072 
Q 1681 3072 1420 2755 
Q 1159 2438 1159 1844 
L 1159 0 
L 581 0 
L 581 3500 
L 1159 3500 
L 1159 2956 
Q 1341 3275 1631 3429 
Q 1922 3584 2338 3584 
Q 2397 3584 2469 3576 
Q 2541 3569 2628 3553 
L 2631 2963 
z
" transform="scale(0.015625)"/>
       <path id="DejaVuSans-61" d="M 2194 1759 
Q 1497 1759 1228 1600 
Q 959 1441 959 1056 
Q 959 750 1161 570 
Q 1363 391 1709 391 
Q 2188 391 2477 730 
Q 2766 1069 2766 1631 
L 2766 1759 
L 2194 1759 
z
M 3341 1997 
L 3341 0 
L 2766 0 
L 2766 531 
Q 2569 213 2275 61 
Q 1981 -91 1556 -91 
Q 1019 -91 701 211 
Q 384 513 384 1019 
Q 384 1609 779 1909 
Q 1175 2209 1959 2209 
L 2766 2209 
L 2766 2266 
Q 2766 2663 2505 2880 
Q 2244 3097 1772 3097 
Q 1472 3097 1187 3025 
Q 903 2953 641 2809 
L 641 3341 
Q 956 3463 1253 3523 
Q 1550 3584 1831 3584 
Q 2591 3584 2966 3190 
Q 3341 2797 3341 1997 
z
" transform="scale(0.015625)"/>
       <path id="DejaVuSans-69" d="M 603 3500 
L 1178 3500 
L 1178 0 
L 603 0 
L 603 3500 
z
M 603 4863 
L 1178 4863 
L 1178 4134 
L 603 4134 
L 603 4863 
z
" transform="scale(0.015625)"/>
       <path id="DejaVuSans-6f" d="M 1959 3097 
Q 1497 3097 1228 2736 
Q 959 2375 959 1747 
Q 959 1119 1226 758 
Q 1494 397 1959 397 
Q 2419 397 2687 759 
Q 2956 1122 2956 1747 
Q 2956 2369 2687 2733 
Q 2419 3097 1959 3097 
z
M 1959 3584 
Q 2709 3584 3137 3096 
Q 3566 2609 3566 1747 
Q 3566 888 3137 398 
Q 2709 -91 1959 -91 
Q 1206 -91 779 398 
Q 353 888 353 1747 
Q 353 2609 779 3096 
Q 1206 3584 1959 3584 
z
" transform="scale(0.015625)"/>
       <path id="DejaVuSans-6e" d="M 3513 2113 
L 3513 0 
L 2938 0 
L 2938 2094 
Q 2938 2591 2744 2837 
Q 2550 3084 2163 3084 
Q 1697 3084 1428 2787 
Q 1159 2491 1159 1978 
L 1159 0 
L 581 0 
L 581 3500 
L 1159 3500 
L 1159 2956 
Q 1366 3272 1645 3428 
Q 1925 3584 2291 3584 
Q 2894 3584 3203 3211 
Q 3513 2838 3513 2113 
z
" transform="scale(0.015625)"/>
       <path id="DejaVuSans-20" transform="scale(0.015625)"/>
       <path id="DejaVuSans-2f" d="M 1625 4666 
L 2156 4666 
L 531 -594 
L 0 -594 
L 1625 4666 
z
" transform="scale(0.015625)"/>
       <path id="DejaVuSans-47" d="M 3809 666 
L 3809 1919 
L 2778 1919 
L 2778 2438 
L 4434 2438 
L 4434 434 
Q 4069 175 3628 42 
Q 3188 -91 2688 -91 
Q 1594 -91 976 548 
Q 359 1188 359 2328 
Q 359 3472 976 4111 
Q 1594 4750 2688 4750 
Q 3144 4750 3555 4637 
Q 3966 4525 4313 4306 
L 4313 3634 
Q 3963 3931 3569 4081 
Q 3175 4231 2741 4231 
Q 1884 4231 1454 3753 
Q 1025 3275 1025 2328 
Q 1025 1384 1454 906 
Q 1884 428 2741 428 
Q 3075 428 3337 486 
Q 3600 544 3809 666 
z
" transform="scale(0.015625)"/>
      </defs>
      <use xlink:href="#DejaVuSans-49"/>
      <use xlink:href="#DejaVuSans-74" transform="translate(29.492188 0)"/>
      <use xlink:href="#DejaVuSans-65" transform="translate(68.701172 0)"/>
      <use xlink:href="#DejaVuSans-72" transform="translate(130.224609 0)"/>
      <use xlink:href="#DejaVuSans-61" transform="translate(171.337891 0)"/>
      <use xlink:href="#DejaVuSans-74" transform="translate(232.617188 0)"/>
      <use xlink:href="#DejaVuSans-69" transform="translate(271.826172 0)"/>
      <use xlink:href="#DejaVuSans-6f" transform="translate(299.609375 0)"/>
      <use xlink:href="#DejaVuSans-6e" transform="translate(360.791016 0)"/>
      <use xlink:href="#DejaVuSans-20" transform="translate(424.169922 0)"/>
      <use xlink:href="#DejaVuSans-2f" transform="translate(455.957031 0)"/>
      <use xlink:href="#DejaVuSans-20" transform="translate(489.648438 0)"/>
      <use xlink:href="#DejaVuSans-47" transform="translate(521.435547 0)"/>
      <use xlink:href="#DejaVuSans-65" transform="translate(598.925781 0)"/>
      <use xlink:href="#DejaVuSans-6e" transform="translate(660.449219 0)"/>
      <use xlink:href="#DejaVuSans-65" transform="translate(723.828125 0)"/>
      <use xlink:href="#DejaVuSans-72" transform="translate(785.351562 0)"/>
      <use xlink:href="#DejaVuSans-61" transform="translate(826.464844 0)"/>
      <use xlink:href="#DejaVuSans-74" transform="translate(887.744141 0)"/>
      <use xlink:href="#DejaVuSans-69" transform="translate(926.953125 0)"/>
      <use xlink:href="#DejaVuSans-6f" transform="translate(954.736328 0)"/>
      <use xlink:href="#DejaVuSans-6e" transform="translate(1015.917969 0)"/>
     </g>
    </g>
   </g>
   <g id="matplotlib.axis_2">
    <g id="ytick_1">
     <g id="line2d_23">
      <path d="M 48.37 339.44222 
L 705.355 339.44222 
" clip-path="url(#p9270cfd8df)" style="fill: none; stroke-dasharray: 0.8,1.32; stroke-dashoffset: 0; stroke: #b0b0b0; stroke-opacity: 0.7; stroke-width: 0.8"/>
     </g>
     <g id="line2d_24">
      <defs>
       <path id="m2bcc595392" d="M 0 0 
L -3.5 0 
" style="stroke: #000000; stroke-width: 0.8"/>
      </defs>
      <g>
       <use xlink:href="#m2bcc595392" x="48.37" y="339.44222" style="stroke: #000000; stroke-width: 0.8"/>
      </g>
     </g>
     <g id="text_13">
      <!-- 1500 -->
      <g transform="translate(15.92 343.241439) scale(0.1 -0.1)">
       <use xlink:href="#DejaVuSans-31"/>
       <use xlink:href="#DejaVuSans-35" transform="translate(63.623047 0)"/>
       <use xlink:href="#DejaVuSans-30" transform="translate(127.246094 0)"/>
       <use xlink:href="#DejaVuSans-30" transform="translate(190.869141 0)"/>
      </g>
     </g>
    </g>
    <g id="ytick_2">
     <g id="line2d_25">
      <path d="M 48.37 274.738804 
L 705.355 274.738804 
" clip-path="url(#p9270cfd8df)" style="fill: none; stroke-dasharray: 0.8,1.32; stroke-dashoffset: 0; stroke: #b0b0b0; stroke-opacity: 0.7; stroke-width: 0.8"/>
     </g>
     <g id="line2d_26">
      <g>
       <use xlink:href="#m2bcc595392" x="48.37" y="274.738804" style="stroke: #000000; stroke-width: 0.8"/>
      </g>
     </g>
     <g id="text_14">
      <!-- 2000 -->
      <g transform="translate(15.92 278.538023) scale(0.1 -0.1)">
       <use xlink:href="#DejaVuSans-32"/>
       <use xlink:href="#DejaVuSans-30" transform="translate(63.623047 0)"/>
       <use xlink:href="#DejaVuSans-30" transform="translate(127.246094 0)"/>
       <use xlink:href="#DejaVuSans-30" transform="translate(190.869141 0)"/>
      </g>
     </g>
    </g>
    <g id="ytick_3">
     <g id="line2d_27">
      <path d="M 48.37 210.035388 
L 705.355 210.035388 
" clip-path="url(#p9270cfd8df)" style="fill: none; stroke-dasharray: 0.8,1.32; stroke-dashoffset: 0; stroke: #b0b0b0; stroke-opacity: 0.7; stroke-width: 0.8"/>
     </g>
     <g id="line2d_28">
      <g>
       <use xlink:href="#m2bcc595392" x="48.37" y="210.035388" style="stroke: #000000; stroke-width: 0.8"/>
      </g>
     </g>
     <g id="text_15">
      <!-- 2500 -->
      <g transform="translate(15.92 213.834607) scale(0.1 -0.1)">
       <use xlink:href="#DejaVuSans-32"/>
       <use xlink:href="#DejaVuSans-35" transform="translate(63.623047 0)"/>
       <use xlink:href="#DejaVuSans-30" transform="translate(127.246094 0)"/>
       <use xlink:href="#DejaVuSans-30" transform="translate(190.869141 0)"/>
      </g>
     </g>
    </g>
    <g id="ytick_4">
     <g id="line2d_29">
      <path d="M 48.37 145.331972 
L 705.355 145.331972 
" clip-path="url(#p9270cfd8df)" style="fill: none; stroke-dasharray: 0.8,1.32; stroke-dashoffset: 0; stroke: #b0b0b0; stroke-opacity: 0.7; stroke-width: 0.8"/>
     </g>
     <g id="line2d_30">
      <g>
       <use xlink:href="#m2bcc595392" x="48.37" y="145.331972" style="stroke: #000000; stroke-width: 0.8"/>
      </g>
     </g>
     <g id="text_16">
      <!-- 3000 -->
      <g transform="translate(15.92 149.131191) scale(0.1 -0.1)">
       <use xlink:href="#DejaVuSans-33"/>
       <use xlink:href="#DejaVuSans-30" transform="translate(63.623047 0)"/>
       <use xlink:href="#DejaVuSans-30" transform="translate(127.246094 0)"/>
       <use xlink:href="#DejaVuSans-30" transform="translate(190.869141 0)"/>
      </g>
     </g>
    </g>
    <g id="ytick_5">
     <g id="line2d_31">
      <path d="M 48.37 80.628556 
L 705.355 80.628556 
" clip-path="url(#p9270cfd8df)" style="fill: none; stroke-dasharray: 0.8,1.32; stroke-dashoffset: 0; stroke: #b0b0b0; stroke-opacity: 0.7; stroke-width: 0.8"/>
     </g>
     <g id="line2d_32">
      <g>
       <use xlink:href="#m2bcc595392" x="48.37" y="80.628556" style="stroke: #000000; stroke-width: 0.8"/>
      </g>
     </g>
     <g id="text_17">
      <!-- 3500 -->
      <g transform="translate(15.92 84.427775) scale(0.1 -0.1)">
       <use xlink:href="#DejaVuSans-33"/>
       <use xlink:href="#DejaVuSans-35" transform="translate(63.623047 0)"/>
       <use xlink:href="#DejaVuSans-30" transform="translate(127.246094 0)"/>
       <use xlink:href="#DejaVuSans-30" transform="translate(190.869141 0)"/>
      </g>
     </g>
    </g>
    <g id="text_18">
     <!-- Objective Value -->
     <g transform="translate(9.840312 247.490469) rotate(-90) scale(0.1 -0.1)">
      <defs>
       <path id="DejaVuSans-4f" d="M 2522 4238 
Q 1834 4238 1429 3725 
Q 1025 3213 1025 2328 
Q 1025 1447 1429 934 
Q 1834 422 2522 422 
Q 3209 422 3611 934 
Q 4013 1447 4013 2328 
Q 4013 3213 3611 3725 
Q 3209 4238 2522 4238 
z
M 2522 4750 
Q 3503 4750 4090 4092 
Q 4678 3434 4678 2328 
Q 4678 1225 4090 567 
Q 3503 -91 2522 -91 
Q 1538 -91 948 565 
Q 359 1222 359 2328 
Q 359 3434 948 4092 
Q 1538 4750 2522 4750 
z
" transform="scale(0.015625)"/>
       <path id="DejaVuSans-62" d="M 3116 1747 
Q 3116 2381 2855 2742 
Q 2594 3103 2138 3103 
Q 1681 3103 1420 2742 
Q 1159 2381 1159 1747 
Q 1159 1113 1420 752 
Q 1681 391 2138 391 
Q 2594 391 2855 752 
Q 3116 1113 3116 1747 
z
M 1159 2969 
Q 1341 3281 1617 3432 
Q 1894 3584 2278 3584 
Q 2916 3584 3314 3078 
Q 3713 2572 3713 1747 
Q 3713 922 3314 415 
Q 2916 -91 2278 -91 
Q 1894 -91 1617 61 
Q 1341 213 1159 525 
L 1159 0 
L 581 0 
L 581 4863 
L 1159 4863 
L 1159 2969 
z
" transform="scale(0.015625)"/>
       <path id="DejaVuSans-6a" d="M 603 3500 
L 1178 3500 
L 1178 -63 
Q 1178 -731 923 -1031 
Q 669 -1331 103 -1331 
L -116 -1331 
L -116 -844 
L 38 -844 
Q 366 -844 484 -692 
Q 603 -541 603 -63 
L 603 3500 
z
M 603 4863 
L 1178 4863 
L 1178 4134 
L 603 4134 
L 603 4863 
z
" transform="scale(0.015625)"/>
       <path id="DejaVuSans-63" d="M 3122 3366 
L 3122 2828 
Q 2878 2963 2633 3030 
Q 2388 3097 2138 3097 
Q 1578 3097 1268 2742 
Q 959 2388 959 1747 
Q 959 1106 1268 751 
Q 1578 397 2138 397 
Q 2388 397 2633 464 
Q 2878 531 3122 666 
L 3122 134 
Q 2881 22 2623 -34 
Q 2366 -91 2075 -91 
Q 1284 -91 818 406 
Q 353 903 353 1747 
Q 353 2603 823 3093 
Q 1294 3584 2113 3584 
Q 2378 3584 2631 3529 
Q 2884 3475 3122 3366 
z
" transform="scale(0.015625)"/>
       <path id="DejaVuSans-76" d="M 191 3500 
L 800 3500 
L 1894 563 
L 2988 3500 
L 3597 3500 
L 2284 0 
L 1503 0 
L 191 3500 
z
" transform="scale(0.015625)"/>
       <path id="DejaVuSans-56" d="M 1831 0 
L 50 4666 
L 709 4666 
L 2188 738 
L 3669 4666 
L 4325 4666 
L 2547 0 
L 1831 0 
z
" transform="scale(0.015625)"/>
       <path id="DejaVuSans-6c" d="M 603 4863 
L 1178 4863 
L 1178 0 
L 603 0 
L 603 4863 
z
" transform="scale(0.015625)"/>
       <path id="DejaVuSans-75" d="M 544 1381 
L 544 3500 
L 1119 3500 
L 1119 1403 
Q 1119 906 1312 657 
Q 1506 409 1894 409 
Q 2359 409 2629 706 
Q 2900 1003 2900 1516 
L 2900 3500 
L 3475 3500 
L 3475 0 
L 2900 0 
L 2900 538 
Q 2691 219 2414 64 
Q 2138 -91 1772 -91 
Q 1169 -91 856 284 
Q 544 659 544 1381 
z
M 1991 3584 
L 1991 3584 
z
" transform="scale(0.015625)"/>
      </defs>
      <use xlink:href="#DejaVuSans-4f"/>
      <use xlink:href="#DejaVuSans-62" transform="translate(78.710938 0)"/>
      <use xlink:href="#DejaVuSans-6a" transform="translate(142.1875 0)"/>
      <use xlink:href="#DejaVuSans-65" transform="translate(169.970703 0)"/>
      <use xlink:href="#DejaVuSans-63" transform="translate(231.494141 0)"/>
      <use xlink:href="#DejaVuSans-74" transform="translate(286.474609 0)"/>
      <use xlink:href="#DejaVuSans-69" transform="translate(325.683594 0)"/>
      <use xlink:href="#DejaVuSans-76" transform="translate(353.466797 0)"/>
      <use xlink:href="#DejaVuSans-65" transform="translate(412.646484 0)"/>
      <use xlink:href="#DejaVuSans-20" transform="translate(474.169922 0)"/>
      <use xlink:href="#DejaVuSans-56" transform="translate(505.957031 0)"/>
      <use xlink:href="#DejaVuSans-61" transform="translate(566.615234 0)"/>
      <use xlink:href="#DejaVuSans-6c" transform="translate(627.894531 0)"/>
      <use xlink:href="#DejaVuSans-75" transform="translate(655.677734 0)"/>
      <use xlink:href="#DejaVuSans-65" transform="translate(719.056641 0)"/>
     </g>
    </g>
   </g>
   <g id="line2d_33">
    <path d="M 48.37 230.915581 
L 49.026985 230.915581 
L 49.026985 233.452182 
L 51.654925 233.452182 
L 51.654925 247.316892 
L 52.968895 247.316892 
L 52.968895 287.170808 
L 57.56779 287.170808 
L 57.56779 289.608019 
L 70.050505 289.608019 
L 70.050505 301.197906 
L 76.620355 301.197906 
L 76.620355 317.404249 
L 85.16116 317.404249 
L 85.16116 333.49609 
L 171.226195 333.49609 
L 171.226195 357.849517 
L 306.565105 357.849517 
L 306.565105 365.742972 
L 422.194465 365.742972 
L 422.194465 367.11 
L 704.698015 367.11 
L 704.698015 367.11 
" clip-path="url(#p9270cfd8df)" style="fill: none; stroke: #1f77b4; stroke-width: 1.5; stroke-linecap: square"/>
   </g>
   <g id="line2d_34">
    <path d="M 48.37 150.757854 
L 49.026985 119.105335 
L 49.68397 100.364708 
L 50.340955 91.986382 
L 50.99794 61.770877 
L 51.654925 66.525735 
L 52.31191 80.457099 
L 52.968895 55.76799 
L 53.62588 79.256936 
L 54.282865 77.776095 
L 54.93985 82.923776 
L 55.596835 66.785925 
L 56.25382 114.516908 
L 56.910805 125.491344 
L 57.56779 124.843131 
L 58.224775 119.621525 
L 58.88176 136.844042 
L 60.19573 110.441614 
L 60.852715 114.15675 
L 61.5097 81.937436 
L 62.166685 90.315303 
L 62.82367 84.576794 
L 63.480655 74.343748 
L 64.13764 108.515676 
L 64.794625 100.154113 
L 65.45161 82.294997 
L 66.108595 83.451932 
L 66.76558 72.035044 
L 67.422565 72.69931 
L 68.07955 65.773129 
L 68.736535 98.856336 
L 69.39352 121.759358 
L 70.050505 128.302156 
L 70.70749 94.104773 
L 71.364475 127.872439 
L 72.02146 107.28848 
L 72.678445 57.964187 
L 73.33543 85.771581 
L 73.992415 94.11632 
L 74.6494 71.719166 
L 75.306385 71.752728 
L 75.96337 94.166309 
L 76.620355 87.237052 
L 77.27734 54.239678 
L 77.934325 125.407464 
L 78.59131 93.164686 
L 79.248295 119.447251 
L 79.90528 117.328098 
L 80.562265 116.705005 
L 81.21925 105.398771 
L 81.876235 130.537573 
L 82.53322 100.64529 
L 83.190205 129.685783 
L 83.84719 109.033303 
L 84.504175 172.282591 
L 85.16116 134.737112 
L 85.818145 148.037507 
L 86.47513 140.92826 
L 87.132115 97.728546 
L 87.7891 108.240134 
L 88.446085 142.408017 
L 89.10307 117.933238 
L 89.760055 121.63224 
L 90.41704 82.183446 
L 91.074025 70.826254 
L 91.73101 81.024849 
L 92.387995 76.300283 
L 93.04498 82.201257 
L 93.701965 123.326273 
L 94.35895 104.104856 
L 95.015935 98.384853 
L 95.67292 80.662499 
L 96.329905 101.655326 
L 97.643875 149.119311 
L 98.30086 115.831907 
L 98.957845 128.6205 
L 99.61483 123.389626 
L 100.271815 156.032011 
L 100.9288 130.71494 
L 101.585785 148.909164 
L 102.24277 150.407447 
L 102.899755 135.209638 
L 103.55674 102.382602 
L 104.213725 113.956977 
L 104.87071 91.803278 
L 105.527695 115.712431 
L 106.18468 121.779834 
L 106.841665 130.401525 
L 107.49865 124.447392 
L 108.155635 101.130356 
L 109.469605 132.883223 
L 110.12659 120.969675 
L 110.783575 126.257071 
L 111.44056 102.292882 
L 112.097545 111.054916 
L 112.75453 117.987185 
L 113.411515 103.709325 
L 114.725485 128.125696 
L 115.38247 106.46215 
L 116.039455 139.774943 
L 116.69644 124.23003 
L 117.353425 100.446093 
L 118.01041 106.207274 
L 118.667395 131.964537 
L 119.32438 136.384416 
L 119.981365 125.47935 
L 120.63835 107.714297 
L 121.295335 106.77951 
L 121.95232 117.57979 
L 122.609305 113.423438 
L 123.26629 131.025965 
L 123.923275 131.378856 
L 125.237245 78.033011 
L 125.89423 107.092653 
L 126.551215 97.106862 
L 127.2082 136.051556 
L 127.865185 99.644845 
L 128.52217 87.450032 
L 129.179155 90.218162 
L 129.83614 102.220102 
L 130.493125 120.85299 
L 131.15011 100.171393 
L 131.807095 134.487446 
L 132.46408 104.776175 
L 133.121065 117.832196 
L 133.77805 157.473415 
L 134.435035 138.843989 
L 135.09202 156.45194 
L 135.749005 94.614957 
L 136.40599 128.889883 
L 137.062975 144.647547 
L 137.71996 138.838269 
L 138.376945 145.861461 
L 139.03393 115.678477 
L 139.690915 108.680952 
L 140.3479 90.442937 
L 141.004885 67.602061 
L 141.66187 75.164585 
L 142.318855 106.10027 
L 142.97584 120.598134 
L 143.632825 92.784433 
L 144.28981 106.535196 
L 144.946795 139.034821 
L 145.60378 111.564713 
L 146.260765 111.725016 
L 146.91775 95.840899 
L 147.574735 140.20738 
L 148.23172 93.996525 
L 148.888705 92.781856 
L 149.54569 117.233944 
L 150.202675 130.323496 
L 150.85966 110.330718 
L 151.516645 103.151987 
L 152.17363 112.914301 
L 152.830615 132.814386 
L 153.4876 141.173386 
L 154.144585 101.68026 
L 154.80157 92.890909 
L 155.458555 58.033112 
L 156.11554 137.672994 
L 156.772525 120.812236 
L 157.42951 117.996772 
L 158.086495 136.828082 
L 158.74348 137.000983 
L 159.400465 149.436969 
L 160.05745 177.246623 
L 160.714435 145.093311 
L 161.37142 135.671865 
L 162.028405 128.67207 
L 162.68539 145.854235 
L 163.342375 102.50331 
L 163.99936 98.801452 
L 164.656345 143.356213 
L 165.31333 132.599577 
L 165.970315 136.321357 
L 166.6273 119.92076 
L 167.284285 136.912371 
L 167.94127 118.859187 
L 168.598255 137.836901 
L 169.25524 141.583109 
L 169.912225 142.408767 
L 170.56921 139.873617 
L 171.226195 141.875712 
L 171.88318 120.611756 
L 172.540165 106.704601 
L 173.19715 88.829095 
L 173.854135 103.387374 
L 174.51112 111.709146 
L 175.168105 159.720806 
L 175.82509 127.25424 
L 176.482075 106.972788 
L 177.13906 120.832188 
L 177.796045 124.785583 
L 178.45303 95.709423 
L 179.110015 112.324059 
L 179.767 83.696782 
L 180.423985 86.526312 
L 181.08097 72.306487 
L 181.737955 82.499941 
L 182.39494 89.268125 
L 183.051925 98.761802 
L 183.70891 124.240446 
L 184.365895 129.791649 
L 185.02288 123.499455 
L 185.679865 87.358533 
L 186.33685 85.074116 
L 186.993835 111.123374 
L 187.65082 119.805342 
L 188.307805 115.884686 
L 188.96479 102.967899 
L 189.621775 132.161996 
L 190.27876 130.31277 
L 190.935745 129.734521 
L 191.59273 119.76265 
L 192.249715 122.108681 
L 192.9067 89.517134 
L 193.563685 151.428165 
L 194.22067 117.687622 
L 194.877655 128.795504 
L 195.53464 128.787034 
L 196.191625 117.283206 
L 196.84861 137.079444 
L 197.505595 151.656222 
L 198.16258 127.37319 
L 198.819565 132.342542 
L 200.133535 144.255066 
L 200.79052 161.871189 
L 201.447505 171.740802 
L 202.10449 143.969884 
L 202.761475 134.801795 
L 203.41846 122.390827 
L 204.075445 141.71618 
L 204.73243 131.987272 
L 205.389415 137.382351 
L 206.0464 94.66969 
L 206.703385 129.92685 
L 207.36037 144.320337 
L 208.017355 154.369077 
L 208.67434 150.502792 
L 209.331325 91.680364 
L 209.98831 118.366888 
L 210.645295 137.72665 
L 211.30228 102.927371 
L 211.959265 141.914779 
L 212.61625 154.363044 
L 213.273235 160.489134 
L 213.93022 155.852022 
L 214.587205 138.904968 
L 215.24419 134.197242 
L 215.901175 133.020012 
L 216.55816 141.117045 
L 217.215145 120.205294 
L 217.87213 126.205111 
L 218.529115 118.634222 
L 219.1861 127.636833 
L 219.843085 162.145597 
L 220.50007 154.961845 
L 221.157055 164.661773 
L 221.81404 151.79376 
L 222.471025 164.279155 
L 223.784995 111.933521 
L 224.44198 99.121004 
L 225.098965 102.795486 
L 225.75595 84.369518 
L 226.412935 101.534778 
L 227.06992 127.30924 
L 227.726905 112.059645 
L 228.38389 115.714105 
L 229.040875 104.637787 
L 229.69786 117.547519 
L 230.354845 105.651113 
L 231.01183 105.910438 
L 231.668815 79.513213 
L 232.982785 144.466456 
L 233.63977 80.449557 
L 234.296755 62.050129 
L 234.95374 80.630242 
L 235.610725 93.442459 
L 236.26771 109.271787 
L 236.924695 145.830832 
L 237.58168 138.303586 
L 238.238665 161.765729 
L 238.89565 171.069707 
L 239.552635 168.664786 
L 240.20962 171.356809 
L 240.866605 169.346319 
L 242.180575 164.278306 
L 242.83756 186.079705 
L 244.15153 141.96071 
L 244.808515 121.168045 
L 245.4655 155.693254 
L 246.122485 181.855405 
L 246.77947 166.739888 
L 247.436455 123.606159 
L 248.09344 126.527437 
L 248.750425 144.477166 
L 249.40741 174.024679 
L 250.064395 145.728404 
L 251.378365 157.260617 
L 252.03535 160.913678 
L 252.692335 156.752976 
L 253.34932 175.729054 
L 254.006305 161.677009 
L 254.66329 176.942924 
L 255.320275 140.612227 
L 255.97726 116.148151 
L 256.634245 112.231105 
L 257.29123 123.602422 
L 257.948215 151.361727 
L 258.6052 148.520316 
L 259.262185 178.929412 
L 259.91917 153.377303 
L 260.576155 156.94097 
L 261.23314 170.85351 
L 261.890125 171.840092 
L 262.54711 165.804228 
L 263.204095 152.840643 
L 263.86108 114.166943 
L 264.518065 126.790758 
L 265.832035 137.258836 
L 266.48902 73.125234 
L 267.80299 184.961105 
L 268.459975 175.212584 
L 269.11696 138.271319 
L 269.773945 135.808089 
L 270.43093 129.562599 
L 271.087915 113.550066 
L 271.7449 131.184691 
L 272.401885 129.17708 
L 273.05887 114.500349 
L 273.715855 120.362448 
L 274.37284 137.375658 
L 275.029825 159.244486 
L 275.68681 160.846445 
L 276.343795 119.230572 
L 277.00078 141.464415 
L 277.657765 103.700054 
L 278.31475 109.911076 
L 278.971735 165.580546 
L 279.62872 128.210495 
L 280.285705 106.057348 
L 280.94269 105.761555 
L 281.599675 115.779098 
L 282.25666 111.426134 
L 282.913645 115.681078 
L 283.57063 126.935158 
L 284.227615 130.120488 
L 284.8846 158.703443 
L 285.541585 169.085709 
L 286.855555 112.132801 
L 287.51254 131.849335 
L 288.169525 144.426606 
L 288.82651 108.502557 
L 290.14048 95.000244 
L 290.797465 139.012667 
L 291.45445 102.358686 
L 292.111435 121.339982 
L 292.76842 111.006069 
L 293.425405 106.697776 
L 294.08239 88.049647 
L 294.739375 120.364556 
L 295.39636 130.713686 
L 296.053345 109.261559 
L 296.71033 126.28353 
L 297.367315 172.674261 
L 298.0243 123.473411 
L 298.681285 160.440037 
L 299.33827 175.710408 
L 299.995255 150.180719 
L 300.65224 141.379035 
L 301.309225 129.977383 
L 301.96621 158.143274 
L 302.623195 101.104962 
L 303.28018 142.941397 
L 303.937165 120.324127 
L 304.59415 123.913103 
L 305.251135 93.141473 
L 305.90812 105.347089 
L 306.565105 148.57428 
L 307.22209 181.715689 
L 307.879075 150.247852 
L 308.53606 164.681481 
L 309.193045 174.074731 
L 309.85003 177.83618 
L 310.507015 166.645077 
L 311.164 175.140643 
L 311.820985 178.995687 
L 312.47797 142.170775 
L 313.134955 138.372273 
L 313.79194 172.308941 
L 314.448925 152.834789 
L 315.10591 175.440358 
L 315.762895 186.052797 
L 316.41988 168.031321 
L 317.076865 142.206491 
L 317.73385 130.008683 
L 318.390835 137.269663 
L 319.04782 162.649428 
L 319.704805 178.37583 
L 320.36179 144.821362 
L 321.018775 169.69353 
L 321.67576 155.866696 
L 322.332745 131.985737 
L 322.98973 141.099385 
L 323.646715 145.460312 
L 324.3037 162.948975 
L 324.960685 172.166099 
L 325.61767 184.427138 
L 326.274655 177.351116 
L 326.93164 174.383371 
L 327.588625 136.124769 
L 328.24561 125.657157 
L 328.902595 123.931239 
L 329.55958 131.415985 
L 330.216565 92.897173 
L 330.87355 95.262644 
L 331.530535 141.355703 
L 332.18752 116.242661 
L 332.844505 101.373008 
L 333.50149 118.457868 
L 334.158475 87.496987 
L 334.81546 92.669752 
L 335.472445 116.549881 
L 336.12943 149.365461 
L 336.786415 168.721623 
L 337.4434 162.49538 
L 338.100385 103.474012 
L 338.75737 127.567119 
L 339.414355 143.934193 
L 340.07134 172.976313 
L 340.728325 121.775901 
L 341.38531 151.142626 
L 342.042295 133.991403 
L 342.69928 166.205188 
L 343.356265 101.148278 
L 344.01325 127.428644 
L 344.670235 143.279596 
L 345.32722 143.688451 
L 345.984205 138.177489 
L 346.64119 127.842485 
L 347.298175 132.813045 
L 348.612145 107.780569 
L 349.26913 136.809863 
L 349.926115 153.284319 
L 350.5831 122.494322 
L 351.240085 131.183356 
L 351.89707 137.932505 
L 352.554055 136.458119 
L 353.21104 135.446268 
L 353.868025 124.792097 
L 354.52501 140.299525 
L 355.181995 149.267848 
L 355.83898 144.992946 
L 356.495965 147.007302 
L 357.15295 135.852815 
L 357.809935 103.579738 
L 358.46692 113.020036 
L 359.123905 131.154234 
L 359.78089 130.563741 
L 360.437875 157.760161 
L 361.09486 120.389519 
L 361.751845 148.572841 
L 362.40883 142.511628 
L 363.065815 172.767985 
L 363.7228 156.722777 
L 364.379785 162.888291 
L 365.03677 152.505106 
L 365.693755 128.070645 
L 366.35074 120.555803 
L 367.007725 116.846113 
L 367.66471 119.365327 
L 368.321695 145.283746 
L 368.97868 123.981857 
L 369.635665 123.53338 
L 370.29265 144.016239 
L 370.949635 138.945507 
L 371.60662 138.315272 
L 372.263605 137.213754 
L 372.92059 139.544709 
L 373.577575 181.438781 
L 374.23456 156.645473 
L 374.891545 145.957291 
L 375.54853 126.608971 
L 376.205515 158.284292 
L 376.8625 171.056609 
L 377.519485 125.301466 
L 378.17647 88.745844 
L 378.833455 157.402245 
L 379.49044 109.947631 
L 380.147425 118.740024 
L 380.80441 131.769802 
L 381.461395 119.275751 
L 382.11838 161.205598 
L 382.775365 121.392037 
L 383.43235 106.455822 
L 384.089335 115.446859 
L 384.74632 158.761174 
L 385.403305 147.498959 
L 386.06029 151.115798 
L 386.717275 143.29822 
L 387.37426 158.45948 
L 388.031245 133.007421 
L 389.345215 107.098355 
L 390.0022 127.667759 
L 390.659185 111.158137 
L 391.31617 118.422049 
L 391.973155 129.177155 
L 393.287125 158.500082 
L 393.94411 134.272104 
L 394.601095 154.263202 
L 395.25808 170.451924 
L 395.915065 159.343723 
L 396.57205 176.756996 
L 397.229035 158.070909 
L 397.88602 144.363987 
L 398.543005 134.640875 
L 399.19999 171.496179 
L 399.856975 199.220769 
L 400.51396 179.490638 
L 401.170945 166.357396 
L 401.82793 156.923822 
L 402.484915 138.682158 
L 403.1419 115.493675 
L 403.798885 156.339211 
L 404.45587 157.344363 
L 405.76984 120.039053 
L 406.426825 119.420914 
L 407.08381 140.373244 
L 407.740795 144.198131 
L 408.39778 113.203601 
L 409.054765 99.882506 
L 409.71175 162.56212 
L 410.368735 142.625738 
L 411.02572 170.644634 
L 411.682705 133.557696 
L 412.33969 128.764769 
L 412.996675 166.818199 
L 413.65366 162.759871 
L 414.310645 153.028348 
L 414.96763 155.337885 
L 416.2816 106.106523 
L 416.938585 126.483288 
L 417.59557 106.422645 
L 418.252555 91.782675 
L 418.90954 114.446579 
L 419.566525 144.398432 
L 420.22351 138.355818 
L 420.880495 115.817896 
L 421.53748 115.817469 
L 422.194465 146.41525 
L 422.85145 167.52419 
L 423.508435 152.328631 
L 424.16542 125.854014 
L 425.47939 175.127487 
L 426.136375 182.153221 
L 426.79336 134.958027 
L 427.450345 123.769424 
L 428.10733 128.004892 
L 428.764315 136.634424 
L 429.4213 155.137479 
L 430.078285 159.470641 
L 430.73527 143.793163 
L 431.392255 139.24504 
L 432.04924 123.603276 
L 432.706225 125.866436 
L 433.36321 143.593795 
L 434.020195 154.600354 
L 434.67718 130.011983 
L 435.334165 137.45514 
L 435.99115 123.673195 
L 436.648135 127.114172 
L 437.30512 98.244466 
L 437.962105 137.269554 
L 438.61909 94.112039 
L 439.276075 111.319292 
L 439.93306 141.589351 
L 440.590045 143.362945 
L 441.24703 155.190179 
L 441.904015 153.939387 
L 442.561 173.449537 
L 443.217985 178.886902 
L 443.87497 125.235338 
L 444.531955 164.694493 
L 445.18894 153.166403 
L 445.845925 149.236069 
L 447.159895 127.599306 
L 447.81688 127.65751 
L 448.473865 105.256351 
L 449.13085 132.515349 
L 449.787835 99.000034 
L 450.44482 130.574006 
L 451.101805 122.498733 
L 451.75879 146.892516 
L 452.415775 118.193181 
L 453.07276 134.29457 
L 453.729745 142.366998 
L 454.38673 144.456831 
L 455.043715 157.849306 
L 455.7007 167.628569 
L 456.357685 144.130105 
L 457.01467 92.94156 
L 457.671655 111.104498 
L 458.32864 110.48433 
L 459.64261 147.884366 
L 460.299595 140.906319 
L 460.95658 155.501244 
L 461.613565 126.628369 
L 462.27055 137.36882 
L 462.927535 112.000471 
L 463.58452 97.122607 
L 464.241505 71.139849 
L 464.89849 127.483683 
L 466.21246 108.526745 
L 466.869445 131.895712 
L 467.52643 73.370224 
L 468.183415 126.282647 
L 468.8404 107.502196 
L 469.497385 147.068391 
L 470.15437 104.976903 
L 470.811355 126.158589 
L 471.46834 106.451404 
L 472.125325 109.512246 
L 473.439295 117.942918 
L 474.09628 65.475241 
L 474.753265 103.889305 
L 475.41025 101.636221 
L 476.067235 98.39235 
L 476.72422 122.999108 
L 477.381205 93.93544 
L 478.03819 160.310349 
L 478.695175 154.78005 
L 479.35216 141.644905 
L 480.009145 162.41152 
L 480.66613 158.825691 
L 481.323115 141.700142 
L 481.9801 148.470167 
L 482.637085 122.107866 
L 483.29407 154.465014 
L 483.951055 172.380939 
L 485.265025 125.523898 
L 485.92201 134.47899 
L 486.578995 158.762451 
L 487.23598 106.956355 
L 488.54995 116.857891 
L 489.206935 94.079839 
L 489.86392 128.791642 
L 490.520905 129.879275 
L 491.834875 88.367901 
L 492.49186 94.645597 
L 493.148845 129.57961 
L 493.80583 120.617364 
L 494.462815 142.641283 
L 495.1198 126.436266 
L 495.776785 120.107764 
L 496.43377 127.445563 
L 497.090755 150.183176 
L 497.74774 153.860168 
L 498.404725 129.81981 
L 499.06171 177.875524 
L 499.718695 162.257713 
L 500.37568 139.752098 
L 501.032665 112.511432 
L 501.68965 136.708045 
L 502.346635 123.952254 
L 503.660605 134.974723 
L 504.31759 101.137119 
L 504.974575 112.087896 
L 505.63156 145.387102 
L 506.288545 128.498671 
L 506.94553 144.074072 
L 507.602515 94.669256 
L 508.2595 134.838227 
L 508.916485 105.209381 
L 509.57347 86.888246 
L 510.230455 124.177107 
L 511.544425 156.049836 
L 512.20141 102.245669 
L 512.858395 135.214464 
L 513.51538 128.306515 
L 514.172365 111.507246 
L 514.82935 118.707331 
L 515.486335 140.060697 
L 516.14332 108.107309 
L 516.800305 156.091938 
L 517.45729 171.938557 
L 518.114275 132.336928 
L 518.77126 144.30807 
L 519.428245 115.079659 
L 520.742215 162.246338 
L 522.056185 120.639401 
L 522.71317 151.21625 
L 523.370155 157.050202 
L 524.02714 157.935656 
L 524.684125 142.440456 
L 525.34111 184.990506 
L 526.65508 115.77093 
L 527.312065 149.75534 
L 527.96905 163.787336 
L 528.626035 119.296761 
L 529.28302 134.876853 
L 529.940005 133.565854 
L 530.59699 150.187513 
L 531.253975 117.945969 
L 531.91096 75.992683 
L 532.567945 114.491885 
L 533.22493 93.858084 
L 533.881915 119.826765 
L 534.5389 110.143141 
L 535.195885 125.404011 
L 535.85287 98.405004 
L 536.509855 132.711028 
L 537.16684 148.231766 
L 537.823825 142.543665 
L 538.48081 109.624392 
L 539.137795 171.706167 
L 539.79478 189.737454 
L 540.451765 153.565765 
L 541.10875 136.419443 
L 541.765735 112.15325 
L 542.42272 110.229679 
L 543.079705 85.194952 
L 543.73669 81.730737 
L 545.05066 118.711117 
L 545.707645 49.81 
L 546.36463 89.972242 
L 547.021615 103.673738 
L 547.6786 105.37623 
L 548.335585 124.131005 
L 548.99257 130.598799 
L 549.649555 129.072637 
L 550.30654 119.906026 
L 551.62051 149.378973 
L 552.277495 142.654687 
L 552.93448 140.738816 
L 553.591465 143.398269 
L 554.24845 147.037013 
L 554.905435 116.810412 
L 555.56242 102.637722 
L 556.219405 116.941616 
L 556.87639 103.641343 
L 558.19036 163.957815 
L 558.847345 167.874181 
L 559.50433 139.655671 
L 560.161315 131.37742 
L 560.8183 150.728806 
L 561.475285 155.479141 
L 562.13227 131.873622 
L 562.789255 150.201528 
L 563.44624 118.760146 
L 564.103225 132.307757 
L 564.76021 132.979761 
L 565.417195 126.872066 
L 566.07418 169.166097 
L 566.731165 152.405929 
L 567.38815 159.929199 
L 568.045135 139.253611 
L 568.70212 109.737355 
L 569.359105 90.209599 
L 570.01609 85.933754 
L 570.673075 118.969869 
L 571.33006 62.396448 
L 571.987045 66.543957 
L 573.301015 145.645225 
L 573.958 140.121605 
L 574.614985 111.820247 
L 575.27197 146.706949 
L 575.928955 150.668276 
L 576.58594 142.585637 
L 577.242925 177.227762 
L 577.89991 149.900021 
L 578.556895 163.74863 
L 579.21388 140.622702 
L 579.870865 135.916021 
L 580.52785 137.414333 
L 581.184835 160.687505 
L 581.84182 128.974285 
L 582.498805 126.028725 
L 583.15579 95.370451 
L 583.812775 123.014725 
L 584.46976 130.679286 
L 585.126745 129.324003 
L 585.78373 134.820642 
L 586.440715 137.952451 
L 587.0977 144.295913 
L 587.754685 147.506331 
L 588.41167 123.581292 
L 589.068655 146.610552 
L 589.72564 141.974246 
L 590.382625 130.514247 
L 591.03961 111.767934 
L 591.696595 128.777247 
L 592.35358 118.886329 
L 593.010565 123.149863 
L 593.66755 125.418757 
L 594.324535 134.009867 
L 594.98152 130.71092 
L 595.638505 100.006483 
L 596.29549 131.750154 
L 596.952475 143.890666 
L 597.60946 164.193925 
L 598.266445 136.781853 
L 598.92343 167.568996 
L 599.580415 150.789697 
L 600.2374 142.110468 
L 600.894385 120.057337 
L 601.55137 124.009306 
L 602.208355 128.803164 
L 602.86534 125.425612 
L 603.522325 139.948034 
L 604.17931 131.593414 
L 604.836295 76.739566 
L 605.49328 135.230757 
L 606.150265 136.8685 
L 606.80725 124.734994 
L 607.464235 138.749271 
L 608.12122 103.986723 
L 608.778205 157.083018 
L 609.43519 150.375912 
L 610.092175 187.649214 
L 610.74916 157.640256 
L 611.406145 89.794932 
L 612.06313 109.441262 
L 612.720115 133.558474 
L 613.3771 128.882695 
L 614.034085 129.600121 
L 614.69107 95.175946 
L 615.348055 118.222585 
L 616.00504 108.204003 
L 616.662025 138.802661 
L 617.31901 151.973894 
L 617.975995 141.353949 
L 618.63298 144.803396 
L 619.289965 157.105976 
L 619.94695 146.23854 
L 620.603935 144.84872 
L 621.26092 136.88188 
L 621.917905 136.847011 
L 622.57489 92.897145 
L 623.231875 101.332992 
L 623.88886 101.913083 
L 624.545845 115.928461 
L 625.20283 134.090808 
L 625.859815 148.818809 
L 626.5168 145.709023 
L 627.173785 139.522354 
L 627.83077 115.292572 
L 628.487755 141.674941 
L 629.14474 120.613795 
L 629.801725 131.686683 
L 630.45871 106.044041 
L 631.115695 140.826982 
L 631.77268 138.729879 
L 632.429665 97.82995 
L 633.08665 129.442931 
L 633.743635 153.998725 
L 634.40062 170.221109 
L 635.057605 160.227873 
L 635.71459 163.751079 
L 636.371575 155.332679 
L 637.02856 124.648136 
L 637.685545 155.820841 
L 638.34253 154.362337 
L 638.999515 143.867932 
L 639.6565 160.216418 
L 640.313485 157.012751 
L 640.97047 164.283343 
L 641.627455 136.865212 
L 642.28444 154.725866 
L 642.941425 136.616514 
L 643.59841 142.143629 
L 644.255395 122.732242 
L 644.91238 149.334879 
L 645.569365 154.995495 
L 646.883335 136.493515 
L 647.54032 138.721122 
L 648.197305 127.277342 
L 648.85429 152.832483 
L 649.511275 114.061134 
L 650.16826 142.432844 
L 651.48223 115.283644 
L 652.139215 87.664052 
L 652.7962 123.44968 
L 653.453185 132.427952 
L 654.11017 120.036614 
L 654.767155 132.027204 
L 655.42414 133.733911 
L 656.73811 170.566545 
L 657.395095 116.848856 
L 658.05208 103.164773 
L 658.709065 99.542052 
L 659.36605 158.114195 
L 660.023035 116.636166 
L 660.68002 142.602449 
L 662.650975 90.511686 
L 663.30796 99.157872 
L 663.964945 76.641124 
L 664.62193 132.414673 
L 665.278915 129.213834 
L 665.9359 157.527333 
L 666.592885 148.251863 
L 667.24987 145.341429 
L 667.906855 122.577356 
L 668.56384 145.269187 
L 669.87781 131.790795 
L 670.534795 120.19782 
L 671.19178 112.293678 
L 671.848765 135.214487 
L 672.50575 108.801375 
L 673.162735 129.197633 
L 673.81972 85.249261 
L 674.476705 147.86698 
L 675.13369 152.730276 
L 675.790675 143.391267 
L 676.44766 121.255864 
L 677.104645 107.371849 
L 677.76163 131.84128 
L 678.418615 134.874237 
L 679.0756 138.529408 
L 679.732585 102.058531 
L 680.38957 100.479231 
L 681.046555 143.167877 
L 681.70354 134.751121 
L 682.360525 156.910886 
L 683.01751 149.025172 
L 683.674495 147.072816 
L 684.33148 90.967559 
L 684.988465 116.52221 
L 685.64545 86.431156 
L 686.302435 68.904048 
L 686.95942 123.651254 
L 687.616405 121.99023 
L 688.27339 107.289086 
L 688.930375 127.622164 
L 689.58736 163.318233 
L 690.244345 119.227892 
L 690.90133 119.977044 
L 691.558315 145.075963 
L 692.2153 163.832787 
L 692.872285 170.48717 
L 693.52927 181.754076 
L 694.186255 168.981366 
L 694.84324 143.462279 
L 695.500225 130.766035 
L 696.15721 151.078698 
L 696.814195 131.514579 
L 697.47118 144.703074 
L 698.128165 150.740401 
L 698.78515 135.71984 
L 699.442135 135.074347 
L 700.09912 162.913414 
L 700.756105 141.858321 
L 701.41309 113.581002 
L 702.070075 183.945968 
L 702.72706 129.306675 
L 703.384045 118.953092 
L 704.04103 122.202637 
L 704.698015 137.784659 
L 704.698015 137.784659 
" clip-path="url(#p9270cfd8df)" style="fill: none; stroke-dasharray: 5.55,2.4; stroke-dashoffset: 0; stroke: #ff7f0e; stroke-width: 1.5"/>
   </g>
   <g id="patch_3">
    <path d="M 48.37 398.84 
L 48.37 18.08 
" style="fill: none; stroke: #000000; stroke-width: 0.8; stroke-linejoin: miter; stroke-linecap: square"/>
   </g>
   <g id="patch_4">
    <path d="M 705.355 398.84 
L 705.355 18.08 
" style="fill: none; stroke: #000000; stroke-width: 0.8; stroke-linejoin: miter; stroke-linecap: square"/>
   </g>
   <g id="patch_5">
    <path d="M 48.37 398.84 
L 705.355 398.84 
" style="fill: none; stroke: #000000; stroke-width: 0.8; stroke-linejoin: miter; stroke-linecap: square"/>
   </g>
   <g id="patch_6">
    <path d="M 48.37 18.08 
L 705.355 18.08 
" style="fill: none; stroke: #000000; stroke-width: 0.8; stroke-linejoin: miter; stroke-linecap: square"/>
   </g>
   <g id="text_19">
    <!-- GA Evolution (Simulation #43) -->
    <g transform="translate(285.108438 12.08) scale(0.12 -0.12)">
     <defs>
      <path id="DejaVuSans-41" d="M 2188 4044 
L 1331 1722 
L 3047 1722 
L 2188 4044 
z
M 1831 4666 
L 2547 4666 
L 4325 0 
L 3669 0 
L 3244 1197 
L 1141 1197 
L 716 0 
L 50 0 
L 1831 4666 
z
" transform="scale(0.015625)"/>
      <path id="DejaVuSans-45" d="M 628 4666 
L 3578 4666 
L 3578 4134 
L 1259 4134 
L 1259 2753 
L 3481 2753 
L 3481 2222 
L 1259 2222 
L 1259 531 
L 3634 531 
L 3634 0 
L 628 0 
L 628 4666 
z
" transform="scale(0.015625)"/>
      <path id="DejaVuSans-28" d="M 1984 4856 
Q 1566 4138 1362 3434 
Q 1159 2731 1159 2009 
Q 1159 1288 1364 580 
Q 1569 -128 1984 -844 
L 1484 -844 
Q 1016 -109 783 600 
Q 550 1309 550 2009 
Q 550 2706 781 3412 
Q 1013 4119 1484 4856 
L 1984 4856 
z
" transform="scale(0.015625)"/>
      <path id="DejaVuSans-53" d="M 3425 4513 
L 3425 3897 
Q 3066 4069 2747 4153 
Q 2428 4238 2131 4238 
Q 1616 4238 1336 4038 
Q 1056 3838 1056 3469 
Q 1056 3159 1242 3001 
Q 1428 2844 1947 2747 
L 2328 2669 
Q 3034 2534 3370 2195 
Q 3706 1856 3706 1288 
Q 3706 609 3251 259 
Q 2797 -91 1919 -91 
Q 1588 -91 1214 -16 
Q 841 59 441 206 
L 441 856 
Q 825 641 1194 531 
Q 1563 422 1919 422 
Q 2459 422 2753 634 
Q 3047 847 3047 1241 
Q 3047 1584 2836 1778 
Q 2625 1972 2144 2069 
L 1759 2144 
Q 1053 2284 737 2584 
Q 422 2884 422 3419 
Q 422 4038 858 4394 
Q 1294 4750 2059 4750 
Q 2388 4750 2728 4690 
Q 3069 4631 3425 4513 
z
" transform="scale(0.015625)"/>
      <path id="DejaVuSans-6d" d="M 3328 2828 
Q 3544 3216 3844 3400 
Q 4144 3584 4550 3584 
Q 5097 3584 5394 3201 
Q 5691 2819 5691 2113 
L 5691 0 
L 5113 0 
L 5113 2094 
Q 5113 2597 4934 2840 
Q 4756 3084 4391 3084 
Q 3944 3084 3684 2787 
Q 3425 2491 3425 1978 
L 3425 0 
L 2847 0 
L 2847 2094 
Q 2847 2600 2669 2842 
Q 2491 3084 2119 3084 
Q 1678 3084 1418 2786 
Q 1159 2488 1159 1978 
L 1159 0 
L 581 0 
L 581 3500 
L 1159 3500 
L 1159 2956 
Q 1356 3278 1631 3431 
Q 1906 3584 2284 3584 
Q 2666 3584 2933 3390 
Q 3200 3197 3328 2828 
z
" transform="scale(0.015625)"/>
      <path id="DejaVuSans-23" d="M 3272 2816 
L 2363 2816 
L 2100 1772 
L 3016 1772 
L 3272 2816 
z
M 2803 4594 
L 2478 3297 
L 3391 3297 
L 3719 4594 
L 4219 4594 
L 3897 3297 
L 4872 3297 
L 4872 2816 
L 3775 2816 
L 3519 1772 
L 4513 1772 
L 4513 1294 
L 3397 1294 
L 3072 0 
L 2572 0 
L 2894 1294 
L 1978 1294 
L 1656 0 
L 1153 0 
L 1478 1294 
L 494 1294 
L 494 1772 
L 1594 1772 
L 1856 2816 
L 850 2816 
L 850 3297 
L 1978 3297 
L 2297 4594 
L 2803 4594 
z
" transform="scale(0.015625)"/>
      <path id="DejaVuSans-29" d="M 513 4856 
L 1013 4856 
Q 1481 4119 1714 3412 
Q 1947 2706 1947 2009 
Q 1947 1309 1714 600 
Q 1481 -109 1013 -844 
L 513 -844 
Q 928 -128 1133 580 
Q 1338 1288 1338 2009 
Q 1338 2731 1133 3434 
Q 928 4138 513 4856 
z
" transform="scale(0.015625)"/>
     </defs>
     <use xlink:href="#DejaVuSans-47"/>
     <use xlink:href="#DejaVuSans-41" transform="translate(77.490234 0)"/>
     <use xlink:href="#DejaVuSans-20" transform="translate(145.898438 0)"/>
     <use xlink:href="#DejaVuSans-45" transform="translate(177.685547 0)"/>
     <use xlink:href="#DejaVuSans-76" transform="translate(240.869141 0)"/>
     <use xlink:href="#DejaVuSans-6f" transform="translate(300.048828 0)"/>
     <use xlink:href="#DejaVuSans-6c" transform="translate(361.230469 0)"/>
     <use xlink:href="#DejaVuSans-75" transform="translate(389.013672 0)"/>
     <use xlink:href="#DejaVuSans-74" transform="translate(452.392578 0)"/>
     <use xlink:href="#DejaVuSans-69" transform="translate(491.601562 0)"/>
     <use xlink:href="#DejaVuSans-6f" transform="translate(519.384766 0)"/>
     <use xlink:href="#DejaVuSans-6e" transform="translate(580.566406 0)"/>
     <use xlink:href="#DejaVuSans-20" transform="translate(643.945312 0)"/>
     <use xlink:href="#DejaVuSans-28" transform="translate(675.732422 0)"/>
     <use xlink:href="#DejaVuSans-53" transform="translate(714.746094 0)"/>
     <use xlink:href="#DejaVuSans-69" transform="translate(778.222656 0)"/>
     <use xlink:href="#DejaVuSans-6d" transform="translate(806.005859 0)"/>
     <use xlink:href="#DejaVuSans-75" transform="translate(903.417969 0)"/>
     <use xlink:href="#DejaVuSans-6c" transform="translate(966.796875 0)"/>
     <use xlink:href="#DejaVuSans-61" transform="translate(994.580078 0)"/>
     <use xlink:href="#DejaVuSans-74" transform="translate(1055.859375 0)"/>
     <use xlink:href="#DejaVuSans-69" transform="translate(1095.068359 0)"/>
     <use xlink:href="#DejaVuSans-6f" transform="translate(1122.851562 0)"/>
     <use xlink:href="#DejaVuSans-6e" transform="translate(1184.033203 0)"/>
     <use xlink:href="#DejaVuSans-20" transform="translate(1247.412109 0)"/>
     <use xlink:href="#DejaVuSans-23" transform="translate(1279.199219 0)"/>
     <use xlink:href="#DejaVuSans-34" transform="translate(1362.988281 0)"/>
     <use xlink:href="#DejaVuSans-33" transform="translate(1426.611328 0)"/>
     <use xlink:href="#DejaVuSans-29" transform="translate(1490.234375 0)"/>
    </g>
   </g>
   <g id="legend_1">
    <g id="patch_7">
     <path d="M 561.906563 55.43625 
L 698.355 55.43625 
Q 700.355 55.43625 700.355 53.43625 
L 700.355 25.08 
Q 700.355 23.08 698.355 23.08 
L 561.906563 23.08 
Q 559.906563 23.08 559.906563 25.08 
L 559.906563 53.43625 
Q 559.906563 55.43625 561.906563 55.43625 
z
" style="fill: #ffffff; opacity: 0.8; stroke: #cccccc; stroke-linejoin: miter"/>
    </g>
    <g id="line2d_35">
     <path d="M 563.906563 31.178437 
L 573.906563 31.178437 
L 573.906563 31.178437 
L 583.906563 31.178437 
L 583.906563 31.178437 
" style="fill: none; stroke: #1f77b4; stroke-width: 1.5; stroke-linecap: square"/>
    </g>
    <g id="text_20">
     <!-- Best Fitness (GA) -->
     <g transform="translate(591.906563 34.678437) scale(0.1 -0.1)">
      <defs>
       <path id="DejaVuSans-42" d="M 1259 2228 
L 1259 519 
L 2272 519 
Q 2781 519 3026 730 
Q 3272 941 3272 1375 
Q 3272 1813 3026 2020 
Q 2781 2228 2272 2228 
L 1259 2228 
z
M 1259 4147 
L 1259 2741 
L 2194 2741 
Q 2656 2741 2882 2914 
Q 3109 3088 3109 3444 
Q 3109 3797 2882 3972 
Q 2656 4147 2194 4147 
L 1259 4147 
z
M 628 4666 
L 2241 4666 
Q 2963 4666 3353 4366 
Q 3744 4066 3744 3513 
Q 3744 3084 3544 2831 
Q 3344 2578 2956 2516 
Q 3422 2416 3680 2098 
Q 3938 1781 3938 1306 
Q 3938 681 3513 340 
Q 3088 0 2303 0 
L 628 0 
L 628 4666 
z
" transform="scale(0.015625)"/>
       <path id="DejaVuSans-73" d="M 2834 3397 
L 2834 2853 
Q 2591 2978 2328 3040 
Q 2066 3103 1784 3103 
Q 1356 3103 1142 2972 
Q 928 2841 928 2578 
Q 928 2378 1081 2264 
Q 1234 2150 1697 2047 
L 1894 2003 
Q 2506 1872 2764 1633 
Q 3022 1394 3022 966 
Q 3022 478 2636 193 
Q 2250 -91 1575 -91 
Q 1294 -91 989 -36 
Q 684 19 347 128 
L 347 722 
Q 666 556 975 473 
Q 1284 391 1588 391 
Q 1994 391 2212 530 
Q 2431 669 2431 922 
Q 2431 1156 2273 1281 
Q 2116 1406 1581 1522 
L 1381 1569 
Q 847 1681 609 1914 
Q 372 2147 372 2553 
Q 372 3047 722 3315 
Q 1072 3584 1716 3584 
Q 2034 3584 2315 3537 
Q 2597 3491 2834 3397 
z
" transform="scale(0.015625)"/>
       <path id="DejaVuSans-46" d="M 628 4666 
L 3309 4666 
L 3309 4134 
L 1259 4134 
L 1259 2759 
L 3109 2759 
L 3109 2228 
L 1259 2228 
L 1259 0 
L 628 0 
L 628 4666 
z
" transform="scale(0.015625)"/>
      </defs>
      <use xlink:href="#DejaVuSans-42"/>
      <use xlink:href="#DejaVuSans-65" transform="translate(68.603516 0)"/>
      <use xlink:href="#DejaVuSans-73" transform="translate(130.126953 0)"/>
      <use xlink:href="#DejaVuSans-74" transform="translate(182.226562 0)"/>
      <use xlink:href="#DejaVuSans-20" transform="translate(221.435547 0)"/>
      <use xlink:href="#DejaVuSans-46" transform="translate(253.222656 0)"/>
      <use xlink:href="#DejaVuSans-69" transform="translate(303.492188 0)"/>
      <use xlink:href="#DejaVuSans-74" transform="translate(331.275391 0)"/>
      <use xlink:href="#DejaVuSans-6e" transform="translate(370.484375 0)"/>
      <use xlink:href="#DejaVuSans-65" transform="translate(433.863281 0)"/>
      <use xlink:href="#DejaVuSans-73" transform="translate(495.386719 0)"/>
      <use xlink:href="#DejaVuSans-73" transform="translate(547.486328 0)"/>
      <use xlink:href="#DejaVuSans-20" transform="translate(599.585938 0)"/>
      <use xlink:href="#DejaVuSans-28" transform="translate(631.373047 0)"/>
      <use xlink:href="#DejaVuSans-47" transform="translate(670.386719 0)"/>
      <use xlink:href="#DejaVuSans-41" transform="translate(747.876953 0)"/>
      <use xlink:href="#DejaVuSans-29" transform="translate(816.285156 0)"/>
     </g>
    </g>
    <g id="line2d_36">
     <path d="M 563.906563 45.856562 
L 573.906563 45.856562 
L 583.906563 45.856562 
" style="fill: none; stroke-dasharray: 5.55,2.4; stroke-dashoffset: 0; stroke: #ff7f0e; stroke-width: 1.5"/>
    </g>
    <g id="text_21">
     <!-- Average Fitness (GA) -->
     <g transform="translate(591.906563 49.356562) scale(0.1 -0.1)">
      <defs>
       <path id="DejaVuSans-67" d="M 2906 1791 
Q 2906 2416 2648 2759 
Q 2391 3103 1925 3103 
Q 1463 3103 1205 2759 
Q 947 2416 947 1791 
Q 947 1169 1205 825 
Q 1463 481 1925 481 
Q 2391 481 2648 825 
Q 2906 1169 2906 1791 
z
M 3481 434 
Q 3481 -459 3084 -895 
Q 2688 -1331 1869 -1331 
Q 1566 -1331 1297 -1286 
Q 1028 -1241 775 -1147 
L 775 -588 
Q 1028 -725 1275 -790 
Q 1522 -856 1778 -856 
Q 2344 -856 2625 -561 
Q 2906 -266 2906 331 
L 2906 616 
Q 2728 306 2450 153 
Q 2172 0 1784 0 
Q 1141 0 747 490 
Q 353 981 353 1791 
Q 353 2603 747 3093 
Q 1141 3584 1784 3584 
Q 2172 3584 2450 3431 
Q 2728 3278 2906 2969 
L 2906 3500 
L 3481 3500 
L 3481 434 
z
" transform="scale(0.015625)"/>
      </defs>
      <use xlink:href="#DejaVuSans-41"/>
      <use xlink:href="#DejaVuSans-76" transform="translate(62.533203 0)"/>
      <use xlink:href="#DejaVuSans-65" transform="translate(121.712891 0)"/>
      <use xlink:href="#DejaVuSans-72" transform="translate(183.236328 0)"/>
      <use xlink:href="#DejaVuSans-61" transform="translate(224.349609 0)"/>
      <use xlink:href="#DejaVuSans-67" transform="translate(285.628906 0)"/>
      <use xlink:href="#DejaVuSans-65" transform="translate(349.105469 0)"/>
      <use xlink:href="#DejaVuSans-20" transform="translate(410.628906 0)"/>
      <use xlink:href="#DejaVuSans-46" transform="translate(442.416016 0)"/>
      <use xlink:href="#DejaVuSans-69" transform="translate(492.685547 0)"/>
      <use xlink:href="#DejaVuSans-74" transform="translate(520.46875 0)"/>
      <use xlink:href="#DejaVuSans-6e" transform="translate(559.677734 0)"/>
      <use xlink:href="#DejaVuSans-65" transform="translate(623.056641 0)"/>
      <use xlink:href="#DejaVuSans-73" transform="translate(684.580078 0)"/>
      <use xlink:href="#DejaVuSans-73" transform="translate(736.679688 0)"/>
      <use xlink:href="#DejaVuSans-20" transform="translate(788.779297 0)"/>
      <use xlink:href="#DejaVuSans-28" transform="translate(820.566406 0)"/>
      <use xlink:href="#DejaVuSans-47" transform="translate(859.580078 0)"/>
      <use xlink:href="#DejaVuSans-41" transform="translate(937.070312 0)"/>
      <use xlink:href="#DejaVuSans-29" transform="translate(1005.478516 0)"/>
     </g>
    </g>
   </g>
  </g>
 </g>
 <defs>
  <clipPath id="p9270cfd8df">
   <rect x="48.37" y="18.08" width="656.985" height="380.76"/>
  </clipPath>
 </defs>
</svg>
