<?xml version="1.0" encoding="utf-8" standalone="no"?>
<!DOCTYPE svg PUBLIC "-//W3C//DTD SVG 1.1//EN"
  "http://www.w3.org/Graphics/SVG/1.1/DTD/svg11.dtd">
<svg xmlns:xlink="http://www.w3.org/1999/xlink" width="720pt" height="432pt" viewBox="0 0 720 432" xmlns="http://www.w3.org/2000/svg" version="1.1">
 <metadata>
  <rdf:RDF xmlns:dc="http://purl.org/dc/elements/1.1/" xmlns:cc="http://creativecommons.org/ns#" xmlns:rdf="http://www.w3.org/1999/02/22-rdf-syntax-ns#">
   <cc:Work>
    <dc:type rdf:resource="http://purl.org/dc/dcmitype/StillImage"/>
    <dc:date>2026-01-12T19:07:54.700656</dc:date>
    <dc:format>image/svg+xml</dc:format>
    <dc:creator>
     <cc:Agent>
      <dc:title>Matplotlib v3.10.8, https://matplotlib.org/</dc:title>
     </cc:Agent>
    </dc:creator>
   </cc:Work>
  </rdf:RDF>
 </metadata>
 <defs>
  <style type="text/css">*{stroke-linejoin: round; stroke-linecap: butt}</style>
 </defs>
 <g id="figure_1">
  <g id="patch_1">
   <path d="M 0 432 
L 720 432 
L 720 0 
L 0 0 
z
" style="fill: #ffffff"/>
  </g>
  <g id="axes_1">
   <g id="patch_2">
    <path d="M 48.37 398.84 
L 705.355 398.84 
L 705.355 18.08 
L 48.37 18.08 
z
" style="fill: #ffffff"/>
   </g>
   <g id="matplotlib.axis_1">
    <g id="xtick_1">
     <g id="line2d_1">
      <path d="M 48.37 398.84 
L 48.37 18.08 
" clip-path="url(#pa4358beda2)" style="fill: none; stroke-dasharray: 0.8,1.32; stroke-dashoffset: 0; stroke: #b0b0b0; stroke-opacity: 0.7; stroke-width: 0.8"/>
     </g>
     <g id="line2d_2">
      <defs>
       <path id="m3703b8e6fe" d="M 0 0 
L 0 3.5 
" style="stroke: #000000; stroke-width: 0.8"/>
      </defs>
      <g>
       <use xlink:href="#m3703b8e6fe" x="48.37" y="398.84" style="stroke: #000000; stroke-width: 0.8"/>
      </g>
     </g>
     <g id="text_1">
      <!-- 0 -->
      <g transform="translate(45.18875 413.438437) scale(0.1 -0.1)">
       <defs>
        <path id="DejaVuSans-30" d="M 2034 4250 
Q 1547 4250 1301 3770 
Q 1056 3291 1056 2328 
Q 1056 1369 1301 889 
Q 1547 409 2034 409 
Q 2525 409 2770 889 
Q 3016 1369 3016 2328 
Q 3016 3291 2770 3770 
Q 2525 4250 2034 4250 
z
M 2034 4750 
Q 2819 4750 3233 4129 
Q 3647 3509 3647 2328 
Q 3647 1150 3233 529 
Q 2819 -91 2034 -91 
Q 1250 -91 836 529 
Q 422 1150 422 2328 
Q 422 3509 836 4129 
Q 1250 4750 2034 4750 
z
" transform="scale(0.015625)"/>
       </defs>
       <use xlink:href="#DejaVuSans-30"/>
      </g>
     </g>
    </g>
    <g id="xtick_2">
     <g id="line2d_3">
      <path d="M 114.0685 398.84 
L 114.0685 18.08 
" clip-path="url(#pa4358beda2)" style="fill: none; stroke-dasharray: 0.8,1.32; stroke-dashoffset: 0; stroke: #b0b0b0; stroke-opacity: 0.7; stroke-width: 0.8"/>
     </g>
     <g id="line2d_4">
      <g>
       <use xlink:href="#m3703b8e6fe" x="114.0685" y="398.84" style="stroke: #000000; stroke-width: 0.8"/>
      </g>
     </g>
     <g id="text_2">
      <!-- 100 -->
      <g transform="translate(104.52475 413.438437) scale(0.1 -0.1)">
       <defs>
        <path id="DejaVuSans-31" d="M 794 531 
L 1825 531 
L 1825 4091 
L 703 3866 
L 703 4441 
L 1819 4666 
L 2450 4666 
L 2450 531 
L 3481 531 
L 3481 0 
L 794 0 
L 794 531 
z
" transform="scale(0.015625)"/>
       </defs>
       <use xlink:href="#DejaVuSans-31"/>
       <use xlink:href="#DejaVuSans-30" transform="translate(63.623047 0)"/>
       <use xlink:href="#DejaVuSans-30" transform="translate(127.246094 0)"/>
      </g>
     </g>
    </g>
    <g id="xtick_3">
     <g id="line2d_5">
      <path d="M 179.767 398.84 
L 179.767 18.08 
" clip-path="url(#pa4358beda2)" style="fill: none; stroke-dasharray: 0.8,1.32; stroke-dashoffset: 0; stroke: #b0b0b0; stroke-opacity: 0.7; stroke-width: 0.8"/>
     </g>
     <g id="line2d_6">
      <g>
       <use xlink:href="#m3703b8e6fe" x="179.767" y="398.84" style="stroke: #000000; stroke-width: 0.8"/>
      </g>
     </g>
     <g id="text_3">
      <!-- 200 -->
      <g transform="translate(170.22325 413.438437) scale(0.1 -0.1)">
       <defs>
        <path id="DejaVuSans-32" d="M 1228 531 
L 3431 531 
L 3431 0 
L 469 0 
L 469 531 
Q 828 903 1448 1529 
Q 2069 2156 2228 2338 
Q 2531 2678 2651 2914 
Q 2772 3150 2772 3378 
Q 2772 3750 2511 3984 
Q 2250 4219 1831 4219 
Q 1534 4219 1204 4116 
Q 875 4013 500 3803 
L 500 4441 
Q 881 4594 1212 4672 
Q 1544 4750 1819 4750 
Q 2544 4750 2975 4387 
Q 3406 4025 3406 3419 
Q 3406 3131 3298 2873 
Q 3191 2616 2906 2266 
Q 2828 2175 2409 1742 
Q 1991 1309 1228 531 
z
" transform="scale(0.015625)"/>
       </defs>
       <use xlink:href="#DejaVuSans-32"/>
       <use xlink:href="#DejaVuSans-30" transform="translate(63.623047 0)"/>
       <use xlink:href="#DejaVuSans-30" transform="translate(127.246094 0)"/>
      </g>
     </g>
    </g>
    <g id="xtick_4">
     <g id="line2d_7">
      <path d="M 245.4655 398.84 
L 245.4655 18.08 
" clip-path="url(#pa4358beda2)" style="fill: none; stroke-dasharray: 0.8,1.32; stroke-dashoffset: 0; stroke: #b0b0b0; stroke-opacity: 0.7; stroke-width: 0.8"/>
     </g>
     <g id="line2d_8">
      <g>
       <use xlink:href="#m3703b8e6fe" x="245.4655" y="398.84" style="stroke: #000000; stroke-width: 0.8"/>
      </g>
     </g>
     <g id="text_4">
      <!-- 300 -->
      <g transform="translate(235.92175 413.438437) scale(0.1 -0.1)">
       <defs>
        <path id="DejaVuSans-33" d="M 2597 2516 
Q 3050 2419 3304 2112 
Q 3559 1806 3559 1356 
Q 3559 666 3084 287 
Q 2609 -91 1734 -91 
Q 1441 -91 1130 -33 
Q 819 25 488 141 
L 488 750 
Q 750 597 1062 519 
Q 1375 441 1716 441 
Q 2309 441 2620 675 
Q 2931 909 2931 1356 
Q 2931 1769 2642 2001 
Q 2353 2234 1838 2234 
L 1294 2234 
L 1294 2753 
L 1863 2753 
Q 2328 2753 2575 2939 
Q 2822 3125 2822 3475 
Q 2822 3834 2567 4026 
Q 2313 4219 1838 4219 
Q 1578 4219 1281 4162 
Q 984 4106 628 3988 
L 628 4550 
Q 988 4650 1302 4700 
Q 1616 4750 1894 4750 
Q 2613 4750 3031 4423 
Q 3450 4097 3450 3541 
Q 3450 3153 3228 2886 
Q 3006 2619 2597 2516 
z
" transform="scale(0.015625)"/>
       </defs>
       <use xlink:href="#DejaVuSans-33"/>
       <use xlink:href="#DejaVuSans-30" transform="translate(63.623047 0)"/>
       <use xlink:href="#DejaVuSans-30" transform="translate(127.246094 0)"/>
      </g>
     </g>
    </g>
    <g id="xtick_5">
     <g id="line2d_9">
      <path d="M 311.164 398.84 
L 311.164 18.08 
" clip-path="url(#pa4358beda2)" style="fill: none; stroke-dasharray: 0.8,1.32; stroke-dashoffset: 0; stroke: #b0b0b0; stroke-opacity: 0.7; stroke-width: 0.8"/>
     </g>
     <g id="line2d_10">
      <g>
       <use xlink:href="#m3703b8e6fe" x="311.164" y="398.84" style="stroke: #000000; stroke-width: 0.8"/>
      </g>
     </g>
     <g id="text_5">
      <!-- 400 -->
      <g transform="translate(301.62025 413.438437) scale(0.1 -0.1)">
       <defs>
        <path id="DejaVuSans-34" d="M 2419 4116 
L 825 1625 
L 2419 1625 
L 2419 4116 
z
M 2253 4666 
L 3047 4666 
L 3047 1625 
L 3713 1625 
L 3713 1100 
L 3047 1100 
L 3047 0 
L 2419 0 
L 2419 1100 
L 313 1100 
L 313 1709 
L 2253 4666 
z
" transform="scale(0.015625)"/>
       </defs>
       <use xlink:href="#DejaVuSans-34"/>
       <use xlink:href="#DejaVuSans-30" transform="translate(63.623047 0)"/>
       <use xlink:href="#DejaVuSans-30" transform="translate(127.246094 0)"/>
      </g>
     </g>
    </g>
    <g id="xtick_6">
     <g id="line2d_11">
      <path d="M 376.8625 398.84 
L 376.8625 18.08 
" clip-path="url(#pa4358beda2)" style="fill: none; stroke-dasharray: 0.8,1.32; stroke-dashoffset: 0; stroke: #b0b0b0; stroke-opacity: 0.7; stroke-width: 0.8"/>
     </g>
     <g id="line2d_12">
      <g>
       <use xlink:href="#m3703b8e6fe" x="376.8625" y="398.84" style="stroke: #000000; stroke-width: 0.8"/>
      </g>
     </g>
     <g id="text_6">
      <!-- 500 -->
      <g transform="translate(367.31875 413.438437) scale(0.1 -0.1)">
       <defs>
        <path id="DejaVuSans-35" d="M 691 4666 
L 3169 4666 
L 3169 4134 
L 1269 4134 
L 1269 2991 
Q 1406 3038 1543 3061 
Q 1681 3084 1819 3084 
Q 2600 3084 3056 2656 
Q 3513 2228 3513 1497 
Q 3513 744 3044 326 
Q 2575 -91 1722 -91 
Q 1428 -91 1123 -41 
Q 819 9 494 109 
L 494 744 
Q 775 591 1075 516 
Q 1375 441 1709 441 
Q 2250 441 2565 725 
Q 2881 1009 2881 1497 
Q 2881 1984 2565 2268 
Q 2250 2553 1709 2553 
Q 1456 2553 1204 2497 
Q 953 2441 691 2322 
L 691 4666 
z
" transform="scale(0.015625)"/>
       </defs>
       <use xlink:href="#DejaVuSans-35"/>
       <use xlink:href="#DejaVuSans-30" transform="translate(63.623047 0)"/>
       <use xlink:href="#DejaVuSans-30" transform="translate(127.246094 0)"/>
      </g>
     </g>
    </g>
    <g id="xtick_7">
     <g id="line2d_13">
      <path d="M 442.561 398.84 
L 442.561 18.08 
" clip-path="url(#pa4358beda2)" style="fill: none; stroke-dasharray: 0.8,1.32; stroke-dashoffset: 0; stroke: #b0b0b0; stroke-opacity: 0.7; stroke-width: 0.8"/>
     </g>
     <g id="line2d_14">
      <g>
       <use xlink:href="#m3703b8e6fe" x="442.561" y="398.84" style="stroke: #000000; stroke-width: 0.8"/>
      </g>
     </g>
     <g id="text_7">
      <!-- 600 -->
      <g transform="translate(433.01725 413.438437) scale(0.1 -0.1)">
       <defs>
        <path id="DejaVuSans-36" d="M 2113 2584 
Q 1688 2584 1439 2293 
Q 1191 2003 1191 1497 
Q 1191 994 1439 701 
Q 1688 409 2113 409 
Q 2538 409 2786 701 
Q 3034 994 3034 1497 
Q 3034 2003 2786 2293 
Q 2538 2584 2113 2584 
z
M 3366 4563 
L 3366 3988 
Q 3128 4100 2886 4159 
Q 2644 4219 2406 4219 
Q 1781 4219 1451 3797 
Q 1122 3375 1075 2522 
Q 1259 2794 1537 2939 
Q 1816 3084 2150 3084 
Q 2853 3084 3261 2657 
Q 3669 2231 3669 1497 
Q 3669 778 3244 343 
Q 2819 -91 2113 -91 
Q 1303 -91 875 529 
Q 447 1150 447 2328 
Q 447 3434 972 4092 
Q 1497 4750 2381 4750 
Q 2619 4750 2861 4703 
Q 3103 4656 3366 4563 
z
" transform="scale(0.015625)"/>
       </defs>
       <use xlink:href="#DejaVuSans-36"/>
       <use xlink:href="#DejaVuSans-30" transform="translate(63.623047 0)"/>
       <use xlink:href="#DejaVuSans-30" transform="translate(127.246094 0)"/>
      </g>
     </g>
    </g>
    <g id="xtick_8">
     <g id="line2d_15">
      <path d="M 508.2595 398.84 
L 508.2595 18.08 
" clip-path="url(#pa4358beda2)" style="fill: none; stroke-dasharray: 0.8,1.32; stroke-dashoffset: 0; stroke: #b0b0b0; stroke-opacity: 0.7; stroke-width: 0.8"/>
     </g>
     <g id="line2d_16">
      <g>
       <use xlink:href="#m3703b8e6fe" x="508.2595" y="398.84" style="stroke: #000000; stroke-width: 0.8"/>
      </g>
     </g>
     <g id="text_8">
      <!-- 700 -->
      <g transform="translate(498.71575 413.438437) scale(0.1 -0.1)">
       <defs>
        <path id="DejaVuSans-37" d="M 525 4666 
L 3525 4666 
L 3525 4397 
L 1831 0 
L 1172 0 
L 2766 4134 
L 525 4134 
L 525 4666 
z
" transform="scale(0.015625)"/>
       </defs>
       <use xlink:href="#DejaVuSans-37"/>
       <use xlink:href="#DejaVuSans-30" transform="translate(63.623047 0)"/>
       <use xlink:href="#DejaVuSans-30" transform="translate(127.246094 0)"/>
      </g>
     </g>
    </g>
    <g id="xtick_9">
     <g id="line2d_17">
      <path d="M 573.958 398.84 
L 573.958 18.08 
" clip-path="url(#pa4358beda2)" style="fill: none; stroke-dasharray: 0.8,1.32; stroke-dashoffset: 0; stroke: #b0b0b0; stroke-opacity: 0.7; stroke-width: 0.8"/>
     </g>
     <g id="line2d_18">
      <g>
       <use xlink:href="#m3703b8e6fe" x="573.958" y="398.84" style="stroke: #000000; stroke-width: 0.8"/>
      </g>
     </g>
     <g id="text_9">
      <!-- 800 -->
      <g transform="translate(564.41425 413.438437) scale(0.1 -0.1)">
       <defs>
        <path id="DejaVuSans-38" d="M 2034 2216 
Q 1584 2216 1326 1975 
Q 1069 1734 1069 1313 
Q 1069 891 1326 650 
Q 1584 409 2034 409 
Q 2484 409 2743 651 
Q 3003 894 3003 1313 
Q 3003 1734 2745 1975 
Q 2488 2216 2034 2216 
z
M 1403 2484 
Q 997 2584 770 2862 
Q 544 3141 544 3541 
Q 544 4100 942 4425 
Q 1341 4750 2034 4750 
Q 2731 4750 3128 4425 
Q 3525 4100 3525 3541 
Q 3525 3141 3298 2862 
Q 3072 2584 2669 2484 
Q 3125 2378 3379 2068 
Q 3634 1759 3634 1313 
Q 3634 634 3220 271 
Q 2806 -91 2034 -91 
Q 1263 -91 848 271 
Q 434 634 434 1313 
Q 434 1759 690 2068 
Q 947 2378 1403 2484 
z
M 1172 3481 
Q 1172 3119 1398 2916 
Q 1625 2713 2034 2713 
Q 2441 2713 2670 2916 
Q 2900 3119 2900 3481 
Q 2900 3844 2670 4047 
Q 2441 4250 2034 4250 
Q 1625 4250 1398 4047 
Q 1172 3844 1172 3481 
z
" transform="scale(0.015625)"/>
       </defs>
       <use xlink:href="#DejaVuSans-38"/>
       <use xlink:href="#DejaVuSans-30" transform="translate(63.623047 0)"/>
       <use xlink:href="#DejaVuSans-30" transform="translate(127.246094 0)"/>
      </g>
     </g>
    </g>
    <g id="xtick_10">
     <g id="line2d_19">
      <path d="M 639.6565 398.84 
L 639.6565 18.08 
" clip-path="url(#pa4358beda2)" style="fill: none; stroke-dasharray: 0.8,1.32; stroke-dashoffset: 0; stroke: #b0b0b0; stroke-opacity: 0.7; stroke-width: 0.8"/>
     </g>
     <g id="line2d_20">
      <g>
       <use xlink:href="#m3703b8e6fe" x="639.6565" y="398.84" style="stroke: #000000; stroke-width: 0.8"/>
      </g>
     </g>
     <g id="text_10">
      <!-- 900 -->
      <g transform="translate(630.11275 413.438437) scale(0.1 -0.1)">
       <defs>
        <path id="DejaVuSans-39" d="M 703 97 
L 703 672 
Q 941 559 1184 500 
Q 1428 441 1663 441 
Q 2288 441 2617 861 
Q 2947 1281 2994 2138 
Q 2813 1869 2534 1725 
Q 2256 1581 1919 1581 
Q 1219 1581 811 2004 
Q 403 2428 403 3163 
Q 403 3881 828 4315 
Q 1253 4750 1959 4750 
Q 2769 4750 3195 4129 
Q 3622 3509 3622 2328 
Q 3622 1225 3098 567 
Q 2575 -91 1691 -91 
Q 1453 -91 1209 -44 
Q 966 3 703 97 
z
M 1959 2075 
Q 2384 2075 2632 2365 
Q 2881 2656 2881 3163 
Q 2881 3666 2632 3958 
Q 2384 4250 1959 4250 
Q 1534 4250 1286 3958 
Q 1038 3666 1038 3163 
Q 1038 2656 1286 2365 
Q 1534 2075 1959 2075 
z
" transform="scale(0.015625)"/>
       </defs>
       <use xlink:href="#DejaVuSans-39"/>
       <use xlink:href="#DejaVuSans-30" transform="translate(63.623047 0)"/>
       <use xlink:href="#DejaVuSans-30" transform="translate(127.246094 0)"/>
      </g>
     </g>
    </g>
    <g id="xtick_11">
     <g id="line2d_21">
      <path d="M 705.355 398.84 
L 705.355 18.08 
" clip-path="url(#pa4358beda2)" style="fill: none; stroke-dasharray: 0.8,1.32; stroke-dashoffset: 0; stroke: #b0b0b0; stroke-opacity: 0.7; stroke-width: 0.8"/>
     </g>
     <g id="line2d_22">
      <g>
       <use xlink:href="#m3703b8e6fe" x="705.355" y="398.84" style="stroke: #000000; stroke-width: 0.8"/>
      </g>
     </g>
     <g id="text_11">
      <!-- 1000 -->
      <g transform="translate(692.63 413.438437) scale(0.1 -0.1)">
       <use xlink:href="#DejaVuSans-31"/>
       <use xlink:href="#DejaVuSans-30" transform="translate(63.623047 0)"/>
       <use xlink:href="#DejaVuSans-30" transform="translate(127.246094 0)"/>
       <use xlink:href="#DejaVuSans-30" transform="translate(190.869141 0)"/>
      </g>
     </g>
    </g>
    <g id="text_12">
     <!-- Iteration / Generation -->
     <g transform="translate(322.898438 427.116562) scale(0.1 -0.1)">
      <defs>
       <path id="DejaVuSans-49" d="M 628 4666 
L 1259 4666 
L 1259 0 
L 628 0 
L 628 4666 
z
" transform="scale(0.015625)"/>
       <path id="DejaVuSans-74" d="M 1172 4494 
L 1172 3500 
L 2356 3500 
L 2356 3053 
L 1172 3053 
L 1172 1153 
Q 1172 725 1289 603 
Q 1406 481 1766 481 
L 2356 481 
L 2356 0 
L 1766 0 
Q 1100 0 847 248 
Q 594 497 594 1153 
L 594 3053 
L 172 3053 
L 172 3500 
L 594 3500 
L 594 4494 
L 1172 4494 
z
" transform="scale(0.015625)"/>
       <path id="DejaVuSans-65" d="M 3597 1894 
L 3597 1613 
L 953 1613 
Q 991 1019 1311 708 
Q 1631 397 2203 397 
Q 2534 397 2845 478 
Q 3156 559 3463 722 
L 3463 178 
Q 3153 47 2828 -22 
Q 2503 -91 2169 -91 
Q 1331 -91 842 396 
Q 353 884 353 1716 
Q 353 2575 817 3079 
Q 1281 3584 2069 3584 
Q 2775 3584 3186 3129 
Q 3597 2675 3597 1894 
z
M 3022 2063 
Q 3016 2534 2758 2815 
Q 2500 3097 2075 3097 
Q 1594 3097 1305 2825 
Q 1016 2553 972 2059 
L 3022 2063 
z
" transform="scale(0.015625)"/>
       <path id="DejaVuSans-72" d="M 2631 2963 
Q 2534 3019 2420 3045 
Q 2306 3072 2169 3072 
Q 1681 3072 1420 2755 
Q 1159 2438 1159 1844 
L 1159 0 
L 581 0 
L 581 3500 
L 1159 3500 
L 1159 2956 
Q 1341 3275 1631 3429 
Q 1922 3584 2338 3584 
Q 2397 3584 2469 3576 
Q 2541 3569 2628 3553 
L 2631 2963 
z
" transform="scale(0.015625)"/>
       <path id="DejaVuSans-61" d="M 2194 1759 
Q 1497 1759 1228 1600 
Q 959 1441 959 1056 
Q 959 750 1161 570 
Q 1363 391 1709 391 
Q 2188 391 2477 730 
Q 2766 1069 2766 1631 
L 2766 1759 
L 2194 1759 
z
M 3341 1997 
L 3341 0 
L 2766 0 
L 2766 531 
Q 2569 213 2275 61 
Q 1981 -91 1556 -91 
Q 1019 -91 701 211 
Q 384 513 384 1019 
Q 384 1609 779 1909 
Q 1175 2209 1959 2209 
L 2766 2209 
L 2766 2266 
Q 2766 2663 2505 2880 
Q 2244 3097 1772 3097 
Q 1472 3097 1187 3025 
Q 903 2953 641 2809 
L 641 3341 
Q 956 3463 1253 3523 
Q 1550 3584 1831 3584 
Q 2591 3584 2966 3190 
Q 3341 2797 3341 1997 
z
" transform="scale(0.015625)"/>
       <path id="DejaVuSans-69" d="M 603 3500 
L 1178 3500 
L 1178 0 
L 603 0 
L 603 3500 
z
M 603 4863 
L 1178 4863 
L 1178 4134 
L 603 4134 
L 603 4863 
z
" transform="scale(0.015625)"/>
       <path id="DejaVuSans-6f" d="M 1959 3097 
Q 1497 3097 1228 2736 
Q 959 2375 959 1747 
Q 959 1119 1226 758 
Q 1494 397 1959 397 
Q 2419 397 2687 759 
Q 2956 1122 2956 1747 
Q 2956 2369 2687 2733 
Q 2419 3097 1959 3097 
z
M 1959 3584 
Q 2709 3584 3137 3096 
Q 3566 2609 3566 1747 
Q 3566 888 3137 398 
Q 2709 -91 1959 -91 
Q 1206 -91 779 398 
Q 353 888 353 1747 
Q 353 2609 779 3096 
Q 1206 3584 1959 3584 
z
" transform="scale(0.015625)"/>
       <path id="DejaVuSans-6e" d="M 3513 2113 
L 3513 0 
L 2938 0 
L 2938 2094 
Q 2938 2591 2744 2837 
Q 2550 3084 2163 3084 
Q 1697 3084 1428 2787 
Q 1159 2491 1159 1978 
L 1159 0 
L 581 0 
L 581 3500 
L 1159 3500 
L 1159 2956 
Q 1366 3272 1645 3428 
Q 1925 3584 2291 3584 
Q 2894 3584 3203 3211 
Q 3513 2838 3513 2113 
z
" transform="scale(0.015625)"/>
       <path id="DejaVuSans-20" transform="scale(0.015625)"/>
       <path id="DejaVuSans-2f" d="M 1625 4666 
L 2156 4666 
L 531 -594 
L 0 -594 
L 1625 4666 
z
" transform="scale(0.015625)"/>
       <path id="DejaVuSans-47" d="M 3809 666 
L 3809 1919 
L 2778 1919 
L 2778 2438 
L 4434 2438 
L 4434 434 
Q 4069 175 3628 42 
Q 3188 -91 2688 -91 
Q 1594 -91 976 548 
Q 359 1188 359 2328 
Q 359 3472 976 4111 
Q 1594 4750 2688 4750 
Q 3144 4750 3555 4637 
Q 3966 4525 4313 4306 
L 4313 3634 
Q 3963 3931 3569 4081 
Q 3175 4231 2741 4231 
Q 1884 4231 1454 3753 
Q 1025 3275 1025 2328 
Q 1025 1384 1454 906 
Q 1884 428 2741 428 
Q 3075 428 3337 486 
Q 3600 544 3809 666 
z
" transform="scale(0.015625)"/>
      </defs>
      <use xlink:href="#DejaVuSans-49"/>
      <use xlink:href="#DejaVuSans-74" transform="translate(29.492188 0)"/>
      <use xlink:href="#DejaVuSans-65" transform="translate(68.701172 0)"/>
      <use xlink:href="#DejaVuSans-72" transform="translate(130.224609 0)"/>
      <use xlink:href="#DejaVuSans-61" transform="translate(171.337891 0)"/>
      <use xlink:href="#DejaVuSans-74" transform="translate(232.617188 0)"/>
      <use xlink:href="#DejaVuSans-69" transform="translate(271.826172 0)"/>
      <use xlink:href="#DejaVuSans-6f" transform="translate(299.609375 0)"/>
      <use xlink:href="#DejaVuSans-6e" transform="translate(360.791016 0)"/>
      <use xlink:href="#DejaVuSans-20" transform="translate(424.169922 0)"/>
      <use xlink:href="#DejaVuSans-2f" transform="translate(455.957031 0)"/>
      <use xlink:href="#DejaVuSans-20" transform="translate(489.648438 0)"/>
      <use xlink:href="#DejaVuSans-47" transform="translate(521.435547 0)"/>
      <use xlink:href="#DejaVuSans-65" transform="translate(598.925781 0)"/>
      <use xlink:href="#DejaVuSans-6e" transform="translate(660.449219 0)"/>
      <use xlink:href="#DejaVuSans-65" transform="translate(723.828125 0)"/>
      <use xlink:href="#DejaVuSans-72" transform="translate(785.351562 0)"/>
      <use xlink:href="#DejaVuSans-61" transform="translate(826.464844 0)"/>
      <use xlink:href="#DejaVuSans-74" transform="translate(887.744141 0)"/>
      <use xlink:href="#DejaVuSans-69" transform="translate(926.953125 0)"/>
      <use xlink:href="#DejaVuSans-6f" transform="translate(954.736328 0)"/>
      <use xlink:href="#DejaVuSans-6e" transform="translate(1015.917969 0)"/>
     </g>
    </g>
   </g>
   <g id="matplotlib.axis_2">
    <g id="ytick_1">
     <g id="line2d_23">
      <path d="M 48.37 327.568262 
L 705.355 327.568262 
" clip-path="url(#pa4358beda2)" style="fill: none; stroke-dasharray: 0.8,1.32; stroke-dashoffset: 0; stroke: #b0b0b0; stroke-opacity: 0.7; stroke-width: 0.8"/>
     </g>
     <g id="line2d_24">
      <defs>
       <path id="m0f7fd5d51c" d="M 0 0 
L -3.5 0 
" style="stroke: #000000; stroke-width: 0.8"/>
      </defs>
      <g>
       <use xlink:href="#m0f7fd5d51c" x="48.37" y="327.568262" style="stroke: #000000; stroke-width: 0.8"/>
      </g>
     </g>
     <g id="text_13">
      <!-- 1500 -->
      <g transform="translate(15.92 331.367481) scale(0.1 -0.1)">
       <use xlink:href="#DejaVuSans-31"/>
       <use xlink:href="#DejaVuSans-35" transform="translate(63.623047 0)"/>
       <use xlink:href="#DejaVuSans-30" transform="translate(127.246094 0)"/>
       <use xlink:href="#DejaVuSans-30" transform="translate(190.869141 0)"/>
      </g>
     </g>
    </g>
    <g id="ytick_2">
     <g id="line2d_25">
      <path d="M 48.37 256.246488 
L 705.355 256.246488 
" clip-path="url(#pa4358beda2)" style="fill: none; stroke-dasharray: 0.8,1.32; stroke-dashoffset: 0; stroke: #b0b0b0; stroke-opacity: 0.7; stroke-width: 0.8"/>
     </g>
     <g id="line2d_26">
      <g>
       <use xlink:href="#m0f7fd5d51c" x="48.37" y="256.246488" style="stroke: #000000; stroke-width: 0.8"/>
      </g>
     </g>
     <g id="text_14">
      <!-- 2000 -->
      <g transform="translate(15.92 260.045706) scale(0.1 -0.1)">
       <use xlink:href="#DejaVuSans-32"/>
       <use xlink:href="#DejaVuSans-30" transform="translate(63.623047 0)"/>
       <use xlink:href="#DejaVuSans-30" transform="translate(127.246094 0)"/>
       <use xlink:href="#DejaVuSans-30" transform="translate(190.869141 0)"/>
      </g>
     </g>
    </g>
    <g id="ytick_3">
     <g id="line2d_27">
      <path d="M 48.37 184.924714 
L 705.355 184.924714 
" clip-path="url(#pa4358beda2)" style="fill: none; stroke-dasharray: 0.8,1.32; stroke-dashoffset: 0; stroke: #b0b0b0; stroke-opacity: 0.7; stroke-width: 0.8"/>
     </g>
     <g id="line2d_28">
      <g>
       <use xlink:href="#m0f7fd5d51c" x="48.37" y="184.924714" style="stroke: #000000; stroke-width: 0.8"/>
      </g>
     </g>
     <g id="text_15">
      <!-- 2500 -->
      <g transform="translate(15.92 188.723932) scale(0.1 -0.1)">
       <use xlink:href="#DejaVuSans-32"/>
       <use xlink:href="#DejaVuSans-35" transform="translate(63.623047 0)"/>
       <use xlink:href="#DejaVuSans-30" transform="translate(127.246094 0)"/>
       <use xlink:href="#DejaVuSans-30" transform="translate(190.869141 0)"/>
      </g>
     </g>
    </g>
    <g id="ytick_4">
     <g id="line2d_29">
      <path d="M 48.37 113.60294 
L 705.355 113.60294 
" clip-path="url(#pa4358beda2)" style="fill: none; stroke-dasharray: 0.8,1.32; stroke-dashoffset: 0; stroke: #b0b0b0; stroke-opacity: 0.7; stroke-width: 0.8"/>
     </g>
     <g id="line2d_30">
      <g>
       <use xlink:href="#m0f7fd5d51c" x="48.37" y="113.60294" style="stroke: #000000; stroke-width: 0.8"/>
      </g>
     </g>
     <g id="text_16">
      <!-- 3000 -->
      <g transform="translate(15.92 117.402158) scale(0.1 -0.1)">
       <use xlink:href="#DejaVuSans-33"/>
       <use xlink:href="#DejaVuSans-30" transform="translate(63.623047 0)"/>
       <use xlink:href="#DejaVuSans-30" transform="translate(127.246094 0)"/>
       <use xlink:href="#DejaVuSans-30" transform="translate(190.869141 0)"/>
      </g>
     </g>
    </g>
    <g id="ytick_5">
     <g id="line2d_31">
      <path d="M 48.37 42.281165 
L 705.355 42.281165 
" clip-path="url(#pa4358beda2)" style="fill: none; stroke-dasharray: 0.8,1.32; stroke-dashoffset: 0; stroke: #b0b0b0; stroke-opacity: 0.7; stroke-width: 0.8"/>
     </g>
     <g id="line2d_32">
      <g>
       <use xlink:href="#m0f7fd5d51c" x="48.37" y="42.281165" style="stroke: #000000; stroke-width: 0.8"/>
      </g>
     </g>
     <g id="text_17">
      <!-- 3500 -->
      <g transform="translate(15.92 46.080384) scale(0.1 -0.1)">
       <use xlink:href="#DejaVuSans-33"/>
       <use xlink:href="#DejaVuSans-35" transform="translate(63.623047 0)"/>
       <use xlink:href="#DejaVuSans-30" transform="translate(127.246094 0)"/>
       <use xlink:href="#DejaVuSans-30" transform="translate(190.869141 0)"/>
      </g>
     </g>
    </g>
    <g id="text_18">
     <!-- Objective Value -->
     <g transform="translate(9.840312 247.490469) rotate(-90) scale(0.1 -0.1)">
      <defs>
       <path id="DejaVuSans-4f" d="M 2522 4238 
Q 1834 4238 1429 3725 
Q 1025 3213 1025 2328 
Q 1025 1447 1429 934 
Q 1834 422 2522 422 
Q 3209 422 3611 934 
Q 4013 1447 4013 2328 
Q 4013 3213 3611 3725 
Q 3209 4238 2522 4238 
z
M 2522 4750 
Q 3503 4750 4090 4092 
Q 4678 3434 4678 2328 
Q 4678 1225 4090 567 
Q 3503 -91 2522 -91 
Q 1538 -91 948 565 
Q 359 1222 359 2328 
Q 359 3434 948 4092 
Q 1538 4750 2522 4750 
z
" transform="scale(0.015625)"/>
       <path id="DejaVuSans-62" d="M 3116 1747 
Q 3116 2381 2855 2742 
Q 2594 3103 2138 3103 
Q 1681 3103 1420 2742 
Q 1159 2381 1159 1747 
Q 1159 1113 1420 752 
Q 1681 391 2138 391 
Q 2594 391 2855 752 
Q 3116 1113 3116 1747 
z
M 1159 2969 
Q 1341 3281 1617 3432 
Q 1894 3584 2278 3584 
Q 2916 3584 3314 3078 
Q 3713 2572 3713 1747 
Q 3713 922 3314 415 
Q 2916 -91 2278 -91 
Q 1894 -91 1617 61 
Q 1341 213 1159 525 
L 1159 0 
L 581 0 
L 581 4863 
L 1159 4863 
L 1159 2969 
z
" transform="scale(0.015625)"/>
       <path id="DejaVuSans-6a" d="M 603 3500 
L 1178 3500 
L 1178 -63 
Q 1178 -731 923 -1031 
Q 669 -1331 103 -1331 
L -116 -1331 
L -116 -844 
L 38 -844 
Q 366 -844 484 -692 
Q 603 -541 603 -63 
L 603 3500 
z
M 603 4863 
L 1178 4863 
L 1178 4134 
L 603 4134 
L 603 4863 
z
" transform="scale(0.015625)"/>
       <path id="DejaVuSans-63" d="M 3122 3366 
L 3122 2828 
Q 2878 2963 2633 3030 
Q 2388 3097 2138 3097 
Q 1578 3097 1268 2742 
Q 959 2388 959 1747 
Q 959 1106 1268 751 
Q 1578 397 2138 397 
Q 2388 397 2633 464 
Q 2878 531 3122 666 
L 3122 134 
Q 2881 22 2623 -34 
Q 2366 -91 2075 -91 
Q 1284 -91 818 406 
Q 353 903 353 1747 
Q 353 2603 823 3093 
Q 1294 3584 2113 3584 
Q 2378 3584 2631 3529 
Q 2884 3475 3122 3366 
z
" transform="scale(0.015625)"/>
       <path id="DejaVuSans-76" d="M 191 3500 
L 800 3500 
L 1894 563 
L 2988 3500 
L 3597 3500 
L 2284 0 
L 1503 0 
L 191 3500 
z
" transform="scale(0.015625)"/>
       <path id="DejaVuSans-56" d="M 1831 0 
L 50 4666 
L 709 4666 
L 2188 738 
L 3669 4666 
L 4325 4666 
L 2547 0 
L 1831 0 
z
" transform="scale(0.015625)"/>
       <path id="DejaVuSans-6c" d="M 603 4863 
L 1178 4863 
L 1178 0 
L 603 0 
L 603 4863 
z
" transform="scale(0.015625)"/>
       <path id="DejaVuSans-75" d="M 544 1381 
L 544 3500 
L 1119 3500 
L 1119 1403 
Q 1119 906 1312 657 
Q 1506 409 1894 409 
Q 2359 409 2629 706 
Q 2900 1003 2900 1516 
L 2900 3500 
L 3475 3500 
L 3475 0 
L 2900 0 
L 2900 538 
Q 2691 219 2414 64 
Q 2138 -91 1772 -91 
Q 1169 -91 856 284 
Q 544 659 544 1381 
z
M 1991 3584 
L 1991 3584 
z
" transform="scale(0.015625)"/>
      </defs>
      <use xlink:href="#DejaVuSans-4f"/>
      <use xlink:href="#DejaVuSans-62" transform="translate(78.710938 0)"/>
      <use xlink:href="#DejaVuSans-6a" transform="translate(142.1875 0)"/>
      <use xlink:href="#DejaVuSans-65" transform="translate(169.970703 0)"/>
      <use xlink:href="#DejaVuSans-63" transform="translate(231.494141 0)"/>
      <use xlink:href="#DejaVuSans-74" transform="translate(286.474609 0)"/>
      <use xlink:href="#DejaVuSans-69" transform="translate(325.683594 0)"/>
      <use xlink:href="#DejaVuSans-76" transform="translate(353.466797 0)"/>
      <use xlink:href="#DejaVuSans-65" transform="translate(412.646484 0)"/>
      <use xlink:href="#DejaVuSans-20" transform="translate(474.169922 0)"/>
      <use xlink:href="#DejaVuSans-56" transform="translate(505.957031 0)"/>
      <use xlink:href="#DejaVuSans-61" transform="translate(566.615234 0)"/>
      <use xlink:href="#DejaVuSans-6c" transform="translate(627.894531 0)"/>
      <use xlink:href="#DejaVuSans-75" transform="translate(655.677734 0)"/>
      <use xlink:href="#DejaVuSans-65" transform="translate(719.056641 0)"/>
     </g>
    </g>
   </g>
   <g id="line2d_33">
    <path d="M 48.37 245.707359 
L 50.340955 245.707359 
L 50.340955 262.284968 
L 54.282865 262.284968 
L 54.282865 285.669923 
L 56.910805 285.669923 
L 56.910805 300.806153 
L 58.224775 300.806153 
L 58.224775 310.352976 
L 60.852715 310.352976 
L 60.852715 318.749021 
L 73.992415 318.749021 
L 73.992415 319.006925 
L 82.53322 319.006925 
L 82.53322 327.17841 
L 123.26629 327.17841 
L 123.26629 334.223227 
L 131.807095 334.223227 
L 131.807095 334.46595 
L 168.598255 334.46595 
L 168.598255 343.762907 
L 195.53464 343.762907 
L 195.53464 348.577705 
L 200.133535 348.577705 
L 200.133535 360.60609 
L 317.076865 360.60609 
L 317.076865 367.11 
L 704.698015 367.11 
L 704.698015 367.11 
" clip-path="url(#pa4358beda2)" style="fill: none; stroke: #1f77b4; stroke-width: 1.5; stroke-linecap: square"/>
   </g>
   <g id="line2d_34">
    <path d="M 48.37 128.260955 
L 49.026985 78.075685 
L 49.68397 58.694735 
L 50.340955 95.944516 
L 50.99794 94.416836 
L 51.654925 101.716268 
L 52.31191 76.225679 
L 52.968895 100.127599 
L 53.62588 82.69846 
L 54.282865 105.641916 
L 54.93985 107.775818 
L 55.596835 112.038602 
L 56.25382 89.681001 
L 56.910805 105.982849 
L 57.56779 98.150511 
L 58.224775 113.65879 
L 58.88176 146.128428 
L 59.538745 142.00423 
L 60.19573 98.887012 
L 60.852715 153.25651 
L 61.5097 135.707592 
L 62.166685 108.812391 
L 62.82367 113.920529 
L 63.480655 128.350115 
L 64.13764 153.314832 
L 64.794625 110.905988 
L 65.45161 135.255264 
L 66.108595 111.686325 
L 66.76558 135.514495 
L 67.422565 122.118157 
L 68.07955 140.312193 
L 68.736535 111.359247 
L 69.39352 117.923583 
L 70.050505 159.402845 
L 70.70749 155.844649 
L 71.364475 118.79391 
L 72.02146 109.694219 
L 72.678445 95.536068 
L 73.33543 112.627993 
L 73.992415 115.808228 
L 74.6494 119.679081 
L 75.306385 161.420227 
L 75.96337 146.626631 
L 76.620355 150.687088 
L 77.27734 152.411143 
L 77.934325 149.284307 
L 78.59131 147.061266 
L 79.90528 116.124979 
L 80.562265 123.950327 
L 81.21925 134.10692 
L 81.876235 177.703301 
L 82.53322 176.584383 
L 83.190205 171.88046 
L 83.84719 162.177394 
L 84.504175 158.051496 
L 85.16116 184.091018 
L 85.818145 156.075611 
L 86.47513 151.261333 
L 87.132115 179.963333 
L 87.7891 171.876171 
L 88.446085 154.646179 
L 89.10307 180.482546 
L 89.760055 176.887615 
L 90.41704 156.506662 
L 91.074025 174.643212 
L 91.73101 153.966172 
L 92.387995 172.463812 
L 93.04498 139.503182 
L 93.701965 152.095551 
L 94.35895 147.851698 
L 95.015935 99.117492 
L 95.67292 137.661519 
L 96.329905 104.249179 
L 96.98689 118.690008 
L 97.643875 113.512894 
L 98.30086 169.44109 
L 98.957845 153.441971 
L 99.61483 122.143596 
L 100.271815 142.157897 
L 100.9288 147.349437 
L 101.585785 131.966483 
L 102.24277 136.267041 
L 102.899755 119.088837 
L 103.55674 122.671357 
L 104.87071 143.459662 
L 105.527695 140.518404 
L 106.18468 133.331255 
L 106.841665 135.52002 
L 107.49865 98.106921 
L 108.155635 126.436339 
L 108.81262 172.554927 
L 109.469605 137.071637 
L 110.12659 121.916537 
L 110.783575 155.787 
L 111.44056 147.875788 
L 112.097545 168.966118 
L 112.75453 180.103078 
L 113.411515 174.463531 
L 114.0685 157.549417 
L 114.725485 136.23193 
L 115.38247 141.444469 
L 116.039455 155.744154 
L 116.69644 126.842848 
L 117.353425 143.633966 
L 118.01041 165.861918 
L 119.32438 118.547028 
L 119.981365 124.422458 
L 120.63835 123.432318 
L 121.295335 147.163496 
L 121.95232 126.686734 
L 122.609305 162.45174 
L 123.26629 153.924595 
L 123.923275 112.797349 
L 124.58026 166.865569 
L 125.237245 102.991273 
L 125.89423 101.545737 
L 126.551215 108.418646 
L 127.2082 89.288531 
L 127.865185 121.615432 
L 128.52217 130.647621 
L 129.179155 126.436844 
L 129.83614 118.441005 
L 130.493125 145.761727 
L 131.15011 137.435066 
L 131.807095 122.124484 
L 132.46408 128.667643 
L 133.121065 108.102606 
L 133.77805 152.228996 
L 134.435035 119.941281 
L 135.09202 98.230362 
L 135.749005 83.617641 
L 136.40599 84.887067 
L 137.062975 118.270664 
L 137.71996 137.593335 
L 138.376945 150.940868 
L 139.03393 140.293066 
L 139.690915 138.811017 
L 141.004885 153.674977 
L 141.66187 141.442237 
L 142.318855 149.923837 
L 142.97584 143.673029 
L 143.632825 127.973474 
L 144.28981 167.922881 
L 144.946795 177.597767 
L 145.60378 147.450144 
L 146.260765 159.000917 
L 146.91775 163.472303 
L 147.574735 168.996975 
L 148.23172 145.371051 
L 148.888705 167.236011 
L 149.54569 106.507673 
L 150.202675 131.391208 
L 150.85966 140.79766 
L 151.516645 123.508565 
L 152.830615 162.545275 
L 153.4876 187.08876 
L 154.144585 135.853681 
L 154.80157 175.537833 
L 155.458555 154.229076 
L 156.11554 114.330066 
L 156.772525 141.353545 
L 157.42951 108.632653 
L 158.086495 102.564941 
L 158.74348 114.099277 
L 159.400465 97.012235 
L 160.05745 138.74688 
L 160.714435 121.313174 
L 161.37142 168.608559 
L 162.028405 147.921278 
L 162.68539 154.275153 
L 163.342375 153.935886 
L 163.99936 120.907578 
L 164.656345 127.909381 
L 165.31333 125.295022 
L 165.970315 111.423545 
L 166.6273 119.135683 
L 167.284285 105.364226 
L 167.94127 110.221003 
L 168.598255 117.741334 
L 169.25524 161.109478 
L 169.912225 147.010788 
L 170.56921 156.640036 
L 171.226195 153.44853 
L 171.88318 154.14967 
L 172.540165 134.244849 
L 173.19715 125.488355 
L 173.854135 148.367823 
L 174.51112 154.379969 
L 175.168105 179.671515 
L 175.82509 193.623129 
L 176.482075 161.210816 
L 177.13906 164.445466 
L 177.796045 158.110401 
L 178.45303 122.47805 
L 179.110015 160.890491 
L 179.767 156.608065 
L 180.423985 174.835025 
L 181.08097 122.486387 
L 181.737955 129.78327 
L 182.39494 128.783544 
L 183.051925 135.612113 
L 183.70891 146.185099 
L 184.365895 150.629502 
L 185.02288 144.24032 
L 185.679865 144.93588 
L 186.33685 137.731984 
L 186.993835 127.492087 
L 187.65082 97.112024 
L 188.307805 77.908152 
L 189.621775 141.511386 
L 190.27876 135.971301 
L 190.935745 158.232841 
L 191.59273 124.659948 
L 192.249715 136.590653 
L 192.9067 126.58843 
L 193.563685 114.51334 
L 194.22067 132.068625 
L 194.877655 117.485035 
L 195.53464 159.258757 
L 196.191625 141.147875 
L 196.84861 149.759653 
L 197.505595 164.546154 
L 198.16258 134.458972 
L 199.47655 177.302468 
L 200.133535 177.472568 
L 201.447505 121.191844 
L 202.10449 171.33292 
L 202.761475 166.312618 
L 203.41846 153.082071 
L 204.075445 157.651284 
L 204.73243 145.367709 
L 205.389415 178.946017 
L 206.0464 172.682622 
L 206.703385 163.493401 
L 207.36037 176.076782 
L 208.017355 151.984709 
L 208.67434 76.574926 
L 209.331325 76.288493 
L 209.98831 159.095288 
L 210.645295 140.077502 
L 211.30228 116.550957 
L 211.959265 140.551353 
L 212.61625 118.593522 
L 213.273235 121.394009 
L 213.93022 135.938834 
L 214.587205 135.262072 
L 215.24419 128.453449 
L 215.901175 127.368389 
L 216.55816 162.1338 
L 217.215145 128.39178 
L 217.87213 116.421362 
L 218.529115 107.109775 
L 219.843085 159.281711 
L 221.157055 125.215916 
L 221.81404 151.738019 
L 222.471025 163.447394 
L 224.44198 94.692181 
L 225.098965 121.890523 
L 225.75595 127.761442 
L 226.412935 91.9448 
L 227.06992 85.261402 
L 227.726905 104.067882 
L 228.38389 128.429061 
L 229.040875 131.2246 
L 229.69786 109.552623 
L 230.354845 150.699892 
L 231.01183 107.094325 
L 231.668815 101.350235 
L 232.982785 123.180862 
L 233.63977 119.621159 
L 234.296755 173.675841 
L 234.95374 152.844452 
L 235.610725 168.627449 
L 236.26771 148.007177 
L 236.924695 114.532531 
L 237.58168 89.348341 
L 238.238665 113.915723 
L 238.89565 151.007377 
L 239.552635 143.179446 
L 240.20962 158.632727 
L 240.866605 171.097506 
L 241.52359 157.439043 
L 242.180575 148.418024 
L 242.83756 148.656614 
L 243.494545 136.667684 
L 244.15153 146.893387 
L 244.808515 136.231352 
L 245.4655 152.006886 
L 246.122485 100.609516 
L 246.77947 129.480537 
L 247.436455 146.200584 
L 248.09344 127.585443 
L 248.750425 142.310066 
L 249.40741 143.880839 
L 250.064395 146.842512 
L 250.72138 135.688516 
L 251.378365 136.492173 
L 252.03535 171.733859 
L 252.692335 157.639332 
L 253.34932 158.623052 
L 254.006305 143.821903 
L 254.66329 151.446651 
L 255.320275 110.33428 
L 255.97726 77.307315 
L 256.634245 133.960964 
L 258.6052 72.543011 
L 259.262185 144.678626 
L 259.91917 120.75805 
L 260.576155 113.128767 
L 261.23314 98.252914 
L 261.890125 156.266941 
L 263.204095 89.419668 
L 263.86108 135.373026 
L 264.518065 128.627574 
L 265.17505 165.898849 
L 265.832035 166.301843 
L 266.48902 180.97699 
L 267.146005 138.456046 
L 267.80299 144.448001 
L 268.459975 145.832538 
L 269.11696 134.923461 
L 269.773945 132.550181 
L 270.43093 87.730014 
L 271.087915 141.369359 
L 271.7449 138.711336 
L 272.401885 151.701472 
L 273.05887 127.623173 
L 273.715855 177.415949 
L 274.37284 150.890993 
L 275.029825 135.969228 
L 275.68681 163.122472 
L 277.00078 145.375609 
L 277.657765 95.94825 
L 278.31475 167.817032 
L 278.971735 153.497816 
L 279.62872 117.135107 
L 280.285705 146.699422 
L 280.94269 138.945081 
L 281.599675 129.363819 
L 282.25666 102.206793 
L 282.913645 160.660866 
L 283.57063 144.415789 
L 284.227615 167.478699 
L 284.8846 141.833652 
L 285.541585 158.561319 
L 286.19857 155.230588 
L 286.855555 160.531341 
L 287.51254 147.545738 
L 288.169525 151.917162 
L 288.82651 166.212115 
L 289.483495 159.174638 
L 290.14048 167.322905 
L 290.797465 170.381051 
L 291.45445 127.032318 
L 292.111435 121.209579 
L 292.76842 125.4946 
L 293.425405 126.621473 
L 294.08239 133.114607 
L 294.739375 129.729225 
L 295.39636 143.478331 
L 296.053345 166.70447 
L 296.71033 143.736288 
L 297.367315 110.186602 
L 299.33827 146.910598 
L 299.995255 160.332139 
L 300.65224 144.203742 
L 301.309225 148.737982 
L 301.96621 101.970471 
L 302.623195 114.985342 
L 303.28018 151.465544 
L 303.937165 160.840881 
L 304.59415 121.435313 
L 305.251135 118.108171 
L 305.90812 147.505829 
L 306.565105 136.552346 
L 307.22209 100.74673 
L 307.879075 118.518148 
L 308.53606 127.681656 
L 309.193045 127.864834 
L 309.85003 140.618889 
L 310.507015 103.807869 
L 311.164 122.901739 
L 311.820985 167.433887 
L 312.47797 158.559977 
L 313.134955 154.673959 
L 313.79194 154.170471 
L 314.448925 149.83795 
L 315.10591 135.9131 
L 315.762895 125.710016 
L 316.41988 100.045513 
L 317.076865 135.036763 
L 317.73385 114.462282 
L 318.390835 121.167912 
L 319.04782 136.363975 
L 319.704805 139.804671 
L 320.36179 167.348255 
L 321.018775 157.821671 
L 321.67576 144.780934 
L 322.332745 144.251659 
L 322.98973 91.282689 
L 323.646715 127.132487 
L 324.3037 131.827068 
L 324.960685 127.994938 
L 325.61767 121.687433 
L 326.274655 162.33015 
L 326.93164 163.580371 
L 327.588625 135.355906 
L 328.24561 129.532768 
L 328.902595 110.05644 
L 329.55958 117.40546 
L 330.216565 149.753925 
L 330.87355 122.841963 
L 331.530535 119.713503 
L 332.18752 141.74947 
L 332.844505 124.904722 
L 333.50149 111.957067 
L 334.158475 160.82591 
L 334.81546 167.378918 
L 335.472445 142.579676 
L 336.12943 150.573229 
L 336.786415 138.636218 
L 337.4434 133.120676 
L 338.100385 154.808137 
L 339.414355 76.861523 
L 340.07134 109.680051 
L 340.728325 114.805907 
L 341.38531 124.663419 
L 342.042295 114.191371 
L 342.69928 126.008228 
L 343.356265 123.000927 
L 344.01325 92.630277 
L 344.670235 79.510068 
L 345.32722 91.310045 
L 345.984205 49.81 
L 346.64119 118.963939 
L 347.298175 110.983728 
L 347.95516 100.668172 
L 348.612145 126.132681 
L 349.26913 130.397171 
L 349.926115 137.544103 
L 350.5831 123.230016 
L 351.240085 139.976891 
L 351.89707 137.873649 
L 352.554055 147.004204 
L 353.21104 119.936901 
L 353.868025 124.497801 
L 354.52501 127.645751 
L 355.181995 144.669337 
L 355.83898 143.895465 
L 356.495965 118.088463 
L 357.15295 139.552684 
L 357.809935 136.157222 
L 358.46692 122.701183 
L 359.123905 134.933518 
L 359.78089 159.966889 
L 360.437875 143.846825 
L 361.09486 136.771731 
L 361.751845 125.734923 
L 362.40883 145.473421 
L 363.065815 152.676855 
L 363.7228 145.236672 
L 364.379785 104.827257 
L 365.03677 118.524444 
L 365.693755 122.849655 
L 366.35074 106.380488 
L 367.007725 115.096824 
L 367.66471 82.894759 
L 368.321695 137.931665 
L 368.97868 137.338768 
L 369.635665 157.949425 
L 370.29265 148.038652 
L 370.949635 116.136513 
L 371.60662 150.751612 
L 372.263605 125.134273 
L 372.92059 132.763617 
L 373.577575 166.340742 
L 374.23456 161.86103 
L 374.891545 172.714346 
L 375.54853 111.239917 
L 376.205515 113.362282 
L 376.8625 129.496377 
L 377.519485 106.329195 
L 378.17647 132.732345 
L 378.833455 110.474896 
L 379.49044 139.655407 
L 380.147425 157.152995 
L 380.80441 157.685553 
L 381.461395 150.51125 
L 382.11838 138.270981 
L 382.775365 137.589188 
L 383.43235 97.876317 
L 384.089335 101.260996 
L 384.74632 131.774009 
L 385.403305 125.770961 
L 386.06029 133.933563 
L 386.717275 154.209884 
L 387.37426 128.900098 
L 388.031245 154.078226 
L 388.68823 147.913118 
L 389.345215 120.139676 
L 390.0022 125.237788 
L 390.659185 155.903481 
L 391.31617 166.211895 
L 391.973155 163.302931 
L 392.63014 144.47916 
L 393.287125 154.917576 
L 393.94411 118.787012 
L 394.601095 141.309193 
L 395.25808 154.353314 
L 395.915065 130.531435 
L 396.57205 132.650535 
L 397.229035 143.107427 
L 397.88602 160.766298 
L 398.543005 144.164029 
L 399.19999 136.166073 
L 399.856975 117.356801 
L 400.51396 154.243211 
L 401.170945 121.908246 
L 401.82793 160.792826 
L 402.484915 160.439405 
L 403.1419 137.458176 
L 403.798885 131.131927 
L 404.45587 176.801431 
L 405.112855 180.328901 
L 405.76984 148.892851 
L 406.426825 138.840463 
L 407.08381 142.844019 
L 407.740795 136.510793 
L 408.39778 137.262439 
L 409.054765 146.774362 
L 409.71175 122.341605 
L 410.368735 129.879798 
L 411.02572 133.076807 
L 411.682705 175.408699 
L 412.33969 119.442912 
L 412.996675 121.483507 
L 413.65366 127.747668 
L 414.310645 146.90823 
L 414.96763 125.315974 
L 415.624615 152.068598 
L 416.2816 171.104941 
L 416.938585 132.355137 
L 417.59557 148.739704 
L 418.252555 137.48657 
L 418.90954 154.511825 
L 419.566525 142.347068 
L 420.22351 132.813739 
L 420.880495 119.803363 
L 421.53748 130.849779 
L 422.194465 150.266428 
L 422.85145 120.051538 
L 423.508435 115.999291 
L 424.16542 142.058481 
L 424.822405 150.922303 
L 425.47939 134.127116 
L 426.136375 143.736088 
L 426.79336 133.295173 
L 427.450345 166.820576 
L 428.10733 105.173677 
L 428.764315 135.119289 
L 429.4213 120.359037 
L 430.078285 139.354816 
L 430.73527 145.250717 
L 431.392255 149.443762 
L 432.706225 177.026037 
L 433.36321 167.032303 
L 434.020195 142.08666 
L 434.67718 156.136439 
L 435.334165 177.113992 
L 435.99115 147.729445 
L 436.648135 166.034695 
L 437.30512 116.912357 
L 437.962105 154.727087 
L 438.61909 142.173821 
L 439.276075 115.904269 
L 439.93306 127.795465 
L 440.590045 162.62429 
L 441.24703 126.972026 
L 441.904015 137.41365 
L 442.561 118.677636 
L 443.217985 124.72186 
L 443.87497 124.793659 
L 444.531955 134.462522 
L 445.18894 158.785335 
L 445.845925 134.025698 
L 446.50291 149.171724 
L 447.159895 145.062879 
L 447.81688 123.19545 
L 448.473865 94.849536 
L 449.13085 141.583293 
L 449.787835 119.33199 
L 450.44482 140.429944 
L 451.101805 131.637157 
L 451.75879 129.005196 
L 452.415775 147.554182 
L 453.07276 131.219439 
L 453.729745 105.634704 
L 454.38673 159.366562 
L 455.043715 156.190611 
L 455.7007 147.833546 
L 456.357685 95.944947 
L 457.01467 145.784325 
L 457.671655 149.160482 
L 458.32864 151.081981 
L 458.985625 136.743696 
L 459.64261 137.015597 
L 460.299595 86.29568 
L 460.95658 112.996548 
L 461.613565 94.919706 
L 462.27055 117.695465 
L 462.927535 108.299251 
L 463.58452 124.066311 
L 464.241505 152.644671 
L 464.89849 145.390192 
L 465.555475 161.718618 
L 466.21246 149.871978 
L 466.869445 152.46706 
L 467.52643 149.583753 
L 468.183415 171.45012 
L 468.8404 175.730071 
L 469.497385 152.895664 
L 470.15437 153.261566 
L 470.811355 157.651548 
L 471.46834 169.613704 
L 472.125325 132.566025 
L 472.78231 109.247514 
L 473.439295 167.797123 
L 474.09628 152.644574 
L 474.753265 170.125162 
L 475.41025 153.050399 
L 476.067235 140.000008 
L 476.72422 158.857451 
L 477.381205 145.399194 
L 478.03819 134.235285 
L 478.695175 150.333701 
L 479.35216 125.627907 
L 480.009145 168.954133 
L 480.66613 129.180659 
L 481.323115 153.257351 
L 481.9801 164.852179 
L 482.637085 151.163839 
L 483.29407 160.285431 
L 483.951055 136.986339 
L 484.60804 128.723278 
L 485.265025 135.684773 
L 485.92201 147.508665 
L 486.578995 92.137026 
L 487.892965 137.442874 
L 489.206935 148.035935 
L 489.86392 120.022833 
L 490.520905 107.380285 
L 491.17789 122.987903 
L 491.834875 132.789028 
L 492.49186 89.190502 
L 493.148845 81.345923 
L 493.80583 120.336399 
L 494.462815 149.095085 
L 495.1198 159.282543 
L 495.776785 147.656325 
L 496.43377 173.862864 
L 497.090755 187.552743 
L 497.74774 154.061428 
L 498.404725 149.490567 
L 499.06171 120.862192 
L 499.718695 119.479726 
L 500.37568 151.128312 
L 501.032665 136.339258 
L 501.68965 155.002342 
L 502.346635 166.500817 
L 503.00362 154.152506 
L 503.660605 158.256801 
L 504.31759 159.040237 
L 504.974575 134.157916 
L 505.63156 124.52885 
L 506.288545 143.52897 
L 506.94553 119.856037 
L 507.602515 113.0592 
L 508.2595 108.592787 
L 508.916485 142.377249 
L 509.57347 140.912464 
L 510.230455 148.440905 
L 510.88744 165.067744 
L 511.544425 148.567052 
L 512.20141 181.658308 
L 512.858395 128.345077 
L 513.51538 154.915938 
L 514.172365 119.12684 
L 514.82935 77.200301 
L 515.486335 87.447008 
L 516.14332 91.557936 
L 516.800305 141.969347 
L 517.45729 138.969256 
L 518.114275 141.31308 
L 518.77126 150.480943 
L 519.428245 142.222233 
L 520.742215 117.109118 
L 521.3992 157.712004 
L 522.056185 128.14609 
L 522.71317 154.854748 
L 523.370155 135.263255 
L 524.02714 127.045638 
L 524.684125 145.559383 
L 525.34111 140.930297 
L 525.998095 115.994456 
L 526.65508 140.406599 
L 527.312065 122.161916 
L 527.96905 115.141497 
L 528.626035 156.712828 
L 529.28302 141.737429 
L 529.940005 107.848155 
L 530.59699 125.157417 
L 531.253975 123.605552 
L 531.91096 132.088905 
L 532.567945 160.492506 
L 533.881915 132.278879 
L 534.5389 127.367141 
L 535.195885 177.613187 
L 535.85287 172.893957 
L 536.509855 150.488969 
L 537.16684 140.644989 
L 537.823825 143.973232 
L 538.48081 132.124191 
L 539.137795 99.403542 
L 539.79478 121.969259 
L 540.451765 121.373104 
L 541.10875 132.179721 
L 541.765735 134.734123 
L 542.42272 143.617559 
L 543.079705 173.79994 
L 543.73669 145.818554 
L 544.393675 148.543038 
L 545.05066 164.804784 
L 545.707645 145.491907 
L 546.36463 171.395945 
L 547.021615 160.249947 
L 547.6786 171.829221 
L 548.335585 158.120167 
L 548.99257 161.417205 
L 549.649555 172.720258 
L 550.963525 149.965332 
L 551.62051 178.444532 
L 552.277495 124.694163 
L 552.93448 136.317607 
L 553.591465 139.501311 
L 554.24845 130.462881 
L 554.905435 131.016789 
L 555.56242 116.743995 
L 556.219405 92.249081 
L 556.87639 137.837004 
L 557.533375 119.345635 
L 558.19036 149.799981 
L 558.847345 153.950947 
L 559.50433 140.48333 
L 560.161315 121.818647 
L 560.8183 118.088714 
L 561.475285 107.843889 
L 562.13227 107.536246 
L 562.789255 101.923852 
L 563.44624 142.697592 
L 564.103225 112.65607 
L 564.76021 109.9839 
L 565.417195 149.417732 
L 566.07418 144.367489 
L 566.731165 132.378797 
L 567.38815 132.471591 
L 568.045135 145.666175 
L 568.70212 148.661267 
L 569.359105 137.839144 
L 570.01609 166.986209 
L 570.673075 103.126718 
L 571.33006 135.508809 
L 571.987045 128.952672 
L 572.64403 128.613637 
L 573.301015 125.829341 
L 573.958 151.262109 
L 574.614985 96.331658 
L 575.27197 131.724289 
L 575.928955 149.515384 
L 576.58594 163.413679 
L 577.242925 156.951049 
L 577.89991 107.788846 
L 578.556895 113.030061 
L 579.21388 102.567058 
L 579.870865 68.362824 
L 580.52785 105.718773 
L 581.184835 110.104634 
L 581.84182 153.939202 
L 583.15579 161.090006 
L 583.812775 130.247539 
L 584.46976 123.06873 
L 585.126745 105.927449 
L 585.78373 129.152631 
L 586.440715 115.792392 
L 587.0977 114.610925 
L 587.754685 99.969927 
L 588.41167 90.456845 
L 589.068655 99.526213 
L 589.72564 133.434314 
L 590.382625 129.344639 
L 591.03961 122.809627 
L 591.696595 91.964024 
L 592.35358 75.169938 
L 593.010565 157.275095 
L 593.66755 113.921497 
L 594.324535 142.130267 
L 594.98152 149.82201 
L 595.638505 125.14428 
L 596.29549 133.086111 
L 596.952475 136.99061 
L 598.266445 123.742582 
L 598.92343 111.083636 
L 599.580415 147.007312 
L 600.2374 143.555777 
L 600.894385 147.806143 
L 601.55137 144.137134 
L 602.208355 120.626863 
L 602.86534 139.691514 
L 603.522325 127.250174 
L 604.17931 144.277847 
L 604.836295 143.357228 
L 605.49328 132.371944 
L 606.150265 133.877646 
L 607.464235 149.864382 
L 608.12122 140.415221 
L 608.778205 103.370168 
L 609.43519 143.374379 
L 610.092175 145.12159 
L 610.74916 144.461293 
L 611.406145 95.695445 
L 612.06313 122.359553 
L 612.720115 120.523365 
L 613.3771 123.605799 
L 614.034085 172.241308 
L 614.69107 171.678255 
L 615.348055 162.793458 
L 616.00504 183.43781 
L 616.662025 141.065548 
L 617.31901 138.408051 
L 617.975995 123.276313 
L 618.63298 137.198346 
L 619.289965 138.831974 
L 619.94695 133.613233 
L 620.603935 106.138515 
L 621.26092 118.769083 
L 621.917905 115.31217 
L 622.57489 167.898057 
L 623.231875 155.442 
L 623.88886 156.459984 
L 624.545845 118.795916 
L 625.20283 155.75865 
L 625.859815 161.805991 
L 626.5168 154.68146 
L 627.173785 178.368437 
L 627.83077 146.919144 
L 628.487755 135.062215 
L 629.14474 108.446654 
L 629.801725 136.022256 
L 630.45871 107.044673 
L 631.115695 143.186654 
L 631.77268 125.90651 
L 632.429665 175.898033 
L 633.08665 173.327089 
L 633.743635 137.566149 
L 634.40062 130.306832 
L 635.057605 132.76101 
L 635.71459 160.905287 
L 636.371575 165.523295 
L 637.02856 168.434275 
L 637.685545 182.850215 
L 638.34253 130.091177 
L 638.999515 155.398814 
L 639.6565 162.967685 
L 640.313485 157.090714 
L 640.97047 130.460878 
L 641.627455 93.28749 
L 642.28444 122.388226 
L 642.941425 97.072817 
L 643.59841 137.217816 
L 644.255395 160.739734 
L 644.91238 148.285284 
L 645.569365 138.327839 
L 646.22635 145.574129 
L 646.883335 179.539941 
L 647.54032 150.676409 
L 648.197305 113.648061 
L 648.85429 130.629929 
L 649.511275 134.60202 
L 650.16826 149.823125 
L 650.825245 144.483534 
L 651.48223 159.564657 
L 652.139215 161.922254 
L 652.7962 172.133059 
L 653.453185 172.068099 
L 654.11017 151.901753 
L 654.767155 149.701142 
L 655.42414 168.155043 
L 656.081125 147.185766 
L 656.73811 110.012541 
L 657.395095 128.608883 
L 658.05208 120.281613 
L 658.709065 109.630508 
L 659.36605 106.702859 
L 660.023035 172.446394 
L 660.68002 183.757343 
L 661.337005 139.016144 
L 661.99399 144.205805 
L 662.650975 137.323652 
L 663.30796 146.512142 
L 663.964945 147.918234 
L 664.62193 129.785002 
L 665.278915 131.94636 
L 666.592885 162.675043 
L 667.24987 141.295791 
L 667.906855 160.892338 
L 668.56384 125.364352 
L 669.220825 152.855898 
L 669.87781 108.080336 
L 670.534795 115.97442 
L 671.19178 152.862087 
L 671.848765 131.038148 
L 672.50575 137.575702 
L 673.162735 138.775287 
L 673.81972 158.020874 
L 674.476705 139.247553 
L 675.13369 124.529387 
L 675.790675 161.032329 
L 676.44766 153.445702 
L 677.104645 140.787985 
L 677.76163 135.961273 
L 678.418615 88.200685 
L 679.0756 130.353954 
L 679.732585 64.866041 
L 681.70354 192.516939 
L 682.360525 176.749372 
L 683.01751 134.40019 
L 683.674495 112.391123 
L 684.33148 158.926241 
L 684.988465 157.080874 
L 685.64545 165.695662 
L 686.302435 170.850072 
L 686.95942 160.999338 
L 687.616405 143.360037 
L 688.27339 118.201983 
L 688.930375 144.670461 
L 689.58736 151.160429 
L 690.244345 142.785009 
L 690.90133 128.529261 
L 691.558315 129.364033 
L 692.2153 111.799521 
L 692.872285 127.48768 
L 693.52927 104.950775 
L 694.186255 116.847706 
L 694.84324 107.221649 
L 695.500225 151.829605 
L 696.15721 139.081114 
L 696.814195 159.985725 
L 697.47118 167.22734 
L 698.128165 165.781548 
L 698.78515 153.734372 
L 700.09912 138.294274 
L 700.756105 132.387 
L 701.41309 157.549608 
L 702.070075 155.256987 
L 702.72706 153.423092 
L 703.384045 159.921671 
L 704.04103 194.240489 
L 704.698015 161.895475 
L 704.698015 161.895475 
" clip-path="url(#pa4358beda2)" style="fill: none; stroke-dasharray: 5.55,2.4; stroke-dashoffset: 0; stroke: #ff7f0e; stroke-width: 1.5"/>
   </g>
   <g id="patch_3">
    <path d="M 48.37 398.84 
L 48.37 18.08 
" style="fill: none; stroke: #000000; stroke-width: 0.8; stroke-linejoin: miter; stroke-linecap: square"/>
   </g>
   <g id="patch_4">
    <path d="M 705.355 398.84 
L 705.355 18.08 
" style="fill: none; stroke: #000000; stroke-width: 0.8; stroke-linejoin: miter; stroke-linecap: square"/>
   </g>
   <g id="patch_5">
    <path d="M 48.37 398.84 
L 705.355 398.84 
" style="fill: none; stroke: #000000; stroke-width: 0.8; stroke-linejoin: miter; stroke-linecap: square"/>
   </g>
   <g id="patch_6">
    <path d="M 48.37 18.08 
L 705.355 18.08 
" style="fill: none; stroke: #000000; stroke-width: 0.8; stroke-linejoin: miter; stroke-linecap: square"/>
   </g>
   <g id="text_19">
    <!-- GA Evolution (Simulation #41) -->
    <g transform="translate(285.108438 12.08) scale(0.12 -0.12)">
     <defs>
      <path id="DejaVuSans-41" d="M 2188 4044 
L 1331 1722 
L 3047 1722 
L 2188 4044 
z
M 1831 4666 
L 2547 4666 
L 4325 0 
L 3669 0 
L 3244 1197 
L 1141 1197 
L 716 0 
L 50 0 
L 1831 4666 
z
" transform="scale(0.015625)"/>
      <path id="DejaVuSans-45" d="M 628 4666 
L 3578 4666 
L 3578 4134 
L 1259 4134 
L 1259 2753 
L 3481 2753 
L 3481 2222 
L 1259 2222 
L 1259 531 
L 3634 531 
L 3634 0 
L 628 0 
L 628 4666 
z
" transform="scale(0.015625)"/>
      <path id="DejaVuSans-28" d="M 1984 4856 
Q 1566 4138 1362 3434 
Q 1159 2731 1159 2009 
Q 1159 1288 1364 580 
Q 1569 -128 1984 -844 
L 1484 -844 
Q 1016 -109 783 600 
Q 550 1309 550 2009 
Q 550 2706 781 3412 
Q 1013 4119 1484 4856 
L 1984 4856 
z
" transform="scale(0.015625)"/>
      <path id="DejaVuSans-53" d="M 3425 4513 
L 3425 3897 
Q 3066 4069 2747 4153 
Q 2428 4238 2131 4238 
Q 1616 4238 1336 4038 
Q 1056 3838 1056 3469 
Q 1056 3159 1242 3001 
Q 1428 2844 1947 2747 
L 2328 2669 
Q 3034 2534 3370 2195 
Q 3706 1856 3706 1288 
Q 3706 609 3251 259 
Q 2797 -91 1919 -91 
Q 1588 -91 1214 -16 
Q 841 59 441 206 
L 441 856 
Q 825 641 1194 531 
Q 1563 422 1919 422 
Q 2459 422 2753 634 
Q 3047 847 3047 1241 
Q 3047 1584 2836 1778 
Q 2625 1972 2144 2069 
L 1759 2144 
Q 1053 2284 737 2584 
Q 422 2884 422 3419 
Q 422 4038 858 4394 
Q 1294 4750 2059 4750 
Q 2388 4750 2728 4690 
Q 3069 4631 3425 4513 
z
" transform="scale(0.015625)"/>
      <path id="DejaVuSans-6d" d="M 3328 2828 
Q 3544 3216 3844 3400 
Q 4144 3584 4550 3584 
Q 5097 3584 5394 3201 
Q 5691 2819 5691 2113 
L 5691 0 
L 5113 0 
L 5113 2094 
Q 5113 2597 4934 2840 
Q 4756 3084 4391 3084 
Q 3944 3084 3684 2787 
Q 3425 2491 3425 1978 
L 3425 0 
L 2847 0 
L 2847 2094 
Q 2847 2600 2669 2842 
Q 2491 3084 2119 3084 
Q 1678 3084 1418 2786 
Q 1159 2488 1159 1978 
L 1159 0 
L 581 0 
L 581 3500 
L 1159 3500 
L 1159 2956 
Q 1356 3278 1631 3431 
Q 1906 3584 2284 3584 
Q 2666 3584 2933 3390 
Q 3200 3197 3328 2828 
z
" transform="scale(0.015625)"/>
      <path id="DejaVuSans-23" d="M 3272 2816 
L 2363 2816 
L 2100 1772 
L 3016 1772 
L 3272 2816 
z
M 2803 4594 
L 2478 3297 
L 3391 3297 
L 3719 4594 
L 4219 4594 
L 3897 3297 
L 4872 3297 
L 4872 2816 
L 3775 2816 
L 3519 1772 
L 4513 1772 
L 4513 1294 
L 3397 1294 
L 3072 0 
L 2572 0 
L 2894 1294 
L 1978 1294 
L 1656 0 
L 1153 0 
L 1478 1294 
L 494 1294 
L 494 1772 
L 1594 1772 
L 1856 2816 
L 850 2816 
L 850 3297 
L 1978 3297 
L 2297 4594 
L 2803 4594 
z
" transform="scale(0.015625)"/>
      <path id="DejaVuSans-29" d="M 513 4856 
L 1013 4856 
Q 1481 4119 1714 3412 
Q 1947 2706 1947 2009 
Q 1947 1309 1714 600 
Q 1481 -109 1013 -844 
L 513 -844 
Q 928 -128 1133 580 
Q 1338 1288 1338 2009 
Q 1338 2731 1133 3434 
Q 928 4138 513 4856 
z
" transform="scale(0.015625)"/>
     </defs>
     <use xlink:href="#DejaVuSans-47"/>
     <use xlink:href="#DejaVuSans-41" transform="translate(77.490234 0)"/>
     <use xlink:href="#DejaVuSans-20" transform="translate(145.898438 0)"/>
     <use xlink:href="#DejaVuSans-45" transform="translate(177.685547 0)"/>
     <use xlink:href="#DejaVuSans-76" transform="translate(240.869141 0)"/>
     <use xlink:href="#DejaVuSans-6f" transform="translate(300.048828 0)"/>
     <use xlink:href="#DejaVuSans-6c" transform="translate(361.230469 0)"/>
     <use xlink:href="#DejaVuSans-75" transform="translate(389.013672 0)"/>
     <use xlink:href="#DejaVuSans-74" transform="translate(452.392578 0)"/>
     <use xlink:href="#DejaVuSans-69" transform="translate(491.601562 0)"/>
     <use xlink:href="#DejaVuSans-6f" transform="translate(519.384766 0)"/>
     <use xlink:href="#DejaVuSans-6e" transform="translate(580.566406 0)"/>
     <use xlink:href="#DejaVuSans-20" transform="translate(643.945312 0)"/>
     <use xlink:href="#DejaVuSans-28" transform="translate(675.732422 0)"/>
     <use xlink:href="#DejaVuSans-53" transform="translate(714.746094 0)"/>
     <use xlink:href="#DejaVuSans-69" transform="translate(778.222656 0)"/>
     <use xlink:href="#DejaVuSans-6d" transform="translate(806.005859 0)"/>
     <use xlink:href="#DejaVuSans-75" transform="translate(903.417969 0)"/>
     <use xlink:href="#DejaVuSans-6c" transform="translate(966.796875 0)"/>
     <use xlink:href="#DejaVuSans-61" transform="translate(994.580078 0)"/>
     <use xlink:href="#DejaVuSans-74" transform="translate(1055.859375 0)"/>
     <use xlink:href="#DejaVuSans-69" transform="translate(1095.068359 0)"/>
     <use xlink:href="#DejaVuSans-6f" transform="translate(1122.851562 0)"/>
     <use xlink:href="#DejaVuSans-6e" transform="translate(1184.033203 0)"/>
     <use xlink:href="#DejaVuSans-20" transform="translate(1247.412109 0)"/>
     <use xlink:href="#DejaVuSans-23" transform="translate(1279.199219 0)"/>
     <use xlink:href="#DejaVuSans-34" transform="translate(1362.988281 0)"/>
     <use xlink:href="#DejaVuSans-31" transform="translate(1426.611328 0)"/>
     <use xlink:href="#DejaVuSans-29" transform="translate(1490.234375 0)"/>
    </g>
   </g>
   <g id="legend_1">
    <g id="patch_7">
     <path d="M 561.906563 55.43625 
L 698.355 55.43625 
Q 700.355 55.43625 700.355 53.43625 
L 700.355 25.08 
Q 700.355 23.08 698.355 23.08 
L 561.906563 23.08 
Q 559.906563 23.08 559.906563 25.08 
L 559.906563 53.43625 
Q 559.906563 55.43625 561.906563 55.43625 
z
" style="fill: #ffffff; opacity: 0.8; stroke: #cccccc; stroke-linejoin: miter"/>
    </g>
    <g id="line2d_35">
     <path d="M 563.906563 31.178437 
L 573.906563 31.178437 
L 573.906563 31.178437 
L 583.906563 31.178437 
L 583.906563 31.178437 
" style="fill: none; stroke: #1f77b4; stroke-width: 1.5; stroke-linecap: square"/>
    </g>
    <g id="text_20">
     <!-- Best Fitness (GA) -->
     <g transform="translate(591.906563 34.678437) scale(0.1 -0.1)">
      <defs>
       <path id="DejaVuSans-42" d="M 1259 2228 
L 1259 519 
L 2272 519 
Q 2781 519 3026 730 
Q 3272 941 3272 1375 
Q 3272 1813 3026 2020 
Q 2781 2228 2272 2228 
L 1259 2228 
z
M 1259 4147 
L 1259 2741 
L 2194 2741 
Q 2656 2741 2882 2914 
Q 3109 3088 3109 3444 
Q 3109 3797 2882 3972 
Q 2656 4147 2194 4147 
L 1259 4147 
z
M 628 4666 
L 2241 4666 
Q 2963 4666 3353 4366 
Q 3744 4066 3744 3513 
Q 3744 3084 3544 2831 
Q 3344 2578 2956 2516 
Q 3422 2416 3680 2098 
Q 3938 1781 3938 1306 
Q 3938 681 3513 340 
Q 3088 0 2303 0 
L 628 0 
L 628 4666 
z
" transform="scale(0.015625)"/>
       <path id="DejaVuSans-73" d="M 2834 3397 
L 2834 2853 
Q 2591 2978 2328 3040 
Q 2066 3103 1784 3103 
Q 1356 3103 1142 2972 
Q 928 2841 928 2578 
Q 928 2378 1081 2264 
Q 1234 2150 1697 2047 
L 1894 2003 
Q 2506 1872 2764 1633 
Q 3022 1394 3022 966 
Q 3022 478 2636 193 
Q 2250 -91 1575 -91 
Q 1294 -91 989 -36 
Q 684 19 347 128 
L 347 722 
Q 666 556 975 473 
Q 1284 391 1588 391 
Q 1994 391 2212 530 
Q 2431 669 2431 922 
Q 2431 1156 2273 1281 
Q 2116 1406 1581 1522 
L 1381 1569 
Q 847 1681 609 1914 
Q 372 2147 372 2553 
Q 372 3047 722 3315 
Q 1072 3584 1716 3584 
Q 2034 3584 2315 3537 
Q 2597 3491 2834 3397 
z
" transform="scale(0.015625)"/>
       <path id="DejaVuSans-46" d="M 628 4666 
L 3309 4666 
L 3309 4134 
L 1259 4134 
L 1259 2759 
L 3109 2759 
L 3109 2228 
L 1259 2228 
L 1259 0 
L 628 0 
L 628 4666 
z
" transform="scale(0.015625)"/>
      </defs>
      <use xlink:href="#DejaVuSans-42"/>
      <use xlink:href="#DejaVuSans-65" transform="translate(68.603516 0)"/>
      <use xlink:href="#DejaVuSans-73" transform="translate(130.126953 0)"/>
      <use xlink:href="#DejaVuSans-74" transform="translate(182.226562 0)"/>
      <use xlink:href="#DejaVuSans-20" transform="translate(221.435547 0)"/>
      <use xlink:href="#DejaVuSans-46" transform="translate(253.222656 0)"/>
      <use xlink:href="#DejaVuSans-69" transform="translate(303.492188 0)"/>
      <use xlink:href="#DejaVuSans-74" transform="translate(331.275391 0)"/>
      <use xlink:href="#DejaVuSans-6e" transform="translate(370.484375 0)"/>
      <use xlink:href="#DejaVuSans-65" transform="translate(433.863281 0)"/>
      <use xlink:href="#DejaVuSans-73" transform="translate(495.386719 0)"/>
      <use xlink:href="#DejaVuSans-73" transform="translate(547.486328 0)"/>
      <use xlink:href="#DejaVuSans-20" transform="translate(599.585938 0)"/>
      <use xlink:href="#DejaVuSans-28" transform="translate(631.373047 0)"/>
      <use xlink:href="#DejaVuSans-47" transform="translate(670.386719 0)"/>
      <use xlink:href="#DejaVuSans-41" transform="translate(747.876953 0)"/>
      <use xlink:href="#DejaVuSans-29" transform="translate(816.285156 0)"/>
     </g>
    </g>
    <g id="line2d_36">
     <path d="M 563.906563 45.856562 
L 573.906563 45.856562 
L 583.906563 45.856562 
" style="fill: none; stroke-dasharray: 5.55,2.4; stroke-dashoffset: 0; stroke: #ff7f0e; stroke-width: 1.5"/>
    </g>
    <g id="text_21">
     <!-- Average Fitness (GA) -->
     <g transform="translate(591.906563 49.356562) scale(0.1 -0.1)">
      <defs>
       <path id="DejaVuSans-67" d="M 2906 1791 
Q 2906 2416 2648 2759 
Q 2391 3103 1925 3103 
Q 1463 3103 1205 2759 
Q 947 2416 947 1791 
Q 947 1169 1205 825 
Q 1463 481 1925 481 
Q 2391 481 2648 825 
Q 2906 1169 2906 1791 
z
M 3481 434 
Q 3481 -459 3084 -895 
Q 2688 -1331 1869 -1331 
Q 1566 -1331 1297 -1286 
Q 1028 -1241 775 -1147 
L 775 -588 
Q 1028 -725 1275 -790 
Q 1522 -856 1778 -856 
Q 2344 -856 2625 -561 
Q 2906 -266 2906 331 
L 2906 616 
Q 2728 306 2450 153 
Q 2172 0 1784 0 
Q 1141 0 747 490 
Q 353 981 353 1791 
Q 353 2603 747 3093 
Q 1141 3584 1784 3584 
Q 2172 3584 2450 3431 
Q 2728 3278 2906 2969 
L 2906 3500 
L 3481 3500 
L 3481 434 
z
" transform="scale(0.015625)"/>
      </defs>
      <use xlink:href="#DejaVuSans-41"/>
      <use xlink:href="#DejaVuSans-76" transform="translate(62.533203 0)"/>
      <use xlink:href="#DejaVuSans-65" transform="translate(121.712891 0)"/>
      <use xlink:href="#DejaVuSans-72" transform="translate(183.236328 0)"/>
      <use xlink:href="#DejaVuSans-61" transform="translate(224.349609 0)"/>
      <use xlink:href="#DejaVuSans-67" transform="translate(285.628906 0)"/>
      <use xlink:href="#DejaVuSans-65" transform="translate(349.105469 0)"/>
      <use xlink:href="#DejaVuSans-20" transform="translate(410.628906 0)"/>
      <use xlink:href="#DejaVuSans-46" transform="translate(442.416016 0)"/>
      <use xlink:href="#DejaVuSans-69" transform="translate(492.685547 0)"/>
      <use xlink:href="#DejaVuSans-74" transform="translate(520.46875 0)"/>
      <use xlink:href="#DejaVuSans-6e" transform="translate(559.677734 0)"/>
      <use xlink:href="#DejaVuSans-65" transform="translate(623.056641 0)"/>
      <use xlink:href="#DejaVuSans-73" transform="translate(684.580078 0)"/>
      <use xlink:href="#DejaVuSans-73" transform="translate(736.679688 0)"/>
      <use xlink:href="#DejaVuSans-20" transform="translate(788.779297 0)"/>
      <use xlink:href="#DejaVuSans-28" transform="translate(820.566406 0)"/>
      <use xlink:href="#DejaVuSans-47" transform="translate(859.580078 0)"/>
      <use xlink:href="#DejaVuSans-41" transform="translate(937.070312 0)"/>
      <use xlink:href="#DejaVuSans-29" transform="translate(1005.478516 0)"/>
     </g>
    </g>
   </g>
  </g>
 </g>
 <defs>
  <clipPath id="pa4358beda2">
   <rect x="48.37" y="18.08" width="656.985" height="380.76"/>
  </clipPath>
 </defs>
</svg>
